METRIC,LZ
M48
T1F00S00C0.700
T2F00S00C0.850
T3F00S00C1.000
T4F00S00C1.300
T5F00S00C2.000
%
T01
X00122Y0004575
X004145Y0003875
X00476Y0007575
X0048725Y0014475
X00461Y0015625
X004445Y001835
X004025Y001855
X0039025Y0019975
X00388Y00223
X0034975Y0024025
X003645Y0026175
X00356Y002785
X0035625Y00305
X00332Y003225
X0033225Y0033825
X0037475Y00364
X0038525Y003755
X004225Y00367
X004255Y0032293
X0041268Y0028975
X00266Y002835
X0026279Y0034196
X002805Y00356
X002495Y004185
X00208Y0043825
X0017Y003845
X0018075Y003715
X00164Y0034
X00159Y003245
X0014125Y00325
X0015525Y0030375
X001425Y0024075
X001345Y00224
X00137Y0019575
X00136Y001375
X001605Y001005
X00187Y00122
X00215Y00096
X00257Y0009075
X0029725Y0008787
X0032525Y00088
X003515Y0009075
X003425Y001485
X0032687Y001525
X0030575Y00165
X0035275Y0016275
X00364Y0017575
X0025125Y0014475
X00237Y0022025
X00225Y0022975
X0007145Y0024445
X0006Y00288
X000845Y0031025
X0007225Y003245
X0007525Y0035
X00075Y003925
X000535Y00406
X0014325Y0040825
X001565Y0039575
X00355Y00406
X00334Y004385
X0043625Y00427
X004085Y00071
X0009125Y0011225
X0007175Y00166
X0004475Y0017325
X00021Y001
X00022Y0005025
X0001975Y00323
X0002Y00371
X0001675Y00419
X0009075Y0046075
X00149Y005185
X00137Y0055625
X0015Y0057225
X00167Y005705
X0020238Y0055913
X0030012Y00552
X003455Y00571
X0034675Y005325
X003945Y00552
X00405Y0045575
X00258Y004705
X0045625Y00532
T02
X0001689Y0034433
X0004189
T03
X00021Y00021
X000464
X000718
X000972
X001226
X00148
X001734
X001988
X002242
X002496
X00275
X003004
X003258
X003512
X003766
X00402
X004274
X004528
X004782
X00475Y0036225
X0047727Y0039416
X0045187
X0042647
X0037567
X002291Y0034937
X002037
X0012258Y0027363
X0009758
Y0024388
X0012258
X0011575Y0017617
Y0012617
X00263Y005825
T04
X0006525Y0052175
X00095Y0052225
Y0057225
X0006525Y0057175
T05
X00028Y00472
Y00522
Y00572
M30
