%FSLAX43Y43*%
%MOMM*%
G71*
G01*
G75*
G04 Layer_Physical_Order=4*
%ADD10R,1.000X0.800*%
%ADD11R,0.800X1.000*%
%ADD12R,1.800X1.600*%
%ADD13R,2.000X6.000*%
%ADD14R,1.600X1.800*%
%ADD15R,1.300X0.850*%
%ADD16R,1.200X2.850*%
%ADD17O,2.000X1.000*%
%ADD18R,2.000X1.000*%
%ADD19C,0.125*%
%ADD20R,1.700X0.600*%
%ADD21R,1.700X0.600*%
%ADD22R,0.600X2.200*%
%ADD23R,0.600X2.200*%
%ADD24R,1.450X0.550*%
%ADD25R,1.450X0.550*%
%ADD26R,0.600X2.150*%
%ADD27R,0.600X2.150*%
%ADD28C,0.500*%
%ADD29C,0.400*%
%ADD30C,0.600*%
%ADD31C,1.000*%
%ADD32C,1.500*%
%ADD33C,2.000*%
%ADD34R,1.500X1.500*%
%ADD35R,1.300X1.300*%
%ADD36C,1.300*%
%ADD37C,4.000*%
%ADD38C,1.400*%
%ADD39R,1.400X1.400*%
%ADD40C,1.200*%
%ADD41C,0.300*%
D28*
X11025Y62550D02*
X12225D01*
X7500Y57100D02*
X9675Y59275D01*
Y61200D02*
X11025Y62550D01*
X9675Y59275D02*
Y61200D01*
D29*
X29925Y62225D02*
X30475Y61675D01*
Y55025D02*
Y61675D01*
X27075Y40450D02*
X29350D01*
X26775Y40150D02*
X27075Y40450D01*
X29350D02*
X30100Y41200D01*
X30725Y40250D02*
X34625D01*
X22910Y39937D02*
X24788D01*
X34625Y40250D02*
X35325Y40950D01*
X15300Y30825D02*
Y37050D01*
Y30825D02*
X15775Y30350D01*
X29450Y38975D02*
X30725Y40250D01*
X24788Y39937D02*
X25750Y38975D01*
X29450D01*
X24475Y38500D02*
X24800Y38175D01*
X31600D01*
X33125Y36650D01*
X18850Y37850D02*
X19500Y38500D01*
X16869Y37881D02*
X18350Y36400D01*
X19400D01*
X19500Y38500D02*
X24475D01*
X19400Y36400D02*
X20650Y37650D01*
X23850D01*
X24050Y37450D01*
X31025D01*
X32725Y35750D01*
X42772Y38872D02*
Y40591D01*
X33125Y36650D02*
X40550D01*
X42772Y38872D01*
X32725Y35750D02*
X41100D01*
X45312Y39962D01*
Y40591D01*
X15775Y30300D02*
Y30350D01*
X16869Y37881D02*
Y38619D01*
X18187Y39937D02*
X20370D01*
X15300Y37050D02*
X18187Y39937D01*
D32*
X42740Y7100D02*
D03*
X32580D02*
D03*
X45280D02*
D03*
X22910Y39937D02*
D03*
X42772Y40591D02*
D03*
X45312D02*
D03*
X47852D02*
D03*
X35120Y7100D02*
D03*
X4640D02*
D03*
X7180D02*
D03*
X9720D02*
D03*
X12260D02*
D03*
X14800D02*
D03*
X17340D02*
D03*
X19880D02*
D03*
X22420D02*
D03*
X24960D02*
D03*
X27500D02*
D03*
X30040D02*
D03*
X37660D02*
D03*
X40200D02*
D03*
X47820D02*
D03*
D33*
X26300Y63250D02*
D03*
X2200Y12375D02*
D03*
D34*
X20370Y39937D02*
D03*
X37692Y40591D02*
D03*
X2100Y7100D02*
D03*
D35*
X10608Y36888D02*
D03*
Y39763D02*
D03*
D36*
X13108Y36888D02*
D03*
Y39763D02*
D03*
D37*
X2800Y62200D02*
D03*
Y57200D02*
D03*
Y52200D02*
D03*
D38*
X46486Y44592D02*
D03*
D39*
X43986D02*
D03*
D40*
X23275Y55600D02*
D03*
X26725Y40325D02*
D03*
X22425Y21900D02*
D03*
X14225Y63250D02*
D03*
X14200Y34825D02*
D03*
X16875Y43475D02*
D03*
X12175Y43100D02*
D03*
X1638Y24825D02*
D03*
Y36525D02*
D03*
X40575Y13600D02*
D03*
X44925Y13725D02*
D03*
X41884Y16984D02*
D03*
X45875Y27475D02*
D03*
X28875Y28713D02*
D03*
X48400Y30825D02*
D03*
X34375Y19975D02*
D03*
X35100Y13925D02*
D03*
X31325Y13975D02*
D03*
X24825Y18625D02*
D03*
X28525Y15800D02*
D03*
X28000Y32050D02*
D03*
X25375Y26850D02*
D03*
X17879Y25121D02*
D03*
X21440Y28698D02*
D03*
X18800Y15550D02*
D03*
X20650Y14000D02*
D03*
X25375Y15825D02*
D03*
X19925Y9800D02*
D03*
X15350Y15550D02*
D03*
X22125Y14450D02*
D03*
X46850Y12725D02*
D03*
X47310Y18200D02*
D03*
X46040Y19550D02*
D03*
X39825Y17200D02*
D03*
X41625Y24550D02*
D03*
X26225Y18025D02*
D03*
X17100Y38925D02*
D03*
X18850Y37850D02*
D03*
X24025Y43850D02*
D03*
X26600Y42075D02*
D03*
X37150Y38150D02*
D03*
X35625Y43825D02*
D03*
X15775Y30300D02*
D03*
X35325Y40950D02*
D03*
X30100Y41200D02*
D03*
X8705Y51820D02*
D03*
X26675Y54975D02*
D03*
X32758Y56617D02*
D03*
X36450Y62388D02*
D03*
X29925Y62225D02*
D03*
X30475Y55025D02*
D03*
X24925Y22400D02*
D03*
X33325Y21175D02*
D03*
X41050Y27600D02*
D03*
X42350Y26025D02*
D03*
X37025Y27575D02*
D03*
X36350Y13025D02*
D03*
X12425Y10750D02*
D03*
X35925Y24700D02*
D03*
X8125Y20800D02*
D03*
X7450Y34500D02*
D03*
X5000Y34650D02*
D03*
X6425Y39750D02*
D03*
X8575D02*
D03*
X8550Y36300D02*
D03*
X5025Y36250D02*
D03*
X34225Y24050D02*
D03*
X6275Y22125D02*
D03*
X8625Y23225D02*
D03*
X26650Y33325D02*
D03*
X23225Y27025D02*
D03*
X4950Y23225D02*
D03*
X34300Y25750D02*
D03*
X7500Y57100D02*
D03*
X12225Y62550D02*
D03*
X6500Y44550D02*
D03*
D41*
X8750Y21425D02*
X19075D01*
X19275Y22125D02*
X21225Y20175D01*
X19075Y21425D02*
X21025Y19475D01*
X34675Y22550D02*
X35925Y23800D01*
X33100Y22550D02*
X34675D01*
X30025Y19475D02*
X33100Y22550D01*
X34025Y27600D02*
X36925D01*
X32700Y26275D02*
X34025Y27600D01*
X32700Y25175D02*
Y26275D01*
X29000Y21475D02*
X32700Y25175D01*
X19100Y23225D02*
X21500Y20825D01*
X35250Y19950D02*
X41325Y26025D01*
X35300Y21375D02*
X41050Y27125D01*
X33750Y21375D02*
X35300D01*
X41075Y17925D02*
X41650Y18500D01*
Y24525D01*
X26650Y17925D02*
X41075D01*
X39825Y17200D02*
Y17800D01*
X39950Y17925D01*
X41625Y24550D02*
X41650Y24525D01*
X36950Y14175D02*
X38700Y12425D01*
X46550D01*
X21400Y13250D02*
X22800D01*
X20650Y14000D02*
X21400Y13250D01*
X22800D02*
X25375Y15825D01*
X26125Y17925D02*
X26750D01*
X18775Y10750D02*
X19200Y11175D01*
X20500D01*
X20925Y10750D01*
X25675Y16850D02*
X27475D01*
X24950Y17575D02*
X25675Y16850D01*
X24950Y17575D02*
Y18600D01*
X29400Y20825D02*
X34300Y25725D01*
X29675Y20175D02*
X33550Y24050D01*
X24350Y19700D02*
X25625D01*
X5000Y34650D02*
X7300D01*
X7450Y34500D01*
X6425Y39750D02*
X8575D01*
X24125Y19475D02*
X24350Y19700D01*
X25625D02*
X25850Y19475D01*
X8125Y20800D02*
X8750Y21425D01*
X35925Y23800D02*
Y24700D01*
X21025Y19475D02*
X24125D01*
X25850D02*
X30025D01*
X23925Y20325D02*
X25875D01*
X6275Y22125D02*
X19275D01*
X23775Y20175D02*
X23925Y20325D01*
X25875D02*
X26025Y20175D01*
X33550Y24050D02*
X34225D01*
X21225Y20175D02*
X23775D01*
X26025D02*
X29675D01*
X23650Y20975D02*
X26125D01*
X5025Y36250D02*
X8500D01*
X23500Y20825D02*
X23650Y20975D01*
X26125D02*
X26275Y20825D01*
X8500Y36250D02*
X8550Y36300D01*
X34300Y25725D02*
Y25750D01*
X4950Y23225D02*
X19100D01*
X21500Y20825D02*
X23500D01*
X26275D02*
X29400D01*
X12425Y10750D02*
X18775D01*
X24925Y22400D02*
X25650Y21675D01*
X26300D02*
X26500Y21475D01*
X25650Y21675D02*
X26300D01*
X37025Y27575D02*
Y27700D01*
X26500Y21475D02*
X29000D01*
X36925Y27600D02*
X37025Y27700D01*
X27475Y16850D02*
X28525Y15800D01*
X35100Y13925D02*
X35350Y14175D01*
X46550Y12425D02*
X46850Y12725D01*
X35350Y14175D02*
X36950D01*
X34375Y19975D02*
X34400Y19950D01*
X41325Y26025D02*
X42350D01*
X34400Y19950D02*
X35250D01*
X33275Y20900D02*
X33750Y21375D01*
X41050Y27125D02*
Y27600D01*
X29288Y28300D02*
X35950D01*
X36325Y28675D01*
X41825D01*
X43025Y27475D01*
X45325Y14125D02*
X47850D01*
X48900Y15175D01*
Y25725D01*
X47150Y27475D02*
X48900Y25725D01*
X28875Y28713D02*
X29288Y28300D01*
X44925Y13725D02*
X45325Y14125D01*
X43025Y27475D02*
X47150D01*
X20925Y10750D02*
X34075D01*
X36350Y13025D01*
M02*
