%FSLAX43Y43*%
%MOMM*%
G71*
G01*
G75*
%ADD10R,1.000X0.800*%
%ADD11R,0.800X1.000*%
%ADD12R,1.800X1.600*%
%ADD13R,2.000X6.000*%
%ADD14R,1.600X1.800*%
%ADD15R,1.300X0.850*%
%ADD16R,1.200X2.850*%
%ADD17O,2.000X1.000*%
%ADD18R,2.000X1.000*%
%ADD19C,0.125*%
%ADD20R,1.700X0.600*%
%ADD21R,1.700X0.600*%
%ADD22R,0.600X2.200*%
%ADD23R,0.600X2.200*%
%ADD24R,1.450X0.550*%
%ADD25R,1.450X0.550*%
%ADD26R,0.600X2.150*%
%ADD27R,0.600X2.150*%
%ADD28C,0.500*%
%ADD29C,0.400*%
%ADD30C,0.600*%
%ADD31C,1.000*%
%ADD32C,1.500*%
%ADD33C,2.000*%
%ADD34R,1.500X1.500*%
%ADD35R,1.300X1.300*%
%ADD36C,1.300*%
%ADD37C,4.000*%
%ADD38C,1.400*%
%ADD39R,1.400X1.400*%
%ADD40C,1.200*%
%ADD41C,0.300*%
%ADD42R,1.203X1.003*%
%ADD43R,1.003X1.203*%
%ADD44R,2.003X1.803*%
%ADD45R,2.203X6.203*%
%ADD46R,1.803X2.003*%
%ADD47R,1.503X1.053*%
%ADD48R,1.403X3.053*%
%ADD49O,2.203X1.203*%
%ADD50R,2.203X1.203*%
%ADD51R,1.903X0.803*%
%ADD52R,1.903X0.803*%
%ADD53R,0.803X2.403*%
%ADD54R,0.803X2.403*%
%ADD55R,1.653X0.753*%
%ADD56R,1.653X0.753*%
%ADD57R,0.803X2.353*%
%ADD58R,0.803X2.353*%
%ADD59C,1.703*%
%ADD60C,2.203*%
%ADD61R,1.703X1.703*%
%ADD62R,1.503X1.503*%
%ADD63C,1.503*%
%ADD64C,4.203*%
%ADD65C,1.603*%
%ADD66R,1.603X1.603*%
%ADD67C,1.403*%
D59*
X42740Y7100D02*
D03*
X32580D02*
D03*
X45280D02*
D03*
X22910Y39937D02*
D03*
X42772Y40591D02*
D03*
X45312D02*
D03*
X47852D02*
D03*
X35120Y7100D02*
D03*
X4640D02*
D03*
X7180D02*
D03*
X9720D02*
D03*
X12260D02*
D03*
X14800D02*
D03*
X17340D02*
D03*
X19880D02*
D03*
X22420D02*
D03*
X24960D02*
D03*
X27500D02*
D03*
X30040D02*
D03*
X37660D02*
D03*
X40200D02*
D03*
X47820D02*
D03*
D60*
X26300Y63250D02*
D03*
X2200Y12375D02*
D03*
D61*
X20370Y39937D02*
D03*
X37692Y40591D02*
D03*
X2100Y7100D02*
D03*
D62*
X10608Y36888D02*
D03*
Y39763D02*
D03*
D63*
X13108Y36888D02*
D03*
Y39763D02*
D03*
D64*
X2800Y62200D02*
D03*
Y57200D02*
D03*
Y52200D02*
D03*
D65*
X46486Y44592D02*
D03*
D66*
X43986D02*
D03*
D67*
X23275Y55600D02*
D03*
X26725Y40325D02*
D03*
X22425Y21900D02*
D03*
X14225Y63250D02*
D03*
X14200Y34825D02*
D03*
X16875Y43475D02*
D03*
X12175Y43100D02*
D03*
X1638Y24825D02*
D03*
Y36525D02*
D03*
X40575Y13600D02*
D03*
X44925Y13725D02*
D03*
X41884Y16984D02*
D03*
X45875Y27475D02*
D03*
X28875Y28713D02*
D03*
X48400Y30825D02*
D03*
X34375Y19975D02*
D03*
X35100Y13925D02*
D03*
X31325Y13975D02*
D03*
X24825Y18625D02*
D03*
X28525Y15800D02*
D03*
X28000Y32050D02*
D03*
X25375Y26850D02*
D03*
X17879Y25121D02*
D03*
X21440Y28698D02*
D03*
X18800Y15550D02*
D03*
X20650Y14000D02*
D03*
X25375Y15825D02*
D03*
X19925Y9800D02*
D03*
X15350Y15550D02*
D03*
X22125Y14450D02*
D03*
X46850Y12725D02*
D03*
X47310Y18200D02*
D03*
X46040Y19550D02*
D03*
X39825Y17200D02*
D03*
X41625Y24550D02*
D03*
X26225Y18025D02*
D03*
X17100Y38925D02*
D03*
X18850Y37850D02*
D03*
X24025Y43850D02*
D03*
X26600Y42075D02*
D03*
X37150Y38150D02*
D03*
X35625Y43825D02*
D03*
X15775Y30300D02*
D03*
X35325Y40950D02*
D03*
X30100Y41200D02*
D03*
X8705Y51820D02*
D03*
X26675Y54975D02*
D03*
X32758Y56617D02*
D03*
X36450Y62388D02*
D03*
X29925Y62225D02*
D03*
X30475Y55025D02*
D03*
X24925Y22400D02*
D03*
X33325Y21175D02*
D03*
X41050Y27600D02*
D03*
X42350Y26025D02*
D03*
X37025Y27575D02*
D03*
X36350Y13025D02*
D03*
X12425Y10750D02*
D03*
X35925Y24700D02*
D03*
X8125Y20800D02*
D03*
X7450Y34500D02*
D03*
X5000Y34650D02*
D03*
X6425Y39750D02*
D03*
X8575D02*
D03*
X8550Y36300D02*
D03*
X5025Y36250D02*
D03*
X34225Y24050D02*
D03*
X6275Y22125D02*
D03*
X8625Y23225D02*
D03*
X26650Y33325D02*
D03*
X23225Y27025D02*
D03*
X4950Y23225D02*
D03*
X34300Y25750D02*
D03*
X7500Y57100D02*
D03*
X12225Y62550D02*
D03*
X6500Y44550D02*
D03*
M02*
