%FSLAX43Y43*%
%MOMM*%
G71*
G01*
G75*
G04 Layer_Physical_Order=2*
%ADD10R,1.000X0.800*%
%ADD11R,0.800X1.000*%
%ADD12R,1.800X1.600*%
%ADD13R,2.000X6.000*%
%ADD14R,1.600X1.800*%
%ADD15R,1.300X0.850*%
%ADD16R,1.200X2.850*%
%ADD17O,2.000X1.000*%
%ADD18R,2.000X1.000*%
%ADD19C,0.125*%
%ADD20R,1.700X0.600*%
%ADD21R,1.700X0.600*%
%ADD22R,0.600X2.200*%
%ADD23R,0.600X2.200*%
%ADD24R,1.450X0.550*%
%ADD25R,1.450X0.550*%
%ADD26R,0.600X2.150*%
%ADD27R,0.600X2.150*%
%ADD28C,0.500*%
%ADD29C,0.400*%
%ADD30C,0.600*%
%ADD31C,1.000*%
%ADD32C,1.500*%
%ADD33C,2.000*%
%ADD34R,1.500X1.500*%
%ADD35R,1.300X1.300*%
%ADD36C,1.300*%
%ADD37C,4.000*%
%ADD38C,1.400*%
%ADD39R,1.400X1.400*%
%ADD40C,1.200*%
%ADD41C,0.300*%
D28*
X35625Y43825D02*
X35650Y43800D01*
X40650Y13400D02*
X40675D01*
X37692Y40591D02*
Y41841D01*
Y40591D02*
X38942D01*
X42786Y44592D02*
X43986D01*
Y43392D02*
Y44592D01*
D31*
X4640Y7100D02*
Y8850D01*
D32*
Y7100D02*
D03*
D34*
X37692Y40591D02*
D03*
D39*
X43986Y44592D02*
D03*
D40*
X22425Y21900D02*
D03*
X40575Y13600D02*
D03*
X41884Y16984D02*
D03*
X24025Y43850D02*
D03*
X35625Y43825D02*
D03*
X26650Y33325D02*
D03*
X23225Y27025D02*
D03*
X6500Y44550D02*
D03*
D41*
X800Y11502D02*
G03*
X3850Y12375I1400J873D01*
G01*
G03*
X800Y13248I-1650J0D01*
G01*
X5910Y8513D02*
G03*
X4000Y8889I-1270J-1413D01*
G01*
X8450Y8513D02*
G03*
X5910Y8513I-1270J-1413D01*
G01*
X10990Y8513D02*
G03*
X8450Y8513I-1270J-1413D01*
G01*
X13530D02*
G03*
X10990Y8513I-1270J-1413D01*
G01*
X5034Y21978D02*
G03*
X6899Y21042I1241J147D01*
G01*
G03*
X9375Y20800I1226J-242D01*
G01*
G03*
X8544Y21978I-1250J0D01*
G01*
X13675Y10750D02*
G03*
X13675Y10750I-1250J0D01*
G01*
X800Y23897D02*
G03*
X2888Y24825I838J928D01*
G01*
X6191Y23372D02*
G03*
X5034Y21978I-1241J-147D01*
G01*
X7525Y22125D02*
G03*
X6191Y23372I-1250J0D01*
G01*
X2888Y24825D02*
G03*
X800Y25753I-1250J0D01*
G01*
X7501Y21883D02*
G03*
X7525Y22125I-1226J242D01*
G01*
X8206Y22047D02*
G03*
X7501Y21883I-81J-1247D01*
G01*
X9875Y23225D02*
G03*
X8206Y22047I-1250J0D01*
G01*
X8544Y21978D02*
G03*
X9875Y23225I81J1247D01*
G01*
X16070Y8513D02*
G03*
X13530Y8513I-1270J-1413D01*
G01*
X18610D02*
G03*
X16070Y8513I-1270J-1413D01*
G01*
X19122Y8842D02*
G03*
X18610Y8513I758J-1742D01*
G01*
X21175Y9800D02*
G03*
X19122Y8842I-1250J0D01*
G01*
X19516Y14525D02*
G03*
X21675Y13284I1134J-525D01*
G01*
X21150Y8513D02*
G03*
X20696Y8816I-1270J-1413D01*
G01*
G03*
X21175Y9800I-771J984D01*
G01*
X23690Y8513D02*
G03*
X21150Y8513I-1270J-1413D01*
G01*
X26230D02*
G03*
X23690Y8513I-1270J-1413D01*
G01*
X21675Y13284D02*
G03*
X23375Y14450I450J1166D01*
G01*
X19934Y15025D02*
G03*
X20050Y15550I-1134J525D01*
G01*
X21100Y15166D02*
G03*
X19934Y15025I-450J-1166D01*
G01*
X23375Y14450D02*
G03*
X21100Y15166I-1250J0D01*
G01*
X16600Y15550D02*
G03*
X16600Y15550I-1250J0D01*
G01*
X19129Y25121D02*
G03*
X19129Y25121I-1250J0D01*
G01*
X20050Y15550D02*
G03*
X19516Y14525I-1250J0D01*
G01*
X25915Y19236D02*
G03*
X25135Y17414I-1090J-611D01*
G01*
X26175Y22400D02*
G03*
X26175Y22400I-1250J0D01*
G01*
X800Y35597D02*
G03*
X2888Y36525I838J928D01*
G01*
X4052Y35465D02*
G03*
X6211Y34338I948J-815D01*
G01*
X6239Y34812D02*
G03*
X5973Y35435I-1239J-162D01*
G01*
G03*
X6275Y36250I-948J815D01*
G01*
G03*
X4052Y35465I-1250J0D01*
G01*
X6211Y34338D02*
G03*
X8700Y34500I1239J162D01*
G01*
X7428Y35750D02*
G03*
X6239Y34812I22J-1250D01*
G01*
X2888Y36525D02*
G03*
X800Y37453I-1250J0D01*
G01*
X8700Y34500D02*
G03*
X8572Y35050I-1250J0D01*
G01*
G03*
X9578Y35588I-22J1250D01*
G01*
X9308Y37294D02*
G03*
X7428Y35750I-758J-994D01*
G01*
X11908Y36388D02*
G03*
X13213Y35592I1200J500D01*
G01*
X14120Y36072D02*
G03*
X14408Y36888I-1012J816D01*
G01*
G03*
X11908Y37388I-1300J0D01*
G01*
X7500Y39112D02*
G03*
X9308Y38737I1075J638D01*
G01*
X7500Y40388D02*
G03*
X7500Y39112I-1075J-638D01*
G01*
X9308Y40763D02*
G03*
X7500Y40388I-733J-1013D01*
G01*
X11908Y39263D02*
G03*
X14408Y39763I1200J500D01*
G01*
G03*
X11908Y40263I-1300J0D01*
G01*
X13425Y43100D02*
G03*
X13425Y43100I-1250J0D01*
G01*
X17025Y30300D02*
G03*
X17025Y30300I-1250J0D01*
G01*
X13213Y35592D02*
G03*
X15450Y34825I987J-767D01*
G01*
G03*
X14120Y36072I-1250J0D01*
G01*
X22690Y28698D02*
G03*
X22690Y28698I-1250J0D01*
G01*
X17602Y37780D02*
G03*
X20100Y37850I1248J70D01*
G01*
G03*
X19894Y38537I-1250J0D01*
G01*
X18348Y38995D02*
G03*
X17602Y37780I-1248J-70D01*
G01*
X18125Y43475D02*
G03*
X18125Y43475I-1250J0D01*
G01*
X18970Y39094D02*
G03*
X18348Y38995I-120J-1244D01*
G01*
X21770Y39124D02*
G03*
X24310Y39937I1140J813D01*
G01*
G03*
X21770Y40750I-1400J0D01*
G01*
X28770Y8513D02*
G03*
X26230Y8513I-1270J-1413D01*
G01*
X31310D02*
G03*
X28770Y8513I-1270J-1413D01*
G01*
X26625Y15825D02*
G03*
X26187Y16776I-1250J0D01*
G01*
X25413Y17074D02*
G03*
X26625Y15825I-38J-1249D01*
G01*
X25135Y17414D02*
G03*
X25413Y17074I1090J611D01*
G01*
X29775Y15800D02*
G03*
X29775Y15800I-1250J0D01*
G01*
X33850Y8513D02*
G03*
X31310Y8513I-1270J-1413D01*
G01*
X36390D02*
G03*
X33850Y8513I-1270J-1413D01*
G01*
X38930Y8513D02*
G03*
X36390Y8513I-1270J-1413D01*
G01*
X32575Y13975D02*
G03*
X32575Y13975I-1250J0D01*
G01*
X36300Y14274D02*
G03*
X35150Y12676I-1200J-349D01*
G01*
G03*
X37600Y13025I1200J349D01*
G01*
G03*
X36300Y14274I-1250J0D01*
G01*
X26187Y16776D02*
G03*
X27475Y18025I38J1249D01*
G01*
G03*
X25915Y19236I-1250J0D01*
G01*
X34575Y21209D02*
G03*
X33125Y19941I-1250J-34D01*
G01*
G03*
X35625Y19975I1250J34D01*
G01*
G03*
X34575Y21209I-1250J0D01*
G01*
X33348Y24940D02*
G03*
X35381Y23575I877J-890D01*
G01*
G03*
X37175Y24700I544J1125D01*
G01*
X41470Y8513D02*
G03*
X38930Y8513I-1270J-1413D01*
G01*
X44010D02*
G03*
X41470Y8513I-1270J-1413D01*
G01*
X41825Y13600D02*
G03*
X41825Y13600I-1250J0D01*
G01*
X46550Y8513D02*
G03*
X44010Y8513I-1270J-1413D01*
G01*
X49200Y8406D02*
G03*
X46550Y8513I-1380J-1306D01*
G01*
X45601Y12674D02*
G03*
X48100Y12725I1249J51D01*
G01*
X46174Y13776D02*
G03*
X45601Y12674I-1249J-51D01*
G01*
X48100Y12725D02*
G03*
X46174Y13776I-1250J0D01*
G01*
X41075Y17200D02*
G03*
X41075Y17200I-1250J0D01*
G01*
X41142Y25703D02*
G03*
X42875Y24550I483J-1153D01*
G01*
X47290Y19550D02*
G03*
X46064Y18300I-1250J0D01*
G01*
G03*
X48560Y18200I1246J-100D01*
G01*
G03*
X47286Y19450I-1250J0D01*
G01*
G03*
X47290Y19550I-1246J100D01*
G01*
X26625Y26850D02*
G03*
X26625Y26850I-1250J0D01*
G01*
X30125Y28713D02*
G03*
X30125Y28713I-1250J0D01*
G01*
X29250Y32050D02*
G03*
X29250Y32050I-1250J0D01*
G01*
X35542Y25890D02*
G03*
X33348Y24940I-1242J-140D01*
G01*
X37175Y24700D02*
G03*
X35542Y25890I-1250J0D01*
G01*
X38275Y27575D02*
G03*
X38275Y27575I-1250J0D01*
G01*
X36457Y39191D02*
G03*
X38400Y38150I693J-1041D01*
G01*
G03*
X37843Y39191I-1250J0D01*
G01*
X27551Y41263D02*
G03*
X27850Y42075I-951J812D01*
G01*
G03*
X25774Y41137I-1250J0D01*
G01*
G03*
X27975Y40325I951J-812D01*
G01*
G03*
X27551Y41263I-1250J0D01*
G01*
X31350Y41200D02*
G03*
X31350Y41200I-1250J0D01*
G01*
X36292Y41742D02*
G03*
X36292Y40158I-967J-792D01*
G01*
X36875Y43825D02*
G03*
X36875Y43825I-1250J0D01*
G01*
X41144Y26354D02*
G03*
X41142Y25703I1206J-329D01*
G01*
X43600Y26025D02*
G03*
X42256Y27271I-1250J0D01*
G01*
G03*
X42300Y27600I-1206J329D01*
G01*
G03*
X41144Y26354I-1250J0D01*
G01*
X42875Y24550D02*
G03*
X42833Y24872I-1250J0D01*
G01*
G03*
X43600Y26025I-483J1153D01*
G01*
X47125Y27475D02*
G03*
X47125Y27475I-1250J0D01*
G01*
X49200Y31785D02*
G03*
X49200Y29865I-800J-960D01*
G01*
X44042Y40001D02*
G03*
X46582Y40001I1270J589D01*
G01*
X44042Y41180D02*
G03*
X44042Y40001I-1270J-589D01*
G01*
X46582Y41180D02*
G03*
X44042Y41180I-1270J-589D01*
G01*
X46582Y40001D02*
G03*
X49200Y40212I1270J589D01*
G01*
Y40969D02*
G03*
X46582Y41180I-1348J-379D01*
G01*
X45336Y43885D02*
G03*
X47836Y44592I1150J707D01*
G01*
G03*
X47180Y45750I-1350J0D01*
G01*
X1500Y9000D02*
Y10881D01*
X1600Y9000D02*
Y10838D01*
X1700Y9000D02*
Y10803D01*
X1800Y9000D02*
Y10774D01*
X800Y10800D02*
X1708D01*
X1900Y9000D02*
Y10753D01*
X2000Y9000D02*
Y10737D01*
X2100Y9000D02*
Y10728D01*
X2200Y9000D02*
Y10725D01*
X2300Y9000D02*
Y10728D01*
X2400Y9000D02*
Y10737D01*
X2500Y9000D02*
Y10752D01*
X2600Y9000D02*
Y10774D01*
X2700Y9000D02*
Y10803D01*
X2800Y9000D02*
Y10838D01*
X800Y9000D02*
Y11502D01*
Y10900D02*
X1461D01*
X900Y9000D02*
Y11359D01*
X800Y11200D02*
X1042D01*
X800Y11300D02*
X948D01*
X800Y11000D02*
X1288D01*
X800Y11100D02*
X1153D01*
X1100Y9000D02*
Y11145D01*
X1000Y9000D02*
Y11243D01*
X1300Y9000D02*
Y10992D01*
X1200Y9000D02*
Y11063D01*
X2900Y9000D02*
Y10881D01*
X1400Y9000D02*
Y10932D01*
X3000Y9000D02*
Y10932D01*
X3100Y9000D02*
Y10992D01*
X800Y9000D02*
X4000D01*
X800Y9600D02*
X11935D01*
X800Y9700D02*
X11747D01*
X800Y10000D02*
X11425D01*
X800Y10100D02*
X11357D01*
X800Y9800D02*
X11613D01*
X800Y9900D02*
X11509D01*
X800Y10300D02*
X11259D01*
X800Y10500D02*
X11200D01*
X800Y10200D02*
X11303D01*
X800Y10400D02*
X11225D01*
X800Y10600D02*
X11184D01*
X800Y10700D02*
X11176D01*
X2692Y10800D02*
X11176D01*
X2939Y10900D02*
X11184D01*
X3200Y9000D02*
Y11062D01*
X3300Y9000D02*
Y11145D01*
X3400Y9000D02*
Y11242D01*
X3500Y9000D02*
Y11359D01*
X3112Y11000D02*
X11200D01*
X3247Y11100D02*
X11225D01*
X3358Y11200D02*
X11259D01*
X3600Y9000D02*
Y11502D01*
X3700Y9000D02*
Y11687D01*
X3452Y11300D02*
X11302D01*
X3800Y9000D02*
Y11972D01*
X3531Y11400D02*
X11357D01*
X3599Y11500D02*
X11425D01*
X3657Y11600D02*
X11508D01*
X3706Y11700D02*
X11613D01*
X800Y13400D02*
X907D01*
X800Y13500D02*
X993D01*
X800Y13600D02*
X1095D01*
X800Y13700D02*
X1217D01*
X800Y13800D02*
X1368D01*
X800Y13900D02*
X1570D01*
X800Y14000D02*
X1913D01*
X800Y20100D02*
X7089D01*
X800Y19900D02*
X7258D01*
X800Y20000D02*
X7165D01*
X800Y20400D02*
X6941D01*
X800Y20500D02*
X6912D01*
X800Y20200D02*
X7028D01*
X800Y20300D02*
X6979D01*
X800Y20700D02*
X6879D01*
X800Y20900D02*
X6027D01*
X800Y20600D02*
X6891D01*
X800Y20800D02*
X6875D01*
X800Y21200D02*
X5434D01*
X800Y21300D02*
X5336D01*
X800Y21000D02*
X5730D01*
X800Y21100D02*
X5560D01*
X800Y21500D02*
X5193D01*
X800Y21700D02*
X5100D01*
X800Y21400D02*
X5257D01*
X800Y21600D02*
X5141D01*
X800Y22000D02*
X4702D01*
X800Y22100D02*
X4405D01*
X800Y21800D02*
X5068D01*
X800Y21900D02*
X5045D01*
X800Y14600D02*
X14538D01*
X800Y14400D02*
X14860D01*
X800Y14500D02*
X14672D01*
X800Y14900D02*
X14282D01*
X800Y15000D02*
X14228D01*
X800Y14700D02*
X14434D01*
X800Y14800D02*
X14350D01*
X3747Y11800D02*
X11747D01*
X3780Y11900D02*
X11935D01*
X3807Y12000D02*
X12411D01*
X800Y15100D02*
X14184D01*
X800Y15400D02*
X14109D01*
X800Y15500D02*
X14101D01*
X800Y15200D02*
X14150D01*
X800Y15300D02*
X14125D01*
X800Y15600D02*
X14101D01*
X800Y15700D02*
X14109D01*
X800Y15800D02*
X14125D01*
X800Y15900D02*
X14150D01*
X800Y16000D02*
X14184D01*
X800Y16100D02*
X14227D01*
X800Y16200D02*
X14282D01*
X800Y16300D02*
X14350D01*
X800Y16400D02*
X14433D01*
X800Y16500D02*
X14537D01*
X800Y16600D02*
X14672D01*
X800Y16700D02*
X14860D01*
X800Y19700D02*
X7531D01*
X800Y19800D02*
X7375D01*
X800Y16800D02*
X15335D01*
X800Y19600D02*
X7775D01*
X5806Y8600D02*
X6014D01*
X5665Y8700D02*
X6155D01*
X4000Y8889D02*
Y9000D01*
X5489Y8800D02*
X6331D01*
X5249Y8900D02*
X6571D01*
X8100Y8762D02*
Y19550D01*
X8300Y8635D02*
Y19562D01*
X8400Y8557D02*
Y19581D01*
X7800Y8896D02*
Y19593D01*
X7900Y8858D02*
Y19570D01*
X8000Y8814D02*
Y19556D01*
X8200Y8703D02*
Y19552D01*
X5700Y8677D02*
Y21015D01*
X5600Y8740D02*
Y21073D01*
X5900Y8522D02*
Y20933D01*
X5800Y8605D02*
Y20969D01*
X5300Y8882D02*
Y21343D01*
X5200Y8916D02*
Y21487D01*
X5500Y8794D02*
Y21144D01*
X5400Y8841D02*
Y21232D01*
X6000Y8589D02*
Y20906D01*
X6100Y8663D02*
Y20887D01*
X6200Y8728D02*
Y20877D01*
X6300Y8784D02*
Y20875D01*
X6400Y8832D02*
Y20881D01*
X6500Y8874D02*
Y20895D01*
X7700Y8927D02*
Y19625D01*
X6600Y8909D02*
Y20918D01*
X8346Y8600D02*
X8554D01*
X8205Y8700D02*
X8695D01*
X8029Y8800D02*
X8871D01*
X7789Y8900D02*
X9111D01*
X10745Y8700D02*
X11235D01*
X10569Y8800D02*
X11411D01*
X10886Y8600D02*
X11094D01*
X13200Y8751D02*
Y9769D01*
X13426Y8600D02*
X13634D01*
X13000Y8850D02*
Y9640D01*
X13100Y8804D02*
Y9698D01*
X13285Y8700D02*
X13775D01*
X13109Y8800D02*
X13951D01*
X8500Y8557D02*
Y19608D01*
X8600Y8635D02*
Y19644D01*
X8700Y8703D02*
Y19690D01*
X8800Y8762D02*
Y19748D01*
X8900Y8814D02*
Y19819D01*
X9000Y8858D02*
Y19907D01*
X9100Y8896D02*
Y20018D01*
X9200Y8927D02*
Y20162D01*
X13400Y8620D02*
Y9968D01*
X11200Y8677D02*
Y10502D01*
X13500Y8540D02*
Y10112D01*
X13600Y8573D02*
Y10323D01*
X11400Y8794D02*
Y10035D01*
X11300Y8740D02*
Y10205D01*
X13300Y8690D02*
Y9857D01*
X11500Y8841D02*
Y9909D01*
X4000Y9000D02*
X4622D01*
X4658D02*
X7162D01*
X6700Y8938D02*
Y20949D01*
X6900Y8979D02*
Y20552D01*
X6523Y20900D02*
X6879D01*
X7100Y8998D02*
Y20085D01*
X7000Y8991D02*
Y20255D01*
X7300Y8996D02*
Y19861D01*
X7200Y9000D02*
Y19959D01*
X7198Y9000D02*
X9702D01*
X11600Y8882D02*
Y9811D01*
X7400Y8987D02*
Y19782D01*
X7500Y8973D02*
Y19718D01*
X7600Y8953D02*
Y19666D01*
X9300Y8953D02*
Y20373D01*
X4400Y8985D02*
Y22103D01*
X4500Y8995D02*
Y22059D01*
X4600Y9000D02*
Y22025D01*
X4700Y8999D02*
Y22000D01*
X4800Y8993D02*
Y21984D01*
X4900Y8982D02*
Y21976D01*
X5100Y8943D02*
Y21699D01*
X5000Y8966D02*
Y21976D01*
X6800Y8962D02*
Y20991D01*
X7519Y22000D02*
X7775D01*
X8800Y21852D02*
Y21987D01*
X8900Y21781D02*
Y22006D01*
X9000Y21693D02*
Y22033D01*
X10329Y8900D02*
X11651D01*
X9738Y9000D02*
X12242D01*
X11900Y8966D02*
Y9616D01*
X12100Y8993D02*
Y9543D01*
X12000Y8982D02*
Y9575D01*
X12278Y9000D02*
X14782D01*
X12200Y8999D02*
Y9520D01*
X12300Y9000D02*
Y9506D01*
X12800Y8922D02*
Y9558D01*
X12869Y8900D02*
X14191D01*
X12900Y8889D02*
Y9594D01*
X12400Y8995D02*
Y9500D01*
X12500Y8985D02*
Y9502D01*
X12600Y8969D02*
Y9512D01*
X12700Y8948D02*
Y9531D01*
X11800Y8943D02*
Y9668D01*
X11700Y8916D02*
Y9732D01*
X14300Y8933D02*
Y14872D01*
X14200Y8903D02*
Y15060D01*
X14400Y8957D02*
Y14738D01*
X14600Y8989D02*
Y14550D01*
X14500Y8976D02*
Y14634D01*
X14800Y9000D02*
Y14428D01*
X14700Y8997D02*
Y14482D01*
X15300Y8933D02*
Y14301D01*
X15400Y8903D02*
Y14301D01*
X15000Y8989D02*
Y14350D01*
X14900Y8997D02*
Y14384D01*
X15100Y8976D02*
Y14325D01*
X15200Y8957D02*
Y14309D01*
X1000Y13507D02*
Y23750D01*
X1100Y13605D02*
Y23697D01*
X1200Y13687D02*
Y23654D01*
X800Y23700D02*
X1093D01*
X1300Y13758D02*
Y23621D01*
X1400Y13818D02*
Y23598D01*
X800Y23600D02*
X1389D01*
X1500Y13869D02*
Y23583D01*
X1600Y13912D02*
Y23576D01*
X1700Y13947D02*
Y23577D01*
X1800Y13976D02*
Y23586D01*
X1900Y13997D02*
Y23603D01*
X2000Y14013D02*
Y23629D01*
X2100Y14022D02*
Y23664D01*
X2200Y14025D02*
Y23709D01*
X900Y13391D02*
Y23816D01*
X800Y13248D02*
Y23897D01*
X2500Y13998D02*
Y23920D01*
X2600Y13976D02*
Y24027D01*
X2300Y14022D02*
Y23765D01*
X2400Y14013D02*
Y23834D01*
X2700Y13947D02*
Y24166D01*
X3100Y13758D02*
Y45750D01*
X3300Y13605D02*
Y45750D01*
X3400Y13508D02*
Y45750D01*
X3500Y13391D02*
Y45750D01*
X2800Y13912D02*
Y24365D01*
X2900Y13869D02*
Y45750D01*
X3000Y13818D02*
Y45750D01*
X3200Y13688D02*
Y45750D01*
X800Y22400D02*
X4011D01*
X800Y22200D02*
X4235D01*
X800Y22300D02*
X4109D01*
X800Y22600D02*
X3868D01*
X800Y22800D02*
X3774D01*
X800Y22500D02*
X3932D01*
X800Y22700D02*
X3816D01*
X4000Y9000D02*
Y22413D01*
X3900Y9000D02*
Y22547D01*
X4200Y8948D02*
Y22225D01*
X4100Y8922D02*
Y22309D01*
X3800Y12778D02*
Y22735D01*
X800Y22900D02*
X3743D01*
X4300Y8969D02*
Y22157D01*
X800Y23000D02*
X3720D01*
X800Y23100D02*
X3706D01*
X3600Y13248D02*
Y45750D01*
X800Y23200D02*
X3700D01*
X800Y23300D02*
X3702D01*
X800Y23400D02*
X3712D01*
X800Y23500D02*
X3731D01*
X1886Y23600D02*
X3758D01*
X2182Y23700D02*
X3794D01*
X3700Y13063D02*
Y45750D01*
X6188Y23400D02*
X7387D01*
X6169Y23500D02*
X7406D01*
X3800Y23715D02*
Y34300D01*
X6142Y23600D02*
X7433D01*
X6106Y23700D02*
X7469D01*
X800Y23800D02*
X922D01*
X800Y25900D02*
X1000D01*
X800Y26000D02*
X1211D01*
X1300Y26029D02*
Y35321D01*
X1400Y26052D02*
Y35298D01*
X1500Y26067D02*
Y35283D01*
X2353Y23800D02*
X3840D01*
X2478Y23900D02*
X3898D01*
X2577Y24000D02*
X3969D01*
X3900Y23903D02*
Y34056D01*
X1600Y26074D02*
Y35276D01*
X1700Y26073D02*
Y35277D01*
X2656Y24100D02*
X4057D01*
X4000Y24037D02*
Y33900D01*
X900Y25834D02*
Y35516D01*
X800Y25753D02*
Y35597D01*
X1100Y25953D02*
Y35397D01*
X1000Y25900D02*
Y35450D01*
X1800Y26064D02*
Y35286D01*
X1200Y25996D02*
Y35354D01*
X1900Y26047D02*
Y35303D01*
X2000Y26021D02*
Y35329D01*
X2500Y25730D02*
Y35620D01*
X2600Y25623D02*
Y35727D01*
X2700Y25484D02*
Y35866D01*
X2800Y25285D02*
Y36065D01*
X2100Y25986D02*
Y35364D01*
X2200Y25941D02*
Y35409D01*
X2300Y25885D02*
Y35465D01*
X2400Y25816D02*
Y35534D01*
X2720Y24200D02*
X4168D01*
X2772Y24300D02*
X4312D01*
X2813Y24400D02*
X4523D01*
X4700Y24450D02*
Y33437D01*
X4800Y24466D02*
Y33416D01*
X4900Y24474D02*
Y33404D01*
X5000Y24474D02*
Y33400D01*
X6060Y23800D02*
X7515D01*
X6002Y23900D02*
X7573D01*
X5931Y24000D02*
X7644D01*
X5843Y24100D02*
X7732D01*
X5732Y24200D02*
X7843D01*
X5100Y24466D02*
Y33404D01*
X5588Y24300D02*
X7987D01*
X5377Y24400D02*
X8198D01*
X4200Y24225D02*
Y33690D01*
X4100Y24141D02*
Y33783D01*
X4400Y24347D02*
Y33553D01*
X4300Y24293D02*
Y33614D01*
X4500Y24391D02*
Y33504D01*
X4600Y24425D02*
Y33466D01*
X5200Y24450D02*
Y33416D01*
X5300Y24425D02*
Y33437D01*
X5800Y24142D02*
Y33689D01*
X5900Y24038D02*
Y33782D01*
X6000Y23903D02*
Y33900D01*
X6100Y23715D02*
Y34056D01*
X5400Y24391D02*
Y33466D01*
X5500Y24348D02*
Y33504D01*
X5600Y24293D02*
Y33553D01*
X5700Y24225D02*
Y33614D01*
X9400Y8973D02*
Y22244D01*
X9500Y8987D02*
Y22332D01*
X9600Y8996D02*
Y22443D01*
X9300Y21227D02*
Y22173D01*
X9700Y9000D02*
Y22587D01*
X9800Y8998D02*
Y22798D01*
X9900Y8991D02*
Y35588D01*
X10300Y8909D02*
Y35588D01*
X10500Y8833D02*
Y35588D01*
X10600Y8784D02*
Y35588D01*
X10700Y8728D02*
Y35588D01*
X10000Y8979D02*
Y35588D01*
X10100Y8962D02*
Y35588D01*
X10200Y8938D02*
Y35588D01*
X10400Y8874D02*
Y35588D01*
X10800Y8663D02*
Y35588D01*
X10900Y8589D02*
Y35588D01*
X11000Y8522D02*
Y35588D01*
X11100Y8605D02*
Y35588D01*
X11200Y10998D02*
Y35588D01*
X11300Y11295D02*
Y35588D01*
X11400Y11465D02*
Y35588D01*
X11500Y11591D02*
Y35588D01*
X11600Y11689D02*
Y35588D01*
X11700Y11768D02*
Y35588D01*
X11800Y11832D02*
Y35588D01*
X11900Y11884D02*
Y35588D01*
X12100Y11957D02*
Y36067D01*
X12000Y11925D02*
Y36208D01*
X12300Y11994D02*
Y35870D01*
X12200Y11980D02*
Y35958D01*
X13700Y8649D02*
Y33679D01*
X14000Y8823D02*
Y33591D01*
X14100Y8866D02*
Y33579D01*
X14200Y16040D02*
Y33575D01*
X14300Y16228D02*
Y33579D01*
X14600Y16550D02*
Y29874D01*
X14400Y16362D02*
Y33591D01*
X14800Y16672D02*
Y29518D01*
X14700Y16618D02*
Y29662D01*
X15000Y16750D02*
Y29319D01*
X14900Y16716D02*
Y29407D01*
X15200Y16791D02*
Y29190D01*
X15100Y16775D02*
Y29248D01*
X15400Y16799D02*
Y29108D01*
X15300Y16799D02*
Y29144D01*
X12900Y11906D02*
Y35605D01*
X12400Y12000D02*
Y35798D01*
X13100Y11802D02*
Y34231D01*
X13000Y11860D02*
Y34475D01*
X12500Y11998D02*
Y35739D01*
X12600Y11988D02*
Y35692D01*
X12700Y11969D02*
Y35654D01*
X12800Y11942D02*
Y35625D01*
X13600Y11177D02*
Y33728D01*
X13500Y11388D02*
Y33789D01*
X13800Y8715D02*
Y33641D01*
X13900Y8773D02*
Y33612D01*
X13300Y11643D02*
Y33958D01*
X13200Y11731D02*
Y34075D01*
X14500Y16466D02*
Y33612D01*
X13400Y11532D02*
Y33865D01*
X7327Y22800D02*
X7450D01*
X7385Y22700D02*
X7491D01*
X7256Y22900D02*
X7418D01*
X6913Y23200D02*
X7375D01*
X6702Y23300D02*
X7377D01*
X7168Y23000D02*
X7395D01*
X7057Y23100D02*
X7381D01*
X7600Y21934D02*
Y22510D01*
X7700Y21976D02*
Y22384D01*
X7494Y22400D02*
X7686D01*
X7500Y22374D02*
Y22680D01*
X7400Y22670D02*
Y22977D01*
X7467Y22500D02*
X7607D01*
X7431Y22600D02*
X7543D01*
X6700Y23301D02*
Y33500D01*
X6600Y23332D02*
Y33584D01*
X6800Y23259D02*
Y33432D01*
X6900Y23208D02*
Y33378D01*
X6300Y23375D02*
Y34010D01*
X6200Y23373D02*
Y34300D01*
X6500Y23355D02*
Y33688D01*
X6400Y23369D02*
Y33822D01*
X7000Y23143D02*
Y33334D01*
X7100Y23064D02*
Y33300D01*
X7300Y22841D02*
Y33259D01*
X7200Y22966D02*
Y33275D01*
X7400Y23473D02*
Y33251D01*
X7500Y23770D02*
Y33251D01*
X7600Y23940D02*
Y33259D01*
X7700Y24066D02*
Y33275D01*
X7800Y22007D02*
Y22286D01*
X7513Y22300D02*
X7784D01*
X7800Y24164D02*
Y33300D01*
X7525Y22100D02*
X8080D01*
X7523Y22200D02*
X7910D01*
X9100Y21582D02*
Y22069D01*
X7900Y22030D02*
Y22207D01*
X9200Y21438D02*
Y22115D01*
X7900Y24243D02*
Y33334D01*
X8000Y24307D02*
Y33377D01*
X8100Y24359D02*
Y33432D01*
X8200Y24400D02*
Y33500D01*
X8300Y24432D02*
Y33583D01*
X8400Y24455D02*
Y33687D01*
X8500Y24469D02*
Y33822D01*
X8600Y24475D02*
Y34010D01*
X8700Y24473D02*
Y34485D01*
X8800Y24463D02*
Y35075D01*
X8900Y24444D02*
Y35100D01*
X9000Y24417D02*
Y35134D01*
X9500Y24118D02*
Y35487D01*
X9600Y24007D02*
Y35588D01*
X9700Y23863D02*
Y35588D01*
X9800Y23652D02*
Y35588D01*
X9100Y24381D02*
Y35177D01*
X9200Y24335D02*
Y35232D01*
X9300Y24277D02*
Y35300D01*
X9400Y24206D02*
Y35383D01*
X15600Y8823D02*
Y14325D01*
X15649Y8800D02*
X16491D01*
X15500Y8866D02*
Y14309D01*
X15700Y8773D02*
Y14350D01*
X15409Y8900D02*
X16731D01*
X14818Y9000D02*
X17322D01*
X15966Y8600D02*
X16174D01*
X18700Y8589D02*
Y9552D01*
X18600Y8522D02*
Y14316D01*
X15825Y8700D02*
X16315D01*
X15800Y8716D02*
Y14384D01*
X18400Y8677D02*
Y14366D01*
X18500Y8605D02*
Y14337D01*
X15900Y8649D02*
Y14427D01*
X16000Y8573D02*
Y14482D01*
X16100Y8540D02*
Y14550D01*
X16200Y8620D02*
Y14633D01*
X16300Y8690D02*
Y14737D01*
X16400Y8751D02*
Y14872D01*
X16500Y8804D02*
Y15060D01*
X16600Y8850D02*
Y15534D01*
X18100Y8841D02*
Y14514D01*
X17900Y8916D02*
Y14683D01*
X18200Y8794D02*
Y14453D01*
X18300Y8740D02*
Y14404D01*
X17700Y8966D02*
Y14956D01*
X17600Y8982D02*
Y15200D01*
X18000Y8882D02*
Y14590D01*
X17800Y8944D02*
Y14800D01*
X800Y9200D02*
X18828D01*
X17358Y9000D02*
X18965D01*
X800Y9100D02*
X18889D01*
X800Y9300D02*
X18779D01*
X12915Y9600D02*
X18691D01*
X800Y9400D02*
X18741D01*
X800Y9500D02*
X18712D01*
X18506Y8600D02*
X18714D01*
X18800Y8663D02*
Y9255D01*
X18365Y8700D02*
X18855D01*
X18189Y8800D02*
X19031D01*
X18900Y8728D02*
Y9085D01*
X19000Y8784D02*
Y8959D01*
X17949Y8900D02*
X19058D01*
X13103Y9700D02*
X18679D01*
X13237Y9800D02*
X18675D01*
X13341Y9900D02*
X18679D01*
X13425Y10000D02*
X18691D01*
X13493Y10100D02*
X18712D01*
X13547Y10200D02*
X18741D01*
X13591Y10300D02*
X18779D01*
X13625Y10400D02*
X18828D01*
X18700Y10048D02*
Y14304D01*
X18800Y10345D02*
Y14300D01*
X13650Y10500D02*
X18889D01*
X13666Y10600D02*
X18964D01*
X18900Y10515D02*
Y14304D01*
X13674Y10700D02*
X19057D01*
X19000Y10641D02*
Y14316D01*
X13674Y10800D02*
X19175D01*
X13666Y10900D02*
X19331D01*
X3183Y13700D02*
X19437D01*
X3032Y13800D02*
X19416D01*
X2830Y13900D02*
X19404D01*
X2487Y14000D02*
X19400D01*
X800Y14100D02*
X19404D01*
X19100Y10739D02*
Y14337D01*
X19200Y10818D02*
Y14366D01*
X19300Y10882D02*
Y14404D01*
X19400Y10934D02*
Y14453D01*
X16162Y14600D02*
X17988D01*
X16266Y14700D02*
X17884D01*
X15840Y14400D02*
X18310D01*
X16028Y14500D02*
X18122D01*
X16472Y15000D02*
X17678D01*
X16516Y15100D02*
X17634D01*
X16350Y14800D02*
X17800D01*
X16418Y14900D02*
X17732D01*
X16550Y15200D02*
X17600D01*
X16473Y16100D02*
X17677D01*
X16418Y16200D02*
X17732D01*
X16350Y16300D02*
X17800D01*
X16575Y15300D02*
X17575D01*
X16591Y15400D02*
X17559D01*
X16599Y15500D02*
X17551D01*
X16599Y15600D02*
X17551D01*
X16591Y15700D02*
X17559D01*
X16575Y15800D02*
X17575D01*
X16550Y15900D02*
X17600D01*
X16516Y16000D02*
X17634D01*
X12439Y12000D02*
X35635D01*
X13103Y11800D02*
X36102D01*
X12915Y11900D02*
X35805D01*
X3848Y12300D02*
X35332D01*
X3850Y12400D02*
X35268D01*
X3827Y12100D02*
X35509D01*
X3841Y12200D02*
X35411D01*
X13650Y11000D02*
X19575D01*
X13625Y11100D02*
X49200D01*
X13591Y11200D02*
X49200D01*
X13548Y11300D02*
X49200D01*
X13342Y11600D02*
X46305D01*
X13238Y11700D02*
X46135D01*
X13493Y11400D02*
X49200D01*
X13425Y11500D02*
X46602D01*
X3566Y13300D02*
X19614D01*
X3493Y13400D02*
X19553D01*
X3682Y13100D02*
X19783D01*
X3629Y13200D02*
X19690D01*
X800Y14200D02*
X19416D01*
X800Y14300D02*
X19437D01*
X3407Y13500D02*
X19504D01*
X3305Y13600D02*
X19466D01*
X3818Y12700D02*
X34852D01*
X3845Y12500D02*
X35216D01*
X3835Y12600D02*
X35174D01*
X3727Y13000D02*
X19900D01*
X19290Y14400D02*
X19466D01*
X3794Y12800D02*
X20300D01*
X3764Y12900D02*
X20056D01*
X20800Y8762D02*
Y8907D01*
X20905Y8700D02*
X21395D01*
X20800Y10693D02*
Y12759D01*
X20729Y8800D02*
X21571D01*
X20792Y8900D02*
X21811D01*
X20900Y8703D02*
Y9018D01*
X21000Y8635D02*
Y9162D01*
X21046Y8600D02*
X21254D01*
X21100Y8557D02*
Y9373D01*
X20900Y10582D02*
Y12775D01*
X21000Y10438D02*
Y12800D01*
X20885Y9000D02*
X22402D01*
X21100Y10227D02*
Y12834D01*
X21200Y8556D02*
Y12877D01*
X21300Y8635D02*
Y12932D01*
X21400Y8703D02*
Y13000D01*
X21500Y8762D02*
Y13083D01*
X21600Y8814D02*
Y13187D01*
X21700Y8858D02*
Y13275D01*
X21800Y8896D02*
Y13243D01*
X21900Y8927D02*
Y13220D01*
X22000Y8953D02*
Y13206D01*
X22100Y8973D02*
Y13200D01*
X22200Y8987D02*
Y13202D01*
X22300Y8996D02*
Y13212D01*
X22400Y9000D02*
Y13231D01*
X22500Y8998D02*
Y13258D01*
X22600Y8991D02*
Y13294D01*
X22700Y8979D02*
Y13340D01*
X20961Y9100D02*
X49200D01*
X21022Y9200D02*
X49200D01*
X21071Y9300D02*
X49200D01*
X21109Y9400D02*
X49200D01*
X21138Y9500D02*
X49200D01*
X21159Y9600D02*
X49200D01*
X23586Y8600D02*
X23794D01*
X23445Y8700D02*
X23935D01*
X23269Y8800D02*
X24111D01*
X23029Y8900D02*
X24351D01*
X22438Y9000D02*
X24942D01*
X21171Y9700D02*
X49200D01*
X21175Y9800D02*
X49200D01*
X21159Y10000D02*
X49200D01*
X21138Y10100D02*
X49200D01*
X21071Y10300D02*
X49200D01*
X21022Y10400D02*
X49200D01*
X20961Y10500D02*
X49200D01*
X20886Y10600D02*
X49200D01*
X20793Y10700D02*
X49200D01*
X20675Y10800D02*
X49200D01*
X23000Y8909D02*
Y13557D01*
X23100Y8874D02*
Y13668D01*
X23200Y8833D02*
Y13812D01*
X23300Y8784D02*
Y14023D01*
X22800Y8962D02*
Y13398D01*
X22900Y8938D02*
Y13469D01*
X21171Y9900D02*
X49200D01*
X21109Y10200D02*
X49200D01*
X19500Y10975D02*
Y13510D01*
X19700Y11030D02*
Y13188D01*
X19600Y11007D02*
Y13322D01*
X19900Y11050D02*
Y13000D01*
X19800Y11044D02*
Y13084D01*
X20000Y11048D02*
Y12932D01*
Y15068D02*
Y15200D01*
X20500Y10910D02*
Y12759D01*
X20300Y10992D02*
Y12800D01*
X20600Y10852D02*
Y12751D01*
X20700Y10781D02*
Y12751D01*
X20100Y11038D02*
Y12878D01*
X20200Y11019D02*
Y12834D01*
X20400Y10956D02*
Y12775D01*
X20000Y15200D02*
X20300D01*
X20025Y15300D02*
X21208D01*
X20041Y15400D02*
X21312D01*
X20049Y15500D02*
X21447D01*
X20049Y15600D02*
X21635D01*
X19966Y16000D02*
X24137D01*
X21000Y15200D02*
X21125D01*
X22803Y15500D02*
X24168D01*
X22615Y15600D02*
X24145D01*
X20041Y15700D02*
X22110D01*
X22140D02*
X24131D01*
X20025Y15800D02*
X24125D01*
X20000Y15900D02*
X24127D01*
X21000Y12800D02*
X30899D01*
X20519Y10900D02*
X49200D01*
X20275Y11000D02*
X49200D01*
X21517Y13100D02*
X30432D01*
X21610Y13200D02*
X30344D01*
X21244Y12900D02*
X30687D01*
X21400Y13000D02*
X30543D01*
X22937Y13500D02*
X30169D01*
X23041Y13600D02*
X30133D01*
X22615Y13300D02*
X30273D01*
X22803Y13400D02*
X30215D01*
X23193Y13800D02*
X30087D01*
X23247Y13900D02*
X30077D01*
X23125Y13700D02*
X30106D01*
X23291Y14000D02*
X30075D01*
X23193Y15100D02*
X24357D01*
X23125Y15200D02*
X24293D01*
X23325Y14100D02*
X30081D01*
X23325Y14800D02*
X24660D01*
X19923Y16100D02*
X24156D01*
X19868Y16200D02*
X24183D01*
X23042Y15300D02*
X24241D01*
X22938Y15400D02*
X24199D01*
X23350Y14200D02*
X30095D01*
X23366Y14300D02*
X30118D01*
X23374Y14400D02*
X30149D01*
X23374Y14500D02*
X30191D01*
X23291Y14900D02*
X24534D01*
X23248Y15000D02*
X24436D01*
X23366Y14600D02*
X25127D01*
X23350Y14700D02*
X24830D01*
X800Y18400D02*
X23595D01*
X800Y18100D02*
X23691D01*
X800Y18200D02*
X23649D01*
X800Y18500D02*
X23581D01*
X800Y18600D02*
X23575D01*
X800Y18700D02*
X23577D01*
X800Y18800D02*
X23587D01*
X17100Y8985D02*
Y24144D01*
X16267Y16400D02*
X17883D01*
X16163Y16500D02*
X17987D01*
X16028Y16600D02*
X18122D01*
X15840Y16700D02*
X18310D01*
X15365Y16800D02*
X18785D01*
X800Y18900D02*
X23606D01*
X15900Y16673D02*
Y29056D01*
X16000Y16618D02*
Y29070D01*
X16100Y16550D02*
Y29093D01*
X16200Y16467D02*
Y29124D01*
X15500Y16791D02*
Y29081D01*
X15600Y16775D02*
Y29062D01*
X15700Y16750D02*
Y29052D01*
X15800Y16716D02*
Y29050D01*
X16800Y8922D02*
Y24490D01*
X16700Y8889D02*
Y24706D01*
X17000Y8969D02*
Y24232D01*
X16900Y8948D02*
Y24344D01*
X16300Y16363D02*
Y29166D01*
X16400Y16228D02*
Y29217D01*
X16500Y16040D02*
Y29282D01*
X16600Y15566D02*
Y29361D01*
X800Y16900D02*
X24737D01*
X800Y17000D02*
X24948D01*
X800Y17100D02*
X25384D01*
X800Y17400D02*
X24577D01*
X800Y17500D02*
X24280D01*
X800Y17200D02*
X25286D01*
X800Y17300D02*
X25207D01*
X800Y17800D02*
X23886D01*
X800Y17900D02*
X23807D01*
X800Y17600D02*
X24110D01*
X800Y17700D02*
X23984D01*
X800Y18300D02*
X23618D01*
X800Y19000D02*
X23633D01*
X800Y18000D02*
X23743D01*
X800Y19100D02*
X23669D01*
X800Y19200D02*
X23715D01*
X800Y19300D02*
X23773D01*
X800Y19400D02*
X23844D01*
X800Y19500D02*
X23932D01*
X8475Y19600D02*
X24043D01*
X8719Y19700D02*
X24187D01*
X8875Y19800D02*
X24398D01*
X8992Y19900D02*
X33127D01*
X9222Y20200D02*
X32543D01*
X9271Y20300D02*
X32432D01*
X9085Y20000D02*
X32899D01*
X9161Y20100D02*
X32687D01*
X9359Y20600D02*
X32215D01*
X9371Y20700D02*
X32169D01*
X9309Y20400D02*
X32344D01*
X9338Y20500D02*
X32273D01*
X2881Y24700D02*
X16702D01*
X2845Y24500D02*
X16794D01*
X2867Y24600D02*
X16743D01*
X2887Y24800D02*
X16671D01*
X2885Y24900D02*
X16649D01*
X2875Y25000D02*
X16635D01*
X2830Y25200D02*
X16631D01*
X9606Y24000D02*
X17326D01*
X9518Y24100D02*
X17158D01*
X9340Y22200D02*
X23691D01*
X9677Y23900D02*
X17612D01*
X9052Y24400D02*
X16858D01*
X2857Y25100D02*
X16629D01*
X9407Y24200D02*
X17034D01*
X9263Y24300D02*
X16937D01*
X2618Y25600D02*
X16724D01*
X2530Y25700D02*
X16771D01*
X2420Y25800D02*
X16829D01*
X2276Y25900D02*
X16901D01*
X2064Y26000D02*
X16990D01*
X800Y26100D02*
X17102D01*
X800Y26200D02*
X17248D01*
X800Y26300D02*
X17463D01*
X2794Y25300D02*
X16642D01*
X2748Y25400D02*
X16660D01*
X2690Y25500D02*
X16688D01*
X16700Y25536D02*
Y29459D01*
X16800Y25752D02*
Y29584D01*
X16900Y25898D02*
Y29755D01*
X17000Y26010D02*
Y30051D01*
X8993Y21700D02*
X23889D01*
X9161Y21500D02*
X24058D01*
X9086Y21600D02*
X23965D01*
X8873Y22000D02*
X23741D01*
X9170Y22100D02*
X23712D01*
X8875Y21800D02*
X23828D01*
X8719Y21900D02*
X23779D01*
X9359Y21000D02*
X32087D01*
X9338Y21100D02*
X32077D01*
X9375Y20800D02*
X32133D01*
X9371Y20900D02*
X32106D01*
X9222Y21400D02*
X24175D01*
X9466Y22300D02*
X23679D01*
X9309Y21200D02*
X24575D01*
X9271Y21300D02*
X24331D01*
X9564Y22400D02*
X23675D01*
X9643Y22500D02*
X23679D01*
X9707Y22600D02*
X23691D01*
X9759Y22700D02*
X23712D01*
X9800Y22800D02*
X23741D01*
X9832Y22900D02*
X23779D01*
X9735Y23800D02*
X33000D01*
X800Y26400D02*
X24209D01*
X9855Y23000D02*
X23828D01*
X9869Y23100D02*
X23889D01*
X9875Y23200D02*
X23964D01*
X9873Y23300D02*
X24057D01*
X9863Y23400D02*
X24175D01*
X9844Y23500D02*
X24331D01*
X9817Y23600D02*
X24575D01*
X9781Y23700D02*
X33025D01*
X17200Y8995D02*
Y24072D01*
X17300Y9000D02*
Y24013D01*
X17400Y8999D02*
Y23966D01*
X17500Y8993D02*
Y23930D01*
X17600Y15900D02*
Y23903D01*
X17700Y16144D02*
Y23884D01*
X17800Y16300D02*
Y23874D01*
X21000Y15200D02*
Y27528D01*
X21100Y15166D02*
Y27495D01*
X21200Y15291D02*
Y27471D01*
X17900Y16417D02*
Y23871D01*
X18000Y16510D02*
Y23877D01*
X18100Y16586D02*
Y23891D01*
X18200Y16647D02*
Y23913D01*
X19800Y16300D02*
Y37037D01*
X19900Y16144D02*
Y37172D01*
X20000Y15900D02*
Y37360D01*
X20100Y15122D02*
Y37833D01*
X19400Y16647D02*
Y36727D01*
X19500Y16586D02*
Y36782D01*
X19600Y16511D02*
Y36850D01*
X19700Y16418D02*
Y36933D01*
X20300Y15200D02*
Y28185D01*
X20200Y15166D02*
Y28542D01*
X20500Y15241D02*
Y27874D01*
X20400Y15225D02*
Y28004D01*
X20700Y15249D02*
Y27690D01*
X20600Y15249D02*
Y27772D01*
X20900Y15225D02*
Y27570D01*
X20800Y15241D02*
Y27624D01*
X21300Y15389D02*
Y27455D01*
X21400Y15468D02*
Y27448D01*
X21500Y15532D02*
Y27449D01*
X19800Y16300D02*
X24219D01*
X19717Y16400D02*
X24265D01*
X19613Y16500D02*
X24323D01*
X19478Y16600D02*
X24394D01*
X23700Y8522D02*
Y18080D01*
X23600Y8589D02*
Y18377D01*
X23900Y8677D02*
Y17784D01*
X23800Y8605D02*
Y17910D01*
X21600Y15584D02*
Y27458D01*
X21700Y15625D02*
Y27475D01*
X21800Y15657D02*
Y27500D01*
X21900Y15680D02*
Y27535D01*
X22400Y15669D02*
Y27897D01*
X22500Y15642D02*
Y28035D01*
X22600Y15606D02*
Y28231D01*
X22700Y15560D02*
Y38553D01*
X22000Y15694D02*
Y27580D01*
X22100Y15700D02*
Y27636D01*
X22200Y15698D02*
Y27705D01*
X22300Y15688D02*
Y27790D01*
X23200Y15088D02*
Y38567D01*
X23300Y14877D02*
Y38592D01*
X23400Y8728D02*
Y38626D01*
X23500Y8663D02*
Y38668D01*
X22800Y15502D02*
Y38541D01*
X22900Y15431D02*
Y38537D01*
X23000Y15343D02*
Y38540D01*
X23100Y15232D02*
Y38550D01*
X18300Y16696D02*
Y23944D01*
X18400Y16734D02*
Y23985D01*
X18500Y16763D02*
Y24036D01*
X18400Y26257D02*
Y36684D01*
X18500Y26206D02*
Y36650D01*
X18600Y16784D02*
Y24100D01*
Y26142D02*
Y36625D01*
X18700Y16796D02*
Y24178D01*
X18800Y16800D02*
Y24276D01*
X18900Y16796D02*
Y24400D01*
X19000Y16784D02*
Y24568D01*
X18800Y25966D02*
Y36601D01*
X18900Y25842D02*
Y36601D01*
X23700Y19170D02*
Y22152D01*
X19100Y16763D02*
Y24853D01*
X17100Y26099D02*
Y37675D01*
X17200Y26170D02*
Y37679D01*
X17300Y26229D02*
Y37691D01*
X17400Y26276D02*
Y37712D01*
X17500Y26312D02*
Y37741D01*
X17600Y26339D02*
Y37779D01*
X18200Y26329D02*
Y36782D01*
X17700Y26358D02*
Y37360D01*
X19200Y16734D02*
Y36650D01*
X19300Y16696D02*
Y36684D01*
X23600Y18873D02*
Y38719D01*
X23700Y22648D02*
Y38781D01*
X18700Y26064D02*
Y36609D01*
X18300Y26298D02*
Y36728D01*
X19000Y25674D02*
Y36609D01*
X19100Y25389D02*
Y36625D01*
X18815Y16800D02*
X24593D01*
X18146Y23900D02*
X32984D01*
X18432Y24000D02*
X32976D01*
X18600Y24100D02*
X32976D01*
X18724Y24200D02*
X32984D01*
X18821Y24300D02*
X33000D01*
X18900Y24400D02*
X33025D01*
X19290Y16700D02*
X24482D01*
X23800Y19340D02*
Y21855D01*
X18964Y24500D02*
X33059D01*
X19015Y24600D02*
X33102D01*
X19056Y24700D02*
X33157D01*
X19087Y24800D02*
X33225D01*
X18929Y25800D02*
X24697D01*
X18857Y25900D02*
X24563D01*
X19070Y25500D02*
X33075D01*
X18987Y25700D02*
X24885D01*
X18510Y26200D02*
X24307D01*
X18295Y26300D02*
X24253D01*
X18768Y26000D02*
X24459D01*
X18656Y26100D02*
X24375D01*
X19129Y25100D02*
X33232D01*
X23800Y22945D02*
Y38857D01*
X19109Y24900D02*
X33308D01*
X19123Y25000D02*
X33300D01*
X19126Y25200D02*
X33178D01*
X19034Y25600D02*
X33059D01*
X19116Y25300D02*
X33134D01*
X19097Y25400D02*
X33100D01*
X800Y33700D02*
X4188D01*
X800Y33500D02*
X4510D01*
X800Y33600D02*
X4322D01*
X800Y34000D02*
X3932D01*
X800Y34100D02*
X3878D01*
X800Y33800D02*
X4084D01*
X800Y33900D02*
X4000D01*
X800Y34300D02*
X3800D01*
X800Y34400D02*
X3775D01*
X800Y34200D02*
X3834D01*
X800Y34500D02*
X3759D01*
X800Y34600D02*
X3751D01*
X800Y34700D02*
X3751D01*
X800Y34800D02*
X3759D01*
X800Y34900D02*
X3775D01*
X800Y35000D02*
X3800D01*
X800Y35100D02*
X3834D01*
X800Y35200D02*
X3877D01*
X800Y35400D02*
X1093D01*
X800Y35500D02*
X922D01*
X800Y35300D02*
X1390D01*
X1886D02*
X3932D01*
X3800Y35000D02*
Y36002D01*
X6200Y35000D02*
Y35823D01*
X2182Y35400D02*
X4000D01*
X3900Y35244D02*
Y35705D01*
X4000Y35400D02*
Y35535D01*
X6100Y35244D02*
Y35612D01*
X800Y29900D02*
X14591D01*
X800Y30000D02*
X14562D01*
X800Y30100D02*
X14541D01*
X800Y30200D02*
X14529D01*
X800Y30300D02*
X14525D01*
X800Y30400D02*
X14529D01*
X800Y30500D02*
X14541D01*
X800Y33400D02*
X6857D01*
X5490Y33500D02*
X6700D01*
X800Y30600D02*
X14561D01*
X800Y33300D02*
X7100D01*
X5916Y33800D02*
X6414D01*
X6000Y33900D02*
X6353D01*
X5678Y33600D02*
X6583D01*
X5812Y33700D02*
X6490D01*
X6122Y34100D02*
X6266D01*
X6068Y34000D02*
X6304D01*
X6166Y35100D02*
X6353D01*
X6068Y35300D02*
X6489D01*
X6000Y35400D02*
X6582D01*
X6200Y35000D02*
X6304D01*
X6300Y34990D02*
Y38506D01*
X6123Y35200D02*
X6414D01*
X6400Y35178D02*
Y38500D01*
X6500Y35312D02*
Y38502D01*
X6600Y35416D02*
Y38512D01*
X2478Y35600D02*
X3957D01*
X2353Y35500D02*
X4025D01*
X2577Y35700D02*
X3903D01*
X2772Y36000D02*
X3800D01*
X2813Y36100D02*
X3784D01*
X2656Y35800D02*
X3859D01*
X2720Y35900D02*
X3825D01*
X2845Y36200D02*
X3776D01*
X2867Y36300D02*
X3776D01*
X2881Y36400D02*
X3784D01*
X2887Y36500D02*
X3800D01*
X2885Y36600D02*
X3825D01*
X2875Y36700D02*
X3859D01*
X2857Y36800D02*
X3902D01*
X2830Y36900D02*
X3957D01*
X800Y37600D02*
X999D01*
X2530Y37400D02*
X4535D01*
X2420Y37500D02*
X5006D01*
X800Y37700D02*
X1211D01*
X800Y38800D02*
X5613D01*
X800Y38600D02*
X5935D01*
X800Y38700D02*
X5747D01*
X2794Y37000D02*
X4025D01*
X2748Y37100D02*
X4108D01*
X2690Y37200D02*
X4212D01*
X5900Y37143D02*
Y38616D01*
X2618Y37300D02*
X4347D01*
X5600Y37360D02*
Y38811D01*
X5800Y37231D02*
Y38668D01*
X5700Y37302D02*
Y38732D01*
X6025Y35500D02*
X6700D01*
X6093Y35600D02*
X6856D01*
X6147Y35700D02*
X7100D01*
X6191Y35800D02*
X7404D01*
X6225Y35900D02*
X7366D01*
X6148Y36800D02*
X7404D01*
X6093Y36900D02*
X7453D01*
X6250Y36000D02*
X7337D01*
X6266Y36100D02*
X7316D01*
X6274Y36200D02*
X7304D01*
X6274Y36300D02*
X7300D01*
X6266Y36400D02*
X7304D01*
X6250Y36500D02*
X7316D01*
X6225Y36600D02*
X7337D01*
X6191Y36700D02*
X7366D01*
X5044Y37500D02*
X8200D01*
X2276Y37600D02*
X9308D01*
X2064Y37700D02*
X9308D01*
X800Y37800D02*
X9308D01*
X800Y37900D02*
X9308D01*
X800Y38000D02*
X9308D01*
X800Y38100D02*
X9308D01*
X800Y38500D02*
X9308D01*
X6000Y37032D02*
Y38575D01*
X6100Y36888D02*
Y38543D01*
X6025Y37000D02*
X7514D01*
X6200Y36677D02*
Y38520D01*
X5942Y37100D02*
X7589D01*
X5838Y37200D02*
X7682D01*
X5703Y37300D02*
X7800D01*
X5515Y37400D02*
X7956D01*
X8700Y34515D02*
Y35059D01*
X8400Y37541D02*
Y38512D01*
X8500Y37549D02*
Y38502D01*
X8600Y37549D02*
Y38500D01*
X9578Y35588D02*
X11908D01*
Y36388D01*
Y35900D02*
X12263D01*
X11908Y36000D02*
X12159D01*
X9144Y37400D02*
X9308D01*
Y37294D02*
Y38188D01*
X11908Y36100D02*
X12074D01*
X11908Y37388D02*
Y38188D01*
X6700Y35500D02*
Y38531D01*
X6800Y35568D02*
Y38558D01*
X6900Y35622D02*
Y38594D01*
X7000Y35666D02*
Y38640D01*
X7100Y35700D02*
Y38698D01*
X7200Y35725D02*
Y38769D01*
X8000Y37422D02*
Y38640D01*
X7900Y37368D02*
Y38698D01*
X8100Y37466D02*
Y38594D01*
X9000Y37466D02*
Y38574D01*
X9200Y37368D02*
Y38667D01*
X9300Y37300D02*
Y38732D01*
X8200Y37500D02*
Y38558D01*
X8300Y37525D02*
Y38531D01*
X8700Y37541D02*
Y38506D01*
X9100Y37423D02*
Y38616D01*
X8486Y33800D02*
X13485D01*
X8317Y33600D02*
X13952D01*
X8410Y33700D02*
X13655D01*
X8634Y34100D02*
X13182D01*
X8596Y35000D02*
X12962D01*
X8547Y33900D02*
X13359D01*
X8596Y34000D02*
X13261D01*
X8696Y34400D02*
X13025D01*
X8700Y34500D02*
X12993D01*
X8663Y34200D02*
X13118D01*
X8684Y34300D02*
X13066D01*
X8684Y34700D02*
X12956D01*
X8663Y34800D02*
X12950D01*
X8696Y34600D02*
X12970D01*
X8634Y34900D02*
X12952D01*
X8900Y35100D02*
X12981D01*
X9143Y35200D02*
X13008D01*
X9300Y35300D02*
X13044D01*
X9417Y35400D02*
X13090D01*
X11908Y35700D02*
X12581D01*
X11908Y35800D02*
X12397D01*
X9510Y35500D02*
X13148D01*
X11908Y35600D02*
X12934D01*
X13000Y35175D02*
Y35593D01*
X13100Y35419D02*
Y35588D01*
X14400Y36059D02*
Y36743D01*
X14200Y36075D02*
Y36183D01*
X14300Y36071D02*
Y36369D01*
X8900Y37500D02*
X9308D01*
X9400Y38188D02*
Y38463D01*
X9500Y38188D02*
Y38463D01*
X9600Y38188D02*
Y38463D01*
X9700Y38188D02*
Y38463D01*
X9800Y38188D02*
Y38463D01*
X9900Y38188D02*
Y38463D01*
X10000Y38188D02*
Y38463D01*
X10100Y38188D02*
Y38463D01*
X10200Y38188D02*
Y38463D01*
X10300Y38188D02*
Y38463D01*
X10400Y38188D02*
Y38463D01*
X10500Y38188D02*
Y38463D01*
X10600Y38188D02*
Y38463D01*
X10700Y38188D02*
Y38463D01*
X8800Y37525D02*
Y38520D01*
X8900Y37500D02*
Y38543D01*
X10800Y38188D02*
Y38463D01*
X9308D02*
Y38737D01*
X7103Y38700D02*
X7897D01*
X7237Y38800D02*
X7763D01*
X6915Y38600D02*
X8085D01*
X9065D02*
X9308D01*
X10900Y38188D02*
Y38463D01*
X11000Y38188D02*
Y38463D01*
X11100Y38188D02*
Y38463D01*
X11200Y38188D02*
Y38463D01*
X11300Y38188D02*
Y38463D01*
X11400Y38188D02*
Y38463D01*
X11500Y38188D02*
Y38463D01*
X11600Y38188D02*
Y38463D01*
X11908Y37600D02*
X12020D01*
X11908Y37700D02*
X12093D01*
X11908Y37800D02*
X12181D01*
X11700Y38188D02*
Y38463D01*
X11800Y38188D02*
Y38463D01*
X9308Y38188D02*
X11908D01*
X9308Y38463D02*
X11908D01*
Y37900D02*
X12292D01*
X11900Y38188D02*
Y38463D01*
X11908Y38000D02*
X12434D01*
X11908Y38100D02*
X12637D01*
X12800Y38151D02*
Y38500D01*
X11908Y38500D02*
X12801D01*
X12900Y38171D02*
Y38480D01*
X13000Y38184D02*
Y38468D01*
X12400Y37978D02*
Y38673D01*
X12300Y37907D02*
Y38745D01*
X12600Y38085D02*
Y38567D01*
X12500Y38037D02*
Y38614D01*
X11908Y38600D02*
X12528D01*
X11908Y38700D02*
X12360D01*
X13100Y38188D02*
Y38463D01*
X12700Y38122D02*
Y38529D01*
X13500Y38128D02*
Y38524D01*
X13700Y38046D02*
Y38606D01*
X13800Y37989D02*
Y38663D01*
X13900Y37919D02*
Y38732D01*
X13200Y38185D02*
Y38466D01*
X13300Y38174D02*
Y38477D01*
X13400Y38155D02*
Y38496D01*
X13600Y38092D02*
Y38560D01*
X800Y37453D02*
Y45750D01*
X900Y37534D02*
Y45750D01*
X1000Y37600D02*
Y45750D01*
X1100Y37653D02*
Y45750D01*
X1200Y37696D02*
Y45750D01*
X1300Y37729D02*
Y45750D01*
X1400Y37752D02*
Y45750D01*
X1500Y37767D02*
Y45750D01*
X2000Y37721D02*
Y45750D01*
X2100Y37686D02*
Y45750D01*
X2200Y37641D02*
Y45750D01*
X1600Y37774D02*
Y45750D01*
X1700Y37773D02*
Y45750D01*
X1800Y37764D02*
Y45750D01*
X1900Y37747D02*
Y45750D01*
X2700Y37184D02*
Y45750D01*
X2800Y36985D02*
Y45750D01*
X3800Y36498D02*
Y45750D01*
X3900Y36795D02*
Y45750D01*
X2300Y37585D02*
Y45750D01*
X2400Y37516D02*
Y45750D01*
X2500Y37430D02*
Y45750D01*
X2600Y37323D02*
Y45750D01*
X4000Y36965D02*
Y45750D01*
X4100Y37091D02*
Y45750D01*
X4200Y37189D02*
Y45750D01*
X4300Y37268D02*
Y45750D01*
X4400Y37332D02*
Y45750D01*
X4500Y37384D02*
Y45750D01*
X4600Y37426D02*
Y45750D01*
X4700Y37457D02*
Y45750D01*
X5300Y37469D02*
Y39205D01*
X800Y38900D02*
X5509D01*
X800Y39000D02*
X5425D01*
X800Y39300D02*
X5259D01*
X800Y39400D02*
X5225D01*
X800Y39100D02*
X5357D01*
X800Y39200D02*
X5303D01*
X7300Y35741D02*
Y38857D01*
X5400Y37442D02*
Y39035D01*
X7400Y36790D02*
Y38968D01*
X7500Y36978D02*
Y39112D01*
X5500Y37406D02*
Y38909D01*
X7425Y39000D02*
X7575D01*
X7341Y38900D02*
X7659D01*
X800Y39500D02*
X5200D01*
X800Y39600D02*
X5184D01*
X800Y39700D02*
X5176D01*
X800Y39800D02*
X5176D01*
X800Y39900D02*
X5184D01*
X800Y40000D02*
X5200D01*
X800Y40100D02*
X5225D01*
X800Y40200D02*
X5259D01*
X4800Y37480D02*
Y45750D01*
X4900Y37494D02*
Y45750D01*
X5000Y37500D02*
Y45750D01*
X5100Y37498D02*
Y45750D01*
X5200Y37488D02*
Y39502D01*
Y39998D02*
Y45750D01*
X800Y40300D02*
X5302D01*
X800Y40400D02*
X5357D01*
X800Y40500D02*
X5425D01*
X800Y40600D02*
X5508D01*
X800Y40700D02*
X5612D01*
X800Y40800D02*
X5747D01*
X800Y40900D02*
X5935D01*
X800Y41000D02*
X6406D01*
X5300Y40295D02*
Y45750D01*
X5400Y40465D02*
Y45750D01*
X7425Y40500D02*
X7575D01*
X5500Y40591D02*
Y45750D01*
X5600Y40689D02*
Y45750D01*
X5700Y40768D02*
Y45750D01*
X5800Y40832D02*
Y45750D01*
X5900Y40884D02*
Y45750D01*
X6000Y40925D02*
Y45750D01*
X6100Y40957D02*
Y45750D01*
X6200Y40980D02*
Y45750D01*
X6700Y40969D02*
Y45750D01*
X6300Y40994D02*
Y45750D01*
X6400Y41000D02*
Y45750D01*
X6500Y40998D02*
Y45750D01*
X6600Y40988D02*
Y45750D01*
X7100Y40802D02*
Y45750D01*
X7300Y40643D02*
Y45750D01*
X7400Y40532D02*
Y45750D01*
X7500Y40388D02*
Y45750D01*
X6800Y40942D02*
Y45750D01*
X6900Y40906D02*
Y45750D01*
X7000Y40860D02*
Y45750D01*
X7200Y40731D02*
Y45750D01*
X800Y42100D02*
X11425D01*
X800Y41900D02*
X11825D01*
X800Y42000D02*
X11582D01*
X800Y42400D02*
X11139D01*
X800Y42500D02*
X11078D01*
X800Y42200D02*
X11308D01*
X800Y42300D02*
X11215D01*
X7342Y40600D02*
X7658D01*
X7238Y40700D02*
X7762D01*
X7103Y40800D02*
X7897D01*
X6915Y40900D02*
X8085D01*
X6444Y41000D02*
X8556D01*
X800Y42600D02*
X11029D01*
X800Y42700D02*
X10991D01*
X800Y42900D02*
X10941D01*
X800Y43000D02*
X10929D01*
X800Y42800D02*
X10962D01*
X800Y43100D02*
X10925D01*
X800Y43200D02*
X10929D01*
X800Y43300D02*
X10941D01*
X800Y43400D02*
X10962D01*
X800Y43500D02*
X10991D01*
X800Y43600D02*
X11029D01*
X800Y43700D02*
X11078D01*
X800Y43800D02*
X11139D01*
X800Y43900D02*
X11214D01*
X800Y44000D02*
X11307D01*
X800Y44100D02*
X11425D01*
X800Y44200D02*
X11581D01*
X800Y44300D02*
X11824D01*
X7600Y37112D02*
Y38968D01*
X7800Y37300D02*
Y38769D01*
X7700Y37216D02*
Y38857D01*
X7600Y40532D02*
Y45750D01*
X7700Y40643D02*
Y45750D01*
X9065Y40900D02*
X9308D01*
X8594Y41000D02*
X9308D01*
X12000Y37568D02*
Y39083D01*
X11908Y38463D02*
Y39263D01*
X12100Y37709D02*
Y38942D01*
X11908Y39000D02*
X12056D01*
X9308Y40763D02*
Y41063D01*
X11908Y40263D02*
Y41063D01*
Y40500D02*
X12037D01*
X12000Y40443D02*
Y41862D01*
X7800Y40731D02*
Y45750D01*
X7900Y40802D02*
Y45750D01*
X8000Y40860D02*
Y45750D01*
X8100Y40906D02*
Y45750D01*
X8200Y40942D02*
Y45750D01*
X8300Y40969D02*
Y45750D01*
X8400Y40988D02*
Y45750D01*
X8500Y40998D02*
Y45750D01*
X8900Y40957D02*
Y45750D01*
X9100Y40884D02*
Y45750D01*
X9200Y40833D02*
Y45750D01*
X9300Y40768D02*
Y45750D01*
X8600Y41000D02*
Y45750D01*
X8700Y40994D02*
Y45750D01*
X8800Y40980D02*
Y45750D01*
X9000Y40926D02*
Y45750D01*
X11908Y38900D02*
X12136D01*
X11908Y38800D02*
X12235D01*
X11908Y40600D02*
X12113D01*
X11908Y40700D02*
X12207D01*
X11908Y40800D02*
X12324D01*
X11908Y40900D02*
X12477D01*
X14100Y37729D02*
Y38923D01*
X14200Y37594D02*
Y39058D01*
X14300Y37407D02*
Y39244D01*
X14400Y37033D02*
Y39618D01*
X12200Y37818D02*
Y38833D01*
X11908Y41000D02*
X12707D01*
X14000Y37834D02*
Y38817D01*
X12100Y40584D02*
Y41852D01*
X12200Y40693D02*
Y41850D01*
X12300Y40782D02*
Y41856D01*
X12400Y40853D02*
Y41870D01*
X12500Y40912D02*
Y41893D01*
X12600Y40960D02*
Y41924D01*
X13600Y40967D02*
Y45750D01*
X13700Y40921D02*
Y45750D01*
X14200Y40469D02*
Y45750D01*
X14300Y40282D02*
Y45750D01*
X14400Y39908D02*
Y45750D01*
X14500Y36038D02*
Y45750D01*
X13800Y40864D02*
Y45750D01*
X13900Y40794D02*
Y45750D01*
X14000Y40709D02*
Y45750D01*
X14100Y40604D02*
Y45750D01*
X9400Y41063D02*
Y45750D01*
X9500Y41063D02*
Y45750D01*
X9600Y41063D02*
Y45750D01*
X9700Y41063D02*
Y45750D01*
X9800Y41063D02*
Y45750D01*
X9900Y41063D02*
Y45750D01*
X10000Y41063D02*
Y45750D01*
X11100Y41063D02*
Y42462D01*
X11000Y41063D02*
Y42674D01*
X11300Y41063D02*
Y42207D01*
X11200Y41063D02*
Y42318D01*
X11500Y41063D02*
Y42048D01*
X11400Y41063D02*
Y42119D01*
X11600Y41063D02*
Y41990D01*
X11700Y41063D02*
Y41944D01*
X10100Y41063D02*
Y45750D01*
X10200Y41063D02*
Y45750D01*
X10300Y41063D02*
Y45750D01*
X10400Y41063D02*
Y45750D01*
X10500Y41063D02*
Y45750D01*
X10600Y41063D02*
Y45750D01*
X10700Y41063D02*
Y45750D01*
X10800Y41063D02*
Y45750D01*
X10900Y41063D02*
Y45750D01*
X11000Y43526D02*
Y45750D01*
X11100Y43738D02*
Y45750D01*
X11200Y43882D02*
Y45750D01*
X11300Y43993D02*
Y45750D01*
X11400Y44081D02*
Y45750D01*
X11500Y44152D02*
Y45750D01*
X11600Y44210D02*
Y45750D01*
X11800Y41063D02*
Y41908D01*
X9308Y41063D02*
X11908D01*
X11900D02*
Y41881D01*
X11700Y44256D02*
Y45750D01*
X11800Y44292D02*
Y45750D01*
X11900Y44319D02*
Y45750D01*
X12700Y40997D02*
Y41966D01*
X12800Y41026D02*
Y42017D01*
X12900Y41046D02*
Y42082D01*
X13000Y41059D02*
Y42161D01*
X13100Y41063D02*
Y42259D01*
X13200Y41060D02*
Y42384D01*
X13300Y41049D02*
Y42555D01*
X13400Y41030D02*
Y42851D01*
X12000Y44338D02*
Y45750D01*
X12500Y44307D02*
Y45750D01*
X12600Y44276D02*
Y45750D01*
X12700Y44234D02*
Y45750D01*
X12100Y44348D02*
Y45750D01*
X12200Y44350D02*
Y45750D01*
X12300Y44344D02*
Y45750D01*
X12400Y44330D02*
Y45750D01*
X13200Y43816D02*
Y45750D01*
X13300Y43645D02*
Y45750D01*
X13400Y43349D02*
Y45750D01*
X13500Y41003D02*
Y45750D01*
X12800Y44183D02*
Y45750D01*
X12900Y44118D02*
Y45750D01*
X13000Y44039D02*
Y45750D01*
X13100Y43941D02*
Y45750D01*
X800Y28600D02*
X20194D01*
X800Y28300D02*
X20255D01*
X800Y28700D02*
X20190D01*
X800Y29200D02*
X15182D01*
X800Y29300D02*
X15025D01*
X800Y28800D02*
X20194D01*
X800Y29100D02*
X15425D01*
X800Y29600D02*
X14739D01*
X800Y29700D02*
X14678D01*
X800Y29400D02*
X14908D01*
X800Y29500D02*
X14815D01*
X800Y29800D02*
X14629D01*
X800Y30700D02*
X14591D01*
X800Y30800D02*
X14629D01*
X800Y30900D02*
X14678D01*
X800Y31000D02*
X14739D01*
X14600Y30726D02*
Y33641D01*
X800Y31100D02*
X14814D01*
X800Y31200D02*
X14907D01*
X800Y31300D02*
X15025D01*
X800Y31400D02*
X15181D01*
X800Y31500D02*
X15425D01*
X14700Y30938D02*
Y33679D01*
X14800Y31082D02*
Y33728D01*
X14900Y31193D02*
Y33789D01*
X15000Y31281D02*
Y33864D01*
X15100Y31352D02*
Y33957D01*
X15200Y31410D02*
Y34075D01*
X15300Y31456D02*
Y34231D01*
X15400Y31492D02*
Y34475D01*
X800Y26500D02*
X24175D01*
X800Y26600D02*
X24150D01*
X800Y26700D02*
X24134D01*
X800Y26800D02*
X24126D01*
X800Y26900D02*
X24126D01*
X800Y27000D02*
X24134D01*
X800Y27100D02*
X24150D01*
X800Y27200D02*
X24175D01*
X800Y27500D02*
X21082D01*
X800Y27300D02*
X24209D01*
X800Y27400D02*
X24252D01*
X800Y27800D02*
X20570D01*
X800Y27900D02*
X20478D01*
X800Y27600D02*
X20842D01*
X800Y27700D02*
X20687D01*
X800Y28100D02*
X20342D01*
X800Y28400D02*
X20226D01*
X800Y28000D02*
X20403D01*
X800Y28200D02*
X20293D01*
X800Y28500D02*
X20206D01*
X800Y28900D02*
X20207D01*
X800Y29000D02*
X20227D01*
X800Y31600D02*
X26834D01*
X800Y31900D02*
X26759D01*
X800Y32000D02*
X26751D01*
X800Y31700D02*
X26800D01*
X800Y31800D02*
X26775D01*
X800Y32100D02*
X26751D01*
X800Y32200D02*
X26759D01*
X800Y32300D02*
X26775D01*
X800Y32400D02*
X26800D01*
X800Y32500D02*
X26834D01*
X800Y32600D02*
X26877D01*
X800Y32700D02*
X26932D01*
X800Y32800D02*
X27000D01*
X800Y32900D02*
X27083D01*
X800Y33000D02*
X27187D01*
X800Y33100D02*
X27322D01*
X14394Y36700D02*
X18360D01*
X14405Y36800D02*
X18172D01*
X14391Y37100D02*
X17850D01*
X14370Y37200D02*
X17782D01*
X14408Y36900D02*
X18038D01*
X14403Y37000D02*
X17934D01*
X800Y38200D02*
X16082D01*
X800Y38300D02*
X16018D01*
X13782Y38000D02*
X16259D01*
X13579Y38100D02*
X16161D01*
X13415Y38500D02*
X15925D01*
X13688Y38600D02*
X15893D01*
X800Y38400D02*
X15966D01*
X13856Y38700D02*
X15870D01*
X14303Y37400D02*
X17684D01*
X14255Y37500D02*
X17650D01*
X14341Y37300D02*
X17728D01*
X14196Y37600D02*
X17625D01*
X13924Y37900D02*
X16385D01*
X13981Y38800D02*
X15856D01*
X14123Y37700D02*
X16852D01*
X14035Y37800D02*
X16555D01*
X800Y33200D02*
X27510D01*
X7800Y33300D02*
X27982D01*
X8043Y33400D02*
X49200D01*
X8200Y33500D02*
X49200D01*
X14448Y33600D02*
X49200D01*
X14745Y33700D02*
X49200D01*
X14915Y33800D02*
X49200D01*
X15041Y33900D02*
X49200D01*
X15139Y34000D02*
X49200D01*
X15218Y34100D02*
X49200D01*
X15282Y34200D02*
X49200D01*
X15334Y34300D02*
X49200D01*
X15375Y34400D02*
X49200D01*
X15407Y34500D02*
X49200D01*
X15430Y34600D02*
X49200D01*
X14838Y35900D02*
X49200D01*
X14627Y36000D02*
X49200D01*
X14142Y36100D02*
X49200D01*
X14211Y36200D02*
X49200D01*
X14267Y36300D02*
X49200D01*
X14313Y36400D02*
X49200D01*
X14349Y36500D02*
X49200D01*
X14376Y36600D02*
X49200D01*
X15419Y35100D02*
X49200D01*
X15392Y35200D02*
X49200D01*
X15356Y35300D02*
X49200D01*
X15310Y35400D02*
X49200D01*
X15252Y35500D02*
X49200D01*
X15181Y35600D02*
X49200D01*
X15093Y35700D02*
X49200D01*
X14982Y35800D02*
X49200D01*
X16125Y29100D02*
X20257D01*
X16368Y29200D02*
X20295D01*
X16525Y29300D02*
X20345D01*
X16642Y29400D02*
X20406D01*
X16735Y29500D02*
X20482D01*
X16811Y29600D02*
X20575D01*
X16872Y29700D02*
X20693D01*
X17900Y26371D02*
Y37038D01*
X17800Y26369D02*
Y37172D01*
X18100Y26351D02*
Y36850D01*
X18000Y26365D02*
Y36934D01*
X20200Y28853D02*
Y38537D01*
X20300Y29210D02*
Y38537D01*
X16921Y29800D02*
X20851D01*
X16959Y29900D02*
X21098D01*
X20400Y29391D02*
Y38537D01*
X20500Y29521D02*
Y38537D01*
X20600Y29623D02*
Y38537D01*
X20700Y29705D02*
Y38537D01*
X20800Y29771D02*
Y38537D01*
X20900Y29825D02*
Y38537D01*
X21000Y29867D02*
Y38537D01*
X21100Y29900D02*
Y38537D01*
X21200Y29924D02*
Y38537D01*
X21300Y29940D02*
Y38537D01*
X22200Y29690D02*
Y38730D01*
X22100Y29759D02*
Y38795D01*
X21400Y29947D02*
Y38537D01*
X21500Y29946D02*
Y38537D01*
X21600Y29937D02*
Y38537D01*
X21700Y29920D02*
Y38537D01*
X21798Y27500D02*
X24307D01*
X22038Y27600D02*
X24375D01*
X22193Y27700D02*
X24458D01*
X22310Y27800D02*
X24562D01*
X22403Y27900D02*
X24697D01*
X22477Y28000D02*
X24885D01*
X22538Y28100D02*
X25358D01*
X22654Y28400D02*
X27665D01*
X22674Y28500D02*
X27643D01*
X22587Y28200D02*
X27735D01*
X22625Y28300D02*
X27695D01*
X22686Y28600D02*
X27630D01*
X22690Y28700D02*
X27625D01*
X22686Y28800D02*
X27628D01*
X22674Y28900D02*
X27639D01*
X22300Y29605D02*
Y38677D01*
X22399Y29500D02*
X27904D01*
X22305Y29600D02*
X27994D01*
X22187Y29700D02*
X28108D01*
X22030Y29800D02*
X28258D01*
X21782Y29900D02*
X28483D01*
X16988Y30000D02*
X47461D01*
X22653Y29000D02*
X27658D01*
X22600Y29164D02*
Y38572D01*
X22624Y29100D02*
X27686D01*
X22585Y29200D02*
X27724D01*
X22500Y29360D02*
Y38598D01*
X22400Y29498D02*
Y38633D01*
X22535Y29300D02*
X27771D01*
X22474Y29400D02*
X27831D01*
X16500Y31318D02*
Y37828D01*
X16643Y31200D02*
X27084D01*
X16600Y31239D02*
Y37779D01*
X16369Y31400D02*
X26932D01*
X16400Y31383D02*
Y37889D01*
X16525Y31300D02*
X27000D01*
X16125Y31500D02*
X26878D01*
X17000Y30549D02*
Y37679D01*
X16900Y30845D02*
Y37691D01*
X16872Y30900D02*
X27510D01*
X16811Y31000D02*
X27322D01*
X16700Y31141D02*
Y37741D01*
X16800Y31016D02*
Y37712D01*
X16736Y31100D02*
X27188D01*
X17348Y37700D02*
X17609D01*
X16000Y31530D02*
Y38331D01*
X15900Y31544D02*
Y38575D01*
X16300Y31434D02*
Y37965D01*
X16200Y31476D02*
Y38058D01*
X16100Y31507D02*
Y38175D01*
X19894Y38537D02*
X21770D01*
X20099Y37900D02*
X35925D01*
X20100Y37867D02*
Y38537D01*
X20091Y38000D02*
X35909D01*
X20075Y38100D02*
X35901D01*
X20000Y38340D02*
Y38537D01*
X21770Y38800D02*
X22093D01*
X21770Y38600D02*
X22495D01*
X21770Y38700D02*
X22254D01*
X16959Y30700D02*
X47156D01*
X16989Y30600D02*
X47170D01*
X16921Y30800D02*
X47150D01*
X15444Y34700D02*
X49200D01*
X15450Y34800D02*
X49200D01*
X15448Y34900D02*
X49200D01*
X15438Y35000D02*
X49200D01*
X17021Y30200D02*
X47318D01*
X17021Y30400D02*
X47225D01*
X17009Y30100D02*
X47382D01*
X17025Y30300D02*
X47266D01*
X17009Y30500D02*
X47193D01*
X19340Y36700D02*
X49200D01*
X19528Y36800D02*
X49200D01*
X19662Y36900D02*
X49200D01*
X19918Y37200D02*
X36338D01*
X19972Y37300D02*
X36234D01*
X19766Y37000D02*
X36660D01*
X19850Y37100D02*
X36472D01*
X19973Y38400D02*
X35925D01*
X19918Y38500D02*
X35950D01*
X20016Y37400D02*
X36150D01*
X20050Y37500D02*
X36082D01*
X20091Y37700D02*
X35984D01*
X20050Y38200D02*
X35901D01*
X20075Y37600D02*
X36028D01*
X20099Y37800D02*
X35950D01*
X20016Y38300D02*
X35909D01*
X23324Y38600D02*
X35984D01*
X23565Y38700D02*
X36027D01*
X23726Y38800D02*
X36082D01*
X14080Y38900D02*
X15850D01*
X14160Y39000D02*
X15852D01*
X14226Y39100D02*
X15862D01*
X14280Y39200D02*
X15881D01*
X14323Y39300D02*
X15908D01*
X14356Y39400D02*
X15944D01*
X14381Y39500D02*
X15990D01*
X14398Y39600D02*
X16048D01*
X14406Y39700D02*
X16119D01*
X14407Y39800D02*
X16207D01*
X16200Y39792D02*
Y42423D01*
X14401Y39900D02*
X16318D01*
X16300Y39885D02*
Y42365D01*
X14386Y40000D02*
X16462D01*
X16400Y39961D02*
Y42319D01*
X15000Y35786D02*
Y45750D01*
X15100Y35693D02*
Y45750D01*
X15200Y35575D02*
Y45750D01*
X15300Y35419D02*
Y45750D01*
X14600Y36009D02*
Y45750D01*
X14700Y35971D02*
Y45750D01*
X14800Y35922D02*
Y45750D01*
X14900Y35861D02*
Y45750D01*
X15500Y31519D02*
Y45750D01*
X15600Y31538D02*
Y45750D01*
X15800Y31550D02*
Y42837D01*
X15700Y31548D02*
Y43049D01*
X15900Y39275D02*
Y42693D01*
X15400Y35175D02*
Y45750D01*
X16100Y39675D02*
Y42494D01*
X16000Y39519D02*
Y42582D01*
X13892Y40800D02*
X18970D01*
X13739Y40900D02*
X18970D01*
X13509Y41000D02*
X18970D01*
X800Y41100D02*
X18970D01*
X800Y41200D02*
X18970D01*
X800Y41300D02*
X18970D01*
X800Y41400D02*
X25548D01*
X14364Y40100D02*
X16673D01*
X14332Y40200D02*
X18970D01*
X14292Y40300D02*
X18970D01*
X14241Y40400D02*
X18970D01*
X14179Y40500D02*
X18970D01*
X14103Y40600D02*
X18970D01*
X14009Y40700D02*
X18970D01*
X16600Y40071D02*
Y42256D01*
X16500Y40022D02*
Y42283D01*
X800Y41500D02*
X25490D01*
X16700Y40109D02*
Y42237D01*
X800Y41700D02*
X25408D01*
X800Y41800D02*
X25381D01*
X800Y41600D02*
X25444D01*
X12524Y41900D02*
X25362D01*
X16800Y40138D02*
Y42227D01*
X16900Y40159D02*
Y42225D01*
X17400Y40138D02*
Y42341D01*
X17500Y40109D02*
Y42392D01*
X17000Y40171D02*
Y42231D01*
X17100Y40175D02*
Y42245D01*
X17200Y40171D02*
Y42268D01*
X17300Y40159D02*
Y42299D01*
X13272Y42500D02*
X16093D01*
X13135Y42300D02*
X16449D01*
X13211Y42400D02*
X16237D01*
X13321Y43600D02*
X15631D01*
X13272Y43700D02*
X15645D01*
X13321Y42600D02*
X15982D01*
X13359Y42700D02*
X15894D01*
X13409Y42900D02*
X15765D01*
X13425Y43100D02*
X15683D01*
X13388Y42800D02*
X15823D01*
X13421Y43000D02*
X15719D01*
X13421Y43200D02*
X15656D01*
X13409Y43300D02*
X15637D01*
X13389Y43400D02*
X15627D01*
X13359Y43500D02*
X15625D01*
X13136Y43900D02*
X15699D01*
X13043Y44000D02*
X15741D01*
X12925Y44100D02*
X15792D01*
X12769Y44200D02*
X15857D01*
X12526Y44300D02*
X15936D01*
X800Y44400D02*
X16034D01*
X800Y44500D02*
X16159D01*
X800Y44600D02*
X16330D01*
X13211Y43800D02*
X15668D01*
X15700Y43901D02*
Y45750D01*
X15800Y44113D02*
Y45750D01*
X15900Y44257D02*
Y45750D01*
X16000Y44368D02*
Y45750D01*
X16100Y44456D02*
Y45750D01*
X16200Y44527D02*
Y45750D01*
X16300Y44585D02*
Y45750D01*
X800Y44700D02*
X16626D01*
X800Y44800D02*
X34843D01*
X800Y44900D02*
X34987D01*
X800Y45000D02*
X35198D01*
X800Y45100D02*
X42636D01*
X800Y45200D02*
X42636D01*
X800Y45300D02*
X42636D01*
X12768Y42000D02*
X25352D01*
X12925Y42100D02*
X25350D01*
X13042Y42200D02*
X25356D01*
X17301Y42300D02*
X25370D01*
X17420Y44600D02*
X34644D01*
X17124Y44700D02*
X34732D01*
X800Y45400D02*
X42636D01*
X16400Y44631D02*
Y45750D01*
X16500Y44667D02*
Y45750D01*
X16600Y44694D02*
Y45750D01*
X16700Y44713D02*
Y45750D01*
X800Y45500D02*
X42636D01*
X800Y45600D02*
X42636D01*
X800Y45700D02*
X42636D01*
X800Y45750D02*
X42636D01*
X16800Y44723D02*
Y45750D01*
X17000Y44719D02*
Y45750D01*
X17400Y44609D02*
Y45750D01*
X17500Y44558D02*
Y45750D01*
X16900Y44725D02*
Y45750D01*
X17100Y44705D02*
Y45750D01*
X17200Y44682D02*
Y45750D01*
X17300Y44651D02*
Y45750D01*
X18210Y39500D02*
X18970D01*
X18152Y39600D02*
X18970D01*
X18081Y39700D02*
X18970D01*
X17993Y39800D02*
X18970D01*
X17882Y39900D02*
X18970D01*
X17738Y40000D02*
X18970D01*
X17527Y40100D02*
X18970D01*
X18338Y39100D02*
X18831D01*
X21800Y29895D02*
Y39083D01*
X21770Y38537D02*
Y39124D01*
X18869Y39100D02*
X18970D01*
X18319Y39200D02*
X18970D01*
X18292Y39300D02*
X18970D01*
X18256Y39400D02*
X18970D01*
X18000Y39793D02*
Y42930D01*
X18100Y39675D02*
Y43226D01*
X18200Y39519D02*
Y45750D01*
X18300Y39275D02*
Y45750D01*
X17600Y40071D02*
Y42457D01*
X17700Y40022D02*
Y42536D01*
X17800Y39961D02*
Y42634D01*
X17900Y39886D02*
Y42759D01*
X18400Y39016D02*
Y45750D01*
X18500Y39050D02*
Y45750D01*
X18600Y39075D02*
Y45750D01*
X18700Y39091D02*
Y45750D01*
X18800Y39099D02*
Y45750D01*
X18900Y39099D02*
Y45750D01*
X18970Y39094D02*
Y41337D01*
X21770Y40750D02*
Y41337D01*
Y40900D02*
X21893D01*
X21770Y38900D02*
X21969D01*
X21770Y41000D02*
X21998D01*
X21770Y41100D02*
X22130D01*
X21770Y41200D02*
X22305D01*
X21770Y41300D02*
X22589D01*
X22000Y29815D02*
Y38873D01*
X21900Y29860D02*
Y38967D01*
X23850Y38900D02*
X36150D01*
X23821Y41000D02*
X25673D01*
X23230Y41300D02*
X25619D01*
X23689Y41100D02*
X25744D01*
X23514Y41200D02*
X25707D01*
X21800Y40791D02*
Y45750D01*
X21900Y40907D02*
Y45750D01*
X22000Y41001D02*
Y45750D01*
X22100Y41079D02*
Y45750D01*
X22200Y41144D02*
Y45750D01*
X22300Y41197D02*
Y45750D01*
X22400Y41241D02*
Y45750D01*
X22500Y41276D02*
Y45750D01*
X23500Y41206D02*
Y45750D01*
X23600Y41155D02*
Y45750D01*
X23700Y41093D02*
Y45750D01*
X23800Y41017D02*
Y45750D01*
X22600Y41302D02*
Y45750D01*
X23200Y41307D02*
Y45750D01*
X23300Y41282D02*
Y45750D01*
X23400Y41248D02*
Y45750D01*
X18000Y44020D02*
Y45750D01*
X18100Y43724D02*
Y45750D01*
X19000Y41337D02*
Y45750D01*
X17600Y44493D02*
Y45750D01*
X17700Y44414D02*
Y45750D01*
X17800Y44316D02*
Y45750D01*
X17900Y44191D02*
Y45750D01*
X19100Y41337D02*
Y45750D01*
X19200Y41337D02*
Y45750D01*
X19300Y41337D02*
Y45750D01*
X19400Y41337D02*
Y45750D01*
X19500Y41337D02*
Y45750D01*
X19600Y41337D02*
Y45750D01*
X19700Y41337D02*
Y45750D01*
X19800Y41337D02*
Y45750D01*
X19900Y41337D02*
Y45750D01*
X20000Y41337D02*
Y45750D01*
X20100Y41337D02*
Y45750D01*
X20200Y41337D02*
Y45750D01*
X20300Y41337D02*
Y45750D01*
X20400Y41337D02*
Y45750D01*
X20500Y41337D02*
Y45750D01*
X20600Y41337D02*
Y45750D01*
X20700Y41337D02*
Y45750D01*
X20800Y41337D02*
Y45750D01*
X20900Y41337D02*
Y45750D01*
X21000Y41337D02*
Y45750D01*
X21100Y41337D02*
Y45750D01*
X21200Y41337D02*
Y45750D01*
X21300Y41337D02*
Y45750D01*
X21400Y41337D02*
Y45750D01*
X17513Y42400D02*
X25393D01*
X17657Y42500D02*
X25424D01*
X17768Y42600D02*
X25466D01*
X17856Y42700D02*
X25517D01*
X17927Y42800D02*
X25582D01*
X17985Y42900D02*
X25661D01*
X18031Y43000D02*
X25759D01*
X18970Y41337D02*
X21770D01*
X18067Y43100D02*
X25884D01*
X18094Y43200D02*
X26055D01*
X18113Y43300D02*
X26351D01*
X18125Y43500D02*
X34418D01*
X18119Y43600D02*
X34395D01*
X18123Y43400D02*
X34450D01*
X18105Y43700D02*
X34381D01*
X18082Y43800D02*
X34375D01*
X18051Y43900D02*
X34377D01*
X18009Y44000D02*
X34387D01*
X17958Y44100D02*
X34406D01*
X17893Y44200D02*
X34433D01*
X17814Y44300D02*
X34469D01*
X17716Y44400D02*
X34515D01*
X17591Y44500D02*
X34573D01*
X21500Y41337D02*
Y45750D01*
X21600Y41337D02*
Y45750D01*
X21700Y41337D02*
Y45750D01*
X22700Y41321D02*
Y45750D01*
X22800Y41333D02*
Y45750D01*
X22900Y41337D02*
Y45750D01*
X23000Y41334D02*
Y45750D01*
X23100Y41324D02*
Y45750D01*
X24700Y8982D02*
Y14773D01*
X24900Y8999D02*
Y14669D01*
X25000Y9000D02*
Y14633D01*
X25100Y8995D02*
Y14606D01*
X25200Y8985D02*
Y14587D01*
X25300Y8969D02*
Y14577D01*
X25400Y8948D02*
Y14575D01*
X25700Y8850D02*
Y14618D01*
X25900Y8751D02*
Y14691D01*
X26126Y8600D02*
X26334D01*
X25985Y8700D02*
X26475D01*
X25500Y8922D02*
Y14581D01*
X25600Y8889D02*
Y14595D01*
X25809Y8800D02*
X26651D01*
X25800Y8804D02*
Y14649D01*
X24200Y8841D02*
Y15399D01*
X26000Y8690D02*
Y14742D01*
X24300Y8882D02*
Y15187D01*
X24500Y8943D02*
Y14932D01*
X24400Y8916D02*
Y15043D01*
X24800Y8993D02*
Y14715D01*
X24600Y8966D02*
Y14844D01*
X26100Y8620D02*
Y14807D01*
X26200Y8540D02*
Y14886D01*
X26300Y8573D02*
Y14984D01*
X26400Y8649D02*
Y15109D01*
X26500Y8715D02*
Y15280D01*
X26600Y8773D02*
Y15576D01*
X26700Y8823D02*
Y16869D01*
X26800Y8866D02*
Y16915D01*
X25569Y8900D02*
X26891D01*
X28109D02*
X29431D01*
X24978Y9000D02*
X27482D01*
X28100Y8903D02*
Y14625D01*
X27518Y9000D02*
X30022D01*
X28200Y8866D02*
Y14593D01*
X28666Y8600D02*
X28874D01*
X28600Y8649D02*
Y14552D01*
X28525Y8700D02*
X29015D01*
X28300Y8823D02*
Y14570D01*
X28400Y8773D02*
Y14556D01*
X28349Y8800D02*
X29191D01*
X28500Y8716D02*
Y14550D01*
X26900Y8903D02*
Y16973D01*
X27000Y8933D02*
Y17044D01*
X28000Y8933D02*
Y14666D01*
X27100Y8957D02*
Y17132D01*
X27300Y8989D02*
Y15552D01*
X27200Y8976D02*
Y17243D01*
X27500Y9000D02*
Y15085D01*
X27400Y8997D02*
Y15255D01*
X28700Y8573D02*
Y14562D01*
X28800Y8539D02*
Y14581D01*
X28900Y8620D02*
Y14608D01*
X29000Y8690D02*
Y14644D01*
X29100Y8751D02*
Y14690D01*
X29200Y8804D02*
Y14748D01*
X29300Y8850D02*
Y14819D01*
X29400Y8889D02*
Y14907D01*
X26551Y15400D02*
X27341D01*
X26457Y15200D02*
X27428D01*
X26509Y15300D02*
X27379D01*
X26300Y16666D02*
Y16777D01*
X26400Y16541D02*
Y16787D01*
X26567Y16200D02*
X27341D01*
X26582Y15500D02*
X27312D01*
X26605Y15600D02*
X27291D01*
X26619Y15700D02*
X27279D01*
X26625Y15800D02*
X27275D01*
X26623Y15900D02*
X27279D01*
X26613Y16000D02*
X27291D01*
X26594Y16100D02*
X27312D01*
X26531Y16300D02*
X27379D01*
X24400Y16607D02*
Y17450D01*
X24300Y16463D02*
Y17491D01*
X24500Y16718D02*
Y17418D01*
X24600Y16806D02*
Y17395D01*
X24700Y16877D02*
Y17381D01*
X24800Y16935D02*
Y17375D01*
X24900Y16981D02*
Y17377D01*
X26500Y16370D02*
Y16806D01*
X25000Y17017D02*
Y17387D01*
X26600Y16074D02*
Y16833D01*
X27300Y16048D02*
Y17387D01*
X25200Y17063D02*
Y17310D01*
X25100Y17044D02*
Y17406D01*
X25300Y17073D02*
Y17184D01*
X26090Y14800D02*
X27775D01*
X25623Y14600D02*
X28175D01*
X25920Y14700D02*
X27931D01*
X26393Y15100D02*
X27489D01*
X26485Y16400D02*
X27428D01*
X26216Y14900D02*
X27658D01*
X26314Y15000D02*
X27565D01*
X27700Y8989D02*
Y14861D01*
X27600Y8997D02*
Y14959D01*
X27800Y8976D02*
Y14782D01*
X27900Y8957D02*
Y14718D01*
X28875Y14600D02*
X30242D01*
X29119Y14700D02*
X30307D01*
X29275Y14800D02*
X30386D01*
X29392Y14900D02*
X30484D01*
X26427Y16500D02*
X27489D01*
X26356Y16600D02*
X27564D01*
X26268Y16700D02*
X27657D01*
X26473Y16800D02*
X27775D01*
X26770Y16900D02*
X27931D01*
X26940Y17000D02*
X28175D01*
X27066Y17100D02*
X38579D01*
X27164Y17200D02*
X38575D01*
X29275Y16800D02*
X38641D01*
X29393Y16700D02*
X38679D01*
X29119Y16900D02*
X38612D01*
X28875Y17000D02*
X38591D01*
X27243Y17300D02*
X38579D01*
X27307Y17400D02*
X38591D01*
X27359Y17500D02*
X38612D01*
X31100Y8677D02*
Y12745D01*
X31206Y8600D02*
X31414D01*
X31065Y8700D02*
X31555D01*
X30889Y8800D02*
X31731D01*
X31000Y8740D02*
Y12768D01*
X30649Y8900D02*
X31971D01*
X30058Y9000D02*
X32562D01*
X31300Y8522D02*
Y12725D01*
X31400Y8589D02*
Y12727D01*
X33746Y8600D02*
X33954D01*
X31200Y8605D02*
Y12731D01*
X31500Y8663D02*
Y12737D01*
X33605Y8700D02*
X34095D01*
X33429Y8800D02*
X34271D01*
X30800Y8841D02*
Y12841D01*
X29500Y8922D02*
Y15018D01*
X31600Y8728D02*
Y12756D01*
X30900Y8794D02*
Y12800D01*
X29600Y8948D02*
Y15162D01*
X29700Y8969D02*
Y15373D01*
X30600Y8916D02*
Y12957D01*
X30700Y8882D02*
Y12893D01*
X34000Y8635D02*
Y13332D01*
X33900Y8556D02*
Y13575D01*
X34200Y8762D02*
Y13058D01*
X34100Y8703D02*
Y13175D01*
X31700Y8784D02*
Y12783D01*
X31800Y8832D02*
Y12819D01*
X31900Y8874D02*
Y12865D01*
X32000Y8909D02*
Y12923D01*
X36145Y8700D02*
X36635D01*
X35969Y8800D02*
X36811D01*
X33189Y8900D02*
X34511D01*
X35900Y8833D02*
Y11859D01*
X35729Y8900D02*
X37051D01*
X36000Y8784D02*
Y11825D01*
X36300Y8589D02*
Y11776D01*
X36400Y8522D02*
Y11776D01*
X36286Y8600D02*
X36494D01*
X36200Y8663D02*
Y11784D01*
X36100Y8728D02*
Y11800D01*
X36500Y8605D02*
Y11784D01*
X36600Y8677D02*
Y11800D01*
X34400Y8858D02*
Y12889D01*
X34300Y8814D02*
Y12965D01*
X36700Y8740D02*
Y11825D01*
X36800Y8794D02*
Y11859D01*
X34600Y8927D02*
Y12779D01*
X34500Y8896D02*
Y12828D01*
X35700Y8909D02*
Y11957D01*
X35800Y8874D02*
Y11903D01*
X38800Y8620D02*
Y16485D01*
X38600Y8751D02*
Y16952D01*
X39000Y8573D02*
Y16261D01*
X38900Y8540D02*
Y16359D01*
X36900Y8841D02*
Y11902D01*
X37000Y8882D02*
Y11957D01*
X37100Y8916D02*
Y12025D01*
X38700Y8690D02*
Y16655D01*
X30200Y8993D02*
Y13430D01*
X30400Y8966D02*
Y13134D01*
X30300Y8982D02*
Y13260D01*
X30500Y8944D02*
Y13036D01*
X32100Y8938D02*
Y12994D01*
X32200Y8962D02*
Y13082D01*
X32218Y13100D02*
X34161D01*
X32300Y8979D02*
Y13193D01*
X32400Y8991D02*
Y13337D01*
X32306Y13200D02*
X34082D01*
X32500Y8998D02*
Y13548D01*
X32481Y13500D02*
X33924D01*
X32517Y13600D02*
X33893D01*
X32377Y13300D02*
X34018D01*
X32435Y13400D02*
X33966D01*
X30100Y8999D02*
Y13727D01*
X32459Y14500D02*
X33990D01*
X32408Y14600D02*
X34048D01*
X29485Y15000D02*
X30609D01*
X29561Y15100D02*
X30780D01*
X32343Y14700D02*
X34119D01*
X29622Y15200D02*
X31076D01*
X32544Y13700D02*
X33870D01*
X32563Y13800D02*
X33856D01*
X32573Y13900D02*
X33850D01*
X32575Y14000D02*
X33852D01*
X32569Y14100D02*
X33862D01*
X32555Y14200D02*
X33881D01*
X32532Y14300D02*
X33908D01*
X32501Y14400D02*
X33944D01*
X34800Y8973D02*
Y12712D01*
X32598Y9000D02*
X35102D01*
X34900Y8987D02*
Y12691D01*
X35000Y8996D02*
Y12679D01*
X35100Y9000D02*
Y12675D01*
X35138Y9000D02*
X37642D01*
X35200Y8998D02*
Y12535D01*
X35400Y8979D02*
Y12213D01*
X35300Y8991D02*
Y12347D01*
X35600Y8938D02*
Y12025D01*
X35500Y8962D02*
Y12109D01*
X37200Y8943D02*
Y12108D01*
X37300Y8966D02*
Y12212D01*
X37400Y8982D02*
Y12347D01*
X37500Y8993D02*
Y12535D01*
X31963Y12900D02*
X34385D01*
X32041Y15000D02*
X34462D01*
X31751Y12800D02*
X34555D01*
X31870Y15100D02*
X34673D01*
X29561Y16500D02*
X38789D01*
X29486Y16600D02*
X38728D01*
X29671Y16300D02*
X38958D01*
X29622Y16400D02*
X38865D01*
X34700Y8953D02*
Y12741D01*
X37600Y8999D02*
Y13006D01*
X32107Y13000D02*
X34259D01*
X32264Y14800D02*
X34207D01*
X32166Y14900D02*
X34318D01*
X24000Y8740D02*
Y17686D01*
X24100Y8794D02*
Y17607D01*
X24200Y16251D02*
Y17543D01*
X26000Y19255D02*
Y21762D01*
X26500Y19244D02*
Y26305D01*
X27400Y16345D02*
Y17598D01*
X28300Y17030D02*
Y27603D01*
X28500Y17050D02*
Y27520D01*
X28400Y17044D02*
Y27557D01*
X26600Y19217D02*
Y26601D01*
X28600Y17048D02*
Y27493D01*
X28700Y17038D02*
Y27475D01*
X28800Y17019D02*
Y27465D01*
X27200Y18807D02*
Y31090D01*
X27100Y18918D02*
Y31183D01*
X27300Y18663D02*
Y31014D01*
X27400Y18452D02*
Y30953D01*
X26800Y19135D02*
Y31700D01*
X26700Y19181D02*
Y39075D01*
X27000Y19006D02*
Y31300D01*
X26900Y19077D02*
Y31457D01*
X27500Y16515D02*
Y30904D01*
X27600Y16641D02*
Y30866D01*
X27800Y16818D02*
Y28075D01*
X27700Y16739D02*
Y28287D01*
X28000Y16934D02*
Y27820D01*
X27900Y16882D02*
Y27931D01*
X28200Y17007D02*
Y27661D01*
X28100Y16975D02*
Y27732D01*
X27206Y18800D02*
X33949D01*
X27400Y17600D02*
X38641D01*
X27432Y17700D02*
X38679D01*
X26863Y19100D02*
X33482D01*
X26652Y19200D02*
X33394D01*
X27118Y18900D02*
X33737D01*
X27007Y19000D02*
X33593D01*
X28900Y16992D02*
Y27463D01*
X29000Y16956D02*
Y27469D01*
X29100Y16910D02*
Y27483D01*
X29200Y16852D02*
Y27506D01*
X27455Y17800D02*
X38728D01*
X27469Y17900D02*
X38789D01*
X27475Y18000D02*
X38864D01*
X27473Y18100D02*
X38957D01*
X29700Y16227D02*
Y27774D01*
X29800Y8985D02*
Y27872D01*
X29900Y8995D02*
Y27997D01*
X30000Y9000D02*
Y28168D01*
X29300Y16781D02*
Y27537D01*
X29400Y16693D02*
Y27578D01*
X29500Y16582D02*
Y27630D01*
X29600Y16438D02*
Y27694D01*
X30100Y14223D02*
Y28463D01*
X30200Y14520D02*
Y39954D01*
X30300Y14690D02*
Y39966D01*
X30400Y14816D02*
Y39986D01*
X30500Y14914D02*
Y40016D01*
X30600Y14993D02*
Y40054D01*
X30700Y15057D02*
Y40103D01*
X30800Y15109D02*
Y40164D01*
X24200Y19707D02*
Y21382D01*
X24400Y19800D02*
Y21266D01*
X24300Y19759D02*
Y21318D01*
X24600Y19855D02*
Y21193D01*
X24500Y19832D02*
Y21225D01*
X24700Y19869D02*
Y21170D01*
X24800Y19875D02*
Y21156D01*
X25200Y19817D02*
Y21181D01*
X25400Y19735D02*
Y21244D01*
X25500Y19677D02*
Y21290D01*
X25600Y19606D02*
Y21348D01*
X24900Y19873D02*
Y21150D01*
X25000Y19863D02*
Y21152D01*
X25100Y19844D02*
Y21162D01*
X25300Y19781D02*
Y21208D01*
X23900Y19466D02*
Y21685D01*
Y23115D02*
Y38947D01*
X24100Y19643D02*
Y21461D01*
X24000Y19564D02*
Y21559D01*
Y23241D02*
Y39059D01*
X24100Y23339D02*
Y39200D01*
X24300Y23482D02*
Y26212D01*
X24200Y23418D02*
Y26424D01*
X25700Y19518D02*
Y21419D01*
X25800Y19407D02*
Y21507D01*
X25900Y19263D02*
Y21618D01*
X26000Y23038D02*
Y25767D01*
X25600Y23452D02*
Y25620D01*
X25700Y23381D02*
Y25643D01*
X25800Y23293D02*
Y25674D01*
X25900Y23182D02*
Y25716D01*
X25463Y19700D02*
X33156D01*
X25718Y19500D02*
X33219D01*
X25607Y19600D02*
X33183D01*
X25275Y21200D02*
X32075D01*
X25519Y21300D02*
X32081D01*
X25252Y19800D02*
X33137D01*
X25675Y21400D02*
X32095D01*
X25792Y21500D02*
X32118D01*
X26100Y19269D02*
Y21973D01*
X25877Y19300D02*
X33323D01*
X25806Y19400D02*
X33265D01*
X25885Y21600D02*
X32149D01*
X25961Y21700D02*
X32191D01*
X26022Y21800D02*
X32242D01*
X26071Y21900D02*
X32307D01*
X26109Y22000D02*
X32386D01*
X25961Y23100D02*
X33413D01*
X26071Y22900D02*
X33735D01*
X26022Y23000D02*
X33547D01*
X25675Y23400D02*
X33157D01*
X25519Y23500D02*
X33103D01*
X25886Y23200D02*
X33309D01*
X25793Y23300D02*
X33225D01*
X26200Y19275D02*
Y25911D01*
X26300Y19273D02*
Y26009D01*
X26138Y22100D02*
X32484D01*
X26400Y19263D02*
Y26134D01*
X26159Y22200D02*
X32609D01*
X26100Y22827D02*
Y25832D01*
X26171Y22300D02*
X32780D01*
X26175Y22400D02*
X33076D01*
X33500Y8762D02*
Y19082D01*
X33800Y8557D02*
Y18865D01*
X33700Y8635D02*
Y18923D01*
X33300Y8858D02*
Y19337D01*
X33200Y8896D02*
Y19549D01*
X33600Y8703D02*
Y18994D01*
X33400Y8814D02*
Y19193D01*
X34000Y14518D02*
Y18783D01*
X33900Y14275D02*
Y18819D01*
X34100Y14675D02*
Y18756D01*
X34200Y14792D02*
Y18737D01*
X34300Y14885D02*
Y18727D01*
X34400Y14961D02*
Y18725D01*
X34500Y15022D02*
Y18731D01*
X34600Y15071D02*
Y18745D01*
X32100Y14956D02*
Y20927D01*
X31900Y15085D02*
Y45750D01*
X32300Y14757D02*
Y20460D01*
X32200Y14868D02*
Y20630D01*
X30900Y15150D02*
Y40239D01*
X31700Y15167D02*
Y45750D01*
X31800Y15131D02*
Y45750D01*
X32000Y15027D02*
Y45750D01*
X32700Y8996D02*
Y20093D01*
X32600Y9000D02*
Y20157D01*
X33100Y8927D02*
Y19945D01*
X32800Y8987D02*
Y20041D01*
X32500Y14402D02*
Y20236D01*
X32400Y14613D02*
Y20334D01*
X32900Y8973D02*
Y20000D01*
X33000Y8953D02*
Y19968D01*
X35900Y14886D02*
Y23450D01*
X36000Y14793D02*
Y23452D01*
X36100Y14675D02*
Y23462D01*
X34700Y15109D02*
Y18768D01*
X35600Y15071D02*
Y19726D01*
X35700Y15022D02*
Y23470D01*
X35800Y14961D02*
Y23456D01*
X36600Y14250D02*
Y23648D01*
X36700Y14225D02*
Y23719D01*
X36800Y14191D02*
Y23807D01*
X36900Y14148D02*
Y23918D01*
X36200Y14519D02*
Y23481D01*
X36300Y14275D02*
Y23508D01*
X36400Y14274D02*
Y23544D01*
X36500Y14266D02*
Y23590D01*
X37400Y13703D02*
Y26383D01*
X37500Y13515D02*
Y26419D01*
X37600Y13044D02*
Y26465D01*
X37700Y9000D02*
Y26523D01*
X37000Y14093D02*
Y24062D01*
X37100Y14025D02*
Y24273D01*
X37200Y13942D02*
Y26337D01*
X37300Y13838D02*
Y26356D01*
X38200Y8922D02*
Y27148D01*
X38300Y8889D02*
Y37660D01*
X38400Y8850D02*
Y38131D01*
X38500Y8804D02*
Y39191D01*
X37800Y8995D02*
Y26594D01*
X37900Y8985D02*
Y26682D01*
X38000Y8969D02*
Y26793D01*
X38100Y8948D02*
Y26937D01*
X33000Y22382D02*
Y23802D01*
X33200Y22419D02*
Y23335D01*
X33100Y22405D02*
Y23505D01*
X33400Y22423D02*
Y23111D01*
X33300Y22425D02*
Y23209D01*
X33500Y22413D02*
Y23032D01*
X33600Y22394D02*
Y22968D01*
X34100Y22156D02*
Y22806D01*
X34200Y22068D02*
Y22800D01*
X34300Y21957D02*
Y22802D01*
X34400Y21813D02*
Y22812D01*
X33700Y22367D02*
Y22916D01*
X33800Y22331D02*
Y22875D01*
X33900Y22285D02*
Y22843D01*
X34000Y22227D02*
Y22820D01*
X31000Y15182D02*
Y40332D01*
X31100Y15205D02*
Y40450D01*
X31200Y15219D02*
Y40606D01*
X31300Y15225D02*
Y40850D01*
X31400Y15223D02*
Y45750D01*
X31500Y15213D02*
Y45750D01*
X31600Y15194D02*
Y45750D01*
X32100Y21423D02*
Y45750D01*
X32200Y21720D02*
Y45750D01*
X32300Y21890D02*
Y45750D01*
X32400Y22016D02*
Y45750D01*
X32500Y22114D02*
Y45750D01*
X32600Y22193D02*
Y45750D01*
X32700Y22257D02*
Y45750D01*
X32800Y22309D02*
Y45750D01*
X32900Y22350D02*
Y45750D01*
X34800Y15138D02*
Y18799D01*
X34500Y21602D02*
Y22831D01*
X34600Y21205D02*
Y22858D01*
X34700Y21182D02*
Y22894D01*
X34900Y15159D02*
Y18841D01*
X35000Y15171D02*
Y18892D01*
X35100Y15175D02*
Y18957D01*
X35200Y15171D02*
Y19036D01*
X35300Y15159D02*
Y19134D01*
X34800Y21151D02*
Y22940D01*
X35400Y15139D02*
Y19259D01*
X35500Y15109D02*
Y19430D01*
X35000Y21058D02*
Y23069D01*
X35100Y20993D02*
Y23157D01*
X35200Y20914D02*
Y23268D01*
X35300Y20816D02*
Y23412D01*
X34900Y21109D02*
Y22998D01*
X35347Y23500D02*
X35575D01*
X38600Y17448D02*
Y39191D01*
X38700Y17745D02*
Y39191D01*
X38800Y17915D02*
Y39191D01*
X38900Y18041D02*
Y39191D01*
X35500Y20520D02*
Y23525D01*
X35400Y20691D02*
Y23566D01*
X35600Y20224D02*
Y23493D01*
X39000Y18139D02*
Y39191D01*
X38685Y8700D02*
X39175D01*
X38509Y8800D02*
X39351D01*
X38269Y8900D02*
X39591D01*
X37484Y12500D02*
X39981D01*
X37526Y12600D02*
X39825D01*
X37678Y9000D02*
X40182D01*
X37432Y12400D02*
X40225D01*
X38826Y8600D02*
X39034D01*
X39800Y8957D02*
Y12619D01*
X40100Y8997D02*
Y12444D01*
X40000Y8989D02*
Y12490D01*
X40300Y8997D02*
Y12381D01*
X40200Y9000D02*
Y12408D01*
X40400Y8989D02*
Y12362D01*
X40500Y8976D02*
Y12352D01*
X37594Y12900D02*
X39539D01*
X37600Y13000D02*
X39478D01*
X37557Y12700D02*
X39708D01*
X37580Y12800D02*
X39615D01*
X37588Y13200D02*
X39391D01*
X37542Y13400D02*
X39341D01*
X37598Y13100D02*
X39429D01*
X37569Y13300D02*
X39362D01*
X39200Y8715D02*
Y16118D01*
X39100Y8649D02*
Y16182D01*
X39400Y8823D02*
Y13174D01*
X39300Y8773D02*
Y16066D01*
X39600Y8903D02*
Y12818D01*
X39500Y8866D02*
Y12962D01*
X39900Y8976D02*
Y12548D01*
X39700Y8933D02*
Y12707D01*
X40218Y9000D02*
X42722D01*
X36598Y11800D02*
X46009D01*
X37065Y12000D02*
X45832D01*
X37289Y12200D02*
X45716D01*
X36895Y11900D02*
X45911D01*
X37191Y12100D02*
X45768D01*
X41366Y8600D02*
X41574D01*
X41225Y8700D02*
X41715D01*
X41049Y8800D02*
X41891D01*
X40600Y8957D02*
Y12350D01*
X40700Y8933D02*
Y12356D01*
X40809Y8900D02*
X42131D01*
X40800Y8903D02*
Y12370D01*
X40900Y8866D02*
Y12393D01*
X41000Y8823D02*
Y12424D01*
X41100Y8773D02*
Y12466D01*
X41200Y8716D02*
Y12517D01*
X41169Y12500D02*
X44677D01*
X37368Y12300D02*
X45674D01*
X40925Y12400D02*
X45643D01*
X41300Y8649D02*
Y12582D01*
X41400Y8573D02*
Y12661D01*
X41500Y8539D02*
Y12759D01*
X41600Y8620D02*
Y12884D01*
X41535Y12800D02*
X44084D01*
X41611Y12900D02*
X43986D01*
X41325Y12600D02*
X44380D01*
X41442Y12700D02*
X44210D01*
X36777Y14200D02*
X39478D01*
X36292Y14300D02*
X39539D01*
X36256Y14400D02*
X39614D01*
X36210Y14500D02*
X39707D01*
X36152Y14600D02*
X39825D01*
X36081Y14700D02*
X39981D01*
X35993Y14800D02*
X40225D01*
X37506Y13500D02*
X39329D01*
X37460Y13600D02*
X39325D01*
X37402Y13700D02*
X39329D01*
X37331Y13800D02*
X39341D01*
X37243Y13900D02*
X39362D01*
X37132Y14000D02*
X39391D01*
X36988Y14100D02*
X39429D01*
X39700Y14493D02*
Y15956D01*
X39400Y14026D02*
Y16025D01*
X39500Y14238D02*
Y15993D01*
X39800Y14581D02*
Y15950D01*
X39600Y14382D02*
Y15970D01*
X29738Y16100D02*
X39231D01*
X29709Y16200D02*
X39075D01*
X39900Y14652D02*
Y15952D01*
X29759Y16000D02*
X39475D01*
X40000Y14710D02*
Y15962D01*
X40100Y14756D02*
Y15981D01*
X40200Y14792D02*
Y16008D01*
X40300Y14819D02*
Y16044D01*
X40400Y14838D02*
Y16090D01*
X40500Y14848D02*
Y16148D01*
X40600Y14850D02*
Y16219D01*
X40700Y14844D02*
Y16307D01*
X35527Y15100D02*
X49200D01*
X31574Y15200D02*
X49200D01*
X29671Y15300D02*
X49200D01*
X29709Y15400D02*
X49200D01*
X29738Y15500D02*
X49200D01*
X29759Y15600D02*
X49200D01*
X29771Y15700D02*
X49200D01*
X41611Y14300D02*
X43815D01*
X41536Y14400D02*
X43873D01*
X41443Y14500D02*
X43944D01*
X41325Y14600D02*
X44032D01*
X41169Y14700D02*
X44143D01*
X40925Y14800D02*
X44287D01*
X35882Y14900D02*
X44498D01*
X35738Y15000D02*
X49200D01*
X29775Y15800D02*
X49200D01*
X40800Y14830D02*
Y16418D01*
X29771Y15900D02*
X49200D01*
X40175Y16000D02*
X49200D01*
X40419Y16100D02*
X49200D01*
X40575Y16200D02*
X49200D01*
X40692Y16300D02*
X49200D01*
X40785Y16400D02*
X49200D01*
X40900Y14807D02*
Y16562D01*
X41000Y14776D02*
Y16773D01*
X40861Y16500D02*
X49200D01*
X40922Y16600D02*
X49200D01*
X40971Y16700D02*
X49200D01*
X41059Y17000D02*
X46960D01*
X41009Y16800D02*
X49200D01*
X41038Y16900D02*
X49200D01*
X43906Y8600D02*
X44114D01*
X43765Y8700D02*
X44255D01*
X43589Y8800D02*
X44431D01*
X43349Y8900D02*
X44671D01*
X44600Y8874D02*
Y12518D01*
X42758Y9000D02*
X45262D01*
X44700Y8909D02*
Y12495D01*
X45800Y8928D02*
Y12047D01*
X44800Y8938D02*
Y12481D01*
X46000Y8858D02*
Y11809D01*
X45900Y8896D02*
Y11913D01*
X44900Y8962D02*
Y12475D01*
X45000Y8979D02*
Y12477D01*
X45700Y8953D02*
Y12235D01*
X45100Y8991D02*
Y12487D01*
X43900Y8605D02*
Y13010D01*
X43800Y8677D02*
Y13180D01*
X44100Y8589D02*
Y12786D01*
X44000Y8522D02*
Y12884D01*
X41700Y8690D02*
Y13055D01*
X41800Y8751D02*
Y13351D01*
X44200Y8663D02*
Y12707D01*
X43700Y8740D02*
Y13477D01*
X44400Y8784D02*
Y12591D01*
X44300Y8728D02*
Y12643D01*
X45200Y8998D02*
Y12506D01*
X44500Y8832D02*
Y12550D01*
X45300Y9000D02*
Y12533D01*
X45400Y8996D02*
Y12569D01*
X45500Y8987D02*
Y12615D01*
X45600Y8973D02*
Y12673D01*
X46446Y8600D02*
X46654D01*
X46500Y8557D02*
Y11525D01*
X46305Y8700D02*
X46795D01*
X46129Y8800D02*
X46971D01*
X45889Y8900D02*
X47211D01*
X45298Y9000D02*
X47802D01*
X46600Y8556D02*
Y11500D01*
X46700Y8635D02*
Y11484D01*
X48986Y8600D02*
X49200D01*
X48845Y8700D02*
X49200D01*
X48669Y8800D02*
X49200D01*
X48429Y8900D02*
X49200D01*
X47838Y9000D02*
X49200D01*
X46300Y8703D02*
Y11603D01*
X46200Y8762D02*
Y11657D01*
X46800Y8703D02*
Y11476D01*
X46400Y8635D02*
Y11559D01*
X46900Y8762D02*
Y11476D01*
X46100Y8814D02*
Y11725D01*
X47000Y8814D02*
Y11484D01*
X47100Y8858D02*
Y11500D01*
X47200Y8896D02*
Y11525D01*
X47300Y8927D02*
Y11559D01*
X47400Y8953D02*
Y11602D01*
X47500Y8973D02*
Y11657D01*
X47600Y8987D02*
Y11725D01*
X47700Y8996D02*
Y11808D01*
X47800Y9000D02*
Y11912D01*
X47900Y8998D02*
Y12047D01*
X41672Y13000D02*
X43907D01*
X45173Y12500D02*
X45620D01*
X41721Y13100D02*
X43843D01*
X41788Y13300D02*
X43750D01*
X41809Y13400D02*
X43718D01*
X41759Y13200D02*
X43791D01*
X41821Y13500D02*
X43695D01*
X48000Y8991D02*
Y12235D01*
X48100Y8979D02*
Y12705D01*
X47098Y11500D02*
X49200D01*
X47395Y11600D02*
X49200D01*
X45470Y12600D02*
X45606D01*
X47565Y11700D02*
X49200D01*
X47691Y11800D02*
X49200D01*
X41825Y13600D02*
X43681D01*
X41821Y13700D02*
X43675D01*
X41809Y13800D02*
X43677D01*
X41788Y13900D02*
X43687D01*
X41759Y14000D02*
X43706D01*
X41721Y14100D02*
X43733D01*
X41672Y14200D02*
X43769D01*
X46163Y13900D02*
X46423D01*
X47200Y13925D02*
Y16955D01*
X47300Y13891D02*
Y16950D01*
X46900Y13974D02*
Y17019D01*
X47000Y13966D02*
Y16989D01*
X47400Y13848D02*
Y16953D01*
X47100Y13950D02*
Y16968D01*
X47789Y11900D02*
X49200D01*
X47868Y12000D02*
X49200D01*
X47932Y12100D02*
X49200D01*
X47984Y12200D02*
X49200D01*
X48026Y12300D02*
X49200D01*
X48042Y13100D02*
X49200D01*
X47960Y13300D02*
X49200D01*
X48057Y12400D02*
X49200D01*
X48080Y12500D02*
X49200D01*
X48094Y12600D02*
X49200D01*
X48100Y12700D02*
X49200D01*
X48098Y12800D02*
X49200D01*
X48088Y12900D02*
X49200D01*
X48069Y13000D02*
X49200D01*
X48006Y13200D02*
X49200D01*
X46117Y14100D02*
X49200D01*
X46035Y14300D02*
X49200D01*
X45977Y14400D02*
X49200D01*
X45906Y14500D02*
X49200D01*
X45818Y14600D02*
X49200D01*
X45707Y14700D02*
X49200D01*
X45563Y14800D02*
X49200D01*
X45352Y14900D02*
X49200D01*
X47902Y13400D02*
X49200D01*
X47831Y13500D02*
X49200D01*
X47743Y13600D02*
X49200D01*
X47632Y13700D02*
X49200D01*
X47488Y13800D02*
X49200D01*
X47277Y13900D02*
X49200D01*
X46144Y14000D02*
X49200D01*
X46081Y14200D02*
X49200D01*
X41100Y14734D02*
Y23416D01*
X41300Y14618D02*
Y23343D01*
X41200Y14683D02*
Y23375D01*
X27463Y18200D02*
X39075D01*
X27444Y18300D02*
X39231D01*
X27417Y18400D02*
X39475D01*
X41800Y13849D02*
Y23312D01*
X41900Y8804D02*
Y23331D01*
X42000Y8850D02*
Y23358D01*
X42100Y8889D02*
Y23394D01*
X41400Y14539D02*
Y23320D01*
X41500Y14441D02*
Y23306D01*
X41600Y14316D02*
Y23300D01*
X41700Y14145D02*
Y23302D01*
X40500Y18252D02*
Y24005D01*
X39100Y18218D02*
Y45750D01*
X40700Y18093D02*
Y23709D01*
X40600Y18181D02*
Y23835D01*
X39200Y18282D02*
Y45750D01*
X39300Y18334D02*
Y45750D01*
X40400Y18310D02*
Y24302D01*
X39400Y18375D02*
Y45750D01*
X42200Y8922D02*
Y23440D01*
X42300Y8948D02*
Y23498D01*
X42400Y8969D02*
Y23569D01*
X42500Y8985D02*
Y23657D01*
X40900Y17838D02*
Y23532D01*
X40800Y17982D02*
Y23611D01*
X41000Y17627D02*
Y23468D01*
X42600Y8995D02*
Y23768D01*
X40971Y17700D02*
X46164D01*
X40922Y17800D02*
X46126D01*
X40861Y17900D02*
X46097D01*
X40786Y18000D02*
X46076D01*
X40693Y18100D02*
X46064D01*
X40575Y18200D02*
X46060D01*
X40419Y18300D02*
X46064D01*
X42700Y9000D02*
Y23912D01*
X42800Y8999D02*
Y24123D01*
X41071Y17100D02*
X46716D01*
X41075Y17200D02*
X46560D01*
X41038Y17500D02*
X46274D01*
X41009Y17600D02*
X46213D01*
X41071Y17300D02*
X46443D01*
X41059Y17400D02*
X46350D01*
X43300Y8916D02*
Y25212D01*
X43400Y8882D02*
Y25347D01*
X43500Y8841D02*
Y25535D01*
X43600Y8794D02*
Y26005D01*
X42900Y8993D02*
Y24902D01*
X43000Y8982D02*
Y24957D01*
X43100Y8966D02*
Y25025D01*
X43200Y8944D02*
Y25108D01*
X43700Y13973D02*
Y39542D01*
X43800Y14270D02*
Y39640D01*
X43900Y14440D02*
Y39761D01*
X44000Y14566D02*
Y39918D01*
X44200Y14743D02*
Y39741D01*
X44100Y14664D02*
Y39890D01*
X44400Y14859D02*
Y39529D01*
X44300Y14807D02*
Y39624D01*
X34801Y18800D02*
X45040D01*
X27335Y18600D02*
X45228D01*
X27277Y18700D02*
X45124D01*
X35157Y19000D02*
X44918D01*
X35268Y19100D02*
X44874D01*
X35013Y18900D02*
X44972D01*
X35356Y19200D02*
X44840D01*
X35427Y19300D02*
X44815D01*
X35485Y19400D02*
X44799D01*
X35531Y19500D02*
X44791D01*
X35567Y19600D02*
X44791D01*
X35594Y19700D02*
X44799D01*
X35613Y19800D02*
X44815D01*
X35623Y19900D02*
X44840D01*
X35625Y20000D02*
X44874D01*
X39500Y18407D02*
Y45750D01*
X39600Y18430D02*
Y45750D01*
X35619Y20100D02*
X44917D01*
X35605Y20200D02*
X44972D01*
X35582Y20300D02*
X45040D01*
X35293Y23400D02*
X41135D01*
X35551Y20400D02*
X45123D01*
X35509Y20500D02*
X45227D01*
X40100Y18419D02*
Y26788D01*
X39700Y18444D02*
Y45750D01*
X40300Y18356D02*
Y26600D01*
X40200Y18392D02*
Y26684D01*
X39900Y18448D02*
Y27110D01*
X39800Y18450D02*
Y45750D01*
X40000Y18438D02*
Y26922D01*
X27381Y18500D02*
X45362D01*
X34624Y21200D02*
X49200D01*
X34555Y21400D02*
X49200D01*
X34532Y21500D02*
X49200D01*
X34501Y21600D02*
X49200D01*
X34459Y21700D02*
X49200D01*
X34408Y21800D02*
X49200D01*
X40175Y18400D02*
X45550D01*
X35458Y20600D02*
X45362D01*
X35393Y20700D02*
X45550D01*
X35314Y20800D02*
X46024D01*
X35216Y20900D02*
X49200D01*
X35091Y21000D02*
X49200D01*
X34920Y21100D02*
X49200D01*
X34569Y21300D02*
X49200D01*
X34166Y22100D02*
X49200D01*
X34041Y22200D02*
X49200D01*
X33870Y22300D02*
X49200D01*
X33574Y22400D02*
X49200D01*
X26171Y22500D02*
X49200D01*
X26159Y22600D02*
X49200D01*
X26138Y22700D02*
X49200D01*
X26109Y22800D02*
X49200D01*
X34343Y21900D02*
X49200D01*
X34264Y22000D02*
X49200D01*
X34715Y22900D02*
X49200D01*
X34903Y23000D02*
X49200D01*
X35037Y23100D02*
X49200D01*
X35141Y23200D02*
X49200D01*
X35225Y23300D02*
X49200D01*
X42115Y23400D02*
X49200D01*
X46200Y13793D02*
Y17626D01*
X46400Y13891D02*
Y17343D01*
X46300Y13847D02*
Y17464D01*
X46100Y14152D02*
Y17887D01*
X45700Y14706D02*
Y18347D01*
X46600Y13950D02*
Y17171D01*
X46500Y13925D02*
Y17248D01*
X47700Y13642D02*
Y17012D01*
X47800Y13538D02*
Y17050D01*
X47900Y13403D02*
Y17098D01*
X48000Y13215D02*
Y17158D01*
X46700Y13966D02*
Y17109D01*
X46800Y13974D02*
Y17059D01*
X47500Y13793D02*
Y16965D01*
X47600Y13725D02*
Y16984D01*
X44600Y14932D02*
Y39385D01*
X44500Y14900D02*
Y39450D01*
X44800Y14969D02*
Y19393D01*
X44700Y14955D02*
Y27049D01*
X45000Y14973D02*
Y18857D01*
X44900Y14975D02*
Y19038D01*
X45100Y14963D02*
Y18726D01*
X45800Y14618D02*
Y18323D01*
X45500Y14835D02*
Y18423D01*
X45900Y14507D02*
Y18308D01*
X46000Y14363D02*
Y18301D01*
X45300Y14917D02*
Y18543D01*
X45200Y14944D02*
Y18624D01*
X45600Y14777D02*
Y18380D01*
X45400Y14881D02*
Y18476D01*
X48100Y12745D02*
Y17231D01*
X47660Y17000D02*
X49200D01*
X48200Y8962D02*
Y17322D01*
X47904Y17100D02*
X49200D01*
X48060Y17200D02*
X49200D01*
X48177Y17300D02*
X49200D01*
X48270Y17400D02*
X49200D01*
X48300Y8938D02*
Y17437D01*
X48400Y8909D02*
Y17588D01*
X48346Y17500D02*
X49200D01*
X48500Y8874D02*
Y17817D01*
X48407Y17600D02*
X49200D01*
X48456Y17700D02*
X49200D01*
X48494Y17800D02*
X49200D01*
X48523Y17900D02*
X49200D01*
X48544Y18000D02*
X49200D01*
X48556Y18100D02*
X49200D01*
X48560Y18200D02*
X49200D01*
X48556Y18300D02*
X49200D01*
X48544Y18400D02*
X49200D01*
X48523Y18500D02*
X49200D01*
X49000Y8589D02*
Y29728D01*
X49100Y8504D02*
Y29789D01*
X49200Y8406D02*
Y29865D01*
X49200Y8406D02*
Y29864D01*
X48600Y8833D02*
Y29591D01*
X48700Y8784D02*
Y29611D01*
X48800Y8728D02*
Y29641D01*
X48900Y8663D02*
Y29679D01*
X45200Y20476D02*
Y26423D01*
X45400Y20624D02*
Y26319D01*
X45300Y20557D02*
Y26365D01*
X45600Y20720D02*
Y26256D01*
X45500Y20677D02*
Y26283D01*
X45700Y20753D02*
Y26237D01*
X45800Y20777D02*
Y26227D01*
X45900Y20792D02*
Y26225D01*
X46400Y20747D02*
Y26341D01*
X46500Y20712D02*
Y26392D01*
X46000Y20799D02*
Y26231D01*
X46100Y20799D02*
Y26245D01*
X46200Y20790D02*
Y26268D01*
X46300Y20773D02*
Y26299D01*
X44900Y20062D02*
Y26693D01*
X44800Y19707D02*
Y26837D01*
X45100Y20374D02*
Y26494D01*
X45000Y20243D02*
Y26582D01*
X46600Y20668D02*
Y26457D01*
X46700Y20612D02*
Y26536D01*
X46800Y20543D02*
Y26634D01*
X46900Y20457D02*
Y26759D01*
X47400Y19447D02*
Y30075D01*
X47300Y19450D02*
Y30232D01*
X47700Y19388D02*
Y29789D01*
X47600Y19416D02*
Y29865D01*
X47000Y20351D02*
Y26930D01*
X47100Y20213D02*
Y27225D01*
X47500Y19435D02*
Y29958D01*
X47200Y20016D02*
Y30476D01*
X47660Y19400D02*
X49200D01*
X47289Y19500D02*
X49200D01*
X47289Y19600D02*
X49200D01*
X47281Y19700D02*
X49200D01*
X47265Y19800D02*
X49200D01*
X47240Y19900D02*
X49200D01*
X47206Y20000D02*
X49200D01*
X48494Y18600D02*
X49200D01*
X48456Y18700D02*
X49200D01*
X48407Y18800D02*
X49200D01*
X48346Y18900D02*
X49200D01*
X48271Y19000D02*
X49200D01*
X48178Y19100D02*
X49200D01*
X48060Y19200D02*
X49200D01*
X47904Y19300D02*
X49200D01*
X47163Y20100D02*
X49200D01*
X47108Y20200D02*
X49200D01*
X47040Y20300D02*
X49200D01*
X46957Y20400D02*
X49200D01*
X46853Y20500D02*
X49200D01*
X46718Y20600D02*
X49200D01*
X46530Y20700D02*
X49200D01*
X46056Y20800D02*
X49200D01*
X48200Y19078D02*
Y29591D01*
X48300Y18963D02*
Y29579D01*
X48400Y18812D02*
Y29575D01*
X48500Y18583D02*
Y29579D01*
X47900Y19302D02*
Y29679D01*
X47800Y19350D02*
Y29729D01*
X48000Y19242D02*
Y29641D01*
X48100Y19169D02*
Y29612D01*
X24400Y23534D02*
Y26068D01*
X24600Y23607D02*
Y25869D01*
X24500Y23575D02*
Y25957D01*
X24800Y23644D02*
Y25740D01*
X24700Y23630D02*
Y25798D01*
X24900Y23650D02*
Y25694D01*
X25000Y23648D02*
Y25658D01*
X25100Y23638D02*
Y25631D01*
X25400Y23556D02*
Y25600D01*
X25500Y23510D02*
Y25606D01*
X25200Y23619D02*
Y25612D01*
X25300Y23592D02*
Y25602D01*
X26053Y27900D02*
X27925D01*
X25865Y28000D02*
X27848D01*
X24200Y27276D02*
Y39394D01*
X25700Y28057D02*
Y39610D01*
X24300Y27488D02*
Y39772D01*
X25600Y28080D02*
Y39780D01*
X25500Y28094D02*
Y40077D01*
X25392Y28100D02*
X27786D01*
X25800Y28026D02*
Y39484D01*
X26300Y27691D02*
Y39150D01*
X26400Y27566D02*
Y39118D01*
X26500Y27395D02*
Y39095D01*
X26600Y27099D02*
Y39081D01*
X26000Y27933D02*
Y39307D01*
X25900Y27984D02*
Y39386D01*
X26100Y27868D02*
Y39243D01*
X26200Y27789D02*
Y39191D01*
X25275Y23600D02*
X33059D01*
X25865Y25700D02*
X33051D01*
X26053Y25800D02*
X33051D01*
X26187Y25900D02*
X33059D01*
X26291Y26000D02*
X33075D01*
X26375Y26100D02*
X33100D01*
X26443Y26200D02*
X33134D01*
X26497Y26300D02*
X33177D01*
X26541Y26400D02*
X33232D01*
X26575Y26500D02*
X33300D01*
X26600Y26600D02*
X33383D01*
X26616Y26700D02*
X33487D01*
X26624Y26800D02*
X33622D01*
X26624Y26900D02*
X33810D01*
X26616Y27000D02*
X34283D01*
X26575Y27200D02*
X35833D01*
X26541Y27300D02*
X35806D01*
X26600Y27100D02*
X35869D01*
X26498Y27400D02*
X35787D01*
X26292Y27700D02*
X28143D01*
X26188Y27800D02*
X28021D01*
X26443Y27500D02*
X28573D01*
X26375Y27600D02*
X28306D01*
X29177Y27500D02*
X35777D01*
X29444Y27600D02*
X35775D01*
X29607Y27700D02*
X35781D01*
X29729Y27800D02*
X35795D01*
X29825Y27900D02*
X35818D01*
X29902Y28000D02*
X35849D01*
X29964Y28100D02*
X35891D01*
X26800Y32400D02*
Y39077D01*
X26900Y32643D02*
Y39087D01*
X27000Y32800D02*
Y39106D01*
X24100Y39200D02*
X26180D01*
X24156Y39300D02*
X26010D01*
X24032Y39100D02*
X26477D01*
X27100Y32917D02*
Y39133D01*
X27700Y29139D02*
Y30837D01*
X27800Y29350D02*
Y30816D01*
X27900Y29495D02*
Y30804D01*
X28000Y29605D02*
Y30800D01*
X27200Y33010D02*
Y39169D01*
X27300Y33086D02*
Y39215D01*
X28100Y29693D02*
Y30804D01*
X28200Y29765D02*
Y30816D01*
X24268Y39600D02*
X25707D01*
X24289Y39700D02*
X25643D01*
X24202Y39400D02*
X25884D01*
X24240Y39500D02*
X25786D01*
X24308Y40000D02*
X25518D01*
X24300Y40100D02*
X25495D01*
X24303Y39800D02*
X25591D01*
X24309Y39900D02*
X25550D01*
X27400Y33147D02*
Y39273D01*
X27500Y33196D02*
Y39344D01*
X27600Y33234D02*
Y39432D01*
X27700Y33263D02*
Y39543D01*
X24285Y40200D02*
X25481D01*
X24262Y40300D02*
X25475D01*
X27800Y33284D02*
Y39687D01*
X27900Y33296D02*
Y39898D01*
X28300Y29823D02*
Y30837D01*
X28400Y29869D02*
Y30866D01*
X23950Y39000D02*
X36233D01*
X26973Y39100D02*
X36337D01*
X27270Y39200D02*
X36292D01*
X27440Y39300D02*
X36292D01*
X28500Y29905D02*
Y30904D01*
X28600Y29932D02*
Y30953D01*
X28700Y29950D02*
Y31014D01*
X28800Y29961D02*
Y31089D01*
X28900Y29963D02*
Y31182D01*
X29000Y29957D02*
Y31300D01*
X29100Y29942D02*
Y31456D01*
X29200Y29920D02*
Y31700D01*
X27566Y39400D02*
X36292D01*
X27664Y39500D02*
X36292D01*
X27743Y39600D02*
X36292D01*
X27807Y39700D02*
X36292D01*
X27932Y40000D02*
X29750D01*
X27955Y40100D02*
X29507D01*
X27859Y39800D02*
X34835D01*
X27900Y39900D02*
X34647D01*
X29600Y29731D02*
Y40054D01*
X29700Y29652D02*
Y40016D01*
X29800Y29554D02*
Y39987D01*
X29900Y29428D02*
Y39966D01*
X29300Y29888D02*
Y40240D01*
X27969Y40200D02*
X29350D01*
X29400Y29847D02*
Y40164D01*
X29500Y29795D02*
Y40103D01*
X33100Y24595D02*
Y25400D01*
X33300Y24891D02*
Y25000D01*
X33200Y24765D02*
Y25157D01*
X34317Y27000D02*
X35915D01*
X34978Y26800D02*
X36044D01*
X34790Y26900D02*
X35973D01*
X35900Y25950D02*
Y27030D01*
X35800Y25944D02*
Y27327D01*
X36300Y25892D02*
Y26557D01*
X36000Y25948D02*
Y26860D01*
X36100Y25938D02*
Y26734D01*
X35113Y26700D02*
X36132D01*
X35217Y26600D02*
X36243D01*
X36200Y25919D02*
Y26636D01*
X34800Y26896D02*
Y39816D01*
X34400Y26996D02*
Y40109D01*
X35000Y26786D02*
Y39743D01*
X34900Y26847D02*
Y39775D01*
X34500Y26984D02*
Y40011D01*
X34300Y27000D02*
Y40235D01*
X34700Y26934D02*
Y39868D01*
X34600Y26963D02*
Y39932D01*
X35400Y26344D02*
Y39702D01*
X35500Y26100D02*
Y39712D01*
X35600Y25907D02*
Y39731D01*
X35700Y25930D02*
Y39758D01*
X35100Y26711D02*
Y39720D01*
X35200Y26618D02*
Y39706D01*
X35300Y26500D02*
Y39700D01*
X35800Y27823D02*
Y39794D01*
X36800Y25593D02*
Y26345D01*
X36900Y25482D02*
Y26331D01*
X36500Y25810D02*
Y26441D01*
X36600Y25752D02*
Y26400D01*
X35368Y26400D02*
X36599D01*
X36700Y25681D02*
Y26368D01*
X37109Y24300D02*
X40400D01*
X37138Y24400D02*
X40384D01*
X37159Y24500D02*
X40376D01*
X37171Y24600D02*
X40376D01*
X37000Y25338D02*
Y26325D01*
X37100Y25127D02*
Y26327D01*
X37175Y24700D02*
X40384D01*
X37171Y24800D02*
X40400D01*
X36400Y25856D02*
Y26493D01*
X35300Y26500D02*
X36387D01*
X37807Y26600D02*
X40300D01*
X38006Y26800D02*
X40090D01*
X38135Y27000D02*
X39953D01*
X37918Y26700D02*
X40183D01*
X38077Y26900D02*
X40014D01*
X38181Y27100D02*
X39904D01*
X38244Y27300D02*
X39837D01*
X40400Y24798D02*
Y26532D01*
X38217Y27200D02*
X39866D01*
X38263Y27400D02*
X39816D01*
X38273Y27500D02*
X39804D01*
X38275Y27600D02*
X39800D01*
X38269Y27700D02*
X39804D01*
X30015Y28200D02*
X35942D01*
X30055Y28300D02*
X36007D01*
X30085Y28400D02*
X36086D01*
X30107Y28500D02*
X36184D01*
X30120Y28600D02*
X36309D01*
X30125Y28700D02*
X36480D01*
X30122Y28800D02*
X36776D01*
X36200Y28514D02*
Y37338D01*
X36100Y28416D02*
Y37472D01*
X36400Y28657D02*
Y37150D01*
X36300Y28593D02*
Y37234D01*
X36500Y28709D02*
Y37082D01*
X36600Y28750D02*
Y37028D01*
X36700Y28782D02*
Y36984D01*
X36800Y28805D02*
Y36950D01*
X30000Y29258D02*
Y39954D01*
X30100Y28962D02*
Y39950D01*
X36000Y28290D02*
Y37660D01*
X35900Y28120D02*
Y39840D01*
X30693Y40100D02*
X34409D01*
X30850Y40200D02*
X34325D01*
X35815Y39800D02*
X36292D01*
X30450Y40000D02*
X34513D01*
X36000Y38640D02*
Y39898D01*
X36100Y38828D02*
Y39969D01*
X36300Y39066D02*
Y39191D01*
X36200Y38962D02*
Y40057D01*
X36003Y39900D02*
X36292D01*
Y39191D02*
Y40158D01*
Y39191D02*
X36457D01*
X36137Y40000D02*
X36292D01*
X36900Y28819D02*
Y36925D01*
X37741Y28600D02*
X40300D01*
X37000Y28825D02*
Y36909D01*
X37100Y28823D02*
Y36901D01*
X37200Y28813D02*
Y36901D01*
X37300Y28794D02*
Y36909D01*
X37400Y28767D02*
Y36925D01*
X38255Y27800D02*
X39816D01*
X38232Y27900D02*
X39836D01*
X38201Y28000D02*
X39866D01*
X38159Y28100D02*
X39904D01*
X38108Y28200D02*
X39953D01*
X38043Y28300D02*
X40014D01*
X37964Y28400D02*
X40089D01*
X37866Y28500D02*
X40182D01*
X37500Y28731D02*
Y36950D01*
X37700Y28627D02*
Y37027D01*
X37800Y28556D02*
Y37082D01*
X37900Y28468D02*
Y37150D01*
X37600Y28685D02*
Y36984D01*
X37843Y39191D02*
X39092D01*
X38000Y28357D02*
Y37233D01*
X38100Y28213D02*
Y37337D01*
X38200Y28002D02*
Y37472D01*
X38400Y38169D02*
Y39191D01*
X38000Y39067D02*
Y39191D01*
X38100Y38963D02*
Y39191D01*
X38200Y38828D02*
Y39191D01*
X38300Y38640D02*
Y39191D01*
X25400Y28100D02*
Y41725D01*
X24231Y40400D02*
X25477D01*
X24191Y40500D02*
X25487D01*
X24143Y40600D02*
X25506D01*
X24083Y40700D02*
X25533D01*
X24012Y40800D02*
X25569D01*
X23926Y40900D02*
X25615D01*
X25600Y40870D02*
Y41325D01*
X25500Y40573D02*
Y41482D01*
X25700Y41040D02*
Y41208D01*
X27800Y40963D02*
Y41725D01*
X27600Y41218D02*
Y41325D01*
X27700Y41107D02*
Y41481D01*
X24300Y40102D02*
Y45750D01*
X24400Y27632D02*
Y45750D01*
X24500Y27743D02*
Y45750D01*
X24600Y27831D02*
Y45750D01*
X23900Y40927D02*
Y45750D01*
X24000Y40815D02*
Y45750D01*
X24100Y40674D02*
Y45750D01*
X24200Y40480D02*
Y45750D01*
X24700Y27902D02*
Y45750D01*
X24800Y27960D02*
Y45750D01*
X24900Y28006D02*
Y45750D01*
X25000Y28042D02*
Y45750D01*
X25100Y28069D02*
Y45750D01*
X25200Y28088D02*
Y45750D01*
X25300Y28098D02*
Y45750D01*
X27900Y40752D02*
Y45750D01*
X27975Y40300D02*
X29233D01*
X27881Y40800D02*
X28916D01*
X27706Y41100D02*
X28854D01*
X27618Y41200D02*
X28850D01*
X27835Y40900D02*
X28887D01*
X27777Y41000D02*
X28866D01*
X29000Y32800D02*
Y40607D01*
X28900Y32918D02*
Y40850D01*
X29200Y32400D02*
Y40333D01*
X29100Y32644D02*
Y40450D01*
X27944Y40600D02*
X29003D01*
X27917Y40700D02*
X28954D01*
X27973Y40400D02*
X29140D01*
X27963Y40500D02*
X29064D01*
X28000Y33300D02*
Y45750D01*
X28100Y33296D02*
Y45750D01*
X28200Y33284D02*
Y45750D01*
X27581Y41300D02*
X28854D01*
X27652Y41400D02*
X28866D01*
X27710Y41500D02*
X28886D01*
X27756Y41600D02*
X28916D01*
X28400Y33234D02*
Y45750D01*
X28600Y33147D02*
Y45750D01*
X28700Y33086D02*
Y45750D01*
X28800Y33011D02*
Y45750D01*
X28300Y33264D02*
Y45750D01*
X28500Y33196D02*
Y45750D01*
X28900Y41550D02*
Y45750D01*
X25400Y42425D02*
Y45750D01*
X25500Y42668D02*
Y45750D01*
X25600Y42825D02*
Y45750D01*
X25700Y42942D02*
Y45750D01*
X25800Y43035D02*
Y45750D01*
X25900Y43111D02*
Y45750D01*
X26000Y43172D02*
Y45750D01*
X27792Y41700D02*
X28954D01*
X27819Y41800D02*
X29003D01*
X27838Y41900D02*
X29064D01*
X27848Y42000D02*
X29139D01*
X26100Y43221D02*
Y45750D01*
X26200Y43259D02*
Y45750D01*
X26300Y43288D02*
Y45750D01*
X26400Y43309D02*
Y45750D01*
X26800Y43309D02*
Y45750D01*
X26900Y43289D02*
Y45750D01*
X27100Y43221D02*
Y45750D01*
X27200Y43172D02*
Y45750D01*
X26500Y43321D02*
Y45750D01*
X26600Y43325D02*
Y45750D01*
X26700Y43321D02*
Y45750D01*
X27000Y43259D02*
Y45750D01*
X27700Y42669D02*
Y45750D01*
X27800Y42425D02*
Y45750D01*
X29000Y41793D02*
Y45750D01*
X29100Y41950D02*
Y45750D01*
X27300Y43111D02*
Y45750D01*
X27400Y43036D02*
Y45750D01*
X27500Y42943D02*
Y45750D01*
X27600Y42825D02*
Y45750D01*
X27539Y42900D02*
X34784D01*
X27734Y42600D02*
X35377D01*
X27618Y42800D02*
X34910D01*
X27145Y43200D02*
X34543D01*
X26849Y43300D02*
X34491D01*
X27441Y43000D02*
X34686D01*
X27316Y43100D02*
X34607D01*
X27850Y42100D02*
X29232D01*
X29200Y42067D02*
Y45750D01*
X27844Y42200D02*
X29350D01*
X29300Y42160D02*
Y45750D01*
X27830Y42300D02*
X29506D01*
X27807Y42400D02*
X29750D01*
X30850Y42200D02*
X35306D01*
X27683Y42700D02*
X35080D01*
X29400Y42236D02*
Y45750D01*
X29500Y42297D02*
Y45750D01*
X29600Y42346D02*
Y45750D01*
X29700Y42384D02*
Y45750D01*
X29800Y42413D02*
Y45750D01*
X29900Y42434D02*
Y45750D01*
X30000Y42446D02*
Y45750D01*
X30100Y42450D02*
Y45750D01*
X30500Y42384D02*
Y45750D01*
X30700Y42297D02*
Y45750D01*
X30800Y42236D02*
Y45750D01*
X30900Y42161D02*
Y45750D01*
X30200Y42446D02*
Y45750D01*
X30300Y42434D02*
Y45750D01*
X30400Y42414D02*
Y45750D01*
X30600Y42346D02*
Y45750D01*
X31136Y40500D02*
X34159D01*
X30967Y40300D02*
X34257D01*
X31060Y40400D02*
X34203D01*
X31284Y40800D02*
X34084D01*
X31313Y40900D02*
X34076D01*
X31197Y40600D02*
X34125D01*
X31246Y40700D02*
X34100D01*
X31334Y41000D02*
X34076D01*
X31346Y41100D02*
X34084D01*
X34200Y26996D02*
Y40405D01*
X34100Y26984D02*
Y40702D01*
X31350Y41200D02*
X34100D01*
X31346Y41300D02*
X34125D01*
X31334Y41400D02*
X34159D01*
X31313Y41500D02*
X34202D01*
X33000Y24298D02*
Y45750D01*
X33100Y26100D02*
Y45750D01*
X33200Y26343D02*
Y45750D01*
X33300Y26500D02*
Y45750D01*
X31100Y41950D02*
Y45750D01*
X31200Y41794D02*
Y45750D01*
X31300Y41550D02*
Y45750D01*
X33400Y26617D02*
Y45750D01*
X33500Y26710D02*
Y45750D01*
X33600Y26786D02*
Y45750D01*
X33700Y26847D02*
Y45750D01*
X33800Y26896D02*
Y45750D01*
X33900Y26934D02*
Y45750D01*
X34000Y26963D02*
Y45750D01*
X34100Y41198D02*
Y45750D01*
X34200Y41495D02*
Y45750D01*
X31284Y41600D02*
X34257D01*
X31246Y41700D02*
X34325D01*
X31197Y41800D02*
X34408D01*
X31136Y41900D02*
X34512D01*
X31061Y42000D02*
X34647D01*
X35900Y42060D02*
Y42606D01*
X36292Y41742D02*
Y41991D01*
X39092Y39191D02*
Y41991D01*
X36000Y42002D02*
Y42633D01*
X36100Y41931D02*
Y42669D01*
X36138Y41900D02*
X36292D01*
Y41991D02*
X39092D01*
X34400Y41791D02*
Y43577D01*
X34300Y41665D02*
Y45750D01*
X36200Y41843D02*
Y42715D01*
X34500Y41889D02*
Y43280D01*
X34700Y42032D02*
Y42984D01*
X34600Y41968D02*
Y43110D01*
X36300Y41991D02*
Y42773D01*
X36400Y41991D02*
Y42844D01*
X39900Y28090D02*
Y45750D01*
X40000Y28278D02*
Y45750D01*
X40100Y28412D02*
Y45750D01*
X40200Y28516D02*
Y45750D01*
X36500Y41991D02*
Y42932D01*
X36600Y41991D02*
Y43043D01*
X36700Y41991D02*
Y43187D01*
X40300Y28600D02*
Y45750D01*
X31000Y42068D02*
Y45750D01*
X30968Y42100D02*
X34835D01*
X34800Y42084D02*
Y42886D01*
X34400Y44073D02*
Y45750D01*
X34500Y44370D02*
Y45750D01*
X35000Y42157D02*
Y42743D01*
X34900Y42125D02*
Y42807D01*
X35200Y42194D02*
Y42650D01*
X35100Y42180D02*
Y42691D01*
X35700Y42142D02*
Y42577D01*
X35800Y42106D02*
Y42587D01*
X35300Y42200D02*
Y42618D01*
X35400Y42198D02*
Y42595D01*
X35500Y42188D02*
Y42581D01*
X35600Y42169D02*
Y42575D01*
X34600Y44540D02*
Y45750D01*
X34700Y44666D02*
Y45750D01*
X34800Y44764D02*
Y45750D01*
X34900Y44843D02*
Y45750D01*
X35000Y44907D02*
Y45750D01*
X35100Y44959D02*
Y45750D01*
X35200Y45000D02*
Y45750D01*
X35300Y45032D02*
Y45750D01*
X35400Y45055D02*
Y45750D01*
X35900Y45044D02*
Y45750D01*
X36000Y45017D02*
Y45750D01*
X36100Y44981D02*
Y45750D01*
X35500Y45069D02*
Y45750D01*
X35600Y45075D02*
Y45750D01*
X35700Y45073D02*
Y45750D01*
X35800Y45063D02*
Y45750D01*
X36600Y44607D02*
Y45750D01*
X36700Y44463D02*
Y45750D01*
X36200Y44935D02*
Y45750D01*
X36300Y44877D02*
Y45750D01*
X36400Y44806D02*
Y45750D01*
X36500Y44718D02*
Y45750D01*
X36800Y41991D02*
Y43398D01*
X36900Y41991D02*
Y45750D01*
X37000Y41991D02*
Y45750D01*
X37100Y41991D02*
Y45750D01*
X36800Y44252D02*
Y45750D01*
X37200Y41991D02*
Y45750D01*
X37300Y41991D02*
Y45750D01*
X37400Y41991D02*
Y45750D01*
X37500Y41991D02*
Y45750D01*
X37600Y41991D02*
Y45750D01*
X37700Y41991D02*
Y45750D01*
X37800Y41991D02*
Y45750D01*
X37900Y41991D02*
Y45750D01*
X38000Y41991D02*
Y45750D01*
X38100Y41991D02*
Y45750D01*
X38200Y41991D02*
Y45750D01*
X38300Y41991D02*
Y45750D01*
X38400Y41991D02*
Y45750D01*
X38500Y41991D02*
Y45750D01*
X38600Y41991D02*
Y45750D01*
X38700Y41991D02*
Y45750D01*
X38800Y41991D02*
Y45750D01*
X38900Y41991D02*
Y45750D01*
X39000Y41991D02*
Y45750D01*
X36675Y23700D02*
X40709D01*
X36275Y23500D02*
X40947D01*
X36519Y23600D02*
X40813D01*
X36885Y23900D02*
X40557D01*
X36961Y24000D02*
X40503D01*
X36792Y23800D02*
X40625D01*
X36886Y25500D02*
X40812D01*
X37022Y24100D02*
X40459D01*
X37071Y24200D02*
X40425D01*
X37159Y24900D02*
X40425D01*
X37138Y25000D02*
X40459D01*
X37109Y25100D02*
X40502D01*
X37071Y25200D02*
X40557D01*
X37022Y25300D02*
X40625D01*
X36961Y25400D02*
X40708D01*
X36793Y25600D02*
X40947D01*
X36675Y25700D02*
X41135D01*
X36519Y25800D02*
X41120D01*
X36275Y25900D02*
X41106D01*
X37663Y26500D02*
X40457D01*
X37570Y28700D02*
X40456D01*
X37451Y26400D02*
X40700D01*
X37274Y28800D02*
X40700D01*
X40600Y25265D02*
Y26434D01*
X40500Y25095D02*
Y26478D01*
X40700Y25391D02*
Y26400D01*
X40800Y25489D02*
Y26375D01*
X40900Y25568D02*
Y26359D01*
X41000Y25632D02*
Y26351D01*
X41100Y25684D02*
Y26351D01*
X35525Y26000D02*
X41100D01*
X42303Y23500D02*
X49200D01*
X35500Y26100D02*
X41102D01*
X35466Y26200D02*
X41112D01*
X35423Y26300D02*
X41131D01*
X42263Y27300D02*
X44637D01*
X42300Y27274D02*
Y27580D01*
X42437Y23600D02*
X49200D01*
X42284Y27400D02*
X44627D01*
X42296Y27500D02*
X44625D01*
X42300Y27600D02*
X44631D01*
X42296Y27700D02*
X44645D01*
X42284Y27800D02*
X44668D01*
X42000Y28413D02*
Y39423D01*
X42011Y28400D02*
X45034D01*
X41918Y28500D02*
X45159D01*
X41800Y28600D02*
X45330D01*
X41900Y28517D02*
Y39496D01*
X41644Y28700D02*
X45626D01*
X41400Y28800D02*
X49200D01*
X42263Y27900D02*
X44699D01*
X42300Y27620D02*
Y39273D01*
X42234Y28000D02*
X44741D01*
X42196Y28100D02*
X44792D01*
X42200Y28090D02*
Y39313D01*
X42100Y28278D02*
Y39363D01*
X42147Y28200D02*
X44857D01*
X42086Y28300D02*
X44936D01*
X29267Y29900D02*
X47559D01*
X29642Y29700D02*
X47855D01*
X29492Y29800D02*
X47685D01*
X28490Y30900D02*
X47152D01*
X28678Y31000D02*
X47162D01*
X28812Y31100D02*
X47181D01*
X28916Y31200D02*
X47208D01*
X30111Y28900D02*
X49200D01*
X30092Y29000D02*
X49200D01*
X30064Y29100D02*
X49200D01*
X30026Y29200D02*
X49200D01*
X29979Y29300D02*
X49200D01*
X29756Y29600D02*
X48152D01*
X29919Y29400D02*
X49200D01*
X29846Y29500D02*
X49200D01*
X29000Y31300D02*
X47244D01*
X29068Y31400D02*
X47290D01*
X29122Y31500D02*
X47348D01*
X29166Y31600D02*
X47419D01*
X29200Y31700D02*
X47507D01*
X29225Y31800D02*
X47618D01*
X29225Y32300D02*
X49200D01*
X29200Y32400D02*
X49200D01*
X29241Y31900D02*
X47762D01*
X29249Y32000D02*
X47973D01*
X29249Y32100D02*
X49200D01*
X29241Y32200D02*
X49200D01*
X39092Y39400D02*
X42036D01*
X39092Y39500D02*
X41895D01*
X39092Y39200D02*
X42611D01*
X39092Y39300D02*
X42230D01*
X29068Y32700D02*
X49200D01*
X29000Y32800D02*
X49200D01*
X28917Y32900D02*
X49200D01*
X28813Y33000D02*
X49200D01*
X28678Y33100D02*
X49200D01*
X28490Y33200D02*
X49200D01*
X28018Y33300D02*
X49200D01*
X29166Y32500D02*
X49200D01*
X29123Y32600D02*
X49200D01*
X37640Y37000D02*
X49200D01*
X37828Y37100D02*
X49200D01*
X37962Y37200D02*
X49200D01*
X38066Y37300D02*
X49200D01*
X38150Y37400D02*
X49200D01*
X38218Y37500D02*
X49200D01*
X38272Y37600D02*
X49200D01*
X38316Y37700D02*
X49200D01*
X38350Y37800D02*
X49200D01*
X38273Y38700D02*
X49200D01*
X38218Y38800D02*
X49200D01*
X38150Y38900D02*
X49200D01*
X38067Y39000D02*
X49200D01*
X37963Y39100D02*
X49200D01*
X38375Y37900D02*
X49200D01*
X38391Y38000D02*
X49200D01*
X38399Y38100D02*
X49200D01*
X38399Y38200D02*
X49200D01*
X38391Y38300D02*
X49200D01*
X38375Y38400D02*
X49200D01*
X38350Y38500D02*
X49200D01*
X38316Y38600D02*
X49200D01*
X42541Y23700D02*
X49200D01*
X42625Y23800D02*
X49200D01*
X42693Y23900D02*
X49200D01*
X42747Y24000D02*
X49200D01*
X42791Y24100D02*
X49200D01*
X43506Y26500D02*
X45093D01*
X43460Y26600D02*
X44982D01*
X43569Y26300D02*
X45449D01*
X43542Y26400D02*
X45237D01*
X43331Y26800D02*
X44823D01*
X43132Y27000D02*
X44719D01*
X43402Y26700D02*
X44894D01*
X43243Y26900D02*
X44765D01*
X42700Y27225D02*
Y39192D01*
X42900Y27148D02*
Y39196D01*
X42988Y27100D02*
X44683D01*
X42777Y27200D02*
X44656D01*
X42400Y27274D02*
Y39241D01*
X42500Y27266D02*
Y39217D01*
X42600Y27250D02*
Y39201D01*
X42800Y27191D02*
Y39191D01*
X43400Y26703D02*
Y39339D01*
X43500Y26515D02*
Y39395D01*
X43600Y26045D02*
Y39461D01*
X43000Y27093D02*
Y39209D01*
X43100Y27025D02*
Y39229D01*
X43200Y26942D02*
Y39258D01*
X43300Y26838D02*
Y39294D01*
X42825Y24200D02*
X49200D01*
X42850Y24300D02*
X49200D01*
X42866Y24400D02*
X49200D01*
X42874Y24500D02*
X49200D01*
X42874Y24600D02*
X49200D01*
X42866Y24700D02*
X49200D01*
X42850Y24800D02*
X49200D01*
X42895Y24900D02*
X49200D01*
X43065Y25000D02*
X49200D01*
X43191Y25100D02*
X49200D01*
X43289Y25200D02*
X49200D01*
X43368Y25300D02*
X49200D01*
X43432Y25400D02*
X49200D01*
X43484Y25500D02*
X49200D01*
X43525Y25600D02*
X49200D01*
X43557Y25700D02*
X49200D01*
X43580Y25800D02*
X49200D01*
X43594Y25900D02*
X49200D01*
X43600Y26000D02*
X49200D01*
X43598Y26100D02*
X49200D01*
X43588Y26200D02*
X49200D01*
X46301Y26300D02*
X49200D01*
X46513Y26400D02*
X49200D01*
X46657Y26500D02*
X49200D01*
X46768Y26600D02*
X49200D01*
X46856Y26700D02*
X49200D01*
X46927Y26800D02*
X49200D01*
X46985Y26900D02*
X49200D01*
X47031Y27000D02*
X49200D01*
X47067Y27100D02*
X49200D01*
X47094Y27200D02*
X49200D01*
X44900Y28257D02*
Y39253D01*
X45000Y28368D02*
Y39226D01*
X45100Y28456D02*
Y39207D01*
X42933Y39200D02*
X45151D01*
X45200Y28527D02*
Y39195D01*
X45300Y28585D02*
Y39191D01*
X45400Y28631D02*
Y39193D01*
X45500Y28667D02*
Y39203D01*
X45600Y28694D02*
Y39220D01*
X45700Y28713D02*
Y39245D01*
X47500Y31692D02*
Y39236D01*
X47600Y31785D02*
Y39214D01*
X47700Y31861D02*
Y39199D01*
X45473Y39200D02*
X47691D01*
X47800Y31921D02*
Y39192D01*
X44700Y27901D02*
Y39332D01*
X44800Y28113D02*
Y39288D01*
X45800Y28723D02*
Y39278D01*
X45900Y28725D02*
Y39320D01*
X43508Y39400D02*
X44576D01*
X43650Y39500D02*
X44435D01*
X43314Y39300D02*
X44770D01*
X45854D02*
X47310D01*
X46000Y28719D02*
Y39371D01*
X46100Y28705D02*
Y39433D01*
X47100Y27725D02*
Y39410D01*
X46200Y28682D02*
Y39508D01*
X46049Y39400D02*
X47116D01*
X47200Y31174D02*
Y39352D01*
X47300Y31418D02*
Y39304D01*
X47400Y31575D02*
Y39266D01*
X46958Y28100D02*
X49200D01*
X46893Y28200D02*
X49200D01*
X46814Y28300D02*
X49200D01*
X46716Y28400D02*
X49200D01*
X46591Y28500D02*
X49200D01*
X46420Y28600D02*
X49200D01*
X46124Y28700D02*
X49200D01*
X47113Y27300D02*
X49200D01*
X47123Y27400D02*
X49200D01*
X47125Y27500D02*
X49200D01*
X47119Y27600D02*
X49200D01*
X47105Y27700D02*
X49200D01*
X47082Y27800D02*
X49200D01*
X47051Y27900D02*
X49200D01*
X47009Y28000D02*
X49200D01*
X47900Y31971D02*
Y39191D01*
X48000Y32009D02*
Y39198D01*
X48100Y32038D02*
Y39213D01*
X48200Y32059D02*
Y39234D01*
X48300Y32071D02*
Y39264D01*
X48013Y39200D02*
X49200D01*
X48400Y32075D02*
Y39302D01*
X48648Y29600D02*
X49200D01*
X48500Y32071D02*
Y39349D01*
X48945Y29700D02*
X49200D01*
X49038Y31900D02*
X49200D01*
X48827Y32000D02*
X49200D01*
X48600Y32059D02*
Y39407D01*
X48394Y39300D02*
X49200D01*
X48589Y39400D02*
X49200D01*
X39092Y40000D02*
X41503D01*
X39092Y39800D02*
X41617D01*
X39092Y39900D02*
X41554D01*
X39092Y40300D02*
X41403D01*
X39092Y40400D02*
X41385D01*
X39092Y40100D02*
X41461D01*
X39092Y40200D02*
X41428D01*
X41400Y28800D02*
Y40314D01*
X39092Y40500D02*
X41375D01*
X41600Y28723D02*
Y39825D01*
X41500Y28766D02*
Y40007D01*
X39092Y40600D02*
X41372D01*
X39092Y40700D02*
X41376D01*
X39092Y40800D02*
X41388D01*
X39092Y40900D02*
X41407D01*
X40400Y28668D02*
Y45750D01*
X40500Y28722D02*
Y45750D01*
X40600Y28766D02*
Y45750D01*
X40700Y28800D02*
Y45750D01*
X39092Y41000D02*
X41433D01*
X39092Y41100D02*
X41468D01*
X39092Y41200D02*
X41512D01*
X39092Y41300D02*
X41565D01*
X40800Y28825D02*
Y45750D01*
X40900Y28841D02*
Y45750D01*
X41000Y28849D02*
Y45750D01*
X41300Y28825D02*
Y45750D01*
X41100Y28849D02*
Y45750D01*
X41200Y28841D02*
Y45750D01*
X41400Y40867D02*
Y45750D01*
X41500Y41175D02*
Y45750D01*
X41700Y28668D02*
Y39691D01*
X41800Y28600D02*
Y39583D01*
X39092Y39600D02*
X41783D01*
X39092Y39700D02*
X41692D01*
X39092Y41400D02*
X41630D01*
X39092Y41500D02*
X41708D01*
X39092Y41600D02*
X41802D01*
X43852Y39700D02*
X44232D01*
X43928Y39800D02*
X44157D01*
X43761Y39600D02*
X44323D01*
X43990Y39900D02*
X44094D01*
X43979Y41300D02*
X44105D01*
X43915Y41400D02*
X44170D01*
X43837Y41500D02*
X44248D01*
X41600Y41356D02*
Y45750D01*
X41700Y41491D02*
Y45750D01*
X41800Y41598D02*
Y45750D01*
X39092Y41700D02*
X41918D01*
X41900Y41686D02*
Y45750D01*
X43626Y41700D02*
X44458D01*
X43700Y41639D02*
Y43242D01*
X43900Y41420D02*
Y43242D01*
X44000Y41264D02*
Y43242D01*
X44100Y41291D02*
Y43242D01*
X43800Y41541D02*
Y43242D01*
X44200Y41441D02*
Y43242D01*
X43742Y41600D02*
X44342D01*
X44300Y41558D02*
Y43242D01*
X36759Y43300D02*
X42636D01*
X36800Y43400D02*
X42636D01*
X36832Y43500D02*
X42636D01*
X36855Y43600D02*
X42636D01*
X36869Y43700D02*
X42636D01*
X36875Y43800D02*
X42636D01*
X36873Y43900D02*
X42636D01*
X39092Y41800D02*
X42067D01*
X39092Y41900D02*
X42276D01*
X42700Y41989D02*
Y43242D01*
X42800Y41990D02*
Y43242D01*
X36863Y44000D02*
X42636D01*
X36844Y44100D02*
X42636D01*
X42900Y41985D02*
Y43242D01*
X36817Y44200D02*
X42636D01*
X36781Y44300D02*
X42636D01*
X36735Y44400D02*
X42636D01*
X36677Y44500D02*
X42636D01*
X36606Y44600D02*
X42636D01*
X36518Y44700D02*
X42636D01*
X36407Y44800D02*
X42636D01*
X36263Y44900D02*
X42636D01*
X36052Y45000D02*
X42636D01*
X42000Y41758D02*
Y45750D01*
X42100Y41819D02*
Y45750D01*
X42200Y41868D02*
Y45750D01*
X42300Y41909D02*
Y45750D01*
X42400Y41940D02*
Y45750D01*
X42500Y41964D02*
Y45750D01*
X42600Y41980D02*
Y45750D01*
X42636Y43242D02*
Y45750D01*
X36003Y42000D02*
X49200D01*
X35815Y42100D02*
X49200D01*
X35344Y42200D02*
X49200D01*
X30694Y42300D02*
X49200D01*
X30451Y42400D02*
X49200D01*
X27776Y42500D02*
X49200D01*
X35873Y42600D02*
X49200D01*
X43478Y41800D02*
X44607D01*
X43000Y41972D02*
Y43242D01*
X43268Y41900D02*
X44816D01*
X36170Y42700D02*
X49200D01*
X36340Y42800D02*
X49200D01*
X36466Y42900D02*
X49200D01*
X36564Y43000D02*
X49200D01*
X36643Y43100D02*
X49200D01*
X43100Y41952D02*
Y43242D01*
X43300Y41887D02*
Y43242D01*
X43400Y41842D02*
Y43242D01*
X43500Y41787D02*
Y43242D01*
X43200Y41924D02*
Y43242D01*
X42636D02*
X45336D01*
X36707Y43200D02*
X49200D01*
X43600Y41720D02*
Y43242D01*
X44400Y41652D02*
Y43242D01*
X44500Y41731D02*
Y43242D01*
X44600Y41796D02*
Y43242D01*
X44700Y41850D02*
Y43242D01*
X44800Y41893D02*
Y43242D01*
X44900Y41928D02*
Y43242D01*
X46300Y28651D02*
Y39598D01*
X46190Y39500D02*
X46975D01*
X46400Y28609D02*
Y39709D01*
X46467Y39800D02*
X46697D01*
X46455Y41400D02*
X46710D01*
X46301Y39600D02*
X46863D01*
X46392Y39700D02*
X46772D01*
X46800Y28316D02*
Y39667D01*
X46600Y28493D02*
Y39965D01*
X47000Y28020D02*
Y39480D01*
X46900Y28191D02*
Y39564D01*
X46500Y28558D02*
Y39849D01*
X46530Y39900D02*
X46634D01*
X46700Y28414D02*
Y39796D01*
X46519Y41300D02*
X46645D01*
X46300Y41583D02*
Y43255D01*
X46200Y41673D02*
Y43273D01*
X46282Y41600D02*
X46882D01*
X46166Y41700D02*
X46998D01*
X46000Y41810D02*
Y43333D01*
X45900Y41861D02*
Y43376D01*
X46018Y41800D02*
X47147D01*
X46100Y41748D02*
Y43298D01*
X46400Y41472D02*
Y43245D01*
X46500Y41332D02*
Y43242D01*
X46600Y41216D02*
Y43247D01*
X46700Y41386D02*
Y43259D01*
X46377Y41500D02*
X46788D01*
X46800Y41514D02*
Y43279D01*
X46900Y41617D02*
Y43307D01*
X47000Y41701D02*
Y43343D01*
X48700Y32039D02*
Y39476D01*
X48800Y32009D02*
Y39560D01*
X48900Y31971D02*
Y39662D01*
X48730Y39500D02*
X49200D01*
X48841Y39600D02*
X49200D01*
X48932Y39700D02*
X49200D01*
X49000Y31922D02*
Y39789D01*
X49100Y31861D02*
Y39955D01*
X49200Y31785D02*
Y40212D01*
X49200Y31786D02*
Y40211D01*
X49007Y39800D02*
X49200D01*
X49070Y39900D02*
X49200D01*
X49059Y41300D02*
X49200D01*
X48995Y41400D02*
X49200D01*
X47100Y41771D02*
Y43389D01*
X48700Y41705D02*
Y45750D01*
X48706Y41700D02*
X49200D01*
X47200Y41829D02*
Y43446D01*
X47300Y41877D02*
Y43514D01*
X48558Y41800D02*
X49200D01*
X48600Y41774D02*
Y45750D01*
X49000Y41392D02*
Y45750D01*
X49100Y41226D02*
Y45750D01*
X49200Y40969D02*
Y45750D01*
X49200Y40970D02*
Y45750D01*
X48800Y41621D02*
Y45750D01*
X48900Y41519D02*
Y45750D01*
X48917Y41500D02*
X49200D01*
X48822Y41600D02*
X49200D01*
X45000Y41955D02*
Y43242D01*
X45100Y41974D02*
Y43242D01*
X45200Y41986D02*
Y43242D01*
X45300Y41991D02*
Y43242D01*
X45336Y43500D02*
X45693D01*
X45336Y43300D02*
X46095D01*
X45336Y43400D02*
X45853D01*
X45600Y41961D02*
Y43574D01*
X45500Y41978D02*
Y43670D01*
X45700Y41936D02*
Y43495D01*
X45800Y41903D02*
Y43429D01*
X45336Y43600D02*
X45571D01*
X45336Y43700D02*
X45473D01*
X45808Y41900D02*
X47356D01*
X47400Y41916D02*
Y43598D01*
X45400Y41988D02*
Y43791D01*
X45336Y43242D02*
Y43885D01*
X47500Y41946D02*
Y43700D01*
X47600Y41968D02*
Y43828D01*
X47400Y45586D02*
Y45750D01*
X47500Y45484D02*
Y45750D01*
X47700Y41982D02*
Y44000D01*
X47800Y41990D02*
Y44280D01*
X47900Y41990D02*
Y45750D01*
X48100Y41969D02*
Y45750D01*
X47600Y45355D02*
Y45750D01*
X47700Y45183D02*
Y45750D01*
X47800Y44904D02*
Y45750D01*
X48000Y41983D02*
Y45750D01*
X46878Y43300D02*
X49200D01*
X47120Y43400D02*
X49200D01*
X47280Y43500D02*
X49200D01*
X47402Y43600D02*
X49200D01*
X47500Y43700D02*
X49200D01*
X47580Y43800D02*
X49200D01*
X47646Y43900D02*
X49200D01*
X48348Y41900D02*
X49200D01*
X47700Y44000D02*
X49200D01*
X47744Y44100D02*
X49200D01*
X47778Y44200D02*
X49200D01*
X47804Y44300D02*
X49200D01*
X47823Y44400D02*
X49200D01*
X47833Y44500D02*
X49200D01*
X47836Y44600D02*
X49200D01*
X47773Y45000D02*
X49200D01*
X47692Y45200D02*
X49200D01*
X47636Y45300D02*
X49200D01*
X47568Y45400D02*
X49200D01*
X47485Y45500D02*
X49200D01*
X47384Y45600D02*
X49200D01*
X47258Y45700D02*
X49200D01*
X47180Y45750D02*
X49200D01*
X48200Y41947D02*
Y45750D01*
X48300Y41917D02*
Y45750D01*
X48400Y41879D02*
Y45750D01*
X48500Y41832D02*
Y45750D01*
X47832Y44700D02*
X49200D01*
X47820Y44800D02*
X49200D01*
X47801Y44900D02*
X49200D01*
X47737Y45100D02*
X49200D01*
M02*
