%FSLAX43Y43*%
%MOMM*%
G71*
G01*
G75*
G04 Layer_Physical_Order=1*
%ADD10R,1.000X0.800*%
%ADD11R,0.800X1.000*%
%ADD12R,1.800X1.600*%
%ADD13R,2.000X6.000*%
%ADD14R,1.600X1.800*%
%ADD15R,1.300X0.850*%
%ADD16R,1.200X2.850*%
%ADD17O,2.000X1.000*%
%ADD18R,2.000X1.000*%
%ADD19C,0.125*%
%ADD20R,1.700X0.600*%
%ADD21R,1.700X0.600*%
%ADD22R,0.600X2.200*%
%ADD23R,0.600X2.200*%
%ADD24R,1.450X0.550*%
%ADD25R,1.450X0.550*%
%ADD26R,0.600X2.150*%
%ADD27R,0.600X2.150*%
%ADD28C,0.500*%
%ADD29C,0.400*%
%ADD30C,0.600*%
%ADD31C,1.000*%
%ADD32C,1.500*%
%ADD33C,2.000*%
%ADD34R,1.500X1.500*%
%ADD35R,1.300X1.300*%
%ADD36C,1.300*%
%ADD37C,4.000*%
%ADD38C,1.400*%
%ADD39R,1.400X1.400*%
%ADD40C,1.200*%
D10*
X42675Y11425D02*
D03*
Y10025D02*
D03*
X22425Y12625D02*
D03*
Y11225D02*
D03*
X39575Y15850D02*
D03*
Y14450D02*
D03*
X20750Y11225D02*
D03*
Y12625D02*
D03*
X7425Y17850D02*
D03*
Y16450D02*
D03*
X48625Y10125D02*
D03*
Y11525D02*
D03*
X16375Y41750D02*
D03*
Y40350D02*
D03*
X9650Y57875D02*
D03*
Y59275D02*
D03*
Y54825D02*
D03*
X9675Y61525D02*
D03*
Y62925D02*
D03*
X9650Y56225D02*
D03*
X4375Y17850D02*
D03*
Y16450D02*
D03*
X5875Y13425D02*
D03*
Y12025D02*
D03*
X14425Y32200D02*
D03*
Y33600D02*
D03*
X14475Y16650D02*
D03*
Y18050D02*
D03*
X16325Y16650D02*
D03*
Y18050D02*
D03*
X14775Y11125D02*
D03*
Y12525D02*
D03*
X17075Y12575D02*
D03*
Y11175D02*
D03*
X37650Y11225D02*
D03*
Y9825D02*
D03*
X40175D02*
D03*
Y11225D02*
D03*
X35125Y11275D02*
D03*
Y9875D02*
D03*
X19100Y12575D02*
D03*
Y11175D02*
D03*
X32925Y11175D02*
D03*
Y9775D02*
D03*
X44800Y10075D02*
D03*
Y11475D02*
D03*
X46750Y10125D02*
D03*
Y11525D02*
D03*
D11*
X22125Y17800D02*
D03*
X23525D02*
D03*
X41725Y22800D02*
D03*
X43125D02*
D03*
X43075Y14900D02*
D03*
X41675D02*
D03*
X46750Y24700D02*
D03*
X45350D02*
D03*
X44575Y37025D02*
D03*
X43175D02*
D03*
X3725Y23375D02*
D03*
X2325D02*
D03*
Y29225D02*
D03*
X3725D02*
D03*
X3700Y35000D02*
D03*
X2300D02*
D03*
X5025Y37525D02*
D03*
X3625D02*
D03*
X5025Y41550D02*
D03*
X3625D02*
D03*
X5025Y39575D02*
D03*
X3625D02*
D03*
X31350Y15350D02*
D03*
X29950D02*
D03*
Y18875D02*
D03*
X31350D02*
D03*
X22175Y19600D02*
D03*
X23575D02*
D03*
X22125Y15950D02*
D03*
X23525D02*
D03*
X48375Y27450D02*
D03*
X46975D02*
D03*
X47000Y29275D02*
D03*
X48400D02*
D03*
X29950Y17100D02*
D03*
X31350D02*
D03*
D12*
X18807Y19913D02*
D03*
X18807Y17113D02*
D03*
X33432Y62388D02*
D03*
X33432Y59588D02*
D03*
X12257Y51863D02*
D03*
X12257Y54663D02*
D03*
X12307Y60563D02*
D03*
X12307Y57763D02*
D03*
X12157Y47963D02*
D03*
X12157Y45163D02*
D03*
X6943Y54887D02*
D03*
X6943Y52087D02*
D03*
X6957Y59538D02*
D03*
X6957Y62338D02*
D03*
X25268Y12637D02*
D03*
X25268Y9837D02*
D03*
X29218Y12687D02*
D03*
X29218Y9887D02*
D03*
D13*
X10825Y30400D02*
D03*
Y20000D02*
D03*
D14*
X19412Y43757D02*
D03*
X22212Y43757D02*
D03*
X36112Y36332D02*
D03*
X38912Y36332D02*
D03*
X4438Y44543D02*
D03*
X1638Y44543D02*
D03*
X43762Y47732D02*
D03*
X46562Y47732D02*
D03*
X1630Y32309D02*
D03*
X4430D02*
D03*
X1605Y26614D02*
D03*
X4405Y26614D02*
D03*
X1605Y20944D02*
D03*
X4405D02*
D03*
D15*
X42348Y19173D02*
D03*
X40148Y18223D02*
D03*
X40148Y20123D02*
D03*
D16*
X16025Y53375D02*
D03*
X18525D02*
D03*
X18525Y60725D02*
D03*
X16025D02*
D03*
D17*
X37343Y52807D02*
D03*
X47343Y55357D02*
D03*
X47343Y57882D02*
D03*
X47343Y60432D02*
D03*
X37343Y60432D02*
D03*
X37293Y57882D02*
D03*
X37343Y55357D02*
D03*
D18*
X47343Y52807D02*
D03*
D19*
X30433Y26288D02*
X30168Y26023D01*
X28913Y27278D01*
X29178Y27544D01*
X30433Y26288D01*
X30286D02*
X30168Y26171D01*
X29060Y27278D01*
X29178Y27396D01*
X30286Y26288D01*
X30162Y26312D02*
X29184Y27255D01*
X24281Y36966D02*
X24016Y36701D01*
X22761Y37956D01*
X23026Y38221D01*
X24281Y36966D01*
X24134D02*
X24016Y36848D01*
X22908Y37956D01*
X23026Y38074D01*
X24134Y36966D01*
X24010Y36989D02*
X23032Y37932D01*
X23716Y36400D02*
X23450Y36135D01*
X22195Y37390D01*
X22460Y37655D01*
X23716Y36400D01*
X23568D02*
X23450Y36282D01*
X22343Y37390D01*
X22460Y37508D01*
X23568Y36400D01*
X23445Y36424D02*
X22466Y37366D01*
X23150Y35834D02*
X22885Y35569D01*
X21630Y36824D01*
X21895Y37089D01*
X23150Y35834D01*
X23003D02*
X22885Y35717D01*
X21777Y36824D01*
X21895Y36942D01*
X23003Y35834D01*
X22879Y35858D02*
X21901Y36801D01*
X22584Y35269D02*
X22319Y35004D01*
X21064Y36259D01*
X21329Y36524D01*
X22584Y35269D01*
X22437D02*
X22319Y35151D01*
X21211Y36259D01*
X21329Y36376D01*
X22437Y35269D01*
X22313Y35292D02*
X21335Y36235D01*
X22019Y34703D02*
X21753Y34438D01*
X20498Y35693D01*
X20763Y35958D01*
X22019Y34703D01*
X21871D02*
X21753Y34585D01*
X20646Y35693D01*
X20763Y35811D01*
X21871Y34703D01*
X21748Y34727D02*
X20769Y35669D01*
X21453Y34137D02*
X21188Y33872D01*
X19933Y35127D01*
X20198Y35392D01*
X21453Y34137D01*
X21306D02*
X21188Y34019D01*
X20080Y35127D01*
X20198Y35245D01*
X21306Y34137D01*
X21182Y34161D02*
X20203Y35104D01*
X20887Y33572D02*
X20622Y33306D01*
X19367Y34562D01*
X19632Y34827D01*
X20887Y33572D01*
X20740D02*
X20622Y33454D01*
X19514Y34562D01*
X19632Y34679D01*
X20740Y33572D01*
X20616Y33595D02*
X19638Y34538D01*
X20321Y33006D02*
X20056Y32741D01*
X18801Y33996D01*
X19066Y34261D01*
X20321Y33006D01*
X20174D02*
X20056Y32888D01*
X18949Y33996D01*
X19066Y34114D01*
X20174Y33006D01*
X20051Y33030D02*
X19072Y33972D01*
X19756Y32440D02*
X19491Y32175D01*
X18236Y33430D01*
X18501Y33695D01*
X19756Y32440D01*
X19608D02*
X19491Y32322D01*
X18383Y33430D01*
X18501Y33548D01*
X19608Y32440D01*
X19485Y32464D02*
X18506Y33407D01*
X19190Y31875D02*
X18925Y31609D01*
X17670Y32865D01*
X17935Y33130D01*
X19190Y31875D01*
X19043D02*
X18925Y31757D01*
X17817Y32865D01*
X17935Y32982D01*
X19043Y31875D01*
X18919Y31898D02*
X17941Y32841D01*
X18624Y31309D02*
X18359Y31044D01*
X17104Y32299D01*
X17369Y32564D01*
X18624Y31309D01*
X18477D02*
X18359Y31191D01*
X17251Y32299D01*
X17369Y32417D01*
X18477Y31309D01*
X18354Y31333D02*
X17375Y32275D01*
X31441Y31044D02*
X31176Y31309D01*
X32431Y32564D01*
X32696Y32299D01*
X31441Y31044D01*
Y31191D02*
X31323Y31309D01*
X32431Y32417D01*
X32549Y32299D01*
X31441Y31191D01*
X31464Y31315D02*
X32407Y32293D01*
X30875Y31609D02*
X30610Y31875D01*
X31865Y33130D01*
X32130Y32865D01*
X30875Y31609D01*
Y31757D02*
X30757Y31875D01*
X31865Y32982D01*
X31983Y32865D01*
X30875Y31757D01*
X30899Y31880D02*
X31841Y32859D01*
X30309Y32175D02*
X30044Y32440D01*
X31299Y33695D01*
X31565Y33430D01*
X30309Y32175D01*
Y32322D02*
X30192Y32440D01*
X31299Y33548D01*
X31417Y33430D01*
X30309Y32322D01*
X30333Y32446D02*
X31276Y33424D01*
X29744Y32741D02*
X29479Y33006D01*
X30734Y34261D01*
X30999Y33996D01*
X29744Y32741D01*
Y32888D02*
X29626Y33006D01*
X30734Y34114D01*
X30851Y33996D01*
X29744Y32888D01*
X29767Y33012D02*
X30710Y33990D01*
X29178Y33306D02*
X28913Y33572D01*
X30168Y34827D01*
X30433Y34562D01*
X29178Y33306D01*
Y33454D02*
X29060Y33572D01*
X30168Y34679D01*
X30286Y34562D01*
X29178Y33454D01*
X29202Y33577D02*
X30144Y34556D01*
X28612Y33872D02*
X28347Y34137D01*
X29602Y35392D01*
X29867Y35127D01*
X28612Y33872D01*
Y34019D02*
X28494Y34137D01*
X29602Y35245D01*
X29720Y35127D01*
X28612Y34019D01*
X28636Y34143D02*
X29579Y35122D01*
X28047Y34438D02*
X27781Y34703D01*
X29037Y35958D01*
X29302Y35693D01*
X28047Y34438D01*
Y34585D02*
X27929Y34703D01*
X29037Y35811D01*
X29154Y35693D01*
X28047Y34585D01*
X28070Y34709D02*
X29013Y35687D01*
X27481Y35004D02*
X27216Y35269D01*
X28471Y36524D01*
X28736Y36259D01*
X27481Y35004D01*
Y35151D02*
X27363Y35269D01*
X28471Y36376D01*
X28589Y36259D01*
X27481Y35151D01*
X27505Y35274D02*
X28447Y36253D01*
X26915Y35569D02*
X26650Y35834D01*
X27905Y37089D01*
X28170Y36824D01*
X26915Y35569D01*
Y35717D02*
X26797Y35834D01*
X27905Y36942D01*
X28023Y36824D01*
X26915Y35717D01*
X26939Y35840D02*
X27882Y36819D01*
X26350Y36135D02*
X26084Y36400D01*
X27340Y37655D01*
X27605Y37390D01*
X26350Y36135D01*
Y36282D02*
X26232Y36400D01*
X27340Y37508D01*
X27457Y37390D01*
X26350Y36282D01*
X26373Y36406D02*
X27316Y37384D01*
X25784Y36701D02*
X25519Y36966D01*
X26774Y38221D01*
X27039Y37956D01*
X25784Y36701D01*
Y36848D02*
X25666Y36966D01*
X26774Y38074D01*
X26892Y37956D01*
X25784Y36848D01*
X25808Y36971D02*
X26750Y37950D01*
X32696Y28551D02*
X32431Y28286D01*
X31176Y29541D01*
X31441Y29806D01*
X32696Y28551D01*
X32549D02*
X32431Y28433D01*
X31323Y29541D01*
X31441Y29659D01*
X32549Y28551D01*
X32425Y28575D02*
X31446Y29517D01*
X32130Y27985D02*
X31865Y27720D01*
X30610Y28975D01*
X30875Y29241D01*
X32130Y27985D01*
X31983D02*
X31865Y27868D01*
X30757Y28975D01*
X30875Y29093D01*
X31983Y27985D01*
X31859Y28009D02*
X30881Y28952D01*
X31564Y27420D02*
X31299Y27155D01*
X30044Y28410D01*
X30309Y28675D01*
X31564Y27420D01*
X31417D02*
X31299Y27302D01*
X30191Y28410D01*
X30309Y28528D01*
X31417Y27420D01*
X31294Y27444D02*
X30315Y28386D01*
X30999Y26854D02*
X30734Y26589D01*
X29479Y27844D01*
X29744Y28109D01*
X30999Y26854D01*
X30852D02*
X30734Y26736D01*
X29626Y27844D01*
X29744Y27962D01*
X30852Y26854D01*
X30728Y26878D02*
X29749Y27820D01*
X28736Y24591D02*
X28471Y24326D01*
X27216Y25581D01*
X27481Y25846D01*
X28736Y24591D01*
X28589D02*
X28471Y24473D01*
X27363Y25581D01*
X27481Y25699D01*
X28589Y24591D01*
X28465Y24615D02*
X27487Y25558D01*
X28170Y24026D02*
X27905Y23761D01*
X26650Y25016D01*
X26915Y25281D01*
X28170Y24026D01*
X28023D02*
X27905Y23908D01*
X26797Y25016D01*
X26915Y25134D01*
X28023Y24026D01*
X27899Y24049D02*
X26921Y24992D01*
X27605Y23460D02*
X27340Y23195D01*
X26084Y24450D01*
X26350Y24715D01*
X27605Y23460D01*
X27457D02*
X27340Y23342D01*
X26232Y24450D01*
X26350Y24568D01*
X27457Y23460D01*
X27334Y23484D02*
X26355Y24426D01*
X27039Y22894D02*
X26774Y22629D01*
X25519Y23884D01*
X25784Y24149D01*
X27039Y22894D01*
X26892D02*
X26774Y22776D01*
X25666Y23884D01*
X25784Y24002D01*
X26892Y22894D01*
X26768Y22918D02*
X25790Y23861D01*
X23026Y22629D02*
X22761Y22894D01*
X24016Y24149D01*
X24281Y23884D01*
X23026Y22629D01*
Y22776D02*
X22908Y22894D01*
X24016Y24002D01*
X24134Y23884D01*
X23026Y22776D01*
X23050Y22900D02*
X23992Y23879D01*
X22461Y23195D02*
X22195Y23460D01*
X23450Y24715D01*
X23716Y24450D01*
X22461Y23195D01*
Y23342D02*
X22343Y23460D01*
X23450Y24568D01*
X23568Y24450D01*
X22461Y23342D01*
X22484Y23466D02*
X23427Y24444D01*
X21895Y23761D02*
X21630Y24026D01*
X22885Y25281D01*
X23150Y25016D01*
X21895Y23761D01*
Y23908D02*
X21777Y24026D01*
X22885Y25133D01*
X23003Y25016D01*
X21895Y23908D01*
X21919Y24031D02*
X22861Y25010D01*
X21329Y24326D02*
X21064Y24591D01*
X22319Y25846D01*
X22584Y25581D01*
X21329Y24326D01*
Y24473D02*
X21211Y24591D01*
X22319Y25699D01*
X22437Y25581D01*
X21329Y24473D01*
X21353Y24597D02*
X22295Y25576D01*
X20763Y24892D02*
X20498Y25157D01*
X21753Y26412D01*
X22019Y26147D01*
X20763Y24892D01*
Y25039D02*
X20646Y25157D01*
X21753Y26265D01*
X21871Y26147D01*
X20763Y25039D01*
X20787Y25163D02*
X21730Y26141D01*
X20198Y25458D02*
X19933Y25723D01*
X21188Y26978D01*
X21453Y26713D01*
X20198Y25458D01*
Y25605D02*
X20080Y25723D01*
X21188Y26831D01*
X21306Y26713D01*
X20198Y25605D01*
X20221Y25728D02*
X21164Y26707D01*
X19632Y26023D02*
X19367Y26288D01*
X20622Y27544D01*
X20887Y27278D01*
X19632Y26023D01*
Y26171D02*
X19514Y26288D01*
X20622Y27396D01*
X20740Y27278D01*
X19632Y26171D01*
X19656Y26294D02*
X20598Y27273D01*
X19066Y26589D02*
X18801Y26854D01*
X20056Y28109D01*
X20322Y27844D01*
X19066Y26589D01*
Y26736D02*
X18949Y26854D01*
X20056Y27962D01*
X20174Y27844D01*
X19066Y26736D01*
X19090Y26860D02*
X20033Y27838D01*
X18501Y27155D02*
X18236Y27420D01*
X19491Y28675D01*
X19756Y28410D01*
X18501Y27155D01*
Y27302D02*
X18383Y27420D01*
X19491Y28528D01*
X19608Y28410D01*
X18501Y27302D01*
X18524Y27426D02*
X19467Y28404D01*
X17935Y27720D02*
X17670Y27985D01*
X18925Y29241D01*
X19190Y28975D01*
X17935Y27720D01*
Y27868D02*
X17817Y27985D01*
X18925Y29093D01*
X19043Y28975D01*
X17935Y27868D01*
X17959Y27991D02*
X18901Y28970D01*
X17369Y28286D02*
X17104Y28551D01*
X18359Y29806D01*
X18624Y29541D01*
X17369Y28286D01*
Y28433D02*
X17251Y28551D01*
X18359Y29659D01*
X18477Y29541D01*
X17369Y28433D01*
X17393Y28557D02*
X18336Y29535D01*
X29302Y25157D02*
X29037Y24892D01*
X27781Y26147D01*
X28047Y26412D01*
X29302Y25157D01*
X29154D02*
X29037Y25039D01*
X27929Y26147D01*
X28047Y26265D01*
X29154Y25157D01*
X29031Y25181D02*
X28052Y26123D01*
X29867Y25723D02*
X29602Y25458D01*
X28347Y26713D01*
X28612Y26978D01*
X29867Y25723D01*
X29720D02*
X29602Y25605D01*
X28494Y26713D01*
X28612Y26831D01*
X29720Y25723D01*
X29597Y25746D02*
X28618Y26689D01*
D20*
X24175Y60930D02*
D03*
Y59660D02*
D03*
Y58390D02*
D03*
X29875Y60930D02*
D03*
Y59660D02*
D03*
X24175Y57120D02*
D03*
D21*
X29875D02*
D03*
Y58390D02*
D03*
D22*
X44770Y16225D02*
D03*
X47310Y21425D02*
D03*
D23*
X48580Y21425D02*
D03*
X46040Y21425D02*
D03*
X44770Y21425D02*
D03*
X48580Y16225D02*
D03*
X47310Y16225D02*
D03*
X46040D02*
D03*
D24*
X32800Y37550D02*
D03*
X32800Y38500D02*
D03*
X30650Y39450D02*
D03*
Y37550D02*
D03*
D25*
X32800Y39450D02*
D03*
D26*
X25405Y43850D02*
D03*
X26675D02*
D03*
X27945D02*
D03*
X29215D02*
D03*
X30485D02*
D03*
X31755D02*
D03*
X33025D02*
D03*
X34295D02*
D03*
X25405Y53100D02*
D03*
X26675D02*
D03*
X30485D02*
D03*
X31755D02*
D03*
X33025D02*
D03*
X34295D02*
D03*
D27*
X27945Y53100D02*
D03*
X29215D02*
D03*
D28*
X4444Y44550D02*
X6525D01*
X3625Y37525D02*
Y42275D01*
X4438Y43088D02*
Y44543D01*
X4444Y44550D01*
X3625Y42275D02*
X4438Y43088D01*
X9650Y56225D02*
Y57875D01*
X11325Y62550D02*
X12225D01*
X9675Y61525D02*
X10300D01*
X7500Y57100D02*
X9650D01*
X10300Y61525D02*
X11325Y62550D01*
X12032Y54887D02*
X12257Y54663D01*
X2800Y52200D02*
X3475D01*
X6943Y54887D02*
X12032D01*
X6162D02*
X6943D01*
X3475Y52200D02*
X6162Y54887D01*
X11913Y60563D02*
X12307D01*
X10888Y59538D02*
X11913Y60563D01*
X15275Y53375D02*
X16025D01*
X12257Y51863D02*
X13763D01*
X15275Y53375D01*
X18525D02*
Y55350D01*
X12307Y57763D02*
X13294Y56775D01*
X17100D01*
X18525Y55350D01*
X19815Y58390D02*
X24175D01*
X16025Y58750D02*
Y60725D01*
Y58750D02*
X16800Y57975D01*
X19400D01*
X19815Y58390D01*
X19590Y59660D02*
X24175D01*
X18525Y60725D02*
X19590Y59660D01*
X7625Y11735D02*
X12260Y7100D01*
X7425Y14575D02*
Y16450D01*
Y14575D02*
X7625Y14375D01*
Y11735D02*
Y14375D01*
X9720Y7100D02*
Y7405D01*
X5875Y11250D02*
Y12025D01*
Y11250D02*
X9720Y7405D01*
X7180Y7100D02*
Y7920D01*
X4375Y10725D02*
Y16450D01*
Y10725D02*
X7180Y7920D01*
X22850Y27244D02*
X23406Y26687D01*
X21824Y25086D02*
X23425Y26687D01*
X23150Y26950D02*
X23225Y27025D01*
X21258Y25652D02*
X22850Y27244D01*
X23406Y26687D02*
X23425D01*
X26669Y33325D02*
X30650Y37306D01*
X26650Y33325D02*
X26669D01*
X30650Y37306D02*
Y37550D01*
X42950Y36800D02*
X43175Y37025D01*
X5875Y19625D02*
X6275Y20025D01*
X5650Y24575D02*
X6275Y23950D01*
X5350Y24575D02*
X5650D01*
X4405Y25520D02*
X5350Y24575D01*
X37692Y40591D02*
X38912Y39370D01*
Y36800D02*
X42950D01*
X38912Y36332D02*
Y39370D01*
X6588Y59538D02*
X10888D01*
X22212Y43762D02*
X22300Y43850D01*
X22212Y43757D02*
Y43762D01*
X22300Y43850D02*
X25405D01*
X46040Y16225D02*
Y21425D01*
X44800Y11475D02*
X44850Y11525D01*
X48625D01*
X5875Y13425D02*
Y19625D01*
X3725Y29225D02*
X4405Y28545D01*
X6275Y20025D02*
Y23950D01*
X4405Y25520D02*
Y28545D01*
X4950Y23225D02*
X5000D01*
X3725Y23375D02*
X4850D01*
X4325Y17950D02*
Y22550D01*
X5000Y23225D01*
X4850Y23375D02*
X5000Y23225D01*
X47310Y16225D02*
Y21425D01*
X16375Y41750D02*
Y42925D01*
X17207Y43757D02*
X19412D01*
X16375Y42925D02*
X17207Y43757D01*
X14425Y33600D02*
Y34600D01*
X14200Y34825D02*
X14425Y34600D01*
X19600Y23994D02*
X21258Y25652D01*
X19600Y23994D02*
X19606D01*
X20125Y23475D01*
X20213D01*
X21824Y25086D01*
X18807Y22716D02*
X19845Y23755D01*
X18807Y19913D02*
Y22716D01*
X22175Y19600D02*
Y21625D01*
X22225Y21675D01*
D29*
X14425Y18100D02*
Y23344D01*
X14400Y20000D02*
X14425Y20025D01*
X10825Y20000D02*
X14400D01*
X14425Y18100D02*
X14475Y18050D01*
X14400Y28700D02*
Y30400D01*
X17175Y27225D02*
X18430Y28480D01*
X14400Y30400D02*
X14450Y30450D01*
X10825Y30400D02*
X14400D01*
X15875Y27225D02*
X17175D01*
X14400Y28700D02*
X15875Y27225D01*
X14425Y32200D02*
X14450Y32175D01*
Y30450D02*
Y32175D01*
X32925Y25350D02*
Y25794D01*
X5025Y36550D02*
X5025Y36550D01*
X7425Y17850D02*
X7450Y17875D01*
X6625Y41550D02*
X7500Y40675D01*
Y38850D02*
Y40675D01*
X4051Y33899D02*
X4430Y33520D01*
X3700Y34250D02*
X4051Y33899D01*
X4803Y34650D01*
X4405Y28545D02*
X6225Y30366D01*
X7350Y37375D02*
X8575Y38600D01*
X7350Y34600D02*
Y37375D01*
X6871Y38221D02*
X7500Y38850D01*
X6225Y37575D02*
X6871Y38221D01*
X6225Y30366D02*
Y37575D01*
X14800Y7100D02*
Y11100D01*
X14775Y11125D02*
X14800Y11100D01*
X30804Y32935D02*
X32094Y34225D01*
X40175Y11225D02*
Y11625D01*
X37150Y13800D02*
X37650Y13300D01*
X31370Y32370D02*
X32451Y33450D01*
X37650Y11225D02*
Y13300D01*
Y7110D02*
Y9825D01*
Y7110D02*
X37660Y7100D01*
X40200D02*
Y9800D01*
X40175Y9825D02*
X40200Y9800D01*
X35120Y7100D02*
Y9870D01*
X35125Y9875D01*
X37050Y23775D02*
Y27550D01*
X36275Y23000D02*
X37050Y23775D01*
X35250Y27350D02*
X35925Y26675D01*
X33632Y27350D02*
X35250D01*
X31431Y35825D02*
X33825D01*
X35250Y34400D01*
X32451Y33450D02*
X33225D01*
X34875Y31800D01*
X31763Y35025D02*
X33525D01*
X35075Y33475D01*
X32094Y34225D02*
X33400D01*
X34979Y32821D02*
X35175Y32625D01*
X33400Y34225D02*
X34804Y32821D01*
X34979D01*
X32580Y7100D02*
X32925Y7445D01*
Y9775D01*
X24960Y7100D02*
X25268Y7408D01*
Y9837D01*
X23744Y25875D02*
X24650D01*
X13108Y36888D02*
X14162D01*
X16225Y33443D02*
X17864Y31804D01*
X14162Y36888D02*
X16225Y34825D01*
Y33443D02*
Y34825D01*
X14412Y39763D02*
X17025Y37150D01*
Y33775D02*
Y37150D01*
X13108Y39763D02*
X14412D01*
X17025Y33775D02*
X18430Y32370D01*
X28025Y38075D02*
Y40925D01*
X27945Y41005D02*
X28025Y40925D01*
X26845Y36895D02*
X28025Y38075D01*
X27945Y41005D02*
Y43850D01*
X26279Y37461D02*
X27100Y38282D01*
Y39850D01*
X26775Y40150D02*
X27075Y39850D01*
X27100D01*
X30100Y41200D02*
X30485Y41585D01*
Y43850D01*
X28825Y37744D02*
Y39000D01*
X29275Y39450D01*
X27410Y36329D02*
X28825Y37744D01*
X29275Y39450D02*
X30650D01*
X34700Y37550D02*
X36175Y39025D01*
Y40175D01*
X35400Y40950D02*
X36175Y40175D01*
X32800Y37550D02*
X34700D01*
X35325Y40950D02*
X35400D01*
X34525Y38775D02*
Y39750D01*
X33575Y40700D02*
X34525Y39750D01*
X33575Y40700D02*
Y41725D01*
X34295Y42445D01*
X34250Y38500D02*
X34525Y38775D01*
X35575Y43850D02*
X35600Y43825D01*
X32800Y38500D02*
X34250D01*
X34295Y42445D02*
Y43850D01*
X35575D01*
X35600Y43825D02*
X35625D01*
X36112Y36332D02*
Y37112D01*
X37150Y38150D01*
X26600Y42075D02*
X26675Y42150D01*
Y43850D01*
X18850Y37606D02*
X21258Y35198D01*
X18850Y37606D02*
Y37850D01*
X44575Y37025D02*
X45312Y37762D01*
Y40591D01*
X15775Y30300D02*
X17029Y29046D01*
X16375Y39650D02*
Y40350D01*
Y39650D02*
X17100Y38925D01*
X17029Y29046D02*
X17864D01*
X35250Y34400D02*
X39675D01*
X42350Y31725D01*
X35075Y33475D02*
X39075D01*
X40975Y31575D01*
Y27675D02*
Y31575D01*
X35175Y32625D02*
X38275D01*
X39700Y23075D02*
Y31200D01*
X38275Y32625D02*
X39700Y31200D01*
X34875Y31800D02*
X37775D01*
X38900Y23650D02*
Y30675D01*
X37775Y31800D02*
X38900Y30675D01*
X26279Y23389D02*
X26650Y23018D01*
X39575Y15850D02*
Y16900D01*
X39850Y17175D01*
X39850Y17175D01*
X40148Y17473D01*
X39850Y17175D02*
Y17175D01*
X39825Y17200D02*
X39850Y17175D01*
X40148Y17473D02*
Y18223D01*
X41725Y22800D02*
Y24450D01*
X41625Y24550D02*
X41725Y24450D01*
X46750Y11525D02*
X46850Y11625D01*
X40874Y20850D02*
X42825D01*
X44770Y18905D01*
X43445Y14900D02*
X44770Y16225D01*
X40148Y20123D02*
X40874Y20850D01*
X43075Y14900D02*
X43445D01*
X44770Y16225D02*
Y18905D01*
X17340Y7100D02*
Y10910D01*
X17075Y11175D02*
X17340Y10910D01*
X22125Y14450D02*
Y17800D01*
X16325Y18050D02*
Y21850D01*
X20693Y26218D01*
X20700Y11175D02*
X20750Y11225D01*
X19925Y9800D02*
Y11175D01*
X19100D02*
X20700D01*
X22375Y12575D02*
X22425Y12625D01*
X23525Y15875D02*
Y17800D01*
Y15875D02*
X25268Y14132D01*
X20650Y12725D02*
X20750Y12625D01*
X20650Y12725D02*
Y14000D01*
X25375Y15825D02*
X25875D01*
X19100Y12575D02*
X22375D01*
X17075D02*
Y13150D01*
X19150Y14200D02*
X20750Y15800D01*
Y21749D02*
X22955Y23955D01*
X20750Y15800D02*
Y21749D01*
X17075Y13150D02*
X18125Y14200D01*
X19150D01*
X15350Y15550D02*
X15375Y15575D01*
Y16650D01*
X14475D02*
X18344D01*
X18807Y17113D01*
X18800Y15550D02*
X18807Y15557D01*
Y17113D01*
X21738Y28400D02*
X21750D01*
X18219Y24875D02*
X20127Y26783D01*
X17687Y25475D02*
X19561Y27349D01*
X20127Y26783D02*
X20133D01*
X21550Y28588D02*
X21562D01*
X20133Y26783D02*
X21750Y28400D01*
X21440Y28698D02*
X21738Y28400D01*
X21440Y28698D02*
Y28710D01*
X21200Y28950D02*
X21440Y28710D01*
X21162Y28950D02*
X21200D01*
X19561Y27349D02*
X21162Y28950D01*
X18125Y24875D02*
X18219D01*
X14425Y23344D02*
X18996Y27915D01*
X17687Y25313D02*
X18125Y24875D01*
X17687Y25313D02*
Y25475D01*
X24650Y25875D02*
X24925Y25600D01*
X25700Y25100D02*
X26845Y23955D01*
X25700Y25100D02*
Y26525D01*
X25375Y26850D02*
X25700Y26525D01*
X28000Y33525D02*
X29107Y34632D01*
X28000Y32050D02*
Y33525D01*
X26100Y17925D02*
X26125D01*
X26525Y18325D01*
X26279Y23389D02*
X26525Y23143D01*
X23950Y19600D02*
X24950Y18600D01*
X23575Y19600D02*
X23950D01*
X4430Y32309D02*
Y33520D01*
X3700Y34250D02*
Y35000D01*
X7450Y20825D02*
X8100D01*
X4803Y34650D02*
X5000D01*
X5025Y39575D02*
X6250D01*
X6425Y39750D01*
X7350Y34600D02*
X7450Y34500D01*
X8100Y20825D02*
X8125Y20800D01*
X31936Y29046D02*
X33632Y27350D01*
X8575Y38600D02*
Y39750D01*
X35925Y24700D02*
Y26675D01*
X7450Y17875D02*
Y34500D01*
X5025Y41550D02*
X6625D01*
X30804Y27915D02*
X32925Y25794D01*
Y25350D02*
X34225Y24050D01*
X5025Y36250D02*
Y36550D01*
X5025Y36550D02*
Y37525D01*
X8550Y36300D02*
X8625Y36225D01*
Y23225D02*
Y36225D01*
X34100Y25750D02*
X34300D01*
X31370Y28480D02*
X34100Y25750D01*
X12425Y10750D02*
X14200Y12525D01*
X14775D01*
X22390Y24521D02*
X23744Y25875D01*
X24925Y22400D02*
Y25600D01*
X36275Y13100D02*
X36350Y13025D01*
X37025Y27575D02*
X37050Y27550D01*
X25268Y14068D02*
X26772Y15572D01*
X27325Y16125D01*
Y16125D02*
Y16200D01*
X25268Y12637D02*
Y14132D01*
X26525Y18325D02*
Y23143D01*
X27976Y25086D02*
X29425Y23637D01*
X27410Y24521D02*
X28650Y23281D01*
X27325Y16200D02*
X28150Y17025D01*
Y19950D01*
X25875Y15825D02*
X27375Y17325D01*
Y20475D01*
X28650Y21750D01*
Y23281D01*
X28150Y19950D02*
X29425Y21225D01*
Y23637D01*
X28850Y19525D02*
X30200Y20875D01*
X27500Y7100D02*
Y15200D01*
X28300Y16000D02*
X28500Y15800D01*
X28525D01*
X28850Y18750D02*
X28975Y18875D01*
X29950D01*
X28542Y25652D02*
X30200Y23994D01*
X27500Y15200D02*
X28850Y16550D01*
Y19525D01*
X30200Y20875D02*
Y23994D01*
X31350Y14475D02*
X31675Y14150D01*
X31350Y14475D02*
Y18875D01*
X38125Y13750D02*
Y21500D01*
X39700Y23075D01*
X37150Y13800D02*
Y21900D01*
X38900Y23650D01*
X36275Y13100D02*
Y23000D01*
X31944Y24781D02*
X35475Y21250D01*
X35125Y13925D02*
X35475Y14275D01*
X35100Y13925D02*
X35125D01*
X29673Y26783D02*
X31675Y24781D01*
X31944D01*
X46850Y11625D02*
Y12725D01*
X35475Y14275D02*
Y21250D01*
X34700Y15125D02*
Y19650D01*
X33975Y13425D02*
X35125Y12275D01*
X34375Y19975D02*
X34700Y19650D01*
X29673Y34067D02*
X31431Y35825D01*
X35125Y11275D02*
Y12275D01*
X42350Y26025D02*
Y31725D01*
X33975Y13425D02*
Y14400D01*
X34700Y15125D01*
X33925Y15475D02*
Y18850D01*
X33250Y14800D02*
X33925Y15475D01*
X33250Y11500D02*
Y14800D01*
X32925Y11175D02*
X33250Y11500D01*
X30239Y33501D02*
X31763Y35025D01*
X40975Y27675D02*
X41050Y27600D01*
X33275Y19500D02*
X33925Y18850D01*
X33275Y19500D02*
Y20900D01*
X32150Y20375D02*
Y23175D01*
Y20375D02*
X32500Y20025D01*
Y19075D02*
Y20025D01*
Y19075D02*
X33100Y18475D01*
Y15750D02*
Y18475D01*
X32475Y15125D02*
X33100Y15750D01*
X32475Y13350D02*
Y15125D01*
X31871Y12746D02*
X32475Y13350D01*
X29743Y12662D02*
X29827Y12746D01*
Y12746D02*
X29950Y12869D01*
X29827Y12746D02*
X31871D01*
X29107Y26218D02*
X32150Y23175D01*
X29218Y8607D02*
X30040Y7785D01*
X29218Y8607D02*
Y9887D01*
X30040Y7100D02*
Y7785D01*
X29218Y12687D02*
Y13643D01*
X29950Y14375D01*
Y17100D01*
X43125Y22800D02*
X44600D01*
X44770Y21425D02*
Y22970D01*
X45350Y23550D02*
Y24700D01*
X44600Y22800D02*
X45350Y23550D01*
X46750Y24700D02*
X47310Y24140D01*
Y21425D02*
Y24140D01*
X48375Y29250D02*
X48400Y29275D01*
X48375Y27450D02*
Y29250D01*
X48400Y29275D02*
Y30825D01*
X46975Y27450D02*
X47000Y27475D01*
X46950Y27475D02*
X46975Y27450D01*
X47000Y27475D02*
Y29275D01*
X38125Y13750D02*
X38304Y13571D01*
Y13496D02*
X40175Y11625D01*
X38304Y13496D02*
Y13571D01*
X41675Y14900D02*
Y16775D01*
X42348Y17448D02*
Y19173D01*
X41675Y16775D02*
X42348Y17448D01*
X42675Y12650D02*
X43450Y13425D01*
X44625D01*
X42675Y11425D02*
Y12650D01*
X28875Y28713D02*
X30239Y27349D01*
X44625Y13425D02*
X44925Y13725D01*
X45875Y27475D02*
X46950D01*
X22420Y7100D02*
Y11220D01*
X22425Y11225D01*
X42740Y7100D02*
Y9960D01*
X42675Y10025D02*
X42740Y9960D01*
X45280Y7100D02*
Y9595D01*
X44800Y10075D02*
X45280Y9595D01*
X47700Y7220D02*
X47820Y7100D01*
X47700Y7220D02*
Y10125D01*
X46750D02*
X48625D01*
X39575Y14450D02*
X40625Y13400D01*
X40675D01*
D30*
X27050Y58675D02*
X28035Y59660D01*
X34988Y59588D02*
X35832Y60432D01*
X31753Y59660D02*
X31825Y59588D01*
X29875Y60930D02*
X29925Y60980D01*
Y62225D01*
X30485Y53100D02*
Y55015D01*
X30475Y55025D02*
X30485Y55015D01*
X29795Y57120D02*
X29875D01*
X23275Y55600D02*
X24175Y56500D01*
Y57120D01*
X43487Y62388D02*
X45443Y60432D01*
X47343D01*
X33432Y62388D02*
X43487D01*
X32925Y56450D02*
X33675D01*
X34295Y55830D01*
X29875Y58390D02*
X30985D01*
X34295Y53100D02*
Y55830D01*
X30985Y58390D02*
X32925Y56450D01*
X26675Y53100D02*
Y54975D01*
X24975Y54275D02*
Y55375D01*
X25405Y53100D02*
Y53845D01*
X24975Y54275D02*
X25405Y53845D01*
X24975Y55375D02*
X27050Y57450D01*
X35832Y60432D02*
X37343D01*
X27050Y57450D02*
Y58675D01*
X31825Y59588D02*
X34988D01*
X28035Y59660D02*
X31753D01*
X29050Y56375D02*
X29795Y57120D01*
X28725Y56100D02*
X29025Y56400D01*
X27945Y53100D02*
Y54370D01*
X28725Y55150D01*
Y56100D01*
X9175Y50650D02*
X11862Y47963D01*
X9175Y50650D02*
Y51350D01*
X11862Y47963D02*
X12157D01*
X6943Y52087D02*
X8438D01*
X9175Y51350D01*
X6957Y62338D02*
X7544Y62925D01*
X2800Y62200D02*
X2938Y62338D01*
X6957D01*
X7544Y62925D02*
X9675D01*
X3800Y57200D02*
X6138Y59538D01*
X2800Y57200D02*
X3800D01*
X6138Y59538D02*
X6957D01*
X9675Y62925D02*
X10200D01*
X11250Y63975D01*
X13500D01*
X14225Y63250D01*
D31*
X46562Y44668D02*
Y47732D01*
X46486Y44592D02*
X46562Y44668D01*
X46486Y43564D02*
X47852Y42198D01*
X46486Y43564D02*
Y44592D01*
X46562Y47732D02*
Y52027D01*
X47852Y40591D02*
Y42198D01*
X46562Y52027D02*
X47343Y52807D01*
X43762Y44816D02*
X43986Y44592D01*
X43762Y54062D02*
X45057Y55357D01*
X47343D01*
X43762Y44816D02*
Y54062D01*
X1605Y20944D02*
X1638Y20977D01*
Y44543D01*
X12157Y43118D02*
X12175Y43100D01*
X12157Y43118D02*
Y45163D01*
D32*
X42740Y7100D02*
D03*
X32580D02*
D03*
X45280D02*
D03*
X22910Y39937D02*
D03*
X42772Y40591D02*
D03*
X45312D02*
D03*
X47852D02*
D03*
X35120Y7100D02*
D03*
X4640D02*
D03*
X7180D02*
D03*
X9720D02*
D03*
X12260D02*
D03*
X14800D02*
D03*
X17340D02*
D03*
X19880D02*
D03*
X22420D02*
D03*
X24960D02*
D03*
X27500D02*
D03*
X30040D02*
D03*
X37660D02*
D03*
X40200D02*
D03*
X47820D02*
D03*
D33*
X26300Y63250D02*
D03*
X2200Y12375D02*
D03*
D34*
X20370Y39937D02*
D03*
X37692Y40591D02*
D03*
X2100Y7100D02*
D03*
D35*
X10608Y36888D02*
D03*
Y39763D02*
D03*
D36*
X13108Y36888D02*
D03*
Y39763D02*
D03*
D37*
X2800Y62200D02*
D03*
Y57200D02*
D03*
Y52200D02*
D03*
D38*
X46486Y44592D02*
D03*
D39*
X43986D02*
D03*
D40*
X23275Y55600D02*
D03*
X26725Y40325D02*
D03*
X22425Y21900D02*
D03*
X14225Y63250D02*
D03*
X14200Y34825D02*
D03*
X16875Y43475D02*
D03*
X12175Y43100D02*
D03*
X1638Y24825D02*
D03*
Y36525D02*
D03*
X40575Y13600D02*
D03*
X44925Y13725D02*
D03*
X41884Y16984D02*
D03*
X45875Y27475D02*
D03*
X28875Y28713D02*
D03*
X48400Y30825D02*
D03*
X34375Y19975D02*
D03*
X35100Y13925D02*
D03*
X31325Y13975D02*
D03*
X24825Y18625D02*
D03*
X28525Y15800D02*
D03*
X28000Y32050D02*
D03*
X25375Y26850D02*
D03*
X17879Y25121D02*
D03*
X21440Y28698D02*
D03*
X18800Y15550D02*
D03*
X20650Y14000D02*
D03*
X25375Y15825D02*
D03*
X19925Y9800D02*
D03*
X15350Y15550D02*
D03*
X22125Y14450D02*
D03*
X46850Y12725D02*
D03*
X47310Y18200D02*
D03*
X46040Y19550D02*
D03*
X39825Y17200D02*
D03*
X41625Y24550D02*
D03*
X26225Y18025D02*
D03*
X17100Y38925D02*
D03*
X18850Y37850D02*
D03*
X24025Y43850D02*
D03*
X26600Y42075D02*
D03*
X37150Y38150D02*
D03*
X35625Y43825D02*
D03*
X15775Y30300D02*
D03*
X35325Y40950D02*
D03*
X30100Y41200D02*
D03*
X8705Y51820D02*
D03*
X26675Y54975D02*
D03*
X32758Y56617D02*
D03*
X36450Y62388D02*
D03*
X29925Y62225D02*
D03*
X30475Y55025D02*
D03*
X24925Y22400D02*
D03*
X33325Y21175D02*
D03*
X41050Y27600D02*
D03*
X42350Y26025D02*
D03*
X37025Y27575D02*
D03*
X36350Y13025D02*
D03*
X12425Y10750D02*
D03*
X35925Y24700D02*
D03*
X8125Y20800D02*
D03*
X7450Y34500D02*
D03*
X5000Y34650D02*
D03*
X6425Y39750D02*
D03*
X8575D02*
D03*
X8550Y36300D02*
D03*
X5025Y36250D02*
D03*
X34225Y24050D02*
D03*
X6275Y22125D02*
D03*
X8625Y23225D02*
D03*
X26650Y33325D02*
D03*
X23225Y27025D02*
D03*
X4950Y23225D02*
D03*
X34300Y25750D02*
D03*
X7500Y57100D02*
D03*
X12225Y62550D02*
D03*
X6500Y44550D02*
D03*
M02*
