%FSLAX43Y43*%
%MOMM*%
G71*
G01*
G75*
G04 Layer_Physical_Order=3*
%ADD10R,1.000X0.800*%
%ADD11R,0.800X1.000*%
%ADD12R,1.800X1.600*%
%ADD13R,2.000X6.000*%
%ADD14R,1.600X1.800*%
%ADD15R,1.300X0.850*%
%ADD16R,1.200X2.850*%
%ADD17O,2.000X1.000*%
%ADD18R,2.000X1.000*%
%ADD19C,0.125*%
%ADD20R,1.700X0.600*%
%ADD21R,1.700X0.600*%
%ADD22R,0.600X2.200*%
%ADD23R,0.600X2.200*%
%ADD24R,1.450X0.550*%
%ADD25R,1.450X0.550*%
%ADD26R,0.600X2.150*%
%ADD27R,0.600X2.150*%
%ADD28C,0.500*%
%ADD29C,0.400*%
%ADD30C,0.600*%
%ADD31C,1.000*%
%ADD32C,1.500*%
%ADD33C,2.000*%
%ADD34R,1.500X1.500*%
%ADD35R,1.300X1.300*%
%ADD36C,1.300*%
%ADD37C,4.000*%
%ADD38C,1.400*%
%ADD39R,1.400X1.400*%
%ADD40C,1.200*%
%ADD41C,0.300*%
D28*
X2200Y10875D02*
Y12375D01*
X3700D01*
X2200D02*
Y13875D01*
X10608Y35738D02*
Y36888D01*
Y38038D01*
Y38613D02*
Y39763D01*
Y40913D01*
X47852Y39341D02*
Y40591D01*
Y41841D01*
X46486Y43392D02*
Y44592D01*
X47686D01*
D31*
X2100Y7100D02*
Y8850D01*
X47820Y7100D02*
Y8850D01*
D32*
X47852Y40591D02*
D03*
X47820Y7100D02*
D03*
D33*
X2200Y12375D02*
D03*
D34*
X2100Y7100D02*
D03*
D35*
X10608Y36888D02*
D03*
Y39763D02*
D03*
D38*
X46486Y44592D02*
D03*
D40*
X23275Y55600D02*
D03*
X14225Y63250D02*
D03*
X14200Y34825D02*
D03*
X16875Y43475D02*
D03*
X12175Y43100D02*
D03*
X1638Y24825D02*
D03*
Y36525D02*
D03*
X40575Y13600D02*
D03*
X48400Y30825D02*
D03*
X31325Y13975D02*
D03*
X28000Y32050D02*
D03*
X25375Y26850D02*
D03*
X17879Y25121D02*
D03*
X21440Y28698D02*
D03*
X18800Y15550D02*
D03*
X19925Y9800D02*
D03*
X15350Y15550D02*
D03*
X22125Y14450D02*
D03*
X47310Y18200D02*
D03*
X46040Y19550D02*
D03*
X26600Y42075D02*
D03*
X37150Y38150D02*
D03*
X35625Y43825D02*
D03*
X8705Y51820D02*
D03*
X26675Y54975D02*
D03*
X32758Y56617D02*
D03*
X36450Y62388D02*
D03*
D41*
X8750Y57100D02*
G03*
X8750Y57100I-1250J0D01*
G01*
X13475Y62550D02*
G03*
X13475Y62550I-1250J0D01*
G01*
X24951Y64200D02*
G03*
X27950Y63250I1349J-950D01*
G01*
X31725Y55025D02*
G03*
X31725Y55025I-1250J0D01*
G01*
X31175Y62225D02*
G03*
X31175Y62225I-1250J0D01*
G01*
X27950Y63250D02*
G03*
X27649Y64200I-1650J0D01*
G01*
X5910Y8513D02*
G03*
X4000Y8889I-1270J-1413D01*
G01*
X800Y11502D02*
G03*
X3850Y12375I1400J873D01*
G01*
G03*
X800Y13248I-1650J0D01*
G01*
X8450Y8513D02*
G03*
X5910Y8513I-1270J-1413D01*
G01*
X10990Y8513D02*
G03*
X8450Y8513I-1270J-1413D01*
G01*
X13530D02*
G03*
X10990Y8513I-1270J-1413D01*
G01*
X5034Y21978D02*
G03*
X6899Y21042I1241J147D01*
G01*
G03*
X9375Y20800I1226J-242D01*
G01*
G03*
X8544Y21978I-1250J0D01*
G01*
X13675Y10750D02*
G03*
X13675Y10750I-1250J0D01*
G01*
X6191Y23372D02*
G03*
X5034Y21978I-1241J-147D01*
G01*
X7525Y22125D02*
G03*
X6191Y23372I-1250J0D01*
G01*
X7501Y21883D02*
G03*
X7525Y22125I-1226J242D01*
G01*
X8206Y22047D02*
G03*
X7501Y21883I-81J-1247D01*
G01*
X9875Y23225D02*
G03*
X8206Y22047I-1250J0D01*
G01*
X8544Y21978D02*
G03*
X9875Y23225I81J1247D01*
G01*
X16070Y8513D02*
G03*
X13530Y8513I-1270J-1413D01*
G01*
X18610D02*
G03*
X16070Y8513I-1270J-1413D01*
G01*
X21150D02*
G03*
X18610Y8513I-1270J-1413D01*
G01*
X23690D02*
G03*
X21150Y8513I-1270J-1413D01*
G01*
X26230D02*
G03*
X23690Y8513I-1270J-1413D01*
G01*
X21900Y14000D02*
G03*
X21900Y14000I-1250J0D01*
G01*
X25915Y19236D02*
G03*
X25135Y17414I-1090J-611D01*
G01*
X23675Y21900D02*
G03*
X23675Y21900I-1250J0D01*
G01*
X26175Y22400D02*
G03*
X26175Y22400I-1250J0D01*
G01*
X24475Y27025D02*
G03*
X24475Y27025I-1250J0D01*
G01*
X6211Y34338D02*
G03*
X8700Y34500I1239J162D01*
G01*
X4052Y35465D02*
G03*
X6211Y34338I948J-815D01*
G01*
X6239Y34812D02*
G03*
X5973Y35435I-1239J-162D01*
G01*
X6275Y36250D02*
G03*
X4052Y35465I-1250J0D01*
G01*
X5973Y35435D02*
G03*
X6275Y36250I-948J815D01*
G01*
X7428Y35750D02*
G03*
X6239Y34812I22J-1250D01*
G01*
X8700Y34500D02*
G03*
X8572Y35050I-1250J0D01*
G01*
G03*
X9578Y35588I-22J1250D01*
G01*
X11908Y36388D02*
G03*
X14408Y36888I1200J500D01*
G01*
X9308Y37294D02*
G03*
X7428Y35750I-758J-994D01*
G01*
X14408Y36888D02*
G03*
X11908Y37388I-1300J0D01*
G01*
X7500Y40388D02*
G03*
X7500Y39112I-1075J-638D01*
G01*
X6251Y45775D02*
G03*
X7750Y44550I249J-1225D01*
G01*
G03*
X6749Y45775I-1250J0D01*
G01*
X7500Y39112D02*
G03*
X9308Y38737I1075J638D01*
G01*
Y40763D02*
G03*
X7500Y40388I-733J-1013D01*
G01*
X17025Y30300D02*
G03*
X17025Y30300I-1250J0D01*
G01*
X17602Y37780D02*
G03*
X20100Y37850I1248J70D01*
G01*
G03*
X19894Y38537I-1250J0D01*
G01*
X11908Y39263D02*
G03*
X14408Y39763I1200J500D01*
G01*
G03*
X11908Y40263I-1300J0D01*
G01*
X18348Y38995D02*
G03*
X17602Y37780I-1248J-70D01*
G01*
X18970Y39094D02*
G03*
X18348Y38995I-120J-1244D01*
G01*
X21770Y39124D02*
G03*
X24310Y39937I1140J813D01*
G01*
G03*
X21770Y40750I-1400J0D01*
G01*
X25275Y43850D02*
G03*
X25275Y43850I-1250J0D01*
G01*
X28770Y8513D02*
G03*
X26230Y8513I-1270J-1413D01*
G01*
X25413Y17074D02*
G03*
X26625Y15825I-38J-1249D01*
G01*
X29775Y15800D02*
G03*
X29775Y15800I-1250J0D01*
G01*
X26625Y15825D02*
G03*
X26187Y16776I-1250J0D01*
G01*
X25135Y17414D02*
G03*
X25413Y17074I1090J611D01*
G01*
X26187Y16776D02*
G03*
X27475Y18025I38J1249D01*
G01*
X31310Y8513D02*
G03*
X28770Y8513I-1270J-1413D01*
G01*
X33850Y8513D02*
G03*
X31310Y8513I-1270J-1413D01*
G01*
X36390D02*
G03*
X33850Y8513I-1270J-1413D01*
G01*
X36300Y14274D02*
G03*
X35150Y12676I-1200J-349D01*
G01*
G03*
X37600Y13025I1200J349D01*
G01*
G03*
X36300Y14274I-1250J0D01*
G01*
X27475Y18025D02*
G03*
X25915Y19236I-1250J0D01*
G01*
X34575Y21209D02*
G03*
X33125Y19941I-1250J-34D01*
G01*
G03*
X35625Y19975I1250J34D01*
G01*
G03*
X34575Y21209I-1250J0D01*
G01*
X33348Y24940D02*
G03*
X35381Y23575I877J-890D01*
G01*
G03*
X37175Y24700I544J1125D01*
G01*
X38930Y8513D02*
G03*
X36390Y8513I-1270J-1413D01*
G01*
X41470D02*
G03*
X38930Y8513I-1270J-1413D01*
G01*
X44010D02*
G03*
X41470Y8513I-1270J-1413D01*
G01*
X46550D02*
G03*
X44010Y8513I-1270J-1413D01*
G01*
X49200Y8406D02*
G03*
X46550Y8513I-1380J-1306D01*
G01*
X45601Y12674D02*
G03*
X48100Y12725I1249J51D01*
G01*
X46174Y13776D02*
G03*
X45601Y12674I-1249J-51D01*
G01*
X48100Y12725D02*
G03*
X46174Y13776I-1250J0D01*
G01*
X40928Y17789D02*
G03*
X40781Y16395I-1103J-589D01*
G01*
G03*
X43134Y16984I1103J589D01*
G01*
G03*
X40928Y17789I-1250J0D01*
G01*
X41142Y25703D02*
G03*
X42875Y24550I483J-1153D01*
G01*
X30125Y28713D02*
G03*
X30125Y28713I-1250J0D01*
G01*
X35542Y25890D02*
G03*
X33348Y24940I-1242J-140D01*
G01*
X27900Y33325D02*
G03*
X27900Y33325I-1250J0D01*
G01*
X37175Y24700D02*
G03*
X35542Y25890I-1250J0D01*
G01*
X38275Y27575D02*
G03*
X38275Y27575I-1250J0D01*
G01*
X27975Y40325D02*
G03*
X27975Y40325I-1250J0D01*
G01*
X31350Y41200D02*
G03*
X31350Y41200I-1250J0D01*
G01*
X36292Y41742D02*
G03*
X36292Y40158I-967J-792D01*
G01*
X41144Y26354D02*
G03*
X41142Y25703I1206J-329D01*
G01*
X42256Y27271D02*
G03*
X42300Y27600I-1206J329D01*
G01*
G03*
X41144Y26354I-1250J0D01*
G01*
X43600Y26025D02*
G03*
X42256Y27271I-1250J0D01*
G01*
X42875Y24550D02*
G03*
X42833Y24872I-1250J0D01*
G01*
G03*
X43600Y26025I-483J1153D01*
G01*
X47125Y27475D02*
G03*
X47125Y27475I-1250J0D01*
G01*
X44042Y41180D02*
G03*
X44042Y40001I-1270J-589D01*
G01*
G03*
X46582Y40001I1270J589D01*
G01*
Y41180D02*
G03*
X44042Y41180I-1270J-589D01*
G01*
X46582Y40001D02*
G03*
X49200Y40212I1270J589D01*
G01*
Y40969D02*
G03*
X46582Y41180I-1348J-379D01*
G01*
X45336Y43885D02*
G03*
X47836Y44592I1150J707D01*
G01*
G03*
X47136Y45775I-1350J0D01*
G01*
X6600Y49725D02*
Y56233D01*
X6700Y49725D02*
Y56140D01*
X6300Y49725D02*
Y56750D01*
X6400Y49725D02*
Y56506D01*
X6500Y49725D02*
Y56350D01*
X7000Y49725D02*
Y55954D01*
X7200Y49725D02*
Y55887D01*
X7300Y49725D02*
Y55866D01*
X6800Y49725D02*
Y56064D01*
X6900Y49725D02*
Y56003D01*
X7100Y49725D02*
Y55916D01*
X5875Y55900D02*
X7151D01*
X7400Y49725D02*
Y55854D01*
X5875Y56000D02*
X6907D01*
X5875Y56100D02*
X6750D01*
X5875Y56200D02*
X6633D01*
X7500Y49725D02*
Y55850D01*
X7600Y49725D02*
Y55854D01*
X7700Y49725D02*
Y55866D01*
X7800Y49725D02*
Y55887D01*
X7900Y49725D02*
Y55916D01*
X8000Y49725D02*
Y55954D01*
X8100Y49725D02*
Y56003D01*
X8200Y49725D02*
Y56064D01*
X8300Y49725D02*
Y56139D01*
X8400Y49725D02*
Y56232D01*
X8500Y49725D02*
Y56350D01*
X8600Y49725D02*
Y56506D01*
X8700Y49725D02*
Y56750D01*
X11500Y49725D02*
Y61532D01*
X11600Y49725D02*
Y61468D01*
X11700Y49725D02*
Y61416D01*
X12000Y49725D02*
Y61320D01*
X12100Y49725D02*
Y61306D01*
X11800Y49725D02*
Y61375D01*
X11900Y49725D02*
Y61343D01*
X12200Y49725D02*
Y61300D01*
X12300Y49725D02*
Y61302D01*
X12400Y49725D02*
Y61312D01*
X12500Y49725D02*
Y61331D01*
X12600Y49725D02*
Y61358D01*
X12700Y49725D02*
Y61394D01*
X12800Y49725D02*
Y61440D01*
X5875Y49725D02*
Y64200D01*
X5900Y49725D02*
Y64200D01*
X6000Y49725D02*
Y64200D01*
X6100Y49725D02*
Y64200D01*
X6200Y49725D02*
Y64200D01*
X8800Y49725D02*
Y64200D01*
X8900Y49725D02*
Y64200D01*
X9000Y49725D02*
Y64200D01*
X9100Y49725D02*
Y64200D01*
X9200Y49725D02*
Y64200D01*
X9300Y49725D02*
Y64200D01*
X9400Y49725D02*
Y64200D01*
X9500Y49725D02*
Y64200D01*
X9600Y49725D02*
Y64200D01*
X9700Y49725D02*
Y64200D01*
X9800Y49725D02*
Y64200D01*
X9900Y49725D02*
Y64200D01*
X10000Y49725D02*
Y64200D01*
X10100Y49725D02*
Y64200D01*
X10200Y49725D02*
Y64200D01*
X10300Y49725D02*
Y64200D01*
X10400Y49725D02*
Y64200D01*
X10500Y49725D02*
Y64200D01*
X10600Y49725D02*
Y64200D01*
X10700Y49725D02*
Y64200D01*
X10800Y49725D02*
Y64200D01*
X10900Y49725D02*
Y64200D01*
X11300Y49725D02*
Y61709D01*
X11400Y49725D02*
Y61611D01*
X12900Y49725D02*
Y61498D01*
X11000Y49725D02*
Y62302D01*
X11100Y49725D02*
Y62005D01*
X11200Y49725D02*
Y61835D01*
X13000Y49725D02*
Y61569D01*
X13100Y49725D02*
Y61657D01*
X13200Y49725D02*
Y61768D01*
X13300Y49725D02*
Y61912D01*
X13400Y49725D02*
Y62123D01*
X13500Y49725D02*
Y64200D01*
X13600Y49725D02*
Y64200D01*
X13700Y49725D02*
Y64200D01*
X13800Y49725D02*
Y64200D01*
X13900Y49725D02*
Y64200D01*
X14000Y49725D02*
Y64200D01*
X14100Y49725D02*
Y64200D01*
X5875Y49725D02*
X38550D01*
X5875Y49800D02*
X38550D01*
X5875Y49900D02*
X38550D01*
X5875Y50000D02*
X38550D01*
X5875Y50100D02*
X38550D01*
X5875Y50200D02*
X38550D01*
X5875Y50300D02*
X38550D01*
X5875Y50400D02*
X38550D01*
X5875Y50500D02*
X38550D01*
X5875Y50600D02*
X38550D01*
X5875Y50700D02*
X38550D01*
X5875Y50800D02*
X38550D01*
X5875Y50900D02*
X38550D01*
X5875Y51000D02*
X38550D01*
X5875Y51100D02*
X38550D01*
X5875Y51200D02*
X38550D01*
X5875Y51300D02*
X38550D01*
X5875Y51400D02*
X38550D01*
X5875Y51500D02*
X38550D01*
X5875Y51600D02*
X38550D01*
X5875Y51700D02*
X38550D01*
X5875Y51800D02*
X38550D01*
X5875Y51900D02*
X38550D01*
X5875Y52000D02*
X38550D01*
X5875Y52100D02*
X38550D01*
X5875Y52200D02*
X38550D01*
X5875Y52300D02*
X38550D01*
X5875Y52400D02*
X38550D01*
X5875Y52500D02*
X38550D01*
X5875Y52600D02*
X38550D01*
X5875Y52700D02*
X38550D01*
X5875Y52800D02*
X38550D01*
X5875Y52900D02*
X38550D01*
X5875Y53000D02*
X38550D01*
X5875Y53100D02*
X38550D01*
X5875Y53800D02*
X30227D01*
X5875Y53900D02*
X29930D01*
X5875Y54000D02*
X29760D01*
X5875Y53200D02*
X38550D01*
X5875Y53300D02*
X38550D01*
X5875Y53400D02*
X38550D01*
X5875Y53500D02*
X38550D01*
X5875Y53600D02*
X38550D01*
X5875Y53700D02*
X38550D01*
X5875Y54700D02*
X29268D01*
X5875Y54800D02*
X29245D01*
X5875Y54900D02*
X29231D01*
X5875Y55000D02*
X29225D01*
X5875Y55100D02*
X29227D01*
X5875Y54100D02*
X29634D01*
X5875Y54200D02*
X29536D01*
X5875Y54300D02*
X29457D01*
X5875Y54400D02*
X29393D01*
X5875Y54500D02*
X29341D01*
X5875Y54600D02*
X29300D01*
X5875Y55200D02*
X29237D01*
X5875Y55300D02*
X29256D01*
X5875Y55400D02*
X29283D01*
X5875Y55500D02*
X29319D01*
X5875Y55600D02*
X29365D01*
X5875Y55700D02*
X29423D01*
X5875Y55800D02*
X29494D01*
X7849Y55900D02*
X29582D01*
X8093Y56000D02*
X29693D01*
X8250Y56100D02*
X29837D01*
X8367Y56200D02*
X30048D01*
X14200Y49725D02*
Y64200D01*
X14300Y49725D02*
Y64200D01*
X14400Y49725D02*
Y64200D01*
X14500Y49725D02*
Y64200D01*
X14600Y49725D02*
Y64200D01*
X14700Y49725D02*
Y64200D01*
X14800Y49725D02*
Y64200D01*
X14900Y49725D02*
Y64200D01*
X15000Y49725D02*
Y64200D01*
X15100Y49725D02*
Y64200D01*
X15200Y49725D02*
Y64200D01*
X15300Y49725D02*
Y64200D01*
X15400Y49725D02*
Y64200D01*
X15500Y49725D02*
Y64200D01*
X15600Y49725D02*
Y64200D01*
X15700Y49725D02*
Y64200D01*
X15800Y49725D02*
Y64200D01*
X15900Y49725D02*
Y64200D01*
X16000Y49725D02*
Y64200D01*
X16100Y49725D02*
Y64200D01*
X16200Y49725D02*
Y64200D01*
X16300Y49725D02*
Y64200D01*
X16400Y49725D02*
Y64200D01*
X5875Y56800D02*
X6287D01*
X5875Y56900D02*
X6266D01*
X5875Y57000D02*
X6254D01*
X5875Y57100D02*
X6250D01*
X5875Y57200D02*
X6254D01*
X5875Y56300D02*
X6540D01*
X5875Y56400D02*
X6464D01*
X5875Y56500D02*
X6404D01*
X5875Y56600D02*
X6354D01*
X5875Y56700D02*
X6316D01*
X5875Y57300D02*
X6266D01*
X5875Y57400D02*
X6286D01*
X5875Y57500D02*
X6316D01*
X5875Y57600D02*
X6354D01*
X5875Y57700D02*
X6403D01*
X5875Y57800D02*
X6464D01*
X5875Y57900D02*
X6539D01*
X5875Y58000D02*
X6632D01*
X5875Y58100D02*
X6750D01*
X5875Y58200D02*
X6906D01*
X5875Y58300D02*
X7149D01*
X5875Y61400D02*
X11736D01*
X5875Y62000D02*
X11103D01*
X5875Y62200D02*
X11025D01*
X5875Y62300D02*
X11000D01*
X5875Y62400D02*
X10984D01*
X5875Y62500D02*
X10976D01*
X5875Y61500D02*
X11547D01*
X5875Y61600D02*
X11413D01*
X5875Y61700D02*
X11309D01*
X5875Y61800D02*
X11225D01*
X5875Y61900D02*
X11157D01*
X5875Y62100D02*
X11059D01*
X5875Y62600D02*
X10976D01*
X5875Y62700D02*
X10984D01*
X5875Y62800D02*
X11000D01*
X5875Y62900D02*
X11025D01*
X5875Y63000D02*
X11059D01*
X5875Y63100D02*
X11102D01*
X5875Y63200D02*
X11157D01*
X5875Y63300D02*
X11225D01*
X5875Y63400D02*
X11308D01*
X5875Y63500D02*
X11412D01*
X5875Y63600D02*
X11546D01*
X6300Y57450D02*
Y64200D01*
X6400Y57694D02*
Y64200D01*
X6500Y57850D02*
Y64200D01*
X6600Y57967D02*
Y64200D01*
X6700Y58060D02*
Y64200D01*
X6800Y58136D02*
Y64200D01*
X6900Y58197D02*
Y64200D01*
X7000Y58246D02*
Y64200D01*
X7100Y58284D02*
Y64200D01*
X8100Y58197D02*
Y64200D01*
X8200Y58136D02*
Y64200D01*
X7200Y58313D02*
Y64200D01*
X7300Y58334D02*
Y64200D01*
X7400Y58346D02*
Y64200D01*
X7500Y58350D02*
Y64200D01*
X7600Y58346D02*
Y64200D01*
X5875Y63700D02*
X11735D01*
X7700Y58334D02*
Y64200D01*
X5875Y63800D02*
X12203D01*
X7800Y58313D02*
Y64200D01*
X7900Y58284D02*
Y64200D01*
X8000Y58246D02*
Y64200D01*
X8300Y58061D02*
Y64200D01*
X8400Y57968D02*
Y64200D01*
X8500Y57850D02*
Y64200D01*
X8700Y57450D02*
Y64200D01*
X8600Y57694D02*
Y64200D01*
X11000Y62798D02*
Y64200D01*
X11100Y63095D02*
Y64200D01*
X11200Y63265D02*
Y64200D01*
X11300Y63391D02*
Y64200D01*
X11400Y63489D02*
Y64200D01*
X11500Y63568D02*
Y64200D01*
X11600Y63632D02*
Y64200D01*
X11700Y63684D02*
Y64200D01*
X11800Y63725D02*
Y64200D01*
X11900Y63757D02*
Y64200D01*
X12000Y63780D02*
Y64200D01*
X12100Y63794D02*
Y64200D01*
X12200Y63800D02*
Y64200D01*
X12300Y63798D02*
Y64200D01*
X12400Y63788D02*
Y64200D01*
X12500Y63769D02*
Y64200D01*
X12600Y63742D02*
Y64200D01*
X12700Y63706D02*
Y64200D01*
X5875Y58400D02*
X38550D01*
X5875Y58500D02*
X38550D01*
X5875Y58600D02*
X38550D01*
X5875Y58700D02*
X38550D01*
X5875Y58800D02*
X38550D01*
X5875Y58900D02*
X38550D01*
X5875Y59000D02*
X38550D01*
X5875Y59100D02*
X38550D01*
X5875Y59200D02*
X38550D01*
X5875Y59300D02*
X38550D01*
X5875Y59400D02*
X38550D01*
X5875Y59500D02*
X38550D01*
X5875Y59600D02*
X38550D01*
X5875Y59700D02*
X38550D01*
X5875Y59800D02*
X38550D01*
X5875Y59900D02*
X38550D01*
X5875Y60000D02*
X38550D01*
X5875Y60100D02*
X38550D01*
X5875Y60200D02*
X38550D01*
X5875Y60300D02*
X38550D01*
X5875Y60400D02*
X38550D01*
X5875Y60500D02*
X38550D01*
X8460Y56300D02*
X38550D01*
X8535Y56400D02*
X38550D01*
X8596Y56500D02*
X38550D01*
X8646Y56600D02*
X38550D01*
X8684Y56700D02*
X38550D01*
X8713Y56800D02*
X38550D01*
X8734Y56900D02*
X38550D01*
X8746Y57000D02*
X38550D01*
X8750Y57100D02*
X38550D01*
X8746Y57200D02*
X38550D01*
X8734Y57300D02*
X38550D01*
X8714Y57400D02*
X38550D01*
X8684Y57500D02*
X38550D01*
X8536Y57800D02*
X38550D01*
X8646Y57600D02*
X38550D01*
X8597Y57700D02*
X38550D01*
X8250Y58100D02*
X38550D01*
X8461Y57900D02*
X38550D01*
X8368Y58000D02*
X38550D01*
X5875Y60600D02*
X38550D01*
X8094Y58200D02*
X38550D01*
X7851Y58300D02*
X38550D01*
X5875Y61300D02*
X29084D01*
X12714Y61400D02*
X28986D01*
X12903Y61500D02*
X28907D01*
X13037Y61600D02*
X28843D01*
X5875Y60700D02*
X38550D01*
X5875Y60800D02*
X38550D01*
X5875Y60900D02*
X38550D01*
X5875Y61000D02*
X29677D01*
X5875Y61100D02*
X29381D01*
X5875Y61200D02*
X29210D01*
X12715Y63700D02*
X24712D01*
X12904Y63600D02*
X24688D01*
X12800Y63660D02*
Y64200D01*
X13000Y63531D02*
Y64200D01*
X12900Y63602D02*
Y64200D01*
X5875Y63900D02*
X24783D01*
X12247Y63800D02*
X24744D01*
X5875Y64000D02*
X24830D01*
X5875Y64100D02*
X24886D01*
X5875Y64200D02*
X24951D01*
X5875Y64200D02*
X24951D01*
X13450Y62300D02*
X24951D01*
X13466Y62400D02*
X24886D01*
X13474Y62500D02*
X24830D01*
X13474Y62600D02*
X24784D01*
X13466Y62700D02*
X24744D01*
X13141Y61700D02*
X25735D01*
X13225Y61800D02*
X25513D01*
X13293Y61900D02*
X25352D01*
X13347Y62000D02*
X25223D01*
X13391Y62100D02*
X25117D01*
X13425Y62200D02*
X25027D01*
X13100Y63443D02*
Y64200D01*
X13425Y62900D02*
X24688D01*
X13391Y63000D02*
X24669D01*
X13200Y63332D02*
Y64200D01*
X13400Y62977D02*
Y64200D01*
X13300Y63188D02*
Y64200D01*
X13293Y63200D02*
X24651D01*
X13450Y62800D02*
X24713D01*
X13348Y63100D02*
X24657D01*
X13038Y63500D02*
X24669D01*
X13225Y63300D02*
X24651D01*
X13142Y63400D02*
X24657D01*
X16500Y49725D02*
Y64200D01*
X16600Y49725D02*
Y64200D01*
X16700Y49725D02*
Y64200D01*
X16800Y49725D02*
Y64200D01*
X16900Y49725D02*
Y64200D01*
X17000Y49725D02*
Y64200D01*
X17100Y49725D02*
Y64200D01*
X17200Y49725D02*
Y64200D01*
X17300Y49725D02*
Y64200D01*
X17400Y49725D02*
Y64200D01*
X17500Y49725D02*
Y64200D01*
X17600Y49725D02*
Y64200D01*
X17700Y49725D02*
Y64200D01*
X17800Y49725D02*
Y64200D01*
X17900Y49725D02*
Y64200D01*
X18000Y49725D02*
Y64200D01*
X18100Y49725D02*
Y64200D01*
X18200Y49725D02*
Y64200D01*
X18300Y49725D02*
Y64200D01*
X18400Y49725D02*
Y64200D01*
X18500Y49725D02*
Y64200D01*
X18600Y49725D02*
Y64200D01*
X18700Y49725D02*
Y64200D01*
X18800Y49725D02*
Y64200D01*
X18900Y49725D02*
Y64200D01*
X19000Y49725D02*
Y64200D01*
X19100Y49725D02*
Y64200D01*
X19200Y49725D02*
Y64200D01*
X19300Y49725D02*
Y64200D01*
X19400Y49725D02*
Y64200D01*
X19500Y49725D02*
Y64200D01*
X19600Y49725D02*
Y64200D01*
X19700Y49725D02*
Y64200D01*
X19800Y49725D02*
Y64200D01*
X24700Y49725D02*
Y62847D01*
X19900Y49725D02*
Y64200D01*
X20000Y49725D02*
Y64200D01*
X20100Y49725D02*
Y64200D01*
X25100Y49725D02*
Y62118D01*
X25200Y49725D02*
Y62020D01*
X25300Y49725D02*
Y61938D01*
X24800Y49725D02*
Y62563D01*
X24900Y49725D02*
Y62377D01*
X25000Y49725D02*
Y62234D01*
X20200Y49725D02*
Y64200D01*
X20300Y49725D02*
Y64200D01*
X20400Y49725D02*
Y64200D01*
X20500Y49725D02*
Y64200D01*
X20600Y49725D02*
Y64200D01*
X20700Y49725D02*
Y64200D01*
X20800Y49725D02*
Y64200D01*
X20900Y49725D02*
Y64200D01*
X21000Y49725D02*
Y64200D01*
X21100Y49725D02*
Y64200D01*
X21200Y49725D02*
Y64200D01*
X21300Y49725D02*
Y64200D01*
X21400Y49725D02*
Y64200D01*
X21500Y49725D02*
Y64200D01*
X21600Y49725D02*
Y64200D01*
X21700Y49725D02*
Y64200D01*
X21800Y49725D02*
Y64200D01*
X21900Y49725D02*
Y64200D01*
X22000Y49725D02*
Y64200D01*
X22100Y49725D02*
Y64200D01*
X22200Y49725D02*
Y64200D01*
X22300Y49725D02*
Y64200D01*
X22400Y49725D02*
Y64200D01*
X22500Y49725D02*
Y64200D01*
X22600Y49725D02*
Y64200D01*
X22700Y49725D02*
Y64200D01*
X22800Y49725D02*
Y64200D01*
X22900Y49725D02*
Y64200D01*
X23000Y49725D02*
Y64200D01*
X23100Y49725D02*
Y64200D01*
X23200Y49725D02*
Y64200D01*
X23300Y49725D02*
Y64200D01*
X23400Y49725D02*
Y64200D01*
X23500Y49725D02*
Y64200D01*
X23600Y49725D02*
Y64200D01*
X23700Y49725D02*
Y64200D01*
X23800Y49725D02*
Y64200D01*
X23900Y49725D02*
Y64200D01*
X24000Y49725D02*
Y64200D01*
X24100Y49725D02*
Y64200D01*
X24200Y49725D02*
Y64200D01*
X24300Y49725D02*
Y64200D01*
X24400Y49725D02*
Y64200D01*
X24500Y49725D02*
Y64200D01*
X24600Y49725D02*
Y64200D01*
X25900Y49725D02*
Y61649D01*
X26000Y49725D02*
Y61628D01*
X25500Y49725D02*
Y61807D01*
X25700Y49725D02*
Y61713D01*
X25800Y49725D02*
Y61678D01*
X26100Y49725D02*
Y61612D01*
X26200Y49725D02*
Y61603D01*
X26300Y49725D02*
Y61600D01*
X26400Y49725D02*
Y61603D01*
X26500Y49725D02*
Y61612D01*
X26600Y49725D02*
Y61627D01*
X26700Y49725D02*
Y61649D01*
X28900Y49725D02*
Y61510D01*
X26800Y49725D02*
Y61678D01*
X26900Y49725D02*
Y61713D01*
X28800Y49725D02*
Y61680D01*
X29300Y49725D02*
Y54599D01*
X29400Y49725D02*
Y54387D01*
X29500Y49725D02*
Y54243D01*
X29000Y49725D02*
Y61384D01*
X29100Y49725D02*
Y61286D01*
X29200Y49725D02*
Y61207D01*
X29800Y49725D02*
Y53973D01*
X30000Y49725D02*
Y53869D01*
X29600Y49725D02*
Y54132D01*
X29700Y49725D02*
Y54044D01*
X29900Y49725D02*
Y53915D01*
X30200Y49725D02*
Y53806D01*
X30300Y49725D02*
Y53787D01*
X30400Y49725D02*
Y53777D01*
X30100Y49725D02*
Y53833D01*
X30500Y49725D02*
Y53775D01*
X30600Y49725D02*
Y53781D01*
X30700Y49725D02*
Y53795D01*
X30800Y49725D02*
Y53818D01*
X30900Y49725D02*
Y53849D01*
X31000Y49725D02*
Y53891D01*
X31100Y49725D02*
Y53942D01*
X31200Y49725D02*
Y54007D01*
X31300Y49725D02*
Y54086D01*
X31400Y49725D02*
Y54184D01*
X31500Y49725D02*
Y54309D01*
X31600Y49725D02*
Y54480D01*
X31700Y49725D02*
Y54776D01*
X25600Y49725D02*
Y61756D01*
X27000Y49725D02*
Y61756D01*
X25400Y49725D02*
Y61867D01*
X27100Y49725D02*
Y61807D01*
X27200Y49725D02*
Y61867D01*
X27300Y49725D02*
Y61937D01*
X27400Y49725D02*
Y62020D01*
X27500Y49725D02*
Y62117D01*
X27600Y49725D02*
Y62234D01*
X27700Y49725D02*
Y62377D01*
X27800Y49725D02*
Y62562D01*
X27900Y49725D02*
Y62846D01*
X28000Y49725D02*
Y64200D01*
X28100Y49725D02*
Y64200D01*
X28200Y49725D02*
Y64200D01*
X28300Y49725D02*
Y64200D01*
X28400Y49725D02*
Y64200D01*
X28500Y49725D02*
Y64200D01*
X28700Y49725D02*
Y61977D01*
X28600Y49725D02*
Y64200D01*
X31800Y49725D02*
Y64200D01*
X31900Y49725D02*
Y64200D01*
X32000Y49725D02*
Y64200D01*
X32100Y49725D02*
Y64200D01*
X32200Y49725D02*
Y64200D01*
X32300Y49725D02*
Y64200D01*
X32400Y49725D02*
Y64200D01*
X32500Y49725D02*
Y64200D01*
X32600Y49725D02*
Y64200D01*
X32700Y49725D02*
Y64200D01*
X32800Y49725D02*
Y64200D01*
X32900Y49725D02*
Y64200D01*
X33000Y49725D02*
Y64200D01*
X33100Y49725D02*
Y64200D01*
X33200Y49725D02*
Y64200D01*
X33300Y49725D02*
Y64200D01*
X33400Y49725D02*
Y64200D01*
X33500Y49725D02*
Y64200D01*
X33600Y49725D02*
Y64200D01*
X33700Y49725D02*
Y64200D01*
X33800Y49725D02*
Y64200D01*
X33900Y49725D02*
Y64200D01*
X34000Y49725D02*
Y64200D01*
X34100Y49725D02*
Y64200D01*
X34200Y49725D02*
Y64200D01*
X27483Y62100D02*
X28681D01*
X27573Y62200D02*
X28675D01*
X27649Y62300D02*
X28677D01*
X27714Y62400D02*
X28687D01*
X26865Y61700D02*
X28791D01*
X27087Y61800D02*
X28750D01*
X27248Y61900D02*
X28718D01*
X27377Y62000D02*
X28695D01*
X27770Y62500D02*
X28706D01*
X27816Y62600D02*
X28733D01*
X24700Y63653D02*
Y64200D01*
X27856Y62700D02*
X28769D01*
X24800Y63937D02*
Y64200D01*
X27900Y63654D02*
Y64200D01*
X27800Y63938D02*
Y64200D01*
X27887Y62800D02*
X28815D01*
X27912Y62900D02*
X28873D01*
X27931Y63000D02*
X28944D01*
X27943Y63100D02*
X29032D01*
X27949Y63200D02*
X29143D01*
X27949Y63300D02*
X29287D01*
X29500Y55807D02*
Y61050D01*
X29600Y55918D02*
Y61018D01*
X29300Y55451D02*
Y61143D01*
X29400Y55663D02*
Y61091D01*
X29700Y56006D02*
Y60995D01*
X29800Y56077D02*
Y60981D01*
X29900Y56135D02*
Y60975D01*
X30000Y56181D02*
Y60977D01*
X31100Y56108D02*
Y61798D01*
X30900Y56201D02*
Y61443D01*
X30100Y56217D02*
Y60987D01*
X30200Y56244D02*
Y61006D01*
X27943Y63400D02*
X29498D01*
X30300Y56263D02*
Y61033D01*
X30400Y56273D02*
Y61069D01*
X30500Y56275D02*
Y61115D01*
X30600Y56269D02*
Y61173D01*
X30700Y56255D02*
Y61244D01*
X31000Y56159D02*
Y61587D01*
X30800Y56232D02*
Y61332D01*
X28700Y62473D02*
Y64200D01*
X28800Y62770D02*
Y64200D01*
X28900Y62940D02*
Y64200D01*
X29000Y63066D02*
Y64200D01*
X29100Y63164D02*
Y64200D01*
X29200Y63243D02*
Y64200D01*
X29300Y63307D02*
Y64200D01*
X29400Y63359D02*
Y64200D01*
X30600Y63277D02*
Y64200D01*
X30700Y63206D02*
Y64200D01*
X29500Y63400D02*
Y64200D01*
X29600Y63432D02*
Y64200D01*
X29700Y63455D02*
Y64200D01*
X29800Y63469D02*
Y64200D01*
X29900Y63475D02*
Y64200D01*
X30000Y63473D02*
Y64200D01*
X30200Y63444D02*
Y64200D01*
X30100Y63463D02*
Y64200D01*
X30300Y63417D02*
Y64200D01*
X30500Y63335D02*
Y64200D01*
X30400Y63381D02*
Y64200D01*
X34300Y49725D02*
Y64200D01*
X34400Y49725D02*
Y64200D01*
X34500Y49725D02*
Y64200D01*
X34600Y49725D02*
Y64200D01*
X34700Y49725D02*
Y64200D01*
X34800Y49725D02*
Y64200D01*
X34900Y49725D02*
Y64200D01*
X35000Y49725D02*
Y64200D01*
X35100Y49725D02*
Y64200D01*
X35200Y49725D02*
Y64200D01*
X35300Y49725D02*
Y64200D01*
X30800Y63118D02*
Y64200D01*
X31000Y62863D02*
Y64200D01*
X30900Y63007D02*
Y64200D01*
X31100Y62652D02*
Y64200D01*
X31200Y56043D02*
Y64200D01*
X31300Y55964D02*
Y64200D01*
X31400Y55866D02*
Y64200D01*
X31600Y55570D02*
Y64200D01*
X31500Y55741D02*
Y64200D01*
X31700Y55274D02*
Y64200D01*
X35400Y49725D02*
Y64200D01*
X35500Y49725D02*
Y64200D01*
X30723Y53800D02*
X38550D01*
X31020Y53900D02*
X38550D01*
X30902Y56200D02*
X38550D01*
X31190Y54000D02*
X38550D01*
X31113Y56100D02*
X38550D01*
X30173Y61000D02*
X38550D01*
X30469Y61100D02*
X38550D01*
X30640Y61200D02*
X38550D01*
X30766Y61300D02*
X38550D01*
X30864Y61400D02*
X38550D01*
X30943Y61500D02*
X38550D01*
X31007Y61600D02*
X38550D01*
X31059Y61700D02*
X38550D01*
X31100Y61800D02*
X38550D01*
X31132Y61900D02*
X38550D01*
X31155Y62000D02*
X38550D01*
X31144Y62500D02*
X38550D01*
X31169Y62100D02*
X38550D01*
X31117Y62600D02*
X38550D01*
X30977Y62900D02*
X38550D01*
X31081Y62700D02*
X38550D01*
X31035Y62800D02*
X38550D01*
X31316Y54100D02*
X38550D01*
X31414Y54200D02*
X38550D01*
X31493Y54300D02*
X38550D01*
X31557Y54400D02*
X38550D01*
X31609Y54500D02*
X38550D01*
X31650Y54600D02*
X38550D01*
X31682Y54700D02*
X38550D01*
X31705Y54800D02*
X38550D01*
X31719Y54900D02*
X38550D01*
X31725Y55000D02*
X38550D01*
X31723Y55100D02*
X38550D01*
X31713Y55200D02*
X38550D01*
X31694Y55300D02*
X38550D01*
X31667Y55400D02*
X38550D01*
X31527Y55700D02*
X38550D01*
X31631Y55500D02*
X38550D01*
X31585Y55600D02*
X38550D01*
X31257Y56000D02*
X38550D01*
X31456Y55800D02*
X38550D01*
X31368Y55900D02*
X38550D01*
X31175Y62200D02*
X38550D01*
X31173Y62300D02*
X38550D01*
X31163Y62400D02*
X38550D01*
X35600Y49725D02*
Y64200D01*
X35700Y49725D02*
Y64200D01*
X35800Y49725D02*
Y64200D01*
X35900Y49725D02*
Y64200D01*
X36000Y49725D02*
Y64200D01*
X30707Y63200D02*
X38550D01*
X30906Y63000D02*
X38550D01*
X30818Y63100D02*
X38550D01*
X36100Y49725D02*
Y64200D01*
X36200Y49725D02*
Y64200D01*
X36300Y49725D02*
Y64200D01*
X30352Y63400D02*
X38550D01*
X30563Y63300D02*
X38550D01*
X27888Y63700D02*
X38550D01*
X27931Y63500D02*
X38550D01*
X27912Y63600D02*
X38550D01*
X27817Y63900D02*
X38550D01*
X27856Y63800D02*
X38550D01*
X27770Y64000D02*
X38550D01*
X27649Y64200D02*
X38550D01*
X27714Y64100D02*
X38550D01*
X27649Y64200D02*
X38550D01*
X36400Y49725D02*
Y64200D01*
X36500Y49725D02*
Y64200D01*
X36600Y49725D02*
Y64200D01*
X36700Y49725D02*
Y64200D01*
X36800Y49725D02*
Y64200D01*
X36900Y49725D02*
Y64200D01*
X37000Y49725D02*
Y64200D01*
X37100Y49725D02*
Y64200D01*
X37200Y49725D02*
Y64200D01*
X37300Y49725D02*
Y64200D01*
X37400Y49725D02*
Y64200D01*
X37500Y49725D02*
Y64200D01*
X37600Y49725D02*
Y64200D01*
X37700Y49725D02*
Y64200D01*
X37800Y49725D02*
Y64200D01*
X37900Y49725D02*
Y64200D01*
X38000Y49725D02*
Y64200D01*
X38100Y49725D02*
Y64200D01*
X38200Y49725D02*
Y64200D01*
X38300Y49725D02*
Y64200D01*
X38400Y49725D02*
Y64200D01*
X38500Y49725D02*
Y64200D01*
X38550Y49725D02*
Y64200D01*
X1500Y9000D02*
Y10881D01*
X1600Y9000D02*
Y10838D01*
X1700Y9000D02*
Y10803D01*
X1800Y9000D02*
Y10774D01*
X1900Y9000D02*
Y10753D01*
X2000Y9000D02*
Y10737D01*
X2100Y9000D02*
Y10728D01*
X2200Y9000D02*
Y10725D01*
X2300Y9000D02*
Y10728D01*
X2400Y9000D02*
Y10737D01*
X2500Y9000D02*
Y10752D01*
X2600Y9000D02*
Y10774D01*
X800Y9000D02*
Y11502D01*
X1000Y9000D02*
Y11243D01*
X900Y9000D02*
Y11359D01*
X1100Y9000D02*
Y11145D01*
X800Y10800D02*
X1708D01*
X1200Y9000D02*
Y11063D01*
X1300Y9000D02*
Y10992D01*
X2700Y9000D02*
Y10803D01*
X1400Y9000D02*
Y10932D01*
X2800Y9000D02*
Y10838D01*
X2900Y9000D02*
Y10881D01*
X3000Y9000D02*
Y10932D01*
X800Y9000D02*
X4000D01*
X800Y9600D02*
X11935D01*
X800Y9700D02*
X11747D01*
X800Y10000D02*
X11425D01*
X800Y9800D02*
X11613D01*
X800Y9900D02*
X11509D01*
X4000Y8889D02*
Y9000D01*
Y9000D02*
X4622D01*
X800Y10300D02*
X11259D01*
X800Y10400D02*
X11225D01*
X800Y10100D02*
X11357D01*
X800Y10200D02*
X11303D01*
X3100Y9000D02*
Y10992D01*
X800Y10500D02*
X11200D01*
X800Y10600D02*
X11184D01*
X800Y10700D02*
X11176D01*
X2692Y10800D02*
X11176D01*
X3200Y9000D02*
Y11062D01*
X3300Y9000D02*
Y11145D01*
X3400Y9000D02*
Y11242D01*
X3500Y9000D02*
Y11359D01*
X3600Y9000D02*
Y11502D01*
X3700Y9000D02*
Y11687D01*
X3800Y9000D02*
Y11972D01*
X800Y11100D02*
X1153D01*
X800Y10900D02*
X1461D01*
X800Y11000D02*
X1288D01*
X800Y11300D02*
X948D01*
X800Y11200D02*
X1042D01*
X800Y13400D02*
X907D01*
X800Y13500D02*
X993D01*
X800Y13600D02*
X1095D01*
X800Y13700D02*
X1217D01*
X800Y13800D02*
X1368D01*
X800Y13900D02*
X1570D01*
X800Y14000D02*
X1913D01*
X800Y21100D02*
X5560D01*
X800Y21200D02*
X5434D01*
X800Y21500D02*
X5193D01*
X800Y21300D02*
X5336D01*
X800Y21400D02*
X5257D01*
X800Y21600D02*
X5141D01*
X800Y21700D02*
X5100D01*
X800Y22000D02*
X4702D01*
X800Y22100D02*
X4405D01*
X800Y21800D02*
X5068D01*
X800Y21900D02*
X5045D01*
X2939Y10900D02*
X11184D01*
X3112Y11000D02*
X11200D01*
X3247Y11100D02*
X11225D01*
X800Y19600D02*
X7775D01*
X3358Y11200D02*
X11259D01*
X3452Y11300D02*
X11302D01*
X3531Y11400D02*
X11357D01*
X3599Y11500D02*
X11425D01*
X3657Y11600D02*
X11508D01*
X3706Y11700D02*
X11613D01*
X3747Y11800D02*
X11747D01*
X3780Y11900D02*
X11935D01*
X3807Y12000D02*
X12411D01*
X800Y19900D02*
X7258D01*
X800Y19700D02*
X7531D01*
X800Y19800D02*
X7375D01*
X800Y20200D02*
X7028D01*
X800Y20300D02*
X6979D01*
X800Y20000D02*
X7165D01*
X800Y20100D02*
X7089D01*
X800Y20400D02*
X6941D01*
X800Y20500D02*
X6912D01*
X800Y20600D02*
X6891D01*
X800Y20900D02*
X6027D01*
X800Y21000D02*
X5730D01*
X800Y20700D02*
X6879D01*
X800Y20800D02*
X6875D01*
X5900Y8522D02*
Y20933D01*
X5806Y8600D02*
X6014D01*
X5665Y8700D02*
X6155D01*
X5489Y8800D02*
X6331D01*
X5249Y8900D02*
X6571D01*
X6000Y8589D02*
Y20906D01*
X8300Y8635D02*
Y19562D01*
X8400Y8557D02*
Y19581D01*
X8000Y8814D02*
Y19556D01*
X7700Y8927D02*
Y19625D01*
X8100Y8762D02*
Y19550D01*
X8200Y8703D02*
Y19552D01*
X5400Y8841D02*
Y21232D01*
X5700Y8677D02*
Y21015D01*
X5600Y8740D02*
Y21073D01*
X5200Y8916D02*
Y21487D01*
X5500Y8794D02*
Y21144D01*
X5300Y8882D02*
Y21343D01*
X5800Y8605D02*
Y20969D01*
X6100Y8663D02*
Y20887D01*
X6200Y8728D02*
Y20877D01*
X6300Y8784D02*
Y20875D01*
X6400Y8832D02*
Y20881D01*
X6500Y8874D02*
Y20895D01*
X6600Y8909D02*
Y20918D01*
X8346Y8600D02*
X8554D01*
X8205Y8700D02*
X8695D01*
X8029Y8800D02*
X8871D01*
X10745Y8700D02*
X11235D01*
X10569Y8800D02*
X11411D01*
X10886Y8600D02*
X11094D01*
X13426D02*
X13634D01*
X13000Y8850D02*
Y9640D01*
X13100Y8804D02*
Y9698D01*
X13285Y8700D02*
X13775D01*
X13109Y8800D02*
X13951D01*
X8500Y8557D02*
Y19608D01*
X11200Y8677D02*
Y10502D01*
X8600Y8635D02*
Y19644D01*
X8700Y8703D02*
Y19690D01*
X8800Y8762D02*
Y19748D01*
X11300Y8740D02*
Y10205D01*
X8900Y8814D02*
Y19819D01*
X13400Y8620D02*
Y9968D01*
X13500Y8540D02*
Y10112D01*
X13600Y8573D02*
Y10323D01*
X11500Y8841D02*
Y9909D01*
X11400Y8794D02*
Y10035D01*
X13200Y8751D02*
Y9769D01*
X13300Y8690D02*
Y9857D01*
X6700Y8938D02*
Y20949D01*
X4658Y9000D02*
X7162D01*
X6900Y8979D02*
Y20552D01*
X6523Y20900D02*
X6879D01*
X7100Y8998D02*
Y20085D01*
X7000Y8991D02*
Y20255D01*
X7200Y9000D02*
Y19959D01*
X7800Y8896D02*
Y19593D01*
X7900Y8858D02*
Y19570D01*
X7400Y8987D02*
Y19782D01*
X7300Y8996D02*
Y19861D01*
X7600Y8953D02*
Y19666D01*
X7500Y8973D02*
Y19718D01*
X4400Y8985D02*
Y22103D01*
X4600Y9000D02*
Y22025D01*
X4500Y8995D02*
Y22059D01*
X4700Y8999D02*
Y22000D01*
X4800Y8993D02*
Y21984D01*
X4900Y8982D02*
Y21976D01*
X5000Y8966D02*
Y21976D01*
X6800Y8962D02*
Y20991D01*
X5100Y8943D02*
Y21699D01*
X7519Y22000D02*
X7775D01*
X8800Y21852D02*
Y21987D01*
X8900Y21781D02*
Y22006D01*
X7789Y8900D02*
X9111D01*
X10329D02*
X11651D01*
X7198Y9000D02*
X9702D01*
X11900Y8966D02*
Y9616D01*
X9738Y9000D02*
X12242D01*
X12100Y8993D02*
Y9543D01*
X12200Y8999D02*
Y9520D01*
X12869Y8900D02*
X14191D01*
X12300Y9000D02*
Y9506D01*
X12400Y8995D02*
Y9500D01*
X12500Y8985D02*
Y9502D01*
X12600Y8969D02*
Y9512D01*
X12700Y8948D02*
Y9531D01*
X9000Y8858D02*
Y19907D01*
X9100Y8896D02*
Y20018D01*
X9200Y8927D02*
Y20162D01*
X9300Y8953D02*
Y20373D01*
X9000Y21693D02*
Y22033D01*
X11600Y8882D02*
Y9811D01*
X12800Y8922D02*
Y9558D01*
X11700Y8916D02*
Y9732D01*
X12000Y8982D02*
Y9575D01*
X11800Y8943D02*
Y9668D01*
X12900Y8889D02*
Y9594D01*
X800Y13248D02*
Y45775D01*
X900Y13391D02*
Y45775D01*
X1000Y13507D02*
Y45775D01*
X1100Y13605D02*
Y45775D01*
X1200Y13687D02*
Y45775D01*
X1300Y13758D02*
Y45775D01*
X1400Y13818D02*
Y45775D01*
X1500Y13869D02*
Y45775D01*
X1600Y13912D02*
Y45775D01*
X1700Y13947D02*
Y45775D01*
X1800Y13976D02*
Y45775D01*
X1900Y13997D02*
Y45775D01*
X2000Y14013D02*
Y45775D01*
X2100Y14022D02*
Y45775D01*
X2500Y13998D02*
Y45775D01*
X2600Y13976D02*
Y45775D01*
X2200Y14025D02*
Y45775D01*
X2300Y14022D02*
Y45775D01*
X2400Y14013D02*
Y45775D01*
X3100Y13758D02*
Y45775D01*
X3200Y13688D02*
Y45775D01*
X3300Y13605D02*
Y45775D01*
X2700Y13947D02*
Y45775D01*
X2800Y13912D02*
Y45775D01*
X2900Y13869D02*
Y45775D01*
X3000Y13818D02*
Y45775D01*
X800Y22400D02*
X4011D01*
X800Y22200D02*
X4235D01*
X800Y22300D02*
X4109D01*
X800Y22600D02*
X3868D01*
X800Y22500D02*
X3932D01*
X800Y22700D02*
X3816D01*
X3900Y9000D02*
Y22547D01*
X4100Y8922D02*
Y22309D01*
X4000Y9000D02*
Y22413D01*
X3800Y12778D02*
Y22735D01*
X800Y22800D02*
X3774D01*
X4300Y8969D02*
Y22157D01*
X4200Y8948D02*
Y22225D01*
X3400Y13508D02*
Y45775D01*
X800Y22900D02*
X3743D01*
X800Y23000D02*
X3720D01*
X800Y23100D02*
X3706D01*
X800Y23200D02*
X3700D01*
X800Y23300D02*
X3702D01*
X3500Y13391D02*
Y45775D01*
X3600Y13248D02*
Y45775D01*
X3700Y13063D02*
Y45775D01*
X6600Y23332D02*
Y33584D01*
X6913Y23200D02*
X7375D01*
X800Y23400D02*
X3712D01*
X800Y23500D02*
X3731D01*
X800Y23600D02*
X3758D01*
X800Y23700D02*
X3794D01*
X800Y23800D02*
X3840D01*
X800Y23900D02*
X3898D01*
X800Y24000D02*
X3969D01*
X800Y24100D02*
X4057D01*
X800Y24200D02*
X4168D01*
X800Y24300D02*
X4312D01*
X800Y24400D02*
X4523D01*
X4700Y24450D02*
Y33437D01*
X4800Y24466D02*
Y33416D01*
X3800Y23715D02*
Y34300D01*
X4000Y24037D02*
Y33900D01*
X3900Y23903D02*
Y34056D01*
X4100Y24141D02*
Y33783D01*
X4300Y24293D02*
Y33614D01*
X4200Y24225D02*
Y33690D01*
X4400Y24347D02*
Y33553D01*
X4500Y24391D02*
Y33504D01*
X4600Y24425D02*
Y33466D01*
X4900Y24474D02*
Y33404D01*
X5000Y24474D02*
Y33400D01*
X5100Y24466D02*
Y33404D01*
X5200Y24450D02*
Y33416D01*
X5931Y24000D02*
X7644D01*
X5843Y24100D02*
X7732D01*
X5732Y24200D02*
X7843D01*
X5300Y24425D02*
Y33437D01*
X5588Y24300D02*
X7987D01*
X5377Y24400D02*
X8198D01*
X6702Y23300D02*
X7377D01*
X6188Y23400D02*
X7387D01*
X6169Y23500D02*
X7406D01*
X6142Y23600D02*
X7433D01*
X6106Y23700D02*
X7469D01*
X6060Y23800D02*
X7515D01*
X6002Y23900D02*
X7573D01*
X5800Y24142D02*
Y33689D01*
X5900Y24038D02*
Y33782D01*
X6000Y23903D02*
Y33900D01*
X5400Y24391D02*
Y33466D01*
X5500Y24348D02*
Y33504D01*
X5600Y24293D02*
Y33553D01*
X5700Y24225D02*
Y33614D01*
X6200Y23373D02*
Y34300D01*
X6800Y23259D02*
Y33432D01*
X6700Y23301D02*
Y33500D01*
X6300Y23375D02*
Y34010D01*
X6100Y23715D02*
Y34056D01*
X6500Y23355D02*
Y33688D01*
X6400Y23369D02*
Y33822D01*
X9400Y8973D02*
Y22244D01*
X9500Y8987D02*
Y22332D01*
X9600Y8996D02*
Y22443D01*
X9300Y21227D02*
Y22173D01*
X9700Y9000D02*
Y22587D01*
X9800Y8998D02*
Y22798D01*
X10300Y8909D02*
Y35588D01*
X10400Y8874D02*
Y35588D01*
X10500Y8833D02*
Y35588D01*
X9900Y8991D02*
Y35588D01*
X10000Y8979D02*
Y35588D01*
X10100Y8962D02*
Y35588D01*
X10200Y8938D02*
Y35588D01*
X10800Y8663D02*
Y35588D01*
X10900Y8589D02*
Y35588D01*
X11000Y8522D02*
Y35588D01*
X10600Y8784D02*
Y35588D01*
X10700Y8728D02*
Y35588D01*
X11100Y8605D02*
Y35588D01*
X11200Y10998D02*
Y35588D01*
X11300Y11295D02*
Y35588D01*
X11400Y11465D02*
Y35588D01*
X11500Y11591D02*
Y35588D01*
X11600Y11689D02*
Y35588D01*
X11700Y11768D02*
Y35588D01*
X11800Y11832D02*
Y35588D01*
X11900Y11884D02*
Y35588D01*
X12900Y11906D02*
Y35605D01*
X12500Y11998D02*
Y35739D01*
X12600Y11988D02*
Y35692D01*
X12700Y11969D02*
Y35654D01*
X12800Y11942D02*
Y35625D01*
X13400Y11532D02*
Y35621D01*
X13500Y11388D02*
Y35649D01*
X13600Y11177D02*
Y35685D01*
X13000Y11860D02*
Y35593D01*
X13100Y11802D02*
Y35588D01*
X13200Y11731D02*
Y35591D01*
X13300Y11643D02*
Y35602D01*
X12000Y11925D02*
Y36208D01*
X13700Y8649D02*
Y35731D01*
X13800Y8715D02*
Y35788D01*
X12200Y11980D02*
Y35958D01*
X12100Y11957D02*
Y36067D01*
X12400Y12000D02*
Y35798D01*
X12300Y11994D02*
Y35870D01*
X13900Y8773D02*
Y35857D01*
X14000Y8823D02*
Y35942D01*
X14100Y8866D02*
Y36048D01*
X14200Y8903D02*
Y36183D01*
X14300Y8933D02*
Y36369D01*
X14400Y8957D02*
Y36743D01*
X14500Y8976D02*
Y45775D01*
X7513Y22300D02*
X7784D01*
X7494Y22400D02*
X7686D01*
X7327Y22800D02*
X7450D01*
X7385Y22700D02*
X7491D01*
X7256Y22900D02*
X7418D01*
X7600Y21934D02*
Y22510D01*
X7800Y22007D02*
Y22286D01*
X7700Y21976D02*
Y22384D01*
X7431Y22600D02*
X7543D01*
X7500Y22374D02*
Y22680D01*
X7900Y22030D02*
Y22207D01*
X7467Y22500D02*
X7607D01*
X7100Y23064D02*
Y33300D01*
X7168Y23000D02*
X7395D01*
X7200Y22966D02*
Y33275D01*
X6900Y23208D02*
Y33378D01*
X7057Y23100D02*
X7381D01*
X7000Y23143D02*
Y33334D01*
X7300Y22841D02*
Y33259D01*
X7400Y22670D02*
Y22977D01*
Y23473D02*
Y33251D01*
X7500Y23770D02*
Y33251D01*
X7600Y23940D02*
Y33259D01*
X7700Y24066D02*
Y33275D01*
X7800Y24164D02*
Y33300D01*
X7525Y22100D02*
X8080D01*
X7523Y22200D02*
X7910D01*
X7900Y24243D02*
Y33334D01*
X8000Y24307D02*
Y33377D01*
X9100Y21582D02*
Y22069D01*
X9200Y21438D02*
Y22115D01*
X8100Y24359D02*
Y33432D01*
X8200Y24400D02*
Y33500D01*
X8300Y24432D02*
Y33583D01*
X8400Y24455D02*
Y33687D01*
X8500Y24469D02*
Y33822D01*
X8600Y24475D02*
Y34010D01*
X9100Y24381D02*
Y35177D01*
X8700Y24473D02*
Y34485D01*
X8800Y24463D02*
Y35075D01*
X8900Y24444D02*
Y35100D01*
X9000Y24417D02*
Y35134D01*
X9600Y24007D02*
Y35588D01*
X9700Y23863D02*
Y35588D01*
X9800Y23652D02*
Y35588D01*
X9200Y24335D02*
Y35232D01*
X9300Y24277D02*
Y35300D01*
X9400Y24206D02*
Y35383D01*
X9500Y24118D02*
Y35487D01*
X3407Y13500D02*
X19504D01*
X3493Y13400D02*
X19553D01*
X3305Y13600D02*
X19466D01*
X3183Y13700D02*
X19437D01*
X3032Y13800D02*
X19416D01*
X2830Y13900D02*
X19404D01*
X12278Y9000D02*
X14782D01*
X3794Y12800D02*
X20300D01*
X3764Y12900D02*
X20056D01*
X3629Y13200D02*
X19690D01*
X3566Y13300D02*
X19614D01*
X3727Y13000D02*
X19900D01*
X3682Y13100D02*
X19783D01*
X800Y14100D02*
X19404D01*
X800Y14200D02*
X19416D01*
X800Y14300D02*
X19437D01*
X800Y14400D02*
X19466D01*
X800Y14500D02*
X19504D01*
X800Y14600D02*
X19553D01*
X2487Y14000D02*
X19400D01*
X800Y14700D02*
X19614D01*
X800Y14800D02*
X19689D01*
X800Y14900D02*
X19782D01*
X800Y15000D02*
X19900D01*
X800Y15100D02*
X20056D01*
X800Y15200D02*
X20300D01*
X800Y9100D02*
X49200D01*
X800Y9200D02*
X49200D01*
X800Y9300D02*
X49200D01*
X800Y9400D02*
X49200D01*
X800Y9500D02*
X49200D01*
X12915Y9600D02*
X49200D01*
X13103Y9700D02*
X49200D01*
X13237Y9800D02*
X49200D01*
X13341Y9900D02*
X49200D01*
X13425Y10000D02*
X49200D01*
X13342Y11600D02*
X46305D01*
X13493Y10100D02*
X49200D01*
X13493Y11400D02*
X49200D01*
X3848Y12300D02*
X35332D01*
X3827Y12100D02*
X35509D01*
X3841Y12200D02*
X35411D01*
X800Y15300D02*
X24241D01*
X3850Y12400D02*
X35268D01*
X800Y15400D02*
X24199D01*
X12915Y11900D02*
X35805D01*
X13238Y11700D02*
X46135D01*
X13103Y11800D02*
X36102D01*
X3835Y12600D02*
X35174D01*
X3818Y12700D02*
X34852D01*
X12439Y12000D02*
X35635D01*
X3845Y12500D02*
X35216D01*
X800Y15500D02*
X24168D01*
X800Y15600D02*
X24145D01*
X800Y15700D02*
X24131D01*
X800Y17700D02*
X23984D01*
X800Y15800D02*
X24125D01*
X800Y17600D02*
X24110D01*
X800Y18000D02*
X23743D01*
X800Y17800D02*
X23886D01*
X800Y17900D02*
X23807D01*
X800Y18100D02*
X23691D01*
X800Y18400D02*
X23595D01*
X800Y18200D02*
X23649D01*
X800Y18300D02*
X23618D01*
X800Y18500D02*
X23581D01*
X800Y18600D02*
X23575D01*
X800Y18700D02*
X23577D01*
X800Y18800D02*
X23587D01*
X800Y18900D02*
X23606D01*
X800Y19000D02*
X23633D01*
X800Y19100D02*
X23669D01*
X800Y19200D02*
X23715D01*
X800Y19300D02*
X23773D01*
X800Y19400D02*
X23844D01*
X9371Y20700D02*
X22075D01*
X800Y19500D02*
X23932D01*
X8475Y19600D02*
X24043D01*
X800Y15900D02*
X24127D01*
X800Y16000D02*
X24137D01*
X800Y16100D02*
X24156D01*
X800Y16200D02*
X24183D01*
X800Y16300D02*
X24219D01*
X800Y16400D02*
X24265D01*
X800Y16500D02*
X24323D01*
X800Y16600D02*
X24394D01*
X800Y16700D02*
X24482D01*
X800Y16800D02*
X24593D01*
X800Y16900D02*
X24737D01*
X800Y17000D02*
X24948D01*
X800Y17100D02*
X25384D01*
X800Y17400D02*
X24577D01*
X800Y17200D02*
X25286D01*
X800Y17300D02*
X25207D01*
X800Y17500D02*
X24280D01*
X8719Y19700D02*
X24187D01*
X8875Y19800D02*
X24398D01*
X8992Y19900D02*
X33127D01*
X9222Y20200D02*
X32543D01*
X9085Y20000D02*
X32899D01*
X9161Y20100D02*
X32687D01*
X9309Y20400D02*
X32344D01*
X9359Y20600D02*
X32215D01*
X9271Y20300D02*
X32432D01*
X9338Y20500D02*
X32273D01*
X15966Y8600D02*
X16174D01*
X15825Y8700D02*
X16315D01*
X15649Y8800D02*
X16491D01*
X15409Y8900D02*
X16731D01*
X14818Y9000D02*
X17322D01*
X18506Y8600D02*
X18714D01*
X18365Y8700D02*
X18855D01*
X18189Y8800D02*
X19031D01*
X17949Y8900D02*
X19271D01*
X17358Y9000D02*
X19862D01*
X20400Y8927D02*
Y12775D01*
X19500Y8962D02*
Y13510D01*
X19700Y8991D02*
Y13188D01*
X19600Y8979D02*
Y13322D01*
X19800Y8998D02*
Y13084D01*
X20000Y8996D02*
Y12932D01*
X19900Y9000D02*
Y13000D01*
X20700Y8814D02*
Y12751D01*
X20800Y8762D02*
Y12759D01*
X20900Y8703D02*
Y12775D01*
X20100Y8987D02*
Y12878D01*
X20200Y8973D02*
Y12834D01*
X20500Y8896D02*
Y12759D01*
X20600Y8858D02*
Y12751D01*
X21046Y8600D02*
X21254D01*
X20905Y8700D02*
X21395D01*
X20729Y8800D02*
X21571D01*
X20489Y8900D02*
X21811D01*
X19898Y9000D02*
X22402D01*
X23586Y8600D02*
X23794D01*
X23445Y8700D02*
X23935D01*
X21000Y8635D02*
Y12800D01*
X23269Y8800D02*
X24111D01*
X23029Y8900D02*
X24351D01*
X21100Y8557D02*
Y12834D01*
X21200Y8556D02*
Y12877D01*
X21300Y8635D02*
Y12932D01*
X21400Y8703D02*
Y13000D01*
X21500Y8762D02*
Y13083D01*
X21600Y8814D02*
Y13187D01*
X21700Y8858D02*
Y13322D01*
X23600Y8589D02*
Y18377D01*
X23800Y8605D02*
Y17910D01*
X23700Y8522D02*
Y18080D01*
X21800Y8896D02*
Y13510D01*
X21900Y8927D02*
Y13983D01*
X24000Y8740D02*
Y17686D01*
X23900Y8677D02*
Y17784D01*
X20300Y8953D02*
Y12800D01*
X21611Y14800D02*
X24660D01*
X21518Y14900D02*
X24534D01*
X21244Y15100D02*
X24357D01*
X21400Y15000D02*
X24436D01*
X21000Y15200D02*
X24293D01*
X22438Y9000D02*
X24942D01*
X21796Y13500D02*
X33924D01*
X21834Y13600D02*
X33893D01*
X21747Y14600D02*
X25127D01*
X21686Y14700D02*
X24830D01*
X21863Y13700D02*
X33870D01*
X21884Y13800D02*
X33856D01*
X22000Y8953D02*
Y20724D01*
X22100Y8973D02*
Y20693D01*
X22200Y8987D02*
Y20670D01*
X22300Y8996D02*
Y20656D01*
X21900Y14017D02*
Y20766D01*
X22400Y9000D02*
Y20650D01*
X22500Y8998D02*
Y20652D01*
X22600Y8991D02*
Y20662D01*
X22700Y8979D02*
Y20680D01*
X22800Y8962D02*
Y20707D01*
X22775Y20700D02*
X32169D01*
X13547Y10200D02*
X49200D01*
X13591Y10300D02*
X49200D01*
X13625Y10400D02*
X49200D01*
X13425Y11500D02*
X46602D01*
X13650Y10500D02*
X49200D01*
X13548Y11300D02*
X49200D01*
X13666Y10600D02*
X49200D01*
X13674Y10700D02*
X49200D01*
X13674Y10800D02*
X49200D01*
X13666Y10900D02*
X49200D01*
X13650Y11000D02*
X49200D01*
X13625Y11100D02*
X49200D01*
X13591Y11200D02*
X49200D01*
X21400Y13000D02*
X34259D01*
X21000Y12800D02*
X34555D01*
X21244Y12900D02*
X34385D01*
X21610Y13200D02*
X34082D01*
X21747Y13400D02*
X33966D01*
X21517Y13100D02*
X34161D01*
X21686Y13300D02*
X34018D01*
X21896Y13900D02*
X33850D01*
X21900Y14000D02*
X33852D01*
X21896Y14100D02*
X33862D01*
X21884Y14200D02*
X33881D01*
X21863Y14300D02*
X33908D01*
X21834Y14400D02*
X33944D01*
X21796Y14500D02*
X33990D01*
X15300Y8933D02*
Y29144D01*
X15400Y8903D02*
Y29108D01*
X15600Y8823D02*
Y29062D01*
X15100Y8976D02*
Y29248D01*
X15500Y8866D02*
Y29081D01*
X15200Y8957D02*
Y29190D01*
X15900Y8649D02*
Y29056D01*
X16000Y8573D02*
Y29070D01*
X16100Y8540D02*
Y29093D01*
X15700Y8773D02*
Y29052D01*
X15800Y8716D02*
Y29050D01*
X16200Y8620D02*
Y29124D01*
X16300Y8690D02*
Y29166D01*
X14600Y8989D02*
Y29874D01*
X16400Y8751D02*
Y29217D01*
X14700Y8997D02*
Y29662D01*
X14800Y9000D02*
Y29518D01*
X15000Y8989D02*
Y29319D01*
X14900Y8997D02*
Y29407D01*
X16500Y8804D02*
Y29282D01*
X16600Y8850D02*
Y29361D01*
X16700Y8889D02*
Y29459D01*
X16800Y8922D02*
Y29584D01*
X16900Y8948D02*
Y29755D01*
X17000Y8969D02*
Y30051D01*
X17100Y8985D02*
Y37675D01*
X8993Y21700D02*
X21191D01*
X9161Y21500D02*
X21241D01*
X9086Y21600D02*
X21212D01*
X8875Y21800D02*
X21179D01*
X8719Y21900D02*
X21175D01*
X8873Y22000D02*
X21179D01*
X9359Y21000D02*
X21558D01*
X9375Y20800D02*
X21831D01*
X9371Y20900D02*
X21675D01*
X9271Y21300D02*
X21328D01*
X9222Y21400D02*
X21279D01*
X9338Y21100D02*
X21465D01*
X9309Y21200D02*
X21389D01*
X17200Y8995D02*
Y37679D01*
X17300Y9000D02*
Y37691D01*
X17400Y8999D02*
Y37712D01*
X17500Y8993D02*
Y37741D01*
X9170Y22100D02*
X21191D01*
X9340Y22200D02*
X21212D01*
X17900Y8916D02*
Y37038D01*
X18100Y8841D02*
Y36850D01*
X18200Y8794D02*
Y36782D01*
X17700Y8966D02*
Y37360D01*
X17600Y8982D02*
Y37779D01*
X18000Y8882D02*
Y36934D01*
X17800Y8944D02*
Y37172D01*
X9466Y22300D02*
X21241D01*
X9564Y22400D02*
X21279D01*
X800Y25900D02*
X22680D01*
X800Y26200D02*
X22286D01*
X800Y26000D02*
X22510D01*
X800Y26100D02*
X22384D01*
X9643Y22500D02*
X21328D01*
X9707Y22600D02*
X21389D01*
X9759Y22700D02*
X21465D01*
X9800Y22800D02*
X21558D01*
X9832Y22900D02*
X21675D01*
X9855Y23000D02*
X21831D01*
X9869Y23100D02*
X22075D01*
X800Y26500D02*
X22091D01*
X800Y26300D02*
X22207D01*
X800Y26400D02*
X22143D01*
X800Y26700D02*
X22018D01*
X800Y26600D02*
X22050D01*
X800Y26800D02*
X21995D01*
X800Y26900D02*
X21981D01*
X800Y27000D02*
X21975D01*
X800Y27100D02*
X21977D01*
X800Y27200D02*
X21987D01*
X800Y27300D02*
X22006D01*
X800Y27400D02*
X22033D01*
X800Y27500D02*
X22069D01*
X9677Y23900D02*
X32984D01*
X9606Y24000D02*
X32976D01*
X9518Y24100D02*
X32976D01*
X9407Y24200D02*
X32984D01*
X9263Y24300D02*
X33000D01*
X9052Y24400D02*
X33025D01*
X9875Y23200D02*
X23964D01*
X9873Y23300D02*
X24057D01*
X9863Y23400D02*
X24175D01*
X9844Y23500D02*
X24331D01*
X9817Y23600D02*
X24575D01*
X9781Y23700D02*
X33025D01*
X9735Y23800D02*
X33000D01*
X800Y24500D02*
X33059D01*
X800Y24600D02*
X33102D01*
X800Y24700D02*
X33157D01*
X800Y24800D02*
X33225D01*
X800Y25100D02*
X33232D01*
X800Y24900D02*
X33308D01*
X800Y25000D02*
X33300D01*
X800Y25200D02*
X33178D01*
X800Y25300D02*
X33134D01*
X800Y25400D02*
X33100D01*
X800Y25500D02*
X33075D01*
X800Y25800D02*
X22977D01*
X800Y25600D02*
X33059D01*
X800Y25700D02*
X33051D01*
X18400Y8677D02*
Y36684D01*
X18600Y8522D02*
Y36625D01*
X18700Y8589D02*
Y36609D01*
X18300Y8740D02*
Y36728D01*
X18800Y8663D02*
Y36601D01*
X18500Y8605D02*
Y36650D01*
X18900Y8728D02*
Y36601D01*
X19000Y8784D02*
Y36609D01*
X19100Y8832D02*
Y36625D01*
X19200Y8874D02*
Y36650D01*
X19300Y8909D02*
Y36684D01*
X19400Y8938D02*
Y36727D01*
X19500Y14490D02*
Y36782D01*
X19600Y14678D02*
Y36850D01*
X19700Y14812D02*
Y36933D01*
X19800Y14916D02*
Y37037D01*
X19900Y15000D02*
Y37172D01*
X20000Y15068D02*
Y37360D01*
X20100Y15122D02*
Y37833D01*
X20200Y15166D02*
Y38537D01*
X20300Y15200D02*
Y38537D01*
X20400Y15225D02*
Y38537D01*
X20500Y15241D02*
Y38537D01*
X20600Y15249D02*
Y38537D01*
X20700Y15249D02*
Y38537D01*
X20800Y15241D02*
Y38537D01*
X21800Y14490D02*
Y20817D01*
X22900Y8938D02*
Y20744D01*
X23000Y8909D02*
Y20790D01*
X21500Y14917D02*
Y21059D01*
X21700Y14678D02*
Y20882D01*
X21600Y14813D02*
Y20961D01*
X23200Y8833D02*
Y20919D01*
X23300Y8784D02*
Y21007D01*
X23400Y8728D02*
Y21118D01*
X23100Y8874D02*
Y20848D01*
X23292Y21000D02*
X32087D01*
X23019Y20800D02*
X32133D01*
X23175Y20900D02*
X32106D01*
X21100Y15166D02*
Y38537D01*
X21400Y15000D02*
Y21185D01*
X21300Y15068D02*
Y21355D01*
X20900Y15225D02*
Y38537D01*
X21000Y15200D02*
Y38537D01*
X21200Y15123D02*
Y21652D01*
X23500Y8663D02*
Y21262D01*
X23600Y18873D02*
Y21473D01*
X23700Y19170D02*
Y22152D01*
X23900Y19466D02*
Y21685D01*
X23800Y19340D02*
Y21855D01*
X23385Y21100D02*
X32077D01*
X24000Y19564D02*
Y21559D01*
X22300Y23144D02*
Y26184D01*
X22500Y23148D02*
Y26007D01*
X22400Y23150D02*
Y26086D01*
X22600Y23138D02*
Y25943D01*
X22800Y23092D02*
Y25850D01*
X22700Y23119D02*
Y25891D01*
X23300Y22793D02*
Y25777D01*
X23400Y22682D02*
Y25787D01*
X23500Y22538D02*
Y25806D01*
X22900Y23056D02*
Y25818D01*
X23000Y23010D02*
Y25795D01*
X23200Y22881D02*
Y25775D01*
X23100Y22952D02*
Y25781D01*
X21200Y22148D02*
Y38537D01*
X21300Y22445D02*
Y38537D01*
X21400Y22615D02*
Y38537D01*
X21500Y22741D02*
Y38537D01*
X21600Y22839D02*
Y38537D01*
X21700Y22918D02*
Y38537D01*
X21800Y22982D02*
Y39083D01*
X22000Y23075D02*
Y26777D01*
X21900Y23034D02*
Y38967D01*
X22100Y23107D02*
Y26480D01*
X22000Y27273D02*
Y38873D01*
X22200Y23129D02*
Y26310D01*
X22100Y27570D02*
Y38795D01*
X23571Y21400D02*
X24175D01*
X23461Y21200D02*
X24575D01*
X23522Y21300D02*
X24331D01*
X23461Y22600D02*
X23691D01*
X23385Y22700D02*
X23712D01*
X23292Y22800D02*
X23741D01*
X23659Y21700D02*
X23889D01*
X23609Y21500D02*
X24058D01*
X23638Y21600D02*
X23965D01*
X23571Y22400D02*
X23675D01*
X23522Y22500D02*
X23679D01*
X23671Y21800D02*
X23828D01*
X23675Y21900D02*
X23779D01*
X23600Y22327D02*
Y25833D01*
X23175Y22900D02*
X23779D01*
X23019Y23000D02*
X23828D01*
X22775Y23100D02*
X23889D01*
X23473Y25800D02*
X33051D01*
X23700Y22648D02*
Y25869D01*
X23800Y22945D02*
Y25915D01*
X23900Y23115D02*
Y25973D01*
X23770Y25900D02*
X33059D01*
X24000Y23241D02*
Y26044D01*
X23940Y26000D02*
X33075D01*
X24066Y26100D02*
X33100D01*
X800Y33700D02*
X4188D01*
X800Y33500D02*
X4510D01*
X800Y33600D02*
X4322D01*
X800Y34000D02*
X3932D01*
X800Y33800D02*
X4084D01*
X800Y33900D02*
X4000D01*
X800Y34300D02*
X3800D01*
X800Y34100D02*
X3878D01*
X800Y34200D02*
X3834D01*
X800Y34400D02*
X3775D01*
X800Y34500D02*
X3759D01*
X800Y34600D02*
X3751D01*
X800Y34700D02*
X3751D01*
X800Y34800D02*
X3759D01*
X800Y34900D02*
X3775D01*
X800Y35000D02*
X3800D01*
X800Y35100D02*
X3834D01*
X800Y35200D02*
X3877D01*
X800Y35300D02*
X3932D01*
X3800Y35000D02*
Y36002D01*
X800Y35400D02*
X4000D01*
X3900Y35244D02*
Y35705D01*
X800Y35600D02*
X3957D01*
X800Y35700D02*
X3903D01*
X800Y35500D02*
X4025D01*
X4000Y35400D02*
Y35535D01*
X5490Y33500D02*
X6700D01*
X800Y33300D02*
X7100D01*
X800Y33400D02*
X6857D01*
X5916Y33800D02*
X6414D01*
X5678Y33600D02*
X6583D01*
X5812Y33700D02*
X6490D01*
X6000Y33900D02*
X6353D01*
X6068Y34000D02*
X6304D01*
X6122Y34100D02*
X6266D01*
X6200Y35000D02*
X6304D01*
X6166Y35100D02*
X6353D01*
X6123Y35200D02*
X6414D01*
X6068Y35300D02*
X6489D01*
X6000Y35400D02*
X6582D01*
X6200Y35000D02*
Y35823D01*
X6300Y34990D02*
Y38506D01*
X6025Y35500D02*
X6700D01*
X6100Y35244D02*
Y35612D01*
X6093Y35600D02*
X6856D01*
X6147Y35700D02*
X7100D01*
X800Y36000D02*
X3800D01*
X800Y35800D02*
X3859D01*
X800Y35900D02*
X3825D01*
X800Y36100D02*
X3784D01*
X800Y36200D02*
X3776D01*
X800Y36300D02*
X3776D01*
X800Y36400D02*
X3784D01*
X800Y36500D02*
X3800D01*
X800Y36600D02*
X3825D01*
X800Y36700D02*
X3859D01*
X800Y36800D02*
X3902D01*
X800Y36900D02*
X3957D01*
X800Y37000D02*
X4025D01*
X800Y37100D02*
X4108D01*
X800Y37200D02*
X4212D01*
X800Y37300D02*
X4347D01*
X800Y37400D02*
X4535D01*
X800Y37500D02*
X5006D01*
X800Y38600D02*
X5935D01*
X5800Y37231D02*
Y38668D01*
X6000Y37032D02*
Y38575D01*
X5900Y37143D02*
Y38616D01*
X5600Y37360D02*
Y38811D01*
X800Y38800D02*
X5613D01*
X5700Y37302D02*
Y38732D01*
X800Y38700D02*
X5747D01*
X6225Y35900D02*
X7366D01*
X6191Y35800D02*
X7404D01*
X6250Y36000D02*
X7337D01*
X6148Y36800D02*
X7404D01*
X6093Y36900D02*
X7453D01*
X6025Y37000D02*
X7514D01*
X6266Y36100D02*
X7316D01*
X6274Y36200D02*
X7304D01*
X6274Y36300D02*
X7300D01*
X6266Y36400D02*
X7304D01*
X6250Y36500D02*
X7316D01*
X6225Y36600D02*
X7337D01*
X6191Y36700D02*
X7366D01*
X800Y37600D02*
X9308D01*
X800Y37700D02*
X9308D01*
X800Y37800D02*
X9308D01*
X800Y37900D02*
X9308D01*
X800Y38000D02*
X9308D01*
X800Y38100D02*
X9308D01*
X800Y38500D02*
X9308D01*
X6100Y36888D02*
Y38543D01*
X5942Y37100D02*
X7589D01*
X6200Y36677D02*
Y38520D01*
X5838Y37200D02*
X7682D01*
X5703Y37300D02*
X7800D01*
X5515Y37400D02*
X7956D01*
X5044Y37500D02*
X8200D01*
X6400Y35178D02*
Y38500D01*
X6500Y35312D02*
Y38502D01*
X6600Y35416D02*
Y38512D01*
X6700Y35500D02*
Y38531D01*
X6800Y35568D02*
Y38558D01*
X6900Y35622D02*
Y38594D01*
X8100Y37466D02*
Y38594D01*
X8700Y34515D02*
Y35059D01*
X8400Y37541D02*
Y38512D01*
X8500Y37549D02*
Y38502D01*
X8600Y37549D02*
Y38500D01*
X8700Y37541D02*
Y38506D01*
X7000Y35666D02*
Y38640D01*
X7100Y35700D02*
Y38698D01*
X7200Y35725D02*
Y38769D01*
X7800Y37300D02*
Y38769D01*
X8000Y37422D02*
Y38640D01*
X7900Y37368D02*
Y38698D01*
X9000Y37466D02*
Y38574D01*
X9100Y37423D02*
Y38616D01*
X9200Y37368D02*
Y38667D01*
X8200Y37500D02*
Y38558D01*
X8300Y37525D02*
Y38531D01*
X8800Y37525D02*
Y38520D01*
X8900Y37500D02*
Y38543D01*
X9578Y35588D02*
X11908D01*
X9144Y37400D02*
X9308D01*
X11908Y35600D02*
X12934D01*
X8900Y37500D02*
X9308D01*
X11908Y35588D02*
Y36388D01*
Y35700D02*
X12581D01*
X11908Y36000D02*
X12159D01*
X11908Y36100D02*
X12074D01*
X11908Y35800D02*
X12397D01*
X11908Y35900D02*
X12263D01*
X9308Y37294D02*
Y38188D01*
X11908Y37600D02*
X12020D01*
X9300Y37300D02*
Y38732D01*
X11908Y37700D02*
X12093D01*
X11908Y37800D02*
X12181D01*
X11908Y37388D02*
Y38188D01*
X12200Y37818D02*
Y38833D01*
X11908Y37900D02*
X12292D01*
X12300Y37907D02*
Y38745D01*
X12400Y37978D02*
Y38673D01*
X13900Y37919D02*
Y38732D01*
X9400Y38188D02*
Y38463D01*
X9500Y38188D02*
Y38463D01*
X9600Y38188D02*
Y38463D01*
X9700Y38188D02*
Y38463D01*
X9800Y38188D02*
Y38463D01*
X9900Y38188D02*
Y38463D01*
X10000Y38188D02*
Y38463D01*
X10100Y38188D02*
Y38463D01*
X10200Y38188D02*
Y38463D01*
X10300Y38188D02*
Y38463D01*
X10400Y38188D02*
Y38463D01*
X10500Y38188D02*
Y38463D01*
X10600Y38188D02*
Y38463D01*
X6915Y38600D02*
X8085D01*
X10700Y38188D02*
Y38463D01*
X9308D02*
Y38737D01*
X7237Y38800D02*
X7763D01*
X9065Y38600D02*
X9308D01*
X7103Y38700D02*
X7897D01*
X10800Y38188D02*
Y38463D01*
X10900Y38188D02*
Y38463D01*
X11000Y38188D02*
Y38463D01*
X11100Y38188D02*
Y38463D01*
X11200Y38188D02*
Y38463D01*
X11300Y38188D02*
Y38463D01*
X11400Y38188D02*
Y38463D01*
X11500Y38188D02*
Y38463D01*
X9308Y38188D02*
X11908D01*
X11600D02*
Y38463D01*
X11700Y38188D02*
Y38463D01*
X11800Y38188D02*
Y38463D01*
X9308D02*
X11908D01*
X11900Y38188D02*
Y38463D01*
X11908Y38000D02*
X12434D01*
X11908Y38100D02*
X12637D01*
X12800Y38151D02*
Y38500D01*
X11908Y38500D02*
X12801D01*
X12900Y38171D02*
Y38480D01*
X13000Y38184D02*
Y38468D01*
X12500Y38037D02*
Y38614D01*
X12600Y38085D02*
Y38567D01*
X12700Y38122D02*
Y38529D01*
X11908Y38700D02*
X12360D01*
X11908Y38800D02*
X12235D01*
X13100Y38188D02*
Y38463D01*
X11908Y38600D02*
X12528D01*
X13500Y38128D02*
Y38524D01*
X13700Y38046D02*
Y38606D01*
X13800Y37989D02*
Y38663D01*
X13200Y38185D02*
Y38466D01*
X13300Y38174D02*
Y38477D01*
X13400Y38155D02*
Y38496D01*
X13600Y38092D02*
Y38560D01*
X800Y39500D02*
X5200D01*
X800Y39300D02*
X5259D01*
X800Y39400D02*
X5225D01*
X800Y39600D02*
X5184D01*
X800Y39700D02*
X5176D01*
X800Y39800D02*
X5176D01*
X3800Y36498D02*
Y45775D01*
X5300Y37469D02*
Y39205D01*
X3900Y36795D02*
Y45775D01*
X5200Y37488D02*
Y39502D01*
X800Y39900D02*
X5184D01*
X800Y40000D02*
X5200D01*
X800Y40100D02*
X5225D01*
X4000Y36965D02*
Y45775D01*
X4100Y37091D02*
Y45775D01*
X4200Y37189D02*
Y45775D01*
X4300Y37268D02*
Y45775D01*
X4400Y37332D02*
Y45775D01*
X4500Y37384D02*
Y45775D01*
X4600Y37426D02*
Y45775D01*
X4700Y37457D02*
Y45775D01*
X4800Y37480D02*
Y45775D01*
X4900Y37494D02*
Y45775D01*
X5000Y37500D02*
Y45775D01*
X5100Y37498D02*
Y45775D01*
X5200Y39998D02*
Y45775D01*
X800Y39100D02*
X5357D01*
X800Y38900D02*
X5509D01*
X800Y39000D02*
X5425D01*
X800Y40200D02*
X5259D01*
X800Y39200D02*
X5303D01*
X800Y40300D02*
X5302D01*
X5400Y37442D02*
Y39035D01*
X5500Y37406D02*
Y38909D01*
X7300Y35741D02*
Y38857D01*
X800Y40400D02*
X5357D01*
X800Y40500D02*
X5425D01*
X7341Y38900D02*
X7659D01*
X800Y40600D02*
X5508D01*
X5300Y40295D02*
Y44200D01*
X5400Y40465D02*
Y43956D01*
X5500Y40591D02*
Y43800D01*
X800Y40700D02*
X5612D01*
X800Y40800D02*
X5747D01*
X5600Y40689D02*
Y43683D01*
X7342Y40600D02*
X7658D01*
X7238Y40700D02*
X7762D01*
X7100Y40802D02*
Y43453D01*
X5700Y40768D02*
Y43590D01*
X7103Y40800D02*
X7897D01*
X7200Y40731D02*
Y43514D01*
X800Y43800D02*
X5500D01*
X800Y43600D02*
X5688D01*
X800Y43700D02*
X5584D01*
X800Y44000D02*
X5377D01*
X800Y43900D02*
X5432D01*
X800Y44100D02*
X5334D01*
X800Y44200D02*
X5300D01*
X5800Y40832D02*
Y43514D01*
X800Y44300D02*
X5275D01*
X800Y44400D02*
X5259D01*
X800Y44500D02*
X5251D01*
X800Y44600D02*
X5251D01*
X800Y44700D02*
X5259D01*
X800Y44800D02*
X5275D01*
X800Y44900D02*
X5300D01*
X800Y45000D02*
X5334D01*
X800Y45100D02*
X5377D01*
X800Y45200D02*
X5432D01*
X800Y45300D02*
X5500D01*
X5300Y44900D02*
Y45775D01*
X5400Y45144D02*
Y45775D01*
X5500Y45300D02*
Y45775D01*
X800Y45400D02*
X5583D01*
X5600Y45417D02*
Y45775D01*
X800Y45500D02*
X5687D01*
X5700Y45510D02*
Y45775D01*
X800Y40900D02*
X5935D01*
X800Y41000D02*
X6406D01*
X6000Y40925D02*
Y43404D01*
X800Y43400D02*
X6010D01*
X6200Y40980D02*
Y43337D01*
X6300Y40994D02*
Y43316D01*
X6700Y40969D02*
Y43316D01*
X6915Y40900D02*
X8085D01*
X6800Y40942D02*
Y43337D01*
X6400Y41000D02*
Y43304D01*
X6500Y40998D02*
Y43300D01*
X6444Y41000D02*
X8556D01*
X6600Y40988D02*
Y43304D01*
X800Y43500D02*
X5822D01*
X5900Y40884D02*
Y43453D01*
X800Y45600D02*
X5821D01*
X5800Y45586D02*
Y45775D01*
X800Y45700D02*
X6010D01*
X800Y45775D02*
X6251D01*
X6100Y40957D02*
Y43366D01*
X6900Y40906D02*
Y43366D01*
X7000Y40860D02*
Y43404D01*
X5900Y45647D02*
Y45775D01*
X7100Y45647D02*
Y45775D01*
X7200Y45586D02*
Y45775D01*
X7400Y36790D02*
Y38968D01*
X7425Y39000D02*
X7575D01*
X7500Y36978D02*
Y39112D01*
X7300Y40643D02*
Y43590D01*
X7425Y40500D02*
X7575D01*
X7400Y40532D02*
Y43683D01*
X7600Y37112D02*
Y38968D01*
X7700Y37216D02*
Y38857D01*
X7500Y40388D02*
Y43800D01*
X9065Y40900D02*
X9308D01*
Y40763D02*
Y41063D01*
X7600Y40532D02*
Y43956D01*
X7700Y40643D02*
Y44200D01*
X7800Y40731D02*
Y45775D01*
X7900Y40802D02*
Y45775D01*
X8000Y40860D02*
Y45775D01*
X8100Y40906D02*
Y45775D01*
X9100Y40884D02*
Y45775D01*
X9200Y40833D02*
Y45775D01*
X9300Y40768D02*
Y45775D01*
X8200Y40942D02*
Y45775D01*
X8300Y40969D02*
Y45775D01*
X8900Y40957D02*
Y45775D01*
X9000Y40926D02*
Y45775D01*
X11908Y38900D02*
X12136D01*
X11908Y38463D02*
Y39263D01*
Y40500D02*
X12037D01*
X11908Y39000D02*
X12056D01*
X11908Y40600D02*
X12113D01*
X12000Y37568D02*
Y39083D01*
X14200Y37594D02*
Y39058D01*
X14300Y37407D02*
Y39244D01*
X12100Y37709D02*
Y38942D01*
X11908Y40700D02*
X12207D01*
X14000Y37834D02*
Y38817D01*
X14100Y37729D02*
Y38923D01*
X11908Y40263D02*
Y41063D01*
X12000Y40443D02*
Y45775D01*
X12100Y40584D02*
Y45775D01*
X12200Y40693D02*
Y45775D01*
X11908Y40800D02*
X12324D01*
X12300Y40782D02*
Y45775D01*
X14100Y40604D02*
Y45775D01*
X14200Y40469D02*
Y45775D01*
X14300Y40282D02*
Y45775D01*
X12400Y40853D02*
Y45775D01*
X13800Y40864D02*
Y45775D01*
X13900Y40794D02*
Y45775D01*
X14000Y40709D02*
Y45775D01*
X7600Y45144D02*
Y45775D01*
X7700Y44900D02*
Y45775D01*
X8400Y40988D02*
Y45775D01*
X7300Y45510D02*
Y45775D01*
X7400Y45417D02*
Y45775D01*
X7500Y45300D02*
Y45775D01*
X8500Y40998D02*
Y45775D01*
X8594Y41000D02*
X9308D01*
X8600Y41000D02*
Y45775D01*
X8700Y40994D02*
Y45775D01*
X8800Y40980D02*
Y45775D01*
X9400Y41063D02*
Y45775D01*
X9500Y41063D02*
Y45775D01*
X9600Y41063D02*
Y45775D01*
X9700Y41063D02*
Y45775D01*
X9800Y41063D02*
Y45775D01*
X9900Y41063D02*
Y45775D01*
X10000Y41063D02*
Y45775D01*
X10100Y41063D02*
Y45775D01*
X10200Y41063D02*
Y45775D01*
X10300Y41063D02*
Y45775D01*
X10400Y41063D02*
Y45775D01*
X10500Y41063D02*
Y45775D01*
X10600Y41063D02*
Y45775D01*
X10700Y41063D02*
Y45775D01*
X10800Y41063D02*
Y45775D01*
X10900Y41063D02*
Y45775D01*
X9308Y41063D02*
X11908D01*
X11000D02*
Y45775D01*
X11100Y41063D02*
Y45775D01*
X11200Y41063D02*
Y45775D01*
X11300Y41063D02*
Y45775D01*
X11400Y41063D02*
Y45775D01*
X11908Y40900D02*
X12477D01*
X11908Y41000D02*
X12707D01*
X11500Y41063D02*
Y45775D01*
X11600Y41063D02*
Y45775D01*
X11700Y41063D02*
Y45775D01*
X11800Y41063D02*
Y45775D01*
X12500Y40912D02*
Y45775D01*
X12600Y40960D02*
Y45775D01*
X12700Y40997D02*
Y45775D01*
X11900Y41063D02*
Y45775D01*
X12800Y41026D02*
Y45775D01*
X12900Y41046D02*
Y45775D01*
X13000Y41059D02*
Y45775D01*
X13200Y41060D02*
Y45775D01*
X13600Y40967D02*
Y45775D01*
X13700Y40921D02*
Y45775D01*
X13100Y41063D02*
Y45775D01*
X13300Y41049D02*
Y45775D01*
X13400Y41030D02*
Y45775D01*
X13500Y41003D02*
Y45775D01*
X800Y29200D02*
X15182D01*
X800Y27600D02*
X22115D01*
X800Y29100D02*
X15425D01*
X800Y29500D02*
X14815D01*
X800Y29300D02*
X15025D01*
X800Y29400D02*
X14908D01*
X800Y29700D02*
X14678D01*
X800Y29600D02*
X14739D01*
X800Y29800D02*
X14629D01*
X800Y29900D02*
X14591D01*
X800Y30200D02*
X14529D01*
X800Y30000D02*
X14562D01*
X800Y30100D02*
X14541D01*
X800Y30300D02*
X14525D01*
X800Y30400D02*
X14529D01*
X800Y30500D02*
X14541D01*
X800Y30600D02*
X14561D01*
X800Y30700D02*
X14591D01*
X800Y30800D02*
X14629D01*
X800Y30900D02*
X14678D01*
X800Y31000D02*
X14739D01*
X800Y31100D02*
X14814D01*
X800Y31200D02*
X14907D01*
X800Y31300D02*
X15025D01*
X800Y31400D02*
X15181D01*
X800Y31500D02*
X15425D01*
X800Y27700D02*
X22173D01*
X800Y27800D02*
X22244D01*
X800Y27900D02*
X22332D01*
X800Y28000D02*
X22443D01*
X800Y28100D02*
X22587D01*
X800Y28200D02*
X22798D01*
X800Y28400D02*
X27665D01*
X800Y28300D02*
X27695D01*
X800Y28500D02*
X27643D01*
X800Y28600D02*
X27630D01*
X800Y28700D02*
X27625D01*
X800Y28800D02*
X27628D01*
X800Y28900D02*
X27639D01*
X800Y29000D02*
X27658D01*
X800Y31600D02*
X49200D01*
X800Y31700D02*
X49200D01*
X800Y31800D02*
X49200D01*
X800Y31900D02*
X49200D01*
X800Y32000D02*
X49200D01*
X800Y32300D02*
X25935D01*
X800Y32100D02*
X26402D01*
X800Y32200D02*
X26105D01*
X800Y32600D02*
X25632D01*
X800Y32700D02*
X25568D01*
X800Y32400D02*
X25809D01*
X800Y32500D02*
X25711D01*
X800Y32800D02*
X25516D01*
X800Y32900D02*
X25475D01*
X800Y33000D02*
X25443D01*
X800Y33100D02*
X25420D01*
X800Y33200D02*
X25406D01*
X7800Y33300D02*
X25400D01*
X8043Y33400D02*
X25402D01*
X8200Y33500D02*
X25412D01*
X8317Y33600D02*
X25431D01*
X14123Y37700D02*
X16852D01*
X14035Y37800D02*
X16555D01*
X14255Y37500D02*
X17650D01*
X14196Y37600D02*
X17625D01*
X800Y38300D02*
X16018D01*
X13579Y38100D02*
X16161D01*
X800Y38200D02*
X16082D01*
X13415Y38500D02*
X15925D01*
X800Y38400D02*
X15966D01*
X13688Y38600D02*
X15893D01*
X13856Y38700D02*
X15870D01*
X13924Y37900D02*
X16385D01*
X13782Y38000D02*
X16259D01*
X13981Y38800D02*
X15856D01*
X14080Y38900D02*
X15850D01*
X14160Y39000D02*
X15852D01*
X14226Y39100D02*
X15862D01*
X8410Y33700D02*
X25458D01*
X8486Y33800D02*
X25494D01*
X8547Y33900D02*
X25540D01*
X8596Y34000D02*
X25598D01*
X8634Y34100D02*
X25669D01*
X8663Y34200D02*
X25757D01*
X8684Y34300D02*
X25868D01*
X8696Y34400D02*
X26012D01*
X8700Y34500D02*
X26223D01*
X8696Y34600D02*
X49200D01*
X8684Y34700D02*
X49200D01*
X8663Y34800D02*
X49200D01*
X8634Y34900D02*
X49200D01*
X8596Y35000D02*
X49200D01*
X8900Y35100D02*
X49200D01*
X9143Y35200D02*
X49200D01*
X9300Y35300D02*
X49200D01*
X9417Y35400D02*
X49200D01*
X9510Y35500D02*
X49200D01*
X13282Y35600D02*
X49200D01*
X13635Y35700D02*
X49200D01*
X13819Y35800D02*
X49200D01*
X13953Y35900D02*
X49200D01*
X14057Y36000D02*
X49200D01*
X14142Y36100D02*
X49200D01*
X14211Y36200D02*
X49200D01*
X14267Y36300D02*
X49200D01*
X16800Y31016D02*
Y37712D01*
X16900Y30845D02*
Y37691D01*
X16500Y31318D02*
Y37828D01*
X16700Y31141D02*
Y37741D01*
X16600Y31239D02*
Y37779D01*
X22500Y28043D02*
Y38598D01*
X22600Y28107D02*
Y38572D01*
X22700Y28159D02*
Y38553D01*
X17000Y30549D02*
Y37679D01*
X22800Y28200D02*
Y38541D01*
X22900Y28232D02*
Y38537D01*
X23000Y28255D02*
Y38540D01*
X22200Y27740D02*
Y38730D01*
X22300Y27866D02*
Y38677D01*
X22400Y27964D02*
Y38633D01*
X23100Y28269D02*
Y38550D01*
X23200Y28275D02*
Y38567D01*
X23300Y28273D02*
Y38592D01*
X23800Y28135D02*
Y38857D01*
X23900Y28077D02*
Y38947D01*
X24000Y28006D02*
Y39059D01*
X23400Y28263D02*
Y38626D01*
X23500Y28244D02*
Y38668D01*
X23600Y28217D02*
Y38719D01*
X23700Y28181D02*
Y38781D01*
X16125Y29100D02*
X27686D01*
X16368Y29200D02*
X27724D01*
X16525Y29300D02*
X27771D01*
X16642Y29400D02*
X27831D01*
X16735Y29500D02*
X27904D01*
X16811Y29600D02*
X27994D01*
X23652Y28200D02*
X27735D01*
X24007Y28000D02*
X27848D01*
X23863Y28100D02*
X27786D01*
X16872Y29700D02*
X28108D01*
X16921Y29800D02*
X28258D01*
X16959Y29900D02*
X28483D01*
X16988Y30000D02*
X49200D01*
X16989Y30600D02*
X49200D01*
X16872Y30900D02*
X49200D01*
X16811Y31000D02*
X49200D01*
X16736Y31100D02*
X49200D01*
X16643Y31200D02*
X49200D01*
X16525Y31300D02*
X49200D01*
X16369Y31400D02*
X49200D01*
X17009Y30100D02*
X49200D01*
X17021Y30200D02*
X49200D01*
X17025Y30300D02*
X49200D01*
X17021Y30400D02*
X49200D01*
X17009Y30500D02*
X49200D01*
X16959Y30700D02*
X49200D01*
X16921Y30800D02*
X49200D01*
X14408Y36900D02*
X18038D01*
X14394Y36700D02*
X18360D01*
X14405Y36800D02*
X18172D01*
X14303Y37400D02*
X17684D01*
X14403Y37000D02*
X17934D01*
X14391Y37100D02*
X17850D01*
X16300Y31434D02*
Y37965D01*
X16125Y31500D02*
X49200D01*
X16400Y31383D02*
Y37889D01*
X14370Y37200D02*
X17782D01*
X17348Y37700D02*
X17609D01*
X14341Y37300D02*
X17728D01*
X15900Y31544D02*
Y38575D01*
X16200Y31476D02*
Y38058D01*
X16000Y31530D02*
Y38331D01*
X16100Y31507D02*
Y38175D01*
X18338Y39100D02*
X18831D01*
X20000Y38340D02*
Y38537D01*
X20100Y37867D02*
Y38537D01*
X19894D02*
X21770D01*
Y38800D02*
X22093D01*
X21770Y38900D02*
X21969D01*
X21770Y38600D02*
X22495D01*
X21770Y38700D02*
X22254D01*
X14313Y36400D02*
X49200D01*
X14349Y36500D02*
X49200D01*
X14376Y36600D02*
X49200D01*
X19340Y36700D02*
X49200D01*
X19528Y36800D02*
X49200D01*
X19662Y36900D02*
X49200D01*
X19766Y37000D02*
X49200D01*
X19850Y37100D02*
X49200D01*
X19918Y37200D02*
X49200D01*
X19972Y37300D02*
X49200D01*
X20016Y37400D02*
X49200D01*
X20050Y37500D02*
X49200D01*
X20075Y37600D02*
X49200D01*
X20091Y37700D02*
X49200D01*
X20099Y37800D02*
X49200D01*
X20075Y38100D02*
X49200D01*
X20050Y38200D02*
X49200D01*
X20016Y38300D02*
X49200D01*
X19973Y38400D02*
X49200D01*
X19918Y38500D02*
X49200D01*
X20099Y37900D02*
X49200D01*
X20091Y38000D02*
X49200D01*
X23324Y38600D02*
X49200D01*
X23565Y38700D02*
X49200D01*
X23726Y38800D02*
X49200D01*
X23850Y38900D02*
X49200D01*
X23950Y39000D02*
X49200D01*
X14280Y39200D02*
X15881D01*
X14323Y39300D02*
X15908D01*
X14356Y39400D02*
X15944D01*
X14381Y39500D02*
X15990D01*
X14600Y30726D02*
Y45775D01*
X14700Y30938D02*
Y45775D01*
X14800Y31082D02*
Y45775D01*
X14400Y37033D02*
Y39618D01*
Y39908D02*
Y45775D01*
X14398Y39600D02*
X16048D01*
X14406Y39700D02*
X16119D01*
X14900Y31193D02*
Y45775D01*
X15000Y31281D02*
Y45775D01*
X15100Y31352D02*
Y45775D01*
X15200Y31410D02*
Y45775D01*
X15300Y31456D02*
Y45775D01*
X15400Y31492D02*
Y45775D01*
X15500Y31519D02*
Y45775D01*
X15600Y31538D02*
Y45775D01*
X15700Y31548D02*
Y45775D01*
X15800Y31550D02*
Y45775D01*
X15900Y39275D02*
Y45775D01*
X16000Y39519D02*
Y45775D01*
X16100Y39675D02*
Y45775D01*
X14407Y39800D02*
X16207D01*
X14401Y39900D02*
X16318D01*
X14332Y40200D02*
X18970D01*
X14292Y40300D02*
X18970D01*
X14241Y40400D02*
X18970D01*
X14179Y40500D02*
X18970D01*
X16200Y39792D02*
Y45775D01*
X16300Y39885D02*
Y45775D01*
X14386Y40000D02*
X16462D01*
X14364Y40100D02*
X16673D01*
X17738Y40000D02*
X18970D01*
X17527Y40100D02*
X18970D01*
X16400Y39961D02*
Y45775D01*
X16500Y40022D02*
Y45775D01*
X16600Y40071D02*
Y45775D01*
X16700Y40109D02*
Y45775D01*
X16800Y40138D02*
Y45775D01*
X16900Y40159D02*
Y45775D01*
X17000Y40171D02*
Y45775D01*
X17400Y40138D02*
Y45775D01*
X17500Y40109D02*
Y45775D01*
X17700Y40022D02*
Y45775D01*
X17100Y40175D02*
Y45775D01*
X17200Y40171D02*
Y45775D01*
X17300Y40159D02*
Y45775D01*
X17600Y40071D02*
Y45775D01*
X800Y41100D02*
X18970D01*
X800Y41200D02*
X18970D01*
X800Y41300D02*
X18970D01*
X800Y43100D02*
X23025D01*
X800Y43000D02*
X23109D01*
X800Y43200D02*
X22957D01*
X14103Y40600D02*
X18970D01*
X14009Y40700D02*
X18970D01*
X13892Y40800D02*
X18970D01*
X13739Y40900D02*
X18970D01*
X13509Y41000D02*
X18970D01*
X800Y43300D02*
X22903D01*
X6989Y43400D02*
X22859D01*
X7178Y43500D02*
X22825D01*
X7312Y43600D02*
X22800D01*
X7416Y43700D02*
X22784D01*
X7500Y43800D02*
X22776D01*
X7568Y43900D02*
X22776D01*
X7622Y44000D02*
X22784D01*
X7666Y44100D02*
X22800D01*
X7700Y44200D02*
X22825D01*
X7725Y44300D02*
X22859D01*
X7741Y44400D02*
X22902D01*
X7749Y44500D02*
X22957D01*
X7749Y44600D02*
X23025D01*
X7741Y44700D02*
X23108D01*
X800Y41400D02*
X26087D01*
X800Y41500D02*
X26298D01*
X800Y41600D02*
X28916D01*
X800Y41700D02*
X28954D01*
X800Y41800D02*
X29003D01*
X800Y41900D02*
X29064D01*
X800Y42000D02*
X29139D01*
X800Y42100D02*
X29232D01*
X800Y42200D02*
X29350D01*
X800Y42300D02*
X29506D01*
X800Y42400D02*
X29750D01*
X800Y42500D02*
X49200D01*
X800Y42600D02*
X49200D01*
X800Y42900D02*
X23213D01*
X800Y42700D02*
X23535D01*
X800Y42800D02*
X23347D01*
X7312Y45500D02*
X42636D01*
X7178Y45600D02*
X42636D01*
X6990Y45700D02*
X42636D01*
X6749Y45775D02*
X42636D01*
X7725Y44800D02*
X23212D01*
X7700Y44900D02*
X23347D01*
X7666Y45000D02*
X23535D01*
X7622Y45100D02*
X24005D01*
X7568Y45200D02*
X42636D01*
X7500Y45300D02*
X42636D01*
X7417Y45400D02*
X42636D01*
X18319Y39200D02*
X18970D01*
X18210Y39500D02*
X18970D01*
X18152Y39600D02*
X18970D01*
X18081Y39700D02*
X18970D01*
X17993Y39800D02*
X18970D01*
X17882Y39900D02*
X18970D01*
X18869Y39100D02*
X18970D01*
X21770Y38537D02*
Y39124D01*
X18292Y39300D02*
X18970D01*
Y39094D02*
Y41337D01*
X18256Y39400D02*
X18970D01*
X21770Y40750D02*
Y41337D01*
X18100Y39675D02*
Y45775D01*
X18200Y39519D02*
Y45775D01*
X18300Y39275D02*
Y45775D01*
X17800Y39961D02*
Y45775D01*
X17900Y39886D02*
Y45775D01*
X18000Y39793D02*
Y45775D01*
X18400Y39016D02*
Y45775D01*
X18500Y39050D02*
Y45775D01*
X18600Y39075D02*
Y45775D01*
X18700Y39091D02*
Y45775D01*
X18800Y39099D02*
Y45775D01*
X18900Y39099D02*
Y45775D01*
X21800Y40791D02*
Y45775D01*
X21770Y40900D02*
X21893D01*
X21770Y41000D02*
X21998D01*
X21770Y41100D02*
X22130D01*
X21770Y41200D02*
X22305D01*
X21770Y41300D02*
X22589D01*
X24032Y39100D02*
X26477D01*
X24012Y40800D02*
X25569D01*
X23926Y40900D02*
X25615D01*
X23821Y41000D02*
X25673D01*
X23689Y41100D02*
X25744D01*
X23514Y41200D02*
X25832D01*
X21900Y40907D02*
Y45775D01*
X22000Y41001D02*
Y45775D01*
X22100Y41079D02*
Y45775D01*
X22200Y41144D02*
Y45775D01*
X22300Y41197D02*
Y45775D01*
X22400Y41241D02*
Y45775D01*
X22500Y41276D02*
Y45775D01*
X23800Y41017D02*
Y42620D01*
X23900Y40927D02*
Y42606D01*
X24000Y40815D02*
Y42600D01*
X23500Y41206D02*
Y42716D01*
X22600Y41302D02*
Y45775D01*
X23600Y41155D02*
Y42675D01*
X23700Y41093D02*
Y42643D01*
X19000Y41337D02*
Y45775D01*
X19100Y41337D02*
Y45775D01*
X19200Y41337D02*
Y45775D01*
X19300Y41337D02*
Y45775D01*
X19400Y41337D02*
Y45775D01*
X19500Y41337D02*
Y45775D01*
X19600Y41337D02*
Y45775D01*
X19700Y41337D02*
Y45775D01*
X19800Y41337D02*
Y45775D01*
X19900Y41337D02*
Y45775D01*
X20000Y41337D02*
Y45775D01*
X20100Y41337D02*
Y45775D01*
X20200Y41337D02*
Y45775D01*
X20300Y41337D02*
Y45775D01*
X20400Y41337D02*
Y45775D01*
X20500Y41337D02*
Y45775D01*
X20600Y41337D02*
Y45775D01*
X20700Y41337D02*
Y45775D01*
X20800Y41337D02*
Y45775D01*
X20900Y41337D02*
Y45775D01*
X21000Y41337D02*
Y45775D01*
X21100Y41337D02*
Y45775D01*
X21200Y41337D02*
Y45775D01*
X21300Y41337D02*
Y45775D01*
X21400Y41337D02*
Y45775D01*
X21500Y41337D02*
Y45775D01*
X21600Y41337D02*
Y45775D01*
X18970Y41337D02*
X21770D01*
X21700D02*
Y45775D01*
X22800Y41333D02*
Y43602D01*
X22900Y41337D02*
Y43305D01*
X23200Y41307D02*
Y42911D01*
X23230Y41300D02*
X25943D01*
X23300Y41282D02*
Y42832D01*
X23100Y41324D02*
Y43009D01*
X23000Y41334D02*
Y43135D01*
X23400Y41248D02*
Y42768D01*
X24045Y45100D02*
X42636D01*
X22700Y41321D02*
Y45775D01*
X22800Y44098D02*
Y45775D01*
X22900Y44395D02*
Y45775D01*
X23000Y44565D02*
Y45775D01*
X23100Y44691D02*
Y45775D01*
X23200Y44789D02*
Y45775D01*
X23300Y44868D02*
Y45775D01*
X23400Y44932D02*
Y45775D01*
X23500Y44984D02*
Y45775D01*
X23600Y45026D02*
Y45775D01*
X23700Y45057D02*
Y45775D01*
X23800Y45080D02*
Y45775D01*
X23900Y45094D02*
Y45775D01*
X24000Y45100D02*
Y45775D01*
X24900Y8999D02*
Y14669D01*
X25100Y8995D02*
Y14606D01*
X25000Y9000D02*
Y14633D01*
X25200Y8985D02*
Y14587D01*
X25300Y8969D02*
Y14577D01*
X25400Y8948D02*
Y14575D01*
X25900Y8751D02*
Y14691D01*
X26126Y8600D02*
X26334D01*
X25985Y8700D02*
X26475D01*
X25500Y8922D02*
Y14581D01*
X25600Y8889D02*
Y14595D01*
X25700Y8850D02*
Y14618D01*
X25800Y8804D02*
Y14649D01*
X24100Y8794D02*
Y17607D01*
X24300Y8882D02*
Y15187D01*
X24200Y8841D02*
Y15399D01*
X24400Y8916D02*
Y15043D01*
X24600Y8966D02*
Y14844D01*
X24500Y8943D02*
Y14932D01*
X26100Y8620D02*
Y14807D01*
X26200Y8540D02*
Y14886D01*
X26300Y8573D02*
Y14984D01*
X24700Y8982D02*
Y14773D01*
X24800Y8993D02*
Y14715D01*
X26000Y8690D02*
Y14742D01*
X26400Y8649D02*
Y15109D01*
X25809Y8800D02*
X26651D01*
X25569Y8900D02*
X26891D01*
X24978Y9000D02*
X27482D01*
X27518D02*
X30022D01*
X25623Y14600D02*
X28175D01*
X28000Y8933D02*
Y14666D01*
X28109Y8900D02*
X29431D01*
X28100Y8903D02*
Y14625D01*
X27700Y8989D02*
Y14861D01*
X27600Y8997D02*
Y14959D01*
X27800Y8976D02*
Y14782D01*
X27900Y8957D02*
Y14718D01*
X26500Y8715D02*
Y15280D01*
X26600Y8773D02*
Y15576D01*
X26700Y8823D02*
Y16869D01*
X26800Y8866D02*
Y16915D01*
X26900Y8903D02*
Y16973D01*
X27000Y8933D02*
Y17044D01*
X27100Y8957D02*
Y17132D01*
X27200Y8976D02*
Y17243D01*
X27400Y8997D02*
Y15255D01*
X27300Y8989D02*
Y15552D01*
X27500Y9000D02*
Y15085D01*
X26500Y16370D02*
Y16806D01*
X26551Y15400D02*
X27341D01*
X25300Y17073D02*
Y17184D01*
X26300Y16666D02*
Y16777D01*
X26400Y16541D02*
Y16787D01*
X26582Y15500D02*
X27312D01*
X26605Y15600D02*
X27291D01*
X26619Y15700D02*
X27279D01*
X26625Y15800D02*
X27275D01*
X26600Y16074D02*
Y16833D01*
X26623Y15900D02*
X27279D01*
X26613Y16000D02*
X27291D01*
X24200Y16251D02*
Y17543D01*
X24400Y16607D02*
Y17450D01*
X24300Y16463D02*
Y17491D01*
X24500Y16718D02*
Y17418D01*
X24600Y16806D02*
Y17395D01*
X24700Y16877D02*
Y17381D01*
X24800Y16935D02*
Y17375D01*
X24900Y16981D02*
Y17377D01*
X27300Y16048D02*
Y17387D01*
X25000Y17017D02*
Y17387D01*
X25100Y17044D02*
Y17406D01*
X25200Y17063D02*
Y17310D01*
X26216Y14900D02*
X27658D01*
X25920Y14700D02*
X27931D01*
X26090Y14800D02*
X27775D01*
X26393Y15100D02*
X27489D01*
X26314Y15000D02*
X27565D01*
X26356Y16600D02*
X27564D01*
X26594Y16100D02*
X27312D01*
X26457Y15200D02*
X27428D01*
X26509Y15300D02*
X27379D01*
X26567Y16200D02*
X27341D01*
X26531Y16300D02*
X27379D01*
X26485Y16400D02*
X27428D01*
X26427Y16500D02*
X27489D01*
X26268Y16700D02*
X27657D01*
X26473Y16800D02*
X27775D01*
X26770Y16900D02*
X27931D01*
X26940Y17000D02*
X28175D01*
X27066Y17100D02*
X38579D01*
X26863Y19100D02*
X33482D01*
X27400Y16345D02*
Y17598D01*
X27164Y17200D02*
X38575D01*
X27243Y17300D02*
X38579D01*
X27118Y18900D02*
X33737D01*
X27007Y19000D02*
X33593D01*
X27307Y17400D02*
X38591D01*
X27206Y18800D02*
X33949D01*
X28300Y8823D02*
Y14570D01*
X28525Y8700D02*
X29015D01*
X28500Y8716D02*
Y14550D01*
X28200Y8866D02*
Y14593D01*
X28349Y8800D02*
X29191D01*
X28400Y8773D02*
Y14556D01*
X28666Y8600D02*
X28874D01*
X31206D02*
X31414D01*
X31065Y8700D02*
X31555D01*
X28600Y8649D02*
Y14552D01*
X30889Y8800D02*
X31731D01*
X30649Y8900D02*
X31971D01*
X28700Y8573D02*
Y14562D01*
X28800Y8539D02*
Y14581D01*
X28900Y8620D02*
Y14608D01*
X29000Y8690D02*
Y14644D01*
X29100Y8751D02*
Y14690D01*
X29200Y8804D02*
Y14748D01*
X33500Y8762D02*
Y19082D01*
X33700Y8635D02*
Y18923D01*
X33600Y8703D02*
Y18994D01*
X29300Y8850D02*
Y14819D01*
X29400Y8889D02*
Y14907D01*
X29500Y8922D02*
Y15018D01*
X33400Y8814D02*
Y19193D01*
X33746Y8600D02*
X33954D01*
X33605Y8700D02*
X34095D01*
X33429Y8800D02*
X34271D01*
X33189Y8900D02*
X34511D01*
X36300Y8589D02*
Y11776D01*
X36286Y8600D02*
X36494D01*
X36400Y8522D02*
Y11776D01*
X36200Y8663D02*
Y11784D01*
X36500Y8605D02*
Y11784D01*
X36145Y8700D02*
X36635D01*
X35969Y8800D02*
X36811D01*
X33800Y8557D02*
Y18865D01*
X34000Y8635D02*
Y13332D01*
X33900Y8556D02*
Y13575D01*
X34200Y8762D02*
Y13058D01*
X34100Y8703D02*
Y13175D01*
X35900Y8833D02*
Y11859D01*
X34300Y8814D02*
Y12965D01*
X36100Y8728D02*
Y11800D01*
X36600Y8677D02*
Y11800D01*
X36700Y8740D02*
Y11825D01*
X36000Y8784D02*
Y11825D01*
X36800Y8794D02*
Y11859D01*
X36900Y8841D02*
Y11902D01*
X38600Y8751D02*
Y16952D01*
X28875Y14600D02*
X34048D01*
X29119Y14700D02*
X34119D01*
X29275Y14800D02*
X34207D01*
X29392Y14900D02*
X34318D01*
X29485Y15000D02*
X34462D01*
X29561Y15100D02*
X34673D01*
X34400Y8858D02*
Y12889D01*
X34600Y8927D02*
Y12779D01*
X34500Y8896D02*
Y12828D01*
X30058Y9000D02*
X32562D01*
X34700Y8953D02*
Y12741D01*
X34800Y8973D02*
Y12712D01*
X34900Y8987D02*
Y12691D01*
X29600Y8948D02*
Y15162D01*
X29700Y8969D02*
Y15373D01*
X33900Y14275D02*
Y18819D01*
X34000Y14518D02*
Y18783D01*
X34100Y14675D02*
Y18756D01*
X34200Y14792D02*
Y18737D01*
X34300Y14885D02*
Y18727D01*
X34400Y14961D02*
Y18725D01*
X34500Y15022D02*
Y18731D01*
X34600Y15071D02*
Y18745D01*
X34700Y15109D02*
Y18768D01*
X34800Y15138D02*
Y18799D01*
X34900Y15159D02*
Y18841D01*
X32598Y9000D02*
X35102D01*
X35138D02*
X37642D01*
X35300Y8991D02*
Y12347D01*
X35400Y8979D02*
Y12213D01*
X35600Y8938D02*
Y12025D01*
X35500Y8962D02*
Y12109D01*
X35700Y8909D02*
Y11957D01*
X35729Y8900D02*
X37051D01*
X35800Y8874D02*
Y11903D01*
X37000Y8882D02*
Y11957D01*
X37100Y8916D02*
Y12025D01*
X37200Y8943D02*
Y12108D01*
X37300Y8966D02*
Y12212D01*
X35000Y8996D02*
Y12679D01*
X35100Y9000D02*
Y12675D01*
X35000Y15171D02*
Y18892D01*
X35100Y15175D02*
Y18957D01*
X29275Y16800D02*
X38641D01*
X28875Y17000D02*
X38591D01*
X35200Y8998D02*
Y12535D01*
X37400Y8982D02*
Y12347D01*
X37500Y8993D02*
Y12535D01*
X37600Y8999D02*
Y13006D01*
X35200Y15171D02*
Y19036D01*
X25900Y19263D02*
Y21618D01*
X26000Y19255D02*
Y21762D01*
X24100Y19643D02*
Y21461D01*
X25700Y19518D02*
Y21419D01*
X25800Y19407D02*
Y21507D01*
X27700Y16739D02*
Y28287D01*
X27900Y16882D02*
Y27931D01*
X27800Y16818D02*
Y28075D01*
X26100Y19269D02*
Y21973D01*
X26400Y19263D02*
Y32100D01*
X28000Y16934D02*
Y27820D01*
X26500Y19244D02*
Y32084D01*
X26600Y19217D02*
Y32076D01*
X26800Y19135D02*
Y32084D01*
X26900Y19077D02*
Y32100D01*
X26200Y19275D02*
Y32159D01*
X26700Y19181D02*
Y32076D01*
X26300Y19273D02*
Y32125D01*
X27400Y18452D02*
Y32325D01*
X27500Y16515D02*
Y32408D01*
X27600Y16641D02*
Y32512D01*
X27000Y19006D02*
Y32125D01*
X27100Y18918D02*
Y32159D01*
X27200Y18807D02*
Y32202D01*
X27300Y18663D02*
Y32257D01*
X28300Y17030D02*
Y27603D01*
X26652Y19200D02*
X33394D01*
X28500Y17050D02*
Y27520D01*
X25806Y19400D02*
X33265D01*
X25877Y19300D02*
X33323D01*
X25718Y19500D02*
X33219D01*
X28900Y16992D02*
Y27463D01*
X29100Y16910D02*
Y27483D01*
X29200Y16852D02*
Y27506D01*
X28600Y17048D02*
Y27493D01*
X28700Y17038D02*
Y27475D01*
X28800Y17019D02*
Y27465D01*
X29000Y16956D02*
Y27469D01*
X29300Y16781D02*
Y27537D01*
X29400Y16693D02*
Y27578D01*
X29500Y16582D02*
Y27630D01*
X28100Y16975D02*
Y27732D01*
X28400Y17044D02*
Y27557D01*
X28200Y17007D02*
Y27661D01*
X29800Y8985D02*
Y27872D01*
X29900Y8995D02*
Y27997D01*
X30000Y9000D02*
Y28168D01*
X29600Y16438D02*
Y27694D01*
X29700Y16227D02*
Y27774D01*
X30100Y8999D02*
Y28463D01*
X30200Y8993D02*
Y39954D01*
X24300Y19759D02*
Y21318D01*
X24400Y19800D02*
Y21266D01*
X24500Y19832D02*
Y21225D01*
X24600Y19855D02*
Y21193D01*
X24700Y19869D02*
Y21170D01*
X24800Y19875D02*
Y21156D01*
X25200Y19817D02*
Y21181D01*
X25400Y19735D02*
Y21244D01*
X25500Y19677D02*
Y21290D01*
X24900Y19873D02*
Y21150D01*
X25000Y19863D02*
Y21152D01*
X25100Y19844D02*
Y21162D01*
X25300Y19781D02*
Y21208D01*
X24100Y23339D02*
Y26132D01*
X24200Y19707D02*
Y21382D01*
Y23418D02*
Y26243D01*
X24300Y23482D02*
Y26387D01*
X24400Y23534D02*
Y26598D01*
X24500Y23575D02*
Y42694D01*
X25600Y19606D02*
Y21348D01*
X25700Y23381D02*
Y32513D01*
X25600Y23452D02*
Y32647D01*
X24600Y23607D02*
Y42740D01*
X24700Y23630D02*
Y42798D01*
X25500Y23510D02*
Y32835D01*
X25400Y23556D02*
Y45775D01*
X25463Y19700D02*
X33156D01*
X25607Y19600D02*
X33183D01*
X25252Y19800D02*
X33137D01*
X25275Y21200D02*
X32075D01*
X25519Y21300D02*
X32081D01*
X25675Y21400D02*
X32095D01*
X25792Y21500D02*
X32118D01*
X25885Y21600D02*
X32149D01*
X25961Y21700D02*
X32191D01*
X26022Y21800D02*
X32242D01*
X26071Y21900D02*
X32307D01*
X26109Y22000D02*
X32386D01*
X26138Y22100D02*
X32484D01*
X25900Y23182D02*
Y32325D01*
X25961Y23100D02*
X33413D01*
X25886Y23200D02*
X33309D01*
X25675Y23400D02*
X33157D01*
X25800Y23293D02*
Y32409D01*
X25793Y23300D02*
X33225D01*
X25519Y23500D02*
X33103D01*
X26159Y22200D02*
X32609D01*
X26171Y22300D02*
X32780D01*
X26175Y22400D02*
X33076D01*
X26000Y23038D02*
Y32257D01*
X26100Y22827D02*
Y32203D01*
X26071Y22900D02*
X33735D01*
X26022Y23000D02*
X33547D01*
X30300Y8982D02*
Y39966D01*
X30600Y8916D02*
Y40054D01*
X30700Y8882D02*
Y40103D01*
X30400Y8966D02*
Y39986D01*
X32100Y8938D02*
Y20927D01*
X30500Y8944D02*
Y40016D01*
X32200Y8962D02*
Y20630D01*
X32400Y8991D02*
Y20334D01*
X32300Y8979D02*
Y20460D01*
X32600Y9000D02*
Y20157D01*
X32500Y8998D02*
Y20236D01*
X32700Y8996D02*
Y20093D01*
X32800Y8987D02*
Y20041D01*
X31100Y8677D02*
Y40450D01*
X31200Y8605D02*
Y40606D01*
X31300Y8522D02*
Y40850D01*
X30800Y8841D02*
Y40164D01*
X30900Y8794D02*
Y40239D01*
X31000Y8740D02*
Y40332D01*
X31400Y8589D02*
Y45775D01*
X31500Y8663D02*
Y45775D01*
X31600Y8728D02*
Y45775D01*
X31700Y8784D02*
Y45775D01*
X31800Y8832D02*
Y45775D01*
X31900Y8874D02*
Y45775D01*
X32000Y8909D02*
Y45775D01*
X33100Y8927D02*
Y19945D01*
X33300Y8858D02*
Y19337D01*
X33200Y8896D02*
Y19549D01*
X32900Y8973D02*
Y20000D01*
X33000Y8953D02*
Y19968D01*
X36300Y14275D02*
Y23508D01*
X36900Y14148D02*
Y23918D01*
X37000Y14093D02*
Y24062D01*
X37100Y14025D02*
Y24273D01*
X36400Y14274D02*
Y23544D01*
X36600Y14250D02*
Y23648D01*
X36700Y14225D02*
Y23719D01*
X36800Y14191D02*
Y23807D01*
X37600Y13044D02*
Y26465D01*
X37700Y9000D02*
Y26523D01*
X37800Y8995D02*
Y26594D01*
X37200Y13942D02*
Y26337D01*
X37300Y13838D02*
Y26356D01*
X37400Y13703D02*
Y26383D01*
X37500Y13515D02*
Y26419D01*
X38200Y8922D02*
Y27148D01*
X38400Y8850D02*
Y39191D01*
X38500Y8804D02*
Y39191D01*
X37900Y8985D02*
Y26682D01*
X38000Y8969D02*
Y26793D01*
X38100Y8948D02*
Y26937D01*
X38300Y8889D02*
Y39191D01*
X33500Y22413D02*
Y23032D01*
X33800Y22331D02*
Y22875D01*
X33400Y22423D02*
Y23111D01*
X33700Y22367D02*
Y22916D01*
X33600Y22394D02*
Y22968D01*
X34300Y21957D02*
Y22802D01*
X34400Y21813D02*
Y22812D01*
X34500Y21602D02*
Y22831D01*
X33900Y22285D02*
Y22843D01*
X34000Y22227D02*
Y22820D01*
X34100Y22156D02*
Y22806D01*
X34200Y22068D02*
Y22800D01*
X32100Y21423D02*
Y45775D01*
X32200Y21720D02*
Y45775D01*
X32300Y21890D02*
Y45775D01*
X32400Y22016D02*
Y45775D01*
X32500Y22114D02*
Y45775D01*
X32600Y22193D02*
Y45775D01*
X32700Y22257D02*
Y45775D01*
X32800Y22309D02*
Y45775D01*
X32900Y22350D02*
Y45775D01*
X33100Y22405D02*
Y23505D01*
X33000Y22382D02*
Y23802D01*
X33300Y22425D02*
Y23209D01*
X33200Y22419D02*
Y23335D01*
X34800Y21151D02*
Y22940D01*
X34600Y21205D02*
Y22858D01*
X34700Y21182D02*
Y22894D01*
X34900Y21109D02*
Y22998D01*
X35300Y15159D02*
Y19134D01*
X35400Y15139D02*
Y19259D01*
X35600Y15071D02*
Y19726D01*
X35000Y21058D02*
Y23069D01*
X35100Y20993D02*
Y23157D01*
X35500Y15109D02*
Y19430D01*
X35200Y20914D02*
Y23268D01*
X35400Y20691D02*
Y23566D01*
X35500Y20520D02*
Y23525D01*
X35600Y20224D02*
Y23493D01*
X35300Y20816D02*
Y23412D01*
X35347Y23500D02*
X35575D01*
X36100Y14675D02*
Y23462D01*
X36200Y14519D02*
Y23481D01*
X36500Y14266D02*
Y23590D01*
X35700Y15022D02*
Y23470D01*
X35800Y14961D02*
Y23456D01*
X35900Y14886D02*
Y23450D01*
X36000Y14793D02*
Y23452D01*
X38826Y8600D02*
X39034D01*
X38685Y8700D02*
X39175D01*
X38509Y8800D02*
X39351D01*
X38269Y8900D02*
X39591D01*
X37678Y9000D02*
X40182D01*
X39400Y8823D02*
Y16025D01*
X39500Y8866D02*
Y15993D01*
X39600Y8903D02*
Y15970D01*
X39700Y8933D02*
Y15956D01*
X39800Y8957D02*
Y15950D01*
X39900Y8976D02*
Y15952D01*
X40000Y8989D02*
Y15962D01*
X38900Y8540D02*
Y16359D01*
X39100Y8649D02*
Y16182D01*
X39000Y8573D02*
Y16261D01*
X39200Y8715D02*
Y16118D01*
X40100Y8997D02*
Y15981D01*
X39300Y8773D02*
Y16066D01*
X40200Y9000D02*
Y16008D01*
X40900Y8866D02*
Y16212D01*
X40700Y8933D02*
Y16307D01*
X40300Y8997D02*
Y16044D01*
X40400Y8989D02*
Y16090D01*
X40500Y8976D02*
Y16148D01*
X40600Y8957D02*
Y16219D01*
X41366Y8600D02*
X41574D01*
X41225Y8700D02*
X41715D01*
X41049Y8800D02*
X41891D01*
X40809Y8900D02*
X42131D01*
X40218Y9000D02*
X42722D01*
X41600Y8620D02*
Y15766D01*
X41700Y8690D02*
Y15747D01*
X41800Y8751D02*
Y15736D01*
X41900Y8804D02*
Y15734D01*
X42758Y9000D02*
X45262D01*
X42000Y8850D02*
Y15739D01*
X41300Y8649D02*
Y15878D01*
X41400Y8573D02*
Y15831D01*
X41500Y8539D02*
Y15794D01*
X41000Y8823D02*
Y16100D01*
X41200Y8716D02*
Y15937D01*
X41100Y8773D02*
Y16010D01*
X42100Y8889D02*
Y15752D01*
X42200Y8922D02*
Y15774D01*
X42300Y8948D02*
Y15805D01*
X42400Y8969D02*
Y15845D01*
X42500Y8985D02*
Y15896D01*
X42600Y8995D02*
Y15959D01*
X42700Y9000D02*
Y16037D01*
X37460Y13600D02*
X43681D01*
X37402Y13700D02*
X43675D01*
X37331Y13800D02*
X43677D01*
X37243Y13900D02*
X43687D01*
X37132Y14000D02*
X43706D01*
X36988Y14100D02*
X43733D01*
X37600Y13000D02*
X43907D01*
X37594Y12900D02*
X43986D01*
X37598Y13100D02*
X43843D01*
X37569Y13300D02*
X43750D01*
X37542Y13400D02*
X43718D01*
X37588Y13200D02*
X43791D01*
X37506Y13500D02*
X43695D01*
X29759Y16000D02*
X39475D01*
X29775Y15800D02*
X41482D01*
X29771Y15900D02*
X41261D01*
X29671Y16300D02*
X38958D01*
X29738Y16100D02*
X39231D01*
X29709Y16200D02*
X39075D01*
X36777Y14200D02*
X43769D01*
X36292Y14300D02*
X43815D01*
X36256Y14400D02*
X43873D01*
X40419Y16100D02*
X41000D01*
X40575Y16200D02*
X40910D01*
X36210Y14500D02*
X43944D01*
X40175Y16000D02*
X41112D01*
X37065Y12000D02*
X45832D01*
X36598Y11800D02*
X46009D01*
X36895Y11900D02*
X45911D01*
X36152Y14600D02*
X44032D01*
X37191Y12100D02*
X45768D01*
X36081Y14700D02*
X44143D01*
X37432Y12400D02*
X45643D01*
X37289Y12200D02*
X45716D01*
X37368Y12300D02*
X45674D01*
X37557Y12700D02*
X44210D01*
X37580Y12800D02*
X44084D01*
X37484Y12500D02*
X44677D01*
X37526Y12600D02*
X44380D01*
X35527Y15100D02*
X49200D01*
X29622Y15200D02*
X49200D01*
X29671Y15300D02*
X49200D01*
X29709Y15400D02*
X49200D01*
X29738Y15500D02*
X49200D01*
X29759Y15600D02*
X49200D01*
X29771Y15700D02*
X49200D01*
X35993Y14800D02*
X44287D01*
X35882Y14900D02*
X44498D01*
X35738Y15000D02*
X49200D01*
X42285Y15800D02*
X49200D01*
X42507Y15900D02*
X49200D01*
X42655Y16000D02*
X49200D01*
X42768Y16100D02*
X49200D01*
X43906Y8600D02*
X44114D01*
X43765Y8700D02*
X44255D01*
X43589Y8800D02*
X44431D01*
X44600Y8874D02*
Y12518D01*
X43349Y8900D02*
X44671D01*
X44700Y8909D02*
Y12495D01*
X44800Y8938D02*
Y12481D01*
X45800Y8928D02*
Y12047D01*
X44900Y8962D02*
Y12475D01*
X45000Y8979D02*
Y12477D01*
X45100Y8991D02*
Y12487D01*
X45200Y8998D02*
Y12506D01*
X45300Y9000D02*
Y12533D01*
X43800Y8677D02*
Y13180D01*
X44000Y8522D02*
Y12884D01*
X43900Y8605D02*
Y13010D01*
X42800Y8999D02*
Y16133D01*
X43700Y8740D02*
Y13477D01*
X42900Y8993D02*
Y16256D01*
X44100Y8589D02*
Y12786D01*
X44200Y8663D02*
Y12707D01*
X44300Y8728D02*
Y12643D01*
X44400Y8784D02*
Y12591D01*
X44500Y8832D02*
Y12550D01*
X45400Y8996D02*
Y12569D01*
X45500Y8987D02*
Y12615D01*
X46446Y8600D02*
X46654D01*
X46305Y8700D02*
X46795D01*
X46129Y8800D02*
X46971D01*
X45889Y8900D02*
X47211D01*
X45298Y9000D02*
X47802D01*
X46500Y8557D02*
Y11525D01*
X48986Y8600D02*
X49200D01*
X48845Y8700D02*
X49200D01*
X48669Y8800D02*
X49200D01*
X48429Y8900D02*
X49200D01*
X46200Y8762D02*
Y11657D01*
X46600Y8556D02*
Y11500D01*
X46400Y8635D02*
Y11559D01*
X46000Y8858D02*
Y11809D01*
X45900Y8896D02*
Y11913D01*
X46300Y8703D02*
Y11603D01*
X46100Y8814D02*
Y11725D01*
X46700Y8635D02*
Y11484D01*
X46800Y8703D02*
Y11476D01*
X46900Y8762D02*
Y11476D01*
X47000Y8814D02*
Y11484D01*
X47100Y8858D02*
Y11500D01*
X47200Y8896D02*
Y11525D01*
X47300Y8927D02*
Y11559D01*
X47400Y8953D02*
Y11602D01*
X47500Y8973D02*
Y11657D01*
X47600Y8987D02*
Y11725D01*
X47098Y11500D02*
X49200D01*
X47395Y11600D02*
X49200D01*
X47565Y11700D02*
X49200D01*
X47700Y8996D02*
Y11808D01*
X47838Y9000D02*
X49200D01*
X47800Y9000D02*
Y11912D01*
X47691Y11800D02*
X49200D01*
X47900Y8998D02*
Y12047D01*
X47789Y11900D02*
X49200D01*
X47868Y12000D02*
X49200D01*
X45600Y8973D02*
Y12673D01*
X45700Y8953D02*
Y12235D01*
X45173Y12500D02*
X45620D01*
X45470Y12600D02*
X45606D01*
X48000Y8991D02*
Y12235D01*
X47932Y12100D02*
X49200D01*
X48100Y8979D02*
Y12705D01*
X46163Y13900D02*
X46423D01*
X47984Y12200D02*
X49200D01*
X48026Y12300D02*
X49200D01*
X48042Y13100D02*
X49200D01*
X48006Y13200D02*
X49200D01*
X47960Y13300D02*
X49200D01*
X47902Y13400D02*
X49200D01*
X47831Y13500D02*
X49200D01*
X47743Y13600D02*
X49200D01*
X48057Y12400D02*
X49200D01*
X48080Y12500D02*
X49200D01*
X48094Y12600D02*
X49200D01*
X48100Y12700D02*
X49200D01*
X48098Y12800D02*
X49200D01*
X48088Y12900D02*
X49200D01*
X48069Y13000D02*
X49200D01*
X46035Y14300D02*
X49200D01*
X45906Y14500D02*
X49200D01*
X45818Y14600D02*
X49200D01*
X45707Y14700D02*
X49200D01*
X45563Y14800D02*
X49200D01*
X45352Y14900D02*
X49200D01*
X42857Y16200D02*
X49200D01*
X47632Y13700D02*
X49200D01*
X47488Y13800D02*
X49200D01*
X47277Y13900D02*
X49200D01*
X46144Y14000D02*
X49200D01*
X46117Y14100D02*
X49200D01*
X46081Y14200D02*
X49200D01*
X45977Y14400D02*
X49200D01*
X27359Y17500D02*
X38612D01*
X27400Y17600D02*
X38641D01*
X27432Y17700D02*
X38679D01*
X27455Y17800D02*
X38728D01*
X27469Y17900D02*
X38789D01*
X27475Y18000D02*
X38864D01*
X38700Y8690D02*
Y16655D01*
X29622Y16400D02*
X38865D01*
X38800Y8620D02*
Y16485D01*
X29486Y16600D02*
X38728D01*
X29119Y16900D02*
X38612D01*
X29561Y16500D02*
X38789D01*
X29393Y16700D02*
X38679D01*
X38600Y17448D02*
Y39191D01*
X27473Y18100D02*
X38957D01*
X38700Y17745D02*
Y39191D01*
X27463Y18200D02*
X39075D01*
X27444Y18300D02*
X39231D01*
X27417Y18400D02*
X39475D01*
X38800Y17915D02*
Y39191D01*
X38900Y18041D02*
Y39191D01*
X39000Y18139D02*
Y39191D01*
X39100Y18218D02*
Y45775D01*
X39200Y18282D02*
Y45775D01*
X39300Y18334D02*
Y45775D01*
X39400Y18375D02*
Y45775D01*
X40692Y16300D02*
X40837D01*
X40575Y18200D02*
X41595D01*
X40419Y18300D02*
X49200D01*
X40175Y18400D02*
X49200D01*
X27381Y18500D02*
X49200D01*
X40800Y8903D02*
Y16361D01*
X40861Y17900D02*
X41033D01*
X40786Y18000D02*
X41156D01*
X40693Y18100D02*
X41321D01*
X41100Y17957D02*
Y23416D01*
X39500Y18407D02*
Y45775D01*
X40200Y18392D02*
Y26684D01*
X40100Y18419D02*
Y26788D01*
X39600Y18430D02*
Y45775D01*
X39700Y18444D02*
Y45775D01*
X40300Y18356D02*
Y26600D01*
X39800Y18450D02*
Y45775D01*
X40800Y17982D02*
Y23611D01*
X40900Y17838D02*
Y23532D01*
X41000Y17868D02*
Y23468D01*
X40500Y18252D02*
Y24005D01*
X40400Y18310D02*
Y24302D01*
X40700Y18093D02*
Y23709D01*
X40600Y18181D02*
Y23835D01*
X27335Y18600D02*
X49200D01*
X27277Y18700D02*
X49200D01*
X34801Y18800D02*
X49200D01*
X35013Y18900D02*
X49200D01*
X35157Y19000D02*
X49200D01*
X35268Y19100D02*
X49200D01*
X35356Y19200D02*
X49200D01*
X35427Y19300D02*
X49200D01*
X35485Y19400D02*
X49200D01*
X35531Y19500D02*
X49200D01*
X35567Y19600D02*
X49200D01*
X35594Y19700D02*
X49200D01*
X35613Y19800D02*
X49200D01*
X35623Y19900D02*
X49200D01*
X35625Y20000D02*
X49200D01*
X35551Y20400D02*
X49200D01*
X35293Y23400D02*
X41135D01*
X35509Y20500D02*
X49200D01*
X35458Y20600D02*
X49200D01*
X39900Y18448D02*
Y27110D01*
X35619Y20100D02*
X49200D01*
X40000Y18438D02*
Y26922D01*
X36275Y23500D02*
X40947D01*
X35605Y20200D02*
X49200D01*
X35582Y20300D02*
X49200D01*
X34555Y21400D02*
X49200D01*
X34532Y21500D02*
X49200D01*
X34501Y21600D02*
X49200D01*
X34459Y21700D02*
X49200D01*
X34408Y21800D02*
X49200D01*
X34343Y21900D02*
X49200D01*
X35393Y20700D02*
X49200D01*
X35314Y20800D02*
X49200D01*
X35216Y20900D02*
X49200D01*
X35091Y21000D02*
X49200D01*
X34920Y21100D02*
X49200D01*
X34624Y21200D02*
X49200D01*
X34569Y21300D02*
X49200D01*
X34041Y22200D02*
X49200D01*
X33870Y22300D02*
X49200D01*
X33574Y22400D02*
X49200D01*
X26171Y22500D02*
X49200D01*
X26159Y22600D02*
X49200D01*
X26138Y22700D02*
X49200D01*
X26109Y22800D02*
X49200D01*
X34264Y22000D02*
X49200D01*
X34166Y22100D02*
X49200D01*
X34715Y22900D02*
X49200D01*
X34903Y23000D02*
X49200D01*
X35037Y23100D02*
X49200D01*
X35141Y23200D02*
X49200D01*
X35225Y23300D02*
X49200D01*
X43300Y8916D02*
Y25212D01*
X43400Y8882D02*
Y25347D01*
X43500Y8841D02*
Y25535D01*
X43000Y8982D02*
Y16421D01*
X43100Y8966D02*
Y16695D01*
X43200Y8944D02*
Y25108D01*
X43600Y8794D02*
Y26005D01*
X46000Y14363D02*
Y26231D01*
X46100Y14152D02*
Y26245D01*
X45600Y14777D02*
Y26256D01*
X45700Y14706D02*
Y26237D01*
X45800Y14618D02*
Y26227D01*
X45900Y14507D02*
Y26225D01*
X43700Y13973D02*
Y39542D01*
X43800Y14270D02*
Y39640D01*
X43900Y14440D02*
Y39761D01*
X44000Y14566D02*
Y39918D01*
X44200Y14743D02*
Y39741D01*
X44100Y14664D02*
Y39890D01*
X46200Y13793D02*
Y26268D01*
X46300Y13847D02*
Y26299D01*
X46400Y13891D02*
Y26341D01*
X45500Y14835D02*
Y26283D01*
X44300Y14807D02*
Y39624D01*
X46500Y13925D02*
Y26392D01*
X46600Y13950D02*
Y26457D01*
X46700Y13966D02*
Y26536D01*
X46800Y13974D02*
Y26634D01*
X47500Y13793D02*
Y39236D01*
X46900Y13974D02*
Y26759D01*
X47000Y13966D02*
Y26930D01*
X47100Y13950D02*
Y27225D01*
X48000Y13215D02*
Y39198D01*
X48100Y12745D02*
Y39213D01*
X48200Y8962D02*
Y39234D01*
X47600Y13725D02*
Y39214D01*
X47700Y13642D02*
Y39199D01*
X47800Y13538D02*
Y39192D01*
X47900Y13403D02*
Y39191D01*
X48400Y8909D02*
Y39302D01*
X48500Y8874D02*
Y39349D01*
X48600Y8833D02*
Y39407D01*
X47300Y13891D02*
Y39304D01*
X47200Y13925D02*
Y39352D01*
X48300Y8938D02*
Y39264D01*
X47400Y13848D02*
Y39266D01*
X49100Y8504D02*
Y39955D01*
X49200Y8406D02*
Y40212D01*
X49200Y8406D02*
Y40211D01*
X48700Y8784D02*
Y39476D01*
X48800Y8728D02*
Y39560D01*
X48900Y8663D02*
Y39662D01*
X49000Y8589D02*
Y39789D01*
X41200Y18030D02*
Y23375D01*
X41300Y18089D02*
Y23343D01*
X41400Y18136D02*
Y23320D01*
X41500Y18173D02*
Y23306D01*
X41600Y18201D02*
Y23300D01*
X41700Y18220D02*
Y23302D01*
X41800Y18231D02*
Y23312D01*
X42300Y18162D02*
Y23498D01*
X42400Y18122D02*
Y23569D01*
X41900Y18234D02*
Y23331D01*
X42000Y18228D02*
Y23358D01*
X42100Y18215D02*
Y23394D01*
X42200Y18193D02*
Y23440D01*
X42800Y17834D02*
Y24123D01*
X42900Y17711D02*
Y24902D01*
X43000Y17546D02*
Y24957D01*
X42500Y18071D02*
Y23657D01*
X42600Y18008D02*
Y23768D01*
X42700Y17930D02*
Y23912D01*
X44400Y14859D02*
Y39529D01*
X44600Y14932D02*
Y39385D01*
X44500Y14900D02*
Y39450D01*
X43100Y17272D02*
Y25025D01*
X44700Y14955D02*
Y27049D01*
X44900Y14975D02*
Y26693D01*
X44800Y14969D02*
Y26837D01*
X42930Y16300D02*
X49200D01*
X42989Y16400D02*
X49200D01*
X43036Y16500D02*
X49200D01*
X43073Y16600D02*
X49200D01*
X43101Y16700D02*
X49200D01*
X43022Y17500D02*
X49200D01*
X43120Y16800D02*
X49200D01*
X43131Y16900D02*
X49200D01*
X43134Y17000D02*
X49200D01*
X43128Y17100D02*
X49200D01*
X43115Y17200D02*
X49200D01*
X43093Y17300D02*
X49200D01*
X43062Y17400D02*
X49200D01*
X42830Y17800D02*
X49200D01*
X42734Y17900D02*
X49200D01*
X42611Y18000D02*
X49200D01*
X42446Y18100D02*
X49200D01*
X42172Y18200D02*
X49200D01*
X42115Y23400D02*
X49200D01*
X42303Y23500D02*
X49200D01*
X45000Y14973D02*
Y26582D01*
X45400Y14881D02*
Y26319D01*
X45300Y14917D02*
Y26365D01*
X45200Y14944D02*
Y26423D01*
X45100Y14963D02*
Y26494D01*
X42971Y17600D02*
X49200D01*
X42908Y17700D02*
X49200D01*
X24164Y26200D02*
X33134D01*
X24243Y26300D02*
X33177D01*
X24307Y26400D02*
X33232D01*
X24359Y26500D02*
X33300D01*
X24400Y26600D02*
X33383D01*
X24432Y26700D02*
X33487D01*
X25275Y23600D02*
X33059D01*
X33200Y24765D02*
Y25157D01*
X33100Y24595D02*
Y25400D01*
X33300Y24891D02*
Y25000D01*
X24455Y26800D02*
X33622D01*
X24469Y26900D02*
X33810D01*
X24475Y27000D02*
X34283D01*
X24300Y27663D02*
Y39772D01*
X24277Y27700D02*
X28143D01*
X24206Y27800D02*
X28021D01*
X24100Y27918D02*
Y39200D01*
X24118Y27900D02*
X27925D01*
X24200Y27807D02*
Y39394D01*
X24335Y27600D02*
X28306D01*
X24381Y27500D02*
X28573D01*
X27700Y29139D02*
Y32647D01*
X27800Y29350D02*
Y32835D01*
X30000Y29258D02*
Y39954D01*
X30100Y28962D02*
Y39950D01*
X24463Y27200D02*
X35833D01*
X24473Y27100D02*
X35869D01*
X24444Y27300D02*
X35806D01*
X24417Y27400D02*
X35787D01*
X29177Y27500D02*
X35777D01*
X29444Y27600D02*
X35775D01*
X34978Y26800D02*
X36044D01*
X34790Y26900D02*
X35973D01*
X29607Y27700D02*
X35781D01*
X29729Y27800D02*
X35795D01*
X34317Y27000D02*
X35915D01*
X29825Y27900D02*
X35818D01*
X29902Y28000D02*
X35849D01*
X29964Y28100D02*
X35891D01*
X30015Y28200D02*
X35942D01*
X30055Y28300D02*
X36007D01*
X30085Y28400D02*
X36086D01*
X30107Y28500D02*
X36184D01*
X34500Y26984D02*
Y40011D01*
X34800Y26896D02*
Y39816D01*
X34600Y26963D02*
Y39932D01*
X30120Y28600D02*
X36309D01*
X34700Y26934D02*
Y39868D01*
X30125Y28700D02*
X36480D01*
X30122Y28800D02*
X36776D01*
X26000Y34393D02*
Y39307D01*
X26100Y34447D02*
Y39243D01*
X26200Y34491D02*
Y39191D01*
X24156Y39300D02*
X26010D01*
X26300Y34525D02*
Y39150D01*
X24100Y39200D02*
X26180D01*
X26400Y34550D02*
Y39118D01*
X26500Y34566D02*
Y39095D01*
X26800Y34566D02*
Y39077D01*
X26600Y34574D02*
Y39081D01*
X26700Y34574D02*
Y39075D01*
X26900Y34550D02*
Y39087D01*
X27000Y34525D02*
Y39106D01*
X24268Y39600D02*
X25707D01*
X24202Y39400D02*
X25884D01*
X24240Y39500D02*
X25786D01*
X24303Y39800D02*
X25591D01*
X24289Y39700D02*
X25643D01*
X24309Y39900D02*
X25550D01*
X25500Y33815D02*
Y40077D01*
X25700Y34137D02*
Y39610D01*
X25600Y34003D02*
Y39780D01*
X24308Y40000D02*
X25518D01*
X24300Y40100D02*
X25495D01*
X25900Y34325D02*
Y39386D01*
X25800Y34241D02*
Y39484D01*
X27300Y34393D02*
Y39215D01*
X27400Y34325D02*
Y39273D01*
X27100Y34491D02*
Y39133D01*
X27200Y34448D02*
Y39169D01*
X27270Y39200D02*
X36292D01*
X27600Y34138D02*
Y39432D01*
X27900Y29495D02*
Y33307D01*
X27700Y34003D02*
Y39543D01*
X27500Y34242D02*
Y39344D01*
X27440Y39300D02*
X36292D01*
X27566Y39400D02*
X36292D01*
X27664Y39500D02*
X36292D01*
X27800Y33815D02*
Y39687D01*
X27743Y39600D02*
X36292D01*
X27900Y33343D02*
Y39898D01*
X27900Y39900D02*
X34647D01*
X27932Y40000D02*
X29750D01*
X27807Y39700D02*
X36292D01*
X27859Y39800D02*
X34835D01*
X29700Y29652D02*
Y40016D01*
X29800Y29554D02*
Y39987D01*
X29900Y29428D02*
Y39966D01*
X29400Y29847D02*
Y40164D01*
X29500Y29795D02*
Y40103D01*
X30450Y40000D02*
X34513D01*
X29600Y29731D02*
Y40054D01*
X36300Y25892D02*
Y26557D01*
X36400Y25856D02*
Y26493D01*
X35217Y26600D02*
X36243D01*
X35368Y26400D02*
X36599D01*
X35300Y26500D02*
X36387D01*
X36900Y25482D02*
Y26331D01*
X37000Y25338D02*
Y26325D01*
X37100Y25127D02*
Y26327D01*
X36500Y25810D02*
Y26441D01*
X36600Y25752D02*
Y26400D01*
X36800Y25593D02*
Y26345D01*
X36700Y25681D02*
Y26368D01*
X35300Y26500D02*
Y39700D01*
X35400Y26344D02*
Y39702D01*
X35500Y26100D02*
Y39712D01*
X35100Y26711D02*
Y39720D01*
X35113Y26700D02*
X36132D01*
X35200Y26618D02*
Y39706D01*
X35600Y25907D02*
Y39731D01*
X35800Y25944D02*
Y27327D01*
X35700Y25930D02*
Y39758D01*
X36000Y25948D02*
Y26860D01*
X35900Y25950D02*
Y27030D01*
X36200Y25919D02*
Y26636D01*
X36100Y25938D02*
Y26734D01*
X36792Y23800D02*
X40625D01*
X36519Y23600D02*
X40813D01*
X36675Y23700D02*
X40709D01*
X36961Y24000D02*
X40503D01*
X36885Y23900D02*
X40557D01*
X37022Y24100D02*
X40459D01*
X37109Y24300D02*
X40400D01*
X37071Y24200D02*
X40425D01*
X37138Y24400D02*
X40384D01*
X37159Y24500D02*
X40376D01*
X37171Y24600D02*
X40376D01*
X37175Y24700D02*
X40384D01*
X37171Y24800D02*
X40400D01*
X37159Y24900D02*
X40425D01*
X37138Y25000D02*
X40459D01*
X37109Y25100D02*
X40502D01*
X37071Y25200D02*
X40557D01*
X37022Y25300D02*
X40625D01*
X36961Y25400D02*
X40708D01*
X40400Y24798D02*
Y26532D01*
X40600Y25265D02*
Y26434D01*
X40500Y25095D02*
Y26478D01*
X37663Y26500D02*
X40457D01*
X37807Y26600D02*
X40300D01*
X40700Y25391D02*
Y26400D01*
X37451Y26400D02*
X40700D01*
X36300Y28593D02*
Y39191D01*
X36400Y28657D02*
Y39191D01*
X36500Y28709D02*
Y39191D01*
X36600Y28750D02*
Y39191D01*
X36700Y28782D02*
Y39191D01*
X36800Y28805D02*
Y39191D01*
X36900Y28819D02*
Y39191D01*
X37000Y28825D02*
Y39191D01*
X37500Y28731D02*
Y39191D01*
X37100Y28823D02*
Y39191D01*
X37200Y28813D02*
Y39191D01*
X37300Y28794D02*
Y39191D01*
X37400Y28767D02*
Y39191D01*
X34900Y26847D02*
Y39775D01*
X35000Y26786D02*
Y39743D01*
X35800Y27823D02*
Y39794D01*
X35900Y28120D02*
Y39840D01*
X35815Y39800D02*
X36292D01*
X36000Y28290D02*
Y39898D01*
X36100Y28416D02*
Y39969D01*
X37800Y28556D02*
Y39191D01*
X36200Y28514D02*
Y40057D01*
X36003Y39900D02*
X36292D01*
X36137Y40000D02*
X36292D01*
X37600Y28685D02*
Y39191D01*
X37700Y28627D02*
Y39191D01*
X38006Y26800D02*
X40090D01*
X37918Y26700D02*
X40183D01*
X38077Y26900D02*
X40014D01*
X38181Y27100D02*
X39904D01*
X38135Y27000D02*
X39953D01*
X38217Y27200D02*
X39866D01*
X38244Y27300D02*
X39837D01*
X38263Y27400D02*
X39816D01*
X38273Y27500D02*
X39804D01*
X38275Y27600D02*
X39800D01*
X38269Y27700D02*
X39804D01*
X38255Y27800D02*
X39816D01*
X38232Y27900D02*
X39836D01*
X37900Y28468D02*
Y39191D01*
X37964Y28400D02*
X40089D01*
X37866Y28500D02*
X40182D01*
X37741Y28600D02*
X40300D01*
X36292Y39191D02*
X39092D01*
X37570Y28700D02*
X40456D01*
X37274Y28800D02*
X40700D01*
X38200Y28002D02*
Y39191D01*
X38201Y28000D02*
X39866D01*
X38159Y28100D02*
X39904D01*
X38000Y28357D02*
Y39191D01*
X38100Y28213D02*
Y39191D01*
X38108Y28200D02*
X39953D01*
X38043Y28300D02*
X40014D01*
X24200Y40480D02*
Y42612D01*
X24231Y40400D02*
X25477D01*
X24191Y40500D02*
X25487D01*
X24100Y40674D02*
Y42602D01*
X24143Y40600D02*
X25506D01*
X24083Y40700D02*
X25533D01*
X24400Y27452D02*
Y42658D01*
X24800Y23644D02*
Y42869D01*
X24900Y23650D02*
Y42957D01*
X24285Y40200D02*
X25481D01*
X24300Y40102D02*
Y42631D01*
X24262Y40300D02*
X25475D01*
X25000Y23648D02*
Y43068D01*
X25100Y23638D02*
Y43212D01*
X25200Y23619D02*
Y43423D01*
X25300Y23592D02*
Y45775D01*
X25500Y40573D02*
Y45775D01*
X25600Y40870D02*
Y45775D01*
X27900Y40752D02*
Y45775D01*
X28000Y29605D02*
Y45775D01*
X28100Y29693D02*
Y45775D01*
X25700Y41040D02*
Y45775D01*
X25800Y41166D02*
Y45775D01*
X27700Y41107D02*
Y45775D01*
X27800Y40963D02*
Y45775D01*
X27975Y40300D02*
X29233D01*
X27955Y40100D02*
X29507D01*
X27969Y40200D02*
X29350D01*
X27881Y40800D02*
X28916D01*
X27973Y40400D02*
X29140D01*
X27963Y40500D02*
X29064D01*
X29000Y29957D02*
Y40607D01*
X29300Y29888D02*
Y40240D01*
X29100Y29942D02*
Y40450D01*
X27944Y40600D02*
X29003D01*
X27917Y40700D02*
X28954D01*
X30693Y40100D02*
X34409D01*
X29200Y29920D02*
Y40333D01*
X28200Y29765D02*
Y45775D01*
X27835Y40900D02*
X28887D01*
X28300Y29823D02*
Y45775D01*
X27706Y41100D02*
X28854D01*
X27777Y41000D02*
X28866D01*
X27618Y41200D02*
X28850D01*
X28400Y29869D02*
Y45775D01*
X28500Y29905D02*
Y45775D01*
X28600Y29932D02*
Y45775D01*
X28700Y29950D02*
Y45775D01*
X28800Y29961D02*
Y45775D01*
X28900Y29963D02*
Y40850D01*
X24400Y45042D02*
Y45775D01*
X24500Y45006D02*
Y45775D01*
X24600Y44960D02*
Y45775D01*
X24100Y45098D02*
Y45775D01*
X24200Y45088D02*
Y45775D01*
X24300Y45069D02*
Y45775D01*
X25100Y44488D02*
Y45775D01*
X25200Y44277D02*
Y45775D01*
X25900Y41264D02*
Y45775D01*
X24700Y44902D02*
Y45775D01*
X24800Y44831D02*
Y45775D01*
X24900Y44743D02*
Y45775D01*
X25000Y44632D02*
Y45775D01*
X26000Y41343D02*
Y45775D01*
X26100Y41407D02*
Y45775D01*
X26200Y41459D02*
Y45775D01*
X26300Y41500D02*
Y45775D01*
X26400Y41532D02*
Y45775D01*
X26500Y41555D02*
Y45775D01*
X27000Y41544D02*
Y45775D01*
X27100Y41517D02*
Y45775D01*
X27200Y41481D02*
Y45775D01*
X26600Y41569D02*
Y45775D01*
X26700Y41575D02*
Y45775D01*
X26800Y41573D02*
Y45775D01*
X26900Y41563D02*
Y45775D01*
X27400Y41377D02*
Y45775D01*
X27507Y41300D02*
X28854D01*
X27500Y41306D02*
Y45775D01*
X27300Y41435D02*
Y45775D01*
X27363Y41400D02*
X28866D01*
X27152Y41500D02*
X28886D01*
X27600Y41218D02*
Y45775D01*
X28900Y41550D02*
Y45775D01*
X29000Y41793D02*
Y45775D01*
X29100Y41950D02*
Y45775D01*
X29200Y42067D02*
Y45775D01*
X29300Y42160D02*
Y45775D01*
X29400Y42236D02*
Y45775D01*
X29500Y42297D02*
Y45775D01*
X29600Y42346D02*
Y45775D01*
X29700Y42384D02*
Y45775D01*
X29800Y42413D02*
Y45775D01*
X29900Y42434D02*
Y45775D01*
X30000Y42446D02*
Y45775D01*
X30100Y42450D02*
Y45775D01*
X30500Y42384D02*
Y45775D01*
X30700Y42297D02*
Y45775D01*
X30800Y42236D02*
Y45775D01*
X30200Y42446D02*
Y45775D01*
X30300Y42434D02*
Y45775D01*
X30400Y42414D02*
Y45775D01*
X30600Y42346D02*
Y45775D01*
X31136Y40500D02*
X34159D01*
X31197Y40600D02*
X34125D01*
X31246Y40700D02*
X34100D01*
X31200Y41794D02*
Y45775D01*
X31284Y40800D02*
X34084D01*
X31313Y40900D02*
X34076D01*
X31334Y41000D02*
X34076D01*
X34200Y26996D02*
Y40405D01*
X34100Y26984D02*
Y40702D01*
X31346Y41100D02*
X34084D01*
X31350Y41200D02*
X34100D01*
X31346Y41300D02*
X34125D01*
X31334Y41400D02*
X34159D01*
X33000Y24298D02*
Y45775D01*
X33100Y26100D02*
Y45775D01*
X33200Y26343D02*
Y45775D01*
X31300Y41550D02*
Y45775D01*
X33300Y26500D02*
Y45775D01*
X33400Y26617D02*
Y45775D01*
X33500Y26710D02*
Y45775D01*
X33600Y26786D02*
Y45775D01*
X33700Y26847D02*
Y45775D01*
X33800Y26896D02*
Y45775D01*
X33900Y26934D02*
Y45775D01*
X34000Y26963D02*
Y45775D01*
X34100Y41198D02*
Y45775D01*
X30967Y40300D02*
X34257D01*
X30850Y40200D02*
X34325D01*
X31060Y40400D02*
X34203D01*
X31313Y41500D02*
X34202D01*
X31284Y41600D02*
X34257D01*
X31197Y41800D02*
X34408D01*
X34300Y27000D02*
Y40235D01*
X34400Y26996D02*
Y40109D01*
X36292Y39191D02*
Y40158D01*
X31246Y41700D02*
X34325D01*
X36292Y41742D02*
Y41991D01*
X39092Y39191D02*
Y41991D01*
X34200Y41495D02*
Y45775D01*
X39900Y28090D02*
Y45775D01*
X40000Y28278D02*
Y45775D01*
X34300Y41665D02*
Y45775D01*
X34400Y41791D02*
Y45775D01*
X34500Y41889D02*
Y45775D01*
X36200Y41843D02*
Y45775D01*
X40100Y28412D02*
Y45775D01*
X40200Y28516D02*
Y45775D01*
X40300Y28600D02*
Y45775D01*
X40400Y28668D02*
Y45775D01*
X40500Y28722D02*
Y45775D01*
X40600Y28766D02*
Y45775D01*
X40700Y28800D02*
Y45775D01*
X31136Y41900D02*
X34512D01*
X31061Y42000D02*
X34647D01*
X30968Y42100D02*
X34835D01*
X30900Y42161D02*
Y45775D01*
X30850Y42200D02*
X35306D01*
X31000Y42068D02*
Y45775D01*
X31100Y41950D02*
Y45775D01*
X36138Y41900D02*
X36292D01*
X34600Y41968D02*
Y45775D01*
X34700Y42032D02*
Y45775D01*
X34800Y42084D02*
Y45775D01*
X34900Y42125D02*
Y45775D01*
X35000Y42157D02*
Y45775D01*
X35100Y42180D02*
Y45775D01*
X35200Y42194D02*
Y45775D01*
X35300Y42200D02*
Y45775D01*
X35400Y42198D02*
Y45775D01*
X35500Y42188D02*
Y45775D01*
X35600Y42169D02*
Y45775D01*
X35900Y42060D02*
Y45775D01*
X36000Y42002D02*
Y45775D01*
X36100Y41931D02*
Y45775D01*
X35700Y42142D02*
Y45775D01*
X35800Y42106D02*
Y45775D01*
X36300Y41991D02*
Y45775D01*
X36400Y41991D02*
Y45775D01*
X36500Y41991D02*
Y45775D01*
X36292Y41991D02*
X39092D01*
X36600D02*
Y45775D01*
X36700Y41991D02*
Y45775D01*
X36800Y41991D02*
Y45775D01*
X36900Y41991D02*
Y45775D01*
X37000Y41991D02*
Y45775D01*
X37100Y41991D02*
Y45775D01*
X37200Y41991D02*
Y45775D01*
X37300Y41991D02*
Y45775D01*
X37400Y41991D02*
Y45775D01*
X37500Y41991D02*
Y45775D01*
X37600Y41991D02*
Y45775D01*
X37700Y41991D02*
Y45775D01*
X37800Y41991D02*
Y45775D01*
X37900Y41991D02*
Y45775D01*
X38000Y41991D02*
Y45775D01*
X38100Y41991D02*
Y45775D01*
X38200Y41991D02*
Y45775D01*
X38300Y41991D02*
Y45775D01*
X38400Y41991D02*
Y45775D01*
X38500Y41991D02*
Y45775D01*
X38600Y41991D02*
Y45775D01*
X38700Y41991D02*
Y45775D01*
X38800Y41991D02*
Y45775D01*
X38900Y41991D02*
Y45775D01*
X39000Y41991D02*
Y45775D01*
X36519Y25800D02*
X41120D01*
X36275Y25900D02*
X41106D01*
X35525Y26000D02*
X41100D01*
X35500Y26100D02*
X41102D01*
X35466Y26200D02*
X41112D01*
X35423Y26300D02*
X41131D01*
X36886Y25500D02*
X40812D01*
X36793Y25600D02*
X40947D01*
X40900Y25568D02*
Y26359D01*
X36675Y25700D02*
X41135D01*
X41000Y25632D02*
Y26351D01*
X41100Y25684D02*
Y26351D01*
X40800Y25489D02*
Y26375D01*
X42000Y28413D02*
Y39423D01*
X42200Y28090D02*
Y39313D01*
X42100Y28278D02*
Y39363D01*
X42300Y27274D02*
Y27580D01*
X42700Y27225D02*
Y39192D01*
X42800Y27191D02*
Y39191D01*
X42400Y27274D02*
Y39241D01*
X42300Y27620D02*
Y39273D01*
X42500Y27266D02*
Y39217D01*
X42600Y27250D02*
Y39201D01*
X42437Y23600D02*
X49200D01*
X42541Y23700D02*
X49200D01*
X42625Y23800D02*
X49200D01*
X42693Y23900D02*
X49200D01*
X42747Y24000D02*
X49200D01*
X42791Y24100D02*
X49200D01*
X42825Y24200D02*
X49200D01*
X42850Y24300D02*
X49200D01*
X42866Y24400D02*
X49200D01*
X42874Y24500D02*
X49200D01*
X42874Y24600D02*
X49200D01*
X42866Y24700D02*
X49200D01*
X42263Y27300D02*
X44637D01*
X42284Y27400D02*
X44627D01*
X42196Y28100D02*
X44792D01*
X42147Y28200D02*
X44857D01*
X42086Y28300D02*
X44936D01*
X42011Y28400D02*
X45034D01*
X42777Y27200D02*
X44656D01*
X42296Y27500D02*
X44625D01*
X42300Y27600D02*
X44631D01*
X42296Y27700D02*
X44645D01*
X42284Y27800D02*
X44668D01*
X42263Y27900D02*
X44699D01*
X42234Y28000D02*
X44741D01*
X30064Y29100D02*
X49200D01*
X29979Y29300D02*
X49200D01*
X29919Y29400D02*
X49200D01*
X29846Y29500D02*
X49200D01*
X29756Y29600D02*
X49200D01*
X29642Y29700D02*
X49200D01*
X41918Y28500D02*
X45159D01*
X41800Y28600D02*
X45330D01*
X41644Y28700D02*
X45626D01*
X41400Y28800D02*
X49200D01*
X30111Y28900D02*
X49200D01*
X30092Y29000D02*
X49200D01*
X30026Y29200D02*
X49200D01*
X39092Y39300D02*
X42230D01*
X29492Y29800D02*
X49200D01*
X39092Y39200D02*
X42611D01*
X39092Y39600D02*
X41783D01*
X39092Y39400D02*
X42036D01*
X39092Y39500D02*
X41895D01*
X41600Y28723D02*
Y39825D01*
X41900Y28517D02*
Y39496D01*
X41800Y28600D02*
Y39583D01*
X39092Y39800D02*
X41617D01*
X39092Y39900D02*
X41554D01*
X41700Y28668D02*
Y39691D01*
X39092Y39700D02*
X41692D01*
X26898Y32100D02*
X49200D01*
X27195Y32200D02*
X49200D01*
X27365Y32300D02*
X49200D01*
X27491Y32400D02*
X49200D01*
X27589Y32500D02*
X49200D01*
X27668Y32600D02*
X49200D01*
X29267Y29900D02*
X49200D01*
X27732Y32700D02*
X49200D01*
X27784Y32800D02*
X49200D01*
X27825Y32900D02*
X49200D01*
X27857Y33000D02*
X49200D01*
X27880Y33100D02*
X49200D01*
X27894Y33200D02*
X49200D01*
X27702Y34000D02*
X49200D01*
X27631Y34100D02*
X49200D01*
X27543Y34200D02*
X49200D01*
X27432Y34300D02*
X49200D01*
X27288Y34400D02*
X49200D01*
X27077Y34500D02*
X49200D01*
X26973Y39100D02*
X49200D01*
X27900Y33300D02*
X49200D01*
X27898Y33400D02*
X49200D01*
X27888Y33500D02*
X49200D01*
X27869Y33600D02*
X49200D01*
X27842Y33700D02*
X49200D01*
X27806Y33800D02*
X49200D01*
X27760Y33900D02*
X49200D01*
X42850Y24800D02*
X49200D01*
X42895Y24900D02*
X49200D01*
X43065Y25000D02*
X49200D01*
X43191Y25100D02*
X49200D01*
X43506Y26500D02*
X45093D01*
X43569Y26300D02*
X45449D01*
X43542Y26400D02*
X45237D01*
X43331Y26800D02*
X44823D01*
X43243Y26900D02*
X44765D01*
X43460Y26600D02*
X44982D01*
X43402Y26700D02*
X44894D01*
X43100Y27025D02*
Y39229D01*
X43132Y27000D02*
X44719D01*
X43200Y26942D02*
Y39258D01*
X42900Y27148D02*
Y39196D01*
X42988Y27100D02*
X44683D01*
X43000Y27093D02*
Y39209D01*
X43500Y26515D02*
Y39395D01*
X43600Y26045D02*
Y39461D01*
X43300Y26838D02*
Y39294D01*
X43400Y26703D02*
Y39339D01*
X44700Y27901D02*
Y39332D01*
X47100Y27725D02*
Y39410D01*
X43289Y25200D02*
X49200D01*
X43368Y25300D02*
X49200D01*
X43432Y25400D02*
X49200D01*
X43484Y25500D02*
X49200D01*
X43525Y25600D02*
X49200D01*
X43557Y25700D02*
X49200D01*
X43580Y25800D02*
X49200D01*
X43594Y25900D02*
X49200D01*
X43600Y26000D02*
X49200D01*
X43598Y26100D02*
X49200D01*
X43588Y26200D02*
X49200D01*
X46301Y26300D02*
X49200D01*
X46513Y26400D02*
X49200D01*
X46657Y26500D02*
X49200D01*
X46768Y26600D02*
X49200D01*
X46856Y26700D02*
X49200D01*
X46927Y26800D02*
X49200D01*
X46985Y26900D02*
X49200D01*
X47031Y27000D02*
X49200D01*
X47067Y27100D02*
X49200D01*
X47094Y27200D02*
X49200D01*
X47113Y27300D02*
X49200D01*
X47123Y27400D02*
X49200D01*
X47125Y27500D02*
X49200D01*
X47119Y27600D02*
X49200D01*
X47105Y27700D02*
X49200D01*
X47082Y27800D02*
X49200D01*
X44800Y28113D02*
Y39288D01*
X44900Y28257D02*
Y39253D01*
X45000Y28368D02*
Y39226D01*
X43314Y39300D02*
X44770D01*
X45100Y28456D02*
Y39207D01*
X42933Y39200D02*
X45151D01*
X45200Y28527D02*
Y39195D01*
X45300Y28585D02*
Y39191D01*
X45400Y28631D02*
Y39193D01*
X45500Y28667D02*
Y39203D01*
X45600Y28694D02*
Y39220D01*
X45700Y28713D02*
Y39245D01*
X45800Y28723D02*
Y39278D01*
X43761Y39600D02*
X44323D01*
X43508Y39400D02*
X44576D01*
X43650Y39500D02*
X44435D01*
X43928Y39800D02*
X44157D01*
X43852Y39700D02*
X44232D01*
X43990Y39900D02*
X44094D01*
X46300Y28651D02*
Y39598D01*
X46400Y28609D02*
Y39709D01*
X46500Y28558D02*
Y39849D01*
X45900Y28725D02*
Y39320D01*
X46000Y28719D02*
Y39371D01*
X46100Y28705D02*
Y39433D01*
X46200Y28682D02*
Y39508D01*
X46716Y28400D02*
X49200D01*
X46591Y28500D02*
X49200D01*
X46420Y28600D02*
X49200D01*
X45854Y39300D02*
X47310D01*
X46124Y28700D02*
X49200D01*
X45473Y39200D02*
X47691D01*
X47051Y27900D02*
X49200D01*
X47009Y28000D02*
X49200D01*
X46958Y28100D02*
X49200D01*
X46893Y28200D02*
X49200D01*
X46814Y28300D02*
X49200D01*
X48013Y39200D02*
X49200D01*
X48394Y39300D02*
X49200D01*
X46700Y28414D02*
Y39796D01*
X46049Y39400D02*
X47116D01*
X46800Y28316D02*
Y39667D01*
X46392Y39700D02*
X46772D01*
X46467Y39800D02*
X46697D01*
X46190Y39500D02*
X46975D01*
X46301Y39600D02*
X46863D01*
X46900Y28191D02*
Y39564D01*
X48589Y39400D02*
X49200D01*
X47000Y28020D02*
Y39480D01*
X48730Y39500D02*
X49200D01*
X48841Y39600D02*
X49200D01*
X48932Y39700D02*
X49200D01*
X49007Y39800D02*
X49200D01*
X39092Y40000D02*
X41503D01*
X39092Y40100D02*
X41461D01*
X39092Y40200D02*
X41428D01*
X39092Y40300D02*
X41403D01*
X39092Y40400D02*
X41385D01*
X39092Y40500D02*
X41375D01*
X41400Y28800D02*
Y40314D01*
X41500Y28766D02*
Y40007D01*
X39092Y40600D02*
X41372D01*
X39092Y40700D02*
X41376D01*
X39092Y40800D02*
X41388D01*
X39092Y40900D02*
X41407D01*
X39092Y41000D02*
X41433D01*
X40800Y28825D02*
Y45775D01*
X39092Y41100D02*
X41468D01*
X40900Y28841D02*
Y45775D01*
X39092Y41200D02*
X41512D01*
X39092Y41300D02*
X41565D01*
X39092Y41400D02*
X41630D01*
X41000Y28849D02*
Y45775D01*
X41100Y28849D02*
Y45775D01*
X41300Y28825D02*
Y45775D01*
X41200Y28841D02*
Y45775D01*
X41400Y40867D02*
Y45775D01*
X41500Y41175D02*
Y45775D01*
X41600Y41356D02*
Y45775D01*
X39092Y41500D02*
X41708D01*
X39092Y41600D02*
X41802D01*
X39092Y41700D02*
X41918D01*
X39092Y41800D02*
X42067D01*
X43478D02*
X44607D01*
X43979Y41300D02*
X44105D01*
X43915Y41400D02*
X44170D01*
X43837Y41500D02*
X44248D01*
X43742Y41600D02*
X44342D01*
X43626Y41700D02*
X44458D01*
X41700Y41491D02*
Y45775D01*
X43700Y41639D02*
Y43242D01*
X41800Y41598D02*
Y45775D01*
X41900Y41686D02*
Y45775D01*
X42000Y41758D02*
Y45775D01*
X43500Y41787D02*
Y43242D01*
X43600Y41720D02*
Y43242D01*
X43900Y41420D02*
Y43242D01*
X44000Y41264D02*
Y43242D01*
X44100Y41291D02*
Y43242D01*
X43800Y41541D02*
Y43242D01*
X44200Y41441D02*
Y43242D01*
X44300Y41558D02*
Y43242D01*
X44400Y41652D02*
Y43242D01*
X25147Y43300D02*
X42636D01*
X25191Y43400D02*
X42636D01*
X25225Y43500D02*
X42636D01*
X25225Y44200D02*
X42636D01*
X25191Y44300D02*
X42636D01*
X25148Y44400D02*
X42636D01*
X39092Y41900D02*
X42276D01*
X25250Y43600D02*
X42636D01*
X25266Y43700D02*
X42636D01*
X25274Y43800D02*
X42636D01*
X25274Y43900D02*
X42636D01*
X25266Y44000D02*
X42636D01*
X25250Y44100D02*
X42636D01*
X25093Y44500D02*
X42636D01*
X25025Y44600D02*
X42636D01*
X24942Y44700D02*
X42636D01*
X24838Y44800D02*
X42636D01*
X24703Y44900D02*
X42636D01*
X24515Y45000D02*
X42636D01*
X42100Y41819D02*
Y45775D01*
X42200Y41868D02*
Y45775D01*
X42300Y41909D02*
Y45775D01*
X42400Y41940D02*
Y45775D01*
X42500Y41964D02*
Y45775D01*
X42600Y41980D02*
Y45775D01*
X42636Y43242D02*
Y45775D01*
X30451Y42400D02*
X49200D01*
X24515Y42700D02*
X49200D01*
X24703Y42800D02*
X49200D01*
X24837Y42900D02*
X49200D01*
X24941Y43000D02*
X49200D01*
X25025Y43100D02*
X49200D01*
X42700Y41989D02*
Y43242D01*
X43268Y41900D02*
X44816D01*
X36003Y42000D02*
X49200D01*
X35815Y42100D02*
X49200D01*
X42800Y41990D02*
Y43242D01*
X35344Y42200D02*
X49200D01*
X30694Y42300D02*
X49200D01*
X43000Y41972D02*
Y43242D01*
X43100Y41952D02*
Y43242D01*
X43300Y41887D02*
Y43242D01*
X42900Y41985D02*
Y43242D01*
X43200Y41924D02*
Y43242D01*
X42636D02*
X45336D01*
X25093Y43200D02*
X49200D01*
X43400Y41842D02*
Y43242D01*
X44500Y41731D02*
Y43242D01*
X44600Y41796D02*
Y43242D01*
X44700Y41850D02*
Y43242D01*
X44800Y41893D02*
Y43242D01*
X44900Y41928D02*
Y43242D01*
X45000Y41955D02*
Y43242D01*
X46300Y41583D02*
Y43255D01*
X46377Y41500D02*
X46788D01*
X46282Y41600D02*
X46882D01*
X45100Y41974D02*
Y43242D01*
X46166Y41700D02*
X46998D01*
X46018Y41800D02*
X47147D01*
X46600Y28493D02*
Y39965D01*
X46530Y39900D02*
X46634D01*
X46600Y41216D02*
Y43247D01*
X46400Y41472D02*
Y43245D01*
X46500Y41332D02*
Y43242D01*
X46519Y41300D02*
X46645D01*
X46455Y41400D02*
X46710D01*
X45500Y41978D02*
Y43670D01*
X46000Y41810D02*
Y43333D01*
X45900Y41861D02*
Y43376D01*
X45600Y41961D02*
Y43574D01*
X45700Y41936D02*
Y43495D01*
X45800Y41903D02*
Y43429D01*
X46700Y41386D02*
Y43259D01*
X46800Y41514D02*
Y43279D01*
X46900Y41617D02*
Y43307D01*
X46100Y41748D02*
Y43298D01*
X46200Y41673D02*
Y43273D01*
X47000Y41701D02*
Y43343D01*
X47100Y41771D02*
Y43389D01*
X47200Y41829D02*
Y43446D01*
X45808Y41900D02*
X47356D01*
X49070Y39900D02*
X49200D01*
X49059Y41300D02*
X49200D01*
X48995Y41400D02*
X49200D01*
X48917Y41500D02*
X49200D01*
X48822Y41600D02*
X49200D01*
X48706Y41700D02*
X49200D01*
X48558Y41800D02*
X49200D01*
X47300Y41877D02*
Y43514D01*
X48400Y41879D02*
Y45775D01*
X48600Y41774D02*
Y45775D01*
X47400Y41916D02*
Y43598D01*
X47500Y41946D02*
Y43700D01*
X47600Y41968D02*
Y43828D01*
X48500Y41832D02*
Y45775D01*
X49100Y41226D02*
Y45775D01*
X49200Y40969D02*
Y45775D01*
X49200Y40970D02*
Y45775D01*
X48700Y41705D02*
Y45775D01*
X48800Y41621D02*
Y45775D01*
X48900Y41519D02*
Y45775D01*
X49000Y41392D02*
Y45775D01*
X45200Y41986D02*
Y43242D01*
X45300Y41991D02*
Y43242D01*
X45336Y43300D02*
X46095D01*
X45336Y43600D02*
X45571D01*
X45336Y43400D02*
X45853D01*
X45336Y43500D02*
X45693D01*
X45400Y41988D02*
Y43791D01*
X47700Y41982D02*
Y44000D01*
X47800Y41990D02*
Y44280D01*
X45336Y43700D02*
X45473D01*
X45336Y43242D02*
Y43885D01*
X47600Y45355D02*
Y45775D01*
X47300Y45669D02*
Y45775D01*
X47400Y45586D02*
Y45775D01*
X47500Y45484D02*
Y45775D01*
X48100Y41969D02*
Y45775D01*
X48200Y41947D02*
Y45775D01*
X48300Y41917D02*
Y45775D01*
X47700Y45183D02*
Y45775D01*
X47800Y44904D02*
Y45775D01*
X47900Y41990D02*
Y45775D01*
X48000Y41983D02*
Y45775D01*
X46878Y43300D02*
X49200D01*
X47120Y43400D02*
X49200D01*
X47280Y43500D02*
X49200D01*
X47402Y43600D02*
X49200D01*
X47500Y43700D02*
X49200D01*
X47580Y43800D02*
X49200D01*
X48348Y41900D02*
X49200D01*
X47646Y43900D02*
X49200D01*
X47700Y44000D02*
X49200D01*
X47744Y44100D02*
X49200D01*
X47778Y44200D02*
X49200D01*
X47804Y44300D02*
X49200D01*
X47823Y44400D02*
X49200D01*
X47692Y45200D02*
X49200D01*
X47636Y45300D02*
X49200D01*
X47568Y45400D02*
X49200D01*
X47485Y45500D02*
X49200D01*
X47384Y45600D02*
X49200D01*
X47258Y45700D02*
X49200D01*
X47136Y45775D02*
X49200D01*
X47833Y44500D02*
X49200D01*
X47836Y44600D02*
X49200D01*
X47832Y44700D02*
X49200D01*
X47820Y44800D02*
X49200D01*
X47801Y44900D02*
X49200D01*
X47773Y45000D02*
X49200D01*
X47737Y45100D02*
X49200D01*
M02*
