%FSLAX43Y43*%
%MOMM*%
G71*
G01*
G75*
%ADD10C,0.300*%
%ADD11C,0.125*%
%ADD12R,1.800X1.600*%
%ADD13R,1.600X1.800*%
%ADD14R,0.600X1.700*%
%ADD15R,0.600X1.700*%
%ADD16C,0.400*%
%ADD17C,0.500*%
%ADD18C,0.254*%
%ADD19C,1.500*%
%ADD20R,1.500X1.500*%
%ADD21R,1.300X1.300*%
%ADD22C,1.300*%
%ADD23C,2.000*%
%ADD24C,1.200*%
%ADD25R,0.550X1.450*%
%ADD26R,0.550X1.450*%
%ADD27R,5.700X5.500*%
%ADD28R,1.600X1.000*%
%ADD29C,0.600*%
%ADD30R,2.003X1.803*%
%ADD31R,1.803X2.003*%
%ADD32R,0.803X1.903*%
%ADD33R,0.803X1.903*%
%ADD34C,1.703*%
%ADD35R,1.703X1.703*%
%ADD36R,1.503X1.503*%
%ADD37C,1.503*%
%ADD38C,2.203*%
%ADD39C,1.403*%
%ADD40R,0.753X1.653*%
%ADD41R,0.753X1.653*%
%ADD42R,5.903X5.703*%
%ADD43R,1.803X1.203*%
D31*
X26387Y25357D02*
D03*
X23587Y25357D02*
D03*
D34*
X1625Y41500D02*
D03*
X22910Y34937D02*
D03*
X35120Y2100D02*
D03*
X4640D02*
D03*
X7180D02*
D03*
X9720D02*
D03*
X12260D02*
D03*
X14800D02*
D03*
X17340D02*
D03*
X19880D02*
D03*
X22420D02*
D03*
X24960D02*
D03*
X27500D02*
D03*
X30040D02*
D03*
X32580D02*
D03*
X37660D02*
D03*
X40200D02*
D03*
X42740D02*
D03*
X45280D02*
D03*
X47820D02*
D03*
X11575Y12617D02*
D03*
X11575Y17617D02*
D03*
X42747Y40591D02*
D03*
X45287Y40591D02*
D03*
X47827D02*
D03*
D35*
X20370Y34937D02*
D03*
X2100Y2100D02*
D03*
X37667Y40591D02*
D03*
D36*
X9758Y24388D02*
D03*
Y27363D02*
D03*
D37*
X12258Y24388D02*
D03*
Y27363D02*
D03*
D38*
X47725Y7375D02*
D03*
X47625Y4925D02*
D03*
X42625D02*
D03*
X42725Y7375D02*
D03*
D39*
X2000Y13750D02*
D03*
X1525Y25900D02*
D03*
D03*
X1500Y23000D02*
D03*
X48625Y13600D02*
D03*
X13450Y22400D02*
D03*
X7525Y35000D02*
D03*
X7500Y39250D02*
D03*
X1975Y32300D02*
D03*
X2000Y37100D02*
D03*
X13700Y19575D02*
D03*
X13600Y13750D02*
D03*
X2100Y10000D02*
D03*
X2200Y5025D02*
D03*
X12200Y4575D02*
D03*
X19000Y12550D02*
D03*
X16050Y11000D02*
D03*
X30575Y16500D02*
D03*
X35600Y27850D02*
D03*
X35625Y30500D02*
D03*
X45250Y37400D02*
D03*
X45475Y15575D02*
D03*
X46600Y39275D02*
D03*
X4325Y35850D02*
D03*
X5350Y40600D02*
D03*
X24950Y41850D02*
D03*
X26600Y28350D02*
D03*
X23700Y22025D02*
D03*
X22500Y22975D02*
D03*
X33200Y32250D02*
D03*
X28050Y35600D02*
D03*
X25125Y14475D02*
D03*
X25700Y9075D02*
D03*
X14250Y24075D02*
D03*
X32687Y15250D02*
D03*
X34975Y24025D02*
D03*
X34250Y14850D02*
D03*
X29725Y8787D02*
D03*
X35275Y16275D02*
D03*
X32525Y8800D02*
D03*
X43900Y35625D02*
D03*
X43925Y15525D02*
D03*
X47675Y15550D02*
D03*
X48000Y35100D02*
D03*
X40250Y18550D02*
D03*
X36400Y17575D02*
D03*
X35150Y9075D02*
D03*
X36450Y26175D02*
D03*
X42250Y36700D02*
D03*
X18075Y37150D02*
D03*
X16400Y34000D02*
D03*
X39025Y19975D02*
D03*
X32150Y38600D02*
D03*
X17000Y38450D02*
D03*
X15525Y30375D02*
D03*
X6000Y28800D02*
D03*
X4475Y17325D02*
D03*
X38800Y22300D02*
D03*
X34150Y38100D02*
D03*
X15650Y39575D02*
D03*
X15900Y32450D02*
D03*
X8450Y31025D02*
D03*
X9125Y11225D02*
D03*
X7145Y24445D02*
D03*
X39725Y39525D02*
D03*
X14325Y40825D02*
D03*
X14125Y32500D02*
D03*
X7225Y32450D02*
D03*
X7175Y16600D02*
D03*
X41268Y28975D02*
D03*
X42550Y32293D02*
D03*
X1500Y28700D02*
D03*
Y20200D02*
D03*
X23587Y25357D02*
D03*
D40*
X30000Y33300D02*
D03*
X31900D02*
D03*
X30950Y35450D02*
D03*
X30000Y35450D02*
D03*
D41*
X31900Y35450D02*
D03*
D42*
X9825Y37000D02*
D03*
D43*
X2425Y39285D02*
D03*
Y34715D02*
D03*
M02*
