%FSLAX43Y43*%
%MOMM*%
G71*
G01*
G75*
G04 Layer_Physical_Order=2*
%ADD10C,0.300*%
%ADD11C,0.125*%
%ADD12R,1.800X1.600*%
%ADD13R,1.600X1.800*%
%ADD14R,0.600X1.700*%
%ADD15R,0.600X1.700*%
%ADD16C,0.400*%
%ADD17C,0.500*%
%ADD18C,0.254*%
%ADD19C,1.500*%
%ADD20R,1.500X1.500*%
%ADD21R,1.300X1.300*%
%ADD22C,1.300*%
%ADD23C,2.000*%
%ADD24C,1.200*%
%ADD25R,0.550X1.450*%
%ADD26R,0.550X1.450*%
%ADD27R,5.700X5.500*%
%ADD28R,1.600X1.000*%
%ADD29C,0.600*%
D10*
X49200Y40865D02*
G03*
X46557Y41180I-1373J-275D01*
G01*
X46557D02*
G03*
X44017Y41180I-1270J-589D01*
G01*
X45353Y39192D02*
G03*
X45650Y38463I1247J83D01*
G01*
X44017Y40001D02*
G03*
X45353Y39192I1270J589D01*
G01*
X43597Y39478D02*
G03*
X44017Y40001I-850J1112D01*
G01*
Y41180D02*
G03*
X41897Y39478I-1270J-589D01*
G01*
X40975Y39525D02*
G03*
X39067Y40588I-1250J0D01*
G01*
X40575Y38608D02*
G03*
X40975Y39525I-850J917D01*
G01*
X38521Y39191D02*
G03*
X38875Y38608I1204J334D01*
G01*
X48850Y34183D02*
G03*
X49200Y34750I-850J917D01*
G01*
X44775Y34732D02*
G03*
X45150Y35625I-875J893D01*
G01*
X43504Y36811D02*
G03*
X43597Y37197I-757J387D01*
G01*
X43504Y36811D02*
G03*
X43597Y37197I-757J387D01*
G01*
X45150Y35625D02*
G03*
X43504Y36811I-1250J0D01*
G01*
X42655Y35517D02*
G03*
X43075Y34686I1245J108D01*
G01*
X41897Y37899D02*
G03*
X42655Y35517I353J-1199D01*
G01*
X43075Y33428D02*
G03*
X41975Y31184I-525J-1134D01*
G01*
X35400Y38100D02*
G03*
X33321Y39036I-1250J0D01*
G01*
G03*
X31425Y37582I-1171J-436D01*
G01*
X26200Y41850D02*
G03*
X26150Y42200I-1250J0D01*
G01*
X23750D02*
G03*
X24000Y41038I1200J-350D01*
G01*
X25900D02*
G03*
X26200Y41850I-950J812D01*
G01*
X34450Y32250D02*
G03*
X32931Y33471I-1250J0D01*
G01*
X31425Y37582D02*
G03*
X31549Y37424I725J443D01*
G01*
X31425Y37582D02*
G03*
X31549Y37424I725J443D01*
G01*
X31993Y31925D02*
G03*
X34450Y32250I1207J325D01*
G01*
X29075Y36315D02*
G03*
X26916Y35075I-1025J-715D01*
G01*
X24000Y35815D02*
G03*
X21770Y35750I-1090J-878D01*
G01*
X48925Y15550D02*
G03*
X48850Y15976I-1250J0D01*
G01*
X46568Y14969D02*
G03*
X48925Y15550I1107J581D01*
G01*
X45800Y800D02*
G03*
X46680Y2100I-520J1300D01*
G01*
X44732Y14570D02*
G03*
X46568Y14969I743J1005D01*
G01*
X45175Y5775D02*
G03*
X44926Y6376I-850J0D01*
G01*
X46680Y2100D02*
G03*
X45175Y3496I-1400J0D01*
G01*
X41975Y30006D02*
G03*
X40575Y30015I-707J-1031D01*
G01*
X34950Y27575D02*
G03*
X34715Y28142I-800J0D01*
G01*
X34950Y27575D02*
G03*
X34716Y28141I-800J0D01*
G01*
X36850Y27359D02*
G03*
X35600Y25258I-400J-1184D01*
G01*
Y25108D02*
G03*
X34950Y25275I-625J-1083D01*
G01*
X32029Y17031D02*
G03*
X31780Y16430I601J-601D01*
G01*
X32029Y17031D02*
G03*
X31780Y16430I601J-601D01*
G01*
X43675Y14300D02*
G03*
X44732Y14570I250J1225D01*
G01*
X43426Y10399D02*
G03*
X43675Y11000I-601J601D01*
G01*
X43426Y10399D02*
G03*
X43675Y11000I-601J601D01*
G01*
X31780Y16110D02*
G03*
X31772Y14399I907J-860D01*
G01*
X27800Y15925D02*
G03*
X28367Y16160I0J800D01*
G01*
X27800Y15925D02*
G03*
X28366Y16159I0J800D01*
G01*
X44326Y6976D02*
G03*
X44375Y7375I-1601J399D01*
G01*
X45175Y5775D02*
G03*
X44926Y6376I-850J0D01*
G01*
X44375Y7375D02*
G03*
X41674Y8647I-1650J0D01*
G01*
X25975Y13558D02*
G03*
X26375Y14475I-850J917D01*
G01*
X22108Y16160D02*
G03*
X22675Y15925I567J565D01*
G01*
X22109Y16159D02*
G03*
X22675Y15925I566J566D01*
G01*
X26375Y14475D02*
G03*
X24275Y13558I-1250J0D01*
G01*
X18250Y38450D02*
G03*
X16894Y39696I-1250J0D01*
G01*
X19024Y36337D02*
G03*
X19325Y37150I-949J813D01*
G01*
G03*
X18248Y38388I-1250J0D01*
G01*
X15575Y40825D02*
G03*
X13149Y40400I-1250J0D01*
G01*
X16894Y39696D02*
G03*
X15575Y40823I-1244J-121D01*
G01*
X13149Y40400D02*
G03*
X13275Y40147I1176J425D01*
G01*
X15052Y31532D02*
G03*
X14975Y29252I473J-1157D01*
G01*
X13275Y33417D02*
G03*
X14988Y31595I850J-917D01*
G01*
X13649Y27926D02*
G03*
X13504Y27733I601J-601D01*
G01*
X13649Y27926D02*
G03*
X13504Y27733I601J-601D01*
G01*
G03*
X11058Y27863I-1246J-370D01*
G01*
Y26863D02*
G03*
X13400Y26742I1200J500D01*
G01*
Y25009D02*
G03*
X11058Y24888I-1142J-621D01*
G01*
X9275Y30086D02*
G03*
X9700Y31025I-825J939D01*
G01*
G03*
X8463Y32275I-1250J0D01*
G01*
X11058Y23888D02*
G03*
X13164Y23456I1200J500D01*
G01*
X6600Y40600D02*
G03*
X4104Y40697I-1250J0D01*
G01*
X6584Y40400D02*
G03*
X6600Y40600I-1234J200D01*
G01*
X5447Y39354D02*
G03*
X6325Y39818I-97J1246D01*
G01*
X4035Y38335D02*
G03*
X4707Y38613I0J950D01*
G01*
X4035Y38335D02*
G03*
X4707Y38613I0J950D01*
G01*
X3025Y41500D02*
G03*
X2837Y42200I-1400J0D01*
G01*
X2534Y40435D02*
G03*
X3025Y41500I-909J1065D01*
G01*
X800Y40369D02*
G03*
X975Y40260I825J1131D01*
G01*
X5575Y35850D02*
G03*
X3075Y35865I-1250J0D01*
G01*
X5275Y35038D02*
G03*
X5575Y35850I-950J812D01*
G01*
X5300Y34650D02*
G03*
X5275Y34867I-950J0D01*
G01*
X5300Y34650D02*
G03*
X5275Y34867I-950J0D01*
G01*
X8475Y32450D02*
G03*
X7715Y33600I-1250J0D01*
G01*
X8463Y32275D02*
G03*
X8475Y32450I-1238J175D01*
G01*
X6735Y33600D02*
G03*
X6325Y31583I490J-1150D01*
G01*
Y30007D02*
G03*
X5300Y29836I-325J-1207D01*
G01*
X13164Y23456D02*
G03*
X15105Y23163I1086J619D01*
G01*
X12975Y17617D02*
G03*
X12975Y17617I-1400J0D01*
G01*
X9975Y16775D02*
G03*
X9726Y17376I-850J0D01*
G01*
X9975Y16775D02*
G03*
X9726Y17376I-850J0D01*
G01*
X12975Y12617D02*
G03*
X12975Y12617I-1400J0D01*
G01*
X13425Y2876D02*
G03*
X10990Y2689I-1165J-776D01*
G01*
X10375Y11225D02*
G03*
X9975Y12142I-1250J0D01*
G01*
X8275D02*
G03*
X10375Y11225I850J-917D01*
G01*
X10990Y2689D02*
G03*
X8450Y2689I-1270J-589D01*
G01*
X4858Y16135D02*
G03*
X5725Y17325I-383J1190D01*
G01*
X6325Y17517D02*
G03*
X8275Y16006I850J-917D01*
G01*
X5590Y15010D02*
G03*
X5312Y15682I-950J0D01*
G01*
X5590Y15010D02*
G03*
X5312Y15682I-950J0D01*
G01*
X1978Y19547D02*
G03*
X1700Y18875I672J-672D01*
G01*
X1978Y19547D02*
G03*
X1700Y18875I672J-672D01*
G01*
Y17000D02*
G03*
X1978Y16328I950J0D01*
G01*
X1700Y17000D02*
G03*
X1978Y16328I950J0D01*
G01*
X8450Y2689D02*
G03*
X5910Y2689I-1270J-589D01*
G01*
X5910D02*
G03*
X5590Y3128I-1270J-589D01*
G01*
X3690D02*
G03*
X4120Y800I950J-1028D01*
G01*
X34150Y24964D02*
G03*
X34125Y23108I825J-939D01*
G01*
X22068Y33818D02*
G03*
X24143Y34275I841J1119D01*
G01*
X48500Y41818D02*
Y42200D01*
X48400Y41868D02*
Y42200D01*
X48300Y41908D02*
Y42200D01*
X48200Y41940D02*
Y42200D01*
X48900Y41490D02*
Y42200D01*
X48800Y41598D02*
Y42200D01*
X48700Y41685D02*
Y42200D01*
X48600Y41758D02*
Y42200D01*
X48000Y41980D02*
Y42200D01*
X47900Y41989D02*
Y42200D01*
X47800Y41990D02*
Y42200D01*
X47700Y41985D02*
Y42200D01*
X48100Y41964D02*
Y42200D01*
X47600Y41972D02*
Y42200D01*
X47500Y41952D02*
Y42200D01*
X48323Y41900D02*
X49200D01*
X48533Y41800D02*
X49200D01*
X47400Y41924D02*
Y42200D01*
X47300Y41887D02*
Y42200D01*
X48681Y41700D02*
X49200D01*
X48797Y41600D02*
X49200D01*
X48892Y41500D02*
X49200D01*
X47200Y41842D02*
Y42200D01*
X45783Y41900D02*
X47331D01*
X47100Y41787D02*
Y42200D01*
X45993Y41800D02*
X47122D01*
X47000Y41720D02*
Y42200D01*
X46141Y41700D02*
X46973D01*
X46900Y41639D02*
Y42200D01*
X46100Y41731D02*
Y42200D01*
X46000Y41796D02*
Y42200D01*
X45900Y41849D02*
Y42200D01*
X45800Y41893D02*
Y42200D01*
X46800Y41542D02*
Y42200D01*
X46300Y41557D02*
Y42200D01*
X46200Y41652D02*
Y42200D01*
X45500Y41974D02*
Y42200D01*
X45400Y41986D02*
Y42200D01*
X45300Y41991D02*
Y42200D01*
X45200Y41988D02*
Y42200D01*
X45700Y41928D02*
Y42200D01*
X45600Y41955D02*
Y42200D01*
X45100Y41978D02*
Y42200D01*
X45000Y41961D02*
Y42200D01*
X44900Y41936D02*
Y42200D01*
X44800Y41903D02*
Y42200D01*
X44700Y41861D02*
Y42200D01*
X46257Y41600D02*
X46857D01*
X46352Y41500D02*
X46763D01*
X44600Y41810D02*
Y42200D01*
X44500Y41748D02*
Y42200D01*
X43601Y41700D02*
X44433D01*
X44400Y41673D02*
Y42200D01*
X43600Y41701D02*
Y42200D01*
X44300Y41583D02*
Y42200D01*
X43717Y41600D02*
X44317D01*
X43700Y41617D02*
Y42200D01*
X48970Y41400D02*
X49200D01*
X49034Y41300D02*
X49200D01*
X49000Y41355D02*
Y42200D01*
X46700Y41421D02*
Y42200D01*
X49200Y40866D02*
Y42200D01*
X49200Y40865D02*
Y42200D01*
X49100Y41174D02*
Y42200D01*
X47827Y40591D02*
Y41841D01*
X46600Y41264D02*
Y42200D01*
X46430Y41400D02*
X46685D01*
X46500Y41290D02*
Y42200D01*
X46400Y41440D02*
Y42200D01*
X46494Y41300D02*
X46620D01*
X49088Y41200D02*
X49200D01*
X44800Y36493D02*
Y39278D01*
X45100Y35976D02*
Y39203D01*
X45000Y36219D02*
Y39220D01*
X44900Y36375D02*
Y39245D01*
X43597Y39100D02*
X45362D01*
X43597Y39000D02*
X45381D01*
X43597Y39300D02*
X44745D01*
X43597Y39200D02*
X45127D01*
X43597Y38800D02*
X45444D01*
X43597Y38700D02*
X45490D01*
X43597Y38900D02*
X45408D01*
X44200Y41472D02*
Y42200D01*
X43890Y41400D02*
X44145D01*
X44100Y41332D02*
Y42200D01*
X43900Y41385D02*
Y42200D01*
X44000Y41216D02*
Y42200D01*
X44100Y36859D02*
Y39849D01*
X44000Y36871D02*
Y39965D01*
X43812Y41500D02*
X44223D01*
X43954Y41300D02*
X44080D01*
X43800Y41514D02*
Y42200D01*
X43965Y39900D02*
X44069D01*
X43903Y39800D02*
X44132D01*
X43900Y36875D02*
Y39796D01*
X44300Y36809D02*
Y39598D01*
X44400Y36771D02*
Y39508D01*
X43827Y39700D02*
X44207D01*
X44200Y36839D02*
Y39709D01*
X44600Y36661D02*
Y39371D01*
X44700Y36586D02*
Y39320D01*
X44500Y36722D02*
Y39433D01*
X43625Y39500D02*
X44410D01*
X43597Y39400D02*
X44551D01*
X43736Y39600D02*
X44298D01*
X43597Y37197D02*
Y39478D01*
X43800Y36871D02*
Y39668D01*
X43700Y36859D02*
Y39565D01*
X43600Y36838D02*
Y39480D01*
X43200Y41915D02*
Y42200D01*
X43100Y41945D02*
Y42200D01*
X42900Y41982D02*
Y42200D01*
X42800Y41990D02*
Y42200D01*
X43500Y41771D02*
Y42200D01*
X43400Y41829D02*
Y42200D01*
X43300Y41877D02*
Y42200D01*
X43000Y41968D02*
Y42200D01*
X26150Y42200D02*
X49200D01*
X26150Y42200D02*
X49200D01*
X42700Y41990D02*
Y42200D01*
X42600Y41983D02*
Y42200D01*
X42500Y41969D02*
Y42200D01*
X42400Y41947D02*
Y42200D01*
X42300Y41917D02*
Y42200D01*
X43243Y41900D02*
X44791D01*
X43453Y41800D02*
X44582D01*
X42200Y41879D02*
Y42200D01*
X42100Y41832D02*
Y42200D01*
X42000Y41774D02*
Y42200D01*
X41900Y41705D02*
Y42200D01*
X41800Y41621D02*
Y42200D01*
X26175Y42100D02*
X49200D01*
X26191Y42000D02*
X49200D01*
X39067Y41900D02*
X42251D01*
X39067Y41800D02*
X42042D01*
X39067Y41700D02*
X41893D01*
X39067Y41600D02*
X41777D01*
X41700Y41520D02*
Y42200D01*
X41600Y41393D02*
Y42200D01*
X41500Y41226D02*
Y42200D01*
X41400Y40971D02*
Y42200D01*
X40000Y40744D02*
Y42200D01*
X40400Y40577D02*
Y42200D01*
X40200Y40681D02*
Y42200D01*
X40100Y40717D02*
Y42200D01*
X39900Y40763D02*
Y42200D01*
X39800Y40773D02*
Y42200D01*
X39700Y40775D02*
Y42200D01*
X39600Y40769D02*
Y42200D01*
X39500Y40755D02*
Y42200D01*
X39400Y40732D02*
Y42200D01*
X39300Y40700D02*
Y42200D01*
X39067Y41500D02*
X41683D01*
X39067Y41400D02*
X41605D01*
X39067Y41300D02*
X41540D01*
X39067Y41200D02*
X41487D01*
X39067Y41100D02*
X41443D01*
X40152Y40700D02*
X41351D01*
X39200Y40659D02*
Y42200D01*
X36267Y41991D02*
X39067D01*
Y41000D02*
X41408D01*
X39000Y41991D02*
Y42200D01*
X38900Y41991D02*
Y42200D01*
X39067Y40900D02*
X41382D01*
X39067Y40800D02*
X41363D01*
X39067Y40700D02*
X39298D01*
X40975Y39500D02*
X41870D01*
X40917Y39900D02*
X41529D01*
X40944Y39800D02*
X41592D01*
X41800Y37866D02*
Y39560D01*
X41897Y37899D02*
Y39478D01*
X41600Y37768D02*
Y39788D01*
X41700Y37822D02*
Y39662D01*
X40969Y39400D02*
X41897D01*
X40955Y39300D02*
X41897D01*
X40963Y39700D02*
X41667D01*
X40973Y39600D02*
X41758D01*
X40932Y39200D02*
X41897D01*
X40900Y39100D02*
X41897D01*
X40859Y39000D02*
X41897D01*
X43597Y38500D02*
X45619D01*
X43597Y38400D02*
X45650D01*
X40807Y38900D02*
X41897D01*
X43597Y38600D02*
X45548D01*
X43597Y38300D02*
X45650D01*
X43597Y38200D02*
X45650D01*
X43597Y38100D02*
X45650D01*
X40743Y38800D02*
X41897D01*
X40664Y38700D02*
X41897D01*
X40575Y38600D02*
X41897D01*
X40575Y38500D02*
X41897D01*
X40575Y38400D02*
X41897D01*
X40575Y38300D02*
X41897D01*
X40575Y38200D02*
X41897D01*
X40900Y39952D02*
Y42200D01*
X40800Y40163D02*
Y42200D01*
X40700Y40307D02*
Y42200D01*
X40600Y40418D02*
Y42200D01*
X41300Y37512D02*
Y42200D01*
X41200Y37378D02*
Y42200D01*
X41100Y37190D02*
Y42200D01*
X40300Y40635D02*
Y42200D01*
X40363Y40600D02*
X41347D01*
X39100Y40607D02*
Y42200D01*
X39067Y40588D02*
Y41991D01*
X40507Y40500D02*
X41350D01*
X40500Y40506D02*
Y42200D01*
X40618Y40400D02*
X41360D01*
X40835Y40100D02*
X41436D01*
X40706Y40300D02*
X41378D01*
X40777Y40200D02*
X41403D01*
X40881Y40000D02*
X41478D01*
X41500Y37700D02*
Y39955D01*
X41400Y37616D02*
Y40210D01*
X35296Y38600D02*
X38875D01*
X35334Y38500D02*
X38875D01*
X35363Y38400D02*
X38875D01*
X35384Y38300D02*
X38875D01*
X35396Y38200D02*
X38875D01*
X44881Y36400D02*
X45650D01*
X44952Y36300D02*
X45650D01*
X45010Y36200D02*
X45650D01*
X45056Y36100D02*
X45650D01*
X49097Y34500D02*
X49200D01*
X45092Y36000D02*
X45650D01*
X45119Y35900D02*
X45650D01*
X43597Y38000D02*
X45650D01*
X43597Y37900D02*
X45650D01*
X43597Y37800D02*
X45650D01*
X44327Y36800D02*
X45650D01*
X44538Y36700D02*
X45650D01*
X44682Y36600D02*
X45650D01*
X44793Y36500D02*
X45650D01*
X49036Y34400D02*
X49200D01*
X48960Y34300D02*
X49200D01*
X48867Y34200D02*
X49200D01*
X48850Y34100D02*
X49200D01*
X48850Y34000D02*
X49200D01*
X48850Y33900D02*
X49200D01*
X48850Y33800D02*
X49200D01*
X48850Y33700D02*
X49200D01*
X48850Y33600D02*
X49200D01*
X48850Y33500D02*
X49200D01*
X48850Y33400D02*
X49200D01*
X48850Y33300D02*
X49200D01*
X48850Y33200D02*
X49200D01*
X48850Y33100D02*
X49200D01*
X45138Y35800D02*
X45650D01*
X45148Y35700D02*
X45650D01*
X45150Y35600D02*
X45650D01*
X45144Y35500D02*
X45650D01*
X45130Y35400D02*
X45650D01*
X45107Y35300D02*
X45650D01*
X45075Y35200D02*
X45650D01*
X45034Y35100D02*
X45650D01*
X44982Y35000D02*
X45650D01*
X44918Y34900D02*
X45650D01*
X44839Y34800D02*
X45650D01*
X44775Y34700D02*
X45650D01*
X44775Y34600D02*
X45650D01*
X44775Y34500D02*
X45650D01*
X44775Y34400D02*
X45650D01*
X44775Y34300D02*
X45650D01*
X44775Y34200D02*
X45650D01*
X44775Y34100D02*
X45650D01*
X44775Y34000D02*
X45650D01*
X44775Y33900D02*
X45650D01*
X44775Y33800D02*
X45650D01*
X44775Y33700D02*
X45650D01*
X44775Y33600D02*
X45650D01*
X44775Y33500D02*
X45650D01*
X44775Y33400D02*
X45650D01*
X44775Y33300D02*
X45650D01*
X44775Y33200D02*
X45650D01*
X48850Y33000D02*
X49200D01*
X48850Y32900D02*
X49200D01*
X48850Y32800D02*
X49200D01*
X48850Y32700D02*
X49200D01*
X48850Y32600D02*
X49200D01*
X48850Y32500D02*
X49200D01*
X48850Y32400D02*
X49200D01*
X48850Y32300D02*
X49200D01*
X48850Y32200D02*
X49200D01*
X48850Y32100D02*
X49200D01*
X44775Y33100D02*
X45650D01*
X48850Y32000D02*
X49200D01*
X48850Y31900D02*
X49200D01*
X48850Y31800D02*
X49200D01*
X48850Y31700D02*
X49200D01*
X48850Y31600D02*
X49200D01*
X48850Y31500D02*
X49200D01*
X48850Y31400D02*
X49200D01*
X48850Y31300D02*
X49200D01*
X48850Y31200D02*
X49200D01*
X48850Y31100D02*
X49200D01*
X48850Y31000D02*
X49200D01*
X48850Y30900D02*
X49200D01*
X48850Y30800D02*
X49200D01*
X48850Y30700D02*
X49200D01*
X48850Y30600D02*
X49200D01*
X48850Y30500D02*
X49200D01*
X48850Y30400D02*
X49200D01*
X48850Y30300D02*
X49200D01*
X44775Y33000D02*
X45650D01*
X44775Y32900D02*
X45650D01*
X44775Y32800D02*
X45650D01*
X44775Y32700D02*
X45650D01*
X44775Y32600D02*
X45650D01*
X44775Y32500D02*
X45650D01*
X44775Y32400D02*
X45650D01*
X44775Y32300D02*
X45650D01*
X44775Y32200D02*
X45650D01*
X44775Y32100D02*
X45650D01*
X44775Y32000D02*
X45650D01*
X44775Y31900D02*
X45650D01*
X44775Y31800D02*
X45650D01*
X44775Y31700D02*
X45650D01*
X44775Y31600D02*
X45650D01*
X44775Y31500D02*
X45650D01*
X44775Y31400D02*
X45650D01*
X44775Y31300D02*
X45650D01*
X44775Y31200D02*
X45650D01*
X44775Y31100D02*
X45650D01*
X44775Y31000D02*
X45650D01*
X44775Y30900D02*
X45650D01*
X44775Y30800D02*
X45650D01*
X44775Y30700D02*
X45650D01*
X44775Y30600D02*
X45650D01*
X44775Y30500D02*
X45650D01*
X44775Y30400D02*
X45650D01*
X44775Y30300D02*
X45650D01*
X43597Y37700D02*
X45650D01*
X43597Y37600D02*
X45650D01*
X43597Y37500D02*
X45650D01*
X43597Y37400D02*
X45650D01*
X43597Y37300D02*
X45650D01*
X43597Y37200D02*
X45650D01*
X43592Y37100D02*
X45650D01*
X43574Y37000D02*
X45650D01*
X43543Y36900D02*
X45650D01*
X40575Y38100D02*
X41897D01*
X40575Y35300D02*
X42693D01*
X40575Y35100D02*
X42766D01*
X40575Y35400D02*
X42670D01*
X40575Y35200D02*
X42725D01*
X40575Y34900D02*
X42882D01*
X40575Y34800D02*
X42961D01*
X40575Y35000D02*
X42818D01*
X40575Y34700D02*
X43059D01*
X40575Y34600D02*
X43075D01*
X40575Y34500D02*
X43075D01*
X40575Y34400D02*
X43075D01*
X40575Y34300D02*
X43075D01*
X40575Y34200D02*
X43075D01*
X40575Y34100D02*
X43075D01*
X40575Y38000D02*
X41897D01*
X40575Y37900D02*
X41897D01*
X40575Y37800D02*
X41656D01*
X40575Y37700D02*
X41500D01*
X40575Y37600D02*
X41382D01*
X40575Y37500D02*
X41289D01*
X40575Y37400D02*
X41214D01*
X40575Y37300D02*
X41153D01*
X40575Y37200D02*
X41104D01*
X35452Y38000D02*
X38875D01*
X35552Y37900D02*
X38875D01*
X40575Y37100D02*
X41066D01*
X40575Y37000D02*
X41036D01*
X40575Y36900D02*
X41016D01*
X40575Y36800D02*
X41004D01*
X40575Y36500D02*
X41016D01*
X40575Y36700D02*
X41000D01*
X40575Y36600D02*
X41004D01*
X40575Y36400D02*
X41037D01*
X40575Y36200D02*
X41104D01*
X40575Y36300D02*
X41066D01*
X40575Y35900D02*
X41290D01*
X40575Y35800D02*
X41383D01*
X40575Y36100D02*
X41153D01*
X40575Y36000D02*
X41214D01*
X40575Y35600D02*
X41657D01*
X40575Y35500D02*
X41900D01*
X40575Y35700D02*
X41500D01*
X42800Y33518D02*
Y35032D01*
X42900Y33493D02*
Y34875D01*
X42600Y33542D02*
Y35500D01*
X42700Y33534D02*
Y35276D01*
X43075Y33428D02*
Y34686D01*
X43000Y33460D02*
Y34758D01*
X42500Y33542D02*
Y35475D01*
X42400Y33534D02*
Y35459D01*
X40575Y34000D02*
X43075D01*
X40575Y33900D02*
X43075D01*
X42300Y33518D02*
Y35451D01*
X40575Y33800D02*
X43075D01*
X42200Y33493D02*
Y35451D01*
X42100Y33460D02*
Y35459D01*
X42000Y33416D02*
Y35475D01*
X40575Y33700D02*
X43075D01*
X40575Y33600D02*
X43075D01*
X42877Y33500D02*
X43075D01*
X40575D02*
X42223D01*
X40575Y33400D02*
X41968D01*
X40575Y31200D02*
X41944D01*
X40575Y31100D02*
X41975D01*
X40575Y31000D02*
X41975D01*
X40575Y30900D02*
X41975D01*
X40575Y30800D02*
X41975D01*
X40575Y30700D02*
X41975D01*
X40575Y30600D02*
X41975D01*
X40575Y30500D02*
X41975D01*
X41800Y33293D02*
Y35534D01*
X41900Y33361D02*
Y35500D01*
X41700Y33210D02*
Y35578D01*
X40575Y33300D02*
X41809D01*
X41500Y32971D02*
Y35700D01*
X41600Y33106D02*
Y35632D01*
X41400Y32783D02*
Y35784D01*
X40575Y33200D02*
X41689D01*
X40575Y33100D02*
X41595D01*
X40575Y33000D02*
X41519D01*
X40575Y32900D02*
X41457D01*
X40575Y32800D02*
X41407D01*
X40575Y32700D02*
X41368D01*
X40575Y32600D02*
X41338D01*
X40575Y32500D02*
X41317D01*
X40575Y32400D02*
X41305D01*
X40575Y32300D02*
X41300D01*
X40575Y32200D02*
X41304D01*
X40575Y32100D02*
X41315D01*
X40575Y31900D02*
X41364D01*
X40575Y32000D02*
X41335D01*
X40575Y31600D02*
X41510D01*
X40575Y31500D02*
X41584D01*
X40575Y31800D02*
X41402D01*
X40575Y31700D02*
X41450D01*
X40575Y31300D02*
X41791D01*
X40575Y30400D02*
X41975D01*
X40575Y31400D02*
X41676D01*
X38800Y41991D02*
Y42200D01*
X38700Y41991D02*
Y42200D01*
X38600Y41991D02*
Y42200D01*
X38500Y41991D02*
Y42200D01*
X38400Y41991D02*
Y42200D01*
X38300Y41991D02*
Y42200D01*
X38200Y41991D02*
Y42200D01*
X38100Y41991D02*
Y42200D01*
X38000Y41991D02*
Y42200D01*
X37900Y41991D02*
Y42200D01*
X37800Y41991D02*
Y42200D01*
X37700Y41991D02*
Y42200D01*
X37600Y41991D02*
Y42200D01*
X37500Y41991D02*
Y42200D01*
X37400Y41991D02*
Y42200D01*
X37300Y41991D02*
Y42200D01*
X37200Y41991D02*
Y42200D01*
X37100Y41991D02*
Y42200D01*
X37000Y41991D02*
Y42200D01*
X36900Y41991D02*
Y42200D01*
X36800Y41991D02*
Y42200D01*
X36700Y41991D02*
Y42200D01*
X36600Y41991D02*
Y42200D01*
X36500Y41991D02*
Y42200D01*
X36400Y41991D02*
Y42200D01*
X36300Y41991D02*
Y42200D01*
X32501Y39800D02*
X36267D01*
X32744Y39700D02*
X36267D01*
X32900Y39600D02*
X36267D01*
X34400Y39325D02*
Y42200D01*
X34300Y39341D02*
Y42200D01*
X34200Y39349D02*
Y42200D01*
X33100Y39413D02*
Y42200D01*
X34100Y39349D02*
Y42200D01*
X34000Y39341D02*
Y42200D01*
X33900Y39325D02*
Y42200D01*
X32800Y39668D02*
Y42200D01*
X32600Y39766D02*
Y42200D01*
X32500Y39800D02*
Y42200D01*
X32400Y39825D02*
Y42200D01*
X33000Y39517D02*
Y42200D01*
X32900Y39600D02*
Y42200D01*
X32700Y39723D02*
Y42200D01*
X32300Y39841D02*
Y42200D01*
X32200Y39849D02*
Y42200D01*
X32100Y39849D02*
Y42200D01*
X32000Y39841D02*
Y42200D01*
X33018Y39500D02*
X36267D01*
X33111Y39400D02*
X36267D01*
X31900Y39825D02*
Y42200D01*
X31800Y39800D02*
Y42200D01*
X31700Y39766D02*
Y42200D01*
X31600Y39722D02*
Y42200D01*
X31500Y39668D02*
Y42200D01*
X31400Y39600D02*
Y42200D01*
X31300Y39516D02*
Y42200D01*
X31200Y39412D02*
Y42200D01*
X38100Y35352D02*
Y39191D01*
X38000Y35452D02*
Y39191D01*
X37900Y35552D02*
Y39191D01*
X37800Y35652D02*
Y39191D01*
X38500Y34952D02*
Y39191D01*
X38400Y35052D02*
Y39191D01*
X38300Y35152D02*
Y39191D01*
X38200Y35252D02*
Y39191D01*
X34501Y39300D02*
X36267D01*
Y39191D02*
X38521D01*
X36200Y37252D02*
Y42200D01*
X36267Y39191D02*
Y41991D01*
X37700Y35752D02*
Y39191D01*
X37600Y35852D02*
Y39191D01*
X37500Y35952D02*
Y39191D01*
X37100Y36352D02*
Y39191D01*
X37000Y36452D02*
Y39191D01*
X36900Y36552D02*
Y39191D01*
X36800Y36652D02*
Y39191D01*
X37400Y36052D02*
Y39191D01*
X37300Y36152D02*
Y39191D01*
X37200Y36252D02*
Y39191D01*
X36400Y37052D02*
Y39191D01*
X34900Y39100D02*
X38550D01*
X34744Y39200D02*
X36267D01*
X36300Y37152D02*
Y39191D01*
X36700Y36752D02*
Y39191D01*
X36600Y36852D02*
Y39191D01*
X36500Y36952D02*
Y39191D01*
X35800Y37652D02*
Y42200D01*
X35700Y37752D02*
Y42200D01*
X35600Y37852D02*
Y42200D01*
X35500Y37952D02*
Y42200D01*
X36100Y37352D02*
Y42200D01*
X36000Y37452D02*
Y42200D01*
X35900Y37552D02*
Y42200D01*
X35100Y38913D02*
Y42200D01*
X35000Y39017D02*
Y42200D01*
X34900Y39100D02*
Y42200D01*
X34800Y39168D02*
Y42200D01*
X35400Y38119D02*
Y42200D01*
X35300Y38590D02*
Y42200D01*
X35200Y38778D02*
Y42200D01*
X34600Y39266D02*
Y42200D01*
X34500Y39300D02*
Y42200D01*
X33800Y39300D02*
Y42200D01*
X33700Y39266D02*
Y42200D01*
X34700Y39223D02*
Y42200D01*
X33600Y39222D02*
Y42200D01*
X33500Y39168D02*
Y42200D01*
X33186Y39300D02*
X33799D01*
X33247Y39200D02*
X33556D01*
X33400Y39100D02*
Y42200D01*
X33200Y39278D02*
Y42200D01*
X33296Y39100D02*
X33400D01*
X33300Y39090D02*
Y42200D01*
X26199Y41900D02*
X36267D01*
X26199Y41800D02*
X36267D01*
X26191Y41700D02*
X36267D01*
X26175Y41600D02*
X36267D01*
X26150Y41500D02*
X36267D01*
X26116Y41400D02*
X36267D01*
X31100Y39278D02*
Y42200D01*
X26072Y41300D02*
X36267D01*
X26018Y41200D02*
X36267D01*
X25950Y41100D02*
X36267D01*
X25900Y41000D02*
X36267D01*
X25900Y40900D02*
X36267D01*
X25900Y40800D02*
X36267D01*
X25900Y40700D02*
X36267D01*
X25900Y40600D02*
X36267D01*
X25900Y40500D02*
X36267D01*
X25900Y40400D02*
X36267D01*
X25900Y40300D02*
X36267D01*
X25900Y40200D02*
X36267D01*
X25900Y40100D02*
X36267D01*
X25900Y40000D02*
X36267D01*
X25900Y39900D02*
X36267D01*
X25900Y39800D02*
X31799D01*
X25900Y39700D02*
X31556D01*
X25900Y39600D02*
X31400D01*
X25900Y39500D02*
X31282D01*
X25900Y39400D02*
X31189D01*
X25900Y39300D02*
X31114D01*
X31000Y39090D02*
Y42200D01*
X30900Y36825D02*
Y42200D01*
X30800Y36825D02*
Y42200D01*
X30700Y36825D02*
Y42200D01*
X30600Y36825D02*
Y42200D01*
X30500Y36825D02*
Y42200D01*
X30400Y36825D02*
Y42200D01*
X30300Y36825D02*
Y42200D01*
X30200Y36825D02*
Y42200D01*
X30100Y36825D02*
Y42200D01*
X30000Y36825D02*
Y42200D01*
X29900Y36825D02*
Y42200D01*
X29800Y36825D02*
Y42200D01*
X29700Y36825D02*
Y42200D01*
X29600Y36825D02*
Y42200D01*
X29500Y36825D02*
Y42200D01*
X29400Y36825D02*
Y42200D01*
X29300Y36825D02*
Y42200D01*
X29200Y36825D02*
Y42200D01*
X29100Y36825D02*
Y42200D01*
X28300Y36825D02*
Y42200D01*
X26200Y41868D02*
Y42200D01*
X28200Y36841D02*
Y42200D01*
X25900Y39200D02*
X31053D01*
X28100Y36849D02*
Y42200D01*
X28700Y36668D02*
Y42200D01*
X28500Y36766D02*
Y42200D01*
X28400Y36800D02*
Y42200D01*
X28000Y36849D02*
Y42200D01*
X29000Y36413D02*
Y42200D01*
X28900Y36517D02*
Y42200D01*
X28800Y36600D02*
Y42200D01*
X28600Y36723D02*
Y42200D01*
X27900Y36841D02*
Y42200D01*
X27800Y36825D02*
Y42200D01*
X27700Y36800D02*
Y42200D01*
X27600Y36766D02*
Y42200D01*
X27500Y36722D02*
Y42200D01*
X27400Y36668D02*
Y42200D01*
X27300Y36600D02*
Y42200D01*
X27200Y36516D02*
Y42200D01*
X27100Y36412D02*
Y42200D01*
X27000Y36278D02*
Y42200D01*
X26900Y36090D02*
Y42200D01*
X26800Y35075D02*
Y42200D01*
X26700Y35075D02*
Y42200D01*
X26600Y35075D02*
Y42200D01*
X26500Y35075D02*
Y42200D01*
X26400Y35075D02*
Y42200D01*
X26300Y35075D02*
Y42200D01*
X26200Y35075D02*
Y41832D01*
X26100Y35075D02*
Y41360D01*
X26000Y35075D02*
Y41172D01*
X25900Y35075D02*
Y41038D01*
X23400Y36248D02*
Y42200D01*
X23300Y36282D02*
Y42200D01*
X23200Y36307D02*
Y42200D01*
X23100Y36324D02*
Y42200D01*
X23700Y36093D02*
Y42200D01*
X23600Y36155D02*
Y42200D01*
X23500Y36206D02*
Y42200D01*
X23000Y36334D02*
Y42200D01*
X22900Y36337D02*
Y42200D01*
X22800Y36333D02*
Y42200D01*
X22700Y36321D02*
Y42200D01*
X22600Y36302D02*
Y42200D01*
X22500Y36276D02*
Y42200D01*
X22400Y36241D02*
Y42200D01*
X22300Y36197D02*
Y42200D01*
X23800Y36017D02*
Y41360D01*
X22200Y36144D02*
Y42200D01*
X22100Y36079D02*
Y42200D01*
X24000Y35815D02*
Y41038D01*
X24000Y35815D02*
Y41038D01*
X23900Y35927D02*
Y41172D01*
X21700Y36337D02*
Y42200D01*
X21600Y36337D02*
Y42200D01*
X21500Y36337D02*
Y42200D01*
X21400Y36337D02*
Y42200D01*
X22000Y36001D02*
Y42200D01*
X21900Y35907D02*
Y42200D01*
X21800Y35791D02*
Y42200D01*
X36352Y37100D02*
X38875D01*
X36452Y37000D02*
X38875D01*
X36552Y36900D02*
X38875D01*
X36652Y36800D02*
X38875D01*
X36752Y36700D02*
X38875D01*
X36852Y36600D02*
X38875D01*
X36952Y36500D02*
X38875D01*
X37052Y36400D02*
X38875D01*
X35652Y37800D02*
X38875D01*
X35752Y37700D02*
X38875D01*
X35852Y37600D02*
X38875D01*
X35952Y37500D02*
X38875D01*
X36052Y37400D02*
X38875D01*
X36152Y37300D02*
X38875D01*
X36252Y37200D02*
X38875D01*
X37852Y35600D02*
X38875D01*
X37952Y35500D02*
X38875D01*
X38052Y35400D02*
X38875D01*
X38152Y35300D02*
X38875D01*
X38252Y35200D02*
X38875D01*
X38352Y35100D02*
X38875D01*
X38452Y35000D02*
X38875D01*
X37152Y36300D02*
X38875D01*
X37252Y36200D02*
X38875D01*
X37352Y36100D02*
X38875D01*
X37452Y36000D02*
X38875D01*
X37552Y35900D02*
X38875D01*
X37652Y35800D02*
X38875D01*
X37752Y35700D02*
X38875D01*
X35186Y38800D02*
X38707D01*
X35247Y38700D02*
X38786D01*
X38600Y34852D02*
Y38980D01*
X38700Y34752D02*
Y38810D01*
X38875Y34577D02*
Y38608D01*
X35399Y38053D02*
X38875Y34577D01*
X38800Y34652D02*
Y38684D01*
X35018Y39000D02*
X38591D01*
X35111Y38900D02*
X38643D01*
X32825Y36000D02*
X32973D01*
X32825Y35900D02*
X33073D01*
X32825Y35700D02*
X33273D01*
X32825Y35600D02*
X33373D01*
X32825Y35800D02*
X33173D01*
X32825Y35300D02*
X33673D01*
X32825Y35200D02*
X33773D01*
X32825Y35500D02*
X33473D01*
X32825Y35400D02*
X33573D01*
X38552Y34900D02*
X38875D01*
X38652Y34800D02*
X38875D01*
X38752Y34700D02*
X38875D01*
X32825Y34900D02*
X34073D01*
X32825Y34800D02*
X34173D01*
X32825Y35100D02*
X33873D01*
X32825Y35000D02*
X33973D01*
X32825Y34600D02*
X34373D01*
X32825Y34500D02*
X34473D01*
X32825Y34700D02*
X34273D01*
X34200Y33000D02*
X35973D01*
X34268Y32900D02*
X36073D01*
X34013Y33200D02*
X35773D01*
X34117Y33100D02*
X35873D01*
X34400Y32600D02*
X36373D01*
X34425Y32500D02*
X36473D01*
X34323Y32800D02*
X36173D01*
X34366Y32700D02*
X36273D01*
X32825Y33600D02*
X35373D01*
X33219Y33500D02*
X35473D01*
X32825Y33800D02*
X35173D01*
X32825Y33700D02*
X35273D01*
X32825Y36148D02*
X36850Y32123D01*
X33878Y33300D02*
X35673D01*
X33690Y33400D02*
X35573D01*
X34449Y32200D02*
X36773D01*
X34441Y32100D02*
X36850D01*
X34441Y32400D02*
X36573D01*
X34449Y32300D02*
X36673D01*
X34425Y32000D02*
X36850D01*
X34400Y31900D02*
X36850D01*
X34366Y31800D02*
X36850D01*
X34322Y31700D02*
X36850D01*
X34268Y31600D02*
X36850D01*
X34200Y31500D02*
X36850D01*
X34116Y31400D02*
X36850D01*
X34012Y31300D02*
X36850D01*
X33878Y31200D02*
X36850D01*
X33690Y31100D02*
X36850D01*
X33700Y33396D02*
Y35273D01*
X33800Y33347D02*
Y35173D01*
X33500Y33464D02*
Y35473D01*
X33600Y33434D02*
Y35373D01*
X34000Y33211D02*
Y34973D01*
X34100Y33118D02*
Y34873D01*
X33900Y33286D02*
Y35073D01*
X33300Y33496D02*
Y35673D01*
X33400Y33484D02*
Y35573D01*
X32825Y34075D02*
Y36148D01*
X33200Y33500D02*
Y35773D01*
X33000Y33484D02*
Y35973D01*
X33100Y33496D02*
Y35873D01*
X32900Y33502D02*
Y36073D01*
X34200Y33000D02*
Y34773D01*
X32825Y34400D02*
X34573D01*
X32825Y34075D02*
Y34675D01*
X32902Y33500D02*
X33181D01*
X34400Y32600D02*
Y34573D01*
X34300Y32844D02*
Y34673D01*
X32825Y34100D02*
X34873D01*
X32825Y34000D02*
X34973D01*
X32825Y34300D02*
X34673D01*
X32825Y34200D02*
X34773D01*
X32825Y33900D02*
X35073D01*
X32825Y33577D02*
X32931Y33471D01*
X32825Y33577D02*
Y34075D01*
X25900Y39100D02*
X31004D01*
X31500Y36825D02*
Y37477D01*
X31300Y36825D02*
Y37684D01*
X31400Y36825D02*
Y37600D01*
X31100Y36825D02*
Y37922D01*
X31200Y36825D02*
Y37788D01*
X25900Y37900D02*
X31114D01*
X25900Y37800D02*
X31190D01*
X25900Y39000D02*
X30966D01*
X25900Y38000D02*
X31053D01*
X25900Y37600D02*
X31400D01*
X25900Y37500D02*
X31482D01*
X25900Y37700D02*
X31283D01*
X31900Y36825D02*
Y37073D01*
X32000Y36825D02*
Y36973D01*
X31700Y36825D02*
Y37273D01*
X31800Y36825D02*
Y37173D01*
X31549Y37424D02*
X32148Y36825D01*
X30975D02*
X32148D01*
X31600D02*
Y37373D01*
X25900Y37200D02*
X31773D01*
X25900Y37100D02*
X31873D01*
X25900Y37400D02*
X31573D01*
X25900Y37300D02*
X31673D01*
X25900Y37000D02*
X31973D01*
X25900Y36900D02*
X32073D01*
X30975Y36825D02*
X31875D01*
X25900Y38900D02*
X30937D01*
X31000Y36825D02*
Y38110D01*
X25900Y38800D02*
X30916D01*
X30025Y36825D02*
X30925D01*
X29075Y36825D02*
X30925D01*
X28400Y36800D02*
X29075D01*
Y36315D02*
Y36825D01*
X25900Y38700D02*
X30904D01*
X25900Y38600D02*
X30900D01*
X25900Y38500D02*
X30904D01*
X25900Y38400D02*
X30916D01*
X25900Y38300D02*
X30937D01*
X25900Y38200D02*
X30966D01*
X25900Y38100D02*
X31004D01*
X28644Y36700D02*
X29075D01*
X28800Y36600D02*
X29075D01*
X25900Y36800D02*
X27700D01*
X25900Y36700D02*
X27456D01*
X25900Y36600D02*
X27300D01*
X28918Y36500D02*
X29075D01*
X25900D02*
X27182D01*
X25900Y36400D02*
X27089D01*
X25900Y36300D02*
X27014D01*
X23230D02*
X24000D01*
X21770D02*
X22589D01*
X25900Y36200D02*
X26953D01*
X23514D02*
X24000D01*
X21770D02*
X22305D01*
X31800Y31056D02*
Y31925D01*
X31700Y31156D02*
Y31925D01*
X31600Y31257D02*
Y31925D01*
X32100Y30757D02*
Y31657D01*
X32200Y30656D02*
Y31500D01*
X32000Y30857D02*
Y31900D01*
X31900Y30956D02*
Y31925D01*
X31056Y31800D02*
X32034D01*
X31156Y31700D02*
X32078D01*
X30975Y31925D02*
X31993D01*
X30956Y31900D02*
X32000D01*
X31257Y31600D02*
X32132D01*
X31357Y31500D02*
X32200D01*
X31500Y31357D02*
Y31925D01*
X32157Y30700D02*
X36850D01*
X32257Y30600D02*
X36850D01*
X32300Y30556D02*
Y31383D01*
X32356Y30500D02*
X36850D01*
X32500Y30357D02*
Y31214D01*
X32457Y30400D02*
X36850D01*
X32400Y30456D02*
Y31290D01*
X31656Y31200D02*
X32522D01*
X31757Y31100D02*
X32710D01*
X31456Y31400D02*
X32284D01*
X31556Y31300D02*
X32388D01*
X31857Y31000D02*
X36850D01*
X31956Y30900D02*
X36850D01*
X32056Y30800D02*
X36850D01*
X25900Y36100D02*
X26904D01*
X25900Y36000D02*
X26866D01*
X25900Y35900D02*
X26837D01*
X25900Y35800D02*
X26816D01*
X30950Y35450D02*
Y36675D01*
X25900Y35700D02*
X26804D01*
X23689Y36100D02*
X24000D01*
X23821Y36000D02*
X24000D01*
X21770Y36100D02*
X22130D01*
X21770Y36000D02*
X21998D01*
X21770Y35900D02*
X21893D01*
X21770Y35750D02*
Y36337D01*
X30950Y34225D02*
Y35450D01*
X31100Y31757D02*
Y31925D01*
X30975D02*
Y34075D01*
X30925Y31931D02*
Y34075D01*
X31400Y31456D02*
Y31925D01*
X31300Y31556D02*
Y31925D01*
X31200Y31656D02*
Y31925D01*
X25900Y35600D02*
X26800D01*
X25900Y35500D02*
X26804D01*
X25900Y35400D02*
X26816D01*
X25900Y35300D02*
X26837D01*
X25900Y35200D02*
X26866D01*
X25900Y35100D02*
X26904D01*
X25900Y35075D02*
X26916D01*
X48850Y30200D02*
X49200D01*
X48850Y30100D02*
X49200D01*
X48850Y30000D02*
X49200D01*
X48850Y29900D02*
X49200D01*
X48850Y29800D02*
X49200D01*
X48850Y29700D02*
X49200D01*
X48850Y29600D02*
X49200D01*
X48850Y29500D02*
X49200D01*
X48850Y29400D02*
X49200D01*
X48850Y29300D02*
X49200D01*
X48850Y29200D02*
X49200D01*
X48850Y29100D02*
X49200D01*
X48850Y29000D02*
X49200D01*
X48850Y28900D02*
X49200D01*
X48850Y28800D02*
X49200D01*
X48850Y28700D02*
X49200D01*
X48850Y28600D02*
X49200D01*
X48850Y28500D02*
X49200D01*
X48850Y28400D02*
X49200D01*
X48850Y28300D02*
X49200D01*
X48850Y28200D02*
X49200D01*
X48850Y28100D02*
X49200D01*
X48850Y28000D02*
X49200D01*
X48850Y27900D02*
X49200D01*
X48850Y27800D02*
X49200D01*
X48850Y27700D02*
X49200D01*
X48850Y27600D02*
X49200D01*
X48850Y27500D02*
X49200D01*
X48850Y27400D02*
X49200D01*
X48850Y27300D02*
X49200D01*
X48850Y27200D02*
X49200D01*
X48850Y27100D02*
X49200D01*
X48850Y27000D02*
X49200D01*
X48850Y26900D02*
X49200D01*
X48850Y26800D02*
X49200D01*
X48850Y26700D02*
X49200D01*
X48850Y26600D02*
X49200D01*
X48850Y26500D02*
X49200D01*
X48850Y26400D02*
X49200D01*
X48850Y26300D02*
X49200D01*
X48850Y26200D02*
X49200D01*
X48850Y26100D02*
X49200D01*
X48850Y26000D02*
X49200D01*
X48850Y25900D02*
X49200D01*
X48850Y25800D02*
X49200D01*
X48850Y25700D02*
X49200D01*
X48850Y25600D02*
X49200D01*
X48850Y25500D02*
X49200D01*
X48850Y25400D02*
X49200D01*
X48850Y25300D02*
X49200D01*
X48850Y25200D02*
X49200D01*
X48850Y25100D02*
X49200D01*
X48850Y25000D02*
X49200D01*
X48850Y24900D02*
X49200D01*
X48850Y24800D02*
X49200D01*
X48850Y24700D02*
X49200D01*
X48850Y24600D02*
X49200D01*
X48850Y24500D02*
X49200D01*
X48850Y24400D02*
X49200D01*
X48850Y24300D02*
X49200D01*
X48850Y24200D02*
X49200D01*
X48850Y24100D02*
X49200D01*
X48850Y24000D02*
X49200D01*
X48850Y23900D02*
X49200D01*
X48850Y23800D02*
X49200D01*
X48850Y23700D02*
X49200D01*
X48850Y23600D02*
X49200D01*
X48850Y23500D02*
X49200D01*
X48850Y23400D02*
X49200D01*
X48850Y23300D02*
X49200D01*
X48850Y23200D02*
X49200D01*
X48850Y23100D02*
X49200D01*
X48850Y23000D02*
X49200D01*
X48850Y22900D02*
X49200D01*
X48850Y22800D02*
X49200D01*
X48850Y22700D02*
X49200D01*
X48850Y22600D02*
X49200D01*
X48850Y22500D02*
X49200D01*
X48850Y22400D02*
X49200D01*
X48850Y22300D02*
X49200D01*
X48850Y22200D02*
X49200D01*
X48850Y22100D02*
X49200D01*
X48850Y22000D02*
X49200D01*
X48850Y21900D02*
X49200D01*
X48850Y21800D02*
X49200D01*
X48850Y21700D02*
X49200D01*
X49200Y800D02*
Y34749D01*
X48850Y21600D02*
X49200D01*
X48850Y15976D02*
Y34183D01*
X48900Y15800D02*
Y34232D01*
X49200Y800D02*
Y34750D01*
X49100Y800D02*
Y34506D01*
X49000Y800D02*
Y34350D01*
X48850Y21500D02*
X49200D01*
X48850Y21400D02*
X49200D01*
X48850Y21300D02*
X49200D01*
X48850Y21200D02*
X49200D01*
X48850Y21100D02*
X49200D01*
X48850Y21000D02*
X49200D01*
X48850Y20900D02*
X49200D01*
X48850Y20800D02*
X49200D01*
X48850Y20700D02*
X49200D01*
X48850Y20600D02*
X49200D01*
X48850Y20500D02*
X49200D01*
X48850Y20400D02*
X49200D01*
X48850Y20300D02*
X49200D01*
X48850Y20200D02*
X49200D01*
X48850Y20100D02*
X49200D01*
X48850Y20000D02*
X49200D01*
X48850Y19900D02*
X49200D01*
X48850Y19800D02*
X49200D01*
X48850Y19700D02*
X49200D01*
X48850Y19600D02*
X49200D01*
X48850Y19500D02*
X49200D01*
X44775Y30200D02*
X45650D01*
X44775Y30100D02*
X45650D01*
X44775Y30000D02*
X45650D01*
X44775Y29900D02*
X45650D01*
X44775Y29800D02*
X45650D01*
X44775Y29700D02*
X45650D01*
X44775Y29600D02*
X45650D01*
X44775Y29500D02*
X45650D01*
X44775Y29400D02*
X45650D01*
X44775Y29300D02*
X45650D01*
X44775Y29200D02*
X45650D01*
X44775Y29100D02*
X45650D01*
X44775Y29000D02*
X45650D01*
X44775Y28900D02*
X45650D01*
X44775Y28800D02*
X45650D01*
X44775Y28700D02*
X45650D01*
X44775Y28600D02*
X45650D01*
X44775Y28500D02*
X45650D01*
X44775Y28400D02*
X45650D01*
X44775Y28300D02*
X45650D01*
X44775Y28200D02*
X45650D01*
X44775Y28100D02*
X45650D01*
X44775Y28000D02*
X45650D01*
X44775Y27900D02*
X45650D01*
X44775Y27800D02*
X45650D01*
X44775Y27700D02*
X45650D01*
X44775Y27600D02*
X45650D01*
X44775Y27500D02*
X45650D01*
X44775Y27400D02*
X45650D01*
X44775Y27300D02*
X45650D01*
X44775Y27200D02*
X45650D01*
X44775Y27100D02*
X45650D01*
X44775Y27000D02*
X45650D01*
X44775Y26900D02*
X45650D01*
X44775Y26800D02*
X45650D01*
X44775Y26700D02*
X45650D01*
X44775Y26600D02*
X45650D01*
X44775Y26500D02*
X45650D01*
X44775Y26400D02*
X45650D01*
X44775Y26300D02*
X45650D01*
X44775Y26200D02*
X45650D01*
X44775Y26100D02*
X45650D01*
X44775Y26000D02*
X45650D01*
X44775Y25900D02*
X45650D01*
X44775Y25800D02*
X45650D01*
X44775Y25700D02*
X45650D01*
X44775Y25600D02*
X45650D01*
X44775Y25500D02*
X45650D01*
X44775Y25400D02*
X45650D01*
X44775Y25300D02*
X45650D01*
X44775Y25200D02*
X45650D01*
X44775Y25100D02*
X45650D01*
X44775Y25000D02*
X45650D01*
X44775Y24900D02*
X45650D01*
X44775Y24800D02*
X45650D01*
X44775Y24700D02*
X45650D01*
X44775Y24600D02*
X45650D01*
X44775Y24500D02*
X45650D01*
X44775Y24400D02*
X45650D01*
X44775Y24300D02*
X45650D01*
X44775Y24200D02*
X45650D01*
X44775Y24100D02*
X45650D01*
X44775Y24000D02*
X45650D01*
X44775Y23900D02*
X45650D01*
X44775Y23800D02*
X45650D01*
X44775Y23700D02*
X45650D01*
X44775Y23600D02*
X45650D01*
X44775Y23500D02*
X45650D01*
X44775Y23400D02*
X45650D01*
X44775Y23300D02*
X45650D01*
X44775Y23200D02*
X45650D01*
X44775Y23100D02*
X45650D01*
X48850Y19400D02*
X49200D01*
X48850Y19300D02*
X49200D01*
X48850Y19200D02*
X49200D01*
X48850Y19100D02*
X49200D01*
X48850Y19000D02*
X49200D01*
X48850Y18900D02*
X49200D01*
X48850Y18800D02*
X49200D01*
X48850Y18700D02*
X49200D01*
X48850Y18600D02*
X49200D01*
X44775Y23000D02*
X45650D01*
X48850Y18500D02*
X49200D01*
X48850Y18400D02*
X49200D01*
X48850Y18300D02*
X49200D01*
X48850Y18200D02*
X49200D01*
X45650Y21319D02*
Y38463D01*
X44775Y22900D02*
X45650D01*
X45500Y21168D02*
Y38682D01*
X45600Y21268D02*
Y38525D01*
X45300Y20968D02*
Y39191D01*
X45400Y21068D02*
Y38926D01*
X45200Y20868D02*
Y39193D01*
X44775Y22800D02*
X45650D01*
X44775Y22700D02*
X45650D01*
X44775Y22600D02*
X45650D01*
X44775Y22500D02*
X45650D01*
X44775Y22400D02*
X45650D01*
X44775Y22300D02*
X45650D01*
X44775Y22200D02*
X45650D01*
X44775Y22100D02*
X45650D01*
X44775Y22000D02*
X45650D01*
X44775Y21900D02*
X45650D01*
X44775Y21800D02*
X45650D01*
X44775Y21700D02*
X45650D01*
X44775Y21600D02*
X45650D01*
X44775Y21500D02*
X45650D01*
X44775Y21400D02*
X45650D01*
X44775Y21300D02*
X45631D01*
X44775Y21200D02*
X45531D01*
X44775Y21100D02*
X45431D01*
X44775Y20444D02*
X45650Y21319D01*
X44775Y21000D02*
X45331D01*
X44775Y20900D02*
X45231D01*
X48850Y18100D02*
X49200D01*
X48850Y18000D02*
X49200D01*
X48850Y17900D02*
X49200D01*
X48850Y17800D02*
X49200D01*
X48850Y17700D02*
X49200D01*
X48850Y17600D02*
X49200D01*
X48850Y17500D02*
X49200D01*
X48850Y17400D02*
X49200D01*
X48850Y17300D02*
X49200D01*
X48850Y17200D02*
X49200D01*
X48850Y17100D02*
X49200D01*
X48850Y17000D02*
X49200D01*
X48850Y16900D02*
X49200D01*
X48850Y16800D02*
X49200D01*
X48850Y16700D02*
X49200D01*
X48850Y16600D02*
X49200D01*
X48900Y15800D02*
X49200D01*
X48916Y15700D02*
X49200D01*
X48924Y15600D02*
X49200D01*
X48924Y15500D02*
X49200D01*
X48916Y15400D02*
X49200D01*
X48900Y15300D02*
X49200D01*
X48850Y16500D02*
X49200D01*
X48850Y16400D02*
X49200D01*
X48850Y16300D02*
X49200D01*
X48850Y16200D02*
X49200D01*
X48850Y16100D02*
X49200D01*
X48850Y16000D02*
X49200D01*
X48875Y15900D02*
X49200D01*
X48875Y15200D02*
X49200D01*
X48841Y15100D02*
X49200D01*
X48797Y15000D02*
X49200D01*
X48743Y14900D02*
X49200D01*
X48675Y14800D02*
X49200D01*
X48591Y14700D02*
X49200D01*
X48487Y14600D02*
X49200D01*
X46257D02*
X46863D01*
X46456Y14800D02*
X46675D01*
X46368Y14700D02*
X46759D01*
X46300Y3059D02*
Y14636D01*
X46200Y3155D02*
Y14557D01*
X48353Y14500D02*
X49200D01*
X48165Y14400D02*
X49200D01*
X46113Y14500D02*
X46997D01*
X46000Y3301D02*
Y14441D01*
X46001Y3300D02*
X49200D01*
X46146Y3200D02*
X49200D01*
X46100Y3235D02*
Y14492D01*
X45901Y14400D02*
X47185D01*
X45900Y3355D02*
Y14399D01*
X45600Y3463D02*
Y14331D01*
X45500Y3483D02*
Y14325D01*
X45800Y3400D02*
Y14368D01*
X45800Y3400D02*
X49200D01*
X45700Y3436D02*
Y14345D01*
X46647Y2400D02*
X49200D01*
X46666Y2300D02*
X49200D01*
X48900Y800D02*
Y15300D01*
X46676Y2200D02*
X49200D01*
X48800Y800D02*
Y15005D01*
X48700Y800D02*
Y14834D01*
X48600Y800D02*
Y14709D01*
X48500Y800D02*
Y14611D01*
X46260Y3100D02*
X49200D01*
X46352Y3000D02*
X49200D01*
X46429Y2900D02*
X49200D01*
X46492Y2800D02*
X49200D01*
X46545Y2700D02*
X49200D01*
X46588Y2600D02*
X49200D01*
X46622Y2500D02*
X49200D01*
X46680Y2100D02*
X49200D01*
X46676Y2000D02*
X49200D01*
X46666Y1900D02*
X49200D01*
X46647Y1800D02*
X49200D01*
X46622Y1700D02*
X49200D01*
X46588Y1600D02*
X49200D01*
X46545Y1500D02*
X49200D01*
X46492Y1400D02*
X49200D01*
X46429Y1300D02*
X49200D01*
X46352Y1200D02*
X49200D01*
X46260Y1100D02*
X49200D01*
X46146Y1000D02*
X49200D01*
X46001Y900D02*
X49200D01*
X45800Y800D02*
X49200D01*
X48400D02*
Y14532D01*
X48300Y800D02*
Y14467D01*
X48200Y800D02*
Y14416D01*
X48100Y800D02*
Y14374D01*
X47200Y800D02*
Y14394D01*
X48000Y800D02*
Y14343D01*
X47100Y800D02*
Y14440D01*
X46600Y2567D02*
Y14912D01*
X47000Y800D02*
Y14498D01*
X46500Y2787D02*
Y14859D01*
X46400Y2940D02*
Y14734D01*
X46800Y800D02*
Y14657D01*
X46900Y800D02*
Y14569D01*
X46700Y800D02*
Y14768D01*
X47900Y800D02*
Y14320D01*
X47800Y800D02*
Y14306D01*
X47700Y800D02*
Y14300D01*
X47600Y800D02*
Y14302D01*
X47500Y800D02*
Y14312D01*
X47400Y800D02*
Y14331D01*
X47300Y800D02*
Y14358D01*
X46600Y800D02*
Y1633D01*
X46500Y800D02*
Y1413D01*
X46400Y800D02*
Y1260D01*
X46300Y800D02*
Y1141D01*
X46200Y800D02*
Y1045D01*
X46100Y800D02*
Y965D01*
X44173Y14300D02*
X49200D01*
X43675Y14200D02*
X49200D01*
X43675Y14100D02*
X49200D01*
X43675Y14000D02*
X49200D01*
X43675Y13900D02*
X49200D01*
X43675Y13800D02*
X49200D01*
X43675Y13700D02*
X49200D01*
X43675Y13600D02*
X49200D01*
X43675Y13500D02*
X49200D01*
X43675Y13400D02*
X49200D01*
X43675Y13300D02*
X49200D01*
X43675Y13200D02*
X49200D01*
X43675Y13100D02*
X49200D01*
X43675Y13000D02*
X49200D01*
X43675Y12900D02*
X49200D01*
X43675Y12800D02*
X49200D01*
X43675Y12700D02*
X49200D01*
X43675Y12600D02*
X49200D01*
X43675Y12500D02*
X49200D01*
X43675Y12400D02*
X49200D01*
X43675Y12300D02*
X49200D01*
X43675Y12200D02*
X49200D01*
X43675Y12100D02*
X49200D01*
X43675Y12000D02*
X49200D01*
X43675Y11900D02*
X49200D01*
X43675Y11800D02*
X49200D01*
X43675Y11700D02*
X49200D01*
X43675Y11600D02*
X49200D01*
X43675Y11500D02*
X49200D01*
X43675Y11400D02*
X49200D01*
X43675Y11300D02*
X49200D01*
X43675Y11200D02*
X49200D01*
X43675Y11100D02*
X49200D01*
X43675Y11000D02*
X49200D01*
X43669Y10900D02*
X49200D01*
X43651Y10800D02*
X49200D01*
X43620Y10700D02*
X49200D01*
X43575Y10600D02*
X49200D01*
X43512Y10500D02*
X49200D01*
X43427Y10400D02*
X49200D01*
X43327Y10300D02*
X49200D01*
X43227Y10200D02*
X49200D01*
X43127Y10100D02*
X49200D01*
X43027Y10000D02*
X49200D01*
X42927Y9900D02*
X49200D01*
X42827Y9800D02*
X49200D01*
X43012Y9000D02*
X49200D01*
X43355Y8900D02*
X49200D01*
X43557Y8800D02*
X49200D01*
X42727Y9700D02*
X49200D01*
X42627Y9600D02*
X49200D01*
X42527Y9500D02*
X49200D01*
X42427Y9400D02*
X49200D01*
X42327Y9300D02*
X49200D01*
X42227Y9200D02*
X49200D01*
X42127Y9100D02*
X49200D01*
X44252Y8000D02*
X49200D01*
X44289Y7900D02*
X49200D01*
X44319Y7800D02*
X49200D01*
X44343Y7700D02*
X49200D01*
X44360Y7600D02*
X49200D01*
X44370Y7500D02*
X49200D01*
X44375Y7400D02*
X49200D01*
X44373Y7300D02*
X49200D01*
X43708Y8700D02*
X49200D01*
X43830Y8600D02*
X49200D01*
X43932Y8500D02*
X49200D01*
X44018Y8400D02*
X49200D01*
X44091Y8300D02*
X49200D01*
X44154Y8200D02*
X49200D01*
X44207Y8100D02*
X49200D01*
X44802Y6500D02*
X49200D01*
X44902Y6400D02*
X49200D01*
X44994Y6300D02*
X49200D01*
X45061Y6200D02*
X49200D01*
X45110Y6100D02*
X49200D01*
X45145Y6000D02*
X49200D01*
X45166Y5900D02*
X49200D01*
X44366Y7200D02*
X49200D01*
X44352Y7100D02*
X49200D01*
X44332Y7000D02*
X49200D01*
X44402Y6900D02*
X49200D01*
X44502Y6800D02*
X49200D01*
X44602Y6700D02*
X49200D01*
X44702Y6600D02*
X49200D01*
X45175Y5800D02*
X49200D01*
X45175Y5700D02*
X49200D01*
X45175Y5600D02*
X49200D01*
X45175Y5500D02*
X49200D01*
X45400Y3495D02*
Y14327D01*
X45175Y5400D02*
X49200D01*
X45300Y3500D02*
Y14337D01*
X45175Y5300D02*
X49200D01*
X45175Y5200D02*
X49200D01*
X45175Y5100D02*
X49200D01*
X45175Y5000D02*
X49200D01*
X45175Y4900D02*
X49200D01*
X45175Y4800D02*
X49200D01*
X45175Y4700D02*
X49200D01*
X45175Y4600D02*
X49200D01*
X45175Y4500D02*
X49200D01*
X45175Y4400D02*
X49200D01*
X45175Y4300D02*
X49200D01*
X45175Y4200D02*
X49200D01*
X45295Y3500D02*
X49200D01*
X45175Y4100D02*
X49200D01*
X45175Y4000D02*
X49200D01*
X45175Y3900D02*
X49200D01*
X45175Y3800D02*
X49200D01*
X45175Y3700D02*
X49200D01*
X45175Y3600D02*
X49200D01*
X41500Y30203D02*
Y31615D01*
X41600Y30180D02*
Y31481D01*
X41300Y30225D02*
Y35888D01*
X41400Y30218D02*
Y31804D01*
X41800Y30106D02*
Y31294D01*
X41900Y30054D02*
Y31226D01*
X41200Y30223D02*
Y36022D01*
X41700Y30148D02*
Y31377D01*
X41000Y30196D02*
Y42200D01*
X41100Y30214D02*
Y36210D01*
X40900Y30169D02*
Y39098D01*
X40800Y30134D02*
Y38887D01*
X40700Y30088D02*
Y38743D01*
X40600Y30031D02*
Y38632D01*
X40575Y30015D02*
Y38608D01*
Y30300D02*
X41975D01*
X41518Y30200D02*
X41975D01*
X40575D02*
X41019D01*
X41814Y30100D02*
X41975D01*
Y30006D02*
Y31184D01*
X40575Y30100D02*
X40723D01*
X33957Y28900D02*
X36850D01*
X34056Y28800D02*
X36850D01*
X34157Y28700D02*
X36850D01*
X34256Y28600D02*
X36850D01*
X34356Y28500D02*
X36850D01*
X34456Y28400D02*
X36850D01*
X34556Y28300D02*
X36850D01*
X36500Y27424D02*
Y32473D01*
X36600Y27416D02*
Y32373D01*
X36300Y27416D02*
Y32673D01*
X36400Y27424D02*
Y32573D01*
X36850Y27359D02*
Y32123D01*
X36800Y27375D02*
Y32173D01*
X36700Y27400D02*
Y32273D01*
X34500Y28357D02*
Y34473D01*
X34600Y28257D02*
Y34373D01*
X34400Y28457D02*
Y31900D01*
X34300Y28557D02*
Y31656D01*
X34800Y28042D02*
Y34173D01*
X34900Y27854D02*
Y34073D01*
X34700Y28157D02*
Y34273D01*
X34754Y28100D02*
X36850D01*
X34828Y28000D02*
X36850D01*
X34881Y27900D02*
X36850D01*
X34918Y27800D02*
X36850D01*
X34940Y27700D02*
X36850D01*
X34950Y27600D02*
X36850D01*
X34950Y27500D02*
X36850D01*
X34200Y28657D02*
Y31500D01*
X34100Y28757D02*
Y31382D01*
X34000Y28857D02*
Y31289D01*
X33900Y28957D02*
Y31214D01*
X34656Y28200D02*
X36850D01*
X45100Y20768D02*
Y35274D01*
X36699Y27400D02*
X36850D01*
X36100Y27375D02*
Y32873D01*
X36200Y27400D02*
Y32773D01*
X45000Y20668D02*
Y35031D01*
X44900Y20568D02*
Y34875D01*
X44800Y20468D02*
Y34757D01*
X44775Y20444D02*
Y34732D01*
X35900Y27297D02*
Y33073D01*
X36000Y27341D02*
Y32973D01*
X35700Y27175D02*
Y33273D01*
X35800Y27243D02*
Y33173D01*
X35600Y27091D02*
Y33373D01*
X35500Y26987D02*
Y33473D01*
X34950Y27400D02*
X36201D01*
X35402Y25200D02*
X35600D01*
X35600Y25108D02*
Y25259D01*
X35600Y25108D02*
Y25258D01*
X44775Y20800D02*
X45131D01*
X44775Y20700D02*
X45031D01*
X44775Y20600D02*
X44931D01*
X34950Y27300D02*
X35905D01*
X34950Y27200D02*
X35734D01*
X34950Y27100D02*
X35609D01*
X34950Y27000D02*
X35511D01*
X34950Y25300D02*
X35557D01*
X34950Y26900D02*
X35432D01*
X35400Y26853D02*
Y33573D01*
X34950Y26800D02*
X35367D01*
X35200Y25255D02*
Y33773D01*
X35300Y26665D02*
Y33673D01*
X35000Y25275D02*
Y33973D01*
X35100Y25269D02*
Y33873D01*
X34950Y25275D02*
Y27575D01*
Y26700D02*
X35316D01*
X34950Y26600D02*
X35274D01*
X34950Y26500D02*
X35243D01*
X34950Y26400D02*
X35220D01*
X34950Y26300D02*
X35206D01*
X34950Y26200D02*
X35200D01*
X34950Y26100D02*
X35202D01*
X34950Y26000D02*
X35212D01*
X34950Y25700D02*
X35294D01*
X34950Y25900D02*
X35231D01*
X34950Y25800D02*
X35258D01*
X35400Y25201D02*
Y25497D01*
X35500Y25159D02*
Y25363D01*
X35300Y25232D02*
Y25685D01*
X34950Y25500D02*
X35398D01*
X34950Y25400D02*
X35469D01*
X34950Y25600D02*
X35340D01*
X34006Y21800D02*
X34125D01*
X34100Y19102D02*
Y21893D01*
X34125Y19127D02*
Y21919D01*
X34000Y19002D02*
Y21793D01*
X33157Y29700D02*
X36850D01*
X33257Y29600D02*
X36850D01*
X33356Y29500D02*
X36850D01*
X33457Y29400D02*
X36850D01*
X33556Y29300D02*
X36850D01*
X33657Y29200D02*
X36850D01*
X33757Y29100D02*
X36850D01*
X33856Y29000D02*
X36850D01*
X32556Y30300D02*
X36850D01*
X32657Y30200D02*
X36850D01*
X32757Y30100D02*
X36850D01*
X32856Y30000D02*
X36850D01*
X32957Y29900D02*
X36850D01*
X33056Y29800D02*
X36850D01*
X30925Y31931D02*
X34715Y28142D01*
X33906Y21700D02*
X34125D01*
X33806Y21600D02*
X34125D01*
X33706Y21500D02*
X34125D01*
X33606Y21400D02*
X34125D01*
X33506Y21300D02*
X34125D01*
X33406Y21200D02*
X34125D01*
X33306Y21100D02*
X34125D01*
X33206Y21000D02*
X34125D01*
X33106Y20900D02*
X34125D01*
X33006Y20800D02*
X34125D01*
X32906Y20700D02*
X34125D01*
X32806Y20600D02*
X34125D01*
X32706Y20500D02*
X34125D01*
X32606Y20400D02*
X34125D01*
X33600Y29257D02*
Y31066D01*
X33500Y29357D02*
Y31037D01*
X33400Y29456D02*
Y31016D01*
X33300Y29556D02*
Y31004D01*
X33800Y29057D02*
Y31153D01*
X33900Y18902D02*
Y21693D01*
X33700Y29157D02*
Y31104D01*
X32900Y29956D02*
Y31037D01*
X32800Y30056D02*
Y31066D01*
X32700Y30156D02*
Y31104D01*
X32600Y30257D02*
Y31153D01*
X33200Y29656D02*
Y31000D01*
X33100Y29757D02*
Y31004D01*
X33000Y29857D02*
Y31016D01*
X32506Y20300D02*
X34125D01*
X32406Y20200D02*
X34125D01*
X32306Y20100D02*
X34125D01*
X32206Y20000D02*
X34125D01*
X32106Y19900D02*
X34125D01*
X32006Y19800D02*
X34125D01*
X31906Y19700D02*
X34125D01*
X31806Y19600D02*
X34125D01*
X31706Y19500D02*
X34125D01*
X31606Y19400D02*
X34125D01*
X31506Y19300D02*
X34125D01*
X31406Y19200D02*
X34125D01*
X31306Y19100D02*
X34098D01*
X31206Y19000D02*
X33998D01*
X33800Y18802D02*
Y21594D01*
X33700Y18702D02*
Y21493D01*
X33600Y18602D02*
Y21393D01*
X33500Y18502D02*
Y21294D01*
X33400Y18402D02*
Y21194D01*
X33300Y18302D02*
Y21094D01*
X33200Y18202D02*
Y20993D01*
X33100Y18102D02*
Y20893D01*
X33000Y18002D02*
Y20794D01*
X32900Y17902D02*
Y20694D01*
X32800Y17802D02*
Y20594D01*
X32700Y17702D02*
Y20493D01*
X28367Y16160D02*
X34125Y21919D01*
X32624Y17626D02*
X34125Y19127D01*
X32600Y17602D02*
Y20393D01*
X31106Y18900D02*
X33898D01*
X31006Y18800D02*
X33798D01*
X30906Y18700D02*
X33698D01*
X30806Y18600D02*
X33598D01*
X30706Y18500D02*
X33498D01*
X30606Y18400D02*
X33398D01*
X32029Y17031D02*
X32622Y17625D01*
X30506Y18300D02*
X33298D01*
X30406Y18200D02*
X33198D01*
X30306Y18100D02*
X33098D01*
X30206Y18000D02*
X32998D01*
X30106Y17900D02*
X32898D01*
X30006Y17800D02*
X32798D01*
X29906Y17700D02*
X32698D01*
X32500Y17502D02*
Y20294D01*
X32400Y17402D02*
Y20194D01*
X32300Y17302D02*
Y20094D01*
X32200Y17202D02*
Y19993D01*
X32100Y17102D02*
Y19893D01*
X32000Y17000D02*
Y19794D01*
X31900Y16865D02*
Y19694D01*
X31800Y16612D02*
Y19594D01*
X31700Y16016D02*
Y19493D01*
X31600Y15866D02*
Y19393D01*
X31500Y15640D02*
Y19294D01*
X31400Y14027D02*
Y19194D01*
X31300Y13927D02*
Y19094D01*
X31200Y13827D02*
Y18993D01*
X31100Y13727D02*
Y18893D01*
X31000Y13627D02*
Y18794D01*
X30900Y13527D02*
Y18694D01*
X30800Y13427D02*
Y18594D01*
X30700Y13327D02*
Y18493D01*
X30600Y13227D02*
Y18393D01*
X30500Y13127D02*
Y18294D01*
X30400Y13027D02*
Y18194D01*
X29806Y17600D02*
X32598D01*
X30300Y12927D02*
Y18094D01*
X30200Y12827D02*
Y17993D01*
X30100Y12727D02*
Y17893D01*
X30000Y12627D02*
Y17794D01*
X29900Y12527D02*
Y17694D01*
X29706Y17500D02*
X32498D01*
X29606Y17400D02*
X32398D01*
X29506Y17300D02*
X32298D01*
X29406Y17200D02*
X32198D01*
X29306Y17100D02*
X32098D01*
X31780Y16110D02*
Y16430D01*
X29206Y17000D02*
X31999D01*
X29106Y16900D02*
X31922D01*
X29006Y16800D02*
X31865D01*
X28906Y16700D02*
X31824D01*
X28806Y16600D02*
X31797D01*
X28706Y16500D02*
X31783D01*
X28606Y16400D02*
X31780D01*
X44640Y14500D02*
X44837D01*
X44470Y14400D02*
X45049D01*
X31700Y14327D02*
Y14484D01*
X43675Y11000D02*
Y14300D01*
X28506Y16300D02*
X31780D01*
X28406Y16200D02*
X31780D01*
X28299Y16100D02*
X31771D01*
X28138Y16000D02*
X31687D01*
X26373Y14400D02*
X31771D01*
X26375Y14500D02*
X31687D01*
X29800Y12427D02*
Y17594D01*
X29700Y12327D02*
Y17493D01*
X29600Y12227D02*
Y17393D01*
X29500Y12127D02*
Y17294D01*
X29400Y12027D02*
Y17194D01*
X29300Y11927D02*
Y17094D01*
X29200Y11827D02*
Y16993D01*
X29100Y11727D02*
Y16893D01*
X29000Y11627D02*
Y16794D01*
X28900Y11527D02*
Y16694D01*
X28800Y11427D02*
Y16594D01*
X28700Y11327D02*
Y16494D01*
X28600Y11227D02*
Y16394D01*
X28500Y11127D02*
Y16294D01*
X31500Y14127D02*
Y14860D01*
X31600Y14227D02*
Y14634D01*
X28400Y11027D02*
Y16194D01*
X28300Y10927D02*
Y16100D01*
X28200Y10827D02*
Y16032D01*
X28100Y10727D02*
Y15983D01*
X28000Y10627D02*
Y15950D01*
X26332Y14800D02*
X31521D01*
X26355Y14700D02*
X31565D01*
X26369Y14600D02*
X31620D01*
X26363Y14300D02*
X31673D01*
X27900Y10527D02*
Y15931D01*
X44700Y6602D02*
Y14544D01*
X44800Y6502D02*
Y14523D01*
X44600Y6702D02*
Y14473D01*
X44500Y6802D02*
Y14415D01*
X45100Y6124D02*
Y14383D01*
X45200Y3498D02*
Y14356D01*
X44900Y6402D02*
Y14465D01*
X45000Y6292D02*
Y14419D01*
X44100Y8287D02*
Y14287D01*
X44000Y8423D02*
Y14277D01*
X43700Y8706D02*
Y14295D01*
X43900Y8534D02*
Y14275D01*
X44400Y6902D02*
Y14369D01*
X44300Y7867D02*
Y14333D01*
X44200Y8115D02*
Y14306D01*
X43800Y8627D02*
Y14281D01*
X43600Y8774D02*
Y10651D01*
X43500Y8832D02*
Y10483D01*
X45175Y3496D02*
Y5775D01*
X44326Y6976D02*
X44926Y6376D01*
X43400Y8881D02*
Y10373D01*
X43200Y8955D02*
Y10173D01*
X43100Y8982D02*
Y10073D01*
X43000Y9002D02*
Y9973D01*
X41674Y8647D02*
X43426Y10399D01*
X43300Y8922D02*
Y10273D01*
X27800Y10427D02*
Y15925D01*
X27700Y10400D02*
Y15925D01*
X27600Y10400D02*
Y15925D01*
X27500Y10400D02*
Y15925D01*
X27400Y10400D02*
Y15925D01*
X27300Y10400D02*
Y15925D01*
X27200Y10400D02*
Y15925D01*
X27100Y10400D02*
Y15925D01*
X27000Y10400D02*
Y15925D01*
X26900Y10400D02*
Y15925D01*
X26800Y10400D02*
Y15925D01*
X26700Y10400D02*
Y15925D01*
X26600Y10400D02*
Y15925D01*
X26500Y10400D02*
Y15925D01*
X42900Y9016D02*
Y9873D01*
X42800Y9023D02*
Y9773D01*
X42700Y9025D02*
Y9673D01*
X42600Y9020D02*
Y9573D01*
X42500Y9010D02*
Y9473D01*
X42400Y8993D02*
Y9373D01*
X42300Y8969D02*
Y9273D01*
X42200Y8939D02*
Y9173D01*
X42027Y9000D02*
X42438D01*
X26400Y10400D02*
Y15925D01*
X27773Y10400D02*
X31772Y14399D01*
X42100Y8902D02*
Y9073D01*
X41927Y8900D02*
X42095D01*
X42000Y8857D02*
Y8973D01*
X26143Y15200D02*
X31438D01*
X26208Y15100D02*
X31446D01*
X26259Y15000D02*
X31463D01*
X26301Y14900D02*
X31487D01*
X26344Y14200D02*
X31573D01*
X26317Y14100D02*
X31473D01*
X26281Y14000D02*
X31373D01*
X26235Y13900D02*
X31273D01*
X25374Y15700D02*
X31521D01*
X25670Y15600D02*
X31487D01*
X22675Y15925D02*
X27800D01*
X25841Y15500D02*
X31463D01*
X25966Y15400D02*
X31446D01*
X26064Y15300D02*
X31438D01*
X26177Y13800D02*
X31173D01*
X26106Y13700D02*
X31073D01*
X26018Y13600D02*
X30973D01*
X25975Y13500D02*
X30873D01*
X25975Y13400D02*
X30773D01*
X25975Y13300D02*
X30673D01*
X25975Y13200D02*
X30573D01*
X25975Y13100D02*
X30473D01*
X25975Y13000D02*
X30373D01*
X25975Y12900D02*
X30273D01*
X25975Y12800D02*
X30173D01*
X25975Y12700D02*
X30073D01*
X25975Y12600D02*
X29973D01*
X25975Y12500D02*
X29873D01*
X26000Y15368D02*
Y15925D01*
X25900Y15456D02*
Y15925D01*
X25800Y15527D02*
Y15925D01*
X25700Y15585D02*
Y15925D01*
X26300Y14902D02*
Y15925D01*
X26200Y15113D02*
Y15925D01*
X26100Y15257D02*
Y15925D01*
X25400Y15694D02*
Y15925D01*
X25300Y15713D02*
Y15925D01*
X25600Y15631D02*
Y15925D01*
X25500Y15667D02*
Y15925D01*
X25200Y15723D02*
Y15925D01*
X25100Y15725D02*
Y15925D01*
X25000Y15719D02*
Y15925D01*
X24900Y15705D02*
Y15925D01*
X24800Y15682D02*
Y15925D01*
X24700Y15650D02*
Y15925D01*
X24600Y15609D02*
Y15925D01*
X24500Y15557D02*
Y15925D01*
X24400Y15493D02*
Y15925D01*
X24300Y15414D02*
Y15925D01*
X24200Y15316D02*
Y15925D01*
X24100Y15190D02*
Y15925D01*
X24000Y15020D02*
Y15925D01*
X23900Y14723D02*
Y15925D01*
X25975Y12400D02*
X29773D01*
X25975Y12300D02*
X29673D01*
X26300Y10400D02*
Y14048D01*
X25975Y12200D02*
X29573D01*
X26200Y10400D02*
Y13837D01*
X26100Y10400D02*
Y13693D01*
X26000Y10400D02*
Y13582D01*
X25975Y10400D02*
Y13558D01*
Y12100D02*
X29473D01*
X25975Y12000D02*
X29373D01*
X25975Y11900D02*
X29273D01*
X25975Y11800D02*
X29173D01*
X24200Y10400D02*
Y13634D01*
X24275Y10400D02*
Y13558D01*
X24100Y10400D02*
Y13760D01*
X25975Y11700D02*
X29073D01*
X25975Y11600D02*
X28973D01*
X25975Y11500D02*
X28873D01*
X25975Y11400D02*
X28773D01*
X25975Y11300D02*
X28673D01*
X25975Y11200D02*
X28573D01*
X25975Y11100D02*
X28473D01*
X25975Y11000D02*
X28373D01*
X25975Y10900D02*
X28273D01*
X25975Y10800D02*
X28173D01*
X25975Y10700D02*
X28073D01*
X25975Y10600D02*
X27973D01*
X25975Y10500D02*
X27873D01*
X25975Y10400D02*
X27773D01*
X23800D02*
Y15925D01*
X23700Y10400D02*
Y15925D01*
X22400Y10400D02*
Y15974D01*
X22300Y10400D02*
Y16018D01*
X22100Y10400D02*
Y16169D01*
X22200Y10400D02*
Y16081D01*
X22000Y10400D02*
Y16269D01*
X21800Y10400D02*
Y16469D01*
X21900Y10400D02*
Y16369D01*
X21600Y10400D02*
Y16669D01*
X21700Y10400D02*
Y16569D01*
X21400Y10400D02*
Y16869D01*
X21500Y10400D02*
Y16769D01*
X21300Y10400D02*
Y16969D01*
X23900Y10400D02*
Y14227D01*
X24000Y10400D02*
Y13930D01*
X23600Y10400D02*
Y15925D01*
X23500Y10400D02*
Y15925D01*
X23400Y10400D02*
Y15925D01*
X23300Y10400D02*
Y15925D01*
X23200Y10400D02*
Y15925D01*
X23100Y10400D02*
Y15925D01*
X23000Y10400D02*
Y15925D01*
X22900Y10400D02*
Y15925D01*
X22800Y10400D02*
Y15925D01*
X22700Y10400D02*
Y15925D01*
X22600Y10400D02*
Y15929D01*
X22500Y10400D02*
Y15944D01*
X16491Y40500D02*
X24000D01*
X16589Y40400D02*
X24000D01*
X16668Y40300D02*
X24000D01*
X16733Y40200D02*
X24000D01*
X16784Y40100D02*
X24000D01*
X16826Y40000D02*
X24000D01*
X18500Y38326D02*
Y42200D01*
X16857Y39900D02*
X24000D01*
X15544Y41100D02*
X23950D01*
X15563Y41000D02*
X24000D01*
X15517Y41200D02*
X23882D01*
X15573Y40900D02*
X24000D01*
X15899Y40800D02*
X24000D01*
X16195Y40700D02*
X24000D01*
X16366Y40600D02*
X24000D01*
X18068Y39100D02*
X24000D01*
X18123Y39000D02*
X24000D01*
X18166Y38900D02*
X24000D01*
X18200Y38800D02*
X24000D01*
X18225Y38700D02*
X24000D01*
X18241Y38600D02*
X24000D01*
X18249Y38500D02*
X24000D01*
X16880Y39800D02*
X24000D01*
X17019Y39700D02*
X24000D01*
X17490Y39600D02*
X24000D01*
X17678Y39500D02*
X24000D01*
X17813Y39400D02*
X24000D01*
X17917Y39300D02*
X24000D01*
X18000Y39200D02*
X24000D01*
X17900Y39318D02*
Y42200D01*
X17800Y39411D02*
Y42200D01*
X17700Y39486D02*
Y42200D01*
X17600Y39547D02*
Y42200D01*
X18200Y38800D02*
Y42200D01*
X18100Y39044D02*
Y42200D01*
X18000Y39200D02*
Y42200D01*
X17300Y39663D02*
Y42200D01*
X17200Y39684D02*
Y42200D01*
X17100Y39696D02*
Y42200D01*
X17000Y39700D02*
Y42200D01*
X17500Y39596D02*
Y42200D01*
X17400Y39634D02*
Y42200D01*
X16900Y39696D02*
Y42200D01*
X16600Y40388D02*
Y42200D01*
X16500Y40492D02*
Y42200D01*
X16400Y40575D02*
Y42200D01*
X16300Y40643D02*
Y42200D01*
X16800Y40065D02*
Y42200D01*
X16700Y40253D02*
Y42200D01*
X16100Y40741D02*
Y42200D01*
X15800Y40816D02*
Y42200D01*
X15700Y40824D02*
Y42200D01*
X15600Y40824D02*
Y42200D01*
X16200Y40698D02*
Y42200D01*
X16000Y40775D02*
Y42200D01*
X15900Y40800D02*
Y42200D01*
X21300Y36337D02*
Y42200D01*
X21200Y36337D02*
Y42200D01*
X21100Y36337D02*
Y42200D01*
X21000Y36337D02*
Y42200D01*
X20900Y36337D02*
Y42200D01*
X20800Y36337D02*
Y42200D01*
X20700Y36337D02*
Y42200D01*
X20600Y36337D02*
Y42200D01*
X18565Y38300D02*
X24000D01*
X18753Y38200D02*
X24000D01*
X18888Y38100D02*
X24000D01*
X18992Y38000D02*
X24000D01*
X19075Y37900D02*
X24000D01*
X19143Y37800D02*
X24000D01*
X19198Y37700D02*
X24000D01*
X19275Y37500D02*
X24000D01*
X19300Y37400D02*
X24000D01*
X19316Y37300D02*
X24000D01*
X19324Y37200D02*
X24000D01*
X19324Y37100D02*
X24000D01*
X19316Y37000D02*
X24000D01*
X19300Y36900D02*
X24000D01*
X19241Y37600D02*
X24000D01*
X19275Y36800D02*
X24000D01*
X19241Y36700D02*
X24000D01*
X19197Y36600D02*
X24000D01*
X19143Y36500D02*
X24000D01*
X19075Y36400D02*
X24000D01*
X19024Y36337D02*
X21770D01*
X20500D02*
Y42200D01*
X20400Y36337D02*
Y42200D01*
X20300Y36337D02*
Y42200D01*
X20200Y36337D02*
Y42200D01*
X20100Y36337D02*
Y42200D01*
X20000Y36337D02*
Y42200D01*
X19900Y36337D02*
Y42200D01*
X19800Y36337D02*
Y42200D01*
X19700Y36337D02*
Y42200D01*
X19300Y37399D02*
Y42200D01*
X19200Y37695D02*
Y42200D01*
X19600Y36337D02*
Y42200D01*
X19500Y36337D02*
Y42200D01*
X19400Y36337D02*
Y42200D01*
X19300Y36337D02*
Y36901D01*
X19200Y36337D02*
Y36605D01*
X19100Y37866D02*
Y42200D01*
X19000Y37991D02*
Y42200D01*
X18970Y35787D02*
Y36277D01*
X18925Y35787D02*
Y36233D01*
X18700Y38233D02*
Y42200D01*
X18600Y38284D02*
Y42200D01*
X18400Y38357D02*
Y42200D01*
X18300Y38380D02*
Y42200D01*
X18900Y38089D02*
Y42200D01*
X18800Y38168D02*
Y42200D01*
X15100Y41806D02*
Y42200D01*
X15000Y41877D02*
Y42200D01*
X14900Y41935D02*
Y42200D01*
X14800Y41981D02*
Y42200D01*
X15500Y41252D02*
Y42200D01*
X15400Y41463D02*
Y42200D01*
X15300Y41607D02*
Y42200D01*
X15200Y41718D02*
Y42200D01*
X2837Y42200D02*
X23750D01*
X2837Y42200D02*
X23750D01*
X14500Y42063D02*
Y42200D01*
X14400Y42073D02*
Y42200D01*
X14700Y42017D02*
Y42200D01*
X14600Y42044D02*
Y42200D01*
X14300Y42075D02*
Y42200D01*
X14963Y41900D02*
X23701D01*
X15107Y41800D02*
X23701D01*
X15218Y41700D02*
X23709D01*
X15306Y41600D02*
X23725D01*
X15435Y41400D02*
X23784D01*
X15481Y41300D02*
X23828D01*
X15377Y41500D02*
X23750D01*
X2890Y42100D02*
X23725D01*
X14752Y42000D02*
X23709D01*
X14200Y42069D02*
Y42200D01*
X14100Y42055D02*
Y42200D01*
X14000Y42032D02*
Y42200D01*
X13900Y42000D02*
Y42200D01*
X13800Y41959D02*
Y42200D01*
X13700Y41907D02*
Y42200D01*
X13600Y41843D02*
Y42200D01*
X13500Y41764D02*
Y42200D01*
X13400Y41666D02*
Y42200D01*
X13300Y41540D02*
Y42200D01*
X13200Y41370D02*
Y42200D01*
X2933Y42000D02*
X13898D01*
X2967Y41900D02*
X13687D01*
X13100Y41073D02*
Y42200D01*
X5701Y41800D02*
X13543D01*
X13000Y40400D02*
Y42200D01*
X12900Y40400D02*
Y42200D01*
X12800Y40400D02*
Y42200D01*
X6534Y41000D02*
X13087D01*
X6563Y40900D02*
X13077D01*
X6584Y40800D02*
X13075D01*
X6596Y40700D02*
X13081D01*
X6600Y40600D02*
X13095D01*
X6596Y40500D02*
X13118D01*
X13100Y40400D02*
Y40577D01*
X5944Y41700D02*
X13432D01*
X6100Y41600D02*
X13344D01*
X6218Y41500D02*
X13273D01*
X6311Y41400D02*
X13215D01*
X6386Y41300D02*
X13169D01*
X6447Y41200D02*
X13133D01*
X6496Y41100D02*
X13106D01*
X12700Y40400D02*
Y42200D01*
X12600Y40400D02*
Y42200D01*
X12500Y40400D02*
Y42200D01*
X12400Y40400D02*
Y42200D01*
X12300Y40400D02*
Y42200D01*
X12200Y40400D02*
Y42200D01*
X12100Y40400D02*
Y42200D01*
X12000Y40400D02*
Y42200D01*
X11900Y40400D02*
Y42200D01*
X11800Y40400D02*
Y42200D01*
X7715Y33600D02*
X13275D01*
X7715Y33600D02*
X13275D01*
X6584Y40400D02*
X13149D01*
X13275Y33417D02*
Y33600D01*
X13200Y33341D02*
Y33600D01*
X13100Y33215D02*
Y33600D01*
X13000Y33045D02*
Y33600D01*
X12900Y32748D02*
Y33600D01*
X12800Y28545D02*
Y33600D01*
X12700Y28586D02*
Y33600D01*
X12600Y28617D02*
Y33600D01*
X12400Y28655D02*
Y33600D01*
X12300Y28663D02*
Y33600D01*
X12200Y28662D02*
Y33600D01*
X12500Y28640D02*
Y33600D01*
X12100Y28654D02*
Y33600D01*
X12000Y28637D02*
Y33600D01*
X11700Y40400D02*
Y42200D01*
X11600Y40400D02*
Y42200D01*
X11500Y40400D02*
Y42200D01*
X11400Y40400D02*
Y42200D01*
X11300Y40400D02*
Y42200D01*
X11200Y40400D02*
Y42200D01*
X11100Y40400D02*
Y42200D01*
X11000Y40400D02*
Y42200D01*
X10900Y40400D02*
Y42200D01*
X10800Y40400D02*
Y42200D01*
X10700Y40400D02*
Y42200D01*
X10600Y40400D02*
Y42200D01*
X10500Y40400D02*
Y42200D01*
X10400Y40400D02*
Y42200D01*
X10300Y40400D02*
Y42200D01*
X10200Y40400D02*
Y42200D01*
X10100Y40400D02*
Y42200D01*
X10000Y40400D02*
Y42200D01*
X9900Y40400D02*
Y42200D01*
X9800Y40400D02*
Y42200D01*
X9825Y37000D02*
Y40250D01*
X9700Y40400D02*
Y42200D01*
X9600Y40400D02*
Y42200D01*
X9500Y40400D02*
Y42200D01*
X9400Y40400D02*
Y42200D01*
X6475Y37000D02*
X9825D01*
Y33750D02*
Y37000D01*
X9300Y40400D02*
Y42200D01*
X14875Y31500D02*
X14980D01*
X14475Y31300D02*
X14684D01*
X14600Y31216D02*
Y31344D01*
X14500Y31090D02*
Y31308D01*
X14400Y30920D02*
Y31281D01*
X14300Y30623D02*
Y31262D01*
Y28577D02*
Y30127D01*
X14200Y28477D02*
Y31252D01*
X14100Y28377D02*
Y31250D01*
X14000Y28277D02*
Y31256D01*
X13900Y28177D02*
Y31270D01*
X13800Y28077D02*
Y31293D01*
X13700Y27977D02*
Y31324D01*
X14800Y29077D02*
Y29357D01*
X14900Y29177D02*
Y29293D01*
X14600Y28877D02*
Y29534D01*
X14700Y28977D02*
Y29436D01*
X14500Y28777D02*
Y29660D01*
X13649Y27926D02*
X14975Y29252D01*
X14400Y28677D02*
Y29830D01*
X12659Y28600D02*
X14323D01*
X12889Y28500D02*
X14223D01*
X13042Y28400D02*
X14123D01*
X13159Y28300D02*
X14023D01*
X13253Y28200D02*
X13923D01*
X13329Y28100D02*
X13823D01*
X13391Y28000D02*
X13723D01*
X12900Y28494D02*
Y32252D01*
X13000Y28431D02*
Y31955D01*
X11900Y28613D02*
Y33600D01*
X11800Y28580D02*
Y33600D01*
X13200Y28259D02*
Y31659D01*
X13300Y28141D02*
Y31561D01*
X13100Y28354D02*
Y31785D01*
X11700Y28537D02*
Y33600D01*
X11600Y28484D02*
Y33600D01*
X11500Y28419D02*
Y33600D01*
X11400Y28340D02*
Y33600D01*
X11300Y28242D02*
Y33600D01*
X11200Y28118D02*
Y33600D01*
X11100Y27954D02*
Y33600D01*
X13600Y27873D02*
Y31366D01*
X13442Y27900D02*
X13624D01*
X13400Y27985D02*
Y31482D01*
X13500Y27747D02*
Y31418D01*
X11058Y28600D02*
X11857D01*
X11058Y28500D02*
X11627D01*
X11058Y28400D02*
X11474D01*
X11058Y28300D02*
X11357D01*
X11058Y28200D02*
X11263D01*
X11058Y28100D02*
X11187D01*
X11058Y27863D02*
Y28663D01*
X13230Y26500D02*
X13400D01*
X13131Y26400D02*
X13400D01*
X13100Y25379D02*
Y26373D01*
X13006Y26300D02*
X13400D01*
X13400Y25010D02*
Y26742D01*
X13400Y25009D02*
Y26742D01*
X13300Y25166D02*
Y26586D01*
X13200Y25284D02*
Y26467D01*
X12838Y26200D02*
X13400D01*
X12700Y25611D02*
Y26141D01*
X12600Y25642D02*
Y26109D01*
X13000Y25456D02*
Y26296D01*
X12900Y25519D02*
Y26233D01*
X12800Y25570D02*
Y26182D01*
X12932Y25500D02*
X13400D01*
X13074Y25400D02*
X13400D01*
X13185Y25300D02*
X13400D01*
X13273Y25200D02*
X13400D01*
X14888Y23000D02*
X15269D01*
X14676Y22900D02*
X15369D01*
X15032Y23100D02*
X15169D01*
X12565Y26100D02*
X13400D01*
X12729Y25600D02*
X13400D01*
X12500Y25666D02*
Y26086D01*
X12785Y23200D02*
X13357D01*
X12432Y23100D02*
X13468D01*
X12969Y23300D02*
X13269D01*
X11900Y25638D02*
Y26113D01*
X11800Y25605D02*
Y26147D01*
X11500Y25444D02*
Y26307D01*
X11600Y25509D02*
Y26242D01*
X11300Y25267D02*
Y26485D01*
X11400Y25365D02*
Y26387D01*
X11200Y25143D02*
Y26608D01*
X11058Y26400D02*
X11385D01*
X11058Y26300D02*
X11510D01*
X11058Y26600D02*
X11206D01*
X11058Y26500D02*
X11286D01*
X11058Y26063D02*
Y26863D01*
Y26200D02*
X11678D01*
X11100Y24979D02*
Y26773D01*
X12400Y25680D02*
Y26071D01*
X12300Y25688D02*
Y26064D01*
X12200Y25687D02*
Y26065D01*
X11058Y26100D02*
X11951D01*
X12100Y25679D02*
Y26073D01*
X12000Y25662D02*
Y26089D01*
X11700Y25562D02*
Y26189D01*
X11058Y25600D02*
X11787D01*
X11058Y25500D02*
X11584D01*
X11058Y25400D02*
X11442D01*
X11058Y25300D02*
X11331D01*
X11058Y25200D02*
X11243D01*
X11058Y25100D02*
X11170D01*
X11058Y24888D02*
Y25688D01*
X9669Y31300D02*
X13775D01*
X9688Y31200D02*
X14586D01*
X9606Y31500D02*
X13375D01*
X9642Y31400D02*
X13532D01*
X9698Y31100D02*
X14507D01*
X9700Y31000D02*
X14442D01*
X9694Y30900D02*
X14391D01*
X9680Y30800D02*
X14349D01*
X9657Y30700D02*
X14318D01*
X9625Y30600D02*
X14295D01*
X7903Y33500D02*
X13275D01*
X9584Y30500D02*
X14281D01*
X9532Y30400D02*
X14275D01*
X9468Y30300D02*
X14277D01*
X9389Y30200D02*
X14287D01*
X9291Y30100D02*
X14306D01*
X9275Y29800D02*
X14415D01*
X9275Y30000D02*
X14333D01*
X9275Y29900D02*
X14369D01*
X9275Y29600D02*
X14544D01*
X9275Y29500D02*
X14632D01*
X9275Y29700D02*
X14473D01*
X9275Y29300D02*
X14887D01*
X9275Y29200D02*
X14923D01*
X9275Y29400D02*
X14743D01*
X9275Y29100D02*
X14823D01*
X9275Y29000D02*
X14723D01*
X9275Y28900D02*
X14623D01*
X9275Y28800D02*
X14523D01*
X9600Y31515D02*
Y33600D01*
X9500Y31703D02*
Y33600D01*
X9400Y31838D02*
Y33600D01*
X9300Y31942D02*
Y33600D01*
X11000Y28663D02*
Y33600D01*
X10900Y28663D02*
Y33600D01*
X9700Y31040D02*
Y33600D01*
X8038Y33400D02*
X13257D01*
X8142Y33300D02*
X13164D01*
X8225Y33200D02*
X13089D01*
X8293Y33100D02*
X13028D01*
X8348Y33000D02*
X12979D01*
X8391Y32900D02*
X12941D01*
X8425Y32800D02*
X12911D01*
X9232Y32000D02*
X12979D01*
X9431Y31800D02*
X13089D01*
X9088Y32100D02*
X12941D01*
X9343Y31900D02*
X13028D01*
X9502Y31700D02*
X13165D01*
X9560Y31600D02*
X13258D01*
X8450Y32700D02*
X12891D01*
X8466Y32600D02*
X12879D01*
X8474Y32500D02*
X12875D01*
X8474Y32400D02*
X12879D01*
X8466Y32300D02*
X12891D01*
X8877Y32200D02*
X12912D01*
X10800Y28663D02*
Y33600D01*
X11000Y25688D02*
Y26063D01*
X10700Y28663D02*
Y33600D01*
X10600Y28663D02*
Y33600D01*
X10900Y25688D02*
Y26063D01*
X10800Y25688D02*
Y26063D01*
X10700Y25688D02*
Y26063D01*
X10600Y25688D02*
Y26063D01*
X9275Y28700D02*
X14423D01*
X9275Y28663D02*
X11058D01*
X10500D02*
Y33600D01*
X9275Y26063D02*
X11058D01*
X9275Y26000D02*
X13400D01*
X9275Y25900D02*
X13400D01*
X10500Y25688D02*
Y26063D01*
X11058Y23400D02*
X11413D01*
X11058Y23300D02*
X11547D01*
X11058Y23600D02*
X11224D01*
X11058Y23500D02*
X11309D01*
X11058Y23200D02*
X11731D01*
X11058Y23088D02*
Y23888D01*
X9275Y25800D02*
X13400D01*
X9275Y25700D02*
X13400D01*
X9275Y25688D02*
X11058D01*
Y23100D02*
X12084D01*
X9275Y23000D02*
X13612D01*
X9275Y22900D02*
X13824D01*
X9275Y23088D02*
X11058D01*
X10400Y28663D02*
Y33600D01*
X10300Y28663D02*
Y33600D01*
X10200Y28663D02*
Y33600D01*
X10100Y28663D02*
Y33600D01*
X10000Y28663D02*
Y33600D01*
X9900Y28663D02*
Y33600D01*
X9800Y28663D02*
Y33600D01*
X9700Y28663D02*
Y31010D01*
X9600Y28663D02*
Y30535D01*
X9500Y28663D02*
Y30347D01*
X9400Y28663D02*
Y30212D01*
X9758Y27363D02*
Y28513D01*
Y26213D02*
Y27363D01*
X9300Y28663D02*
Y30108D01*
X10400Y25688D02*
Y26063D01*
X10300Y25688D02*
Y26063D01*
X10200Y25688D02*
Y26063D01*
X10100Y25688D02*
Y26063D01*
X10000Y25688D02*
Y26063D01*
X9900Y25688D02*
Y26063D01*
X9800Y25688D02*
Y26063D01*
X9700Y25688D02*
Y26063D01*
X9600Y25688D02*
Y26063D01*
X9500Y25688D02*
Y26063D01*
X9400Y25688D02*
Y26063D01*
X9758Y24388D02*
Y25538D01*
Y23238D02*
Y24388D01*
X9300Y25688D02*
Y26063D01*
X9200Y40400D02*
Y42200D01*
X9100Y40400D02*
Y42200D01*
X9000Y40400D02*
Y42200D01*
X8900Y40400D02*
Y42200D01*
X8800Y40400D02*
Y42200D01*
X8700Y40400D02*
Y42200D01*
X8600Y40400D02*
Y42200D01*
X8500Y40400D02*
Y42200D01*
X8400Y40400D02*
Y42200D01*
X8300Y40400D02*
Y42200D01*
X8200Y40400D02*
Y42200D01*
X8100Y40400D02*
Y42200D01*
X8000Y40400D02*
Y42200D01*
X7900Y40400D02*
Y42200D01*
X7800Y40400D02*
Y42200D01*
X7700Y40400D02*
Y42200D01*
X7600Y40400D02*
Y42200D01*
X7500Y40400D02*
Y42200D01*
X7400Y40400D02*
Y42200D01*
X7300Y40400D02*
Y42200D01*
X7200Y40400D02*
Y42200D01*
X7100Y40400D02*
Y42200D01*
X7000Y40400D02*
Y42200D01*
X6900Y40400D02*
Y42200D01*
X6600Y40614D02*
Y42200D01*
X6800Y40400D02*
Y42200D01*
X6700Y40400D02*
Y42200D01*
X6600Y40400D02*
Y40586D01*
X6200Y41517D02*
Y42200D01*
X6100Y41600D02*
Y42200D01*
X6000Y41668D02*
Y42200D01*
X5900Y41723D02*
Y42200D01*
X6500Y41090D02*
Y42200D01*
X6400Y41278D02*
Y42200D01*
X6300Y41412D02*
Y42200D01*
X5600Y41825D02*
Y42200D01*
X5500Y41841D02*
Y42200D01*
X5400Y41849D02*
Y42200D01*
X5300Y41849D02*
Y42200D01*
X5800Y41766D02*
Y42200D01*
X5700Y41800D02*
Y42200D01*
X5200Y41841D02*
Y42200D01*
X5100Y41825D02*
Y42200D01*
X5000Y41800D02*
Y42200D01*
X4900Y41766D02*
Y42200D01*
X4800Y41722D02*
Y42200D01*
X4700Y41668D02*
Y42200D01*
X4600Y41600D02*
Y42200D01*
X4500Y41516D02*
Y42200D01*
X4400Y41412D02*
Y42200D01*
X4300Y41278D02*
Y42200D01*
X4200Y41090D02*
Y42200D01*
X4100Y40693D02*
Y42200D01*
X4000Y40593D02*
Y42200D01*
X3900Y40493D02*
Y42200D01*
X6217Y39700D02*
X6325D01*
X6100Y39600D02*
X6325D01*
X5943Y39500D02*
X6325D01*
X5699Y39400D02*
X6325D01*
X5393Y39300D02*
X6325D01*
X5293Y39200D02*
X6325D01*
X5193Y39100D02*
X6325D01*
X5093Y39000D02*
X6325D01*
X4993Y38900D02*
X6325D01*
X4893Y38800D02*
X6325D01*
X4793Y38700D02*
X6325D01*
X4693Y38600D02*
X6325D01*
X4570Y38500D02*
X6325D01*
X4380Y38400D02*
X6325D01*
X5393Y36500D02*
X6325D01*
X5448Y36400D02*
X6325D01*
X5491Y36300D02*
X6325D01*
X5525Y36200D02*
X6325D01*
X5550Y36100D02*
X6325D01*
X5566Y36000D02*
X6325D01*
X5574Y35900D02*
X6325D01*
X3875Y38300D02*
X6325D01*
X4344Y37100D02*
X6325D01*
X4815Y37000D02*
X6325D01*
X5003Y36900D02*
X6325D01*
X5138Y36800D02*
X6325D01*
X5242Y36700D02*
X6325D01*
X5325Y36600D02*
X6325D01*
Y33600D02*
Y39818D01*
X6300Y33291D02*
Y39787D01*
X6200Y33165D02*
Y39683D01*
X6100Y32995D02*
Y39600D01*
X6000Y32698D02*
Y39532D01*
X5900Y30046D02*
Y39477D01*
X5800Y30034D02*
Y39434D01*
X4707Y38613D02*
X5447Y39354D01*
X5400Y36488D02*
Y39306D01*
X5300Y36632D02*
Y39206D01*
X5200Y36743D02*
Y39106D01*
X5700Y30013D02*
Y39400D01*
X5600Y29984D02*
Y39375D01*
X5500Y36277D02*
Y39359D01*
X4800Y37006D02*
Y38706D01*
X4700Y37042D02*
Y38606D01*
X4600Y37069D02*
Y38521D01*
X4500Y37088D02*
Y38457D01*
X5100Y36831D02*
Y39006D01*
X5000Y36902D02*
Y38906D01*
X4900Y36960D02*
Y38806D01*
X4400Y37098D02*
Y38408D01*
X4300Y37100D02*
Y38373D01*
X4200Y37094D02*
Y38349D01*
X4100Y37080D02*
Y38337D01*
X4000Y37057D02*
Y38335D01*
X3800Y40435D02*
Y42200D01*
X3700Y40435D02*
Y42200D01*
X3600Y40435D02*
Y42200D01*
X3500Y40435D02*
Y42200D01*
X3400Y40435D02*
Y42200D01*
X3300Y40435D02*
Y42200D01*
X3200Y40435D02*
Y42200D01*
X3100Y40435D02*
Y42200D01*
X2992Y41800D02*
X4999D01*
X3011Y41700D02*
X4756D01*
X3000Y41764D02*
Y42200D01*
X3021Y41600D02*
X4600D01*
X3025Y41500D02*
X4482D01*
X3021Y41400D02*
X4389D01*
X3011Y41300D02*
X4314D01*
X2992Y41200D02*
X4253D01*
X2967Y41100D02*
X4204D01*
X3842Y40435D02*
X4104Y40697D01*
X3875Y38335D02*
X4035D01*
X3875Y38200D02*
X6325D01*
X3000Y40435D02*
Y41236D01*
X2933Y41000D02*
X4166D01*
X2890Y40900D02*
X4136D01*
X2837Y40800D02*
X4116D01*
X2774Y40700D02*
X4104D01*
X2697Y40600D02*
X4006D01*
X2605Y40500D02*
X3906D01*
X2534Y40435D02*
X3842D01*
X2900Y42078D02*
Y42200D01*
Y40435D02*
Y40921D01*
X1625Y41500D02*
X2875D01*
X2800Y40435D02*
Y40739D01*
X2700Y40435D02*
Y40603D01*
X800Y40200D02*
X975D01*
X800Y40100D02*
X975D01*
X800Y40300D02*
X904D01*
X800Y40000D02*
X975D01*
X800Y39900D02*
X975D01*
X800Y39800D02*
X975D01*
X800Y39700D02*
X975D01*
X800Y39600D02*
X975D01*
X800Y39500D02*
X975D01*
X800Y39400D02*
X975D01*
X800Y39300D02*
X975D01*
X800Y39200D02*
X975D01*
X800Y39100D02*
X975D01*
X800Y39000D02*
X975D01*
X800Y38900D02*
X975D01*
X800Y38800D02*
X975D01*
X800Y38700D02*
X975D01*
X800Y38600D02*
X975D01*
X800Y38500D02*
X975D01*
X800Y38400D02*
X975D01*
X800Y38300D02*
X975D01*
X3900Y37026D02*
Y38335D01*
X3875Y38135D02*
Y38335D01*
X3800Y36984D02*
Y38135D01*
X3700Y36932D02*
Y38135D01*
X3600Y36868D02*
Y38135D01*
X3500Y36789D02*
Y38135D01*
X3400Y36691D02*
Y38135D01*
X3300Y36565D02*
Y38135D01*
X800Y38100D02*
X6325D01*
X800Y38000D02*
X6325D01*
X975Y38135D02*
X3875D01*
X800Y37900D02*
X6325D01*
X800Y37800D02*
X6325D01*
X800Y37700D02*
X6325D01*
X3200Y36395D02*
Y38135D01*
X800Y37600D02*
X6325D01*
X800Y37500D02*
X6325D01*
X800Y37400D02*
X6325D01*
X800Y37300D02*
X6325D01*
X800Y37200D02*
X6325D01*
X800Y37100D02*
X4306D01*
X800Y37000D02*
X3835D01*
X800Y36900D02*
X3647D01*
X800Y36800D02*
X3512D01*
X800Y36700D02*
X3408D01*
X800Y36600D02*
X3325D01*
X800Y36500D02*
X3257D01*
X800Y36400D02*
X3202D01*
X3100Y36098D02*
Y38135D01*
X3000Y35865D02*
Y38135D01*
X2900Y35865D02*
Y38135D01*
X2800Y35865D02*
Y38135D01*
X2700Y35865D02*
Y38135D01*
X2600Y35865D02*
Y38135D01*
X2500Y35865D02*
Y38135D01*
X2400Y35865D02*
Y38135D01*
X2300Y35865D02*
Y38135D01*
X975D02*
Y40260D01*
X800Y38200D02*
X975D01*
X2200Y35865D02*
Y38135D01*
X2100Y35865D02*
Y38135D01*
X2000Y35865D02*
Y38135D01*
X1900Y35865D02*
Y38135D01*
X1800Y35865D02*
Y38135D01*
X1700Y35865D02*
Y38135D01*
X1600Y35865D02*
Y38135D01*
X1500Y35865D02*
Y38135D01*
X1400Y35865D02*
Y38135D01*
X1300Y35865D02*
Y38135D01*
X800Y36300D02*
X3159D01*
X800Y36200D02*
X3125D01*
X800Y36100D02*
X3100D01*
X800Y36000D02*
X3084D01*
X1200Y35865D02*
Y38135D01*
X1100Y35865D02*
Y38135D01*
X1000Y35865D02*
Y38135D01*
X5574Y35800D02*
X6325D01*
X5566Y35700D02*
X6325D01*
X5550Y35600D02*
X6325D01*
X5525Y35500D02*
X6325D01*
X5491Y35400D02*
X6325D01*
X5447Y35300D02*
X6325D01*
X5393Y35200D02*
X6325D01*
X5325Y35100D02*
X6325D01*
X5275Y35000D02*
X6325D01*
X5275Y34900D02*
X6325D01*
X5288Y34800D02*
X6325D01*
X5299Y34700D02*
X6325D01*
X5300Y34600D02*
X6325D01*
X5300Y34500D02*
X6325D01*
X5300Y34400D02*
X6325D01*
X8000Y33431D02*
Y33600D01*
X6325D02*
X6735D01*
X5300Y34300D02*
X6325D01*
X6500Y33468D02*
Y33600D01*
X8200Y33232D02*
Y33600D01*
X8100Y33343D02*
Y33600D01*
X6400Y33389D02*
Y33600D01*
X5300Y34200D02*
X6325D01*
X5300Y34100D02*
X6325D01*
X5300Y34000D02*
X6325D01*
X5300Y33900D02*
X6325D01*
X5300Y33600D02*
X6735D01*
X5300Y33500D02*
X6547D01*
X5300Y33400D02*
X6412D01*
X800Y35900D02*
X3076D01*
X975Y35865D02*
X3075D01*
X800Y35800D02*
X975D01*
X5275Y34875D02*
Y35038D01*
X5300Y34662D02*
Y35068D01*
X975Y33565D02*
Y35865D01*
X800Y35700D02*
X975D01*
X800Y35600D02*
X975D01*
X800Y35500D02*
X975D01*
X800Y35400D02*
X975D01*
X800Y35300D02*
X975D01*
X800Y35200D02*
X975D01*
X800Y35100D02*
X975D01*
X5300Y33800D02*
X6325D01*
X5300Y33700D02*
X6325D01*
X5300Y33300D02*
X6308D01*
X5300Y33200D02*
X6225D01*
X975Y33565D02*
X3400D01*
X800Y35000D02*
X975D01*
X800Y34900D02*
X975D01*
X800Y34800D02*
X975D01*
X800Y34700D02*
X975D01*
X800Y34600D02*
X975D01*
X800Y34500D02*
X975D01*
X800Y34400D02*
X975D01*
X8900Y32191D02*
Y33600D01*
X8700Y32250D02*
Y33600D01*
X8600Y32266D02*
Y33600D01*
X8500Y32274D02*
Y33600D01*
X9200Y32025D02*
Y33600D01*
X9100Y32093D02*
Y33600D01*
X9000Y32148D02*
Y33600D01*
X8800Y32225D02*
Y33600D01*
X8400Y32877D02*
Y33600D01*
X8300Y33088D02*
Y33600D01*
X5300Y31600D02*
X6309D01*
X5300Y31500D02*
X6325D01*
X5300Y31400D02*
X6325D01*
X5300Y31300D02*
X6325D01*
X5300Y31200D02*
X6325D01*
X5300Y31100D02*
X6325D01*
X9275Y28663D02*
Y30086D01*
Y25688D02*
Y26063D01*
X5300Y31000D02*
X6325D01*
X5300Y30900D02*
X6325D01*
X5300Y30800D02*
X6325D01*
X5300Y30700D02*
X6325D01*
X5300Y30600D02*
X6325D01*
X5300Y30500D02*
X6325D01*
X5300Y30400D02*
X6325D01*
X5300Y30300D02*
X6325D01*
X5300Y33100D02*
X6157D01*
X5300Y33000D02*
X6102D01*
X5300Y32900D02*
X6059D01*
X6000Y30050D02*
Y32202D01*
X5500Y29946D02*
Y35423D01*
X5400Y29897D02*
Y35212D01*
X5300Y29836D02*
Y34650D01*
Y32800D02*
X6025D01*
X5300Y32700D02*
X6000D01*
X5300Y32600D02*
X5984D01*
X5300Y32500D02*
X5976D01*
X5300Y32400D02*
X5976D01*
X5300Y32300D02*
X5984D01*
X5300Y32200D02*
X6000D01*
X5300Y32000D02*
X6059D01*
X6300Y30013D02*
Y31609D01*
X5300Y32100D02*
X6025D01*
X5300Y31900D02*
X6103D01*
X6200Y30034D02*
Y31735D01*
X6325Y30007D02*
Y31583D01*
X6100Y30046D02*
Y31905D01*
X5300Y30200D02*
X6325D01*
X5300Y30100D02*
X6325D01*
X5300Y31800D02*
X6157D01*
X5300Y31700D02*
X6225D01*
X5300Y30000D02*
X5650D01*
X5300Y29900D02*
X5406D01*
X800Y33500D02*
X3400D01*
X800Y33400D02*
X3400D01*
X800Y33300D02*
X3400D01*
X800Y33200D02*
X3400D01*
X800Y33100D02*
X3400D01*
X800Y33000D02*
X3400D01*
X800Y32900D02*
X3400D01*
X800Y32800D02*
X3400D01*
X800Y32700D02*
X3400D01*
X800Y32600D02*
X3400D01*
X800Y32500D02*
X3400D01*
X800Y32400D02*
X3400D01*
X800Y32300D02*
X3400D01*
X800Y32200D02*
X3400D01*
X800Y32100D02*
X3400D01*
X800Y32000D02*
X3400D01*
X800Y31900D02*
X3400D01*
X800Y31800D02*
X3400D01*
X800Y31700D02*
X3400D01*
X800Y31600D02*
X3400D01*
X800Y31500D02*
X3400D01*
X800Y31400D02*
X3400D01*
X800Y31300D02*
X3400D01*
X800Y31200D02*
X3400D01*
X800Y31100D02*
X3400D01*
X800Y31000D02*
X3400D01*
X800Y30900D02*
X3400D01*
X800Y30800D02*
X3400D01*
X800Y30700D02*
X3400D01*
X800Y34300D02*
X975D01*
X800Y34200D02*
X975D01*
X800Y34100D02*
X975D01*
X800Y34000D02*
X975D01*
X800Y33900D02*
X975D01*
X800Y33800D02*
X975D01*
X800Y33700D02*
X975D01*
X800Y30600D02*
X3400D01*
X800Y30500D02*
X3400D01*
X800Y33600D02*
X975D01*
X800Y30400D02*
X3400D01*
X800Y30300D02*
X3400D01*
X800Y30200D02*
X3400D01*
X800Y30100D02*
X3400D01*
X800Y30000D02*
X3400D01*
X800Y29900D02*
X3400D01*
X800Y29800D02*
X3400D01*
X800Y29700D02*
X3400D01*
X800Y29600D02*
X3400D01*
X800Y29500D02*
X3400D01*
X800Y29400D02*
X3400D01*
X800Y29300D02*
X3400D01*
X800Y29200D02*
X3400D01*
X800Y29100D02*
X3400D01*
X800Y29000D02*
X3400D01*
X800Y28900D02*
X3400D01*
X800Y28800D02*
X3400D01*
X800Y28700D02*
X3400D01*
X800Y28600D02*
X3400D01*
X800Y28500D02*
X3400D01*
X800Y28400D02*
X3400D01*
X800Y28300D02*
X3400D01*
X800Y28200D02*
X3400D01*
X800Y28100D02*
X3400D01*
X800Y28000D02*
X3400D01*
X800Y27900D02*
X3400D01*
X800Y27800D02*
X3400D01*
X800Y27700D02*
X3400D01*
X800Y27600D02*
X3400D01*
X800Y27500D02*
X3400D01*
X800Y27400D02*
X3400D01*
X800Y27300D02*
X3400D01*
X800Y27200D02*
X3400D01*
X800Y27100D02*
X3400D01*
X800Y27000D02*
X3400D01*
X800Y26900D02*
X3400D01*
X800Y26800D02*
X3400D01*
X800Y26700D02*
X3400D01*
X800Y26600D02*
X3400D01*
X800Y26500D02*
X3400D01*
X800Y26400D02*
X3400D01*
X800Y26300D02*
X3400D01*
X800Y26200D02*
X3400D01*
X800Y26100D02*
X3400D01*
X800Y26000D02*
X3400D01*
X800Y25900D02*
X3400D01*
X800Y25800D02*
X3400D01*
X800Y25700D02*
X3400D01*
X800Y25600D02*
X3400D01*
X800Y25500D02*
X3400D01*
X800Y25400D02*
X3400D01*
X800Y25300D02*
X3400D01*
X800Y25200D02*
X3400D01*
X800Y25100D02*
X3400D01*
X800Y25000D02*
X3400D01*
X800Y24900D02*
X3400D01*
X800Y24800D02*
X3400D01*
X800Y24700D02*
X3400D01*
X800Y24600D02*
X3400D01*
X800Y24500D02*
X3400D01*
X800Y24400D02*
X3400D01*
X800Y24300D02*
X3400D01*
X800Y24200D02*
X3400D01*
X800Y24100D02*
X3400D01*
X800Y24000D02*
X3400D01*
X800Y23900D02*
X3400D01*
X800Y23800D02*
X3400D01*
X800Y23700D02*
X3400D01*
X800Y23600D02*
X3400D01*
X800Y23500D02*
X3400D01*
X800Y23400D02*
X3400D01*
X800Y23300D02*
X3400D01*
X800Y23200D02*
X3400D01*
X800Y23100D02*
X3400D01*
X800Y23000D02*
X3400D01*
X15110Y23158D02*
X22108Y16160D01*
X20800Y10400D02*
Y17469D01*
X20600Y10400D02*
Y17669D01*
X20700Y10400D02*
Y17569D01*
X20400Y10400D02*
Y17869D01*
X20500Y10400D02*
Y17769D01*
X20200Y10400D02*
Y18069D01*
X20300Y10400D02*
Y17969D01*
X12922Y18000D02*
X20269D01*
X12946Y17900D02*
X20369D01*
X12848Y18200D02*
X20069D01*
X12889Y18100D02*
X20169D01*
X12973Y17700D02*
X20569D01*
X12975Y17600D02*
X20669D01*
X12963Y17800D02*
X20469D01*
X12939Y17300D02*
X20969D01*
X21200Y10400D02*
Y17069D01*
X12970Y17500D02*
X20769D01*
X12958Y17400D02*
X20869D01*
X21000Y10400D02*
Y17269D01*
X21100Y10400D02*
Y17169D01*
X20900Y10400D02*
Y17369D01*
X12832Y17000D02*
X21269D01*
X12777Y16900D02*
X21369D01*
X12912Y17200D02*
X21069D01*
X12876Y17100D02*
X21169D01*
X12633Y16700D02*
X21569D01*
X12537Y16600D02*
X21669D01*
X12712Y16800D02*
X21469D01*
X19400Y10400D02*
Y18869D01*
X19500Y10400D02*
Y18769D01*
X19200Y10400D02*
Y19069D01*
X19300Y10400D02*
Y18969D01*
X19000Y10400D02*
Y19269D01*
X19100Y10400D02*
Y19169D01*
X18900Y10400D02*
Y19369D01*
X12800Y18296D02*
Y23207D01*
X12700Y18451D02*
Y23166D01*
X12600Y18571D02*
Y23134D01*
X18700Y10400D02*
Y19569D01*
X18800Y10400D02*
Y19469D01*
X12900Y18070D02*
Y23258D01*
X20000Y10400D02*
Y18269D01*
X20100Y10400D02*
Y18169D01*
X19900Y10400D02*
Y18369D01*
X12900Y13070D02*
Y17164D01*
X19700Y10400D02*
Y18569D01*
X19800Y10400D02*
Y18469D01*
X19600Y10400D02*
Y18669D01*
X12736Y18400D02*
X19869D01*
X12797Y18300D02*
X19969D01*
X12572Y18600D02*
X19669D01*
X12662Y18500D02*
X19769D01*
X12800Y13296D02*
Y16939D01*
X12700Y13451D02*
Y16784D01*
X12600Y13571D02*
Y16663D01*
X17100Y10400D02*
Y21169D01*
X17200Y10400D02*
Y21069D01*
X16900Y10400D02*
Y21369D01*
X17000Y10400D02*
Y21269D01*
X16700Y10400D02*
Y21569D01*
X16800Y10400D02*
Y21469D01*
X16500Y10400D02*
Y21769D01*
X16600Y10400D02*
Y21669D01*
X16300Y10400D02*
Y21969D01*
X16400Y10400D02*
Y21869D01*
X16100Y10400D02*
Y22169D01*
X16200Y10400D02*
Y22069D01*
X15900Y10400D02*
Y22369D01*
X16000Y10400D02*
Y22269D01*
X15800Y10400D02*
Y22469D01*
X18500Y10400D02*
Y19769D01*
X18600Y10400D02*
Y19669D01*
X18300Y10400D02*
Y19969D01*
X18400Y10400D02*
Y19869D01*
X18100Y10400D02*
Y20169D01*
X18200Y10400D02*
Y20069D01*
X18000Y10400D02*
Y20269D01*
X17800Y10400D02*
Y20469D01*
X17900Y10400D02*
Y20369D01*
X17600Y10400D02*
Y20669D01*
X17700Y10400D02*
Y20569D01*
X17400Y10400D02*
Y20869D01*
X17500Y10400D02*
Y20769D01*
X17300Y10400D02*
Y20969D01*
X15200Y10400D02*
Y23069D01*
X15300Y10400D02*
Y22969D01*
X15100Y10400D02*
Y23158D01*
X15000Y10400D02*
Y23075D01*
X14900Y10400D02*
Y23007D01*
X14800Y10400D02*
Y22952D01*
X13700Y10400D02*
Y22953D01*
X13500Y10400D02*
Y23075D01*
X13600Y10400D02*
Y23007D01*
X13100Y3220D02*
Y23398D01*
X13000Y3289D02*
Y23321D01*
X13300Y3037D02*
Y23263D01*
X13400Y2913D02*
Y23159D01*
X13200Y3138D02*
Y23397D01*
X15600Y10400D02*
Y22669D01*
X15700Y10400D02*
Y22569D01*
X15400Y10400D02*
Y22869D01*
X15500Y10400D02*
Y22769D01*
X14700Y10400D02*
Y22909D01*
X14600Y10400D02*
Y22875D01*
X14500Y10400D02*
Y22850D01*
X14400Y10400D02*
Y22834D01*
X14300Y10400D02*
Y22826D01*
X14200Y10400D02*
Y22826D01*
X14100Y10400D02*
Y22834D01*
X13900Y10400D02*
Y22875D01*
X14000Y10400D02*
Y22850D01*
X13800Y10400D02*
Y22909D01*
X9275Y21500D02*
X16769D01*
X9275Y21400D02*
X16869D01*
X9275Y21700D02*
X16569D01*
X9275Y21600D02*
X16669D01*
X9275Y21100D02*
X17169D01*
X9275Y21000D02*
X17269D01*
X9275Y21300D02*
X16969D01*
X9275Y21200D02*
X17069D01*
X9275Y20700D02*
X17569D01*
X9275Y20600D02*
X17669D01*
X9275Y20900D02*
X17369D01*
X9275Y20800D02*
X17469D01*
X9275Y20400D02*
X17869D01*
X9275Y20300D02*
X17969D01*
X9275Y20500D02*
X17769D01*
X9275Y20000D02*
X18269D01*
X9275Y19900D02*
X18369D01*
X9275Y20200D02*
X18069D01*
X9275Y20100D02*
X18169D01*
X11795Y19000D02*
X19269D01*
X12136Y18900D02*
X19369D01*
X9275Y19800D02*
X18469D01*
X9275Y19500D02*
X18769D01*
X9275Y19400D02*
X18869D01*
X9275Y19700D02*
X18569D01*
X9275Y19600D02*
X18669D01*
X9275Y19200D02*
X19069D01*
X9275Y19100D02*
X19169D01*
X9275Y19300D02*
X18969D01*
X12000Y18951D02*
Y23114D01*
X11900Y18979D02*
Y23138D01*
X11700Y19012D02*
Y23214D01*
X11800Y18999D02*
Y23172D01*
X12300Y18815D02*
Y23089D01*
X12200Y18870D02*
Y23090D01*
X12100Y18915D02*
Y23098D01*
X11500Y19015D02*
Y23332D01*
X11600Y19017D02*
Y23267D01*
X11300Y18990D02*
Y23510D01*
X11400Y19006D02*
Y23412D01*
X11100Y18934D02*
Y23798D01*
X11200Y18966D02*
Y23633D01*
X11000Y18894D02*
Y23088D01*
X9275Y22600D02*
X15669D01*
X9275Y22500D02*
X15769D01*
X9275Y22800D02*
X15469D01*
X9275Y22700D02*
X15569D01*
X9275Y22400D02*
X15869D01*
X9275Y22300D02*
X15969D01*
X10900Y18844D02*
Y23088D01*
X9275Y22000D02*
X16269D01*
X9275Y21900D02*
X16369D01*
X9275Y22200D02*
X16069D01*
X9275Y22100D02*
X16169D01*
X9275Y21800D02*
X16469D01*
X9275Y19000D02*
X11356D01*
X9275Y18900D02*
X11014D01*
X12324Y18800D02*
X19469D01*
X12463Y18700D02*
X19569D01*
X12500Y18668D02*
Y23111D01*
X10800Y18783D02*
Y23088D01*
X12400Y18749D02*
Y23096D01*
X10700Y18710D02*
Y23088D01*
X10600Y18622D02*
Y23088D01*
X10500Y18514D02*
Y23088D01*
X9275Y18800D02*
X10826D01*
X9275Y18700D02*
X10688D01*
X9275Y18600D02*
X10578D01*
X9275Y18500D02*
X10489D01*
X10400Y18378D02*
Y23088D01*
X9275Y18400D02*
X10414D01*
X12419Y16500D02*
X21769D01*
X12267Y16400D02*
X21869D01*
X12400Y13749D02*
Y16486D01*
X12300Y13815D02*
Y16419D01*
X12500Y13668D02*
Y16566D01*
X10700Y13710D02*
Y16525D01*
X10600Y13622D02*
Y16613D01*
X9975Y16600D02*
X10613D01*
X9975Y16500D02*
X10732D01*
X9975Y16800D02*
X10439D01*
X9975Y16700D02*
X10518D01*
X10500Y13514D02*
Y16721D01*
X9975Y16400D02*
X10884D01*
X10400Y13378D02*
Y16856D01*
X10300Y18195D02*
Y23088D01*
X10200Y17879D02*
Y23088D01*
X9800Y17292D02*
Y23088D01*
X9700Y17402D02*
Y23088D01*
X10100Y12007D02*
Y23088D01*
X10000Y12118D02*
Y23088D01*
X9900Y17124D02*
Y23088D01*
X9275Y18300D02*
X10353D01*
X9275Y18200D02*
X10302D01*
X9275Y18100D02*
X10261D01*
X9275Y18000D02*
X10229D01*
X9275Y17900D02*
X10204D01*
X9302Y17800D02*
X10187D01*
X9275Y17827D02*
X9726Y17376D01*
X9945Y17000D02*
X10319D01*
X9966Y16900D02*
X10373D01*
X9861Y17200D02*
X10239D01*
X9910Y17100D02*
X10274D01*
X10200Y12879D02*
Y17355D01*
X10300Y13195D02*
Y17040D01*
X9975Y12142D02*
Y16775D01*
X9402Y17700D02*
X10178D01*
X9502Y17600D02*
X10175D01*
X9602Y17500D02*
X10180D01*
X9702Y17400D02*
X10192D01*
X9794Y17300D02*
X10212D01*
X12662Y13500D02*
X24275D01*
X12736Y13400D02*
X24275D01*
X12797Y13300D02*
X24275D01*
X12848Y13200D02*
X24275D01*
X12889Y13100D02*
X24275D01*
X12922Y13000D02*
X24275D01*
X12946Y12900D02*
X24275D01*
X12963Y12800D02*
X24275D01*
X9975Y15900D02*
X31620D01*
X11795Y14000D02*
X23969D01*
X9975Y16000D02*
X22337D01*
X12136Y13900D02*
X24015D01*
X12463Y13700D02*
X24144D01*
X12572Y13600D02*
X24232D01*
X12324Y13800D02*
X24073D01*
X12973Y12700D02*
X24275D01*
X12975Y12600D02*
X24275D01*
X12970Y12500D02*
X24275D01*
X12958Y12400D02*
X24275D01*
X12939Y12300D02*
X24275D01*
X12912Y12200D02*
X24275D01*
X12876Y12100D02*
X24275D01*
X12832Y12000D02*
X24275D01*
X12777Y11900D02*
X24275D01*
X12712Y11800D02*
X24275D01*
X12633Y11700D02*
X24275D01*
X12537Y11600D02*
X24275D01*
X12419Y11500D02*
X24275D01*
X12267Y11400D02*
X24275D01*
X12049Y16300D02*
X21969D01*
X12000Y13951D02*
Y16283D01*
X11900Y13979D02*
Y16255D01*
X11700Y14012D02*
Y16223D01*
X12200Y13870D02*
Y16364D01*
X12100Y13915D02*
Y16319D01*
X11800Y13999D02*
Y16235D01*
X11600Y14017D02*
Y16217D01*
X11500Y14015D02*
Y16219D01*
X9975Y16300D02*
X11101D01*
X11100Y13934D02*
Y16300D01*
X10900Y13844D02*
Y16391D01*
X11000Y13894D02*
Y16341D01*
X10800Y13783D02*
Y16451D01*
X11400Y14006D02*
Y16228D01*
X11300Y13990D02*
Y16245D01*
X11200Y13966D02*
Y16268D01*
X10281Y11700D02*
X10518D01*
X10317Y11600D02*
X10613D01*
X10344Y11500D02*
X10732D01*
X10300Y11652D02*
Y12040D01*
X9975Y16200D02*
X22069D01*
X9975Y16100D02*
X22176D01*
X10018Y12100D02*
X10274D01*
X10106Y12000D02*
X10319D01*
X10177Y11900D02*
X10373D01*
X10235Y11800D02*
X10439D01*
X10200Y11863D02*
Y12355D01*
X12600Y3458D02*
Y11663D01*
X12500Y3479D02*
Y11566D01*
X12400Y3493D02*
Y11486D01*
X12300Y3499D02*
Y11419D01*
X12900Y3345D02*
Y12164D01*
X12800Y3392D02*
Y11939D01*
X12700Y3429D02*
Y11783D01*
X12200Y3499D02*
Y11364D01*
X12049Y11300D02*
X24275D01*
X10375Y11200D02*
X24275D01*
X10369Y11100D02*
X24275D01*
X12100Y3491D02*
Y11319D01*
X10355Y11000D02*
X24275D01*
X12000Y3476D02*
Y11283D01*
X13425Y10400D02*
X24275D01*
X12275Y3500D02*
X13425D01*
X12780Y3400D02*
X13425D01*
X12981Y3300D02*
X13425D01*
X13126Y3200D02*
X13425D01*
X13240Y3100D02*
X13425D01*
Y2876D02*
Y10400D01*
X10332Y10900D02*
X24275D01*
X10300Y10800D02*
X24275D01*
X10259Y10700D02*
X24275D01*
X10207Y10600D02*
X24275D01*
X10143Y10500D02*
X24275D01*
X10064Y10400D02*
X13425D01*
X11900Y3453D02*
Y11255D01*
X11800Y3422D02*
Y11235D01*
X11700Y3383D02*
Y11223D01*
X11600Y3335D02*
Y11217D01*
X11100Y2884D02*
Y11300D01*
X11000Y2710D02*
Y11341D01*
X10900Y2854D02*
Y11391D01*
X10363Y11400D02*
X10884D01*
X10373Y11300D02*
X11101D01*
X10400Y3324D02*
Y11856D01*
X10600Y3189D02*
Y11613D01*
X10700Y3100D02*
Y11525D01*
X10800Y2991D02*
Y11451D01*
X10500Y3263D02*
Y11721D01*
X11500Y3276D02*
Y11219D01*
X11400Y3205D02*
Y11228D01*
X11300Y3119D02*
Y11245D01*
X11200Y3014D02*
Y11268D01*
X10792Y3000D02*
X11188D01*
X10869Y2900D02*
X11111D01*
X10932Y2800D02*
X11048D01*
X10300Y3374D02*
Y10798D01*
X10240Y3400D02*
X11740D01*
X10200Y3415D02*
Y10587D01*
X10100Y3447D02*
Y10443D01*
X10441Y3300D02*
X11539D01*
X10586Y3200D02*
X11394D01*
X10700Y3100D02*
X11280D01*
X9975Y15800D02*
X31565D01*
X9975Y15700D02*
X24876D01*
X9975Y15600D02*
X24580D01*
X9975Y15500D02*
X24409D01*
X9975Y15400D02*
X24284D01*
X9975Y15300D02*
X24186D01*
X9975Y15200D02*
X24107D01*
X9975Y15100D02*
X24042D01*
X9975Y15000D02*
X23991D01*
X9975Y14900D02*
X23949D01*
X9975Y14800D02*
X23918D01*
X9975Y14700D02*
X23895D01*
X9975Y14600D02*
X23881D01*
X9975Y14500D02*
X23875D01*
X9975Y14400D02*
X23877D01*
X9975Y14300D02*
X23887D01*
X9975Y14200D02*
X23906D01*
X9975Y14100D02*
X23933D01*
X9966Y10300D02*
X13425D01*
X9840Y10200D02*
X13425D01*
X9670Y10100D02*
X13425D01*
X9373Y10000D02*
X13425D01*
X5590Y9900D02*
X13425D01*
X5590Y9800D02*
X13425D01*
X5590Y9700D02*
X13425D01*
X5590Y9600D02*
X13425D01*
X5590Y9500D02*
X13425D01*
X5590Y9400D02*
X13425D01*
X5590Y9300D02*
X13425D01*
X9975Y14000D02*
X11356D01*
X9975Y13900D02*
X11014D01*
X9975Y13800D02*
X10826D01*
X9975Y13700D02*
X10688D01*
X9975Y13600D02*
X10578D01*
X9975Y13500D02*
X10489D01*
X9975Y13400D02*
X10414D01*
X9975Y13300D02*
X10353D01*
X9975Y13200D02*
X10302D01*
X9975Y13100D02*
X10261D01*
X9975Y13000D02*
X10229D01*
X9975Y12900D02*
X10204D01*
X9975Y12800D02*
X10187D01*
X9975Y12700D02*
X10178D01*
X9975Y12600D02*
X10175D01*
X9975Y12300D02*
X10212D01*
X9975Y12500D02*
X10180D01*
X9975Y12400D02*
X10192D01*
X9975Y12200D02*
X10239D01*
X5590Y9200D02*
X13425D01*
X5590Y9100D02*
X13425D01*
X5590Y9000D02*
X13425D01*
X5590Y8900D02*
X13425D01*
X5590Y8800D02*
X13425D01*
X5590Y8700D02*
X13425D01*
X5590Y8600D02*
X13425D01*
X5590Y8500D02*
X13425D01*
X5590Y8400D02*
X13425D01*
X5590Y8300D02*
X13425D01*
X5590Y8200D02*
X13425D01*
X5590Y8100D02*
X13425D01*
X5590Y8000D02*
X13425D01*
X5590Y7900D02*
X13425D01*
X5590Y7800D02*
X13425D01*
X5590Y7700D02*
X13425D01*
X5590Y7600D02*
X13425D01*
X5590Y7500D02*
X13425D01*
X5590Y7400D02*
X13425D01*
X5590Y7300D02*
X13425D01*
X5590Y7200D02*
X13425D01*
X5590Y7100D02*
X13425D01*
X5590Y7000D02*
X13425D01*
X5590Y6900D02*
X13425D01*
X5590Y6800D02*
X13425D01*
X5590Y6700D02*
X13425D01*
X5590Y6600D02*
X13425D01*
X5590Y6500D02*
X13425D01*
X5590Y6400D02*
X13425D01*
X5590Y6300D02*
X13425D01*
X5590Y6200D02*
X13425D01*
X5590Y6100D02*
X13425D01*
X5590Y6000D02*
X13425D01*
X5590Y5900D02*
X13425D01*
X5590Y5800D02*
X13425D01*
X5590Y5700D02*
X13425D01*
X5590Y5600D02*
X13425D01*
X5590Y5500D02*
X13425D01*
X10000Y3472D02*
Y10332D01*
X5590Y5400D02*
X13425D01*
X9900Y3488D02*
Y10244D01*
X9800Y3498D02*
Y10173D01*
X9700Y3500D02*
Y10115D01*
X5590Y5300D02*
X13425D01*
X5590Y5200D02*
X13425D01*
X5590Y5100D02*
X13425D01*
X5590Y5000D02*
X13425D01*
X5590Y4900D02*
X13425D01*
X5590Y4800D02*
X13425D01*
X5590Y4700D02*
X13425D01*
X5590Y4600D02*
X13425D01*
X5590Y4500D02*
X13425D01*
X5590Y4400D02*
X13425D01*
X5590Y4300D02*
X13425D01*
X9735Y3500D02*
X12245D01*
X7195D02*
X9705D01*
X5590Y4200D02*
X13425D01*
X5590Y4100D02*
X13425D01*
X5590Y4000D02*
X13425D01*
X5590Y3900D02*
X13425D01*
X5590Y3800D02*
X13425D01*
X5590Y3700D02*
X13425D01*
X5590Y3600D02*
X13425D01*
X9500Y17602D02*
Y23088D01*
X9400Y17702D02*
Y23088D01*
X9300Y17802D02*
Y23088D01*
X9275Y17827D02*
Y23088D01*
X9600Y17502D02*
Y23088D01*
X6325Y17517D02*
Y17973D01*
X6300Y17493D02*
Y17948D01*
X6200Y17382D02*
Y17848D01*
X6152Y17800D02*
X6325D01*
X6052Y17700D02*
X6325D01*
X5952Y17600D02*
X6325D01*
X5852Y17500D02*
X6307D01*
X5724Y17372D02*
X6325Y17973D01*
X6100Y17238D02*
Y17748D01*
X6000Y17026D02*
Y17648D01*
X5752Y17400D02*
X6214D01*
X8135Y15800D02*
X8275D01*
X5725Y17300D02*
X6139D01*
X5719Y17200D02*
X6078D01*
X8042Y15700D02*
X8275D01*
X7925Y15600D02*
X8275D01*
X7769Y15500D02*
X8275D01*
X4994Y16000D02*
X6078D01*
X5094Y15900D02*
X6139D01*
X5705Y17100D02*
X6029D01*
X5682Y17000D02*
X5991D01*
X5294Y15700D02*
X6308D01*
X5385Y15600D02*
X6425D01*
X5194Y15800D02*
X6215D01*
X3400Y20968D02*
Y33565D01*
X3400Y20969D02*
Y33565D01*
X3300Y20868D02*
Y33565D01*
X3200Y20768D02*
Y33565D01*
X5650Y16900D02*
X5962D01*
X3100Y20668D02*
Y33565D01*
X3000Y20568D02*
Y33565D01*
X2900Y20468D02*
Y33565D01*
X2800Y20368D02*
Y33565D01*
X2700Y20268D02*
Y33565D01*
X2600Y20168D02*
Y33565D01*
X2500Y20068D02*
Y33565D01*
X2400Y19968D02*
Y33565D01*
X5609Y16800D02*
X5941D01*
X5557Y16700D02*
X5929D01*
X5493Y16600D02*
X5925D01*
X5414Y16500D02*
X5929D01*
X5400Y15580D02*
Y16484D01*
X5316Y16400D02*
X5941D01*
X5300Y15694D02*
Y16386D01*
X5020Y16200D02*
X5991D01*
X4894Y16100D02*
X6029D01*
X5190Y16300D02*
X5962D01*
X5000Y15994D02*
Y16191D01*
X5200Y15794D02*
Y16307D01*
X4858Y16135D02*
X5312Y15682D01*
X5100Y15894D02*
Y16242D01*
X8275Y12142D02*
Y16006D01*
X8200Y12066D02*
Y15884D01*
X8100Y11940D02*
Y15759D01*
X8000Y11770D02*
Y15661D01*
X7900Y11473D02*
Y15582D01*
X7800Y3355D02*
Y15517D01*
X7700Y3400D02*
Y15466D01*
X7600Y3436D02*
Y15424D01*
X7525Y15400D02*
X8275D01*
X5454Y15500D02*
X6581D01*
X5506Y15400D02*
X6825D01*
X7500Y3463D02*
Y15393D01*
X6900Y3472D02*
Y15381D01*
X6800Y3447D02*
Y15408D01*
X5545Y15300D02*
X8275D01*
X7400Y3483D02*
Y15370D01*
X7300Y3495D02*
Y15356D01*
X7200Y3500D02*
Y15350D01*
X7100Y3498D02*
Y15352D01*
X7000Y3488D02*
Y15362D01*
X6700Y3415D02*
Y15444D01*
X5571Y15200D02*
X8275D01*
X5586Y15100D02*
X8275D01*
X5590Y15000D02*
X8275D01*
X5590Y14900D02*
X8275D01*
X5590Y14800D02*
X8275D01*
X5590Y14700D02*
X8275D01*
X5590Y14600D02*
X8275D01*
X6300Y3189D02*
Y15707D01*
X6500Y3324D02*
Y15548D01*
X6100Y2991D02*
Y15962D01*
X6200Y3100D02*
Y15818D01*
X5900Y2710D02*
Y17548D01*
X6000Y2853D02*
Y16174D01*
X5800Y2884D02*
Y17448D01*
X5600Y3119D02*
Y16780D01*
X5500Y15414D02*
Y16609D01*
X5700Y3015D02*
Y17076D01*
X2600Y800D02*
Y15707D01*
X2500Y800D02*
Y15807D01*
X6400Y3263D02*
Y15619D01*
X6600Y3374D02*
Y15490D01*
X5590Y3128D02*
Y15010D01*
X3690Y3128D02*
Y14616D01*
X3500Y2913D02*
Y14807D01*
X3600Y3037D02*
Y14707D01*
X3400Y2750D02*
Y14907D01*
X3200Y800D02*
Y15107D01*
X3300Y2505D02*
Y15007D01*
X3000Y800D02*
Y15307D01*
X3100Y800D02*
Y15207D01*
X2800Y800D02*
Y15507D01*
X2900Y800D02*
Y15407D01*
X2700Y800D02*
Y15607D01*
X800Y22900D02*
X3400D01*
X800Y22800D02*
X3400D01*
X800Y22700D02*
X3400D01*
X800Y22600D02*
X3400D01*
X800Y22500D02*
X3400D01*
X800Y22400D02*
X3400D01*
X800Y22300D02*
X3400D01*
X800Y22200D02*
X3400D01*
X800Y22100D02*
X3400D01*
X800Y22000D02*
X3400D01*
X800Y21900D02*
X3400D01*
X800Y21800D02*
X3400D01*
X800Y21700D02*
X3400D01*
X800Y21600D02*
X3400D01*
X800Y21500D02*
X3400D01*
X800Y21400D02*
X3400D01*
X800Y21300D02*
X3400D01*
X800Y21200D02*
X3400D01*
X800Y21100D02*
X3400D01*
X800Y21000D02*
X3400D01*
X1978Y19547D02*
X3400Y20969D01*
X800Y20900D02*
X3331D01*
X800Y20800D02*
X3231D01*
X800Y20700D02*
X3131D01*
X800Y20600D02*
X3031D01*
X800Y20500D02*
X2931D01*
X800Y20400D02*
X2831D01*
X800Y20300D02*
X2731D01*
X800Y20200D02*
X2631D01*
X2300Y19868D02*
Y33565D01*
X2200Y19768D02*
Y33565D01*
X2100Y19668D02*
Y33565D01*
X2000Y19568D02*
Y33565D01*
X1900Y19458D02*
Y33565D01*
X1800Y19299D02*
Y33565D01*
X800Y20100D02*
X2531D01*
X800Y20000D02*
X2431D01*
X800Y19900D02*
X2331D01*
X800Y19800D02*
X2231D01*
X800Y19700D02*
X2131D01*
X800Y19600D02*
X2031D01*
X800Y19500D02*
X1934D01*
X800Y19400D02*
X1858D01*
X800Y19300D02*
X1800D01*
X800Y19200D02*
X1757D01*
X800Y19100D02*
X1727D01*
X800Y19000D02*
X1708D01*
X800Y18900D02*
X1700D01*
X800Y18800D02*
X1700D01*
X800Y18700D02*
X1700D01*
X800Y18600D02*
X1700D01*
X800Y18500D02*
X1700D01*
X800Y18400D02*
X1700D01*
X800Y18300D02*
X1700D01*
X800Y18200D02*
X1700D01*
X1978Y16328D02*
X3690Y14616D01*
X2300Y800D02*
Y16007D01*
X2100Y800D02*
Y16207D01*
X2200Y800D02*
Y16107D01*
X1900Y800D02*
Y16417D01*
X2000Y800D02*
Y16307D01*
X800Y16300D02*
X2007D01*
X800Y16200D02*
X2107D01*
X800Y16500D02*
X1842D01*
X800Y16400D02*
X1914D01*
X800Y16000D02*
X2307D01*
X800Y15900D02*
X2407D01*
X800Y16100D02*
X2207D01*
X800Y15600D02*
X2707D01*
X800Y15500D02*
X2807D01*
X800Y15800D02*
X2507D01*
X800Y15700D02*
X2607D01*
X800Y15400D02*
X2907D01*
X800Y15300D02*
X3007D01*
X2400Y800D02*
Y15907D01*
X800Y15000D02*
X3307D01*
X800Y14900D02*
X3407D01*
X800Y15200D02*
X3107D01*
X800Y15100D02*
X3207D01*
X800Y14700D02*
X3607D01*
X800Y14600D02*
X3690D01*
X800Y14800D02*
X3507D01*
X1700Y800D02*
Y33565D01*
X1700Y17000D02*
Y18875D01*
X1600Y800D02*
Y33565D01*
X1500Y800D02*
Y33565D01*
X1400Y800D02*
Y33565D01*
X1300Y800D02*
Y33565D01*
X1200Y800D02*
Y33565D01*
X800Y18100D02*
X1700D01*
X800Y18000D02*
X1700D01*
X1100Y800D02*
Y33565D01*
X800Y17900D02*
X1700D01*
X900Y800D02*
Y40302D01*
X1000Y800D02*
Y33565D01*
X800Y800D02*
Y40369D01*
Y17800D02*
X1700D01*
X800Y17700D02*
X1700D01*
X800Y17600D02*
X1700D01*
X800Y17500D02*
X1700D01*
X800Y17400D02*
X1700D01*
X1800Y800D02*
Y16576D01*
X800Y17300D02*
X1700D01*
X800Y17200D02*
X1700D01*
X800Y17100D02*
X1700D01*
X800Y17000D02*
X1700D01*
X800Y16900D02*
X1705D01*
X800Y16800D02*
X1721D01*
X800Y16700D02*
X1749D01*
X800Y16600D02*
X1788D01*
X5590Y14500D02*
X8275D01*
X5590Y14400D02*
X8275D01*
X5590Y14300D02*
X8275D01*
X5590Y14200D02*
X8275D01*
X5590Y14100D02*
X8275D01*
X5590Y14000D02*
X8275D01*
X5590Y13900D02*
X8275D01*
X5590Y13800D02*
X8275D01*
X5590Y13700D02*
X8275D01*
X5590Y13600D02*
X8275D01*
X5590Y13500D02*
X8275D01*
X5590Y13400D02*
X8275D01*
X5590Y13300D02*
X8275D01*
X5590Y13200D02*
X8275D01*
X5590Y13100D02*
X8275D01*
X5590Y13000D02*
X8275D01*
X5590Y12900D02*
X8275D01*
X5590Y12800D02*
X8275D01*
X5590Y12700D02*
X8275D01*
X5590Y12600D02*
X8275D01*
X5590Y12500D02*
X8275D01*
X5590Y12400D02*
X8275D01*
X5590Y12300D02*
X8275D01*
X5590Y12200D02*
X8275D01*
X5590Y12100D02*
X8232D01*
X5590Y12000D02*
X8144D01*
X5590Y11900D02*
X8073D01*
X5590Y11800D02*
X8015D01*
X5590Y11700D02*
X7969D01*
X800Y14500D02*
X3690D01*
X800Y14400D02*
X3690D01*
X800Y14300D02*
X3690D01*
X800Y14200D02*
X3690D01*
X800Y14100D02*
X3690D01*
X800Y14000D02*
X3690D01*
X800Y13900D02*
X3690D01*
X800Y13800D02*
X3690D01*
X800Y13700D02*
X3690D01*
X800Y13600D02*
X3690D01*
X800Y13500D02*
X3690D01*
X800Y13400D02*
X3690D01*
X800Y13300D02*
X3690D01*
X800Y13200D02*
X3690D01*
X800Y13100D02*
X3690D01*
X800Y13000D02*
X3690D01*
X800Y12900D02*
X3690D01*
X800Y12800D02*
X3690D01*
X5590Y11600D02*
X7933D01*
X5590Y11500D02*
X7906D01*
X5590Y11400D02*
X7887D01*
X800Y12700D02*
X3690D01*
X800Y12600D02*
X3690D01*
X800Y12500D02*
X3690D01*
X800Y12400D02*
X3690D01*
X800Y12300D02*
X3690D01*
X800Y12200D02*
X3690D01*
X800Y12100D02*
X3690D01*
X9600Y3495D02*
Y10069D01*
X9500Y3483D02*
Y10033D01*
X9400Y3463D02*
Y10006D01*
X9300Y3435D02*
Y9987D01*
X8700Y3059D02*
Y10050D01*
X8600Y2940D02*
Y10091D01*
X8500Y2787D02*
Y10143D01*
X8400Y2787D02*
Y10207D01*
X5590Y10300D02*
X8284D01*
X5590Y10200D02*
X8410D01*
X5590Y10500D02*
X8107D01*
X5590Y10400D02*
X8186D01*
X8300Y2940D02*
Y10286D01*
X5590Y10100D02*
X8580D01*
X8200Y3059D02*
Y10384D01*
X9200Y3400D02*
Y9977D01*
X9100Y3355D02*
Y9975D01*
X9000Y3301D02*
Y9981D01*
X8900Y3235D02*
Y9995D01*
X8800Y3155D02*
Y10018D01*
X8329Y2900D02*
X8571D01*
X8392Y2800D02*
X8508D01*
X7700Y3400D02*
X9200D01*
X7901Y3300D02*
X8999D01*
X5590Y10000D02*
X8877D01*
X8046Y3200D02*
X8854D01*
X8160Y3100D02*
X8740D01*
X8252Y3000D02*
X8648D01*
X5590Y11100D02*
X7881D01*
X5590Y11000D02*
X7895D01*
X5590Y11300D02*
X7877D01*
X5590Y11200D02*
X7875D01*
X8000Y3235D02*
Y10680D01*
X8100Y3155D02*
Y10510D01*
X7900Y3301D02*
Y10977D01*
X5590Y10700D02*
X7991D01*
X5590Y10600D02*
X8043D01*
X5590Y10900D02*
X7918D01*
X5590Y10800D02*
X7950D01*
X5590Y3500D02*
X7165D01*
X5590Y3400D02*
X6660D01*
X5590Y3300D02*
X6459D01*
X5590Y3200D02*
X6314D01*
X5620Y3100D02*
X6200D01*
X5712Y3000D02*
X6108D01*
X5789Y2900D02*
X6031D01*
X5852Y2800D02*
X5968D01*
X3900Y800D02*
Y912D01*
X3700Y800D02*
Y1063D01*
X3800Y800D02*
Y980D01*
X3500Y800D02*
Y1287D01*
X3600Y800D02*
Y1163D01*
X3400Y800D02*
Y1450D01*
X3300Y800D02*
Y1695D01*
X800Y12000D02*
X3690D01*
X800Y11900D02*
X3690D01*
X800Y11800D02*
X3690D01*
X800Y11700D02*
X3690D01*
X800Y11600D02*
X3690D01*
X800Y11500D02*
X3690D01*
X800Y11400D02*
X3690D01*
X800Y11300D02*
X3690D01*
X800Y11200D02*
X3690D01*
X800Y11100D02*
X3690D01*
X800Y11000D02*
X3690D01*
X800Y10900D02*
X3690D01*
X800Y10800D02*
X3690D01*
X800Y10700D02*
X3690D01*
X800Y10600D02*
X3690D01*
X800Y10500D02*
X3690D01*
X800Y10400D02*
X3690D01*
X800Y10300D02*
X3690D01*
X800Y10200D02*
X3690D01*
X800Y10100D02*
X3690D01*
X800Y10000D02*
X3690D01*
X800Y9900D02*
X3690D01*
X800Y9800D02*
X3690D01*
X800Y9700D02*
X3690D01*
X800Y9600D02*
X3690D01*
X800Y9500D02*
X3690D01*
X800Y9400D02*
X3690D01*
X800Y9300D02*
X3690D01*
X800Y9200D02*
X3690D01*
X800Y9100D02*
X3690D01*
X800Y9000D02*
X3690D01*
X800Y8900D02*
X3690D01*
X800Y8800D02*
X3690D01*
X800Y8700D02*
X3690D01*
X800Y8600D02*
X3690D01*
X800Y8500D02*
X3690D01*
X800Y8400D02*
X3690D01*
X800Y8300D02*
X3690D01*
X800Y8200D02*
X3690D01*
X800Y8100D02*
X3690D01*
X800Y8000D02*
X3690D01*
X800Y7900D02*
X3690D01*
X800Y7800D02*
X3690D01*
X800Y7700D02*
X3690D01*
X800Y7600D02*
X3690D01*
X800Y7500D02*
X3690D01*
X800Y7400D02*
X3690D01*
X800Y7300D02*
X3690D01*
X800Y7200D02*
X3690D01*
X800Y7100D02*
X3690D01*
X800Y7000D02*
X3690D01*
X800Y6900D02*
X3690D01*
X800Y6800D02*
X3690D01*
X800Y6700D02*
X3690D01*
X800Y6600D02*
X3690D01*
X800Y6500D02*
X3690D01*
X800Y6400D02*
X3690D01*
X800Y6300D02*
X3690D01*
X800Y6200D02*
X3690D01*
X800Y6100D02*
X3690D01*
X800Y6000D02*
X3690D01*
X800Y5900D02*
X3690D01*
X800Y5800D02*
X3690D01*
X800Y5700D02*
X3690D01*
X800Y5600D02*
X3690D01*
X800Y5500D02*
X3690D01*
X800Y5400D02*
X3690D01*
X800Y5300D02*
X3690D01*
X800Y5200D02*
X3690D01*
X800Y5100D02*
X3690D01*
X800Y5000D02*
X3690D01*
X800Y4900D02*
X3690D01*
X800Y4800D02*
X3690D01*
X800Y4700D02*
X3690D01*
X800Y4600D02*
X3690D01*
X800Y4500D02*
X3690D01*
X800Y4400D02*
X3690D01*
X800Y4300D02*
X3690D01*
X800Y4200D02*
X3690D01*
X800Y4100D02*
X3690D01*
X800Y4000D02*
X3690D01*
X800Y3900D02*
X3690D01*
X800Y900D02*
X3919D01*
X800Y800D02*
X4120D01*
X800Y1000D02*
X3774D01*
X800Y3800D02*
X3690D01*
X800Y3700D02*
X3690D01*
X800Y3600D02*
X3690D01*
X800Y3500D02*
X3690D01*
X800Y3400D02*
X3690D01*
X800Y3300D02*
X3690D01*
X800Y3200D02*
X3690D01*
X800Y3100D02*
X3660D01*
X800Y3000D02*
X3568D01*
X800Y2900D02*
X3491D01*
X800Y2800D02*
X3428D01*
X800Y2700D02*
X3375D01*
X800Y2600D02*
X3332D01*
X800Y2500D02*
X3298D01*
X800Y2400D02*
X3273D01*
X800Y2300D02*
X3254D01*
X800Y2200D02*
X3244D01*
X800Y2100D02*
X3240D01*
X800Y2000D02*
X3244D01*
X800Y1900D02*
X3254D01*
X800Y1800D02*
X3273D01*
X800Y1600D02*
X3332D01*
X800Y1400D02*
X3428D01*
X800Y1700D02*
X3298D01*
X800Y1500D02*
X3375D01*
X800Y1200D02*
X3568D01*
X800Y1100D02*
X3660D01*
X800Y1300D02*
X3491D01*
X29800Y31925D02*
X34150Y27575D01*
X27837Y26900D02*
X34150D01*
X27837Y26800D02*
X34150D01*
X27837Y26700D02*
X34150D01*
X30000Y32075D02*
Y33300D01*
X29075Y31925D02*
Y32650D01*
X34150Y24964D02*
Y27575D01*
X29075Y31925D02*
X29800D01*
X33900Y24663D02*
Y27825D01*
X33800Y24451D02*
Y27925D01*
X34100Y24918D02*
Y27625D01*
X34000Y24807D02*
Y27725D01*
X33700Y22625D02*
Y28025D01*
X33600Y22525D02*
Y28125D01*
X27837Y23807D02*
Y26907D01*
X27450Y34275D02*
X29075Y32650D01*
X23726Y33800D02*
X27925D01*
X23565Y33700D02*
X28025D01*
X23324Y33600D02*
X28125D01*
X24032Y34100D02*
X27625D01*
X23950Y34000D02*
X27725D01*
X27800Y26907D02*
Y33925D01*
X23850Y33900D02*
X27825D01*
X27837Y26600D02*
X34150D01*
X27837Y26500D02*
X34150D01*
X27837Y26400D02*
X34150D01*
X27837Y26300D02*
X34150D01*
X27700Y26907D02*
Y34025D01*
X25038Y26907D02*
X27837D01*
Y26200D02*
X34150D01*
X27837Y26100D02*
X34150D01*
X27837Y26000D02*
X34150D01*
X27837Y25900D02*
X34150D01*
X27837Y25800D02*
X34150D01*
X27837Y25700D02*
X34150D01*
X27837Y25600D02*
X34150D01*
X27837Y25500D02*
X34150D01*
X27837Y25400D02*
X34150D01*
X27837Y25300D02*
X34150D01*
X27837Y25200D02*
X34150D01*
X34100Y23025D02*
Y23132D01*
X33900Y22825D02*
Y23387D01*
X33800Y22725D02*
Y23599D01*
X34000Y22925D02*
Y23243D01*
X27837Y25100D02*
X34150D01*
X27837Y25000D02*
X34150D01*
X27837Y24900D02*
X34082D01*
X27837Y24800D02*
X33994D01*
X27837Y24700D02*
X33923D01*
X26387Y25357D02*
X27687D01*
X27837Y24600D02*
X33865D01*
X27837Y24500D02*
X33819D01*
X27837Y24400D02*
X33783D01*
X27837Y24300D02*
X33756D01*
X27837Y24200D02*
X33737D01*
X27837Y24100D02*
X33727D01*
X27837Y24000D02*
X33725D01*
X27837Y23900D02*
X33731D01*
X24937Y23807D02*
X27837D01*
X27400Y26907D02*
Y34275D01*
X27300Y26907D02*
Y34275D01*
X27200Y26907D02*
Y34275D01*
X27100Y26907D02*
Y34275D01*
X27000Y26907D02*
Y34275D01*
X26900Y26907D02*
Y34275D01*
X26800Y26907D02*
Y34275D01*
X26700Y26907D02*
Y34275D01*
X26600Y26907D02*
Y34275D01*
X26500Y26907D02*
Y34275D01*
X26400Y26907D02*
Y34275D01*
X26300Y26907D02*
Y34275D01*
X26200Y26907D02*
Y34275D01*
X26100Y26907D02*
Y34275D01*
X26000Y26907D02*
Y34275D01*
X25900Y26907D02*
Y34275D01*
X24143D02*
X27450D01*
X25800Y26907D02*
Y34275D01*
X25700Y26907D02*
Y34275D01*
X25600Y26907D02*
Y34275D01*
X25500Y26907D02*
Y34275D01*
X25400Y26907D02*
Y34275D01*
X25300Y26907D02*
Y34275D01*
X25200Y26907D02*
Y34275D01*
X25100Y26907D02*
Y34275D01*
X25000Y26907D02*
Y34275D01*
X24900Y26907D02*
Y34275D01*
X24800Y26907D02*
Y34275D01*
X24700Y26907D02*
Y34275D01*
X24600Y26907D02*
Y34275D01*
X27500Y26907D02*
Y34225D01*
X24100Y34200D02*
X27525D01*
X27600Y26907D02*
Y34125D01*
X24937Y26907D02*
X25038D01*
X24500Y26907D02*
Y34275D01*
X24400Y26907D02*
Y34275D01*
X24300Y26907D02*
Y34275D01*
X24200Y26907D02*
Y34275D01*
X26387Y25357D02*
Y26757D01*
X24100Y26907D02*
Y34200D01*
X26387Y23957D02*
Y25357D01*
X24937Y23807D02*
X25038D01*
X24000Y26907D02*
Y34059D01*
X23900Y26907D02*
Y33947D01*
X23800Y26907D02*
Y33857D01*
X23700Y26907D02*
Y33781D01*
X23600Y26907D02*
Y33719D01*
X23500Y26907D02*
Y33668D01*
X23400Y26907D02*
Y33626D01*
X23300Y26907D02*
Y33592D01*
X23200Y26907D02*
Y33567D01*
X23100Y26907D02*
Y33550D01*
X23000Y26907D02*
Y33540D01*
X22900Y26907D02*
Y33537D01*
X22800Y26907D02*
Y33541D01*
X22700Y26907D02*
Y33553D01*
X22600Y26907D02*
Y33572D01*
X22400Y26907D02*
Y33633D01*
X22300Y26907D02*
Y33677D01*
X22500Y26907D02*
Y33598D01*
X30700Y19625D02*
Y31025D01*
X30600Y19525D02*
Y31125D01*
X30900Y19825D02*
Y30825D01*
X30800Y19725D02*
Y30925D01*
X30300Y19225D02*
Y31425D01*
X30200Y19125D02*
Y31525D01*
X30500Y19425D02*
Y31225D01*
X30400Y19325D02*
Y31325D01*
X29900Y18825D02*
Y31825D01*
X29800Y18725D02*
Y31925D01*
X30100Y19025D02*
Y31625D01*
X30000Y18925D02*
Y31725D01*
X29700Y18625D02*
Y31925D01*
X29600Y18525D02*
Y31925D01*
X29500Y18425D02*
Y31925D01*
X29400Y18325D02*
Y31925D01*
X29300Y18225D02*
Y31925D01*
X29200Y18125D02*
Y31925D01*
X29100Y18025D02*
Y31925D01*
X28800Y17725D02*
Y32925D01*
X28700Y17625D02*
Y33025D01*
X29000Y17925D02*
Y32725D01*
X28900Y17825D02*
Y32825D01*
X28400Y17325D02*
Y33325D01*
X28300Y17225D02*
Y33425D01*
X28600Y17525D02*
Y33125D01*
X28500Y17425D02*
Y33225D01*
X28100Y17025D02*
Y33625D01*
X28000Y16925D02*
Y33725D01*
X28200Y17125D02*
Y33525D01*
X33300Y22225D02*
Y28425D01*
X33200Y22125D02*
Y28525D01*
X33500Y22425D02*
Y28225D01*
X33400Y22325D02*
Y28325D01*
X32900Y21825D02*
Y28825D01*
X32800Y21725D02*
Y28925D01*
X33100Y22025D02*
Y28625D01*
X33000Y21925D02*
Y28725D01*
X32500Y21425D02*
Y29225D01*
X32400Y21325D02*
Y29325D01*
X32700Y21625D02*
Y29025D01*
X32600Y21525D02*
Y29125D01*
X32200Y21125D02*
Y29525D01*
X32100Y21025D02*
Y29625D01*
X32300Y21225D02*
Y29425D01*
X31800Y20725D02*
Y29925D01*
X31700Y20625D02*
Y30025D01*
X32000Y20925D02*
Y29725D01*
X31900Y20825D02*
Y29825D01*
X31400Y20325D02*
Y30325D01*
X31300Y20225D02*
Y30425D01*
X31600Y20525D02*
Y30125D01*
X31500Y20425D02*
Y30225D01*
X31100Y20025D02*
Y30625D01*
X31000Y19925D02*
Y30725D01*
X31200Y20125D02*
Y30525D01*
X27800Y16725D02*
X34125Y23050D01*
X22400Y17000D02*
X28075D01*
X22300Y17100D02*
X28175D01*
X22500Y16900D02*
X27975D01*
X27900Y16825D02*
Y33825D01*
X27800Y16725D02*
Y23807D01*
X27700Y16725D02*
Y23807D01*
X27600Y16725D02*
Y23807D01*
X27500Y16725D02*
Y23807D01*
X27400Y16725D02*
Y23807D01*
X27300Y16725D02*
Y23807D01*
X27200Y16725D02*
Y23807D01*
X27100Y16725D02*
Y23807D01*
X27000Y16725D02*
Y23807D01*
X26900Y16725D02*
Y23807D01*
X26800Y16725D02*
Y23807D01*
X26700Y16725D02*
Y23807D01*
X26600Y16725D02*
Y23807D01*
X26500Y16725D02*
Y23807D01*
X26400Y16725D02*
Y23807D01*
X26300Y16725D02*
Y23807D01*
X26200Y16725D02*
Y23807D01*
X26100Y16725D02*
Y23807D01*
X26000Y16725D02*
Y23807D01*
X25900Y16725D02*
Y23807D01*
X25800Y16725D02*
Y23807D01*
X25700Y16725D02*
Y23807D01*
X25600Y16725D02*
Y23807D01*
X25500Y16725D02*
Y23807D01*
X25400Y16725D02*
Y23807D01*
X25300Y16725D02*
Y23807D01*
X25200Y16725D02*
Y23807D01*
X25100Y16725D02*
Y23807D01*
X25000Y16725D02*
Y23807D01*
X24900Y16725D02*
Y23807D01*
X24800Y16725D02*
Y23807D01*
X24700Y16725D02*
Y23807D01*
X24600Y16725D02*
Y23807D01*
X24500Y16725D02*
Y23807D01*
X24400Y16725D02*
Y23807D01*
X24300Y16725D02*
Y23807D01*
X24200Y16725D02*
Y23807D01*
X24100Y16725D02*
Y23807D01*
X24000Y16725D02*
Y23807D01*
X23900Y16725D02*
Y23807D01*
X23800Y16725D02*
Y23807D01*
X23700Y16725D02*
Y23807D01*
X23600Y16725D02*
Y23807D01*
X23500Y16725D02*
Y23807D01*
X23400Y16725D02*
Y23807D01*
X23300Y16725D02*
Y23807D01*
X22600Y16800D02*
Y23807D01*
X22600Y16800D02*
X27875D01*
X22500Y16900D02*
Y23807D01*
X22400Y17000D02*
Y23807D01*
X22300Y17100D02*
Y23807D01*
X22200Y17200D02*
Y23807D01*
X23200Y16725D02*
Y23807D01*
X23100Y16725D02*
Y23807D01*
X23000Y16725D02*
Y23807D01*
X22675Y16725D02*
X27800D01*
X22900D02*
Y23807D01*
X22800Y16725D02*
Y23807D01*
X22700Y16725D02*
Y23807D01*
X20050Y31800D02*
X29925D01*
X19950Y31700D02*
X30025D01*
X19850Y31600D02*
X30125D01*
X19750Y31500D02*
X30225D01*
X20950Y32700D02*
X29025D01*
X20850Y32600D02*
X29075D01*
X20750Y32500D02*
X29075D01*
X20150Y31900D02*
X29825D01*
X19350Y31100D02*
X30625D01*
X19250Y31000D02*
X30725D01*
X19150Y30900D02*
X30825D01*
X19050Y30800D02*
X30925D01*
X19650Y31400D02*
X30325D01*
X19550Y31300D02*
X30425D01*
X19450Y31200D02*
X30525D01*
X18550Y30300D02*
X31425D01*
X18450Y30200D02*
X31525D01*
X18350Y30100D02*
X31625D01*
X18250Y30000D02*
X31725D01*
X18950Y30700D02*
X31025D01*
X18850Y30600D02*
X31125D01*
X18750Y30500D02*
X31225D01*
X18650Y30400D02*
X31325D01*
X17850Y29600D02*
X32125D01*
X17750Y29500D02*
X32225D01*
X17650Y29400D02*
X32325D01*
X17550Y29300D02*
X32425D01*
X18150Y29900D02*
X31825D01*
X18050Y29800D02*
X31925D01*
X17950Y29700D02*
X32025D01*
X17050Y28800D02*
X32925D01*
X16950Y28700D02*
X33025D01*
X16850Y28600D02*
X33125D01*
X16750Y28500D02*
X33225D01*
X17450Y29200D02*
X32525D01*
X17350Y29100D02*
X32625D01*
X17250Y29000D02*
X32725D01*
X17150Y28900D02*
X32825D01*
X16350Y28100D02*
X33625D01*
X16250Y28000D02*
X33725D01*
X16200Y23200D02*
X34036D01*
X16150Y27900D02*
X33825D01*
X16650Y28400D02*
X33325D01*
X16550Y28300D02*
X33425D01*
X16450Y28200D02*
X33525D01*
X15850Y27600D02*
X34125D01*
X15750Y27500D02*
X34150D01*
X15675Y27300D02*
X34150D01*
X15650Y27400D02*
X34150D01*
X16050Y27800D02*
X33925D01*
X15950Y27700D02*
X34025D01*
X15675Y27200D02*
X34150D01*
X15675Y27100D02*
X34150D01*
X15675Y27000D02*
X34150D01*
X15700Y23700D02*
X33768D01*
X16100Y23300D02*
X33957D01*
X16000Y23400D02*
X33893D01*
X15800Y23600D02*
X33800D01*
X15675Y23800D02*
X33745D01*
X15900Y23500D02*
X33841D01*
X21650Y33400D02*
X28325D01*
X21550Y33300D02*
X28425D01*
X21450Y33200D02*
X28525D01*
X21350Y33100D02*
X28625D01*
X21950Y33700D02*
X22254D01*
X21850Y33600D02*
X22495D01*
X21750Y33500D02*
X28225D01*
X21250Y33000D02*
X28725D01*
X21150Y32900D02*
X28825D01*
X21050Y32800D02*
X28925D01*
X20650Y32400D02*
X29075D01*
X22200Y26907D02*
Y33730D01*
X22138Y26907D02*
X25038D01*
X22138Y23807D02*
Y26907D01*
X20550Y32300D02*
X29075D01*
X20450Y32200D02*
X29075D01*
X20350Y32100D02*
X29075D01*
X20250Y32000D02*
X29075D01*
X15100Y26850D02*
X22068Y33818D01*
X15100Y26839D02*
X15650Y27375D01*
X15675Y26900D02*
X22138D01*
X15675Y26800D02*
X22138D01*
X16200Y23200D02*
Y27950D01*
X16100Y23300D02*
Y27850D01*
X16000Y23400D02*
Y27750D01*
X15900Y23500D02*
Y27650D01*
X15800Y23600D02*
Y27550D01*
X15700Y23700D02*
Y27450D01*
X15675Y23725D02*
Y27375D01*
Y26700D02*
X22138D01*
X15675Y26600D02*
X22138D01*
X15675Y26500D02*
X22138D01*
X15675Y26400D02*
X22138D01*
X15675Y26300D02*
X22138D01*
X15675Y26200D02*
X22138D01*
X15675Y26100D02*
X22138D01*
X15675Y26000D02*
X22138D01*
X15675Y25900D02*
X22138D01*
X15675Y25800D02*
X22138D01*
Y23807D02*
X24937D01*
X15675Y25700D02*
X22138D01*
X15675Y25600D02*
X22138D01*
X15675Y25500D02*
X22138D01*
X15675Y25400D02*
X22138D01*
X15675Y25300D02*
X22138D01*
X15675Y25200D02*
X22138D01*
X15675Y25100D02*
X22138D01*
X15675Y25000D02*
X22138D01*
X15675Y24900D02*
X22138D01*
X15675Y24800D02*
X22138D01*
X15675Y24700D02*
X22138D01*
X15675Y24600D02*
X22138D01*
X15675Y24500D02*
X22138D01*
X15675Y24400D02*
X22138D01*
X15675Y24300D02*
X22138D01*
X15675Y24200D02*
X22138D01*
X15675Y24100D02*
X22138D01*
X15675Y24000D02*
X22138D01*
X15675Y23900D02*
X22138D01*
X17900Y21500D02*
X32575D01*
X17800Y21600D02*
X32675D01*
X18100Y21300D02*
X32375D01*
X18000Y21400D02*
X32475D01*
X18300Y21100D02*
X32175D01*
X18200Y21200D02*
X32275D01*
X18500Y20900D02*
X31975D01*
X18400Y21000D02*
X32075D01*
X18700Y20700D02*
X31775D01*
X18600Y20800D02*
X31875D01*
X18900Y20500D02*
X31575D01*
X18800Y20600D02*
X31675D01*
X19100Y20300D02*
X31375D01*
X19000Y20400D02*
X31475D01*
X19200Y20200D02*
X31275D01*
X16500Y22900D02*
X33975D01*
X16400Y23000D02*
X34075D01*
X16700Y22700D02*
X33775D01*
X16600Y22800D02*
X33875D01*
X16900Y22500D02*
X33575D01*
X16800Y22600D02*
X33675D01*
X17100Y22300D02*
X33375D01*
X17000Y22400D02*
X33475D01*
X17300Y22100D02*
X33175D01*
X17200Y22200D02*
X33275D01*
X17500Y21900D02*
X32975D01*
X17400Y22000D02*
X33075D01*
X17600Y21800D02*
X32875D01*
X15675Y23725D02*
X22675Y16725D01*
X17700Y21700D02*
X32775D01*
X20900Y18500D02*
X29575D01*
X20800Y18600D02*
X29675D01*
X21100Y18300D02*
X29375D01*
X21000Y18400D02*
X29475D01*
X21300Y18100D02*
X29175D01*
X21200Y18200D02*
X29275D01*
X21500Y17900D02*
X28975D01*
X21400Y18000D02*
X29075D01*
X21700Y17700D02*
X28775D01*
X21600Y17800D02*
X28875D01*
X21900Y17500D02*
X28575D01*
X21800Y17600D02*
X28675D01*
X22100Y17300D02*
X28375D01*
X22000Y17400D02*
X28475D01*
X22200Y17200D02*
X28275D01*
X19400Y20000D02*
X31075D01*
X19300Y20100D02*
X31175D01*
X19600Y19800D02*
X30875D01*
X19500Y19900D02*
X30975D01*
X19800Y19600D02*
X30675D01*
X19700Y19700D02*
X30775D01*
X20000Y19400D02*
X30475D01*
X19900Y19500D02*
X30575D01*
X20200Y19200D02*
X30275D01*
X20100Y19300D02*
X30375D01*
X20400Y19000D02*
X30075D01*
X20300Y19100D02*
X30175D01*
X20600Y18800D02*
X29875D01*
X20500Y18900D02*
X29975D01*
X20700Y18700D02*
X29775D01*
X21400Y18000D02*
Y33150D01*
X21300Y18100D02*
Y33050D01*
X21200Y18200D02*
Y32950D01*
X21100Y18300D02*
Y32850D01*
X21000Y18400D02*
Y32750D01*
X20900Y18500D02*
Y32650D01*
X20800Y18600D02*
Y32550D01*
X20700Y18700D02*
Y32450D01*
X22100Y17300D02*
Y33795D01*
X22000Y17400D02*
Y33750D01*
X21900Y17500D02*
Y33650D01*
X21800Y17600D02*
Y33550D01*
X21700Y17700D02*
Y33450D01*
X21600Y17800D02*
Y33350D01*
X21500Y17900D02*
Y33250D01*
X19900Y19500D02*
Y31650D01*
X19800Y19600D02*
Y31550D01*
X19700Y19700D02*
Y31450D01*
X19600Y19800D02*
Y31350D01*
X19500Y19900D02*
Y31250D01*
X19400Y20000D02*
Y31150D01*
X19300Y20100D02*
Y31050D01*
X19200Y20200D02*
Y30950D01*
X20600Y18800D02*
Y32350D01*
X20500Y18900D02*
Y32250D01*
X20400Y19000D02*
Y32150D01*
X20300Y19100D02*
Y32050D01*
X20200Y19200D02*
Y31950D01*
X20100Y19300D02*
Y31850D01*
X20000Y19400D02*
Y31750D01*
X18400Y21000D02*
Y30150D01*
X18300Y21100D02*
Y30050D01*
X18200Y21200D02*
Y29950D01*
X18100Y21300D02*
Y29850D01*
X18000Y21400D02*
Y29750D01*
X17900Y21500D02*
Y29650D01*
X17800Y21600D02*
Y29550D01*
X17700Y21700D02*
Y29450D01*
X19100Y20300D02*
Y30850D01*
X19000Y20400D02*
Y30750D01*
X18900Y20500D02*
Y30650D01*
X18800Y20600D02*
Y30550D01*
X18700Y20700D02*
Y30450D01*
X18600Y20800D02*
Y30350D01*
X18500Y20900D02*
Y30250D01*
X16900Y22500D02*
Y28650D01*
X16800Y22600D02*
Y28550D01*
X16700Y22700D02*
Y28450D01*
X16600Y22800D02*
Y28350D01*
X16500Y22900D02*
Y28250D01*
X16400Y23000D02*
Y28150D01*
X16300Y23100D02*
Y28050D01*
X17600Y21800D02*
Y29350D01*
X17500Y21900D02*
Y29250D01*
X17400Y22000D02*
Y29150D01*
X17300Y22100D02*
Y29050D01*
X17200Y22200D02*
Y28950D01*
X17100Y22300D02*
Y28850D01*
X17000Y22400D02*
Y28750D01*
D13*
X26387Y25357D02*
D03*
X23587Y25357D02*
D03*
D16*
X47820Y2100D02*
Y9520D01*
X48000Y9700D01*
X44325Y3055D02*
X45280Y2100D01*
X44325Y3055D02*
Y5775D01*
X42725Y7375D02*
X44325Y5775D01*
X15250Y39175D02*
X15650Y39575D01*
X34150Y38100D02*
X38800Y33450D01*
Y22300D02*
Y33450D01*
X15250Y33100D02*
X15900Y32450D01*
X8425Y31000D02*
X8450Y31025D01*
X9125Y11225D02*
Y16775D01*
X39725Y23550D02*
Y39525D01*
X40250Y18550D02*
X40500Y18800D01*
X32700Y32500D02*
X33250D01*
X31900Y33300D02*
X32700Y32500D01*
X18075Y31150D02*
Y37150D01*
X14250Y24075D02*
Y27325D01*
X42747Y37197D02*
Y40591D01*
X42250Y36700D02*
X42747Y37197D01*
X28200Y35450D02*
X30000D01*
X28050Y35600D02*
X28200Y35450D01*
X18137Y34937D02*
X20370D01*
X25125Y9650D02*
X25700Y9075D01*
X25125Y9650D02*
Y14475D01*
X34975Y18775D02*
Y24025D01*
X32630Y15307D02*
X32687Y15250D01*
Y14112D02*
Y15250D01*
X27500Y2100D02*
Y8925D01*
X32687Y14112D01*
X14250Y27325D02*
X18075Y31150D01*
X32630Y16430D02*
X33225Y17025D01*
X33225Y17025D02*
X34975Y18775D01*
X32630Y15307D02*
Y16430D01*
X34250Y13125D02*
Y14850D01*
X29725Y8787D02*
X29912D01*
X34250Y13125D01*
X35275Y16275D02*
X35450Y16100D01*
X32525Y8800D02*
X32775D01*
X35450Y11475D02*
Y16100D01*
X32775Y8800D02*
X35450Y11475D01*
X43900Y35625D02*
X43925Y35600D01*
Y15525D02*
Y35600D01*
X48000Y15625D02*
Y35100D01*
X47975Y15600D02*
X48000Y15625D01*
X39725Y23550D02*
X40500Y22775D01*
Y18800D02*
Y22775D01*
X36450Y10350D02*
Y26175D01*
X35150Y9075D02*
X35175D01*
X36450Y10350D01*
X37660Y2100D02*
Y7485D01*
X41550Y11375D01*
Y28993D01*
X42825Y11000D02*
Y32293D01*
X40200Y8375D02*
X42825Y11000D01*
X40200Y2100D02*
Y8375D01*
X37700Y21300D02*
Y32475D01*
X32150Y38025D02*
X37700Y32475D01*
X16375Y34025D02*
X17150Y33250D01*
X32150Y38025D02*
Y38600D01*
X16375Y37825D02*
X17000Y38450D01*
X16375Y34025D02*
Y37825D01*
X37700Y21300D02*
X39025Y19975D01*
X15525Y30375D02*
X15825D01*
X6000Y28550D02*
Y28800D01*
X4475Y17325D02*
X5925Y18775D01*
X17150Y31700D02*
Y33250D01*
X15825Y30375D02*
X17150Y31700D01*
X5925Y28475D02*
X6000Y28550D01*
X5925Y18775D02*
Y28475D01*
X8425Y17475D02*
Y31000D01*
X7175Y16600D02*
Y32400D01*
X15250Y33100D02*
Y39175D01*
X8425Y17475D02*
X9125Y16775D01*
X14125Y40625D02*
X14325Y40825D01*
X14125Y32500D02*
Y40625D01*
X7175Y32400D02*
X7225Y32450D01*
X41268Y28975D02*
X41475Y28768D01*
X41268Y28975D02*
X41275D01*
X42550Y32293D02*
X42750Y32093D01*
D19*
X1625Y41500D02*
D03*
X22910Y34937D02*
D03*
X35120Y2100D02*
D03*
X4640D02*
D03*
X7180D02*
D03*
X9720D02*
D03*
X12260D02*
D03*
X14800D02*
D03*
X17340D02*
D03*
X19880D02*
D03*
X22420D02*
D03*
X24960D02*
D03*
X27500D02*
D03*
X30040D02*
D03*
X32580D02*
D03*
X37660D02*
D03*
X40200D02*
D03*
X42740D02*
D03*
X45280D02*
D03*
X47820D02*
D03*
X11575Y12617D02*
D03*
X11575Y17617D02*
D03*
X42747Y40591D02*
D03*
X45287Y40591D02*
D03*
X47827D02*
D03*
D20*
X20370Y34937D02*
D03*
X2100Y2100D02*
D03*
X37667Y40591D02*
D03*
D21*
X9758Y24388D02*
D03*
Y27363D02*
D03*
D22*
X12258Y24388D02*
D03*
Y27363D02*
D03*
D23*
X47725Y7375D02*
D03*
X47625Y4925D02*
D03*
X42625D02*
D03*
X42725Y7375D02*
D03*
D24*
X2000Y13750D02*
D03*
X1525Y25900D02*
D03*
D03*
X1500Y23000D02*
D03*
X48625Y13600D02*
D03*
X13450Y22400D02*
D03*
X7525Y35000D02*
D03*
X7500Y39250D02*
D03*
X1975Y32300D02*
D03*
X2000Y37100D02*
D03*
X13700Y19575D02*
D03*
X13600Y13750D02*
D03*
X2100Y10000D02*
D03*
X2200Y5025D02*
D03*
X12200Y4575D02*
D03*
X19000Y12550D02*
D03*
X16050Y11000D02*
D03*
X30575Y16500D02*
D03*
X35600Y27850D02*
D03*
X35625Y30500D02*
D03*
X45250Y37400D02*
D03*
X45475Y15575D02*
D03*
X46600Y39275D02*
D03*
X4325Y35850D02*
D03*
X5350Y40600D02*
D03*
X24950Y41850D02*
D03*
X26600Y28350D02*
D03*
X23700Y22025D02*
D03*
X22500Y22975D02*
D03*
X33200Y32250D02*
D03*
X28050Y35600D02*
D03*
X25125Y14475D02*
D03*
X25700Y9075D02*
D03*
X14250Y24075D02*
D03*
X32687Y15250D02*
D03*
X34975Y24025D02*
D03*
X34250Y14850D02*
D03*
X29725Y8787D02*
D03*
X35275Y16275D02*
D03*
X32525Y8800D02*
D03*
X43900Y35625D02*
D03*
X43925Y15525D02*
D03*
X47675Y15550D02*
D03*
X48000Y35100D02*
D03*
X40250Y18550D02*
D03*
X36400Y17575D02*
D03*
X35150Y9075D02*
D03*
X36450Y26175D02*
D03*
X42250Y36700D02*
D03*
X18075Y37150D02*
D03*
X16400Y34000D02*
D03*
X39025Y19975D02*
D03*
X32150Y38600D02*
D03*
X17000Y38450D02*
D03*
X15525Y30375D02*
D03*
X6000Y28800D02*
D03*
X4475Y17325D02*
D03*
X38800Y22300D02*
D03*
X34150Y38100D02*
D03*
X15650Y39575D02*
D03*
X15900Y32450D02*
D03*
X8450Y31025D02*
D03*
X9125Y11225D02*
D03*
X7145Y24445D02*
D03*
X39725Y39525D02*
D03*
X14325Y40825D02*
D03*
X14125Y32500D02*
D03*
X7225Y32450D02*
D03*
X7175Y16600D02*
D03*
X41268Y28975D02*
D03*
X42550Y32293D02*
D03*
X1500Y28700D02*
D03*
Y20200D02*
D03*
X23587Y25357D02*
D03*
D25*
X30000Y33300D02*
D03*
X31900D02*
D03*
X30950Y35450D02*
D03*
X30000Y35450D02*
D03*
D26*
X31900Y35450D02*
D03*
D27*
X9825Y37000D02*
D03*
D28*
X2425Y39285D02*
D03*
Y34715D02*
D03*
D29*
X46600Y20925D02*
Y39275D01*
X45225Y16175D02*
X45625Y15775D01*
X24950Y32900D02*
Y41850D01*
X45225Y16175D02*
Y19550D01*
X46600Y20925D01*
X4325Y34875D02*
Y35850D01*
X4640Y2100D02*
Y15010D01*
X4225Y34775D02*
X4325Y34875D01*
X2725Y34775D02*
X4225D01*
X4350Y34650D01*
Y20575D02*
Y34650D01*
X2650Y18875D02*
X4350Y20575D01*
X2650Y17000D02*
Y18875D01*
Y17000D02*
X4640Y15010D01*
X4035Y39285D02*
X5350Y40600D01*
X2425Y39285D02*
X4035D01*
M02*
