METRIC,LZ
M48
T1F00S00C0.700
T2F00S00C0.950
T3F00S00C1.000
T4F00S00C1.300
%
T01
X00122Y0004575
X0045475Y0015575
X0047675Y001555
X0048625Y00136
X0048Y00351
X004525Y00374
X00466Y0039275
X00439Y0035625
X004225Y00367
X004255Y0032293
X0041268Y0028975
X00356Y002785
X003645Y0026175
X0034975Y0024025
X00388Y00223
X0039025Y0019975
X004025Y001855
X00364Y0017575
X0035275Y0016275
X003425Y001485
X0032687Y001525
X0030575Y00165
X0025125Y0014475
X00257Y0009075
X0029725Y0008787
X0032525Y00088
X003515Y0009075
X0043925Y0015525
X0035625Y00305
X00332Y003225
X003415Y00381
X003215Y00386
X002805Y00356
X00266Y002835
X0023587Y0025357
X00237Y0022025
X00225Y0022975
X001425Y0024075
X001345Y00224
X00137Y0019575
X00136Y001375
X001605Y0011
X0019Y001255
X0009125Y0011225
X0007175Y00166
X0007145Y0024445
X0006Y00288
X000845Y0031025
X0007225Y003245
X0007525Y0035
X00075Y003925
X000535Y00406
X0014325Y0040825
X001565Y0039575
X0017Y003845
X0018075Y003715
X00164Y0034
X00159Y003245
X0014125Y00325
X0015525Y0030375
X002495Y004185
X0039725Y0039525
X0004325Y003585
X0002Y00371
X0001975Y00323
X00015Y00287
X0001525Y00259
X00015Y0023
Y00202
X0004475Y0017325
X0002Y001375
X00021Y001
X00022Y0005025
T02
X00021Y00021
X000464
X000718
X000972
X001226
X00148
X001734
X001988
X002242
X002496
X00275
X003004
X003258
X003512
X003766
X00402
X004274
X004528
X004782
X002291Y0034937
X002037Y0034937
X0012258Y0027363
X0009758
Y0024388
X0012258
X0001625Y00415
T03
X0045287Y0040591
X0047827
X0042747Y0040591
X0037667Y0040591
X0011575Y0017617
X0011575Y0012617
T04
X0047625Y0004925
X0047725Y0007375
X0042725
X0042625Y0004925
M30
