%FSLAX43Y43*%
%MOMM*%
G71*
G01*
G75*
G04 Layer_Physical_Order=1*
%ADD10C,0.300*%
%ADD11C,0.125*%
%ADD12R,1.800X1.600*%
%ADD13R,1.600X1.800*%
%ADD14R,0.600X1.700*%
%ADD15R,0.600X1.700*%
%ADD16C,0.400*%
%ADD17C,0.500*%
%ADD18C,0.254*%
%ADD19C,1.500*%
%ADD20R,1.500X1.500*%
%ADD21R,1.300X1.300*%
%ADD22C,1.300*%
%ADD23C,2.000*%
%ADD24C,1.200*%
D10*
X47847Y39191D02*
G03*
X49200Y40316I-20J1400D01*
G01*
X47953Y33851D02*
G03*
X49200Y34750I47J1249D01*
G01*
Y40865D02*
G03*
X47421Y41930I-1373J-275D01*
G01*
G03*
X47354Y42200I-896J-80D01*
G01*
X45353Y39192D02*
G03*
X47847Y39191I1247J83D01*
G01*
X45102Y39203D02*
G03*
X45353Y39192I186J1388D01*
G01*
X43495Y36808D02*
G03*
X43291Y37392I-1245J-108D01*
G01*
X49200Y35450D02*
G03*
X46752Y35175I-1200J-350D01*
G01*
X45150Y35625D02*
G03*
X43495Y36808I-1250J0D01*
G01*
X45066Y35175D02*
G03*
X45150Y35625I-1166J450D01*
G01*
X42138Y31113D02*
G03*
X43062Y31153I412J1180D01*
G01*
X26734Y29593D02*
G03*
X27849Y28304I-134J-1243D01*
G01*
X37445Y26932D02*
G03*
X37270Y25232I-995J-757D01*
G01*
X36163Y24412D02*
G03*
X34082Y23150I-1188J-387D01*
G01*
X48825Y17655D02*
G03*
X48730Y18045I-850J0D01*
G01*
X48925Y15550D02*
G03*
X48825Y16040I-1250J0D01*
G01*
Y17655D02*
G03*
X48730Y18045I-850J0D01*
G01*
X46715Y16350D02*
G03*
X46582Y16156I960J-800D01*
G01*
X43120Y16481D02*
G03*
X43020Y16387I805J-956D01*
G01*
G03*
X44732Y14570I905J-862D01*
G01*
X46582Y16156D02*
G03*
X46456Y16350I-1107J-581D01*
G01*
X46568Y14969D02*
G03*
X48925Y15550I1107J581D01*
G01*
X44732Y14570D02*
G03*
X46568Y14969I743J1005D01*
G01*
X45101Y6199D02*
G03*
X45350Y6800I-601J601D01*
G01*
X45101Y6199D02*
G03*
X45350Y6800I-601J601D01*
G01*
X45800Y800D02*
G03*
X46680Y2100I-520J1300D01*
G01*
G03*
X44010Y2689I-1400J0D01*
G01*
X44275Y4925D02*
G03*
X44226Y5324I-1650J0D01*
G01*
X43590Y3587D02*
G03*
X44275Y4925I-965J1338D01*
G01*
X44010Y2689D02*
G03*
X43590Y3212I-1270J-589D01*
G01*
X41500Y18550D02*
G03*
X41241Y19312I-1250J0D01*
G01*
X41009Y17557D02*
G03*
X41500Y18550I-759J993D01*
G01*
X29876Y16543D02*
G03*
X30125Y17144I-601J601D01*
G01*
X29876Y16543D02*
G03*
X30125Y17144I-601J601D01*
G01*
X35485Y15043D02*
G03*
X36192Y15425I-210J1232D01*
G01*
X31831Y16161D02*
G03*
X31837Y14333I856J-911D01*
G01*
X35500Y14850D02*
G03*
X35485Y15043I-1250J0D01*
G01*
X24950Y22025D02*
G03*
X23714Y23275I-1250J0D01*
G01*
X23715Y20775D02*
G03*
X24950Y22025I-15J1250D01*
G01*
X42713Y9025D02*
G03*
X42462Y9004I12J-1650D01*
G01*
X41573Y8557D02*
G03*
X41572Y6195I1152J-1182D01*
G01*
G03*
X41890Y3448I1053J-1270D01*
G01*
Y3212D02*
G03*
X41470Y2689I850J-1112D01*
G01*
X35336Y14232D02*
G03*
X35500Y14850I-1086J618D01*
G01*
X39907Y3469D02*
G03*
X39650Y3388I293J-1369D01*
G01*
X41470Y2689D02*
G03*
X39907Y3469I-1270J-589D01*
G01*
X39650Y3388D02*
G03*
X38930Y2689I550J-1288D01*
G01*
X31363Y11275D02*
G03*
X31237Y11266I0J-850D01*
G01*
X31363Y11275D02*
G03*
X31237Y11266I0J-850D01*
G01*
G03*
X30893Y11133I126J-841D01*
G01*
X31237Y11266D02*
G03*
X30893Y11133I126J-841D01*
G01*
X38930Y2689D02*
G03*
X38210Y3388I-1270J-589D01*
G01*
X37110D02*
G03*
X36775Y3185I550J-1288D01*
G01*
X17220Y33057D02*
G03*
X17324Y32930I705J475D01*
G01*
X17220Y33057D02*
G03*
X17324Y32930I705J475D01*
G01*
X17053Y32934D02*
G03*
X17220Y33057I-653J1066D01*
G01*
X17150Y32450D02*
G03*
X17053Y32934I-1250J0D01*
G01*
X17819Y29021D02*
G03*
X17600Y29050I-219J-821D01*
G01*
X17819Y29021D02*
G03*
X17600Y29050I-219J-821D01*
G01*
X16373Y31293D02*
G03*
X17150Y32450I-473J1157D01*
G01*
X16775Y30375D02*
G03*
X16373Y31293I-1250J0D01*
G01*
X14544Y29600D02*
G03*
X16775Y30375I981J775D01*
G01*
X16275Y29050D02*
G03*
X15674Y28801I0J-850D01*
G01*
X16275Y29050D02*
G03*
X15674Y28801I0J-850D01*
G01*
X13242Y28213D02*
G03*
X11058Y27863I-984J-850D01*
G01*
X23714Y23275D02*
G03*
X21251Y22922I-1214J-300D01*
G01*
X15438Y26513D02*
G03*
X16039Y26762I0J850D01*
G01*
X15438Y26513D02*
G03*
X16039Y26762I0J850D01*
G01*
X11058Y26863D02*
G03*
X13242Y26513I1200J500D01*
G01*
X13575Y26225D02*
G03*
X12974Y25976I0J-850D01*
G01*
X13575Y26225D02*
G03*
X12974Y25976I0J-850D01*
G01*
X13164Y23456D02*
G03*
X15139Y23196I1086J619D01*
G01*
X11058Y23888D02*
G03*
X13164Y23456I1200J500D01*
G01*
X12631Y25633D02*
G03*
X11058Y24888I-373J-1245D01*
G01*
X5863Y39460D02*
G03*
X6591Y40449I-513J1140D01*
G01*
X5443Y41847D02*
G03*
X4201Y41093I-93J-1247D01*
G01*
X3025Y41500D02*
G03*
X2837Y42200I-1400J0D01*
G01*
X2965Y41093D02*
G03*
X3025Y41500I-1340J406D01*
G01*
X5569Y35968D02*
G03*
X3081Y35968I-1244J-118D01*
G01*
Y35968D02*
G03*
X3088Y35673I1244J-118D01*
G01*
X9025Y28975D02*
G03*
X9626Y29224I0J850D01*
G01*
X9025Y28975D02*
G03*
X9626Y29224I0J850D01*
G01*
X8142Y33300D02*
G03*
X6128Y31850I-917J-850D01*
G01*
X8395Y24445D02*
G03*
X6228Y25295I-1250J0D01*
G01*
Y23595D02*
G03*
X8395Y24445I917J850D01*
G01*
X5273Y31850D02*
G03*
X4776Y31690I0J-850D01*
G01*
X5273Y31850D02*
G03*
X4776Y31690I0J-850D01*
G01*
X5880Y27556D02*
G03*
X7250Y28800I120J1244D01*
G01*
X22465Y17183D02*
G03*
X22249Y17026I385J-758D01*
G01*
X22465Y17183D02*
G03*
X22249Y17026I385J-758D01*
G01*
X21924Y16701D02*
G03*
X21675Y16100I601J-601D01*
G01*
X21924Y16701D02*
G03*
X21675Y16100I601J-601D01*
G01*
X12912Y18033D02*
G03*
X12343Y18788I-1337J-416D01*
G01*
X10643Y18662D02*
G03*
X11159Y16280I932J-1045D01*
G01*
X10974Y16095D02*
G03*
X10725Y15494I601J-601D01*
G01*
X10974Y16095D02*
G03*
X10725Y15494I601J-601D01*
G01*
X14056Y12389D02*
G03*
X13807Y11787I601J-601D01*
G01*
X14056Y12389D02*
G03*
X13807Y11787I601J-601D01*
G01*
X12975Y12617D02*
G03*
X12425Y13730I-1400J0D01*
G01*
Y11505D02*
G03*
X12975Y12617I-850J1112D01*
G01*
X13325Y3009D02*
G03*
X12044Y3483I-1065J-909D01*
G01*
X10725Y13730D02*
G03*
X10725Y11505I850J-1112D01*
G01*
X8425Y16600D02*
G03*
X8414Y16762I-1250J0D01*
G01*
G03*
X5936Y16762I-1239J-162D01*
G01*
X3538Y13787D02*
G03*
X3787Y13186I850J0D01*
G01*
X10375Y11225D02*
G03*
X8618Y12368I-1250J0D01*
G01*
X10329Y10888D02*
G03*
X10375Y11225I-1204J337D01*
G01*
X3538Y13787D02*
G03*
X3787Y13186I850J0D01*
G01*
X5910Y2689D02*
G03*
X4120Y800I-1270J-589D01*
G01*
X6174Y3074D02*
G03*
X5910Y2689I1006J-974D01*
G01*
X4321Y5212D02*
G03*
X4567Y4681I847J69D01*
G01*
X4321Y5212D02*
G03*
X4567Y4681I847J69D01*
G01*
X17317Y16728D02*
X16257Y17789D01*
X17176Y18708D01*
X18237Y17647D01*
X17317Y16728D01*
Y17082D02*
X16610Y17789D01*
X17176Y18354D01*
X17883Y17647D01*
X17317Y17082D01*
Y17435D02*
X16964Y17789D01*
X17176Y18001D01*
X17529Y17647D01*
X17317Y17435D01*
X17247Y17700D02*
Y17736D01*
X15337Y14748D02*
X14277Y15809D01*
X15196Y16728D01*
X16257Y15667D01*
X15337Y14748D01*
Y15102D02*
X14630Y15809D01*
X15196Y16374D01*
X15903Y15667D01*
X15337Y15102D01*
Y15455D02*
X14984Y15809D01*
X15196Y16021D01*
X15550Y15667D01*
X15337Y15455D01*
X15267Y15720D02*
Y15756D01*
X48970Y41400D02*
X49200D01*
X49034Y41300D02*
X49200D01*
X49100Y41174D02*
Y42200D01*
X49088Y41200D02*
X49200D01*
X49200Y40866D02*
Y42200D01*
X49200Y40865D02*
Y42200D01*
X49096Y40000D02*
X49200D01*
X49045Y39900D02*
X49200D01*
X48323Y41900D02*
X49200D01*
X48533Y41800D02*
X49200D01*
X48681Y41700D02*
X49200D01*
X48797Y41600D02*
X49200D01*
X48892Y41500D02*
X49200D01*
X48982Y39800D02*
X49200D01*
X48907Y39700D02*
X49200D01*
X48816Y39600D02*
X49200D01*
X48705Y39500D02*
X49200D01*
X48563Y39400D02*
X49200D01*
X48369Y39300D02*
X49200D01*
X47988Y39200D02*
X49200D01*
X47838Y39100D02*
X49200D01*
X48350Y36300D02*
X49200D01*
X47819Y39000D02*
X49200D01*
X47792Y38900D02*
X49200D01*
X47756Y38800D02*
X49200D01*
X47710Y38700D02*
X49200D01*
X47652Y38600D02*
X49200D01*
X47581Y38500D02*
X49200D01*
X47493Y38400D02*
X49200D01*
X48600Y41758D02*
Y42200D01*
X48500Y41818D02*
Y42200D01*
X48400Y41868D02*
Y42200D01*
X48300Y41908D02*
Y42200D01*
X49000Y41355D02*
Y42200D01*
X48900Y41490D02*
Y42200D01*
X48800Y41598D02*
Y42200D01*
X48700Y41685D02*
Y42200D01*
X48000Y41980D02*
Y42200D01*
X47900Y41989D02*
Y42200D01*
X47800Y41990D02*
Y42200D01*
X47700Y41985D02*
Y42200D01*
X48200Y41940D02*
Y42200D01*
X48100Y41964D02*
Y42200D01*
X47600Y41972D02*
Y42200D01*
X48300Y36314D02*
Y39273D01*
X48200Y36334D02*
Y39241D01*
X48100Y36346D02*
Y39217D01*
X48000Y36350D02*
Y39201D01*
X48500Y36246D02*
Y39363D01*
X48400Y36284D02*
Y39313D01*
X47900Y36346D02*
Y39192D01*
X47827Y40591D02*
Y41841D01*
X47800Y36334D02*
Y38924D01*
X47500Y41952D02*
Y42200D01*
X47400Y42061D02*
Y42200D01*
X47700Y36313D02*
Y38681D01*
X47600Y36284D02*
Y38525D01*
X47500Y36246D02*
Y38407D01*
X48961Y35900D02*
X49200D01*
X49036Y35800D02*
X49200D01*
X49200Y35451D02*
Y40315D01*
X49097Y35700D02*
X49200D01*
Y35450D02*
Y40316D01*
X49097Y34500D02*
X49200D01*
X49036Y34400D02*
X49200D01*
X48960Y34300D02*
X49200D01*
X48594Y36200D02*
X49200D01*
X48750Y36100D02*
X49200D01*
X48868Y36000D02*
X49200D01*
X48867Y34200D02*
X49200D01*
X48750Y34100D02*
X49200D01*
X48593Y34000D02*
X49200D01*
X48762Y33800D02*
X49200D01*
X48762Y33700D02*
X49200D01*
X48762Y33600D02*
X49200D01*
X48762Y33500D02*
X49200D01*
X48762Y33400D02*
X49200D01*
X48762Y33300D02*
X49200D01*
X48762Y33200D02*
X49200D01*
X48350Y33900D02*
X49200D01*
X48762Y33100D02*
X49200D01*
X48762Y33000D02*
X49200D01*
X48762Y32900D02*
X49200D01*
X48762Y32800D02*
X49200D01*
X48762Y32700D02*
X49200D01*
X48762Y32600D02*
X49200D01*
X49100Y35694D02*
Y40007D01*
X49000Y35850D02*
Y39826D01*
X48900Y35968D02*
Y39691D01*
X48800Y36061D02*
Y39584D01*
X48762Y32500D02*
X49200D01*
X48762Y32400D02*
X49200D01*
X48762Y30732D02*
Y33832D01*
Y32300D02*
X49200D01*
X48700Y36136D02*
Y39496D01*
Y33832D02*
Y34064D01*
X48600Y36197D02*
Y39423D01*
Y33832D02*
Y34003D01*
X47934Y33832D02*
X48762D01*
Y32200D02*
X49200D01*
X48500Y33832D02*
Y33954D01*
X48762Y32100D02*
X49200D01*
X48762Y32000D02*
X49200D01*
X48762Y31900D02*
X49200D01*
X48762Y31800D02*
X49200D01*
X48762Y31700D02*
X49200D01*
X48762Y31600D02*
X49200D01*
X48762Y31500D02*
X49200D01*
X48762Y31400D02*
X49200D01*
X48762Y31300D02*
X49200D01*
X48762Y31200D02*
X49200D01*
X48762Y31100D02*
X49200D01*
X48762Y31000D02*
X49200D01*
X48762Y30900D02*
X49200D01*
X48762Y30800D02*
X49200D01*
X47354Y42200D02*
X49200D01*
X47354Y42200D02*
X49200D01*
X47390Y42100D02*
X49200D01*
X47412Y42000D02*
X49200D01*
X47382Y38300D02*
X49200D01*
X47400Y36196D02*
Y38314D01*
X47238Y38200D02*
X49200D01*
X47026Y38100D02*
X49200D01*
X43999D02*
X46174D01*
X43899Y38000D02*
X49200D01*
X43799Y37900D02*
X49200D01*
X43699Y37800D02*
X49200D01*
X43599Y37700D02*
X49200D01*
X43499Y37600D02*
X49200D01*
X44327Y36800D02*
X49200D01*
X44538Y36700D02*
X49200D01*
X44682Y36600D02*
X49200D01*
X44793Y36500D02*
X49200D01*
X44881Y36400D02*
X49200D01*
X44952Y36300D02*
X47650D01*
X43399Y37500D02*
X49200D01*
X43299Y37400D02*
X49200D01*
X43347Y37300D02*
X49200D01*
X43396Y37200D02*
X49200D01*
X43434Y37100D02*
X49200D01*
X43464Y37000D02*
X49200D01*
X43484Y36900D02*
X49200D01*
X44999Y39100D02*
X45362D01*
X44899Y39000D02*
X45381D01*
X44799Y38900D02*
X45408D01*
X44900Y36375D02*
Y39001D01*
X44699Y38800D02*
X45444D01*
X44800Y36493D02*
Y38901D01*
X44700Y36586D02*
Y38801D01*
X44499Y38600D02*
X45548D01*
X44399Y38500D02*
X45619D01*
X43298Y37399D02*
X45102Y39203D01*
X44599Y38700D02*
X45490D01*
X44600Y36661D02*
Y38701D01*
X44500Y36722D02*
Y38601D01*
X44400Y36771D02*
Y38501D01*
X44199Y38300D02*
X45818D01*
X44099Y38200D02*
X45962D01*
X44299Y38400D02*
X45707D01*
X44200Y36839D02*
Y38301D01*
X44300Y36809D02*
Y38401D01*
X44100Y36859D02*
Y38201D01*
X44000Y36871D02*
Y38101D01*
X43900Y36875D02*
Y38001D01*
X43800Y36871D02*
Y37901D01*
X43700Y36859D02*
Y37801D01*
X43400Y37190D02*
Y37501D01*
X43600Y36838D02*
Y37701D01*
X43500Y36809D02*
Y37601D01*
X47300Y36136D02*
Y38239D01*
X47200Y36060D02*
Y38178D01*
X47100Y35967D02*
Y38129D01*
X47000Y35850D02*
Y38091D01*
X46900Y35693D02*
Y38061D01*
X46800Y35449D02*
Y38041D01*
X46700Y35175D02*
Y38029D01*
X46600Y35175D02*
Y38025D01*
X45010Y36200D02*
X47406D01*
X46500Y35175D02*
Y38029D01*
X46400Y35175D02*
Y38041D01*
X46300Y35175D02*
Y38062D01*
X46200Y35175D02*
Y38091D01*
X46100Y35175D02*
Y38129D01*
X45056Y36100D02*
X47250D01*
X45138Y35800D02*
X46964D01*
X45148Y35700D02*
X46903D01*
X45150Y35600D02*
X46854D01*
X47312Y32282D02*
X48612D01*
X47312Y30882D02*
Y32282D01*
X45144Y35500D02*
X46816D01*
X45092Y36000D02*
X47132D01*
X45119Y35900D02*
X47039D01*
X45130Y35400D02*
X46786D01*
X45107Y35300D02*
X46766D01*
X45075Y35200D02*
X46754D01*
X34771Y30700D02*
X49200D01*
X45066Y35175D02*
X46752D01*
X46000D02*
Y38179D01*
X45900Y35175D02*
Y38239D01*
X45700Y35175D02*
Y38408D01*
X45800Y35175D02*
Y38315D01*
X45500Y35175D02*
Y38682D01*
X45600Y35175D02*
Y38525D01*
X45300Y35175D02*
Y39191D01*
X45400Y35175D02*
Y38926D01*
X45200Y35175D02*
Y39193D01*
X45100Y35976D02*
Y39201D01*
X45000Y36219D02*
Y39101D01*
X43062Y30732D02*
Y31153D01*
X43000Y29843D02*
Y31127D01*
X42921Y31100D02*
X43062D01*
X42900Y29843D02*
Y31093D01*
X42800Y29843D02*
Y31069D01*
X42700Y29843D02*
Y31052D01*
X42600Y29843D02*
Y31044D01*
X42500Y29843D02*
Y31044D01*
X42138Y31000D02*
X43062D01*
X42138Y30900D02*
X43062D01*
X42138Y30743D02*
Y31113D01*
Y30800D02*
X43062D01*
X42400Y29843D02*
Y31052D01*
X42300Y29843D02*
Y31069D01*
X42200Y29843D02*
Y31093D01*
X48712Y30500D02*
X49200D01*
X48712Y30400D02*
X49200D01*
X48700Y30532D02*
Y30732D01*
X48712Y30300D02*
X49200D01*
X48712Y30200D02*
X49200D01*
X48712Y30100D02*
X49200D01*
X48712Y30000D02*
X49200D01*
X48712Y29900D02*
X49200D01*
X45862Y30732D02*
X48762D01*
X48712Y29800D02*
X49200D01*
X48600Y30532D02*
Y30732D01*
X45912Y30532D02*
X48712D01*
Y29700D02*
X49200D01*
X48712Y29600D02*
X49200D01*
X48712Y29500D02*
X49200D01*
X48712Y29400D02*
X49200D01*
X48712Y29300D02*
X49200D01*
X48712Y29200D02*
X49200D01*
X48712Y29100D02*
X49200D01*
X48712Y29000D02*
X49200D01*
X48712Y28900D02*
X49200D01*
X48712Y28800D02*
X49200D01*
X48712Y28700D02*
X49200D01*
X48712Y28600D02*
X49200D01*
X48712Y28500D02*
X49200D01*
X48712Y28400D02*
X49200D01*
X48712Y28300D02*
X49200D01*
X48712Y28200D02*
X49200D01*
X48712Y28100D02*
X49200D01*
X48712Y28000D02*
X49200D01*
X48500Y30532D02*
Y30732D01*
X48400Y30532D02*
Y30732D01*
X48300Y30532D02*
Y30732D01*
X48200Y30532D02*
Y30732D01*
X48100Y30532D02*
Y30732D01*
X48000Y30532D02*
Y30732D01*
X47900Y30532D02*
Y30732D01*
X47800Y30532D02*
Y30732D01*
X47700Y30532D02*
Y30732D01*
X47600Y30532D02*
Y30732D01*
X47500Y30532D02*
Y30732D01*
X47400Y30532D02*
Y30732D01*
X47300Y30532D02*
Y30732D01*
X47200Y30532D02*
Y30732D01*
X47100Y30532D02*
Y30732D01*
X47000Y30532D02*
Y30732D01*
X46900Y30532D02*
Y30732D01*
X46800Y30532D02*
Y30732D01*
X46700Y30532D02*
Y30732D01*
X47262Y28982D02*
Y30382D01*
Y28982D02*
X48562D01*
X46600Y30532D02*
Y30732D01*
X46500Y30532D02*
Y30732D01*
X46400Y30532D02*
Y30732D01*
X46300Y30532D02*
Y30732D01*
X46200Y30532D02*
Y30732D01*
X46100Y30532D02*
Y30732D01*
X46000Y30532D02*
Y30732D01*
X45900Y30532D02*
Y30732D01*
X48737Y27600D02*
X49200D01*
X48737Y27500D02*
X49200D01*
X48737Y27400D02*
X49200D01*
X48737Y27300D02*
X49200D01*
X48737Y27200D02*
X49200D01*
X48737Y27100D02*
X49200D01*
X48737Y27000D02*
X49200D01*
X48737Y26900D02*
X49200D01*
X48712Y27900D02*
X49200D01*
X48712Y27800D02*
X49200D01*
X48712Y27700D02*
X49200D01*
X48737Y26800D02*
X49200D01*
X48737Y26700D02*
X49200D01*
X48737Y26600D02*
X49200D01*
X48737Y26500D02*
X49200D01*
X48737Y26400D02*
X49200D01*
X48737Y26300D02*
X49200D01*
X48737Y26200D02*
X49200D01*
X48737Y26100D02*
X49200D01*
X48737Y26000D02*
X49200D01*
X48737Y25900D02*
X49200D01*
X48737Y25800D02*
X49200D01*
X48737Y25700D02*
X49200D01*
X48737Y25600D02*
X49200D01*
X48737Y25500D02*
X49200D01*
X48737Y25400D02*
X49200D01*
X48737Y25300D02*
X49200D01*
X48737Y25200D02*
X49200D01*
X48737Y25100D02*
X49200D01*
X48737Y25000D02*
X49200D01*
X48737Y24900D02*
X49200D01*
X48737Y24732D02*
Y27632D01*
Y24800D02*
X49200D01*
X48737Y24700D02*
X49200D01*
X48737Y24600D02*
X49200D01*
X48737Y24532D02*
Y24732D01*
Y24532D02*
Y24732D01*
X48712Y27632D02*
Y30532D01*
X48737Y24500D02*
X49200D01*
X48712Y27432D02*
Y27632D01*
X47287Y26082D02*
X48587D01*
X48737Y24400D02*
X49200D01*
X48737Y24300D02*
X49200D01*
X48737Y24200D02*
X49200D01*
X48737Y24100D02*
X49200D01*
X48737Y24000D02*
X49200D01*
X48737Y23900D02*
X49200D01*
X48737Y23800D02*
X49200D01*
X48737Y23700D02*
X49200D01*
X48737Y23600D02*
X49200D01*
X48737Y23500D02*
X49200D01*
X48737Y23400D02*
X49200D01*
X48737Y23300D02*
X49200D01*
X48737Y23200D02*
X49200D01*
X47287Y23182D02*
X48587D01*
X48737Y23100D02*
X49200D01*
X48737Y23000D02*
X49200D01*
X48737Y22900D02*
X49200D01*
X45800Y30532D02*
Y30732D01*
X45700Y30532D02*
Y30732D01*
X45600Y30532D02*
Y30732D01*
X45500Y30532D02*
Y30732D01*
X45400Y30532D02*
Y30732D01*
X45300Y30532D02*
Y30732D01*
X45200Y30532D02*
Y30732D01*
X45100Y30532D02*
Y30732D01*
X43062D02*
X45862D01*
X45000Y30532D02*
Y30732D01*
X44900Y30532D02*
Y30732D01*
X44800Y30532D02*
Y30732D01*
X44700Y30532D02*
Y30732D01*
X44600Y30532D02*
Y30732D01*
X44500Y30532D02*
Y30732D01*
X44400Y30532D02*
Y30732D01*
X44300Y30532D02*
Y30732D01*
X44200Y30532D02*
Y30732D01*
X44100Y30532D02*
Y30732D01*
X44000Y30532D02*
Y30732D01*
X43900Y30532D02*
Y30732D01*
X43800Y30532D02*
Y30732D01*
X43700Y30532D02*
Y30732D01*
X43600Y30532D02*
Y30732D01*
X34671Y30600D02*
X49200D01*
X43500Y30532D02*
Y30732D01*
X43400Y30532D02*
Y30732D01*
X43300Y30532D02*
Y30732D01*
X43012Y30532D02*
X45912D01*
X43200D02*
Y30732D01*
X43100Y30532D02*
Y30732D01*
X42100Y30543D02*
Y30743D01*
X42000Y30543D02*
Y30743D01*
X41900Y30543D02*
Y30743D01*
X41800Y30543D02*
Y30743D01*
X43012Y29843D02*
Y30532D01*
X41700Y30543D02*
Y30743D01*
X41600Y30543D02*
Y30743D01*
X39338D02*
X42138D01*
X41500Y30543D02*
Y30743D01*
X41400Y30543D02*
Y30743D01*
X41300Y30543D02*
Y30743D01*
X41200Y30543D02*
Y30743D01*
X39338Y30543D02*
X42138D01*
X41100D02*
Y30743D01*
X42138Y30500D02*
X43012D01*
X42138Y30400D02*
X43012D01*
X42138Y30300D02*
X43012D01*
X42138Y30200D02*
X43012D01*
X42167Y29843D02*
X43012D01*
X42202Y28143D02*
X43012D01*
X42138Y29873D02*
Y30543D01*
Y30100D02*
X43012D01*
X42138Y30000D02*
X43012D01*
X42138Y29900D02*
X43012D01*
X42138Y28000D02*
X43012D01*
X42138Y27900D02*
X43012D01*
X42138Y27800D02*
X43012D01*
X42138Y27700D02*
X43012D01*
Y27432D02*
Y28143D01*
X43037Y27432D02*
Y27632D01*
X43000Y26932D02*
Y28143D01*
X43037Y26932D02*
Y27432D01*
X42900Y26932D02*
Y28143D01*
X42800Y26932D02*
Y28143D01*
X42700Y26932D02*
Y28143D01*
X42600Y26932D02*
Y28143D01*
X42138Y27600D02*
X43012D01*
X42138Y27500D02*
X43012D01*
X36699Y27400D02*
X43037D01*
X36995Y27300D02*
X43037D01*
X37166Y27200D02*
X43037D01*
X37291Y27100D02*
X43037D01*
X42500Y26932D02*
Y28143D01*
X43037Y25012D02*
Y25232D01*
X43000Y25012D02*
Y25232D01*
X42900Y25012D02*
Y25232D01*
X42800Y25012D02*
Y25232D01*
X43037Y24732D02*
Y25012D01*
X43118Y24532D02*
Y24732D01*
X42700Y25012D02*
Y25232D01*
X37389Y27000D02*
X43037D01*
X37445Y26932D02*
X43037D01*
X37232Y25200D02*
X43037D01*
X37270Y25232D02*
X43037D01*
X37088Y25100D02*
X43037D01*
X40018Y25012D02*
X43037D01*
X42600D02*
Y25232D01*
X42400Y26932D02*
Y28143D01*
X42300Y26932D02*
Y28143D01*
X42138Y27443D02*
Y28077D01*
X42100Y26932D02*
Y27443D01*
X42000Y26932D02*
Y27443D01*
X41900Y26932D02*
Y27443D01*
X41800Y26932D02*
Y27443D01*
X41700Y26932D02*
Y27443D01*
X39338D02*
X42138D01*
X41600Y26932D02*
Y27443D01*
X41500Y26932D02*
Y27443D01*
X41400Y26932D02*
Y27443D01*
X41300Y26932D02*
Y27443D01*
X41200Y26932D02*
Y27443D01*
X41100Y26932D02*
Y27443D01*
X42500Y25012D02*
Y25232D01*
X42400Y25012D02*
Y25232D01*
X42300Y25012D02*
Y25232D01*
X42200Y25012D02*
Y25232D01*
X42100Y25012D02*
Y25232D01*
X42000Y25012D02*
Y25232D01*
X41900Y25012D02*
Y25232D01*
X41800Y25012D02*
Y25232D01*
X41700Y25012D02*
Y25232D01*
X41600Y25012D02*
Y25232D01*
X41500Y25012D02*
Y25232D01*
X41400Y25012D02*
Y25232D01*
X41300Y25012D02*
Y25232D01*
X41200Y25012D02*
Y25232D01*
X41000Y30543D02*
Y30743D01*
X40900Y30543D02*
Y30743D01*
X40800Y30543D02*
Y30743D01*
X40700Y30543D02*
Y30743D01*
X40600Y30543D02*
Y30743D01*
X40500Y30543D02*
Y30743D01*
X40400Y30543D02*
Y30743D01*
X40300Y30543D02*
Y30743D01*
X40200Y30543D02*
Y30743D01*
X40100Y30543D02*
Y30743D01*
X40000Y30543D02*
Y30743D01*
X39900Y30543D02*
Y30743D01*
X39800Y30543D02*
Y30743D01*
X39700Y30543D02*
Y30743D01*
X39600Y30543D02*
Y30743D01*
X39500Y30543D02*
Y30743D01*
X39400Y30543D02*
Y30743D01*
X39200Y30543D02*
Y30743D01*
X39100Y30543D02*
Y30743D01*
X39000Y30543D02*
Y30743D01*
X38900Y30543D02*
Y30743D01*
X38800Y30543D02*
Y30743D01*
X38700Y30543D02*
Y30743D01*
X36438D02*
X39238D01*
X38600Y30543D02*
Y30743D01*
X38500Y30543D02*
Y30743D01*
X38400Y30543D02*
Y30743D01*
X38300Y30543D02*
Y30743D01*
X36438Y30543D02*
X39238D01*
X38200D02*
Y30743D01*
X38100Y30543D02*
Y30743D01*
X38000Y30543D02*
Y30743D01*
X35515Y31443D02*
X36438D01*
Y30743D02*
Y31443D01*
X37900Y30543D02*
Y30743D01*
X37800Y30543D02*
Y30743D01*
X37700Y30543D02*
Y30743D01*
X37600Y30543D02*
Y30743D01*
X35471Y31400D02*
X36438D01*
X35371Y31300D02*
X36438D01*
X35271Y31200D02*
X36438D01*
X35171Y31100D02*
X36438D01*
X35071Y31000D02*
X36438D01*
X34971Y30900D02*
X36438D01*
X34871Y30800D02*
X36438D01*
X37500Y30543D02*
Y30743D01*
X37400Y30543D02*
Y30743D01*
X37300Y30543D02*
Y30743D01*
X37200Y30543D02*
Y30743D01*
X37100Y30543D02*
Y30743D01*
X37000Y30543D02*
Y30743D01*
X36900Y30543D02*
Y30743D01*
X36800Y30543D02*
Y30743D01*
X36700Y30543D02*
Y30743D01*
X36600Y30543D02*
Y30743D01*
X36500Y30543D02*
Y30743D01*
X34571Y30500D02*
X36438D01*
X34471Y30400D02*
X36438D01*
X34371Y30300D02*
X36438D01*
X36400Y29875D02*
Y31443D01*
X36438Y29875D02*
Y30543D01*
X36300Y29875D02*
Y31443D01*
X36200Y29875D02*
Y31443D01*
X36438Y27443D02*
Y28175D01*
X36400Y27424D02*
Y28175D01*
X36300Y27416D02*
Y28175D01*
X36200Y27400D02*
Y28175D01*
X36100Y29875D02*
Y31443D01*
X34271Y30200D02*
X36438D01*
X36000Y29875D02*
Y31443D01*
X35900Y29875D02*
Y31443D01*
X35800Y29875D02*
Y31443D01*
X36100Y27375D02*
Y28175D01*
X35700Y29875D02*
Y31443D01*
X41000Y26932D02*
Y27443D01*
X40900Y26932D02*
Y27443D01*
X40800Y26932D02*
Y27443D01*
X40700Y26932D02*
Y27443D01*
X40600Y26932D02*
Y27443D01*
X40500Y26932D02*
Y27443D01*
X40400Y26932D02*
Y27443D01*
X36000Y27341D02*
Y28175D01*
X40300Y26932D02*
Y27443D01*
X35900Y27297D02*
Y28175D01*
X35800Y27243D02*
Y28175D01*
X40200Y26932D02*
Y27443D01*
X40100Y26932D02*
Y27443D01*
X40000Y26932D02*
Y27443D01*
X35600Y29875D02*
Y31443D01*
X35500Y29875D02*
Y31429D01*
X35400Y29875D02*
Y31329D01*
X35300Y29875D02*
Y31229D01*
X35200Y29875D02*
Y31129D01*
X35700Y27175D02*
Y28175D01*
X35100Y29875D02*
Y31029D01*
X35000Y29875D02*
Y30929D01*
X34900Y29875D02*
Y30829D01*
X34800Y29875D02*
Y30729D01*
X34700Y29875D02*
Y30629D01*
X34600Y29875D02*
Y30529D01*
X34500Y29875D02*
Y30429D01*
X34400Y29875D02*
Y30329D01*
X34300Y29875D02*
Y30229D01*
X35600Y27091D02*
Y28175D01*
X35500Y26987D02*
Y28175D01*
X35400Y26853D02*
Y28175D01*
X35300Y26665D02*
Y28175D01*
X35200Y25255D02*
Y28175D01*
X35100Y25269D02*
Y28175D01*
X35000Y25275D02*
Y28175D01*
X34900Y25273D02*
Y28175D01*
X34800Y25263D02*
Y28175D01*
X34700Y25244D02*
Y28175D01*
X34600Y25217D02*
Y28175D01*
X34500Y25181D02*
Y28175D01*
X34400Y25135D02*
Y28175D01*
X34300Y25077D02*
Y28175D01*
X26208Y30269D02*
X26350Y30127D01*
X34200Y29875D02*
Y30129D01*
X26208Y30269D02*
X26350Y30127D01*
X26208Y30269D02*
X26350Y30127D01*
X33946Y29875D02*
X35515Y31443D01*
X26350Y30127D02*
X26809Y29668D01*
X26100Y29496D02*
Y30377D01*
X26200Y29534D02*
Y30277D01*
X25784Y30693D02*
X26208Y30269D01*
X25784Y30693D02*
X26208Y30269D01*
X23823Y30500D02*
X25977D01*
X23723Y30400D02*
X26077D01*
X23623Y30300D02*
X26177D01*
X23523Y30200D02*
X26277D01*
X26000Y29446D02*
Y30477D01*
X34171Y30100D02*
X36438D01*
X34071Y30000D02*
X36438D01*
X34100Y29875D02*
Y30029D01*
X33971Y29900D02*
X36438D01*
X33946Y29875D02*
X36438D01*
X26734Y29593D02*
X26809Y29668D01*
X26600Y29600D02*
Y29877D01*
X26700Y29596D02*
Y29777D01*
X26350Y30127D02*
X26809Y29668D01*
X26618Y29600D02*
X26741D01*
X23423Y30100D02*
X26377D01*
X23323Y30000D02*
X26477D01*
X26400Y29584D02*
Y30077D01*
X26500Y29596D02*
Y29977D01*
X26300Y29563D02*
Y30177D01*
X24900Y31577D02*
X25077Y31400D01*
X24723Y31400D02*
X25077D01*
X24723Y31400D02*
X24900Y31577D01*
X24823Y31500D02*
X24977D01*
X25077Y31400D02*
X25642Y30834D01*
X25784Y30693D01*
X25077Y31400D02*
X25642Y30834D01*
X25600Y29100D02*
Y30877D01*
X24423Y31100D02*
X25377D01*
X24323Y31000D02*
X25477D01*
X24623Y31300D02*
X25177D01*
X24523Y31200D02*
X25277D01*
X24158Y30834D02*
X24723Y31400D01*
X24223Y30900D02*
X25577D01*
X23592Y30269D02*
X24723Y31400D01*
X25642Y30834D02*
X25784Y30693D01*
X25642Y30834D02*
X25784Y30693D01*
X24123Y30800D02*
X25677D01*
X24016Y30693D02*
X24158Y30834D01*
X25800Y29310D02*
Y30677D01*
X25900Y29385D02*
Y30577D01*
X25700Y29217D02*
Y30777D01*
X24023Y30700D02*
X25777D01*
X23923Y30600D02*
X25877D01*
X24016Y30693D02*
X24158Y30834D01*
X23592Y30269D02*
X24016Y30693D01*
X23450Y30127D02*
X23592Y30269D01*
X23450Y30127D02*
X23592Y30269D01*
X23450Y30127D02*
X23592Y30269D01*
X34200Y25006D02*
Y28175D01*
X33700Y27302D02*
Y28175D01*
X33600Y27402D02*
Y28175D01*
X33500Y27502D02*
Y28175D01*
X34100Y24918D02*
Y28175D01*
X34000Y24807D02*
Y28175D01*
X33900Y24663D02*
Y28175D01*
X33800Y24451D02*
Y28175D01*
X33378D02*
X36438D01*
X33302Y28100D02*
X36438D01*
X33102Y27900D02*
X33378Y28175D01*
X33202Y28000D02*
X36438D01*
X33400Y27602D02*
Y28175D01*
X33300Y27702D02*
Y28097D01*
X33200Y27802D02*
Y27997D01*
X33102Y27900D02*
X36438D01*
X33202Y27800D02*
X36438D01*
X33302Y27700D02*
X36438D01*
X33402Y27600D02*
X36438D01*
X33138Y27865D02*
X33703Y27299D01*
X28900Y23273D02*
Y27577D01*
X28800Y23173D02*
Y27677D01*
X27668Y27700D02*
X28777D01*
X27600Y27600D02*
X28877D01*
X28471Y28006D02*
X28612Y27865D01*
X27723Y27800D02*
X28677D01*
X28471Y28006D02*
X29037Y27440D01*
X28471Y28006D02*
X29037Y27440D01*
X28700Y23073D02*
Y27777D01*
X25400Y28699D02*
Y31077D01*
X25500Y28943D02*
Y30977D01*
X24200Y23171D02*
Y30877D01*
X24100Y23209D02*
Y30777D01*
X24600Y22892D02*
Y31277D01*
X24500Y22985D02*
Y31177D01*
X24400Y23061D02*
Y31077D01*
X24300Y23122D02*
Y30977D01*
X23900Y23259D02*
Y30577D01*
X23600Y23569D02*
Y30277D01*
X23500Y23725D02*
Y30177D01*
X23400Y23843D02*
Y30077D01*
X24000Y23238D02*
Y30677D01*
X23800Y23271D02*
Y30477D01*
X23700Y23325D02*
Y30377D01*
X28011Y28466D02*
X28471Y28006D01*
X27849Y28300D02*
X28177D01*
X27849Y28304D02*
X28011Y28466D01*
X27946Y28400D02*
X28077D01*
X28047Y28430D02*
X28471Y28006D01*
X28600Y22973D02*
Y27877D01*
X28500Y22873D02*
Y27977D01*
X27800Y28000D02*
X28477D01*
X27766Y27900D02*
X28577D01*
X27841Y28200D02*
X28277D01*
X27825Y28100D02*
X28377D01*
X23300Y23936D02*
Y29977D01*
X23200Y24011D02*
Y29877D01*
X39900Y26932D02*
Y27443D01*
X39800Y26932D02*
Y27443D01*
X39700Y26932D02*
Y27443D01*
X39600Y26932D02*
Y27443D01*
X39500Y26932D02*
Y27443D01*
X39400Y26932D02*
Y27443D01*
X39200Y26932D02*
Y27443D01*
X39100Y26932D02*
Y27443D01*
X36438D02*
X39238D01*
X39000Y26932D02*
Y27443D01*
X38900Y26932D02*
Y27443D01*
X38800Y26932D02*
Y27443D01*
X38700Y26932D02*
Y27443D01*
X38600Y26932D02*
Y27443D01*
X38500Y26932D02*
Y27443D01*
X41100Y25012D02*
Y25232D01*
X41000Y25012D02*
Y25232D01*
X40900Y25012D02*
Y25232D01*
X40800Y25012D02*
Y25232D01*
X40700Y25012D02*
Y25232D01*
X40600Y25012D02*
Y25232D01*
X40500Y25012D02*
Y25232D01*
X40400Y25012D02*
Y25232D01*
X38400Y26932D02*
Y27443D01*
X40300Y25012D02*
Y25232D01*
X38300Y26932D02*
Y27443D01*
X38200Y26932D02*
Y27443D01*
X40200Y25012D02*
Y25232D01*
X40100Y25012D02*
Y25232D01*
X36876Y25000D02*
X40018D01*
X38100Y26932D02*
Y27443D01*
X38000Y26932D02*
Y27443D01*
X37900Y26932D02*
Y27443D01*
X37800Y26932D02*
Y27443D01*
X37700Y26932D02*
Y27443D01*
X37600Y26932D02*
Y27443D01*
X37500Y26932D02*
Y27443D01*
X37400Y26988D02*
Y27443D01*
X37100Y27243D02*
Y27443D01*
X37000Y27298D02*
Y27443D01*
X36900Y27341D02*
Y27443D01*
X33502Y27500D02*
X36438D01*
X37300Y27092D02*
Y27443D01*
X37200Y27175D02*
Y27443D01*
X33500Y27095D02*
Y27502D01*
X35600Y25108D02*
Y25259D01*
X35613Y25100D02*
X35812D01*
X35400Y25201D02*
Y25497D01*
X35500Y25159D02*
Y25363D01*
X35800Y24964D02*
Y25107D01*
X35757Y25000D02*
X36024D01*
X35700Y25043D02*
Y25175D01*
X33602Y27400D02*
X36201D01*
X33702Y27300D02*
X35905D01*
X33600Y27195D02*
Y27402D01*
X33605Y27200D02*
X35734D01*
X35402Y25200D02*
X35668D01*
X35300Y25232D02*
Y25685D01*
X40000Y24412D02*
Y25232D01*
X39900Y24412D02*
Y25232D01*
X39800Y24412D02*
Y25232D01*
X39700Y24412D02*
Y25232D01*
X39600Y24412D02*
Y25232D01*
X39500Y24412D02*
Y25232D01*
X39400Y24412D02*
Y25232D01*
X39300Y24412D02*
Y25232D01*
X39200Y24412D02*
Y25232D01*
X39100Y24412D02*
Y25232D01*
X39000Y24412D02*
Y25232D01*
X38900Y24412D02*
Y25232D01*
X38800Y24412D02*
Y25232D01*
X38700Y24412D02*
Y25232D01*
X38600Y24412D02*
Y25232D01*
X38500Y24412D02*
Y25232D01*
X40018Y24412D02*
Y25012D01*
X38400Y24412D02*
Y25232D01*
X38300Y24412D02*
Y25232D01*
X38200Y24412D02*
Y25232D01*
X38100Y24412D02*
Y25232D01*
X38000Y24412D02*
Y25232D01*
X35868Y24900D02*
X40018D01*
X35956Y24800D02*
X40018D01*
X36027Y24700D02*
X40018D01*
X36085Y24600D02*
X40018D01*
X36131Y24500D02*
X40018D01*
X36163Y24412D02*
X40018D01*
X37900D02*
Y25232D01*
X37800Y24412D02*
Y25232D01*
X37700Y24412D02*
Y25232D01*
X37600Y24412D02*
Y25232D01*
X37500Y24412D02*
Y25232D01*
X37400Y24412D02*
Y25232D01*
X37300Y24412D02*
Y25232D01*
X37200Y24412D02*
Y25175D01*
X37100Y24412D02*
Y25107D01*
X37000Y24412D02*
Y25052D01*
X36900Y24412D02*
Y25009D01*
X35900Y24866D02*
Y25053D01*
X36800Y24412D02*
Y24975D01*
X33700Y23555D02*
Y27295D01*
X33600Y23655D02*
Y27195D01*
X36700Y24412D02*
Y24950D01*
X36600Y24412D02*
Y24934D01*
X36100Y24570D02*
Y24975D01*
X36500Y24412D02*
Y24926D01*
X36400Y24412D02*
Y24926D01*
X36300Y24412D02*
Y24934D01*
X36200Y24412D02*
Y24950D01*
X36000Y24741D02*
Y25009D01*
X33655Y23600D02*
X33800D01*
X33800Y23384D02*
Y23599D01*
X33684Y23500D02*
X33841D01*
X33668Y23516D02*
X34034Y23150D01*
X33784Y23400D02*
X33893D01*
X33900Y23284D02*
Y23387D01*
X33505Y27100D02*
X35609D01*
X33405Y27000D02*
X35511D01*
X33305Y26900D02*
X35432D01*
X33205Y26800D02*
X35367D01*
X33105Y26700D02*
X35316D01*
X33005Y26600D02*
X35274D01*
X32905Y26500D02*
X35243D01*
X32805Y26400D02*
X35220D01*
X32705Y26300D02*
X35206D01*
X32605Y26200D02*
X35200D01*
X32505Y26100D02*
X35202D01*
X32405Y26000D02*
X35212D01*
X31830Y25425D02*
X33703Y27299D01*
X32500Y24755D02*
Y26095D01*
X32400Y24855D02*
Y25995D01*
X32305Y25900D02*
X35231D01*
X32205Y25800D02*
X35258D01*
X32200Y25055D02*
Y25795D01*
X32255Y25000D02*
X34193D01*
X32355Y24900D02*
X34082D01*
X32455Y24800D02*
X33994D01*
X32300Y24955D02*
Y25895D01*
X31905Y25500D02*
X35398D01*
X31855Y25400D02*
X35469D01*
X32105Y25700D02*
X35294D01*
X32005Y25600D02*
X35340D01*
X31955Y25300D02*
X35557D01*
X32055Y25200D02*
X34548D01*
X32155Y25100D02*
X34337D01*
X29602Y26875D02*
X29744Y26733D01*
X29602Y26875D02*
X29744Y26733D01*
X29178Y27299D02*
X29602Y26875D01*
X29178Y27299D02*
X29602Y26875D01*
X29744Y26733D02*
X30168Y26309D01*
X30309Y26167D01*
X29602Y26875D02*
X29744Y26733D01*
X30168Y26309D01*
X29037Y27440D02*
X29178Y27299D01*
X29037Y27440D02*
X29178Y27299D01*
X27517Y27500D02*
X28977D01*
X27412Y27400D02*
X29077D01*
X29037Y27440D02*
X29178Y27299D01*
X27090Y27200D02*
X29277D01*
X27278Y27300D02*
X29177D01*
X32000Y25255D02*
Y25595D01*
X31900Y25355D02*
Y25495D01*
X30875Y25602D02*
X31052Y25425D01*
X31000Y25373D02*
Y25477D01*
X32100Y25155D02*
Y25695D01*
X30900Y25273D02*
Y25577D01*
X30800Y25173D02*
Y25677D01*
X30309Y26167D02*
X30875Y25602D01*
X30309Y26167D02*
X30875Y25602D01*
X30168Y26309D02*
X30309Y26167D01*
X30168Y26309D02*
X30309Y26167D01*
X30600Y24973D02*
Y25877D01*
X30700Y25073D02*
Y25777D01*
X30500Y24873D02*
Y25977D01*
X33100Y24155D02*
Y26695D01*
X33000Y24255D02*
Y26595D01*
X32900Y24355D02*
Y26495D01*
X32800Y24455D02*
Y26395D01*
X33500Y23755D02*
Y27095D01*
X33400Y23855D02*
Y26995D01*
X33300Y23955D02*
Y26895D01*
X33200Y24055D02*
Y26795D01*
X30309Y24683D02*
X31052Y25425D01*
X30309Y24683D02*
X30875Y25248D01*
X30300Y24673D02*
Y26177D01*
X30400Y24773D02*
Y26077D01*
X32700Y24555D02*
Y26295D01*
X31830Y25425D02*
X33703Y23551D01*
X32600Y24655D02*
Y26195D01*
X32955Y24300D02*
X33756D01*
X33055Y24200D02*
X33737D01*
X33155Y24100D02*
X33727D01*
X33255Y24000D02*
X33725D01*
X33355Y23900D02*
X33731D01*
X33555Y23700D02*
X33768D01*
X33455Y23800D02*
X33745D01*
X32555Y24700D02*
X33923D01*
X32655Y24600D02*
X33865D01*
X30168Y24541D02*
X30309Y24683D01*
X32755Y24500D02*
X33819D01*
X30168Y24541D02*
X30309Y24683D01*
X32855Y24400D02*
X33783D01*
X29037Y23410D02*
X30309Y24683D01*
X30100Y24473D02*
Y26377D01*
X30200Y24573D02*
Y26277D01*
X29900Y24273D02*
Y26577D01*
X30000Y24373D02*
Y26477D01*
X29700Y24073D02*
Y26777D01*
X29800Y24173D02*
Y26677D01*
X29500Y23873D02*
Y26977D01*
X29600Y23973D02*
Y26877D01*
X23216Y24000D02*
X29627D01*
X23341Y23900D02*
X29527D01*
X29300Y23673D02*
Y27177D01*
X29400Y23773D02*
Y27077D01*
X29100Y23473D02*
Y27377D01*
X29200Y23573D02*
Y27277D01*
X29000Y23373D02*
Y27477D01*
X29037Y23410D02*
X29178Y23551D01*
X29037Y23410D02*
X29178Y23551D01*
X24338Y23100D02*
X28727D01*
X24482Y23000D02*
X28627D01*
X28612Y22985D02*
X29037Y23410D01*
X28471Y22844D02*
X28612Y22985D01*
X24593Y22900D02*
X28527D01*
X23439Y23800D02*
X29427D01*
X23518Y23700D02*
X29327D01*
X23583Y23600D02*
X29227D01*
X23634Y23500D02*
X29127D01*
X23676Y23400D02*
X29027D01*
X23707Y23300D02*
X28927D01*
X24126Y23200D02*
X28827D01*
X48737Y22800D02*
X49200D01*
X48737Y22700D02*
X49200D01*
X48737Y22600D02*
X49200D01*
X48737Y22500D02*
X49200D01*
X48737Y22400D02*
X49200D01*
X48737Y22300D02*
X49200D01*
X48737Y22200D02*
X49200D01*
X48737Y22100D02*
X49200D01*
X48737Y22000D02*
X49200D01*
X48737Y21900D02*
X49200D01*
X48737Y21800D02*
X49200D01*
X48737Y21700D02*
X49200D01*
X48712Y21600D02*
X49200D01*
X48712Y21500D02*
X49200D01*
X48712Y21400D02*
X49200D01*
X48712Y21300D02*
X49200D01*
X48712Y21200D02*
X49200D01*
X48712Y21100D02*
X49200D01*
X48712Y21000D02*
X49200D01*
X48712Y20900D02*
X49200D01*
X48712Y20800D02*
X49200D01*
X48712Y20700D02*
X49200D01*
X48712Y20600D02*
X49200D01*
X48712Y20500D02*
X49200D01*
X48712Y20400D02*
X49200D01*
X48712Y20300D02*
X49200D01*
X48712Y20200D02*
X49200D01*
X48712Y20100D02*
X49200D01*
X48712Y20000D02*
X49200D01*
X48712Y19900D02*
X49200D01*
X48730Y19300D02*
X49200D01*
X48730Y19200D02*
X49200D01*
X48737Y21632D02*
Y24532D01*
X48730Y19100D02*
X49200D01*
X48730Y19000D02*
X49200D01*
X48730Y18900D02*
X49200D01*
X48800Y17860D02*
Y34139D01*
X48730Y18045D02*
Y19350D01*
X48712Y19800D02*
X49200D01*
X48712Y19700D02*
X49200D01*
X48712Y21632D02*
Y21882D01*
Y19600D02*
X49200D01*
X48712Y19500D02*
X49200D01*
X48712Y19400D02*
X49200D01*
X48712Y19350D02*
Y21632D01*
X48730Y18800D02*
X49200D01*
X48730Y18700D02*
X49200D01*
X48730Y18600D02*
X49200D01*
X48730Y18500D02*
X49200D01*
X48813Y17800D02*
X49200D01*
X48824Y17700D02*
X49200D01*
X48825Y17600D02*
X49200D01*
X48730Y18400D02*
X49200D01*
X48730Y18300D02*
X49200D01*
X48730Y18200D02*
X49200D01*
X48730Y18100D02*
X49200D01*
X48752Y18000D02*
X49200D01*
X48789Y17900D02*
X49200D01*
X48825Y17500D02*
X49200D01*
X48825Y17400D02*
X49200D01*
X48825Y17300D02*
X49200D01*
X48825Y17200D02*
X49200D01*
X48825Y17100D02*
X49200D01*
X48825Y17000D02*
X49200D01*
X48825Y16900D02*
X49200D01*
X48825Y16800D02*
X49200D01*
X48825Y16700D02*
X49200D01*
X48825Y16600D02*
X49200D01*
X48825Y16500D02*
X49200D01*
X48825Y16400D02*
X49200D01*
X48825Y16300D02*
X49200D01*
X48825Y16200D02*
X49200D01*
X48825Y16100D02*
X49200D01*
X48841Y16000D02*
X49200D01*
X48900Y15800D02*
X49200D01*
X48916Y15700D02*
X49200D01*
X48924Y15600D02*
X49200D01*
X48924Y15500D02*
X49200D01*
X48916Y15400D02*
X49200D01*
X48900Y15300D02*
X49200D01*
X48875Y15900D02*
X49200D01*
X48875Y15200D02*
X49200D01*
X48841Y15100D02*
X49200D01*
X48797Y15000D02*
X49200D01*
X48743Y14900D02*
X49200D01*
X48675Y14800D02*
X49200D01*
X48591Y14700D02*
X49200D01*
X49200Y800D02*
Y34749D01*
X48900Y15800D02*
Y34232D01*
X48825Y16040D02*
Y17655D01*
X49200Y800D02*
Y34750D01*
X49100Y800D02*
Y34506D01*
X49000Y800D02*
Y34350D01*
X48900Y800D02*
Y15300D01*
X48487Y14600D02*
X49200D01*
X48353Y14500D02*
X49200D01*
X48700Y13650D02*
Y14834D01*
X48800Y800D02*
Y15005D01*
X48600Y13650D02*
Y14709D01*
X48500Y13650D02*
Y14611D01*
X48400Y13650D02*
Y14532D01*
X48165Y14400D02*
X49200D01*
X48300Y13650D02*
Y14467D01*
X48200Y13650D02*
Y14416D01*
X48100Y13650D02*
Y14374D01*
X48730Y10650D02*
Y13650D01*
X48000D02*
Y14343D01*
X47900Y13650D02*
Y14320D01*
X47800Y13650D02*
Y14306D01*
X47700Y13650D02*
Y14300D01*
X47600Y13650D02*
Y14302D01*
X47500Y13650D02*
Y14312D01*
X47460Y13650D02*
X48730D01*
X47400D02*
Y14331D01*
X47262Y20332D02*
X48562D01*
X46456Y16350D02*
X46715D01*
X43012Y19312D02*
Y19482D01*
X46510Y16500D02*
Y17850D01*
X46493Y16300D02*
X46675D01*
X46600Y16188D02*
Y16350D01*
X41250Y19300D02*
X43012D01*
X41241Y19312D02*
X43012D01*
X41318Y19200D02*
X43012D01*
X41373Y19100D02*
X43012D01*
X41416Y19000D02*
X43012D01*
X41450Y18900D02*
X43012D01*
X46368Y14700D02*
X46759D01*
X46257Y14600D02*
X46863D01*
X46456Y14800D02*
X46675D01*
X45901Y14400D02*
X47185D01*
X46113Y14500D02*
X46997D01*
X44640D02*
X44837D01*
X44470Y14400D02*
X45049D01*
X42537Y14500D02*
X43210D01*
X42512Y14400D02*
X43380D01*
X44173Y14300D02*
X49200D01*
X42512Y14200D02*
X49200D01*
X42512Y14300D02*
X43677D01*
X43012Y18782D02*
Y19312D01*
X43020Y18782D02*
Y19312D01*
X41475Y18800D02*
X43012D01*
X41491Y18700D02*
X43020D01*
X41499Y18600D02*
X43020D01*
X41499Y18500D02*
X43020D01*
Y16387D02*
Y18782D01*
X41491Y18400D02*
X43020D01*
X41475Y18300D02*
X43020D01*
X41450Y18200D02*
X43020D01*
X41416Y18100D02*
X43020D01*
X41372Y18000D02*
X43020D01*
X41318Y17900D02*
X43020D01*
X41250Y17800D02*
X43020D01*
X41166Y17700D02*
X43020D01*
X42537Y17500D02*
X43020D01*
X42537Y17400D02*
X43020D01*
X42537Y17300D02*
X43020D01*
X42537Y17200D02*
X43020D01*
X42537Y17100D02*
X43020D01*
X42537Y17000D02*
X43020D01*
X42537Y16900D02*
X43020D01*
X41062Y17600D02*
X43020D01*
X42537Y16800D02*
X43020D01*
X42537Y16700D02*
X43020D01*
X42537Y16600D02*
X43020D01*
X42537Y16500D02*
X43020D01*
X42537Y16400D02*
X43020D01*
X42537Y14600D02*
X43084D01*
X47200Y13650D02*
Y14394D01*
X47300Y13650D02*
Y14358D01*
X47000Y13650D02*
Y14498D01*
X47100Y13650D02*
Y14440D01*
X46800Y13650D02*
Y14657D01*
X46900Y13650D02*
Y14569D01*
X46600Y13650D02*
Y14912D01*
X46700Y13650D02*
Y14768D01*
X46500Y13650D02*
Y14859D01*
X46400Y13650D02*
Y14734D01*
X46300Y13650D02*
Y14636D01*
X46200Y13650D02*
Y14557D01*
X46100Y13650D02*
Y14492D01*
X46000Y13650D02*
Y14441D01*
X45900Y13650D02*
Y14399D01*
X46830Y13650D02*
X47460D01*
X46830D02*
X47460D01*
X45800D02*
Y14368D01*
X46190Y13650D02*
X46830D01*
X45700D02*
Y14345D01*
X45560Y13650D02*
X46190D01*
X45600D02*
Y14331D01*
X42512Y14100D02*
X49200D01*
X42512Y14000D02*
X49200D01*
X42512Y13900D02*
X49200D01*
X42512Y13800D02*
X49200D01*
X42512Y13700D02*
X49200D01*
X45560Y13650D02*
X46190D01*
X44920D02*
X45560D01*
X45500D02*
Y14325D01*
X45400Y13650D02*
Y14327D01*
X45300Y13650D02*
Y14337D01*
X45200Y13650D02*
Y14356D01*
X45100Y13650D02*
Y14383D01*
X45000Y13650D02*
Y14419D01*
X44900Y13650D02*
Y14465D01*
X44800Y13650D02*
Y14523D01*
X44700Y13650D02*
Y14544D01*
X44600Y13650D02*
Y14473D01*
X44500Y13650D02*
Y14415D01*
X43400Y13650D02*
Y14391D01*
X43200Y13650D02*
Y14507D01*
X43300Y13650D02*
Y14443D01*
X43100Y13650D02*
Y14586D01*
X44290Y13650D02*
X44920D01*
X44290D02*
X44920D01*
X44400D02*
Y14369D01*
X44300Y13650D02*
Y14333D01*
X44200Y13650D02*
Y14306D01*
X44100Y13650D02*
Y14287D01*
X44000Y13650D02*
Y14277D01*
X43900Y13650D02*
Y14275D01*
X43800Y13650D02*
Y14281D01*
X43700Y13650D02*
Y14295D01*
X43600Y13650D02*
Y14318D01*
X43500Y13650D02*
Y14350D01*
X43020Y13650D02*
X44290D01*
X43020Y11518D02*
Y13650D01*
X48730Y13600D02*
X49200D01*
X48730Y13500D02*
X49200D01*
X48730Y13400D02*
X49200D01*
X48730Y13300D02*
X49200D01*
X48730Y13200D02*
X49200D01*
X48730Y13100D02*
X49200D01*
X48730Y13000D02*
X49200D01*
X48730Y12900D02*
X49200D01*
X48730Y12800D02*
X49200D01*
X48730Y12700D02*
X49200D01*
X48730Y12600D02*
X49200D01*
X48730Y12500D02*
X49200D01*
X48730Y12400D02*
X49200D01*
X48730Y12300D02*
X49200D01*
X48730Y12200D02*
X49200D01*
X48730Y12100D02*
X49200D01*
X48730Y12000D02*
X49200D01*
X48730Y11900D02*
X49200D01*
X48730Y11800D02*
X49200D01*
X48730Y11700D02*
X49200D01*
X48730Y11600D02*
X49200D01*
X48730Y11500D02*
X49200D01*
X48730Y11400D02*
X49200D01*
X48730Y11300D02*
X49200D01*
X48730Y11200D02*
X49200D01*
X48730Y11100D02*
X49200D01*
X48730Y11000D02*
X49200D01*
X48730Y10900D02*
X49200D01*
X48730Y10800D02*
X49200D01*
X48730Y10700D02*
X49200D01*
X48413Y10600D02*
X49200D01*
X48413Y10500D02*
X49200D01*
X48413Y10650D02*
X48730D01*
X48413Y10400D02*
X49200D01*
X48413Y10300D02*
X49200D01*
X48413Y10200D02*
X49200D01*
X48413Y8418D02*
Y10650D01*
Y10100D02*
X49200D01*
X48413Y10000D02*
X49200D01*
X48413Y9900D02*
X49200D01*
X47780Y12150D02*
Y13500D01*
Y12150D02*
X48580D01*
X48413Y9800D02*
X49200D01*
X48413Y9700D02*
X49200D01*
X48413Y9600D02*
X49200D01*
X48413Y9500D02*
X49200D01*
X48413Y9400D02*
X49200D01*
X48413Y9300D02*
X49200D01*
X48413Y9200D02*
X49200D01*
X48413Y9100D02*
X49200D01*
X48413Y9000D02*
X49200D01*
X48413Y8900D02*
X49200D01*
X48413Y8800D02*
X49200D01*
X48413Y8700D02*
X49200D01*
X48413Y8600D02*
X49200D01*
X48413Y8500D02*
X49200D01*
X46402Y8400D02*
X49200D01*
X46302Y8300D02*
X49200D01*
X46420Y8418D02*
X48413D01*
X46492Y2800D02*
X49200D01*
X46588Y2600D02*
X49200D01*
X46622Y2500D02*
X49200D01*
X46647Y2400D02*
X49200D01*
X48700Y800D02*
Y10650D01*
X48600Y800D02*
Y10650D01*
X48500Y800D02*
Y10650D01*
X48400Y800D02*
Y8418D01*
X46202Y8200D02*
X49200D01*
X46102Y8100D02*
X49200D01*
X46146Y3200D02*
X49200D01*
X46260Y3100D02*
X49200D01*
X46352Y3000D02*
X49200D01*
X46429Y2900D02*
X49200D01*
X46545Y2700D02*
X49200D01*
X46666Y2300D02*
X49200D01*
X46676Y2200D02*
X49200D01*
X46680Y2100D02*
X49200D01*
X46676Y2000D02*
X49200D01*
X46666Y1900D02*
X49200D01*
X46647Y1800D02*
X49200D01*
X46622Y1700D02*
X49200D01*
X46588Y1600D02*
X49200D01*
X46545Y1500D02*
X49200D01*
X46492Y1400D02*
X49200D01*
X46429Y1300D02*
X49200D01*
X46352Y1200D02*
X49200D01*
X46260Y1100D02*
X49200D01*
X46146Y1000D02*
X49200D01*
X48300Y800D02*
Y8418D01*
X48200Y800D02*
Y8418D01*
X48100Y800D02*
Y8418D01*
X48000Y800D02*
Y8418D01*
X47900Y800D02*
Y8418D01*
X47800Y800D02*
Y8418D01*
X47700Y800D02*
Y8418D01*
X47600Y800D02*
Y8418D01*
X47500Y800D02*
Y8418D01*
X47400Y800D02*
Y8418D01*
X47300Y800D02*
Y8418D01*
X47200Y800D02*
Y8418D01*
X47100Y800D02*
Y8418D01*
X47000Y800D02*
Y8418D01*
X46900Y800D02*
Y8418D01*
X46800Y800D02*
Y8418D01*
X46600Y2567D02*
Y8418D01*
X46500Y2787D02*
Y8418D01*
X46400Y2940D02*
Y8398D01*
X46700Y800D02*
Y8418D01*
X46600Y800D02*
Y1633D01*
X46500Y800D02*
Y1413D01*
X46300Y3059D02*
Y8298D01*
X46400Y800D02*
Y1260D01*
X46200Y3155D02*
Y8198D01*
X46100Y3235D02*
Y8098D01*
X46300Y800D02*
Y1141D01*
X46200Y800D02*
Y1045D01*
X46100Y800D02*
Y965D01*
X46002Y8000D02*
X49200D01*
X45902Y7900D02*
X49200D01*
X45802Y7800D02*
X49200D01*
X45702Y7700D02*
X49200D01*
X45602Y7600D02*
X49200D01*
X45502Y7500D02*
X49200D01*
X45402Y7400D02*
X49200D01*
X45350Y7300D02*
X49200D01*
X45350Y7200D02*
X49200D01*
X45350Y7100D02*
X49200D01*
X45350Y7000D02*
X49200D01*
X45350Y6900D02*
X49200D01*
X45350Y6800D02*
X49200D01*
X45344Y6700D02*
X49200D01*
X45326Y6600D02*
X49200D01*
X45295Y6500D02*
X49200D01*
X45250Y6400D02*
X49200D01*
X45187Y6300D02*
X49200D01*
X45102Y6200D02*
X49200D01*
X45002Y6100D02*
X49200D01*
X44902Y6000D02*
X49200D01*
X44802Y5900D02*
X49200D01*
X44702Y5800D02*
X49200D01*
X44602Y5700D02*
X49200D01*
X44502Y5600D02*
X49200D01*
X44402Y5500D02*
X49200D01*
X44302Y5400D02*
X49200D01*
X44232Y5300D02*
X49200D01*
X44252Y5200D02*
X49200D01*
X42512Y13600D02*
X43020D01*
X42512Y13500D02*
X43020D01*
X42512Y13400D02*
X43020D01*
X42512Y13300D02*
X43020D01*
X42512Y13200D02*
X43020D01*
X42512Y13100D02*
X43020D01*
X42512Y13000D02*
X43020D01*
X42512Y12900D02*
X43020D01*
X42512Y12800D02*
X43020D01*
X42512Y12700D02*
X43020D01*
X42512Y12600D02*
X43020D01*
X42512Y12500D02*
X43020D01*
X42512Y12400D02*
X43020D01*
X42512Y12300D02*
X43020D01*
X42512Y12200D02*
X43020D01*
X45350Y7348D02*
X46420Y8418D01*
X45350Y6800D02*
Y7348D01*
X44266Y5100D02*
X49200D01*
X44273Y5000D02*
X49200D01*
X44226Y5324D02*
X45101Y6199D01*
X42512Y12100D02*
X43020D01*
X42512Y12000D02*
X43020D01*
X42512Y11900D02*
X43020D01*
X42512Y11800D02*
X43020D01*
X42512Y11700D02*
X43020D01*
X42462Y11600D02*
X43020D01*
X42713Y11518D02*
X43020D01*
X45600Y3463D02*
Y7598D01*
X45500Y3483D02*
Y7498D01*
X45400Y3495D02*
Y7398D01*
X45300Y3500D02*
Y6512D01*
X46000Y3301D02*
Y7998D01*
X45900Y3355D02*
Y7898D01*
X45800Y3400D02*
Y7798D01*
X45700Y3436D02*
Y7698D01*
X44275Y4900D02*
X49200D01*
X44270Y4800D02*
X49200D01*
X44260Y4700D02*
X49200D01*
X44243Y4600D02*
X49200D01*
X44219Y4500D02*
X49200D01*
X44189Y4400D02*
X49200D01*
X44152Y4300D02*
X49200D01*
X44107Y4200D02*
X49200D01*
X45295Y3500D02*
X49200D01*
X45800Y3400D02*
X49200D01*
X46001Y3300D02*
X49200D01*
X46001Y900D02*
X49200D01*
X45800Y800D02*
X49200D01*
X44054Y4100D02*
X49200D01*
X43991Y4000D02*
X49200D01*
X43918Y3900D02*
X49200D01*
X43832Y3800D02*
X49200D01*
X43730Y3700D02*
X49200D01*
X43608Y3600D02*
X49200D01*
X45200Y3498D02*
Y6318D01*
X45100Y3488D02*
Y6198D01*
X45000Y3472D02*
Y6098D01*
X44900Y3447D02*
Y5998D01*
X44800Y3415D02*
Y5898D01*
X44700Y3374D02*
Y5798D01*
X44600Y3324D02*
Y5698D01*
X44500Y3262D02*
Y5598D01*
X44400Y3189D02*
Y5498D01*
X44300Y3100D02*
Y5398D01*
X44200Y2991D02*
Y4433D01*
X44100Y2853D02*
Y4185D01*
X44000Y2711D02*
Y4013D01*
X43720Y3100D02*
X44300D01*
X43812Y3000D02*
X44208D01*
X43800Y3015D02*
Y3766D01*
X43700Y3119D02*
Y3673D01*
X43889Y2900D02*
X44131D01*
X43952Y2800D02*
X44068D01*
X43900Y2884D02*
Y3877D01*
X43590Y3500D02*
X45265D01*
X43590Y3400D02*
X44760D01*
X43600Y3205D02*
Y3594D01*
X43590Y3300D02*
X44559D01*
X43606Y3200D02*
X44414D01*
X43590Y3212D02*
Y3587D01*
X42500Y17557D02*
Y19312D01*
X42400Y17557D02*
Y19312D01*
X42300Y17557D02*
Y19312D01*
X42200Y17557D02*
Y19312D01*
X43000Y16366D02*
Y19312D01*
X42900Y16240D02*
Y19312D01*
X42800Y16070D02*
Y19312D01*
X42100Y17557D02*
Y19312D01*
X42000Y17557D02*
Y19312D01*
X41900Y17557D02*
Y19312D01*
X41500Y18570D02*
Y19312D01*
X41800Y17557D02*
Y19312D01*
X41700Y17557D02*
Y19312D01*
X41600Y17557D02*
Y19312D01*
X41400Y19040D02*
Y19312D01*
X41500Y17557D02*
Y18530D01*
X41400Y17557D02*
Y18060D01*
X41300Y17557D02*
Y17872D01*
X42537Y16300D02*
X42944D01*
X42537Y16200D02*
X42873D01*
X41200Y17557D02*
Y17737D01*
X42537Y16100D02*
X42815D01*
X41009Y17557D02*
X42537D01*
X30125Y17867D02*
X31831Y16161D01*
X29633Y16300D02*
X31692D01*
X41087Y16007D02*
Y17407D01*
Y16007D02*
X42387D01*
X31700Y16016D02*
Y16292D01*
X30700Y16032D02*
Y17292D01*
X30800Y16032D02*
Y17192D01*
X30125Y17144D02*
Y17867D01*
X30600Y16032D02*
Y17392D01*
X30400Y16032D02*
Y17592D01*
X30500Y16032D02*
Y17492D01*
X30200Y16032D02*
Y17792D01*
X30300Y16032D02*
Y17692D01*
X30125Y17500D02*
X30492D01*
X30125Y17400D02*
X30592D01*
X30125Y17700D02*
X30292D01*
X30125Y17600D02*
X30392D01*
X30125Y17300D02*
X30692D01*
X30125Y17200D02*
X30792D01*
X30089Y16900D02*
X31092D01*
X30052Y16800D02*
X31192D01*
X30124Y17100D02*
X30892D01*
X30113Y17000D02*
X30992D01*
X30100Y16032D02*
Y16939D01*
X30000Y16700D02*
X31292D01*
X30000Y16032D02*
Y16700D01*
X29833Y16500D02*
X31492D01*
X29733Y16400D02*
X31592D01*
X29928Y16600D02*
X31392D01*
X29900Y16032D02*
Y16568D01*
X29800Y16032D02*
Y16467D01*
X29700Y16032D02*
Y16367D01*
X42537Y16000D02*
X42769D01*
X42537Y15900D02*
X42733D01*
X42700Y15773D02*
Y19312D01*
X42537Y15800D02*
X42706D01*
X42537Y15700D02*
X42687D01*
X42537Y15600D02*
X42677D01*
X42600Y9020D02*
Y19312D01*
X42537Y14457D02*
Y17557D01*
Y15500D02*
X42675D01*
X42537Y15400D02*
X42681D01*
X36192Y15425D02*
X36837D01*
X36168Y15400D02*
X36837D01*
Y14732D02*
Y15425D01*
X36800Y14232D02*
Y15425D01*
X36700Y14232D02*
Y15425D01*
X42537Y15300D02*
X42695D01*
X42537Y15000D02*
X42791D01*
X42537Y15200D02*
X42718D01*
X42537Y15100D02*
X42750D01*
X36600Y14232D02*
Y15425D01*
X42700Y9025D02*
Y15277D01*
X36500Y14232D02*
Y15425D01*
X36057Y15300D02*
X36837D01*
X35913Y15200D02*
X36837D01*
X35701Y15100D02*
X36837D01*
X36400Y14232D02*
Y15425D01*
X36300Y14232D02*
Y15425D01*
X36200Y14232D02*
Y15425D01*
X31600Y15866D02*
Y16392D01*
X31400Y14232D02*
Y16592D01*
X31500Y15640D02*
Y16492D01*
X31200Y11259D02*
Y16792D01*
X31300Y14232D02*
Y16692D01*
X31000Y11193D02*
Y16992D01*
X31100Y11233D02*
Y16892D01*
X30862Y16000D02*
X31687D01*
X30862Y15900D02*
X31620D01*
X29600Y16032D02*
Y16267D01*
X30862Y15800D02*
X31565D01*
X30862Y13203D02*
Y16032D01*
Y15700D02*
X31521D01*
X30900Y11138D02*
Y17092D01*
X36100Y14232D02*
Y15336D01*
X36000Y14232D02*
Y15257D01*
X35900Y14232D02*
Y15192D01*
X35500Y14869D02*
Y15045D01*
X35800Y14232D02*
Y15141D01*
X35700Y14232D02*
Y15099D01*
X35600Y14232D02*
Y15068D01*
X30862Y15600D02*
X31487D01*
X30862Y15500D02*
X31463D01*
X30862Y15400D02*
X31446D01*
X30862Y15300D02*
X31438D01*
X30862Y15200D02*
X31438D01*
X30862Y15100D02*
X31446D01*
X28300Y22673D02*
Y28177D01*
X28400Y22773D02*
Y28077D01*
X28100Y22473D02*
Y28377D01*
X28200Y22573D02*
Y28277D01*
X28047Y22420D02*
X29037Y23410D01*
X28047Y22420D02*
X28612Y22985D01*
X28000Y22373D02*
Y28454D01*
X27900Y22273D02*
Y28354D01*
X24681Y22800D02*
X28427D01*
X24752Y22700D02*
X28327D01*
X27800Y22173D02*
Y27999D01*
X27700Y22073D02*
Y27756D01*
X27600Y21973D02*
Y27600D01*
X27500Y21873D02*
Y27482D01*
X27400Y21773D02*
Y27389D01*
X27905Y22278D02*
X28047Y22420D01*
X27905Y22278D02*
X28047Y22420D01*
X27905Y22278D02*
X28047Y22420D01*
X24919Y22300D02*
X27927D01*
X27340Y21713D02*
X27905Y22278D01*
X26915Y21288D02*
X27905Y22278D01*
X24938Y22200D02*
X27827D01*
X27340Y21713D02*
X27481Y21854D01*
X24810Y22600D02*
X28227D01*
X24856Y22500D02*
X28127D01*
X24892Y22400D02*
X28027D01*
X24948Y22100D02*
X27727D01*
X24950Y22000D02*
X27627D01*
X24944Y21900D02*
X27527D01*
X24930Y21800D02*
X27427D01*
X27300Y21673D02*
Y27314D01*
X27200Y21573D02*
Y27253D01*
X27100Y21473D02*
Y27204D01*
X27000Y21373D02*
Y27166D01*
X26900Y21273D02*
Y27136D01*
X26800Y21173D02*
Y27116D01*
X26700Y21073D02*
Y27104D01*
X26600Y20973D02*
Y27100D01*
X24900Y22375D02*
Y31577D01*
X24800Y22619D02*
Y31477D01*
X24700Y22775D02*
Y31377D01*
X26400Y20773D02*
Y27116D01*
X26500Y20873D02*
Y27104D01*
X26300Y20673D02*
Y27137D01*
X24907Y21700D02*
X27327D01*
X24876Y21600D02*
X27227D01*
X24834Y21500D02*
X27127D01*
X24783Y21400D02*
X27027D01*
X26915Y21288D02*
X27340Y21713D01*
X26774Y21147D02*
X26915Y21288D01*
X26774Y21147D02*
X26915Y21288D01*
X24718Y21300D02*
X26927D01*
X24639Y21200D02*
X26827D01*
X24541Y21100D02*
X26727D01*
X24415Y21000D02*
X26627D01*
X24245Y20900D02*
X26527D01*
X23949Y20800D02*
X26427D01*
X26100Y20473D02*
Y27204D01*
X26200Y20573D02*
Y27166D01*
X25900Y20273D02*
Y27315D01*
X26000Y20373D02*
Y27254D01*
X25800Y20173D02*
Y27390D01*
X25642Y20016D02*
X26915Y21288D01*
X25600Y19973D02*
Y27600D01*
X25700Y20073D02*
Y27483D01*
X23640Y20700D02*
X26327D01*
X23573Y20600D02*
X26227D01*
X23673Y20500D02*
X26127D01*
X23773Y20400D02*
X26027D01*
X25500Y19873D02*
Y27757D01*
X23873Y20300D02*
X25927D01*
X25400Y19773D02*
Y28001D01*
X29533Y16200D02*
X31792D01*
X29433Y16100D02*
X31771D01*
X25642Y20016D02*
X25784Y20157D01*
X29500Y16032D02*
Y16167D01*
X29364Y16032D02*
X29876Y16543D01*
X29364Y16032D02*
X30862D01*
X29412Y14482D02*
Y15882D01*
X23973Y20200D02*
X25827D01*
X25642Y20016D02*
X25784Y20157D01*
X24073Y20100D02*
X25727D01*
X24173Y20000D02*
X25627D01*
X25077Y19450D02*
X25642Y20016D01*
X24900Y19273D02*
X25642Y20016D01*
X24273Y19900D02*
X25527D01*
X25200Y19573D02*
Y31277D01*
X25300Y19673D02*
Y31177D01*
X25100Y19473D02*
Y31377D01*
X24600Y19573D02*
Y21157D01*
X25000Y19373D02*
Y31477D01*
X24900Y19273D02*
Y21674D01*
X24800Y19373D02*
Y21431D01*
X24700Y19473D02*
Y21275D01*
X24200Y19973D02*
Y20879D01*
X24100Y20073D02*
Y20841D01*
X24000Y20173D02*
Y20811D01*
X23900Y20273D02*
Y20791D01*
X24500Y19673D02*
Y21064D01*
X24400Y19773D02*
Y20989D01*
X24300Y19873D02*
Y20928D01*
X24373Y19800D02*
X25427D01*
X24473Y19700D02*
X25327D01*
X24573Y19600D02*
X25227D01*
X24673Y19500D02*
X25127D01*
X24723Y19450D02*
X24900Y19273D01*
X24773Y19400D02*
X25027D01*
X24158Y20016D02*
X24723Y19450D01*
X23800Y20373D02*
Y20779D01*
X24016Y20157D02*
X24158Y20016D01*
X23557Y20617D02*
X23715Y20775D01*
X23700Y20473D02*
Y20760D01*
X23557Y20617D02*
X24158Y20016D01*
X24158Y20016D02*
X24723Y19450D01*
X23557Y20617D02*
X24158Y20016D01*
X42537Y14700D02*
X42986D01*
X43000Y11518D02*
Y14684D01*
X42537Y14900D02*
X42843D01*
X42537Y14800D02*
X42907D01*
X42800Y11518D02*
Y14980D01*
X42900Y11518D02*
Y14810D01*
X42462Y11500D02*
X42713D01*
X42462Y11400D02*
X42713D01*
X42462Y11300D02*
X42713D01*
X42462Y11200D02*
X42713D01*
X42462Y11100D02*
X42713D01*
X42462Y11000D02*
X42713D01*
X42462Y10900D02*
X42713D01*
X42462Y10800D02*
X42713D01*
X42462Y10700D02*
X42713D01*
X42462Y10600D02*
X42713D01*
X42462Y10500D02*
X42713D01*
X42462Y10400D02*
X42713D01*
X42462Y10300D02*
X42713D01*
X42462Y10200D02*
X42713D01*
X42462Y10100D02*
X42713D01*
X42462Y10000D02*
X42713D01*
X42462Y9900D02*
X42713D01*
X42462Y9800D02*
X42713D01*
X42462Y9700D02*
X42713D01*
X42462Y9600D02*
X42713D01*
X42462Y9500D02*
X42713D01*
X42462Y9400D02*
X42713D01*
X42462Y9300D02*
X42713D01*
X42462Y9200D02*
X42713D01*
Y9025D02*
Y11518D01*
X42462Y9100D02*
X42713D01*
X42512Y14457D02*
Y14732D01*
Y11632D02*
Y14457D01*
X42462Y9004D02*
Y11632D01*
X41400Y8358D02*
Y8557D01*
X41300Y8207D02*
Y8557D01*
X41062Y13182D02*
X42362D01*
X41012Y10107D02*
X42312D01*
X41012Y8707D02*
Y10107D01*
X39907Y8557D02*
X41573D01*
X41200Y8005D02*
Y8557D01*
X39907Y8500D02*
X41518D01*
X41100Y7660D02*
Y8557D01*
X39907Y8400D02*
X41432D01*
X39907Y8300D02*
X41359D01*
X39907Y8200D02*
X41296D01*
X39907Y8100D02*
X41243D01*
X39907Y8000D02*
X41198D01*
X39907Y7900D02*
X41161D01*
X39907Y7800D02*
X41131D01*
X39907Y7700D02*
X41107D01*
X39907Y7600D02*
X41090D01*
X39907Y7500D02*
X41080D01*
X39907Y7400D02*
X41075D01*
X39907Y7300D02*
X41077D01*
X39907Y7100D02*
X41098D01*
X39907Y7200D02*
X41084D01*
X41500Y6132D02*
Y6270D01*
X39907Y6800D02*
X41178D01*
X41400Y6030D02*
Y6392D01*
Y2821D02*
Y3820D01*
X41300Y5908D02*
Y6543D01*
Y2966D02*
Y3942D01*
X39907Y6400D02*
X41394D01*
X39907Y6300D02*
X41473D01*
X39907Y6600D02*
X41268D01*
X39907Y6500D02*
X41326D01*
X39907Y6100D02*
X41467D01*
X39907Y6000D02*
X41373D01*
X39907Y5900D02*
X41294D01*
X41800Y3137D02*
Y3496D01*
X41890Y3212D02*
Y3448D01*
X41700Y3037D02*
Y3559D01*
X41600Y2912D02*
Y3632D01*
X41412Y2800D02*
X41528D01*
X41500Y2750D02*
Y3718D01*
X40720Y3400D02*
X41890D01*
X40921Y3300D02*
X41890D01*
X40215Y3500D02*
X41793D01*
X41066Y3200D02*
X41874D01*
X41180Y3100D02*
X41760D01*
X41272Y3000D02*
X41668D01*
X41349Y2900D02*
X41591D01*
X41000Y5210D02*
Y8557D01*
X41100Y5555D02*
Y7090D01*
X40600Y3442D02*
Y8557D01*
X40500Y3468D02*
Y8557D01*
X40900Y3313D02*
Y8557D01*
X40800Y3365D02*
Y8557D01*
X40700Y3408D02*
Y8557D01*
X40400Y3486D02*
Y8557D01*
X39907Y7000D02*
X41118D01*
X39907Y6900D02*
X41145D01*
X40300Y3496D02*
Y8557D01*
X39907Y6288D02*
Y8557D01*
X40200Y3500D02*
Y8557D01*
X40100Y3496D02*
Y8557D01*
X40000Y3486D02*
Y8557D01*
X39907Y6700D02*
X41219D01*
X39907Y5800D02*
X41226D01*
X41200Y5757D02*
Y6745D01*
X39907Y3469D02*
Y6188D01*
X41100Y3173D02*
Y4295D01*
X41200Y3080D02*
Y4093D01*
X41000Y3249D02*
Y4640D01*
X39907Y5700D02*
X41168D01*
X39907Y5600D02*
X41119D01*
X39907Y5500D02*
X41078D01*
X39907Y5400D02*
X41045D01*
X39907Y5300D02*
X41018D01*
X39907Y5200D02*
X40998D01*
X39907Y5100D02*
X40984D01*
X35491Y15000D02*
X36837D01*
X35499Y14900D02*
X36837D01*
X35499Y14800D02*
X36837D01*
X35491Y14700D02*
X36812D01*
X36837Y14457D02*
Y14732D01*
X35475Y14600D02*
X36812D01*
X35500Y14232D02*
Y14831D01*
X36812Y14232D02*
Y14732D01*
X30862Y14800D02*
X31521D01*
X30862Y14700D02*
X31565D01*
X30862Y15000D02*
X31463D01*
X30862Y14900D02*
X31487D01*
X31600Y14232D02*
Y14634D01*
X31500Y14232D02*
Y14860D01*
X35450Y14500D02*
X36812D01*
X35416Y14400D02*
X36812D01*
X35372Y14300D02*
X36812D01*
X35400Y14232D02*
Y14360D01*
X35336Y14232D02*
X36812D01*
X35487Y12682D02*
Y14082D01*
X31837Y14232D02*
Y14333D01*
X30862Y14400D02*
X31771D01*
X30862Y14300D02*
X31837D01*
X30862Y14600D02*
X31620D01*
X30862Y14500D02*
X31687D01*
X31800Y14232D02*
Y14370D01*
X31237Y14232D02*
X31837D01*
X31700D02*
Y14484D01*
X30862Y14200D02*
X31237D01*
X30862Y14100D02*
X31237D01*
X30862Y14000D02*
X31237D01*
X30862Y13900D02*
X31237D01*
X30862Y13800D02*
X31237D01*
X30862Y13700D02*
X31237D01*
X30862Y13600D02*
X31237D01*
X30862Y13500D02*
X31237D01*
X30862Y13400D02*
X31237D01*
X30862Y13300D02*
X31237D01*
X29412Y14482D02*
X30712D01*
X30893Y13200D02*
X31237D01*
X30893Y13100D02*
X31237D01*
X30893Y13000D02*
X31237D01*
X30862Y12932D02*
Y13203D01*
X30893Y12900D02*
X31237D01*
X30893Y12800D02*
X31237D01*
X30893Y12700D02*
X31237D01*
X30893Y12600D02*
X31237D01*
X30893Y12500D02*
X31237D01*
X30893Y12400D02*
X31237D01*
X30893Y12300D02*
X31237D01*
X30893Y12200D02*
X31237D01*
X30893Y12100D02*
X31237D01*
X30893Y12000D02*
X31237D01*
X30893Y11900D02*
X31237D01*
X30893Y11800D02*
X31237D01*
X30893Y11700D02*
X31237D01*
X30893Y11600D02*
X31237D01*
X39907Y5000D02*
X40977D01*
X39907Y4900D02*
X40975D01*
X39907Y4800D02*
X40980D01*
X39907Y4700D02*
X40990D01*
X39907Y4600D02*
X41007D01*
X39907Y4300D02*
X41098D01*
X39907Y4500D02*
X41031D01*
X39907Y4400D02*
X41061D01*
X39907Y4100D02*
X41196D01*
X39907Y4000D02*
X41259D01*
X38357Y4838D02*
X39757D01*
X39907Y4200D02*
X41143D01*
X39907Y3800D02*
X41418D01*
X39907Y3700D02*
X41520D01*
X39907Y3900D02*
X41332D01*
X39907Y3600D02*
X41642D01*
X39907Y3500D02*
X40185D01*
X39400Y3249D02*
Y3388D01*
X39300Y3172D02*
Y3388D01*
X39200Y3080D02*
Y3388D01*
X38210D02*
X39650D01*
X38381Y3300D02*
X39479D01*
X38526Y3200D02*
X39334D01*
X38640Y3100D02*
X39220D01*
X39100Y2966D02*
Y3388D01*
X38732Y3000D02*
X39128D01*
X31237Y11266D02*
Y14232D01*
X30893Y11133D02*
Y13203D01*
X36807Y6288D02*
Y8557D01*
X36957Y4838D02*
X38357D01*
X36775Y3185D02*
Y8557D01*
X36807Y3388D02*
Y6188D01*
X30893Y11500D02*
X31237D01*
X30893Y11400D02*
X31237D01*
X29443Y11653D02*
X30743D01*
X30893Y11300D02*
X31237D01*
X30893Y11200D02*
X31014D01*
X38800Y2913D02*
Y3388D01*
X38809Y2900D02*
X39051D01*
X38700Y3037D02*
Y3388D01*
X38600Y3138D02*
Y3388D01*
X39000Y2821D02*
Y3388D01*
X38872Y2800D02*
X38988D01*
X38900Y2750D02*
Y3388D01*
X38357Y3538D02*
Y4838D01*
X36807Y3388D02*
X37110D01*
X36900Y3276D02*
Y3388D01*
X36775Y3300D02*
X36939D01*
X38500Y3220D02*
Y3388D01*
X19300Y30502D02*
Y30954D01*
X19400Y30602D02*
Y30854D01*
X19100Y30302D02*
Y31154D01*
X19200Y30402D02*
Y31054D01*
X19066Y30269D02*
X19491Y30693D01*
X18925Y30127D02*
X19526Y30728D01*
X18900Y30102D02*
Y31354D01*
X19000Y30202D02*
Y31254D01*
X17324Y32930D02*
X19526Y30728D01*
X16755Y30600D02*
X19398D01*
X16712Y31500D02*
X18754D01*
X16769Y30500D02*
X19298D01*
X16775Y30400D02*
X19198D01*
X16773Y30300D02*
X19098D01*
X18800Y30002D02*
Y31454D01*
X23223Y29900D02*
X26577D01*
X23123Y29800D02*
X26677D01*
X23026Y29703D02*
X23450Y30127D01*
X23026Y29703D02*
X23450Y30127D01*
X23023Y29700D02*
X26777D01*
X22923Y29600D02*
X26582D01*
X22885Y29562D02*
X23026Y29703D01*
X22823Y29500D02*
X26110D01*
X18925Y30127D02*
X19066Y30269D01*
X18925Y30127D02*
X19066Y30269D01*
X16763Y30200D02*
X18998D01*
X18501Y29703D02*
X18925Y30127D01*
X22723Y29400D02*
X25922D01*
X22623Y29300D02*
X25788D01*
X18501Y29703D02*
X18925Y30127D01*
X17150Y33000D02*
X17262D01*
X17100Y32800D02*
Y32964D01*
X17141Y32600D02*
X17654D01*
X18100Y29302D02*
Y32154D01*
X17100Y32800D02*
X17454D01*
X17125Y32700D02*
X17554D01*
X17066Y32900D02*
X17354D01*
X17149Y32500D02*
X17754D01*
X17141Y32300D02*
X17954D01*
X17125Y32200D02*
X18054D01*
X17149Y32400D02*
X17854D01*
X18600Y29802D02*
Y31654D01*
X18700Y29902D02*
Y31554D01*
X18400Y29602D02*
Y31854D01*
X18500Y29702D02*
Y31754D01*
X18359Y29562D02*
X18501Y29703D01*
X18359Y29562D02*
X18501Y29703D01*
X18300Y29502D02*
Y31954D01*
X17022Y31900D02*
X18354D01*
X16968Y31800D02*
X18454D01*
X17100Y32100D02*
X18154D01*
X17066Y32000D02*
X18254D01*
X16900Y31700D02*
X18554D01*
X16816Y31600D02*
X18654D01*
X18200Y29402D02*
Y32054D01*
X22800Y24188D02*
Y29477D01*
X22523Y29200D02*
X25683D01*
X22700Y24209D02*
Y29377D01*
X22600Y24221D02*
Y29277D01*
X23100Y24072D02*
Y29777D01*
X23000Y24121D02*
Y29677D01*
X22900Y24159D02*
Y29577D01*
X22500Y24225D02*
Y29177D01*
X22319Y28996D02*
X23026Y29703D01*
X22423Y29100D02*
X25600D01*
X22319Y28996D02*
X23026Y29703D01*
X22319Y28996D02*
X22460Y29137D01*
X22400Y24221D02*
Y29077D01*
X22323Y29000D02*
X25532D01*
X21895Y28572D02*
X22319Y28996D01*
X22223Y28900D02*
X25478D01*
X22123Y28800D02*
X25434D01*
X22300Y24209D02*
Y28977D01*
X22023Y28700D02*
X25400D01*
X22200Y24188D02*
Y28877D01*
X22100Y24159D02*
Y28777D01*
X22000Y24121D02*
Y28677D01*
X21923Y28600D02*
X25375D01*
X21823Y28500D02*
X25359D01*
X21895Y28572D02*
X22319Y28996D01*
X21723Y28400D02*
X25351D01*
X21523Y28200D02*
X25359D01*
X21423Y28100D02*
X25375D01*
X21623Y28300D02*
X25351D01*
X18000Y29202D02*
Y32254D01*
X17935Y29137D02*
X18359Y29562D01*
X17800Y29026D02*
Y32454D01*
X17900Y29102D02*
Y32354D01*
X17700Y29044D02*
Y32554D01*
X17819Y29021D02*
X18501Y29703D01*
X17500Y29050D02*
Y32754D01*
X17600Y29050D02*
Y32654D01*
X17300Y29050D02*
Y32955D01*
X17400Y29050D02*
Y32854D01*
X17200Y29050D02*
Y33039D01*
X17100Y29050D02*
Y32100D01*
X17000Y29050D02*
Y31856D01*
X16900Y29050D02*
Y31700D01*
X16800Y29050D02*
Y31582D01*
X21753Y28430D02*
X21895Y28572D01*
X21753Y28430D02*
X21895Y28572D01*
X21753Y28430D02*
X21895Y28572D01*
X21900Y24072D02*
Y28577D01*
X21800Y24011D02*
Y28477D01*
X21700Y23935D02*
Y28377D01*
X21600Y23842D02*
Y28277D01*
X17819Y29021D02*
X17935Y29137D01*
X17819Y29021D02*
X17935Y29137D01*
X21329Y28006D02*
X21753Y28430D01*
X21329Y28006D02*
X21753Y28430D01*
X21500Y23725D02*
Y28177D01*
X16608Y31000D02*
X19254D01*
X16659Y30900D02*
X19354D01*
X16578Y31400D02*
X18854D01*
X16600Y31013D02*
Y31414D01*
X16701Y30800D02*
X19454D01*
X16732Y30700D02*
X19498D01*
X16700Y30802D02*
Y31489D01*
X16744Y30100D02*
X18898D01*
X16390Y31300D02*
X18954D01*
X16464Y31200D02*
X19054D01*
X16500Y31157D02*
Y31353D01*
X16543Y31100D02*
X19154D01*
X16717Y30000D02*
X18798D01*
X16681Y29900D02*
X18698D01*
X16635Y29800D02*
X18598D01*
X16577Y29700D02*
X18498D01*
X16700Y29050D02*
Y29948D01*
X16506Y29600D02*
X18398D01*
X16600Y29050D02*
Y29737D01*
X16500Y29050D02*
Y29593D01*
X16418Y29500D02*
X18298D01*
X16307Y29400D02*
X18198D01*
X16163Y29300D02*
X18098D01*
X15951Y29200D02*
X17998D01*
X9468Y29100D02*
X17898D01*
X16275Y29050D02*
X17600D01*
X16400D02*
Y29482D01*
X12400Y28655D02*
Y29600D01*
X16300Y29050D02*
Y29394D01*
X12300Y28663D02*
Y29600D01*
X12200Y28662D02*
Y29600D01*
X11000Y28663D02*
Y29600D01*
X10900Y28663D02*
Y29600D01*
X10800Y28663D02*
Y29600D01*
X10700Y28663D02*
Y29600D01*
X9902Y29500D02*
X14632D01*
X9802Y29400D02*
X14743D01*
X10002Y29600D02*
X14544D01*
X10002Y29600D02*
X14544D01*
X10600Y28663D02*
Y29600D01*
X10500Y28663D02*
Y29600D01*
X10400Y28663D02*
Y29600D01*
X16200Y29047D02*
Y29323D01*
X16100Y29032D02*
Y29265D01*
X16000Y29004D02*
Y29219D01*
X15900Y28963D02*
Y29183D01*
X15800Y28905D02*
Y29156D01*
X15700Y28826D02*
Y29137D01*
X9229Y29000D02*
X15987D01*
X7327Y28900D02*
X15793D01*
X9702Y29300D02*
X14887D01*
X9601Y29200D02*
X15099D01*
X7250Y28800D02*
X15673D01*
X15600Y28727D02*
Y29127D01*
X14800Y28213D02*
Y29357D01*
X14700Y28213D02*
Y29436D01*
X14600Y28213D02*
Y29534D01*
X14500Y28213D02*
Y29600D01*
X14400Y28213D02*
Y29600D01*
X14300Y28213D02*
Y29600D01*
X14200Y28213D02*
Y29600D01*
X14100Y28213D02*
Y29600D01*
X14000Y28213D02*
Y29600D01*
X13900Y28213D02*
Y29600D01*
X13800Y28213D02*
Y29600D01*
X13700Y28213D02*
Y29600D01*
X13600Y28213D02*
Y29600D01*
X13500Y28213D02*
Y29600D01*
X13400Y28213D02*
Y29600D01*
X15500Y28627D02*
Y29125D01*
X15400Y28527D02*
Y29131D01*
X15300Y28427D02*
Y29145D01*
X15200Y28327D02*
Y29168D01*
X15100Y28227D02*
Y29199D01*
X15086Y28213D02*
X15674Y28801D01*
X15000Y28213D02*
Y29241D01*
X7246Y28700D02*
X15573D01*
X12659Y28600D02*
X15473D01*
X12889Y28500D02*
X15373D01*
X13042Y28400D02*
X15273D01*
X13159Y28300D02*
X15173D01*
X13242Y28213D02*
X15086D01*
X14900D02*
Y29293D01*
X12900Y28494D02*
Y29600D01*
X12800Y28545D02*
Y29600D01*
X12700Y28586D02*
Y29600D01*
X12600Y28617D02*
Y29600D01*
X13300Y28213D02*
Y29600D01*
X13200Y28259D02*
Y29600D01*
X13100Y28354D02*
Y29600D01*
X13000Y28431D02*
Y29600D01*
X12500Y28640D02*
Y29600D01*
X12100Y28654D02*
Y29600D01*
X12000Y28637D02*
Y29600D01*
X11900Y28613D02*
Y29600D01*
X11800Y28580D02*
Y29600D01*
X11700Y28537D02*
Y29600D01*
X11600Y28484D02*
Y29600D01*
X11500Y28419D02*
Y29600D01*
X11400Y28340D02*
Y29600D01*
X11300Y28242D02*
Y29600D01*
X11200Y28118D02*
Y29600D01*
X11100Y27954D02*
Y29600D01*
X11058Y27863D02*
Y28663D01*
Y28600D02*
X11857D01*
X11058Y28500D02*
X11627D01*
X10300Y28663D02*
Y29600D01*
X8458Y28663D02*
X11058D01*
Y28400D02*
X11474D01*
X11058Y28300D02*
X11357D01*
X11058Y28200D02*
X11263D01*
X21023Y27700D02*
X25532D01*
X20923Y27600D02*
X25600D01*
X21323Y28000D02*
X25400D01*
X21123Y27800D02*
X25478D01*
X20623Y27300D02*
X25922D01*
X20523Y27200D02*
X26111D01*
X20823Y27500D02*
X25684D01*
X20723Y27400D02*
X25788D01*
X20223Y26900D02*
X29577D01*
X20123Y26800D02*
X29677D01*
X20423Y27100D02*
X29377D01*
X20323Y27000D02*
X29477D01*
X19923Y26600D02*
X29877D01*
X19823Y26500D02*
X29977D01*
X20023Y26700D02*
X29777D01*
X19523Y26200D02*
X30277D01*
X19423Y26100D02*
X30377D01*
X19723Y26400D02*
X30077D01*
X19623Y26300D02*
X30177D01*
X19123Y25800D02*
X30677D01*
X19173Y25000D02*
X30627D01*
X19323Y26000D02*
X30477D01*
X19223Y25900D02*
X30577D01*
X18823Y25500D02*
X30977D01*
X18773Y25400D02*
X31027D01*
X19023Y25700D02*
X30777D01*
X18923Y25600D02*
X30877D01*
X18873Y25300D02*
X30927D01*
X18973Y25200D02*
X30827D01*
X19073Y25100D02*
X30727D01*
X21188Y27865D02*
X21329Y28006D01*
X21223Y27900D02*
X25434D01*
X20622Y27299D02*
X21329Y28006D01*
X20622Y27299D02*
X21329Y28006D01*
X20622Y27299D02*
X20763Y27440D01*
X20198Y26875D02*
X20622Y27299D01*
X20198Y26875D02*
X20622Y27299D01*
X20056Y26733D02*
X20198Y26875D01*
X16336Y27059D02*
X16627Y26769D01*
X20056Y26733D02*
X20198Y26875D01*
X16039Y26762D02*
X16336Y27059D01*
X16277Y27000D02*
X16396D01*
X16400Y26542D02*
Y26996D01*
X20056Y26733D02*
X20198Y26875D01*
X16300Y26442D02*
Y27023D01*
X19491Y26167D02*
X20056Y26733D01*
X18925Y25602D02*
X20056Y26733D01*
X19491Y26167D02*
X19632Y26309D01*
X18925Y25602D02*
X19491Y26167D01*
X19100Y25073D02*
Y25777D01*
X19000Y25173D02*
Y25677D01*
X18900Y25273D02*
Y25577D01*
X16177Y26900D02*
X16496D01*
X16500Y26642D02*
Y26896D01*
X16200Y26342D02*
Y26923D01*
X16100Y26242D02*
Y26823D01*
X18748Y25425D02*
X18925Y25602D01*
X18748Y25425D02*
X18925Y25248D01*
X18800Y25373D02*
Y25477D01*
X21400Y23569D02*
Y28077D01*
X22749Y24200D02*
X29827D01*
X21300Y23325D02*
Y27977D01*
X20900Y23273D02*
Y27577D01*
X21200Y22973D02*
Y27877D01*
X21100Y23073D02*
Y27777D01*
X21000Y23173D02*
Y27677D01*
X19273Y24900D02*
X30527D01*
X19373Y24800D02*
X30427D01*
X19473Y24700D02*
X30327D01*
X19573Y24600D02*
X30227D01*
X19673Y24500D02*
X30127D01*
X19773Y24400D02*
X30027D01*
X19873Y24300D02*
X29927D01*
X23045Y24100D02*
X29727D01*
X20573Y23600D02*
X21417D01*
X20673Y23500D02*
X21366D01*
X20773Y23400D02*
X21324D01*
X20873Y23300D02*
X21293D01*
X20973Y23200D02*
X21270D01*
X21073Y23100D02*
X21256D01*
X19973Y24200D02*
X22251D01*
X20073Y24100D02*
X21955D01*
X20173Y24000D02*
X21784D01*
X20273Y23900D02*
X21659D01*
X20373Y23800D02*
X21561D01*
X20473Y23700D02*
X21482D01*
X20056Y24117D02*
X21251Y22922D01*
X20400Y23773D02*
Y27077D01*
X20300Y23873D02*
Y26977D01*
X20200Y23973D02*
Y26877D01*
X20100Y24073D02*
Y26777D01*
X20800Y23373D02*
Y27477D01*
X20700Y23473D02*
Y27377D01*
X20600Y23573D02*
Y27277D01*
X20500Y23673D02*
Y27177D01*
X19700Y24473D02*
Y26377D01*
X19600Y24573D02*
Y26277D01*
X19500Y24673D02*
Y26177D01*
X19400Y24773D02*
Y26077D01*
X20000Y24173D02*
Y26677D01*
X19900Y24273D02*
Y26577D01*
X19800Y24373D02*
Y26477D01*
X19491Y24683D02*
X19632Y24541D01*
X20056Y24117D01*
X19491Y24683D02*
X19632Y24541D01*
X19491Y24683D02*
X19632Y24541D01*
X20056Y24117D02*
X20198Y23975D01*
X20056Y24117D02*
X20198Y23975D01*
X19632Y24541D02*
X20056Y24117D01*
X18925Y25248D02*
X19491Y24683D01*
X18925Y25248D02*
X19491Y24683D01*
X19300Y24873D02*
Y25977D01*
X19200Y24973D02*
Y25877D01*
X16452Y23196D02*
X16662Y22985D01*
X16600Y22852D02*
Y23048D01*
X16500Y22752D02*
Y23148D01*
X16077Y26800D02*
X16596D01*
X16083Y26225D02*
X16627Y26769D01*
X15970Y26700D02*
X16558D01*
X15812Y26600D02*
X16458D01*
X16000Y26225D02*
Y26725D01*
X15900Y26225D02*
Y26650D01*
X15800Y26225D02*
Y26594D01*
X15700Y26225D02*
Y26554D01*
X13230Y26500D02*
X16358D01*
X13242Y26513D02*
X15438D01*
X15600Y26225D02*
Y26529D01*
X15500Y26225D02*
Y26515D01*
X15400Y26225D02*
Y26513D01*
X15300Y26225D02*
Y26513D01*
X15200Y26225D02*
Y26513D01*
X15100Y26225D02*
Y26513D01*
X15000Y26225D02*
Y26513D01*
X14900Y26225D02*
Y26513D01*
X14800Y26225D02*
Y26513D01*
X14700Y26225D02*
Y26513D01*
X13131Y26400D02*
X16258D01*
X13006Y26300D02*
X16158D01*
X14600Y26225D02*
Y26513D01*
X14500Y26225D02*
Y26513D01*
X14400Y26225D02*
Y26513D01*
X13575Y26225D02*
X16083D01*
X14300D02*
Y26513D01*
X14200Y26225D02*
Y26513D01*
X14100Y26225D02*
Y26513D01*
X14000Y26225D02*
Y26513D01*
X13900Y26225D02*
Y26513D01*
X13800Y26225D02*
Y26513D01*
X13700Y26225D02*
Y26513D01*
X13600Y26225D02*
Y26513D01*
X13500Y26222D02*
Y26513D01*
X13400Y26207D02*
Y26513D01*
X13300Y26179D02*
Y26513D01*
X11058Y28100D02*
X11187D01*
X11058Y26600D02*
X11206D01*
X13200Y26138D02*
Y26467D01*
X11058Y26063D02*
Y26863D01*
X12838Y26200D02*
X13370D01*
X12565Y26100D02*
X13131D01*
X13100Y26080D02*
Y26373D01*
X13000Y26001D02*
Y26296D01*
X12900Y25902D02*
Y26233D01*
X11058Y26300D02*
X11510D01*
X11058Y26200D02*
X11678D01*
X11058Y26500D02*
X11286D01*
X11058Y26400D02*
X11385D01*
X11058Y26100D02*
X11951D01*
X5880Y26000D02*
X12999D01*
X8458Y26063D02*
X11058D01*
X12800Y25802D02*
Y26182D01*
X12700Y25702D02*
Y26141D01*
X12500Y25666D02*
Y26086D01*
X12400Y25680D02*
Y26071D01*
X12600Y25642D02*
Y26109D01*
X12631Y25633D02*
X12974Y25976D01*
X12300Y25688D02*
Y26064D01*
X12200Y25687D02*
Y26065D01*
X5880Y25900D02*
X12898D01*
X5880Y25800D02*
X12798D01*
X12100Y25679D02*
Y26073D01*
X12000Y25662D02*
Y26089D01*
X11900Y25638D02*
Y26113D01*
X5838Y25700D02*
X12698D01*
X11800Y25605D02*
Y26147D01*
X15139Y23196D02*
X16452D01*
X15032Y23100D02*
X16548D01*
X12969Y23300D02*
X13269D01*
X12785Y23200D02*
X13357D01*
X14888Y23000D02*
X16648D01*
X14676Y22900D02*
X16647D01*
X12432Y23100D02*
X13468D01*
X11058D02*
X12084D01*
X5855Y22900D02*
X13824D01*
X5855Y22800D02*
X16547D01*
X5855Y23000D02*
X13612D01*
X11600Y25509D02*
Y26242D01*
X11700Y25562D02*
Y26189D01*
X11500Y25444D02*
Y26307D01*
X11000Y25688D02*
Y26063D01*
X11300Y25267D02*
Y26485D01*
X11400Y25365D02*
Y26387D01*
X11100Y24979D02*
Y26773D01*
X11200Y25143D02*
Y26608D01*
X10900Y25688D02*
Y26063D01*
X10800Y25688D02*
Y26063D01*
X10700Y25688D02*
Y26063D01*
X10600Y25688D02*
Y26063D01*
X10500Y25688D02*
Y26063D01*
X8458Y25688D02*
X11058D01*
X10400D02*
Y26063D01*
X11058Y25600D02*
X11787D01*
X11058Y25500D02*
X11584D01*
X11058Y25400D02*
X11442D01*
X11058Y25300D02*
X11331D01*
X11058Y25200D02*
X11243D01*
X11058Y25100D02*
X11170D01*
X11058Y24888D02*
Y25688D01*
Y23400D02*
X11413D01*
X11058Y23300D02*
X11547D01*
X11058Y23600D02*
X11224D01*
X11058Y23500D02*
X11309D01*
X11058Y23088D02*
Y23888D01*
Y23200D02*
X11731D01*
X8458Y23088D02*
X11058D01*
X7317Y41175D02*
X9463D01*
X7242Y41100D02*
X9463D01*
X7142Y41000D02*
X9463D01*
X7042Y40900D02*
X9463D01*
X6942Y40800D02*
X9463D01*
X6842Y40700D02*
X9463D01*
Y38768D02*
Y41175D01*
X6742Y40600D02*
X9463D01*
X6642Y40500D02*
X9463D01*
X6584Y40400D02*
X9463D01*
X6563Y40300D02*
X9463D01*
X6534Y40200D02*
X9463D01*
X6496Y40100D02*
X9463D01*
X6446Y40000D02*
X9463D01*
X6386Y39900D02*
X9463D01*
X6310Y39800D02*
X9463D01*
X6217Y39700D02*
X9463D01*
X6100Y39600D02*
X9463D01*
X5943Y39500D02*
X9463D01*
X5863Y39400D02*
X9463D01*
X5863Y39300D02*
X9463D01*
X5863Y39200D02*
X9463D01*
X9488Y38768D02*
Y39068D01*
X5863Y39100D02*
X9463D01*
X5863Y39000D02*
X9463D01*
X5863Y38900D02*
X9463D01*
X5863Y38800D02*
X9463D01*
X5863Y38700D02*
X9488D01*
X5863Y38600D02*
X9488D01*
X5863Y38500D02*
X9488D01*
X5863Y38400D02*
X9488D01*
X5863Y38300D02*
X9488D01*
X6591Y40449D02*
X7317Y41175D01*
X5863Y38200D02*
X9488D01*
X5863Y38100D02*
X9488D01*
X5863Y37993D02*
Y39460D01*
X9488Y35968D02*
Y38768D01*
X5443Y41847D02*
X5796Y42200D01*
X5600Y42004D02*
Y42200D01*
X5500Y41904D02*
Y42200D01*
X5400Y41849D02*
Y42200D01*
X5300Y41849D02*
Y42200D01*
X5863Y38000D02*
X9488D01*
X5200Y41841D02*
Y42200D01*
X5448Y36400D02*
X9488D01*
X5525Y36200D02*
X9488D01*
X5500Y36277D02*
Y37993D01*
X5550Y36100D02*
X9488D01*
X9513Y35968D02*
Y36318D01*
X5566Y36000D02*
X9488D01*
X5888Y35900D02*
X9513D01*
X5242Y36700D02*
X9488D01*
X5325Y36600D02*
X9488D01*
X5300Y36632D02*
Y37993D01*
X5200Y36743D02*
Y37993D01*
X5393Y36500D02*
X9488D01*
X5491Y36300D02*
X9488D01*
X5400Y36488D02*
Y37993D01*
X9400Y33300D02*
Y41175D01*
X9513Y33300D02*
Y35968D01*
X9300Y33300D02*
Y41175D01*
X9200Y33300D02*
Y41175D01*
X9100Y33300D02*
Y41175D01*
X9000Y33300D02*
Y41175D01*
X8900Y33300D02*
Y41175D01*
X8800Y33300D02*
Y41175D01*
X5888Y35800D02*
X9513D01*
X5888Y35700D02*
X9513D01*
X8700Y33300D02*
Y41175D01*
X8600Y33300D02*
Y41175D01*
X8500Y33300D02*
Y41175D01*
X8400Y33300D02*
Y41175D01*
X8300Y33300D02*
Y41175D01*
X5888Y35600D02*
X9513D01*
X5888Y35500D02*
X9513D01*
X5888Y35400D02*
X9513D01*
X5888Y35300D02*
X9513D01*
X5888Y35200D02*
X9513D01*
X5888Y35100D02*
X9513D01*
X5888Y35000D02*
X9513D01*
X5888Y34900D02*
X9513D01*
X5888Y34800D02*
X9513D01*
X5888Y34700D02*
X9513D01*
X5888Y34600D02*
X9513D01*
X5888Y34500D02*
X9513D01*
X5888Y34400D02*
X9513D01*
X5888Y34300D02*
X9513D01*
X7900Y33502D02*
Y41175D01*
X7700Y33606D02*
Y41175D01*
X7600Y33642D02*
Y41175D01*
X7500Y33669D02*
Y41175D01*
X8200Y33300D02*
Y41175D01*
X8100Y33343D02*
Y41175D01*
X8000Y33431D02*
Y41175D01*
X7800Y33560D02*
Y41175D01*
X7400Y33688D02*
Y41175D01*
X7300Y33698D02*
Y41158D01*
X7200Y33700D02*
Y41058D01*
X7100Y33694D02*
Y40958D01*
X7000Y33680D02*
Y40858D01*
X6900Y33657D02*
Y40758D01*
X6800Y33625D02*
Y40658D01*
X6700Y33584D02*
Y40558D01*
X6600Y33532D02*
Y40458D01*
X6500Y33468D02*
Y40110D01*
X6400Y33389D02*
Y39922D01*
X6300Y33291D02*
Y39787D01*
X6200Y33165D02*
Y39683D01*
X6100Y32995D02*
Y39600D01*
X5800Y35968D02*
Y37993D01*
X5569Y35968D02*
X5888D01*
X5700D02*
Y37993D01*
X5600Y35968D02*
Y37993D01*
X6000Y32698D02*
Y39532D01*
X5888Y32868D02*
Y35968D01*
X5900Y31850D02*
Y39477D01*
X5100Y41825D02*
Y42200D01*
X5000Y41800D02*
Y42200D01*
X4900Y41766D02*
Y42200D01*
X4800Y41722D02*
Y42200D01*
X4700Y41668D02*
Y42200D01*
X4600Y41600D02*
Y42200D01*
X4500Y41516D02*
Y42200D01*
X4400Y41412D02*
Y42200D01*
X2837Y42200D02*
X5796D01*
X2837Y42200D02*
X5796D01*
X2890Y42100D02*
X5696D01*
X2933Y42000D02*
X5596D01*
X2967Y41900D02*
X5496D01*
X2992Y41800D02*
X4999D01*
X3011Y41700D02*
X4756D01*
X2963Y37993D02*
X5863D01*
X3021Y41600D02*
X4600D01*
X3025Y41500D02*
X4482D01*
X800Y37900D02*
X9488D01*
X4344Y37100D02*
X9488D01*
X4600Y37069D02*
Y37993D01*
X4500Y37088D02*
Y37993D01*
X800Y37800D02*
X9488D01*
X800Y37700D02*
X9488D01*
X800Y37600D02*
X9488D01*
X800Y37500D02*
X9488D01*
X800Y37400D02*
X9488D01*
X800Y37300D02*
X9488D01*
X800Y37200D02*
X9488D01*
X4300Y41278D02*
Y42200D01*
X4200Y41093D02*
Y42200D01*
X4100Y41093D02*
Y42200D01*
X4000Y41093D02*
Y42200D01*
X3900Y41093D02*
Y42200D01*
X3800Y41093D02*
Y42200D01*
X3700Y41093D02*
Y42200D01*
X3600Y41093D02*
Y42200D01*
X3500Y41093D02*
Y42200D01*
X3400Y41093D02*
Y42200D01*
X3000Y41764D02*
Y42200D01*
X3300Y41093D02*
Y42200D01*
X3200Y41093D02*
Y42200D01*
X3100Y41093D02*
Y42200D01*
X3021Y41400D02*
X4389D01*
X4400Y37098D02*
Y37993D01*
X3063Y41093D02*
X4201D01*
X4300Y37100D02*
Y37993D01*
X4200Y37094D02*
Y37993D01*
X4100Y37080D02*
Y37993D01*
X3011Y41300D02*
X4314D01*
X2992Y41200D02*
X4253D01*
X2900Y42078D02*
Y42200D01*
X1625Y41500D02*
X2875D01*
X2967Y41100D02*
X4204D01*
X800Y37993D02*
X2963D01*
X1613Y38143D02*
Y39543D01*
X4800Y37006D02*
Y37993D01*
X4700Y37042D02*
Y37993D01*
X4000Y37057D02*
Y37993D01*
X3900Y37026D02*
Y37993D01*
X5100Y36831D02*
Y37993D01*
X5000Y36902D02*
Y37993D01*
X4900Y36960D02*
Y37993D01*
X3800Y36984D02*
Y37993D01*
X3700Y36932D02*
Y37993D01*
X3600Y36868D02*
Y37993D01*
X3500Y36789D02*
Y37993D01*
X3400Y36691D02*
Y37993D01*
X3300Y36565D02*
Y37993D01*
X3200Y36395D02*
Y37993D01*
X3100Y36098D02*
Y37993D01*
X4815Y37000D02*
X9488D01*
X5003Y36900D02*
X9488D01*
X800Y37100D02*
X4306D01*
X800Y37000D02*
X3835D01*
X5138Y36800D02*
X9488D01*
X800Y36900D02*
X3647D01*
X800Y36800D02*
X3512D01*
X800Y36700D02*
X3408D01*
X800Y36600D02*
X3325D01*
X800Y36500D02*
X3257D01*
X800Y36400D02*
X3202D01*
X800Y36300D02*
X3159D01*
X800Y36200D02*
X3125D01*
X3000Y35968D02*
Y37993D01*
X2900Y35968D02*
Y37993D01*
X2800Y35968D02*
Y37993D01*
X2700Y35968D02*
Y37993D01*
X2600Y35968D02*
Y37993D01*
X2500Y35968D02*
Y37993D01*
X2400Y35968D02*
Y37993D01*
X2300Y35968D02*
Y37993D01*
X2200Y35968D02*
Y37993D01*
X2100Y35968D02*
Y37993D01*
X2000Y35968D02*
Y37993D01*
X1900Y35968D02*
Y37993D01*
X1800Y35968D02*
Y37993D01*
X1700Y35968D02*
Y37993D01*
X1600Y35968D02*
Y37993D01*
X1500Y35968D02*
Y37993D01*
X1400Y35968D02*
Y37993D01*
X1300Y35968D02*
Y37993D01*
X1200Y35968D02*
Y37993D01*
X1638Y34418D02*
Y35818D01*
Y33018D02*
Y34418D01*
X800Y36100D02*
X3100D01*
X800Y36000D02*
X3084D01*
X1100Y35968D02*
Y37993D01*
X1000Y35968D02*
Y37993D01*
X900Y35968D02*
Y37993D01*
X800Y35968D02*
X3081D01*
X800D02*
Y37993D01*
X10200Y28663D02*
Y29600D01*
X9626Y29224D02*
X10002Y29600D01*
X8038Y33400D02*
X9513D01*
X8142Y33300D02*
X9513D01*
X10100Y28663D02*
Y29600D01*
X10000Y28663D02*
Y29598D01*
X9900Y28663D02*
Y29498D01*
X9800Y28663D02*
Y29398D01*
X5888Y34200D02*
X9513D01*
X5888Y34100D02*
X9513D01*
X5888Y34000D02*
X9513D01*
X5888Y33900D02*
X9513D01*
X7244Y33700D02*
X9513D01*
X7715Y33600D02*
X9513D01*
X7903Y33500D02*
X9513D01*
X10300Y25688D02*
Y26063D01*
X10200Y25688D02*
Y26063D01*
X9700Y28663D02*
Y29298D01*
X9758Y27363D02*
Y28513D01*
X10100Y25688D02*
Y26063D01*
X10000Y25688D02*
Y26063D01*
X9900Y25688D02*
Y26063D01*
X9800Y25688D02*
Y26063D01*
X8608Y27363D02*
X9758D01*
X9600Y28663D02*
Y29199D01*
X9758Y26213D02*
Y27363D01*
X9700Y25688D02*
Y26063D01*
X9600Y25688D02*
Y26063D01*
X9500Y28663D02*
Y29120D01*
X9400Y28663D02*
Y29062D01*
X9300Y28663D02*
Y29021D01*
X9200Y28663D02*
Y28993D01*
X9100Y28663D02*
Y28978D01*
X9000Y28663D02*
Y28975D01*
X8900Y28663D02*
Y28975D01*
X8800Y28663D02*
Y28975D01*
X7402D02*
X9025D01*
X6000Y31850D02*
Y32202D01*
X7250Y28823D02*
X7402Y28975D01*
X8700Y28663D02*
Y28975D01*
X8600Y28663D02*
Y28975D01*
X8500Y28663D02*
Y28975D01*
X7234Y28600D02*
X8458D01*
X7213Y28500D02*
X8458D01*
X7184Y28400D02*
X8458D01*
X7146Y28300D02*
X8458D01*
X9500Y25688D02*
Y26063D01*
X9400Y25688D02*
Y26063D01*
X8458D02*
Y28663D01*
X7097Y28200D02*
X8458D01*
X7036Y28100D02*
X8458D01*
X6960Y28000D02*
X8458D01*
X6867Y27900D02*
X8458D01*
X6750Y27800D02*
X8458D01*
X6593Y27700D02*
X8458D01*
X6350Y27600D02*
X8458D01*
X9300Y25688D02*
Y26063D01*
X9200Y25688D02*
Y26063D01*
X9100Y25688D02*
Y26063D01*
X9000Y25688D02*
Y26063D01*
X8900Y25688D02*
Y26063D01*
X9758Y24388D02*
Y25538D01*
X8800Y25688D02*
Y26063D01*
X8700Y25688D02*
Y26063D01*
X8600Y25688D02*
Y26063D01*
X8500Y25688D02*
Y26063D01*
X7623Y25600D02*
X8458D01*
X7816Y25500D02*
X8458D01*
X7952Y25400D02*
X8458D01*
X8057Y25300D02*
X8458D01*
X8265Y25000D02*
X8458D01*
X8608Y24388D02*
X9758D01*
X8309Y24900D02*
X8458D01*
X8344Y24800D02*
X8458D01*
X9758Y23238D02*
Y24388D01*
X8346Y24100D02*
X8458D01*
X8313Y24000D02*
X8458D01*
X8141Y25200D02*
X8458D01*
X8210Y25100D02*
X8458D01*
X8270Y23900D02*
X8458D01*
X8216Y23800D02*
X8458D01*
X8149Y23700D02*
X8458D01*
X8066Y23600D02*
X8458D01*
X7963Y23500D02*
X8458D01*
X7900Y25441D02*
Y28975D01*
X7800Y25510D02*
Y28975D01*
X7700Y25565D02*
Y28975D01*
X7600Y25609D02*
Y28975D01*
X8300Y24923D02*
Y28975D01*
X8200Y25116D02*
Y28975D01*
X8100Y25252D02*
Y28975D01*
X8000Y25357D02*
Y28975D01*
X7400Y25669D02*
Y28973D01*
X7300Y25685D02*
Y28873D01*
X7200Y25694D02*
Y28450D01*
X7100Y25694D02*
Y28206D01*
X7500Y25644D02*
Y28975D01*
X7000Y25687D02*
Y28050D01*
X6900Y25671D02*
Y27932D01*
X6800Y25646D02*
Y27839D01*
X7831Y23400D02*
X8458D01*
X6700Y25613D02*
Y27764D01*
X6600Y25570D02*
Y27703D01*
X7646Y23300D02*
X8458D01*
X7255Y23200D02*
X8458D01*
Y23088D02*
Y25688D01*
X6500Y25516D02*
Y27654D01*
X6400Y25449D02*
Y27616D01*
X6300Y25366D02*
Y27587D01*
X6200Y25295D02*
Y27566D01*
X6100Y25295D02*
Y27554D01*
X6000Y25295D02*
Y27550D01*
X5888Y33800D02*
X9513D01*
X5888Y33700D02*
X7206D01*
X5888Y33600D02*
X6735D01*
X5888Y33500D02*
X6547D01*
X5888Y33400D02*
X6412D01*
X5888Y33300D02*
X6308D01*
X5888Y33200D02*
X6225D01*
X5888Y33100D02*
X6157D01*
X5888Y33000D02*
X6102D01*
X5888Y32900D02*
X6059D01*
X2988Y32868D02*
X5888D01*
X5800Y31850D02*
Y32868D01*
X5700Y31850D02*
Y32868D01*
X5600Y31850D02*
Y32868D01*
X5500Y31850D02*
Y32868D01*
X800Y32800D02*
X6025D01*
X800Y32700D02*
X6000D01*
X5400Y31850D02*
Y32868D01*
X800Y32600D02*
X5984D01*
X5300Y31850D02*
Y32868D01*
X5273Y31850D02*
X6128D01*
X800Y32500D02*
X5976D01*
X800Y32400D02*
X5976D01*
X800Y32300D02*
X5984D01*
X800Y32200D02*
X6000D01*
X800Y32000D02*
X6059D01*
X800Y31900D02*
X6103D01*
X800Y32100D02*
X6025D01*
X5200Y31847D02*
Y32868D01*
X5100Y31832D02*
Y32868D01*
X5000Y31805D02*
Y32868D01*
X4900Y31764D02*
Y32868D01*
X4800Y31706D02*
Y32868D01*
X4700Y31690D02*
Y32868D01*
X4600Y31690D02*
Y32868D01*
X4500Y31690D02*
Y32868D01*
X4400Y31690D02*
Y32868D01*
X4300Y31690D02*
Y32868D01*
X4200Y31690D02*
Y32868D01*
X4100Y31690D02*
Y32868D01*
X4000Y31690D02*
Y32868D01*
X3900Y31690D02*
Y32868D01*
X3800Y31690D02*
Y32868D01*
X3700Y31690D02*
Y32868D01*
X3600Y31690D02*
Y32868D01*
X3500Y31690D02*
Y32868D01*
X3400Y31690D02*
Y32868D01*
X3300Y31690D02*
Y32868D01*
X3200Y31690D02*
Y32868D01*
X800Y31800D02*
X4985D01*
X3063Y31690D02*
X4776D01*
X3100D02*
Y32868D01*
X800Y32868D02*
X2988D01*
X2963Y31690D02*
X3063D01*
X2963D02*
X3063D01*
X3000D02*
Y32868D01*
X5880Y27500D02*
X8458D01*
X5880Y27400D02*
X8458D01*
X5880Y27300D02*
X8458D01*
X5880Y27200D02*
X8458D01*
X5880Y27100D02*
X8458D01*
X5900Y25295D02*
Y27554D01*
X5880Y25759D02*
Y27556D01*
Y27000D02*
X8458D01*
X5880Y26900D02*
X8458D01*
X5880Y26800D02*
X8458D01*
X5880Y26700D02*
X8458D01*
X5880Y26600D02*
X8458D01*
X5880Y26500D02*
X8458D01*
X5880Y26400D02*
X8458D01*
X5880Y26300D02*
X8458D01*
X5880Y26200D02*
X8458D01*
X5880Y26100D02*
X8458D01*
X5838Y25600D02*
X6667D01*
X5838Y25500D02*
X6474D01*
X5855Y23100D02*
X8458D01*
X5838Y25400D02*
X6338D01*
X5838Y25300D02*
X6233D01*
X5838Y23500D02*
X6327D01*
X5838Y25295D02*
X6228D01*
X5838Y23595D02*
X6228D01*
X5838Y23300D02*
X6644D01*
X5838Y23200D02*
X7035D01*
X5838Y23400D02*
X6459D01*
X2900Y31690D02*
Y32868D01*
X2800Y31690D02*
Y32868D01*
X2700Y31690D02*
Y32868D01*
X2600Y31690D02*
Y32868D01*
X2500Y31690D02*
Y32868D01*
X2400Y31690D02*
Y32868D01*
X2300Y31690D02*
Y32868D01*
X2200Y31690D02*
Y32868D01*
X2100Y31690D02*
Y32868D01*
X2000Y31690D02*
Y32868D01*
X1900Y31690D02*
Y32868D01*
X1800Y31690D02*
Y32868D01*
X1700Y31690D02*
Y32868D01*
X1600Y31690D02*
Y32868D01*
X1500Y31690D02*
Y32868D01*
X1613Y30140D02*
Y31540D01*
X5838Y25759D02*
Y25995D01*
X1400Y31690D02*
Y32868D01*
X1300Y31690D02*
Y32868D01*
X5838Y25295D02*
Y25759D01*
Y23164D02*
Y23595D01*
Y22895D02*
Y23164D01*
X1200Y31690D02*
Y32868D01*
X1100Y31690D02*
Y32868D01*
X1000Y31690D02*
Y32868D01*
X900Y31690D02*
Y32868D01*
X800Y31700D02*
X4790D01*
X800Y31690D02*
X2963D01*
X800D02*
Y32868D01*
X18465Y21182D02*
X18925Y20723D01*
X18283Y21000D02*
X18648D01*
X18383Y21100D02*
X18548D01*
X18700Y20498D02*
Y20948D01*
X18500Y20298D02*
Y21148D01*
X18600Y20398D02*
Y21048D01*
X18400Y20198D02*
Y21117D01*
X18300Y20098D02*
Y21017D01*
X16400Y22652D02*
Y23196D01*
X16300Y22552D02*
Y23196D01*
X16200Y22452D02*
Y23196D01*
X16100Y22352D02*
Y23196D01*
X18183Y20900D02*
X18748D01*
X18200Y19998D02*
Y20917D01*
X15560Y21812D02*
X16698Y22950D01*
X18083Y20800D02*
X18848D01*
X17983Y20700D02*
X18902D01*
X18800Y20598D02*
Y20848D01*
X17883Y20600D02*
X18802D01*
X17783Y20500D02*
X18702D01*
X17683Y20400D02*
X18602D01*
X18100Y19898D02*
Y20817D01*
X18000Y19798D02*
Y20717D01*
X17583Y20300D02*
X18502D01*
X17483Y20200D02*
X18402D01*
X17383Y20100D02*
X18302D01*
X17283Y20000D02*
X18202D01*
X17183Y19900D02*
X18102D01*
X17215Y19800D02*
X18002D01*
X17200Y19815D02*
Y19917D01*
X16000Y22252D02*
Y23196D01*
X15900Y22152D02*
Y23196D01*
X15800Y22052D02*
Y23196D01*
X15700Y21952D02*
Y23196D01*
X15600Y21852D02*
Y23196D01*
X15500Y21812D02*
Y23196D01*
X15400Y21812D02*
Y23196D01*
X15300Y21812D02*
Y23196D01*
X15200Y21812D02*
Y23196D01*
X15100Y21812D02*
Y23158D01*
X15000Y21812D02*
Y23075D01*
X14900Y21812D02*
Y23007D01*
X13500Y21812D02*
Y23075D01*
X14800Y21812D02*
Y22952D01*
X13400Y21812D02*
Y23159D01*
X14700Y21812D02*
Y22909D01*
X14600Y21812D02*
Y22875D01*
X14500Y21812D02*
Y22850D01*
X14400Y21812D02*
Y22834D01*
X14800Y19921D02*
Y20112D01*
X14700Y19821D02*
Y20112D01*
X14300Y21812D02*
Y22826D01*
X14200Y21812D02*
Y22826D01*
X14100Y21812D02*
Y22834D01*
X13900Y21812D02*
Y22875D01*
X14000Y21812D02*
Y22850D01*
X13700Y21812D02*
Y22953D01*
X13800Y21812D02*
Y22909D01*
X13600Y21812D02*
Y23007D01*
X17900Y19698D02*
Y20617D01*
X17800Y19598D02*
Y20517D01*
X17700Y19498D02*
Y20417D01*
X21196Y15993D02*
X22425Y17223D01*
X21924Y16701D02*
X22249Y17026D01*
X17315Y19700D02*
X17902D01*
X17415Y19600D02*
X17802D01*
X17500Y19515D02*
Y20217D01*
X17515Y19500D02*
X17702D01*
X17609Y19406D02*
X18925Y20723D01*
X17600Y19415D02*
Y20317D01*
X17176Y19839D02*
X17609Y19406D01*
X21602Y16400D02*
X21730D01*
X21700Y16304D02*
Y16497D01*
X21502Y16300D02*
X21699D01*
X21600Y15993D02*
Y16397D01*
X21675Y15993D02*
Y16100D01*
X21500Y15993D02*
Y16297D01*
X21402Y16200D02*
X21681D01*
X21302Y16100D02*
X21675D01*
X21400Y15993D02*
Y16197D01*
X21300Y15993D02*
Y16097D01*
X21202Y16000D02*
X21675D01*
X21196Y15993D02*
X21675D01*
X21163Y14443D02*
Y15843D01*
X17400Y19615D02*
Y20117D01*
X17300Y19715D02*
Y20017D01*
X14600Y19721D02*
Y20112D01*
X14500Y19621D02*
Y20112D01*
X14400Y19521D02*
Y20112D01*
X14300Y19421D02*
Y20112D01*
X14200Y19321D02*
Y20112D01*
X14100Y19221D02*
Y20112D01*
X14000Y19121D02*
Y20112D01*
X13900Y19021D02*
Y20112D01*
X13800Y18921D02*
Y20112D01*
X13700Y18821D02*
Y20112D01*
X13600Y18721D02*
Y20112D01*
X13500Y18621D02*
Y20112D01*
X13400Y18521D02*
Y20112D01*
X17037Y19700D02*
X17315D01*
X16937Y19600D02*
X17415D01*
X15196Y17859D02*
X17176Y19839D01*
X14277Y16728D02*
X15267Y15738D01*
X14347Y14819D02*
X15267Y15738D01*
X14300Y12633D02*
Y14654D01*
X14200Y12533D02*
Y14754D01*
X14000Y12327D02*
Y14954D01*
X14100Y12433D02*
Y14854D01*
X13800Y10225D02*
Y15154D01*
X13900Y12175D02*
Y15054D01*
X13600Y10225D02*
Y15354D01*
X13700Y10225D02*
Y15254D01*
X13500Y10225D02*
Y15454D01*
X13013Y22400D02*
X16147D01*
X13013Y22300D02*
X16047D01*
X13013Y22200D02*
X15947D01*
X13013Y22100D02*
X15847D01*
X13300Y21812D02*
Y23263D01*
X13013Y22000D02*
X15747D01*
X13200Y21812D02*
Y23397D01*
X13100Y21812D02*
Y23398D01*
X5855Y22700D02*
X16447D01*
X5855Y22600D02*
X16347D01*
X13000Y22493D02*
Y23321D01*
X5855Y22500D02*
X16247D01*
X13013Y21900D02*
X15647D01*
X13013Y21812D02*
X15560D01*
X13013Y20100D02*
X14979D01*
X13013Y20112D02*
X14991D01*
X13013Y20000D02*
X14879D01*
X13013Y19900D02*
X14779D01*
X13013Y19800D02*
X14679D01*
X13013Y19700D02*
X14579D01*
X13013Y19600D02*
X14479D01*
X13013Y19500D02*
X14379D01*
X13013Y19400D02*
X14279D01*
X12343Y19300D02*
X14179D01*
X12343Y19200D02*
X14079D01*
X12343Y19100D02*
X13979D01*
X12343Y19000D02*
X13879D01*
X12343Y18900D02*
X13779D01*
X12343Y18800D02*
X13679D01*
X12463Y18700D02*
X13579D01*
X12900Y22493D02*
Y23258D01*
X12800Y22493D02*
Y23207D01*
X12700Y22493D02*
Y23166D01*
X12600Y22493D02*
Y23134D01*
X12000Y22493D02*
Y23114D01*
X12500Y22493D02*
Y23111D01*
X11900Y22493D02*
Y23138D01*
X11800Y22493D02*
Y23172D01*
X11700Y22493D02*
Y23214D01*
X11600Y22493D02*
Y23267D01*
X11400Y22493D02*
Y23412D01*
X11500Y22493D02*
Y23332D01*
X11200Y22493D02*
Y23633D01*
X11300Y22493D02*
Y23510D01*
X11100Y22493D02*
Y23798D01*
X13013Y21812D02*
Y22493D01*
Y19393D02*
Y20112D01*
X12400Y22493D02*
Y23096D01*
X12343Y19393D02*
X13013D01*
X12500Y18668D02*
Y19393D01*
X12400Y18749D02*
Y19393D01*
X12343Y18788D02*
Y19393D01*
X12300Y22493D02*
Y23089D01*
X12200Y22493D02*
Y23090D01*
X12100Y22493D02*
Y23098D01*
X11000Y22493D02*
Y23088D01*
X10900Y22493D02*
Y23088D01*
X10213Y22493D02*
X13013D01*
X10800D02*
Y23088D01*
X13300Y18421D02*
Y20112D01*
X13145Y15809D02*
X15125Y17789D01*
X13200Y18321D02*
Y20112D01*
X13100Y18221D02*
Y20112D01*
X13400Y15554D02*
Y16063D01*
X13145Y15809D02*
X15311Y13644D01*
X13300Y15654D02*
Y15963D01*
X13200Y15754D02*
Y15863D01*
X12572Y18600D02*
X13479D01*
X12662Y18500D02*
X13379D01*
X12736Y18400D02*
X13279D01*
X12797Y18300D02*
X13179D01*
X12425Y15142D02*
X18465Y21182D01*
X12912Y18033D02*
X14991Y20112D01*
X12848Y18200D02*
X13079D01*
X12883Y15600D02*
X13354D01*
X12783Y15500D02*
X13454D01*
X13100Y10888D02*
Y15817D01*
X12983Y15700D02*
X13254D01*
X13300Y9538D02*
Y15654D01*
X13400Y10225D02*
Y15554D01*
X13200Y9538D02*
Y15754D01*
X12483Y15200D02*
X13754D01*
X12425Y15100D02*
X13854D01*
X12683Y15400D02*
X13554D01*
X12583Y15300D02*
X13654D01*
X12425Y14900D02*
X14054D01*
X12425Y14800D02*
X14154D01*
X12425Y15000D02*
X13954D01*
X13000Y18121D02*
Y19393D01*
X12800Y18296D02*
Y19393D01*
X12700Y18451D02*
Y19393D01*
X12600Y18571D02*
Y19393D01*
X12900Y18070D02*
Y19393D01*
X11000Y16121D02*
Y16341D01*
X10974Y16095D02*
X11159Y16280D01*
X8618Y16300D02*
X11101D01*
X8618Y16500D02*
X10732D01*
X8618Y16400D02*
X10884D01*
X10900Y16011D02*
Y16391D01*
X8618Y16200D02*
X11079D01*
X10800Y15843D02*
Y16451D01*
X12700Y13451D02*
Y15417D01*
X12600Y13571D02*
Y15317D01*
X12500Y13668D02*
Y15217D01*
X12425Y13730D02*
Y15142D01*
X13000Y10888D02*
Y15717D01*
X12900Y13070D02*
Y15617D01*
X12800Y13296D02*
Y15517D01*
X8618Y16100D02*
X10979D01*
X8618Y16000D02*
X10892D01*
X8618Y15900D02*
X10828D01*
X8618Y15800D02*
X10782D01*
X8618Y15700D02*
X10750D01*
X19863Y14443D02*
X21163D01*
X19602Y14400D02*
X19713D01*
X19502Y14300D02*
X19713D01*
X19402Y14200D02*
X19713D01*
X19302Y14100D02*
X19713D01*
X19202Y14000D02*
X19713D01*
Y13172D02*
Y14510D01*
X19102Y13900D02*
X19713D01*
X19002Y13800D02*
X19713D01*
X18902Y13700D02*
X19713D01*
X18802Y13600D02*
X19713D01*
X18702Y13500D02*
X19713D01*
X18602Y13400D02*
X19713D01*
X18502Y13300D02*
X19713D01*
X18107Y12904D02*
X19713Y14510D01*
X18402Y13200D02*
X19713D01*
Y12893D02*
Y13172D01*
X18302Y13100D02*
X19682D01*
X18202Y13000D02*
X19682D01*
X18107Y12900D02*
X19682D01*
X19832Y11622D02*
X21132D01*
X18107Y12800D02*
X19682D01*
X18107Y12700D02*
X19682D01*
X18107Y12600D02*
X19682D01*
X18107Y12500D02*
X19682D01*
X18107Y12400D02*
X19682D01*
X18107Y12300D02*
X19682D01*
X18107Y12200D02*
X19682D01*
X18107Y12100D02*
X19682D01*
X18107Y12000D02*
X19682D01*
X15100Y13433D02*
Y13854D01*
X15200Y13533D02*
Y13754D01*
X14900Y13233D02*
Y14054D01*
X15000Y13333D02*
Y13954D01*
X16271Y12200D02*
X16407D01*
X16171Y12100D02*
X16407D01*
X14800Y13133D02*
Y14154D01*
X15507Y11435D02*
X16407Y12335D01*
X14600Y12933D02*
Y14354D01*
X14700Y13033D02*
Y14254D01*
X14400Y12733D02*
Y14554D01*
X14500Y12833D02*
Y14454D01*
X14056Y12389D02*
X15311Y13644D01*
X18107Y11900D02*
X19682D01*
X18107Y11800D02*
X19682D01*
X18107Y11700D02*
X19682D01*
X18107Y11600D02*
X19682D01*
X18107Y11500D02*
X19682D01*
X18107Y11400D02*
X19682D01*
X18107Y11300D02*
X19682D01*
X16071Y12000D02*
X16407D01*
X15971Y11900D02*
X16407D01*
X15871Y11800D02*
X16407D01*
X15771Y11700D02*
X16407D01*
X15671Y11600D02*
X16407D01*
X15571Y11500D02*
X16407D01*
X15507Y11400D02*
X16407D01*
X19600Y10225D02*
Y14397D01*
X19682Y10225D02*
Y13172D01*
X19500Y10225D02*
Y14297D01*
X19400Y10225D02*
Y14197D01*
X19300Y10225D02*
Y14097D01*
X19200Y10225D02*
Y13997D01*
X19100Y10225D02*
Y13897D01*
X19000Y10225D02*
Y13797D01*
X18900Y10225D02*
Y13697D01*
X18800Y10225D02*
Y13597D01*
X18700Y10225D02*
Y13497D01*
X18600Y10225D02*
Y13397D01*
X18500Y10225D02*
Y13297D01*
X18400Y10225D02*
Y13197D01*
X18300Y10225D02*
Y13097D01*
X18107Y11200D02*
X19682D01*
X18107Y11100D02*
X19682D01*
X18107Y11000D02*
X19682D01*
X18107Y10900D02*
X19682D01*
X18200Y10225D02*
Y12997D01*
X18107Y10800D02*
X19682D01*
X18107Y10225D02*
Y12904D01*
Y10700D02*
X19682D01*
X18107Y10600D02*
X19682D01*
X15507Y11300D02*
X16407D01*
X18107Y10500D02*
X19682D01*
X18107Y10400D02*
X19682D01*
X18107Y10300D02*
X19682D01*
X18107Y10225D02*
X19682D01*
X16400D02*
Y12329D01*
X16407Y10225D02*
Y12335D01*
X16300Y10225D02*
Y12229D01*
X16200Y10225D02*
Y12129D01*
X16100Y10225D02*
Y12029D01*
X16000Y10225D02*
Y11929D01*
X15900Y10225D02*
Y11829D01*
X15800Y10225D02*
Y11729D01*
X15507Y11200D02*
X16407D01*
X15507Y11100D02*
X16407D01*
X15700Y10225D02*
Y11629D01*
X15507Y11000D02*
X16407D01*
X15600Y10225D02*
Y11529D01*
X15507Y10225D02*
Y11435D01*
X13807Y10225D02*
Y11787D01*
X15507Y10900D02*
X16407D01*
X15507Y10800D02*
X16407D01*
X15507Y10700D02*
X16407D01*
X15507Y10600D02*
X16407D01*
X15507Y10500D02*
X16407D01*
X15507Y10400D02*
X16407D01*
X15507Y10300D02*
X16407D01*
X15507Y10225D02*
X16407D01*
X13325D02*
X13807D01*
X13132Y9538D02*
Y10888D01*
X13325Y9538D02*
Y10225D01*
X13300Y3037D02*
Y3838D01*
X13325Y3009D02*
Y3838D01*
X13200Y3138D02*
Y3838D01*
X12425Y14500D02*
X14454D01*
X12425Y14400D02*
X14554D01*
X12425Y14700D02*
X14254D01*
X12425Y14600D02*
X14354D01*
X12572Y13600D02*
X15267D01*
X12662Y13500D02*
X15167D01*
X12736Y13400D02*
X15067D01*
X12797Y13300D02*
X14967D01*
X12425Y14100D02*
X14854D01*
X12425Y14000D02*
X14954D01*
X12425Y14300D02*
X14654D01*
X12425Y14200D02*
X14754D01*
X12425Y13800D02*
X15154D01*
X12463Y13700D02*
X15254D01*
X12425Y13900D02*
X15054D01*
X12946Y12900D02*
X14567D01*
X12963Y12800D02*
X14467D01*
X12973Y12700D02*
X14367D01*
X12975Y12600D02*
X14267D01*
X12970Y12500D02*
X14167D01*
X12958Y12400D02*
X14067D01*
X12939Y12300D02*
X13978D01*
X12848Y13200D02*
X14867D01*
X12889Y13100D02*
X14767D01*
X12922Y13000D02*
X14667D01*
X12912Y12200D02*
X13913D01*
X12876Y12100D02*
X13866D01*
X12832Y12000D02*
X13834D01*
X12777Y11900D02*
X13814D01*
X12712Y11800D02*
X13807D01*
X12633Y11700D02*
X13807D01*
X12537Y11600D02*
X13807D01*
X12900Y10888D02*
Y12164D01*
X12800Y10888D02*
Y11939D01*
X12700Y10888D02*
Y11783D01*
X12600Y10888D02*
Y11663D01*
X12425Y11500D02*
X13807D01*
X12425Y11400D02*
X13807D01*
X12425Y11300D02*
X13807D01*
X12500Y10888D02*
Y11566D01*
X12425Y11200D02*
X13807D01*
X12425Y10888D02*
Y11505D01*
X13132Y10800D02*
X13807D01*
X13132Y10700D02*
X13807D01*
X13132Y10600D02*
X13807D01*
X13132Y10500D02*
X13807D01*
X13132Y10400D02*
X13807D01*
X13132Y10300D02*
X13807D01*
X13132Y10200D02*
X13325D01*
X12425Y11100D02*
X13807D01*
X12425Y11000D02*
X13807D01*
X12425Y10900D02*
X13807D01*
X12425Y10888D02*
X13132D01*
Y10100D02*
X13325D01*
X13132Y10000D02*
X13325D01*
X13132Y9900D02*
X13325D01*
X13132Y9800D02*
X13325D01*
X13132Y9700D02*
X13325D01*
X13132Y9600D02*
X13325D01*
X13132Y9538D02*
X13325D01*
X13132Y6738D02*
X13325D01*
X13132Y6638D02*
X13325D01*
X11027Y4500D02*
X13107D01*
X11127Y4400D02*
X13107D01*
X10339Y5188D02*
X13107D01*
X10427Y5100D02*
X13107D01*
X10527Y5000D02*
X13107D01*
X10627Y4900D02*
X13107D01*
X10727Y4800D02*
X13107D01*
X10827Y4700D02*
X13107D01*
X10927Y4600D02*
X13107D01*
Y3838D02*
X13325D01*
X11927Y3600D02*
X13325D01*
X12275Y3500D02*
X13325D01*
X12780Y3400D02*
X13325D01*
X12981Y3300D02*
X13325D01*
X13126Y3200D02*
X13325D01*
X11227Y4300D02*
X13107D01*
X11327Y4200D02*
X13107D01*
X11427Y4100D02*
X13107D01*
X11527Y4000D02*
X13107D01*
X11727Y3800D02*
X13325D01*
X11827Y3700D02*
X13325D01*
X11627Y3900D02*
X13107D01*
Y3838D02*
Y5188D01*
X12800Y3392D02*
Y5188D01*
X12600Y3458D02*
Y5188D01*
X12500Y3479D02*
Y5188D01*
X13100Y3220D02*
Y5188D01*
X13000Y3289D02*
Y5188D01*
X12900Y3345D02*
Y5188D01*
X12700Y3429D02*
Y5188D01*
X11582Y6638D02*
X12982D01*
X12400Y3493D02*
Y5188D01*
X11582Y5338D02*
Y6638D01*
X12300Y3499D02*
Y5188D01*
X12200Y3499D02*
Y5188D01*
X12100Y3491D02*
Y5188D01*
X10339D02*
X12044Y3483D01*
X11800Y3727D02*
Y5188D01*
X11700Y3827D02*
Y5188D01*
X11600Y3927D02*
Y5188D01*
X11500Y4027D02*
Y5188D01*
X12000Y3527D02*
Y5188D01*
X12027Y3500D02*
X12245D01*
X11900Y3627D02*
Y5188D01*
X11100Y4427D02*
Y5188D01*
X11000Y4527D02*
Y5188D01*
X10900Y4627D02*
Y5188D01*
X10800Y4727D02*
Y5188D01*
X11400Y4127D02*
Y5188D01*
X11300Y4227D02*
Y5188D01*
X11200Y4327D02*
Y5188D01*
X10700Y22493D02*
Y23088D01*
X10600Y22493D02*
Y23088D01*
X10500Y22493D02*
Y23088D01*
X10400Y22493D02*
Y23088D01*
X10300Y22493D02*
Y23088D01*
X10200Y22493D02*
Y23088D01*
X10100Y22493D02*
Y23088D01*
X10000Y22493D02*
Y23088D01*
X9900Y22493D02*
Y23088D01*
X9800Y22493D02*
Y23088D01*
X9700Y22493D02*
Y23088D01*
X9600Y22493D02*
Y23088D01*
X9500Y22493D02*
Y23088D01*
X9400Y22493D02*
Y23088D01*
X9300Y22493D02*
Y23088D01*
X10113Y19393D02*
X10643D01*
Y18662D02*
Y19393D01*
X9200Y22493D02*
Y23088D01*
X10600Y18622D02*
Y19393D01*
X10500Y18514D02*
Y19393D01*
X10400Y18378D02*
Y19393D01*
X10300Y18195D02*
Y19393D01*
X10200Y17879D02*
Y19393D01*
X7525Y17800D02*
X10187D01*
X7769Y17700D02*
X10178D01*
X9100Y22493D02*
Y23088D01*
X7925Y17600D02*
X10175D01*
X8043Y17500D02*
X10180D01*
X8211Y17300D02*
X10212D01*
X8136Y17400D02*
X10192D01*
X9000Y22493D02*
Y23088D01*
X8900Y22493D02*
Y23088D01*
X8800Y22493D02*
Y23088D01*
X8700Y22493D02*
Y23088D01*
X8400Y22493D02*
Y28975D01*
X8300Y22493D02*
Y23967D01*
X8200Y22493D02*
Y23774D01*
X8100Y22493D02*
Y23638D01*
X8000Y22493D02*
Y23533D01*
X7900Y22493D02*
Y23449D01*
X7800Y22493D02*
Y23380D01*
X7700Y22493D02*
Y23325D01*
X7600Y22493D02*
Y23281D01*
X7500Y22493D02*
Y23246D01*
X7400Y22493D02*
Y23221D01*
X8763Y20943D02*
Y22343D01*
Y19543D02*
Y20943D01*
X8600Y22493D02*
Y23088D01*
X8500Y22493D02*
Y23088D01*
X8200Y17316D02*
Y19393D01*
X8100Y17441D02*
Y19393D01*
X8000Y17539D02*
Y19393D01*
X7463Y20943D02*
X8763D01*
X7600Y17776D02*
Y19393D01*
X7500Y17807D02*
Y19393D01*
X7400Y17830D02*
Y19393D01*
X7900Y17618D02*
Y19393D01*
X7800Y17683D02*
Y19393D01*
X7700Y17734D02*
Y19393D01*
X10700Y13710D02*
Y16525D01*
X8618Y15600D02*
X10732D01*
X8618Y16700D02*
X10518D01*
X8618Y16600D02*
X10613D01*
X10600Y13622D02*
Y16613D01*
X10725Y13730D02*
Y15494D01*
X10400Y13378D02*
Y16856D01*
X10500Y13514D02*
Y16721D01*
X8618Y15500D02*
X10725D01*
X8618Y15400D02*
X10725D01*
X8359Y17000D02*
X10319D01*
X8409Y16800D02*
X10439D01*
X8618Y15300D02*
X10725D01*
X8618Y15200D02*
X10725D01*
X8618Y15100D02*
X10725D01*
X8618Y15000D02*
X10725D01*
X8618Y14900D02*
X10725D01*
X8618Y14800D02*
X10725D01*
X8618Y14700D02*
X10725D01*
X8618Y14600D02*
X10725D01*
X8618Y14500D02*
X10725D01*
X8618Y14400D02*
X10725D01*
X8618Y14300D02*
X10725D01*
X8618Y14200D02*
X10725D01*
X8618Y14100D02*
X10725D01*
X8618Y14000D02*
X10725D01*
X8618Y13900D02*
X10725D01*
X8618Y13800D02*
X10725D01*
X9800Y12277D02*
Y19393D01*
X9600Y12381D02*
Y19393D01*
X9500Y12417D02*
Y19393D01*
X9400Y12444D02*
Y19393D01*
X10100Y12007D02*
Y19393D01*
X10000Y12118D02*
Y19393D01*
X9900Y12206D02*
Y19393D01*
X9700Y12335D02*
Y19393D01*
X9300Y12463D02*
Y19393D01*
X9200Y12473D02*
Y19393D01*
X9100Y12475D02*
Y19393D01*
X9000Y12469D02*
Y19393D01*
X8900Y12455D02*
Y19393D01*
X8800Y12432D02*
Y19393D01*
X8700Y12401D02*
Y19393D01*
X8600Y16762D02*
Y19393D01*
X8618Y13862D02*
Y16762D01*
X8500D02*
Y19393D01*
X8400Y16849D02*
Y19393D01*
X10200Y12879D02*
Y17355D01*
X10300Y13195D02*
Y17040D01*
X8618Y12368D02*
Y13862D01*
X8272Y17200D02*
X10239D01*
X8388Y16900D02*
X10373D01*
X8300Y17145D02*
Y19393D01*
X8321Y17100D02*
X10274D01*
X8414Y16762D02*
X8618D01*
X8421Y16700D02*
X8618D01*
X7313Y22493D02*
X10213D01*
X5855Y22400D02*
X7313D01*
X5855Y22300D02*
X7313D01*
X5855Y22200D02*
X7313D01*
X5855Y22100D02*
X7313D01*
Y19393D02*
X10113D01*
X5855Y22000D02*
X7313D01*
X5855Y21900D02*
X7313D01*
X5855Y21800D02*
X7313D01*
X5855Y21700D02*
X7313D01*
X5855Y21600D02*
X7313D01*
X5855Y21500D02*
X7313D01*
X5855Y21400D02*
X7313D01*
X5855Y21300D02*
X7313D01*
X5855Y21200D02*
X7313D01*
X5838Y19300D02*
X10643D01*
X5838Y19200D02*
X10643D01*
X5838Y19100D02*
X10643D01*
X5838Y19000D02*
X10643D01*
X5838Y18900D02*
X10643D01*
X5838Y18800D02*
X10643D01*
X5838Y18700D02*
X10643D01*
X5838Y18600D02*
X10578D01*
X5838Y18500D02*
X10489D01*
X5838Y18400D02*
X10414D01*
X5838Y18300D02*
X10353D01*
X5838Y18200D02*
X10302D01*
X5838Y18100D02*
X10261D01*
X5838Y18000D02*
X10229D01*
X5838Y17900D02*
X10204D01*
X7300Y17844D02*
Y23205D01*
X7313Y19393D02*
Y22493D01*
X7200Y17850D02*
Y23196D01*
X7100Y17848D02*
Y23196D01*
X7000Y17838D02*
Y23203D01*
X6900Y17819D02*
Y23219D01*
X6800Y17792D02*
Y23244D01*
X6700Y17756D02*
Y23277D01*
X5855Y21100D02*
X7313D01*
X5855Y21000D02*
X7313D01*
X5855Y20900D02*
X7313D01*
X5855Y20800D02*
X7313D01*
X5855Y20700D02*
X7313D01*
X5855Y20600D02*
X7313D01*
X5855Y20064D02*
Y23164D01*
Y20500D02*
X7313D01*
X5855Y20400D02*
X7313D01*
X5855Y20300D02*
X7313D01*
X5855Y20200D02*
X7313D01*
X5855Y20100D02*
X7313D01*
X5838Y20000D02*
X7313D01*
X5838Y20064D02*
Y20325D01*
Y19900D02*
X7313D01*
X5838Y19800D02*
X7313D01*
X5838Y19700D02*
X7313D01*
X5838Y19600D02*
X7313D01*
X5838Y19500D02*
X7313D01*
X5838Y19400D02*
X7313D01*
X5838Y17800D02*
X6825D01*
X6500Y17652D02*
Y23374D01*
X6600Y17710D02*
Y23320D01*
X6300Y17493D02*
Y23524D01*
X6400Y17581D02*
Y23441D01*
X6200Y17382D02*
Y23595D01*
X6100Y17238D02*
Y23595D01*
X6000Y17026D02*
Y23595D01*
X5838Y17700D02*
X6581D01*
X5838Y17600D02*
X6425D01*
X5838Y17494D02*
Y20064D01*
Y17500D02*
X6307D01*
X5838Y17225D02*
Y17494D01*
X5855Y17400D02*
X6214D01*
X5855Y16762D02*
Y17494D01*
Y17300D02*
X6139D01*
X5855Y17200D02*
X6078D01*
X5855Y17100D02*
X6029D01*
X5855Y17000D02*
X5991D01*
X5855Y16900D02*
X5962D01*
X3538Y13787D02*
Y14394D01*
X3055D02*
X3538D01*
X800Y14300D02*
X3538D01*
X800Y14200D02*
X3538D01*
X800Y14100D02*
X3538D01*
X800Y14000D02*
X3538D01*
X800Y13900D02*
X3538D01*
X800Y13800D02*
X3538D01*
X3500Y2913D02*
Y14394D01*
X3400Y2750D02*
Y14394D01*
X3300Y2505D02*
Y14394D01*
X3200Y800D02*
Y14394D01*
X3100Y800D02*
Y14394D01*
X2900Y800D02*
Y14394D01*
X2800Y800D02*
Y14394D01*
X2700Y800D02*
Y14394D01*
X800D02*
X2955D01*
X2600Y800D02*
Y14394D01*
X1605Y14544D02*
Y15944D01*
X2500Y800D02*
Y14394D01*
X2400Y800D02*
Y14394D01*
X2300Y800D02*
Y14394D01*
X2200Y800D02*
Y14394D01*
X2100Y800D02*
Y14394D01*
X2000Y800D02*
Y14394D01*
X1900Y800D02*
Y14394D01*
X1800Y800D02*
Y14394D01*
X1700Y800D02*
Y14394D01*
X1600Y800D02*
Y14394D01*
X1500Y800D02*
Y14394D01*
X1400Y800D02*
Y14394D01*
X1300Y800D02*
Y14394D01*
X1200Y800D02*
Y14394D01*
X1100Y800D02*
Y14394D01*
X1000Y800D02*
Y14394D01*
X900Y800D02*
Y14394D01*
X800Y800D02*
Y14394D01*
X8618Y13700D02*
X10688D01*
X8618Y13600D02*
X10578D01*
X9763Y12300D02*
X10212D01*
X10106Y12000D02*
X10319D01*
X10235Y11800D02*
X10439D01*
X10400Y10888D02*
Y11856D01*
X10300Y11652D02*
Y12040D01*
X10177Y11900D02*
X10373D01*
X8618Y13500D02*
X10489D01*
X8618Y13400D02*
X10414D01*
X8618Y13300D02*
X10353D01*
X8618Y13200D02*
X10302D01*
X8618Y13100D02*
X10261D01*
X8618Y13000D02*
X10229D01*
X10344Y11500D02*
X10725D01*
X10363Y11400D02*
X10725D01*
X10373Y11300D02*
X10725D01*
X10375Y11200D02*
X10725D01*
Y10888D02*
Y11505D01*
X10700Y10888D02*
Y11525D01*
X10500Y10888D02*
Y11721D01*
X10600Y10888D02*
Y11613D01*
X10369Y11100D02*
X10725D01*
X10355Y11000D02*
X10725D01*
X10281Y11700D02*
X10518D01*
X10317Y11600D02*
X10613D01*
X10332Y10900D02*
X10725D01*
X10329Y10888D02*
X10725D01*
X800Y13600D02*
X3559D01*
X800Y13700D02*
X3542D01*
X800Y13500D02*
X3588D01*
X8618Y12900D02*
X10204D01*
X8618Y12800D02*
X10187D01*
X3787Y13186D02*
X4318Y12655D01*
X4100Y10912D02*
Y12873D01*
X800Y13200D02*
X3773D01*
X800Y13100D02*
X3873D01*
X800Y13400D02*
X3631D01*
X800Y13300D02*
X3691D01*
X800Y12900D02*
X4073D01*
X800Y12800D02*
X4173D01*
X800Y13000D02*
X3973D01*
X8618Y12700D02*
X10178D01*
X8618Y12600D02*
X10175D01*
X8618Y12500D02*
X10180D01*
X9552Y12400D02*
X10192D01*
X9907Y12200D02*
X10239D01*
X10018Y12100D02*
X10274D01*
X10200Y11863D02*
Y12355D01*
X800Y12600D02*
X4318D01*
X800Y12500D02*
X4318D01*
X800Y12700D02*
X4273D01*
X800Y12400D02*
X4318D01*
Y10912D02*
Y12655D01*
X4300Y10912D02*
Y12673D01*
X4200Y10912D02*
Y12773D01*
X10700Y4827D02*
Y5188D01*
X10600Y4927D02*
Y5188D01*
X10068Y5459D02*
X10339Y5188D01*
X10500Y5027D02*
Y5188D01*
X5500Y3205D02*
Y3748D01*
X5600Y3119D02*
Y3648D01*
X5300Y3335D02*
Y3948D01*
X5400Y3276D02*
Y3848D01*
X5000Y3453D02*
Y4248D01*
X5200Y3383D02*
Y4048D01*
X4800Y3491D02*
Y4448D01*
X4900Y3476D02*
Y4348D01*
X4567Y4681D02*
X6174Y3074D01*
X5100Y3422D02*
Y4148D01*
X6100Y2991D02*
Y3148D01*
X5789Y2900D02*
X6031D01*
X5800Y2884D02*
Y3448D01*
X6000Y2853D02*
Y3248D01*
X5852Y2800D02*
X5968D01*
X5900Y2710D02*
Y3348D01*
X5361Y3300D02*
X5948D01*
X5506Y3200D02*
X6048D01*
X4655Y3500D02*
X5748D01*
X5160Y3400D02*
X5848D01*
X5620Y3100D02*
X6148D01*
X5712Y3000D02*
X6108D01*
X5700Y3015D02*
Y3548D01*
X3900Y10912D02*
Y13073D01*
X4000Y10912D02*
Y12973D01*
X4300Y3458D02*
Y5212D01*
X4200Y3429D02*
Y5212D01*
X4100Y3392D02*
Y5212D01*
X4000Y3345D02*
Y5212D01*
X3800Y10912D02*
Y13173D01*
X3618Y10912D02*
X4318D01*
X3700D02*
Y13288D01*
X3618Y8112D02*
Y10912D01*
X3618Y5212D02*
Y8112D01*
Y5212D02*
X4321D01*
X3600Y3037D02*
Y13468D01*
X4600Y3499D02*
Y4648D01*
X4700Y3499D02*
Y4548D01*
X4400Y3479D02*
Y4918D01*
X4500Y3493D02*
Y4757D01*
X3900Y3288D02*
Y5212D01*
Y800D02*
Y912D01*
X3800Y3220D02*
Y5212D01*
X3700Y3137D02*
Y5212D01*
X3800Y800D02*
Y980D01*
X3600Y800D02*
Y1163D01*
X3700Y800D02*
Y1063D01*
X3400Y800D02*
Y1450D01*
X3500Y800D02*
Y1287D01*
X3300Y800D02*
Y1695D01*
X800Y12300D02*
X4318D01*
X800Y12200D02*
X4318D01*
X800Y12100D02*
X4318D01*
X800Y12000D02*
X4318D01*
X800Y11900D02*
X4318D01*
X800Y11800D02*
X4318D01*
X800Y11700D02*
X4318D01*
X800Y11600D02*
X4318D01*
X800Y11500D02*
X4318D01*
X800Y11400D02*
X4318D01*
X800Y11300D02*
X4318D01*
X800Y11200D02*
X4318D01*
X800Y11100D02*
X4318D01*
X800Y11000D02*
X4318D01*
X800Y10900D02*
X3618D01*
X800Y10800D02*
X3618D01*
X800Y10700D02*
X3618D01*
X800Y10600D02*
X3618D01*
X800Y10500D02*
X3618D01*
X800Y10400D02*
X3618D01*
X800Y10300D02*
X3618D01*
X800Y10200D02*
X3618D01*
X800Y10100D02*
X3618D01*
X800Y10000D02*
X3618D01*
X800Y9900D02*
X3618D01*
X800Y9800D02*
X3618D01*
X800Y9700D02*
X3618D01*
X800Y9600D02*
X3618D01*
X800Y9500D02*
X3618D01*
X800Y9400D02*
X3618D01*
X800Y9300D02*
X3618D01*
X800Y9200D02*
X3618D01*
X800Y9100D02*
X3618D01*
X800Y9000D02*
X3618D01*
X800Y8900D02*
X3618D01*
X800Y8800D02*
X3618D01*
X800Y8700D02*
X3618D01*
X800Y8600D02*
X3618D01*
X800Y8500D02*
X3618D01*
X800Y8400D02*
X3618D01*
X800Y8300D02*
X3618D01*
X800Y8200D02*
X3618D01*
X800Y8100D02*
X3618D01*
X800Y8000D02*
X3618D01*
X800Y7900D02*
X3618D01*
X800Y7800D02*
X3618D01*
X800Y7700D02*
X3618D01*
X800Y7600D02*
X3618D01*
X800Y7500D02*
X3618D01*
X800Y7400D02*
X3618D01*
X800Y7300D02*
X3618D01*
X800Y7200D02*
X3618D01*
X800Y7100D02*
X3618D01*
X800Y7000D02*
X3618D01*
X800Y6900D02*
X3618D01*
X800Y6800D02*
X3618D01*
X800Y6700D02*
X3618D01*
X800Y6600D02*
X3618D01*
X800Y6500D02*
X3618D01*
X800Y5200D02*
X4322D01*
X800Y6400D02*
X3618D01*
X800Y6300D02*
X3618D01*
X800Y4900D02*
X4409D01*
X800Y4800D02*
X4468D01*
X800Y5100D02*
X4338D01*
X800Y5000D02*
X4366D01*
X800Y4500D02*
X4748D01*
X800Y4400D02*
X4848D01*
X800Y4700D02*
X4549D01*
X800Y4600D02*
X4648D01*
X800Y4200D02*
X5048D01*
X800Y4100D02*
X5148D01*
X800Y4300D02*
X4948D01*
X800Y3800D02*
X5448D01*
X800Y3700D02*
X5548D01*
X800Y4000D02*
X5248D01*
X800Y3900D02*
X5348D01*
X800Y3600D02*
X5648D01*
X800Y3500D02*
X4625D01*
X800Y3400D02*
X4120D01*
X800Y3300D02*
X3919D01*
X800Y3200D02*
X3774D01*
X800Y3100D02*
X3660D01*
X800Y1100D02*
X3660D01*
X800Y900D02*
X3919D01*
X800Y800D02*
X4120D01*
X800Y1000D02*
X3774D01*
X800Y6200D02*
X3618D01*
X800Y6100D02*
X3618D01*
X800Y6000D02*
X3618D01*
X800Y5900D02*
X3618D01*
X800Y5800D02*
X3618D01*
X800Y5700D02*
X3618D01*
X800Y5600D02*
X3618D01*
X800Y5500D02*
X3618D01*
X800Y5400D02*
X3618D01*
X800Y5300D02*
X3618D01*
X800Y3000D02*
X3568D01*
X800Y2900D02*
X3491D01*
X800Y2800D02*
X3428D01*
X800Y2700D02*
X3375D01*
X800Y2600D02*
X3332D01*
X800Y2500D02*
X3298D01*
X800Y2400D02*
X3273D01*
X800Y2300D02*
X3254D01*
X800Y2200D02*
X3244D01*
X800Y2100D02*
X3240D01*
X800Y2000D02*
X3244D01*
X800Y1900D02*
X3254D01*
X800Y1600D02*
X3332D01*
X800Y1500D02*
X3375D01*
X800Y1800D02*
X3273D01*
X800Y1700D02*
X3298D01*
X800Y1300D02*
X3491D01*
X800Y1200D02*
X3568D01*
X800Y1400D02*
X3428D01*
D11*
X18501Y22155D02*
X18236Y22420D01*
X19491Y23675D01*
X19756Y23410D01*
X18501Y22155D01*
Y22302D02*
X18383Y22420D01*
X19491Y23528D01*
X19608Y23410D01*
X18501Y22302D01*
X18524Y22426D02*
X19467Y23404D01*
X20763Y19892D02*
X20498Y20157D01*
X21753Y21412D01*
X22019Y21147D01*
X20763Y19892D01*
Y20039D02*
X20646Y20157D01*
X21753Y21265D01*
X21871Y21147D01*
X20763Y20039D01*
X20787Y20163D02*
X21730Y21141D01*
X21329Y19326D02*
X21064Y19591D01*
X22319Y20846D01*
X22584Y20581D01*
X21329Y19326D01*
Y19473D02*
X21211Y19591D01*
X22319Y20699D01*
X22437Y20581D01*
X21329Y19473D01*
X21353Y19597D02*
X22295Y20576D01*
X21895Y18761D02*
X21630Y19026D01*
X22885Y20281D01*
X23150Y20016D01*
X21895Y18761D01*
Y18908D02*
X21777Y19026D01*
X22885Y20133D01*
X23003Y20016D01*
X21895Y18908D01*
X21919Y19031D02*
X22861Y20010D01*
X28047Y29438D02*
X27781Y29703D01*
X29037Y30958D01*
X29302Y30693D01*
X28047Y29438D01*
Y29585D02*
X27929Y29703D01*
X29037Y30811D01*
X29154Y30693D01*
X28047Y29585D01*
X28070Y29709D02*
X29013Y30687D01*
X17369Y23286D02*
X17104Y23551D01*
X18359Y24806D01*
X18624Y24541D01*
X17369Y23286D01*
Y23433D02*
X17251Y23551D01*
X18359Y24659D01*
X18477Y24541D01*
X17369Y23433D01*
X17393Y23557D02*
X18336Y24535D01*
X17935Y22720D02*
X17670Y22985D01*
X18925Y24241D01*
X19190Y23975D01*
X17935Y22720D01*
Y22868D02*
X17817Y22985D01*
X18925Y24093D01*
X19043Y23975D01*
X17935Y22868D01*
X17959Y22991D02*
X18901Y23970D01*
X19066Y21589D02*
X18801Y21854D01*
X20056Y23109D01*
X20322Y22844D01*
X19066Y21589D01*
Y21736D02*
X18949Y21854D01*
X20056Y22962D01*
X20174Y22844D01*
X19066Y21736D01*
X19090Y21860D02*
X20033Y22838D01*
X19632Y21023D02*
X19367Y21288D01*
X20622Y22544D01*
X20887Y22278D01*
X19632Y21023D01*
Y21171D02*
X19514Y21288D01*
X20622Y22396D01*
X20740Y22278D01*
X19632Y21171D01*
X19656Y21294D02*
X20598Y22273D01*
X20198Y20458D02*
X19933Y20723D01*
X21188Y21978D01*
X21453Y21713D01*
X20198Y20458D01*
Y20605D02*
X20080Y20723D01*
X21188Y21831D01*
X21306Y21713D01*
X20198Y20605D01*
X20221Y20728D02*
X21164Y21707D01*
X22461Y18195D02*
X22195Y18460D01*
X23450Y19715D01*
X23716Y19450D01*
X22461Y18195D01*
Y18342D02*
X22343Y18460D01*
X23450Y19568D01*
X23568Y19450D01*
X22461Y18342D01*
X22484Y18466D02*
X23427Y19444D01*
X23026Y17629D02*
X22761Y17894D01*
X24016Y19149D01*
X24281Y18884D01*
X23026Y17629D01*
Y17776D02*
X22908Y17894D01*
X24016Y19002D01*
X24134Y18884D01*
X23026Y17776D01*
X23050Y17900D02*
X23992Y18879D01*
X27039Y17894D02*
X26774Y17629D01*
X25519Y18884D01*
X25784Y19149D01*
X27039Y17894D01*
X26892D02*
X26774Y17776D01*
X25666Y18884D01*
X25784Y19002D01*
X26892Y17894D01*
X26768Y17918D02*
X25790Y18861D01*
X27605Y18460D02*
X27340Y18195D01*
X26084Y19450D01*
X26350Y19715D01*
X27605Y18460D01*
X27457D02*
X27340Y18342D01*
X26232Y19450D01*
X26350Y19568D01*
X27457Y18460D01*
X27334Y18484D02*
X26355Y19426D01*
X28170Y19026D02*
X27905Y18761D01*
X26650Y20016D01*
X26915Y20281D01*
X28170Y19026D01*
X28023D02*
X27905Y18908D01*
X26797Y20016D01*
X26915Y20134D01*
X28023Y19026D01*
X27899Y19049D02*
X26921Y19992D01*
X28736Y19591D02*
X28471Y19326D01*
X27216Y20581D01*
X27481Y20846D01*
X28736Y19591D01*
X28589D02*
X28471Y19473D01*
X27363Y20581D01*
X27481Y20699D01*
X28589Y19591D01*
X28465Y19615D02*
X27487Y20558D01*
X30999Y21854D02*
X30734Y21589D01*
X29479Y22844D01*
X29744Y23109D01*
X30999Y21854D01*
X30852D02*
X30734Y21736D01*
X29626Y22844D01*
X29744Y22962D01*
X30852Y21854D01*
X30728Y21878D02*
X29749Y22820D01*
X31564Y22420D02*
X31299Y22155D01*
X30044Y23410D01*
X30309Y23675D01*
X31564Y22420D01*
X31417D02*
X31299Y22302D01*
X30191Y23410D01*
X30309Y23528D01*
X31417Y22420D01*
X31294Y22444D02*
X30315Y23386D01*
X32130Y22985D02*
X31865Y22720D01*
X30610Y23975D01*
X30875Y24241D01*
X32130Y22985D01*
X31983D02*
X31865Y22868D01*
X30757Y23975D01*
X30875Y24093D01*
X31983Y22985D01*
X31859Y23009D02*
X30881Y23952D01*
X32696Y23551D02*
X32431Y23286D01*
X31176Y24541D01*
X31441Y24806D01*
X32696Y23551D01*
X32549D02*
X32431Y23433D01*
X31323Y24541D01*
X31441Y24659D01*
X32549Y23551D01*
X32425Y23575D02*
X31446Y24517D01*
X25784Y31701D02*
X25519Y31966D01*
X26774Y33221D01*
X27039Y32956D01*
X25784Y31701D01*
Y31848D02*
X25666Y31966D01*
X26774Y33074D01*
X26892Y32956D01*
X25784Y31848D01*
X25808Y31971D02*
X26750Y32950D01*
X26350Y31135D02*
X26084Y31400D01*
X27340Y32655D01*
X27605Y32390D01*
X26350Y31135D01*
Y31282D02*
X26232Y31400D01*
X27340Y32508D01*
X27457Y32390D01*
X26350Y31282D01*
X26373Y31406D02*
X27316Y32384D01*
X26915Y30569D02*
X26650Y30834D01*
X27905Y32089D01*
X28170Y31824D01*
X26915Y30569D01*
Y30717D02*
X26797Y30834D01*
X27905Y31942D01*
X28023Y31824D01*
X26915Y30717D01*
X26939Y30840D02*
X27882Y31819D01*
X27481Y30004D02*
X27216Y30269D01*
X28471Y31524D01*
X28736Y31259D01*
X27481Y30004D01*
Y30151D02*
X27363Y30269D01*
X28471Y31376D01*
X28589Y31259D01*
X27481Y30151D01*
X27505Y30274D02*
X28447Y31253D01*
X28612Y28872D02*
X28347Y29137D01*
X29602Y30392D01*
X29867Y30127D01*
X28612Y28872D01*
Y29019D02*
X28494Y29137D01*
X29602Y30245D01*
X29720Y30127D01*
X28612Y29019D01*
X28636Y29143D02*
X29579Y30122D01*
X29178Y28306D02*
X28913Y28572D01*
X30168Y29827D01*
X30433Y29562D01*
X29178Y28306D01*
Y28454D02*
X29060Y28572D01*
X30168Y29679D01*
X30286Y29562D01*
X29178Y28454D01*
X29202Y28577D02*
X30144Y29556D01*
X29744Y27741D02*
X29479Y28006D01*
X30734Y29261D01*
X30999Y28996D01*
X29744Y27741D01*
Y27888D02*
X29626Y28006D01*
X30734Y29114D01*
X30851Y28996D01*
X29744Y27888D01*
X29767Y28012D02*
X30710Y28990D01*
X30309Y27175D02*
X30044Y27440D01*
X31299Y28695D01*
X31565Y28430D01*
X30309Y27175D01*
Y27322D02*
X30192Y27440D01*
X31299Y28548D01*
X31417Y28430D01*
X30309Y27322D01*
X30333Y27446D02*
X31276Y28424D01*
X30875Y26609D02*
X30610Y26875D01*
X31865Y28130D01*
X32130Y27865D01*
X30875Y26609D01*
Y26757D02*
X30757Y26875D01*
X31865Y27982D01*
X31983Y27865D01*
X30875Y26757D01*
X30899Y26880D02*
X31841Y27859D01*
X31441Y26044D02*
X31176Y26309D01*
X32431Y27564D01*
X32696Y27299D01*
X31441Y26044D01*
Y26191D02*
X31323Y26309D01*
X32431Y27417D01*
X32549Y27299D01*
X31441Y26191D01*
X31464Y26315D02*
X32407Y27293D01*
X18624Y26309D02*
X18359Y26044D01*
X17104Y27299D01*
X17369Y27564D01*
X18624Y26309D01*
X18477D02*
X18359Y26191D01*
X17251Y27299D01*
X17369Y27417D01*
X18477Y26309D01*
X18354Y26333D02*
X17375Y27275D01*
X19190Y26875D02*
X18925Y26609D01*
X17670Y27865D01*
X17935Y28130D01*
X19190Y26875D01*
X19043D02*
X18925Y26757D01*
X17817Y27865D01*
X17935Y27982D01*
X19043Y26875D01*
X18919Y26898D02*
X17941Y27841D01*
X19756Y27440D02*
X19491Y27175D01*
X18236Y28430D01*
X18501Y28695D01*
X19756Y27440D01*
X19608D02*
X19491Y27322D01*
X18383Y28430D01*
X18501Y28548D01*
X19608Y27440D01*
X19485Y27464D02*
X18506Y28406D01*
X20321Y28006D02*
X20056Y27741D01*
X18801Y28996D01*
X19066Y29261D01*
X20321Y28006D01*
X20174D02*
X20056Y27888D01*
X18949Y28996D01*
X19066Y29114D01*
X20174Y28006D01*
X20051Y28030D02*
X19072Y28972D01*
X20887Y28572D02*
X20622Y28306D01*
X19367Y29562D01*
X19632Y29827D01*
X20887Y28572D01*
X20740D02*
X20622Y28454D01*
X19514Y29562D01*
X19632Y29679D01*
X20740Y28572D01*
X20616Y28595D02*
X19638Y29538D01*
X21453Y29137D02*
X21188Y28872D01*
X19933Y30127D01*
X20198Y30392D01*
X21453Y29137D01*
X21306D02*
X21188Y29019D01*
X20080Y30127D01*
X20198Y30245D01*
X21306Y29137D01*
X21182Y29161D02*
X20203Y30104D01*
X22019Y29703D02*
X21753Y29438D01*
X20498Y30693D01*
X20763Y30958D01*
X22019Y29703D01*
X21871D02*
X21753Y29585D01*
X20646Y30693D01*
X20763Y30811D01*
X21871Y29703D01*
X21748Y29727D02*
X20769Y30669D01*
X22584Y30269D02*
X22319Y30004D01*
X21064Y31259D01*
X21329Y31524D01*
X22584Y30269D01*
X22437D02*
X22319Y30151D01*
X21211Y31259D01*
X21329Y31376D01*
X22437Y30269D01*
X22313Y30292D02*
X21335Y31235D01*
X23150Y30834D02*
X22885Y30569D01*
X21630Y31824D01*
X21895Y32089D01*
X23150Y30834D01*
X23003D02*
X22885Y30717D01*
X21777Y31824D01*
X21895Y31942D01*
X23003Y30834D01*
X22879Y30858D02*
X21901Y31801D01*
X23716Y31400D02*
X23450Y31135D01*
X22195Y32390D01*
X22460Y32655D01*
X23716Y31400D01*
X23568D02*
X23450Y31282D01*
X22343Y32390D01*
X22460Y32508D01*
X23568Y31400D01*
X23445Y31424D02*
X22466Y32366D01*
X24281Y31966D02*
X24016Y31701D01*
X22761Y32956D01*
X23026Y33221D01*
X24281Y31966D01*
X24134D02*
X24016Y31848D01*
X22908Y32956D01*
X23026Y33074D01*
X24134Y31966D01*
X24010Y31989D02*
X23032Y32932D01*
X30433Y21288D02*
X30168Y21023D01*
X28913Y22278D01*
X29178Y22544D01*
X30433Y21288D01*
X30286D02*
X30168Y21171D01*
X29060Y22278D01*
X29178Y22396D01*
X30286Y21288D01*
X30162Y21312D02*
X29184Y22255D01*
X29867Y20723D02*
X29602Y20458D01*
X28347Y21713D01*
X28612Y21978D01*
X29867Y20723D01*
X29720D02*
X29602Y20605D01*
X28494Y21713D01*
X28612Y21831D01*
X29720Y20723D01*
X29597Y20746D02*
X28618Y21689D01*
X29302Y20157D02*
X29037Y19892D01*
X27781Y21147D01*
X28047Y21412D01*
X29302Y20157D01*
X29154D02*
X29037Y20039D01*
X27929Y21147D01*
X28047Y21265D01*
X29154Y20157D01*
X29031Y20181D02*
X28052Y21123D01*
D12*
X22122Y4868D02*
D03*
Y7668D02*
D03*
X25243Y7637D02*
D03*
X25243Y4837D02*
D03*
X29743Y7662D02*
D03*
X29743Y4862D02*
D03*
X32518Y7637D02*
D03*
X32518Y4837D02*
D03*
X41568Y23562D02*
D03*
X41568Y20762D02*
D03*
X38357Y4838D02*
D03*
Y7638D02*
D03*
X5168Y9462D02*
D03*
X5168Y6662D02*
D03*
X7068Y15312D02*
D03*
X7068Y12512D02*
D03*
X8518Y9462D02*
D03*
X8518Y6662D02*
D03*
X35143Y7637D02*
D03*
X35143Y4837D02*
D03*
X14657Y5288D02*
D03*
Y8088D02*
D03*
X17257Y5288D02*
D03*
Y8088D02*
D03*
X11582Y6638D02*
D03*
X11582Y9438D02*
D03*
D13*
X23932Y11622D02*
D03*
X21132D02*
D03*
X26643Y11653D02*
D03*
X29443D02*
D03*
X21163Y14443D02*
D03*
X23963Y14443D02*
D03*
X41062Y13182D02*
D03*
X38262Y13182D02*
D03*
X29412Y14482D02*
D03*
X26612Y14482D02*
D03*
X35487Y12682D02*
D03*
X32687Y12682D02*
D03*
X41012Y10107D02*
D03*
X38212Y10107D02*
D03*
X41087Y16007D02*
D03*
X38287Y16007D02*
D03*
X10963Y34768D02*
D03*
X13763Y34768D02*
D03*
X1605Y15944D02*
D03*
X4405D02*
D03*
X1588Y18775D02*
D03*
X4388D02*
D03*
X10913Y40318D02*
D03*
X13713Y40318D02*
D03*
X1605Y21614D02*
D03*
X4405Y21614D02*
D03*
X1588Y24445D02*
D03*
X4388Y24445D02*
D03*
X10938Y37518D02*
D03*
X13738Y37518D02*
D03*
X1630Y27309D02*
D03*
X4430D02*
D03*
X1613Y30140D02*
D03*
X4413D02*
D03*
X47287Y26082D02*
D03*
Y23182D02*
D03*
X44487Y26082D02*
D03*
Y23182D02*
D03*
X47262Y20332D02*
D03*
X44462Y20332D02*
D03*
X1613Y39543D02*
D03*
X4413Y39543D02*
D03*
X1638Y34418D02*
D03*
X4438Y34418D02*
D03*
X47312Y32282D02*
D03*
X37888Y32293D02*
D03*
X40688D02*
D03*
X44512Y32282D02*
D03*
X37888Y28993D02*
D03*
X40688D02*
D03*
X47262Y28982D02*
D03*
X44462Y28982D02*
D03*
X8763Y20943D02*
D03*
X11563Y20943D02*
D03*
X46963Y9968D02*
D03*
X44163Y9968D02*
D03*
D14*
X43970Y12150D02*
D03*
X45240D02*
D03*
X46510D02*
D03*
X47780D02*
D03*
X43970Y17850D02*
D03*
X45240D02*
D03*
D15*
X46510Y17850D02*
D03*
X47780Y17850D02*
D03*
D16*
X47820Y2100D02*
Y8170D01*
X48800Y9150D01*
X44500Y7700D02*
X46768Y9968D01*
X42740Y2100D02*
Y4960D01*
X46768Y9968D02*
X46963D01*
X46425D02*
Y11625D01*
X44500Y6800D02*
Y7700D01*
X42625Y4925D02*
X44500Y6800D01*
X34150Y38100D02*
Y38450D01*
X15650Y39575D02*
X15925Y39850D01*
X15650Y38875D02*
Y39575D01*
X31936Y24046D02*
X33682Y22300D01*
X38800D01*
X14825Y31375D02*
X15900Y32450D01*
X8450Y31025D02*
X8800Y31375D01*
X4413Y30140D02*
X5273Y31000D01*
X4413Y30140D02*
X4430Y30123D01*
Y27309D02*
Y30123D01*
X8518Y10618D02*
X9125Y11225D01*
X8518Y9462D02*
Y10618D01*
X46550Y39325D02*
X46600Y39275D01*
X41568Y20762D02*
X41999Y20332D01*
X45240Y16160D02*
X45625Y15775D01*
X45240Y16160D02*
Y17850D01*
X41999Y20332D02*
X44462D01*
X45240Y19554D01*
Y17850D02*
Y19554D01*
X46550Y39325D02*
Y41825D01*
X46525Y41850D02*
X46550Y41825D01*
X27350Y40825D02*
X33300D01*
X39025Y38825D02*
X39725Y39525D01*
X38000Y18550D02*
X40250D01*
X14325Y40825D02*
X22025D01*
X27100Y40575D02*
X27350Y40825D01*
X30804Y22915D02*
X34794Y18925D01*
X22025Y40825D02*
X22275Y40575D01*
X27100D01*
X26600Y28350D02*
X26694D01*
X28542Y30198D01*
X23700Y21962D02*
Y22025D01*
X21824Y20086D02*
X23700Y21962D01*
X22500Y21894D02*
Y22975D01*
X21258Y20652D02*
X22500Y21894D01*
X33125Y32625D02*
X33250Y32500D01*
X27410Y31329D02*
X28706Y32625D01*
X33125D01*
X30225Y37950D02*
X31375Y36800D01*
X18475Y37550D02*
X25475D01*
X42697Y38000D02*
X45287Y40591D01*
X25475Y37550D02*
X25875Y37950D01*
X31375Y36800D02*
X35375D01*
X18075Y37150D02*
X18475Y37550D01*
X14279Y24046D02*
X17864D01*
X14250Y24075D02*
X14279Y24046D01*
X25875Y37950D02*
X30225D01*
X30050Y36950D02*
X31025Y35975D01*
X19675Y36575D02*
X26200D01*
X36575Y36700D02*
X42250D01*
X31025Y35975D02*
X35850D01*
X26200Y36575D02*
X26575Y36950D01*
X17925Y33531D02*
X21258Y30198D01*
X26575Y36950D02*
X30050D01*
X17925Y33531D02*
Y34825D01*
X19675Y36575D01*
X23963Y14443D02*
X26574D01*
X25125D02*
Y14475D01*
X25700Y8094D02*
Y9075D01*
X25243Y7637D02*
X25700Y8094D01*
X22122Y2398D02*
X22420Y2100D01*
X22122Y2398D02*
Y4868D01*
X25243Y2383D02*
Y4837D01*
X24960Y2100D02*
X25243Y2383D01*
X27410Y19521D02*
X28400Y18531D01*
X23932Y9478D02*
Y11622D01*
X22525Y13029D02*
X23932Y11622D01*
X22122Y7668D02*
X23932Y9478D01*
X22525Y13029D02*
Y16100D01*
X22850Y16425D01*
X27025D01*
X28400Y17800D01*
Y18531D01*
X26574Y14443D02*
X29275Y17144D01*
X27976Y20086D02*
X29275Y18787D01*
Y17144D02*
Y18787D01*
X26613Y11622D02*
X26643Y11653D01*
X23932Y11622D02*
X26613D01*
X32687Y12682D02*
Y16506D01*
X34975Y24025D02*
X35438Y23562D01*
X41568D01*
X28542Y20652D02*
X32687Y16506D01*
X17600Y28200D02*
X18430Y27370D01*
X12258Y27363D02*
X15438D01*
X16275Y28200D02*
X17600D01*
X15438Y27363D02*
X16275Y28200D01*
X16435Y25375D02*
X17864Y26804D01*
X12258Y24388D02*
X12588D01*
X13575Y25375D02*
X16435D01*
X12588Y24388D02*
X13575Y25375D01*
X45240Y11046D02*
Y12150D01*
X44163Y9968D02*
X45240Y11046D01*
X29107Y21218D02*
X33925Y16400D01*
X29673Y21783D02*
X35181Y16275D01*
X30239Y22349D02*
X35013Y17575D01*
X34794Y18925D02*
X37625D01*
X31370Y23480D02*
X34875Y19975D01*
X39025D01*
X34250Y14850D02*
Y15525D01*
X38357Y7638D02*
Y10262D01*
X29725Y8787D02*
X31363Y10425D01*
X29725Y8787D02*
X29743Y8768D01*
Y7662D02*
Y8768D01*
X31363Y10425D02*
X38194D01*
X38262Y10357D01*
X38357Y10262D01*
X33925Y15850D02*
Y16400D01*
Y15850D02*
X34250Y15525D01*
X35181Y16275D02*
X38019D01*
X38262Y13182D02*
Y15982D01*
X32518Y8793D02*
X32525Y8800D01*
X32518Y7637D02*
Y8793D01*
X38262Y15982D02*
X38287Y16007D01*
X38019Y16275D02*
X38287Y16007D01*
X35120Y4814D02*
X35143Y4837D01*
X35120Y2100D02*
Y4814D01*
X32518Y4837D02*
X32580Y4776D01*
Y2100D02*
Y4776D01*
X29743Y4862D02*
X30040Y4566D01*
Y2100D02*
Y4566D01*
X43970Y15480D02*
Y17850D01*
X43925Y15525D02*
X43975Y15475D01*
X43525Y35250D02*
X43900Y35625D01*
X26279Y32461D02*
X28193Y34375D01*
X35625D01*
X28525Y33575D02*
X36050D01*
X26845Y31895D02*
X28525Y33575D01*
X35625Y34375D02*
X36500Y35250D01*
X43525D01*
X36800Y34325D02*
X47225D01*
X36050Y33575D02*
X36800Y34325D01*
X47780Y17850D02*
X47975Y17655D01*
Y15600D02*
Y17655D01*
X47225Y34325D02*
X48000Y35100D01*
X37625Y18925D02*
X38000Y18550D01*
X36543Y26082D02*
X44487D01*
X36450Y26175D02*
X36543Y26082D01*
X35143Y9068D02*
X35150Y9075D01*
X35013Y17575D02*
X36400D01*
X35143Y7637D02*
Y9068D01*
X44487Y23182D02*
Y26082D01*
X35850Y35975D02*
X36575Y36700D01*
X35375Y36800D02*
X36575Y38000D01*
X44766Y40591D02*
X45287D01*
X36575Y38000D02*
X42697D01*
X35163Y32293D02*
X37888D01*
X30804Y27935D02*
X35163Y32293D01*
X15925Y39850D02*
X32750D01*
X17375Y38825D02*
X31925D01*
X33300Y40825D02*
X35300Y38825D01*
X33026Y29025D02*
X37825D01*
X31370Y27370D02*
X33026Y29025D01*
X35300Y38825D02*
X39025D01*
X13738Y37518D02*
X14293D01*
X15650Y38875D01*
X4388Y13787D02*
Y18775D01*
X31925Y38825D02*
X32150Y38600D01*
X17000Y38450D02*
X17375Y38825D01*
X15632Y34768D02*
X16400Y34000D01*
X13763Y34768D02*
X15632D01*
X15450Y30450D02*
X15525Y30375D01*
X6000Y28800D02*
X6025D01*
X5168Y9462D02*
Y13007D01*
X4388Y17325D02*
X4475D01*
X5273Y31000D02*
X8425D01*
X11575Y9444D02*
Y15494D01*
X18996Y22915D01*
X15912Y20962D02*
X18430Y23480D01*
X11493Y20962D02*
X15912D01*
X11493Y17699D02*
Y20962D01*
X17257Y13256D02*
X22955Y18955D01*
X17257Y8088D02*
Y13256D01*
X14657Y11787D02*
X22390Y19521D01*
X14657Y8088D02*
Y11787D01*
X9650Y30450D02*
X15450D01*
X9025Y29825D02*
X9650Y30450D01*
X7050Y29825D02*
X9025D01*
X6025Y28800D02*
X7050Y29825D01*
X32750Y39850D02*
X34150Y38450D01*
X8800Y31375D02*
X14825D01*
X14075Y32450D02*
X14125Y32500D01*
X7225Y32450D02*
X14075D01*
X4388Y24445D02*
X7145D01*
X4388D02*
X4405Y24428D01*
X7068Y16493D02*
X7175Y16600D01*
X4405Y21614D02*
Y24428D01*
X7068Y15312D02*
Y16493D01*
X4388Y18775D02*
X4405Y18758D01*
X4388Y13787D02*
X5168Y13007D01*
X12225Y2100D02*
X12260D01*
X8518Y5807D02*
Y6662D01*
Y5807D02*
X12225Y2100D01*
X9720D02*
Y2730D01*
X6850Y5600D02*
Y12194D01*
Y5600D02*
X9720Y2730D01*
X7180Y2100D02*
Y3270D01*
X5168Y5282D02*
Y6662D01*
Y5282D02*
X7180Y3270D01*
X40688Y32293D02*
X44501D01*
X11493Y17699D02*
X11575Y17617D01*
X11575Y9444D02*
X11582Y9438D01*
X17340Y2100D02*
Y5165D01*
X14800Y5200D02*
X14825Y5225D01*
X14800Y2100D02*
Y5200D01*
X42725Y4975D02*
X42740Y4960D01*
X40688Y28993D02*
X44451D01*
X41250D02*
X41268Y28975D01*
X44451Y28993D02*
X44462Y28982D01*
X44501Y32293D02*
X44512Y32282D01*
X42725Y7375D02*
X44163Y8813D01*
Y9968D01*
X36544Y11625D02*
X40175D01*
X41062Y12512D01*
Y13182D01*
X29950Y11200D02*
X34006D01*
X29412Y11738D02*
X29950Y11200D01*
X34006D02*
X35487Y12682D01*
X29412Y11738D02*
Y14482D01*
X35487Y12682D02*
X36544Y11625D01*
X28100Y27650D02*
Y28625D01*
X29107Y29632D01*
X26820Y18955D02*
X26845D01*
X25175Y20600D02*
X26820Y18955D01*
D17*
X47281Y20350D02*
X49000D01*
X48950Y20400D02*
X49000Y20350D01*
X46510Y17850D02*
Y19579D01*
X47281Y20350D01*
X1500Y14325D02*
Y31825D01*
X1975Y32300D01*
X1500Y14325D02*
X2225Y13600D01*
X6944Y42075D02*
X36183D01*
X11000Y34806D02*
Y42075D01*
X37667Y40591D02*
X39202Y42125D01*
X36183Y42075D02*
X37667Y40591D01*
X24950Y41850D02*
Y42075D01*
X4413Y39543D02*
X6944Y42075D01*
X46250Y42125D02*
X46525Y41850D01*
X39202Y42125D02*
X46250D01*
X4325Y34531D02*
Y35850D01*
Y34531D02*
X4438Y34418D01*
X10963Y34768D02*
X11000Y34806D01*
X23573Y35600D02*
X28050D01*
X22910Y34937D02*
X23573Y35600D01*
X17247Y17772D02*
X20693Y21218D01*
X17247Y17718D02*
Y17772D01*
D18*
X19069Y20725D02*
X21100Y22756D01*
X19561Y22349D02*
X21031Y23819D01*
X18200Y20988D02*
X19561Y22349D01*
X18200Y20725D02*
X19069D01*
X18200D02*
Y20988D01*
X21050Y23800D02*
X21075D01*
X21031Y23819D02*
X21237Y24025D01*
X21075Y23800D02*
X21100Y23775D01*
Y22756D02*
Y23775D01*
X21237Y24025D02*
X21300D01*
D19*
X1625Y41500D02*
D03*
X22910Y34937D02*
D03*
X35120Y2100D02*
D03*
X4640D02*
D03*
X7180D02*
D03*
X9720D02*
D03*
X12260D02*
D03*
X14800D02*
D03*
X17340D02*
D03*
X19880D02*
D03*
X22420D02*
D03*
X24960D02*
D03*
X27500D02*
D03*
X30040D02*
D03*
X32580D02*
D03*
X37660D02*
D03*
X40200D02*
D03*
X42740D02*
D03*
X45280D02*
D03*
X47820D02*
D03*
X11575Y12617D02*
D03*
X11575Y17617D02*
D03*
X42747Y40591D02*
D03*
X45287Y40591D02*
D03*
X47827D02*
D03*
D20*
X20370Y34937D02*
D03*
X2100Y2100D02*
D03*
X37667Y40591D02*
D03*
D21*
X9758Y24388D02*
D03*
Y27363D02*
D03*
D22*
X12258Y24388D02*
D03*
Y27363D02*
D03*
D23*
X47725Y7375D02*
D03*
X47625Y4925D02*
D03*
X42625D02*
D03*
X42725Y7375D02*
D03*
D24*
X2000Y13750D02*
D03*
X1525Y25900D02*
D03*
D03*
X1500Y23000D02*
D03*
X48625Y13600D02*
D03*
X13450Y22400D02*
D03*
X7525Y35000D02*
D03*
X7500Y39250D02*
D03*
X1975Y32300D02*
D03*
X2000Y37100D02*
D03*
X13700Y19575D02*
D03*
X13600Y13750D02*
D03*
X2100Y10000D02*
D03*
X2200Y5025D02*
D03*
X12200Y4575D02*
D03*
X19000Y12550D02*
D03*
X16050Y11000D02*
D03*
X30575Y16500D02*
D03*
X35600Y27850D02*
D03*
X35625Y30500D02*
D03*
X45250Y37400D02*
D03*
X45475Y15575D02*
D03*
X46600Y39275D02*
D03*
X4325Y35850D02*
D03*
X5350Y40600D02*
D03*
X24950Y41850D02*
D03*
X26600Y28350D02*
D03*
X23700Y22025D02*
D03*
X22500Y22975D02*
D03*
X33200Y32250D02*
D03*
X28050Y35600D02*
D03*
X25125Y14475D02*
D03*
X25700Y9075D02*
D03*
X14250Y24075D02*
D03*
X32687Y15250D02*
D03*
X34975Y24025D02*
D03*
X34250Y14850D02*
D03*
X29725Y8787D02*
D03*
X35275Y16275D02*
D03*
X32525Y8800D02*
D03*
X43900Y35625D02*
D03*
X43925Y15525D02*
D03*
X47675Y15550D02*
D03*
X48000Y35100D02*
D03*
X40250Y18550D02*
D03*
X36400Y17575D02*
D03*
X35150Y9075D02*
D03*
X36450Y26175D02*
D03*
X42250Y36700D02*
D03*
X18075Y37150D02*
D03*
X16400Y34000D02*
D03*
X39025Y19975D02*
D03*
X32150Y38600D02*
D03*
X17000Y38450D02*
D03*
X15525Y30375D02*
D03*
X6000Y28800D02*
D03*
X4475Y17325D02*
D03*
X38800Y22300D02*
D03*
X34150Y38100D02*
D03*
X15650Y39575D02*
D03*
X15900Y32450D02*
D03*
X8450Y31025D02*
D03*
X9125Y11225D02*
D03*
X7145Y24445D02*
D03*
X39725Y39525D02*
D03*
X14325Y40825D02*
D03*
X14125Y32500D02*
D03*
X7225Y32450D02*
D03*
X7175Y16600D02*
D03*
X41268Y28975D02*
D03*
X42550Y32293D02*
D03*
X1500Y28700D02*
D03*
Y20200D02*
D03*
X23587Y25357D02*
D03*
M02*
