%FSLAX43Y43*%
%MOMM*%
G71*
G01*
G75*
%ADD10C,0.300*%
%ADD11R,0.600X2.200*%
%ADD12R,0.600X2.200*%
%ADD13R,1.600X1.800*%
%ADD14O,2.000X1.000*%
%ADD15R,2.000X1.000*%
%ADD16R,0.800X2.500*%
%ADD17O,0.800X2.500*%
%ADD18R,0.600X1.700*%
%ADD19R,0.600X1.700*%
%ADD20R,1.800X1.600*%
%ADD21C,0.125*%
%ADD22C,0.400*%
%ADD23C,0.500*%
%ADD24R,1.400X1.400*%
%ADD25C,1.400*%
%ADD26C,4.000*%
%ADD27C,2.000*%
%ADD28C,1.500*%
%ADD29R,1.500X1.500*%
%ADD30R,1.300X1.300*%
%ADD31C,1.300*%
%ADD32C,1.200*%
%ADD33C,1.270*%
%ADD34R,0.850X1.300*%
%ADD35R,0.550X1.450*%
%ADD36R,0.550X1.450*%
%ADD37C,0.600*%
%ADD38R,0.803X2.403*%
%ADD39R,0.803X2.403*%
%ADD40R,1.803X2.003*%
%ADD41O,2.203X1.203*%
%ADD42R,2.203X1.203*%
%ADD43R,1.003X2.703*%
%ADD44O,1.003X2.703*%
%ADD45R,0.803X1.903*%
%ADD46R,0.803X1.903*%
%ADD47R,2.003X1.803*%
%ADD48R,1.603X1.603*%
%ADD49C,1.603*%
%ADD50C,4.203*%
%ADD51C,2.203*%
%ADD52C,1.703*%
%ADD53R,1.703X1.703*%
%ADD54R,1.503X1.503*%
%ADD55C,1.503*%
%ADD56C,1.403*%
%ADD57C,1.473*%
%ADD58R,1.053X1.503*%
%ADD59R,0.753X1.653*%
%ADD60R,0.753X1.653*%
D22*
X18062Y17462D02*
X16928Y18596D01*
X17920Y19588D01*
X19054Y18455D01*
X18062Y17462D01*
Y17934D02*
X17399Y18596D01*
X17920Y19117D01*
X18582Y18455D01*
X18062Y17934D01*
Y18405D02*
X17871Y18596D01*
X17920Y18645D01*
X18111Y18455D01*
X18062Y18405D01*
X17991Y18507D02*
Y18543D01*
X20042Y19442D02*
X18908Y20576D01*
X19900Y21568D01*
X21034Y20434D01*
X20042Y19442D01*
Y19914D02*
X19379Y20576D01*
X19900Y21097D01*
X20562Y20434D01*
X20042Y19914D01*
Y20385D02*
X19851Y20576D01*
X19900Y20625D01*
X20091Y20434D01*
X20042Y20385D01*
X19971Y20487D02*
Y20523D01*
D40*
X17513Y12257D02*
D03*
X14713D02*
D03*
X47613Y12682D02*
D03*
X44813Y12682D02*
D03*
X44787Y9693D02*
D03*
X47587D02*
D03*
D48*
X4189Y34433D02*
D03*
D49*
X1689D02*
D03*
D50*
X2800Y47200D02*
D03*
Y52200D02*
D03*
Y57200D02*
D03*
D51*
X47500Y36225D02*
D03*
X26300Y58250D02*
D03*
X6525Y57175D02*
D03*
X9500Y57225D02*
D03*
X6525Y52175D02*
D03*
X9500Y52225D02*
D03*
D52*
X11575Y17617D02*
D03*
Y12617D02*
D03*
X22910Y34937D02*
D03*
X45280Y2100D02*
D03*
X42740D02*
D03*
X47727Y39416D02*
D03*
X45187D02*
D03*
X42647D02*
D03*
X47820Y2100D02*
D03*
X40200D02*
D03*
X37660D02*
D03*
X32580D02*
D03*
X30040D02*
D03*
X27500D02*
D03*
X24960D02*
D03*
X22420D02*
D03*
X19880D02*
D03*
X17340D02*
D03*
X14800D02*
D03*
X12260D02*
D03*
X9720D02*
D03*
X7180D02*
D03*
X4640D02*
D03*
X35120D02*
D03*
D53*
X20370Y34937D02*
D03*
X37567Y39416D02*
D03*
X2100Y2100D02*
D03*
D54*
X9758Y27363D02*
D03*
Y24388D02*
D03*
D55*
X12258Y27363D02*
D03*
Y24388D02*
D03*
D56*
X48725Y14475D02*
D03*
X47600Y7575D02*
D03*
X18700Y12200D02*
D03*
X41450Y3875D02*
D03*
X35500Y40600D02*
D03*
X16700Y57050D02*
D03*
X34550Y57100D02*
D03*
X26279Y34196D02*
D03*
X9075Y46075D02*
D03*
X15000Y57225D02*
D03*
X30012Y55200D02*
D03*
X20238Y55913D02*
D03*
X13700Y55625D02*
D03*
X39450Y55200D02*
D03*
X45625Y53200D02*
D03*
X14900Y51850D02*
D03*
X34675Y53250D02*
D03*
X42550Y32293D02*
D03*
X41268Y28975D02*
D03*
X7175Y16600D02*
D03*
X7225Y32450D02*
D03*
X14125Y32500D02*
D03*
X14325Y40825D02*
D03*
X7145Y24445D02*
D03*
X9125Y11225D02*
D03*
X8450Y31025D02*
D03*
X15900Y32450D02*
D03*
X15650Y39575D02*
D03*
X38800Y22300D02*
D03*
X4475Y17325D02*
D03*
X6000Y28800D02*
D03*
X15525Y30375D02*
D03*
X17000Y38450D02*
D03*
X39025Y19975D02*
D03*
X16400Y34000D02*
D03*
X18075Y37150D02*
D03*
X42250Y36700D02*
D03*
X36450Y26175D02*
D03*
X35150Y9075D02*
D03*
X36400Y17575D02*
D03*
X40250Y18550D02*
D03*
X32525Y8800D02*
D03*
X35275Y16275D02*
D03*
X29725Y8787D02*
D03*
X34250Y14850D02*
D03*
X34975Y24025D02*
D03*
X32687Y15250D02*
D03*
X14250Y24075D02*
D03*
X25700Y9075D02*
D03*
X25125Y14475D02*
D03*
X28050Y35600D02*
D03*
X33200Y32250D02*
D03*
X22500Y22975D02*
D03*
X23700Y22025D02*
D03*
X26600Y28350D02*
D03*
X24950Y41850D02*
D03*
X5350Y40600D02*
D03*
X35625Y30500D02*
D03*
X35600Y27850D02*
D03*
X30575Y16500D02*
D03*
X16050Y10050D02*
D03*
X40850Y7100D02*
D03*
X12200Y4575D02*
D03*
X2200Y5025D02*
D03*
X2100Y10000D02*
D03*
X13600Y13750D02*
D03*
X13700Y19575D02*
D03*
X1975Y32300D02*
D03*
X7500Y39250D02*
D03*
X7525Y35000D02*
D03*
X25800Y47050D02*
D03*
X20800Y43825D02*
D03*
X38525Y37550D02*
D03*
X37475Y36400D02*
D03*
X33225Y33825D02*
D03*
X33400Y43850D02*
D03*
X44450Y18350D02*
D03*
X43625Y42700D02*
D03*
X13450Y22400D02*
D03*
X2000Y37100D02*
D03*
X1675Y41900D02*
D03*
X40500Y45575D02*
D03*
X21500Y9600D02*
D03*
D57*
X46100Y15625D02*
D03*
D58*
X44248Y5373D02*
D03*
X42348D02*
D03*
X43298Y7573D02*
D03*
D59*
X30000Y35450D02*
D03*
X30950Y35450D02*
D03*
X31900Y33300D02*
D03*
X30000D02*
D03*
D60*
X31900Y35450D02*
D03*
M02*
