METRIC,LZ
M48
T1F00S00C0.700
T2F00S00C0.711
T3F00S00C0.850
T4F00S00C1.000
T5F00S00C1.300
T6F00S00C2.000
%
T01
X00122Y0004575
X004145Y0003875
X00476Y0007575
X0048725Y0014475
X00461Y0015625
X004745Y00178
X004445Y001835
X004025Y001855
X0039025Y0019975
X00388Y00223
X0034975Y0024025
X003645Y0026175
X0036125Y00307
X0035Y00334
X0032625Y0031425
X00299Y00358
X00281Y0034125
X0026279Y0034196
X00266Y002835
X00237Y0022025
X00225Y0022975
X001425Y0024075
X001345Y00224
X00137Y0019575
X00099Y0018625
X000605Y0019125
X0007175Y001695
X0007145Y0024445
X0006Y00288
X000845Y0031025
X0007225Y003245
X0007525Y0035
X00075Y003925
X000615Y0041225
X0014325Y0040825
X001565Y0039575
X0017Y003845
X0018075Y003715
X00164Y0034
X00159Y003245
X0014125Y00325
X0015525Y0030375
X00138Y002895
X001325Y00145
X001605Y001005
X00187Y00122
X00215Y00096
X00257Y0009075
X0029725Y0008787
X0032525Y00088
X003515Y0009075
X003425Y001485
X0032687Y001525
X0030575Y00165
X0035275Y0016275
X00364Y0017575
X0025125Y0014475
X0009125Y0011225
X004085Y00071
X0041268Y0028975
X004255Y0032293
X00421Y0034575
X004225Y00367
X0038525Y003755
X0037475Y00364
X00355Y00406
X0040925
X0043625Y00427
X002475Y0041725
X0001675Y00419
X0002Y00371
X0001975Y00323
X00021Y001
X00022Y0005025
X0013675Y00502
X001379Y005511
X001505Y0056175
X0019425Y0053875
X0022125Y00564
X002911Y005676
X0027475Y0048525
X0025625Y0047275
X00213Y0046775
X00333Y0045575
X00405
X00433Y0048125
X0037285Y00538
X0047275Y0053875
T02
X00191Y004205
T03
X0001689Y0034433
X0004189
T04
X00021Y00021
X000464
X000718
X000972
X001226
X00148
X001734
X001988
X002242
X002496
X00275
X003004
X003258
X003512
X003766
X00402
X004274
X004528
X004782
X00475Y0036225
X0047727Y0039416
X0045187
X0042647
X0037567
X002291Y0034937
X002037
X0012258Y0027363
X0009758
Y0024388
X0012258
X0011575Y0017617
Y0012617
X00263Y005825
T05
X0006525Y0052175
X00095Y0052225
Y0057225
X0006525Y0057175
T06
X00028Y00472
Y00522
Y00572
M30
