METRIC,LZ
M48
T1F00S00C0.700
T2F00S00C0.711
T3F00S00C0.850
T4F00S00C1.000
T5F00S00C1.300
T6F00S00C2.000
%
T01
X00122Y0009575
X004145Y0008875
X00476Y0012575
X0048725Y0019475
X00461Y0020625
X004745Y00228
X004445Y002335
X004025Y002355
X0039025Y0024975
X00388Y00273
X0034975Y0029025
X003645Y0031175
X0036125Y00357
X0035Y00384
X0032625Y0036425
X00299Y00408
X00281Y0039125
X0026279Y0039196
X00266Y003335
X00237Y0027025
X00225Y0027975
X001425Y0029075
X001345Y00274
X00137Y0024575
X00099Y0023625
X000605Y0024125
X0007175Y002195
X0007145Y0029445
X0006Y00338
X000845Y0036025
X0007225Y003745
X0007525Y004
X00075Y004425
X000615Y0046225
X0015175Y00457
X0015525Y00441
X001735Y00436
X0018075Y004215
X00164Y0039
X00159Y003745
X0014125Y00375
X0015525Y0035375
X00138Y003395
X001325Y00195
X001605Y001505
X00187Y00172
X00215Y00146
X00257Y0014075
X0029725Y0013787
X0032525Y00138
X003515Y0014075
X003425Y001985
X0032687Y002025
X0030575Y00215
X0035275Y0021275
X00364Y0022575
X0025125Y0019475
X0009125Y0016225
X004085Y00121
X004155Y0032275
X004255Y0037293
X00421Y0039575
X004225Y00417
X0038525Y004255
X0037475Y00414
X00355Y00456
X0040925
X0043625Y00477
X002475Y0046725
X0001675Y00469
X0002Y00421
X0001975Y00373
X00021Y0015
X00022Y0010025
X0013675Y00552
X001379Y006011
X001505Y0061175
X0019425Y0058875
X0022125Y00614
X002911Y006176
X0027475Y0053525
X0025625Y0052275
X00213Y0051775
X00333Y0050575
X00405
X00433Y0053125
X0037285Y00588
X0047275Y0058875
T02
X00191Y004705
T03
X0001689Y0039433
X0004189
T04
X00021Y00071
X000464
X000718
X000972
X001226
X00148
X001734
X001988
X002242
X002496
X00275
X003004
X003258
X003512
X003766
X00402
X004274
X004528
X004782
X00475Y0041225
X0047727Y0044416
X0045187
X0042647
X0037567
X002291Y0039937
X002037
X0012258Y0032363
X0009758
Y0029388
X0012258
X0011575Y0022617
Y0017617
X00263Y006325
T05
X0006525Y0057175
X00095Y0057225
Y0062225
X0006525Y0062175
T06
X00028Y00522
Y00572
Y00622
M30
