%FSLAX43Y43*%
%MOMM*%
G71*
G01*
G75*
%ADD10C,0.300*%
%ADD11R,0.600X1.700*%
%ADD12R,1.600X1.800*%
%ADD13R,1.800X1.600*%
%ADD14R,1.450X0.550*%
%ADD15R,1.450X0.550*%
%ADD16O,2.000X1.000*%
%ADD17R,2.000X1.000*%
%ADD18R,0.600X2.150*%
%ADD19R,0.600X2.150*%
%ADD20R,0.600X2.200*%
%ADD21R,0.600X2.200*%
%ADD22R,0.600X1.700*%
%ADD23C,0.125*%
%ADD24C,0.500*%
%ADD25C,0.400*%
%ADD26R,1.400X1.400*%
%ADD27C,1.400*%
%ADD28C,4.000*%
%ADD29C,2.000*%
%ADD30C,1.500*%
%ADD31R,1.500X1.500*%
%ADD32R,1.300X1.300*%
%ADD33C,1.300*%
%ADD34C,1.270*%
%ADD35C,1.200*%
%ADD36R,0.850X1.300*%
%ADD37C,0.600*%
%ADD38R,0.803X1.903*%
%ADD39R,1.803X2.003*%
%ADD40R,2.003X1.803*%
%ADD41R,1.653X0.753*%
%ADD42R,1.653X0.753*%
%ADD43O,2.203X1.203*%
%ADD44R,2.203X1.203*%
%ADD45R,0.803X2.353*%
%ADD46R,0.803X2.353*%
%ADD47R,0.803X2.403*%
%ADD48R,0.803X2.403*%
%ADD49R,0.803X1.903*%
%ADD50R,1.603X1.603*%
%ADD51C,1.603*%
%ADD52C,4.203*%
%ADD53C,2.203*%
%ADD54C,1.703*%
%ADD55R,1.703X1.703*%
%ADD56R,1.503X1.503*%
%ADD57C,1.503*%
%ADD58C,1.473*%
%ADD59C,1.403*%
%ADD60R,1.053X1.503*%
D25*
X32917Y26118D02*
X31784Y27252D01*
X32776Y28244D01*
X33910Y27110D01*
X32917Y26118D01*
Y26589D02*
X32255Y27252D01*
X32776Y27772D01*
X33438Y27110D01*
X32917Y26589D01*
Y27061D02*
X32727Y27252D01*
X32776Y27301D01*
X32967Y27110D01*
X32917Y27061D01*
X32847Y27163D02*
Y27199D01*
X34897Y28098D02*
X33764Y29232D01*
X34756Y30224D01*
X35889Y29090D01*
X34897Y28098D01*
Y28569D02*
X34235Y29232D01*
X34756Y29752D01*
X35418Y29090D01*
X34897Y28569D01*
Y29041D02*
X34706Y29232D01*
X34756Y29281D01*
X34947Y29090D01*
X34897Y29041D01*
X34827Y29143D02*
Y29179D01*
X18062Y17462D02*
X16928Y18596D01*
X17920Y19588D01*
X19054Y18455D01*
X18062Y17462D01*
Y17934D02*
X17399Y18596D01*
X17920Y19117D01*
X18582Y18455D01*
X18062Y17934D01*
Y18405D02*
X17871Y18596D01*
X17920Y18645D01*
X18111Y18455D01*
X18062Y18405D01*
X17991Y18507D02*
Y18543D01*
X20042Y19442D02*
X18908Y20576D01*
X19900Y21568D01*
X21034Y20434D01*
X20042Y19442D01*
Y19914D02*
X19379Y20576D01*
X19900Y21097D01*
X20562Y20434D01*
X20042Y19914D01*
Y20385D02*
X19851Y20576D01*
X19900Y20625D01*
X20091Y20434D01*
X20042Y20385D01*
X19971Y20487D02*
Y20523D01*
D39*
X48162Y42793D02*
D03*
X45362Y42793D02*
D03*
X45338Y45382D02*
D03*
X48138Y45382D02*
D03*
X17513Y12257D02*
D03*
X14713D02*
D03*
X47613Y12682D02*
D03*
X44813Y12682D02*
D03*
X44787Y9693D02*
D03*
X47587D02*
D03*
D40*
X21318Y42063D02*
D03*
Y44863D02*
D03*
X17618Y54188D02*
D03*
Y56988D02*
D03*
D50*
X4189Y34433D02*
D03*
D51*
X1689D02*
D03*
D52*
X2800Y47200D02*
D03*
Y52200D02*
D03*
Y57200D02*
D03*
D53*
X47500Y36225D02*
D03*
X26300Y58250D02*
D03*
X6525Y57175D02*
D03*
X9500Y57225D02*
D03*
X6525Y52175D02*
D03*
X9500Y52225D02*
D03*
D54*
X11575Y17617D02*
D03*
Y12617D02*
D03*
X22910Y34937D02*
D03*
X45280Y2100D02*
D03*
X42740D02*
D03*
X47727Y39416D02*
D03*
X45187D02*
D03*
X42647D02*
D03*
X47820Y2100D02*
D03*
X40200D02*
D03*
X37660D02*
D03*
X32580D02*
D03*
X30040D02*
D03*
X27500D02*
D03*
X24960D02*
D03*
X22420D02*
D03*
X19880D02*
D03*
X17340D02*
D03*
X14800D02*
D03*
X12260D02*
D03*
X9720D02*
D03*
X7180D02*
D03*
X4640D02*
D03*
X35120D02*
D03*
D55*
X20370Y34937D02*
D03*
X37567Y39416D02*
D03*
X2100Y2100D02*
D03*
D56*
X9758Y27363D02*
D03*
Y24388D02*
D03*
D57*
X12258Y27363D02*
D03*
Y24388D02*
D03*
D58*
X19100Y42050D02*
D03*
X46100Y15625D02*
D03*
D59*
X13675Y50200D02*
D03*
X28100Y34125D02*
D03*
X27475Y48525D02*
D03*
X25625Y47275D02*
D03*
X32625Y31425D02*
D03*
X29900Y35800D02*
D03*
X35000Y33400D02*
D03*
X15050Y56175D02*
D03*
X19425Y53875D02*
D03*
X22125Y56400D02*
D03*
X29110Y56760D02*
D03*
X13790Y55110D02*
D03*
X37285Y53800D02*
D03*
X47275Y53875D02*
D03*
X48725Y14475D02*
D03*
X47600Y7575D02*
D03*
X18700Y12200D02*
D03*
X41450Y3875D02*
D03*
X35500Y40600D02*
D03*
X26279Y34196D02*
D03*
X42550Y32293D02*
D03*
X7175Y16950D02*
D03*
X7225Y32450D02*
D03*
X14125Y32500D02*
D03*
X14325Y40825D02*
D03*
X7145Y24445D02*
D03*
X9125Y11225D02*
D03*
X8450Y31025D02*
D03*
X15900Y32450D02*
D03*
X15650Y39575D02*
D03*
X38800Y22300D02*
D03*
X6050Y19125D02*
D03*
X6000Y28800D02*
D03*
X15525Y30375D02*
D03*
X17000Y38450D02*
D03*
X39025Y19975D02*
D03*
X16400Y34000D02*
D03*
X18075Y37150D02*
D03*
X42250Y36700D02*
D03*
X36450Y26175D02*
D03*
X35150Y9075D02*
D03*
X36400Y17575D02*
D03*
X40250Y18550D02*
D03*
X32525Y8800D02*
D03*
X35275Y16275D02*
D03*
X29725Y8787D02*
D03*
X34250Y14850D02*
D03*
X34975Y24025D02*
D03*
X32687Y15250D02*
D03*
X14250Y24075D02*
D03*
X25700Y9075D02*
D03*
X25125Y14475D02*
D03*
X22500Y22975D02*
D03*
X23700Y22025D02*
D03*
X26600Y28350D02*
D03*
X6150Y41225D02*
D03*
X36125Y30700D02*
D03*
X30575Y16500D02*
D03*
X16050Y10050D02*
D03*
X40850Y7100D02*
D03*
X12200Y4575D02*
D03*
X2200Y5025D02*
D03*
X2100Y10000D02*
D03*
X13250Y14500D02*
D03*
X13700Y19575D02*
D03*
X1975Y32300D02*
D03*
X7500Y39250D02*
D03*
X7525Y35000D02*
D03*
X38525Y37550D02*
D03*
X37475Y36400D02*
D03*
X44450Y18350D02*
D03*
X43625Y42700D02*
D03*
X13450Y22400D02*
D03*
X2000Y37100D02*
D03*
X1675Y41900D02*
D03*
X40500Y45575D02*
D03*
X21500Y9600D02*
D03*
X24750Y41725D02*
D03*
X41268Y28975D02*
D03*
X42100Y34575D02*
D03*
X40925Y40600D02*
D03*
X43300Y48125D02*
D03*
X33300Y45575D02*
D03*
X21300Y46775D02*
D03*
X13800Y28950D02*
D03*
X9900Y18625D02*
D03*
X47450Y17800D02*
D03*
D60*
X44248Y5373D02*
D03*
X42348D02*
D03*
X43298Y7573D02*
D03*
M02*
