%FSLAX43Y43*%
%MOMM*%
G71*
G01*
G75*
%ADD10C,0.300*%
%ADD11O,2.000X1.000*%
%ADD12R,2.000X1.000*%
%ADD13R,1.800X1.600*%
%ADD14R,1.600X1.800*%
%ADD15R,0.600X2.150*%
%ADD16R,0.600X2.150*%
%ADD17R,1.450X0.550*%
%ADD18R,1.450X0.550*%
%ADD19R,0.600X2.200*%
%ADD20R,0.600X2.200*%
%ADD21R,0.600X1.700*%
%ADD22R,0.600X1.700*%
%ADD23C,0.125*%
%ADD24C,0.500*%
%ADD25C,0.400*%
%ADD26R,1.400X1.400*%
%ADD27C,1.400*%
%ADD28C,4.000*%
%ADD29C,2.000*%
%ADD30C,1.500*%
%ADD31R,1.500X1.500*%
%ADD32R,1.300X1.300*%
%ADD33C,1.300*%
%ADD34C,1.200*%
%ADD35C,1.270*%
%ADD36R,0.850X1.300*%
%ADD37C,0.600*%
%ADD38C,0.200*%
%ADD39C,0.250*%
%ADD40C,0.254*%
D10*
X46285Y47365D02*
Y49915D01*
X38285Y47365D02*
X46285D01*
X38285D02*
Y65065D01*
X46235D01*
X46285Y49865D02*
Y65040D01*
X3789Y39433D02*
X4589D01*
X4189Y39033D02*
Y39833D01*
X7525Y56095D02*
Y63095D01*
X5525Y56175D02*
Y63175D01*
X10500Y56225D02*
Y63225D01*
X8500Y56305D02*
Y63305D01*
X4524Y19665D02*
Y22205D01*
Y25335D02*
Y27875D01*
X4549Y31030D02*
Y33570D01*
D38*
X19925Y53840D02*
G03*
X19925Y55110I0J635D01*
G01*
X5439Y39433D02*
G03*
X5439Y39433I-2500J0D01*
G01*
X48450Y17867D02*
G03*
X48450Y17133I0J-367D01*
G01*
X16925Y56383D02*
G03*
X16925Y55317I0J-533D01*
G01*
X5357Y54413D02*
X7957D01*
X5357Y49213D02*
X7957D01*
Y51113D01*
X5357Y49213D02*
Y51113D01*
X7957Y52513D02*
Y54413D01*
X5357Y52513D02*
Y54413D01*
X16738Y49093D02*
Y51693D01*
X11538Y49093D02*
Y51693D01*
Y49093D02*
X13438D01*
X11538Y51693D02*
X13438D01*
X14838Y49093D02*
X16738D01*
X14838Y51693D02*
X16738D01*
X19925Y57625D02*
X30325D01*
X19925Y51325D02*
X30325D01*
Y57625D01*
X19925Y55110D02*
Y57625D01*
Y51325D02*
Y53840D01*
X29525Y40150D02*
X33925D01*
X29525Y36850D02*
X33925D01*
Y40150D01*
X29525Y36850D02*
Y40150D01*
X46913Y11718D02*
X48813D01*
X46913Y9118D02*
X48813D01*
X43613Y11718D02*
X45513D01*
X43613Y9118D02*
X45513D01*
X43613D02*
Y11718D01*
X48813Y9118D02*
Y11718D01*
X48450Y17867D02*
Y18600D01*
Y16400D02*
Y17133D01*
X43450Y16400D02*
Y18600D01*
X48450D01*
X43450Y16400D02*
X48450D01*
X16925Y56383D02*
Y57450D01*
Y54250D02*
Y55317D01*
X11925Y54250D02*
Y57450D01*
X16925D01*
X11925Y54250D02*
X16925D01*
X8243Y49212D02*
X10843D01*
X8243Y54412D02*
X10843D01*
X8243Y52512D02*
Y54412D01*
X10843Y52512D02*
Y54412D01*
X8243Y51112D02*
X8243Y49212D01*
X10843D02*
Y51112D01*
X39565Y8370D02*
X39777Y8370D01*
X2735D02*
X49090D01*
X830D02*
X2735D01*
X830Y5830D02*
Y8370D01*
Y5830D02*
X49090D01*
Y8370D01*
X48997Y43146D02*
Y45686D01*
X36297Y43146D02*
X48997D01*
X36297Y45686D02*
X48997D01*
X36297Y43146D02*
Y45686D01*
X10863Y27243D02*
X12763D01*
X10863Y24643D02*
X12763Y24643D01*
X7563Y27243D02*
X9463D01*
X7563Y24643D02*
X9463D01*
X7563D02*
Y27243D01*
X12763Y24643D02*
Y27243D01*
X10282Y13738D02*
Y15638D01*
X12882D02*
X12882Y13738D01*
X10282Y10438D02*
Y12338D01*
X12882Y10438D02*
Y12338D01*
X10282Y10438D02*
X12882D01*
X10282Y15638D02*
X12882D01*
X15957Y12388D02*
Y14288D01*
X18557Y12388D02*
Y14288D01*
X15957Y9088D02*
Y10988D01*
X18557Y9088D02*
Y10988D01*
X15957Y9088D02*
X18557D01*
X15957Y14288D02*
X18557D01*
X13357Y12388D02*
Y14288D01*
X15957Y12388D02*
Y14288D01*
X13357Y9088D02*
Y10988D01*
X15957Y9088D02*
Y10988D01*
X13357Y9088D02*
X15957D01*
X13357Y14288D02*
X15957D01*
X43262Y32682D02*
X45162D01*
X43262Y35282D02*
X45162Y35282D01*
X46562Y32682D02*
X48462D01*
X46562Y35282D02*
X48462D01*
Y32682D02*
Y35282D01*
X43262Y32682D02*
Y35282D01*
X43312Y35982D02*
X45212D01*
X43312Y38582D02*
X45212Y38582D01*
X46612Y35982D02*
X48512D01*
X46612Y38582D02*
X48512D01*
Y35982D02*
Y38582D01*
X43312Y35982D02*
Y38582D01*
X39988Y35293D02*
X41888D01*
X39988Y32693D02*
X41888D01*
X36688Y35293D02*
X38588D01*
X36688Y32693D02*
X38588D01*
X36688D02*
Y35293D01*
X41888Y32693D02*
Y35293D01*
X39988Y38593D02*
X41888D01*
X39988Y35993D02*
X41888D01*
X36688Y38593D02*
X38588D01*
X36688Y35993D02*
X38588D01*
X36688D02*
Y38593D01*
X41888Y35993D02*
Y38593D01*
X24900Y23920D02*
X31405Y30425D01*
X18395D02*
X24900Y36930D01*
X18395Y30425D02*
X24900Y23920D01*
Y36930D02*
X31405Y30425D01*
X3713Y45843D02*
X5613D01*
X3713Y43243D02*
X5613Y43243D01*
X413Y45843D02*
X2313D01*
X413Y43243D02*
X2313D01*
X413D02*
Y45843D01*
X5613Y43243D02*
Y45843D01*
X43262Y24032D02*
X45162D01*
X43262Y26632D02*
X45162Y26632D01*
X46562Y24032D02*
X48462D01*
X46562Y26632D02*
X48462D01*
Y24032D02*
Y26632D01*
X43262Y24032D02*
Y26632D01*
X43287Y26882D02*
X45187D01*
X43287Y29482D02*
X45187Y29482D01*
X46587Y26882D02*
X48487D01*
X46587Y29482D02*
X48487D01*
Y26882D02*
Y29482D01*
X43287Y26882D02*
Y29482D01*
X36443Y8637D02*
Y10537D01*
X33843D02*
X33843Y8637D01*
X36443Y11937D02*
Y13837D01*
X33843Y11937D02*
Y13837D01*
X36443D01*
X33843Y8637D02*
X36443D01*
X43287Y29782D02*
X45187D01*
X43287Y32382D02*
X45187Y32382D01*
X46587Y29782D02*
X48487D01*
X46587Y32382D02*
X48487D01*
Y29782D02*
Y32382D01*
X43287Y29782D02*
Y32382D01*
X3688Y25075D02*
X5588D01*
X3688Y22475D02*
X5588D01*
X388Y25075D02*
X2288D01*
X388Y22475D02*
X2288D01*
X388D02*
Y25075D01*
X5588Y22475D02*
Y25075D01*
X3688Y30745D02*
X5588D01*
X3688Y28145D02*
X5588D01*
X388Y30745D02*
X2288D01*
X388Y28145D02*
X2288Y28145D01*
X388Y28145D02*
Y30745D01*
X5588Y28145D02*
Y30745D01*
X3713Y36440D02*
X5613D01*
X3713Y33840D02*
X5613Y33840D01*
X413Y36440D02*
X2313Y36440D01*
X413Y33840D02*
X2313D01*
X413D02*
X413Y36440D01*
X5613Y33840D02*
X5613Y36440D01*
X405Y19644D02*
X2305D01*
X405Y22244D02*
X2305D01*
X3705Y19644D02*
X5605Y19644D01*
X3705Y22244D02*
X5605Y22244D01*
X5605Y19644D02*
X5605Y22244D01*
X405Y19644D02*
Y22244D01*
X405Y25314D02*
X2305Y25314D01*
X405Y27914D02*
X2305D01*
X3705Y25314D02*
X5605Y25314D01*
X3705Y27914D02*
X5605Y27914D01*
Y25314D02*
Y27914D01*
X405Y25314D02*
Y27914D01*
X430Y31009D02*
X2330D01*
X430Y33609D02*
X2330D01*
X3730Y31009D02*
X5630D01*
X3730Y33609D02*
X5630D01*
Y31009D02*
Y33609D01*
X430Y31009D02*
Y33609D01*
X13063Y41068D02*
X14963D01*
X13063Y38468D02*
X14963Y38468D01*
X9763Y41068D02*
X11663D01*
X9763Y38468D02*
X11663D01*
X9763D02*
Y41068D01*
X14963Y38468D02*
Y41068D01*
X6468Y10462D02*
Y12362D01*
X3868D02*
X3868Y10462D01*
X6468Y13762D02*
Y15662D01*
X3868Y13762D02*
Y15662D01*
X6468D01*
X3868Y10462D02*
X6468D01*
X13013Y46618D02*
X14913D01*
X13013Y44018D02*
X14913Y44018D01*
X9713Y46618D02*
X11613D01*
X9713Y44018D02*
X11613D01*
X9713D02*
Y46618D01*
X14913Y44018D02*
Y46618D01*
X8368Y16312D02*
Y18212D01*
X5768D02*
X5768Y16312D01*
X8368Y19612D02*
Y21512D01*
X5768Y19612D02*
Y21512D01*
X8368D01*
X5768Y16312D02*
X8368D01*
X13038Y43818D02*
X14938D01*
X13038Y41218D02*
X14938Y41218D01*
X9738Y43818D02*
X11638D01*
X9738Y41218D02*
X11638D01*
X9738D02*
Y43818D01*
X14938Y41218D02*
Y43818D01*
X9818Y10462D02*
Y12362D01*
X7218D02*
X7218Y10462D01*
X9818Y13762D02*
Y15662D01*
X7218Y13762D02*
Y15662D01*
X9818D01*
X7218Y10462D02*
X9818D01*
X37087Y19707D02*
X38987D01*
X37087Y22307D02*
X38987Y22307D01*
X40387Y19707D02*
X42287D01*
X40387Y22307D02*
X42287D01*
Y19707D02*
Y22307D01*
X37087Y19707D02*
Y22307D01*
X37012Y13807D02*
X38912D01*
X37012Y16407D02*
X38912Y16407D01*
X40312Y13807D02*
X42212D01*
X40312Y16407D02*
X42212D01*
Y13807D02*
Y16407D01*
X37012Y13807D02*
Y16407D01*
X31487Y16382D02*
X33387D01*
X31487Y18982D02*
X33387Y18982D01*
X34787Y16382D02*
X36687D01*
X34787Y18982D02*
X36687D01*
Y16382D02*
Y18982D01*
X31487Y16382D02*
Y18982D01*
X25412Y18182D02*
X27312D01*
X25412Y20782D02*
X27312Y20782D01*
X28712Y18182D02*
X30612D01*
X28712Y20782D02*
X30612D01*
Y18182D02*
Y20782D01*
X25412Y18182D02*
Y20782D01*
X33818Y8637D02*
Y10537D01*
X31218D02*
X31218Y8637D01*
X33818Y11937D02*
Y13837D01*
X31218Y11937D02*
Y13837D01*
X33818D01*
X31218Y8637D02*
X33818D01*
X31043Y8662D02*
Y10562D01*
X28443D02*
X28443Y8662D01*
X31043Y11962D02*
Y13862D01*
X28443Y11962D02*
Y13862D01*
X31043D01*
X28443Y8662D02*
X31043D01*
X26543Y8637D02*
Y10537D01*
X23943D02*
X23943Y8637D01*
X26543Y11937D02*
Y13837D01*
X23943Y11937D02*
Y13837D01*
X26543D01*
X23943Y8637D02*
X26543D01*
X37062Y16882D02*
X38962D01*
X37062Y19482D02*
X38962Y19482D01*
X40362Y16882D02*
X42262D01*
X40362Y19482D02*
X42262D01*
Y16882D02*
Y19482D01*
X37062Y16882D02*
Y19482D01*
X37057Y11938D02*
Y13838D01*
X39657Y11938D02*
Y13838D01*
X37057Y8638D02*
Y10538D01*
X39657Y8638D02*
Y10538D01*
X37057Y8638D02*
X39657D01*
X37057Y13838D02*
X39657D01*
X42868Y24562D02*
Y26462D01*
X40268D02*
X40268Y24562D01*
X42868Y27862D02*
Y29762D01*
X40268Y27862D02*
Y29762D01*
X42868D01*
X40268Y24562D02*
X42868D01*
X23263Y20743D02*
X25163D01*
X23263Y18143D02*
X25163Y18143D01*
X19963Y20743D02*
X21863D01*
X19963Y18143D02*
X21863D01*
X19963D02*
Y20743D01*
X25163Y18143D02*
Y20743D01*
X25443Y15353D02*
X27343D01*
X25443Y17953D02*
X27343D01*
X28743Y15353D02*
X30643D01*
X28743Y17953D02*
X30643Y17953D01*
Y15353D02*
Y17953D01*
X25443Y15353D02*
Y17953D01*
X23422Y8668D02*
Y10568D01*
X20822Y8668D02*
Y10568D01*
X23422Y11968D02*
Y13868D01*
X20822D02*
X20822Y11968D01*
X20822Y13868D02*
X23422D01*
X20822Y8668D02*
X23422D01*
X23232Y17922D02*
X25132D01*
X23232Y15322D02*
X25132D01*
X19932Y17922D02*
X21832D01*
X19932Y15322D02*
X21832Y15322D01*
X19932Y15322D02*
Y17922D01*
X25132Y15322D02*
Y17922D01*
X15832Y23142D02*
X17176Y24486D01*
X17671Y21304D02*
X19014Y22647D01*
X13499Y20809D02*
X14842Y22152D01*
X15337Y18970D02*
X16681Y20314D01*
X13499Y20809D02*
X15337Y18970D01*
X17176Y24486D02*
X19014Y22647D01*
X24180Y41207D02*
X24180Y38667D01*
X19100D02*
X24180D01*
X19100D02*
Y41207D01*
X24180D01*
D39*
X19955Y49850D02*
G03*
X19955Y49850I-125J0D01*
G01*
X32925Y36200D02*
G03*
X32925Y36200I-125J0D01*
G01*
X48830Y20100D02*
G03*
X48830Y20100I-125J0D01*
G01*
X17305Y58700D02*
G03*
X17305Y58700I-125J0D01*
G01*
X17424Y29612D02*
G03*
X17424Y29612I-125J0D01*
G01*
D40*
X5540Y56079D02*
G03*
X7541Y56079I1000J0D01*
G01*
X7510Y63191D02*
G03*
X5509Y63191I-1000J0D01*
G01*
X8515Y56209D02*
G03*
X10516Y56209I1000J0D01*
G01*
X10485Y63321D02*
G03*
X8484Y63321I-1000J0D01*
G01*
X13075Y22617D02*
G03*
X10075Y22617I-1500J0D01*
G01*
X10075Y17617D02*
G03*
X13072Y17717I1500J0D01*
G01*
X10075Y17617D02*
Y22617D01*
X13075Y17617D02*
Y22617D01*
X8658Y33163D02*
Y33663D01*
X13258D01*
Y33563D02*
Y33663D01*
X8658Y31063D02*
Y33563D01*
X13258Y31063D02*
Y33563D01*
X13158Y31063D02*
X13258D01*
X8758Y31063D02*
X13158Y31063D01*
X8758Y28088D02*
X13158Y28088D01*
X13258D01*
Y30588D01*
X8658Y28088D02*
Y30588D01*
X13258D02*
Y30688D01*
X8658D02*
X13258D01*
X8658Y30188D02*
Y30688D01*
X40993Y56975D02*
Y55705D01*
X41247Y55451D01*
X41754D01*
X42008Y55705D01*
Y56975D01*
X43532D02*
X42516D01*
Y56213D01*
X43024Y56467D01*
X43278D01*
X43532Y56213D01*
Y55705D01*
X43278Y55451D01*
X42770D01*
X42516Y55705D01*
X7418Y49781D02*
X5894D01*
Y50543D01*
X6148Y50797D01*
X6656D01*
X6910Y50543D01*
Y49781D01*
Y50289D02*
X7418Y50797D01*
Y52321D02*
Y51305D01*
X6402Y52321D01*
X6148D01*
X5894Y52067D01*
Y51559D01*
X6148Y51305D01*
X5894Y53844D02*
Y52828D01*
X6656D01*
X6402Y53336D01*
Y53590D01*
X6656Y53844D01*
X7164D01*
X7418Y53590D01*
Y53082D01*
X7164Y52828D01*
X13133Y50899D02*
X12879Y51153D01*
X12371D01*
X12117Y50899D01*
Y49883D01*
X12371Y49629D01*
X12879D01*
X13133Y49883D01*
X14656Y49629D02*
X13641D01*
X14656Y50645D01*
Y50899D01*
X14402Y51153D01*
X13894D01*
X13641Y50899D01*
X15164D02*
X15418Y51153D01*
X15926D01*
X16180Y50899D01*
Y50645D01*
X15926Y50391D01*
X15672D01*
X15926D01*
X16180Y50137D01*
Y49883D01*
X15926Y49629D01*
X15418D01*
X15164Y49883D01*
X23725Y55242D02*
Y53972D01*
X23979Y53718D01*
X24487D01*
X24740Y53972D01*
Y55242D01*
X25248Y54988D02*
X25502Y55242D01*
X26010D01*
X26264Y54988D01*
Y54734D01*
X26010Y54480D01*
X25756D01*
X26010D01*
X26264Y54226D01*
Y53972D01*
X26010Y53718D01*
X25502D01*
X25248Y53972D01*
X30500Y39374D02*
Y38104D01*
X30754Y37850D01*
X31262D01*
X31516Y38104D01*
Y39374D01*
X32785Y37850D02*
Y39374D01*
X32024Y38612D01*
X33039D01*
X1609Y44076D02*
X1355Y44330D01*
X848D01*
X594Y44076D01*
Y43060D01*
X848Y42806D01*
X1355D01*
X1609Y43060D01*
X2117Y42806D02*
X2625D01*
X2371D01*
Y44330D01*
X2117Y44076D01*
X3387Y43060D02*
X3641Y42806D01*
X4148D01*
X4402Y43060D01*
Y44076D01*
X4148Y44330D01*
X3641D01*
X3387Y44076D01*
Y43822D01*
X3641Y43568D01*
X4402D01*
X44185Y9664D02*
Y11187D01*
X44947D01*
X45201Y10933D01*
Y10426D01*
X44947Y10172D01*
X44185D01*
X44693D02*
X45201Y9664D01*
X46725D02*
X45709D01*
X46725Y10679D01*
Y10933D01*
X46471Y11187D01*
X45963D01*
X45709Y10933D01*
X47232D02*
X47486Y11187D01*
X47994D01*
X48248Y10933D01*
Y10679D01*
X47994Y10426D01*
X48248Y10172D01*
Y9918D01*
X47994Y9664D01*
X47486D01*
X47232Y9918D01*
Y10172D01*
X47486Y10426D01*
X47232Y10679D01*
Y10933D01*
X47486Y10426D02*
X47994D01*
X44872Y18252D02*
Y16728D01*
X45634D01*
X45888Y16982D01*
Y17998D01*
X45634Y18252D01*
X44872D01*
X47157Y16728D02*
Y18252D01*
X46396Y17490D01*
X47411D01*
X2875Y51850D02*
X3383D01*
X3129D01*
Y53374D01*
X2875Y53120D01*
X3891Y57050D02*
X2875D01*
X3891Y58066D01*
Y58320D01*
X3637Y58574D01*
X3129D01*
X2875Y58320D01*
X2700Y63195D02*
X2954Y63449D01*
X3462D01*
X3716Y63195D01*
Y62941D01*
X3462Y62687D01*
X3208D01*
X3462D01*
X3716Y62433D01*
Y62179D01*
X3462Y61925D01*
X2954D01*
X2700Y62179D01*
X13350Y56599D02*
Y55329D01*
X13604Y55075D01*
X14112D01*
X14366Y55329D01*
Y56599D01*
X15889Y55075D02*
X14874D01*
X15889Y56091D01*
Y56345D01*
X15635Y56599D01*
X15127D01*
X14874Y56345D01*
X10314Y50543D02*
X8790D01*
Y51305D01*
X9044Y51559D01*
X9552D01*
X9806Y51305D01*
Y50543D01*
Y51051D02*
X10314Y51559D01*
X9044Y52067D02*
X8790Y52321D01*
Y52829D01*
X9044Y53083D01*
X9298D01*
X9552Y52829D01*
Y52575D01*
Y52829D01*
X9806Y53083D01*
X10060D01*
X10314Y52829D01*
Y52321D01*
X10060Y52067D01*
X7291Y58367D02*
X5767D01*
Y59129D01*
X6021Y59383D01*
X6529D01*
X6783Y59129D01*
Y58367D01*
Y58875D02*
X7291Y59383D01*
Y60907D02*
Y59891D01*
X6275Y60907D01*
X6021D01*
X5767Y60653D01*
Y60145D01*
X6021Y59891D01*
X10263Y58748D02*
X8739D01*
Y59509D01*
X8993Y59763D01*
X9501D01*
X9755Y59509D01*
Y58748D01*
Y59255D02*
X10263Y59763D01*
Y60271D02*
Y60779D01*
Y60525D01*
X8739D01*
X8993Y60271D01*
X24207Y7871D02*
X23699D01*
X23953D01*
Y6601D01*
X23699Y6347D01*
X23445D01*
X23191Y6601D01*
X24715Y6347D02*
Y7871D01*
X25477D01*
X25731Y7617D01*
Y7109D01*
X25477Y6855D01*
X24715D01*
X26238Y6347D02*
X26746D01*
X26492D01*
Y7871D01*
X26238Y7617D01*
X41636Y45180D02*
X41128D01*
X41382D01*
Y43911D01*
X41128Y43657D01*
X40875D01*
X40621Y43911D01*
X42144Y43657D02*
Y45180D01*
X42906D01*
X43160Y44926D01*
Y44419D01*
X42906Y44165D01*
X42144D01*
X44683Y43657D02*
X43668D01*
X44683Y44672D01*
Y44926D01*
X44429Y45180D01*
X43922D01*
X43668Y44926D01*
X10161Y26464D02*
X9907Y26718D01*
X9399D01*
X9145Y26464D01*
Y25448D01*
X9399Y25194D01*
X9907D01*
X10161Y25448D01*
X10669Y25194D02*
X11177D01*
X10923D01*
Y26718D01*
X10669Y26464D01*
X11076Y12783D02*
X10822Y12529D01*
Y12021D01*
X11076Y11767D01*
X12092D01*
X12346Y12021D01*
Y12529D01*
X12092Y12783D01*
X12346Y14306D02*
Y13290D01*
X11330Y14306D01*
X11076D01*
X10822Y14052D01*
Y13544D01*
X11076Y13290D01*
X10822Y19108D02*
X11076D01*
X11584Y19615D01*
X11076Y20123D01*
X10822D01*
X11584Y19615D02*
X12346D01*
Y20631D02*
Y21139D01*
Y20885D01*
X10822D01*
X11076Y20631D01*
X18023Y10408D02*
X16499D01*
Y11170D01*
X16753Y11423D01*
X17261D01*
X17515Y11170D01*
Y10408D01*
Y10916D02*
X18023Y11423D01*
X16499Y12947D02*
Y11931D01*
X17261D01*
X17007Y12439D01*
Y12693D01*
X17261Y12947D01*
X17769D01*
X18023Y12693D01*
Y12185D01*
X17769Y11931D01*
X15418Y10417D02*
X13894D01*
Y11179D01*
X14148Y11433D01*
X14656D01*
X14910Y11179D01*
Y10417D01*
Y10925D02*
X15418Y11433D01*
Y12703D02*
X13894D01*
X14656Y11941D01*
Y12957D01*
X45601Y34489D02*
X45347Y34743D01*
X44839D01*
X44585Y34489D01*
Y33473D01*
X44839Y33219D01*
X45347D01*
X45601Y33473D01*
X46871Y33219D02*
Y34743D01*
X46109Y33981D01*
X47125D01*
X45649Y37789D02*
X45395Y38043D01*
X44887D01*
X44633Y37789D01*
Y36774D01*
X44887Y36520D01*
X45395D01*
X45649Y36774D01*
X46157Y37789D02*
X46411Y38043D01*
X46919D01*
X47173Y37789D01*
Y37535D01*
X46919Y37281D01*
X46665D01*
X46919D01*
X47173Y37027D01*
Y36774D01*
X46919Y36520D01*
X46411D01*
X46157Y36774D01*
X38029Y33243D02*
Y34767D01*
X38791D01*
X39045Y34513D01*
Y34005D01*
X38791Y33751D01*
X38029D01*
X38537D02*
X39045Y33243D01*
X40569Y34767D02*
X40061Y34513D01*
X39553Y34005D01*
Y33497D01*
X39807Y33243D01*
X40315D01*
X40569Y33497D01*
Y33751D01*
X40315Y34005D01*
X39553D01*
X38029Y36520D02*
Y38043D01*
X38791D01*
X39045Y37789D01*
Y37281D01*
X38791Y37027D01*
X38029D01*
X38537D02*
X39045Y36520D01*
X39553Y38043D02*
X40569D01*
Y37789D01*
X39553Y36774D01*
Y36520D01*
X23874Y31192D02*
Y29923D01*
X24128Y29669D01*
X24636D01*
X24890Y29923D01*
Y31192D01*
X25398Y29669D02*
X25906D01*
X25652D01*
Y31192D01*
X25398Y30938D01*
X2769Y45057D02*
X2516Y45311D01*
X2008D01*
X1754Y45057D01*
Y44041D01*
X2008Y43787D01*
X2516D01*
X2769Y44041D01*
X4293Y45311D02*
X3785Y45057D01*
X3277Y44549D01*
Y44041D01*
X3531Y43787D01*
X4039D01*
X4293Y44041D01*
Y44295D01*
X4039Y44549D01*
X3277D01*
X45619Y25829D02*
X45365Y26083D01*
X44858D01*
X44604Y25829D01*
Y24813D01*
X44858Y24559D01*
X45365D01*
X45619Y24813D01*
X46127Y26083D02*
X47143D01*
Y25829D01*
X46127Y24813D01*
Y24559D01*
X45516Y28695D02*
X45262Y28949D01*
X44754D01*
X44500Y28695D01*
Y27679D01*
X44754Y27425D01*
X45262D01*
X45516Y27679D01*
X46024Y28695D02*
X46277Y28949D01*
X46785D01*
X47039Y28695D01*
Y28441D01*
X46785Y28187D01*
X47039Y27933D01*
Y27679D01*
X46785Y27425D01*
X46277D01*
X46024Y27679D01*
Y27933D01*
X46277Y28187D01*
X46024Y28441D01*
Y28695D01*
X46277Y28187D02*
X46785D01*
X35875Y10175D02*
X34351D01*
Y10937D01*
X34605Y11191D01*
X35113D01*
X35367Y10937D01*
Y10175D01*
Y10683D02*
X35875Y11191D01*
X34605Y11699D02*
X34351Y11952D01*
Y12460D01*
X34605Y12714D01*
X34859D01*
X35113Y12460D01*
X35367Y12714D01*
X35621D01*
X35875Y12460D01*
Y11952D01*
X35621Y11699D01*
X35367D01*
X35113Y11952D01*
X34859Y11699D01*
X34605D01*
X35113Y11952D02*
Y12460D01*
X44600Y30275D02*
Y31799D01*
X45362D01*
X45616Y31545D01*
Y31037D01*
X45362Y30783D01*
X44600D01*
X45108D02*
X45616Y30275D01*
X46124Y30529D02*
X46377Y30275D01*
X46885D01*
X47139Y30529D01*
Y31545D01*
X46885Y31799D01*
X46377D01*
X46124Y31545D01*
Y31291D01*
X46377Y31037D01*
X47139D01*
X2744Y24284D02*
X2490Y24538D01*
X1982D01*
X1728Y24284D01*
Y23268D01*
X1982Y23014D01*
X2490D01*
X2744Y23268D01*
X3252D02*
X3506Y23014D01*
X4014D01*
X4268Y23268D01*
Y24284D01*
X4014Y24538D01*
X3506D01*
X3252Y24284D01*
Y24030D01*
X3506Y23776D01*
X4268D01*
X2109Y29960D02*
X1855Y30214D01*
X1347D01*
X1093Y29960D01*
Y28944D01*
X1347Y28690D01*
X1855D01*
X2109Y28944D01*
X2617Y28690D02*
X3125D01*
X2871D01*
Y30214D01*
X2617Y29960D01*
X3886D02*
X4140Y30214D01*
X4648D01*
X4902Y29960D01*
Y28944D01*
X4648Y28690D01*
X4140D01*
X3886Y28944D01*
Y29960D01*
X2388Y35640D02*
X2134Y35894D01*
X1626D01*
X1372Y35640D01*
Y34624D01*
X1626Y34370D01*
X2134D01*
X2388Y34624D01*
X2896Y34370D02*
X3404D01*
X3150D01*
Y35894D01*
X2896Y35640D01*
X4165Y34370D02*
X4673D01*
X4419D01*
Y35894D01*
X4165Y35640D01*
X1982Y21688D02*
Y20164D01*
X2744D01*
X2998Y20418D01*
Y21434D01*
X2744Y21688D01*
X1982D01*
X3506Y20164D02*
X4014D01*
X3760D01*
Y21688D01*
X3506Y21434D01*
X1728Y27369D02*
Y25846D01*
X2490D01*
X2744Y26100D01*
Y27116D01*
X2490Y27369D01*
X1728D01*
X4268Y25846D02*
X3252D01*
X4268Y26862D01*
Y27116D01*
X4014Y27369D01*
X3506D01*
X3252Y27116D01*
X1753Y33074D02*
Y31551D01*
X2515D01*
X2769Y31805D01*
Y32820D01*
X2515Y33074D01*
X1753D01*
X3277Y32820D02*
X3531Y33074D01*
X4039D01*
X4293Y32820D01*
Y32566D01*
X4039Y32312D01*
X3785D01*
X4039D01*
X4293Y32058D01*
Y31805D01*
X4039Y31551D01*
X3531D01*
X3277Y31805D01*
X10150Y38925D02*
Y40449D01*
X10912D01*
X11166Y40195D01*
Y39687D01*
X10912Y39433D01*
X10150D01*
X10658D02*
X11166Y38925D01*
X11674D02*
X12181D01*
X11927D01*
Y40449D01*
X11674Y40195D01*
X12943D02*
X13197Y40449D01*
X13705D01*
X13959Y40195D01*
Y39179D01*
X13705Y38925D01*
X13197D01*
X12943Y39179D01*
Y40195D01*
X5932Y11417D02*
X4408D01*
Y12179D01*
X4662Y12433D01*
X5170D01*
X5424Y12179D01*
Y11417D01*
Y11925D02*
X5932Y12433D01*
Y12941D02*
Y13449D01*
Y13195D01*
X4408D01*
X4662Y12941D01*
X5932Y14210D02*
Y14718D01*
Y14464D01*
X4408D01*
X4662Y14210D01*
X10415Y44549D02*
Y46073D01*
X11177D01*
X11431Y45819D01*
Y45311D01*
X11177Y45057D01*
X10415D01*
X10923D02*
X11431Y44549D01*
X11939D02*
X12447D01*
X12193D01*
Y46073D01*
X11939Y45819D01*
X14224Y44549D02*
X13208D01*
X14224Y45565D01*
Y45819D01*
X13970Y46073D01*
X13462D01*
X13208Y45819D01*
X7830Y17012D02*
X6307D01*
Y17774D01*
X6561Y18028D01*
X7069D01*
X7323Y17774D01*
Y17012D01*
Y17520D02*
X7830Y18028D01*
Y18536D02*
Y19044D01*
Y18790D01*
X6307D01*
X6561Y18536D01*
Y19806D02*
X6307Y20059D01*
Y20567D01*
X6561Y20821D01*
X6815D01*
X7069Y20567D01*
Y20313D01*
Y20567D01*
X7323Y20821D01*
X7576D01*
X7830Y20567D01*
Y20059D01*
X7576Y19806D01*
X10441Y41755D02*
Y43279D01*
X11202D01*
X11456Y43025D01*
Y42517D01*
X11202Y42263D01*
X10441D01*
X10948D02*
X11456Y41755D01*
X11964D02*
X12472D01*
X12218D01*
Y43279D01*
X11964Y43025D01*
X13995Y41755D02*
Y43279D01*
X13234Y42517D01*
X14249D01*
X9200Y11150D02*
X7676D01*
Y11912D01*
X7930Y12166D01*
X8438D01*
X8692Y11912D01*
Y11150D01*
Y11658D02*
X9200Y12166D01*
Y12674D02*
Y13181D01*
Y12927D01*
X7676D01*
X7930Y12674D01*
X7676Y14959D02*
Y13943D01*
X8438D01*
X8184Y14451D01*
Y14705D01*
X8438Y14959D01*
X8946D01*
X9200Y14705D01*
Y14197D01*
X8946Y13943D01*
X38991Y21670D02*
X38737Y21924D01*
X38229D01*
X37975Y21670D01*
Y20654D01*
X38229Y20400D01*
X38737D01*
X38991Y20654D01*
X39499Y20400D02*
X40006D01*
X39752D01*
Y21924D01*
X39499Y21670D01*
X41784Y20400D02*
X40768D01*
X41784Y21416D01*
Y21670D01*
X41530Y21924D01*
X41022D01*
X40768Y21670D01*
X38716Y15595D02*
X38462Y15849D01*
X37954D01*
X37700Y15595D01*
Y14579D01*
X37954Y14325D01*
X38462D01*
X38716Y14579D01*
X39224Y14325D02*
X39731D01*
X39477D01*
Y15849D01*
X39224Y15595D01*
X40493D02*
X40747Y15849D01*
X41255D01*
X41509Y15595D01*
Y15341D01*
X41255Y15087D01*
X41001D01*
X41255D01*
X41509Y14833D01*
Y14579D01*
X41255Y14325D01*
X40747D01*
X40493Y14579D01*
X33116Y18145D02*
X32862Y18399D01*
X32354D01*
X32100Y18145D01*
Y17129D01*
X32354Y16875D01*
X32862D01*
X33116Y17129D01*
X33624Y16875D02*
X34131D01*
X33877D01*
Y18399D01*
X33624Y18145D01*
X35655Y16875D02*
Y18399D01*
X34893Y17637D01*
X35909D01*
X26866Y20020D02*
X26612Y20274D01*
X26104D01*
X25850Y20020D01*
Y19004D01*
X26104Y18750D01*
X26612D01*
X26866Y19004D01*
X27374Y18750D02*
X27881D01*
X27627D01*
Y20274D01*
X27374Y20020D01*
X29659Y20274D02*
X28643D01*
Y19512D01*
X29151Y19766D01*
X29405D01*
X29659Y19512D01*
Y19004D01*
X29405Y18750D01*
X28897D01*
X28643Y19004D01*
X33300Y9325D02*
X31776D01*
Y10087D01*
X32030Y10341D01*
X32538D01*
X32792Y10087D01*
Y9325D01*
Y9833D02*
X33300Y10341D01*
Y10849D02*
Y11356D01*
Y11102D01*
X31776D01*
X32030Y10849D01*
X31776Y13134D02*
X32030Y12626D01*
X32538Y12118D01*
X33046D01*
X33300Y12372D01*
Y12880D01*
X33046Y13134D01*
X32792D01*
X32538Y12880D01*
Y12118D01*
X30575Y9450D02*
X29051D01*
Y10212D01*
X29305Y10466D01*
X29813D01*
X30067Y10212D01*
Y9450D01*
Y9958D02*
X30575Y10466D01*
Y10974D02*
Y11481D01*
Y11227D01*
X29051D01*
X29305Y10974D01*
X29051Y12243D02*
Y13259D01*
X29305D01*
X30321Y12243D01*
X30575D01*
X25900Y9450D02*
X24376D01*
Y10212D01*
X24630Y10466D01*
X25138D01*
X25392Y10212D01*
Y9450D01*
Y9958D02*
X25900Y10466D01*
Y10974D02*
Y11481D01*
Y11227D01*
X24376D01*
X24630Y10974D01*
X25646Y12243D02*
X25900Y12497D01*
Y13005D01*
X25646Y13259D01*
X24630D01*
X24376Y13005D01*
Y12497D01*
X24630Y12243D01*
X24884D01*
X25138Y12497D01*
Y13259D01*
X37600Y17325D02*
Y18849D01*
X38362D01*
X38616Y18595D01*
Y18087D01*
X38362Y17833D01*
X37600D01*
X38108D02*
X38616Y17325D01*
X40139D02*
X39124D01*
X40139Y18341D01*
Y18595D01*
X39885Y18849D01*
X39377D01*
X39124Y18595D01*
X40647D02*
X40901Y18849D01*
X41409D01*
X41663Y18595D01*
Y17579D01*
X41409Y17325D01*
X40901D01*
X40647Y17579D01*
Y18595D01*
X39150Y9450D02*
X37626D01*
Y10212D01*
X37880Y10466D01*
X38388D01*
X38642Y10212D01*
Y9450D01*
Y9958D02*
X39150Y10466D01*
Y11989D02*
Y10974D01*
X38134Y11989D01*
X37880D01*
X37626Y11735D01*
Y11227D01*
X37880Y10974D01*
X39150Y12497D02*
Y13005D01*
Y12751D01*
X37626D01*
X37880Y12497D01*
X42375Y25250D02*
X40851D01*
Y26012D01*
X41105Y26266D01*
X41613D01*
X41867Y26012D01*
Y25250D01*
Y25758D02*
X42375Y26266D01*
Y27789D02*
Y26774D01*
X41359Y27789D01*
X41105D01*
X40851Y27535D01*
Y27027D01*
X41105Y26774D01*
X42375Y29313D02*
Y28297D01*
X41359Y29313D01*
X41105D01*
X40851Y29059D01*
Y28551D01*
X41105Y28297D01*
X20375Y18675D02*
Y20199D01*
X21137D01*
X21391Y19945D01*
Y19437D01*
X21137Y19183D01*
X20375D01*
X20883D02*
X21391Y18675D01*
X22914D02*
X21899D01*
X22914Y19691D01*
Y19945D01*
X22660Y20199D01*
X22152D01*
X21899Y19945D01*
X23422D02*
X23676Y20199D01*
X24184D01*
X24438Y19945D01*
Y19691D01*
X24184Y19437D01*
X23930D01*
X24184D01*
X24438Y19183D01*
Y18929D01*
X24184Y18675D01*
X23676D01*
X23422Y18929D01*
X10948Y33119D02*
X10440D01*
X10694D01*
Y31849D01*
X10440Y31595D01*
X10187D01*
X9933Y31849D01*
X11456Y31595D02*
X11964D01*
X11710D01*
Y33119D01*
X11456Y32865D01*
X10694Y30147D02*
X10186D01*
X10440D01*
Y28877D01*
X10186Y28623D01*
X9933D01*
X9679Y28877D01*
X12218Y28623D02*
X11202D01*
X12218Y29639D01*
Y29893D01*
X11964Y30147D01*
X11456D01*
X11202Y29893D01*
X27191Y17345D02*
X26937Y17599D01*
X26429D01*
X26175Y17345D01*
Y16329D01*
X26429Y16075D01*
X26937D01*
X27191Y16329D01*
X27699Y16075D02*
X28206D01*
X27952D01*
Y17599D01*
X27699Y17345D01*
X29984Y17599D02*
X29476Y17345D01*
X28968Y16837D01*
Y16329D01*
X29222Y16075D01*
X29730D01*
X29984Y16329D01*
Y16583D01*
X29730Y16837D01*
X28968D01*
X22725Y9225D02*
X21201D01*
Y9987D01*
X21455Y10241D01*
X21963D01*
X22217Y9987D01*
Y9225D01*
Y9733D02*
X22725Y10241D01*
Y10749D02*
Y11256D01*
Y11002D01*
X21201D01*
X21455Y10749D01*
Y12018D02*
X21201Y12272D01*
Y12780D01*
X21455Y13034D01*
X21709D01*
X21963Y12780D01*
X22217Y13034D01*
X22471D01*
X22725Y12780D01*
Y12272D01*
X22471Y12018D01*
X22217D01*
X21963Y12272D01*
X21709Y12018D01*
X21455D01*
X21963Y12272D02*
Y12780D01*
X20425Y15900D02*
Y17424D01*
X21187D01*
X21441Y17170D01*
Y16662D01*
X21187Y16408D01*
X20425D01*
X20933D02*
X21441Y15900D01*
X22964D02*
X21949D01*
X22964Y16916D01*
Y17170D01*
X22710Y17424D01*
X22202D01*
X21949Y17170D01*
X24234Y15900D02*
Y17424D01*
X23472Y16662D01*
X24488D01*
X15270Y21466D02*
X14911D01*
X14552Y21107D01*
Y20748D01*
X15270Y20030D01*
X15630D01*
X15989Y20389D01*
Y20748D01*
X16527Y20927D02*
X16886Y21286D01*
X16707Y21107D01*
X15630Y22184D01*
Y21825D01*
X16348Y22902D02*
X17066Y23620D01*
X17245Y23441D01*
Y22005D01*
X17425Y21825D01*
X20591Y40549D02*
X20083D01*
X20337D01*
Y39279D01*
X20083Y39025D01*
X19829D01*
X19575Y39279D01*
X21099Y39025D02*
Y40549D01*
X21860D01*
X22114Y40295D01*
Y39787D01*
X21860Y39533D01*
X21099D01*
X22622Y40295D02*
X22876Y40549D01*
X23384D01*
X23638Y40295D01*
Y40041D01*
X23384Y39787D01*
X23130D01*
X23384D01*
X23638Y39533D01*
Y39279D01*
X23384Y39025D01*
X22876D01*
X22622Y39279D01*
M02*
