%FSLAX43Y43*%
%MOMM*%
G71*
G01*
G75*
G04 Layer_Physical_Order=2*
%ADD10C,0.300*%
%ADD11R,0.600X1.700*%
%ADD12R,1.600X1.800*%
%ADD13R,1.800X1.600*%
%ADD14R,1.450X0.550*%
%ADD15R,1.450X0.550*%
%ADD16O,2.000X1.000*%
%ADD17R,2.000X1.000*%
%ADD18R,0.600X2.150*%
%ADD19R,0.600X2.150*%
%ADD20R,0.600X2.200*%
%ADD21R,0.600X2.200*%
%ADD22R,0.600X1.700*%
%ADD23C,0.125*%
%ADD24C,0.500*%
%ADD25C,0.400*%
%ADD26R,1.400X1.400*%
%ADD27C,1.400*%
%ADD28C,4.000*%
%ADD29C,2.000*%
%ADD30C,1.500*%
%ADD31R,1.500X1.500*%
%ADD32R,1.300X1.300*%
%ADD33C,1.300*%
%ADD34C,1.270*%
%ADD35C,1.200*%
%ADD36R,0.850X1.300*%
%ADD37C,0.600*%
D10*
X22068Y33818D02*
G03*
X24143Y34275I841J1119D01*
G01*
X25031D02*
G03*
X27156Y33306I1247J-79D01*
G01*
G03*
X28698Y33027I944J819D01*
G01*
X34150Y24964D02*
G03*
X34125Y23108I825J-939D01*
G01*
X3690Y3128D02*
G03*
X3500Y2913I950J-1028D01*
G01*
X2475Y5650D02*
G03*
X2753Y4978I950J0D01*
G01*
X2475Y5650D02*
G03*
X2753Y4978I950J0D01*
G01*
X1900Y13700D02*
G03*
X2178Y13028I950J0D01*
G01*
X1900Y13700D02*
G03*
X2178Y13028I950J0D01*
G01*
X5910Y2689D02*
G03*
X5590Y3128I-1270J-589D01*
G01*
X8450Y2689D02*
G03*
X5910Y2689I-1270J-589D01*
G01*
X5590Y4435D02*
G03*
X5312Y5107I-950J0D01*
G01*
X5590Y4435D02*
G03*
X5312Y5107I-950J0D01*
G01*
X8275Y12142D02*
G03*
X10375Y11225I850J-917D01*
G01*
X4375Y13125D02*
G03*
X4097Y13797I-950J0D01*
G01*
X4375Y13125D02*
G03*
X4097Y13797I-950J0D01*
G01*
X10375Y11225D02*
G03*
X9975Y12142I-1250J0D01*
G01*
X6325Y17867D02*
G03*
X8275Y16356I850J-917D01*
G01*
X5162Y20005D02*
G03*
X6325Y17906I888J-880D01*
G01*
X9975Y16775D02*
G03*
X9726Y17376I-850J0D01*
G01*
X9975Y16775D02*
G03*
X9726Y17376I-850J0D01*
G01*
X10990Y2689D02*
G03*
X8450Y2689I-1270J-589D01*
G01*
X13530Y2689D02*
G03*
X10990Y2689I-1270J-589D01*
G01*
X16070D02*
G03*
X13530Y2689I-1270J-589D01*
G01*
X18610D02*
G03*
X16070Y2689I-1270J-589D01*
G01*
X21150D02*
G03*
X18610Y2689I-1270J-589D01*
G01*
X18963Y10978D02*
G03*
X19950Y12200I-263J1222D01*
G01*
X12975Y12617D02*
G03*
X12975Y12617I-1400J0D01*
G01*
Y17617D02*
G03*
X12975Y17617I-1400J0D01*
G01*
X19950Y12200D02*
G03*
X18963Y13422I-1250J0D01*
G01*
X2178Y30547D02*
G03*
X1900Y29875I672J-672D01*
G01*
X2178Y30547D02*
G03*
X1900Y29875I672J-672D01*
G01*
X4860Y30542D02*
G03*
X5139Y31214I-672J672D01*
G01*
X4860Y30542D02*
G03*
X5139Y31214I-672J672D01*
G01*
X6325Y30007D02*
G03*
X5162Y27872I-325J-1207D01*
G01*
X800Y33417D02*
G03*
X2839Y33726I889J1016D01*
G01*
Y35140D02*
G03*
X800Y35450I-1150J-707D01*
G01*
X8475Y32450D02*
G03*
X6325Y31583I-1250J0D01*
G01*
X8463Y32275D02*
G03*
X8475Y32450I-1238J175D01*
G01*
X3549Y40141D02*
G03*
X3239Y39439I640J-702D01*
G01*
X3550Y40142D02*
G03*
X3239Y39439I639J-703D01*
G01*
X7400Y41225D02*
G03*
X4910Y41380I-1250J0D01*
G01*
X6189Y39976D02*
G03*
X7400Y41225I-39J1249D01*
G01*
X9275Y30086D02*
G03*
X9700Y31025I-825J939D01*
G01*
G03*
X8463Y32275I-1250J0D01*
G01*
X11058Y23888D02*
G03*
X13164Y23456I1200J500D01*
G01*
X13400Y25009D02*
G03*
X11058Y24888I-1142J-621D01*
G01*
X13164Y23456D02*
G03*
X15105Y23164I1086J619D01*
G01*
X11058Y26863D02*
G03*
X13400Y26742I1200J500D01*
G01*
X13649Y27926D02*
G03*
X13504Y27733I601J-601D01*
G01*
X13649Y27926D02*
G03*
X13504Y27733I601J-601D01*
G01*
G03*
X11058Y27863I-1246J-370D01*
G01*
X15052Y31532D02*
G03*
X14975Y29252I473J-1157D01*
G01*
X13275Y33417D02*
G03*
X14988Y31595I850J-917D01*
G01*
X15575Y40825D02*
G03*
X13275Y40147I-1250J0D01*
G01*
X19024Y36337D02*
G03*
X19325Y37150I-949J813D01*
G01*
G03*
X18248Y38388I-1250J0D01*
G01*
X18250Y38450D02*
G03*
X16894Y39696I-1250J0D01*
G01*
G03*
X15575Y40823I-1244J-121D01*
G01*
X18022Y42750D02*
G03*
X19768Y40953I1078J-700D01*
G01*
X23690Y2689D02*
G03*
X21150Y2689I-1270J-589D01*
G01*
X26230D02*
G03*
X23690Y2689I-1270J-589D01*
G01*
X24275Y9650D02*
G03*
X24451Y9132I850J0D01*
G01*
G03*
X26650Y8263I1249J-57D01*
G01*
X24275Y9650D02*
G03*
X24451Y9132I850J0D01*
G01*
X26875Y9501D02*
G03*
X25975Y10294I-1175J-426D01*
G01*
X26375Y14475D02*
G03*
X24275Y13558I-1250J0D01*
G01*
X25975D02*
G03*
X26375Y14475I-850J917D01*
G01*
X26650Y3212D02*
G03*
X26230Y2689I850J-1112D01*
G01*
X40258Y3499D02*
G03*
X40014Y3488I-58J-1399D01*
G01*
X40701Y4875D02*
G03*
X40258Y3499I749J-1000D01*
G01*
X40849Y5075D02*
G03*
X40701Y4875I601J-601D01*
G01*
X40849Y5075D02*
G03*
X40701Y4875I601J-601D01*
G01*
X22108Y16160D02*
G03*
X22675Y15925I567J565D01*
G01*
X22109Y16159D02*
G03*
X22675Y15925I566J566D01*
G01*
X27800D02*
G03*
X28367Y16160I0J800D01*
G01*
X27800Y15925D02*
G03*
X28366Y16159I0J800D01*
G01*
X31780Y16110D02*
G03*
X31772Y14399I907J-860D01*
G01*
X32029Y17031D02*
G03*
X31780Y16430I601J-601D01*
G01*
X32029Y17031D02*
G03*
X31780Y16430I601J-601D01*
G01*
X34950Y26292D02*
G03*
X34716Y26858I-800J0D01*
G01*
X34950Y26292D02*
G03*
X34716Y26858I-800J0D01*
G01*
X35600Y25108D02*
G03*
X34950Y25275I-625J-1083D01*
G01*
X36850Y27359D02*
G03*
X35600Y25258I-400J-1184D01*
G01*
X42641Y3497D02*
G03*
X42700Y3875I-1191J378D01*
G01*
G03*
X42684Y4073I-1250J0D01*
G01*
X41574Y9376D02*
G03*
X41325Y8775I601J-601D01*
G01*
X41574Y9376D02*
G03*
X41325Y8775I601J-601D01*
G01*
X44010Y2689D02*
G03*
X42641Y3497I-1270J-589D01*
G01*
X46550Y2689D02*
G03*
X44010Y2689I-1270J-589D01*
G01*
X43093Y10543D02*
G03*
X42492Y10294I0J-850D01*
G01*
X43093Y10543D02*
G03*
X42492Y10294I0J-850D01*
G01*
X48340Y800D02*
G03*
X49200Y1864I-520J1300D01*
G01*
Y2336D02*
G03*
X46550Y2689I-1380J-236D01*
G01*
X46999Y14676D02*
G03*
X46765Y14232I601J-601D01*
G01*
X46999Y14676D02*
G03*
X46765Y14232I601J-601D01*
G01*
X47273Y4523D02*
G03*
X47874Y4772I0J850D01*
G01*
X47273Y4523D02*
G03*
X47874Y4772I0J850D01*
G01*
X40950Y15500D02*
G03*
X41551Y15749I0J850D01*
G01*
X40950Y15500D02*
G03*
X41551Y15749I0J850D01*
G01*
X43430Y17628D02*
G03*
X43600Y17433I1020J722D01*
G01*
X45700Y18350D02*
G03*
X44950Y19496I-1250J0D01*
G01*
X41975Y30006D02*
G03*
X40575Y30015I-707J-1031D01*
G01*
X47783Y15297D02*
G03*
X47399Y15076I217J-822D01*
G01*
X47783Y15297D02*
G03*
X47399Y15076I217J-822D01*
G01*
X49200Y15631D02*
G03*
X47783Y15297I-475J-1156D01*
G01*
X45300Y17433D02*
G03*
X45700Y18350I-850J917D01*
G01*
X28846Y35128D02*
G03*
X28325Y35355I-746J-1003D01*
G01*
X23700Y36093D02*
G03*
X21770Y35750I-790J-1156D01*
G01*
X30850Y34988D02*
G03*
X31150Y35800I-950J812D01*
G01*
G03*
X28846Y35128I-1250J0D01*
G01*
X32680Y30176D02*
G03*
X33875Y31425I-56J1249D01*
G01*
G03*
X32695Y32673I-1250J0D01*
G01*
X37278Y37634D02*
G03*
X36850Y35317I197J-1234D01*
G01*
X37365Y38016D02*
G03*
X37278Y37634I1160J-466D01*
G01*
X40575Y39825D02*
G03*
X40326Y40426I-850J0D01*
G01*
X40575Y39825D02*
G03*
X40326Y40426I-850J0D01*
G01*
X25429Y42775D02*
G03*
X23700Y41047I-679J-1050D01*
G01*
X24400Y47025D02*
G03*
X25429Y46040I1225J250D01*
G01*
X35527Y41850D02*
G03*
X36167Y39543I-27J-1250D01*
G01*
X36075Y42050D02*
G03*
X35527Y41850I0J-850D01*
G01*
X36075Y42050D02*
G03*
X35527Y41850I0J-850D01*
G01*
X38951Y41801D02*
G03*
X38350Y42050I-601J-601D01*
G01*
X38951Y41801D02*
G03*
X38350Y42050I-601J-601D01*
G01*
X43250Y33329D02*
G03*
X41975Y31184I-700J-1036D01*
G01*
X41781Y37858D02*
G03*
X43250Y35950I469J-1158D01*
G01*
X44950Y36775D02*
G03*
X44750Y37323I-850J0D01*
G01*
X44950Y36775D02*
G03*
X44750Y37323I-850J0D01*
G01*
Y38086D02*
G03*
X46457Y38826I437J1330D01*
G01*
X49150Y36225D02*
G03*
X49150Y36225I-1650J0D01*
G01*
X43050Y40756D02*
G03*
X41785Y38312I-403J-1341D01*
G01*
X42775Y43617D02*
G03*
X43050Y41590I850J-917D01*
G01*
X43024Y45301D02*
G03*
X42775Y44700I601J-601D01*
G01*
X43024Y45301D02*
G03*
X42775Y44700I601J-601D01*
G01*
X46457Y40005D02*
G03*
X46037Y40528I-1270J-589D01*
G01*
X46457Y38826D02*
G03*
X49127Y39416I1270J589D01*
G01*
G03*
X46457Y40005I-1400J0D01*
G01*
X43888Y46084D02*
G03*
X43631Y45907I344J-777D01*
G01*
X43888Y46084D02*
G03*
X43631Y45907I344J-777D01*
G01*
X17100Y22300D02*
Y28850D01*
X17200Y22200D02*
Y28950D01*
X17300Y22100D02*
Y29050D01*
X17200Y22200D02*
X19474D01*
X17300Y22100D02*
X19374D01*
X15675Y23725D02*
X18337Y21063D01*
X17100Y22300D02*
X19574D01*
X16700Y22700D02*
Y28450D01*
X16800Y22600D02*
Y28550D01*
X16900Y22500D02*
Y28650D01*
X16900Y22500D02*
X19774D01*
X17000Y22400D02*
X19674D01*
X16800Y22600D02*
X19874D01*
X17000Y22400D02*
Y28750D01*
X18200Y21200D02*
X18474D01*
X18000Y21400D02*
X18674D01*
X18100Y21300D02*
X18574D01*
X17800Y21600D02*
X18874D01*
X17900Y21500D02*
X18774D01*
X18337Y21063D02*
X19900Y22626D01*
X17700Y21700D02*
X18974D01*
X17400Y22000D02*
Y29150D01*
X17600Y21800D02*
X19074D01*
X17400Y22000D02*
X19274D01*
X17500Y21900D02*
X19174D01*
X19674Y22400D02*
X20127D01*
X19774Y22500D02*
X20027D01*
X18000Y21400D02*
Y29750D01*
X18100Y21300D02*
Y29850D01*
X18200Y21200D02*
Y29950D01*
X18300Y21100D02*
Y30050D01*
X18400Y21126D02*
Y30150D01*
X18500Y21226D02*
Y30250D01*
X18600Y21326D02*
Y30350D01*
X17500Y21900D02*
Y29250D01*
X17600Y21800D02*
Y29350D01*
X17700Y21700D02*
Y29450D01*
X17800Y21600D02*
Y29550D01*
X17900Y21500D02*
Y29650D01*
X18700Y21426D02*
Y30450D01*
X18800Y21526D02*
Y30550D01*
X18900Y21626D02*
Y30650D01*
X19000Y21726D02*
Y30750D01*
X19100Y21826D02*
Y30850D01*
X19200Y21926D02*
Y30950D01*
X19300Y22026D02*
Y31050D01*
X19400Y22126D02*
Y31150D01*
X19500Y22226D02*
Y31250D01*
X19600Y22326D02*
Y31350D01*
X19700Y22426D02*
Y31450D01*
X19800Y22526D02*
Y31550D01*
X19900Y22626D02*
Y31650D01*
X20000Y22527D02*
Y31750D01*
X20100Y22427D02*
Y31850D01*
X20200Y22327D02*
Y31950D01*
X20300Y22227D02*
Y32050D01*
X20700Y18700D02*
Y19042D01*
X20800Y18600D02*
Y19142D01*
X20900Y18500D02*
Y19242D01*
X20800Y18600D02*
X29675D01*
X20900Y18500D02*
X29575D01*
X20529Y18871D02*
X22675Y16725D01*
X20700Y18700D02*
X29775D01*
X20600Y18800D02*
Y18942D01*
X20529Y18871D02*
X22092Y20434D01*
X20558Y18900D02*
X29975D01*
X20600Y18800D02*
X29875D01*
X20658Y19000D02*
X30075D01*
X20758Y19100D02*
X30175D01*
X21100Y18300D02*
Y19442D01*
X21200Y18200D02*
Y19542D01*
X21300Y18100D02*
Y19642D01*
X21300Y18100D02*
X29175D01*
X21400Y18000D02*
X29075D01*
X21100Y18300D02*
X29375D01*
X21200Y18200D02*
X29275D01*
X20858Y19200D02*
X30275D01*
X21000Y18400D02*
X29475D01*
X20958Y19300D02*
X30375D01*
X21000Y18400D02*
Y19342D01*
X21058Y19400D02*
X30475D01*
X21158Y19500D02*
X30575D01*
X21258Y19600D02*
X30675D01*
X21358Y19700D02*
X30775D01*
X20400Y22127D02*
Y32150D01*
X20500Y22027D02*
Y32250D01*
X20600Y21927D02*
Y32350D01*
X20627Y21900D02*
X32975D01*
X19900Y22626D02*
X22092Y20434D01*
X20527Y22000D02*
X33075D01*
X20427Y22100D02*
X33175D01*
X20227Y22300D02*
X33375D01*
X20327Y22200D02*
X33275D01*
X20027Y22500D02*
X33575D01*
X20127Y22400D02*
X33475D01*
X16700Y22700D02*
X33775D01*
X19927Y22600D02*
X33675D01*
X21100Y21427D02*
Y32850D01*
X21200Y21327D02*
Y32950D01*
X21300Y21227D02*
Y33050D01*
X21227Y21300D02*
X32375D01*
X21327Y21200D02*
X32275D01*
X21127Y21400D02*
X32475D01*
X21400Y21127D02*
Y33150D01*
X20700Y21827D02*
Y32450D01*
X20800Y21727D02*
Y32550D01*
X20900Y21627D02*
Y32650D01*
X21000Y21527D02*
Y32750D01*
X20927Y21600D02*
X32675D01*
X21027Y21500D02*
X32575D01*
X20727Y21800D02*
X32875D01*
X20827Y21700D02*
X32775D01*
X15675Y23725D02*
Y27375D01*
X15100Y26839D02*
X15650Y27375D01*
X15700Y23700D02*
Y27450D01*
X15675Y26500D02*
X31477D01*
X15675Y26600D02*
X31377D01*
X15675Y26700D02*
X31277D01*
X15675Y26800D02*
X31177D01*
X15675Y27100D02*
X30877D01*
X15675Y27200D02*
X30777D01*
X15675Y27300D02*
X30774D01*
X15675Y26900D02*
X31077D01*
X15675Y27000D02*
X30977D01*
X15650Y27400D02*
X30874D01*
X15750Y27500D02*
X30974D01*
X16000Y23400D02*
Y27750D01*
X16100Y23300D02*
Y27850D01*
X16200Y23200D02*
Y27950D01*
X16300Y23100D02*
Y28050D01*
X16400Y23000D02*
Y28150D01*
X16500Y22900D02*
Y28250D01*
X16600Y22800D02*
Y28350D01*
X15800Y23600D02*
Y27550D01*
X15850Y27600D02*
X31074D01*
X15900Y23500D02*
Y27650D01*
X15950Y27700D02*
X31174D01*
X16050Y27800D02*
X31274D01*
X16150Y27900D02*
X31374D01*
X16250Y28000D02*
X31474D01*
X18550Y30300D02*
X31425D01*
X19050Y30800D02*
X30925D01*
X15100Y26850D02*
X22068Y33818D01*
X19150Y30900D02*
X30825D01*
X18650Y30400D02*
X31325D01*
X18750Y30500D02*
X31225D01*
X18850Y30600D02*
X31125D01*
X18950Y30700D02*
X31025D01*
X19650Y31400D02*
X30325D01*
X19750Y31500D02*
X30225D01*
X19850Y31600D02*
X30125D01*
X19250Y31000D02*
X30725D01*
X19350Y31100D02*
X30625D01*
X19450Y31200D02*
X30525D01*
X19550Y31300D02*
X30425D01*
X20350Y32100D02*
X29625D01*
X20450Y32200D02*
X29525D01*
X20550Y32300D02*
X29425D01*
X19950Y31700D02*
X30025D01*
X20050Y31800D02*
X29925D01*
X20150Y31900D02*
X29825D01*
X20250Y32000D02*
X29725D01*
X21050Y32800D02*
X28925D01*
X21150Y32900D02*
X27852D01*
X21250Y33000D02*
X25916D01*
X21350Y33100D02*
X25678D01*
X20650Y32400D02*
X29325D01*
X20750Y32500D02*
X29225D01*
X20850Y32600D02*
X29125D01*
X20950Y32700D02*
X29025D01*
X15675Y23800D02*
X33745D01*
X15675Y23900D02*
X33731D01*
X15675Y24000D02*
X33725D01*
X15700Y23700D02*
X33768D01*
X15675Y24100D02*
X33727D01*
X15675Y24200D02*
X33737D01*
X15675Y24300D02*
X33756D01*
X15675Y24400D02*
X33783D01*
X15675Y24500D02*
X33819D01*
X15675Y24600D02*
X33865D01*
X15675Y24700D02*
X33923D01*
X15675Y24800D02*
X33994D01*
X15675Y24900D02*
X34082D01*
X15675Y25000D02*
X34150D01*
X16600Y22800D02*
X33875D01*
X15900Y23500D02*
X33841D01*
X16000Y23400D02*
X33893D01*
X16400Y23000D02*
X34075D01*
X16500Y22900D02*
X33975D01*
X16100Y23300D02*
X33957D01*
X16200Y23200D02*
X34036D01*
X15675Y25400D02*
X32577D01*
X15675Y25500D02*
X32477D01*
X15675Y25600D02*
X32377D01*
X15675Y25700D02*
X32277D01*
X15675Y25100D02*
X32877D01*
X15800Y23600D02*
X33800D01*
X15675Y25200D02*
X32777D01*
X15675Y25300D02*
X32677D01*
X15675Y26200D02*
X31777D01*
X15675Y26300D02*
X31677D01*
X15675Y26400D02*
X31577D01*
X15675Y25800D02*
X32177D01*
X15675Y25900D02*
X32077D01*
X15675Y26000D02*
X31977D01*
X15675Y26100D02*
X31877D01*
X16350Y28100D02*
X31574D01*
X16450Y28200D02*
X31674D01*
X16550Y28300D02*
X31774D01*
X16650Y28400D02*
X31874D01*
X16750Y28500D02*
X31974D01*
X16850Y28600D02*
X32074D01*
X16950Y28700D02*
X32174D01*
X17050Y28800D02*
X32274D01*
X17150Y28900D02*
X32374D01*
X17650Y29400D02*
X32325D01*
X17250Y29000D02*
X32474D01*
X17350Y29100D02*
X32574D01*
X17450Y29200D02*
X32525D01*
X17550Y29300D02*
X32425D01*
X18150Y29900D02*
X31825D01*
X18250Y30000D02*
X31725D01*
X18350Y30100D02*
X31625D01*
X18450Y30200D02*
X31525D01*
X17750Y29500D02*
X32225D01*
X17850Y29600D02*
X32125D01*
X17950Y29700D02*
X32025D01*
X18050Y29800D02*
X31925D01*
X22500Y16900D02*
Y33598D01*
X22600Y16800D02*
Y33572D01*
X22700Y16725D02*
Y33553D01*
X25500Y16725D02*
Y33219D01*
X25600Y16725D02*
Y33147D01*
X25300Y16725D02*
Y33419D01*
X25400Y16725D02*
Y33307D01*
X21400Y18000D02*
Y19742D01*
X21500Y17900D02*
Y19842D01*
X21600Y17800D02*
Y19942D01*
X21700Y17700D02*
Y20042D01*
X21800Y17600D02*
Y20142D01*
X21900Y17500D02*
Y20242D01*
X22000Y17400D02*
Y20342D01*
X25900Y16725D02*
Y33005D01*
X25700Y16725D02*
Y33088D01*
X25800Y16725D02*
Y33042D01*
X26000Y16725D02*
Y32978D01*
X26100Y16725D02*
Y32959D01*
X26200Y16725D02*
Y32949D01*
X26300Y16725D02*
Y32946D01*
X26400Y16725D02*
Y32952D01*
X26500Y16725D02*
Y32966D01*
X26600Y16725D02*
Y32988D01*
X26700Y16725D02*
Y33019D01*
X26800Y16725D02*
Y33060D01*
X26900Y16725D02*
Y33111D01*
X27000Y16725D02*
Y33175D01*
X22800Y16725D02*
Y33541D01*
X22900Y16725D02*
Y33537D01*
X23000Y16725D02*
Y33540D01*
X23100Y16725D02*
Y33550D01*
X23200Y16725D02*
Y33567D01*
X23300Y16725D02*
Y33592D01*
X23400Y16725D02*
Y33626D01*
X22300Y17100D02*
Y33677D01*
X22100Y17300D02*
Y33795D01*
X22200Y17200D02*
Y33730D01*
X22400Y17000D02*
Y33633D01*
X23500Y16725D02*
Y33668D01*
X23600Y16725D02*
Y33719D01*
X23700Y16725D02*
Y33781D01*
X23800Y16725D02*
Y33857D01*
X23900Y16725D02*
Y33947D01*
X24000Y16725D02*
Y34059D01*
X24100Y16725D02*
Y34200D01*
X24200Y16725D02*
Y34275D01*
X24300Y16725D02*
Y34275D01*
X24400Y16725D02*
Y34275D01*
X24500Y16725D02*
Y34275D01*
X24600Y16725D02*
Y34275D01*
X24700Y16725D02*
Y34275D01*
X24800Y16725D02*
Y34275D01*
X25100Y16725D02*
Y33781D01*
X25200Y16725D02*
Y33565D01*
X24900Y16725D02*
Y34275D01*
X25000Y16725D02*
Y34275D01*
X22500Y16900D02*
X27975D01*
X22300Y17100D02*
X28175D01*
X22400Y17000D02*
X28075D01*
X22100Y17300D02*
X28375D01*
X22200Y17200D02*
X28275D01*
X21900Y17500D02*
X28575D01*
X22000Y17400D02*
X28475D01*
X21800Y17600D02*
X28675D01*
X21600Y17800D02*
X28875D01*
X21700Y17700D02*
X28775D01*
X21458Y19800D02*
X30875D01*
X21500Y17900D02*
X28975D01*
X21558Y19900D02*
X30975D01*
X21658Y20000D02*
X31075D01*
X22675Y16725D02*
X27800D01*
X22600Y16800D02*
X27875D01*
X30000Y18925D02*
Y31725D01*
X27800Y16725D02*
X34125Y23050D01*
X30300Y19225D02*
Y31425D01*
X30100Y19025D02*
Y31625D01*
X30200Y19125D02*
Y31525D01*
X30600Y19525D02*
Y31125D01*
X30700Y19625D02*
Y31025D01*
X30400Y19325D02*
Y31325D01*
X30500Y19425D02*
Y31225D01*
X31000Y19925D02*
Y26977D01*
X31100Y20025D02*
Y26877D01*
X30800Y19725D02*
Y27177D01*
X30900Y19825D02*
Y27077D01*
X27300Y16725D02*
Y33165D01*
X27100Y16725D02*
Y33254D01*
X27200Y16725D02*
Y33258D01*
X27600Y16725D02*
Y32979D01*
X27700Y16725D02*
Y32941D01*
X27400Y16725D02*
Y33089D01*
X27500Y16725D02*
Y33028D01*
X27800Y16725D02*
Y32912D01*
X27900Y16825D02*
Y32891D01*
X28000Y16925D02*
Y32879D01*
X28100Y17025D02*
Y32875D01*
X28200Y17125D02*
Y32879D01*
X28300Y17225D02*
Y32891D01*
X28400Y17325D02*
Y32911D01*
X28500Y17425D02*
Y32941D01*
X28600Y17525D02*
Y32979D01*
X28700Y17625D02*
Y33025D01*
X29000Y17925D02*
Y32725D01*
X29100Y18025D02*
Y32625D01*
X28800Y17725D02*
Y32925D01*
X28900Y17825D02*
Y32825D01*
X29400Y18325D02*
Y32325D01*
X29500Y18425D02*
Y32225D01*
X29200Y18125D02*
Y32525D01*
X29300Y18225D02*
Y32425D01*
X29800Y18725D02*
Y31925D01*
X29900Y18825D02*
Y31825D01*
X29600Y18525D02*
Y32125D01*
X29700Y18625D02*
Y32025D01*
X21758Y20100D02*
X31175D01*
X21900Y20242D02*
Y20627D01*
X22000Y20342D02*
Y20527D01*
X21858Y20200D02*
X31275D01*
X21958Y20300D02*
X31375D01*
X22058Y20400D02*
X31475D01*
X22027Y20500D02*
X31575D01*
X30800Y27177D02*
Y27326D01*
X30900Y27077D02*
Y27426D01*
X31000Y27526D02*
Y30725D01*
X21827Y20700D02*
X31775D01*
X21927Y20600D02*
X31675D01*
X21727Y20800D02*
X31875D01*
X31100Y27626D02*
Y30625D01*
X31400Y20325D02*
Y26577D01*
X31200Y20125D02*
Y26777D01*
X31300Y20225D02*
Y26677D01*
X31700Y20625D02*
Y26277D01*
X31800Y20725D02*
Y26177D01*
X31500Y20425D02*
Y26477D01*
X31600Y20525D02*
Y26377D01*
X31400Y27926D02*
Y30325D01*
X31500Y28026D02*
Y30225D01*
X31200Y27726D02*
Y30525D01*
X31300Y27826D02*
Y30425D01*
X31800Y28326D02*
Y29925D01*
X31900Y20825D02*
Y26077D01*
X31600Y28126D02*
Y30125D01*
X31700Y28226D02*
Y30025D01*
X21500Y21027D02*
Y33250D01*
X21600Y20927D02*
Y33350D01*
X21700Y20827D02*
Y33450D01*
X21450Y33200D02*
X25524D01*
X21800Y20727D02*
Y33550D01*
X21900Y20627D02*
Y33650D01*
X22000Y20527D02*
Y33750D01*
X21850Y33600D02*
X22495D01*
X21950Y33700D02*
X22254D01*
X21550Y33300D02*
X25408D01*
X21650Y33400D02*
X25315D01*
X21750Y33500D02*
X25241D01*
X23324Y33600D02*
X25180D01*
X26641Y33000D02*
X27555D01*
X26879Y33100D02*
X27385D01*
X30800Y27326D02*
Y30925D01*
X30900Y27426D02*
Y30825D01*
X28348Y32900D02*
X28825D01*
X23726Y33800D02*
X25093D01*
X23850Y33900D02*
X25064D01*
X23950Y34000D02*
X25044D01*
X24032Y34100D02*
X25033D01*
X23565Y33700D02*
X25132D01*
X27034Y33200D02*
X27259D01*
X24100Y34200D02*
X25029D01*
X24143Y34275D02*
X25031D01*
X21627Y20900D02*
X31975D01*
X21427Y21100D02*
X32175D01*
X21527Y21000D02*
X32075D01*
X32500Y21425D02*
Y25477D01*
X32600Y21525D02*
Y25377D01*
X32300Y21225D02*
Y25677D01*
X32400Y21325D02*
Y25577D01*
X32900Y21825D02*
Y25077D01*
X32700Y21625D02*
Y25277D01*
X32800Y21725D02*
Y25177D01*
X32958Y25100D02*
X34150D01*
X33000Y21925D02*
Y25142D01*
X32677Y25300D02*
X33158D01*
X32777Y25200D02*
X33058D01*
X33100Y22025D02*
Y25242D01*
X33200Y22125D02*
Y25342D01*
X33300Y22225D02*
Y25442D01*
X33800Y22725D02*
Y23599D01*
X33900Y22825D02*
Y23387D01*
X33400Y22325D02*
Y25542D01*
X33500Y22425D02*
Y25642D01*
X34000Y22925D02*
Y23243D01*
X34100Y23025D02*
Y23132D01*
X33058Y25200D02*
X34150D01*
X33158Y25300D02*
X34150D01*
X33258Y25400D02*
X34150D01*
X33358Y25500D02*
X34150D01*
X33458Y25600D02*
X34150D01*
X32200Y21125D02*
Y25777D01*
X32000Y20925D02*
Y25977D01*
X32100Y21025D02*
Y25877D01*
X30725Y27252D02*
X32917Y25060D01*
X30725Y27252D02*
X32599Y29126D01*
X32100Y28626D02*
Y29625D01*
X31900Y28426D02*
Y29825D01*
X32000Y28526D02*
Y29725D01*
X32300Y28826D02*
Y29425D01*
X32400Y28926D02*
Y29325D01*
X28698Y33027D02*
X32599Y29126D01*
X32200Y28726D02*
Y29525D01*
X33600Y22525D02*
Y25742D01*
X33700Y22625D02*
Y25842D01*
X33800Y24451D02*
Y25942D01*
X33900Y24663D02*
Y26042D01*
X34000Y24807D02*
Y26142D01*
X34100Y24918D02*
Y26242D01*
X34150Y24964D02*
Y26292D01*
X32917Y25060D02*
X34150Y26292D01*
X33558Y25700D02*
X34150D01*
X32500Y29026D02*
Y29225D01*
X33658Y25800D02*
X34150D01*
X33758Y25900D02*
X34150D01*
X33858Y26000D02*
X34150D01*
X33958Y26100D02*
X34150D01*
X800Y5300D02*
X2542D01*
X800Y5400D02*
X2509D01*
X800Y5500D02*
X2487D01*
X800Y5600D02*
X2476D01*
X800Y5700D02*
X2475D01*
X800Y5800D02*
X2475D01*
X800Y5900D02*
X2475D01*
X800Y6000D02*
X2475D01*
X2500Y3500D02*
Y5434D01*
X800Y6100D02*
X2475D01*
X800Y6200D02*
X2475D01*
X800Y6300D02*
X2475D01*
X800Y6400D02*
X2475D01*
X800Y6500D02*
X2475D01*
X800Y6600D02*
X2475D01*
X800Y6700D02*
X2475D01*
X800Y6800D02*
X2475D01*
X800Y6900D02*
X2475D01*
X800Y7000D02*
X2475D01*
X800Y7100D02*
X2475D01*
X800Y7200D02*
X2475D01*
X800Y7300D02*
X2475D01*
X800Y7400D02*
X2475D01*
X2100Y3500D02*
Y13117D01*
X2000Y3500D02*
Y13276D01*
X2300Y3500D02*
Y12907D01*
X2200Y3500D02*
Y13007D01*
X2475Y5650D02*
Y12731D01*
X2400Y3500D02*
Y12807D01*
X800Y7500D02*
X2475D01*
X800Y7600D02*
X2475D01*
X800Y3500D02*
X3500D01*
X800Y3600D02*
X3690D01*
X800Y3700D02*
X3690D01*
X800Y3800D02*
X3690D01*
X800Y4100D02*
X3632D01*
X800Y4200D02*
X3532D01*
X800Y3900D02*
X3690D01*
X800Y4000D02*
X3690D01*
X3300Y3500D02*
Y4432D01*
X3200Y3500D02*
Y4532D01*
X3500Y3100D02*
X3660D01*
X800Y4400D02*
X3332D01*
X800Y4500D02*
X3232D01*
X800Y4300D02*
X3432D01*
X3400Y3500D02*
Y4332D01*
X800Y4800D02*
X2932D01*
X800Y4900D02*
X2832D01*
X800Y4600D02*
X3132D01*
X800Y4700D02*
X3032D01*
X800Y5100D02*
X2650D01*
X800Y5200D02*
X2588D01*
X800Y5000D02*
X2732D01*
X2700Y3500D02*
Y5036D01*
X2600Y3500D02*
Y5179D01*
X2900Y3500D02*
Y4832D01*
X2800Y3500D02*
Y4932D01*
X3000Y3500D02*
Y4732D01*
X3100Y3500D02*
Y4632D01*
X2753Y4978D02*
X3690Y4042D01*
X800Y7700D02*
X2475D01*
X800Y7800D02*
X2475D01*
X800Y7900D02*
X2475D01*
X800Y8000D02*
X2475D01*
X800Y8100D02*
X2475D01*
X800Y8200D02*
X2475D01*
X800Y8300D02*
X2475D01*
X800Y8400D02*
X2475D01*
X800Y8500D02*
X2475D01*
X800Y8600D02*
X2475D01*
X800Y8700D02*
X2475D01*
X800Y8800D02*
X2475D01*
X800Y8900D02*
X2475D01*
X800Y9000D02*
X2475D01*
X800Y9100D02*
X2475D01*
X800Y9200D02*
X2475D01*
X800Y9300D02*
X2475D01*
X800Y12800D02*
X2407D01*
X800Y9400D02*
X2475D01*
X800Y9500D02*
X2475D01*
X800Y13100D02*
X2114D01*
X800Y13200D02*
X2042D01*
X800Y12900D02*
X2307D01*
X800Y13000D02*
X2207D01*
X800Y13300D02*
X1988D01*
X800Y13400D02*
X1949D01*
X800Y13500D02*
X1921D01*
X800Y13600D02*
X1905D01*
X800Y13700D02*
X1900D01*
X800Y13800D02*
X1900D01*
X800Y9600D02*
X2475D01*
X800Y9700D02*
X2475D01*
X800Y9800D02*
X2475D01*
X800Y9900D02*
X2475D01*
X800Y10000D02*
X2475D01*
X800Y10100D02*
X2475D01*
X800Y10200D02*
X2475D01*
X800Y10300D02*
X2475D01*
X800Y10400D02*
X2475D01*
X800Y10500D02*
X2475D01*
X800Y10600D02*
X2475D01*
X800Y10700D02*
X2475D01*
X800Y10800D02*
X2475D01*
X800Y10900D02*
X2475D01*
X800Y11000D02*
X2475D01*
X800Y11100D02*
X2475D01*
X800Y11200D02*
X2475D01*
X800Y11300D02*
X2475D01*
X800Y11400D02*
X2475D01*
X800Y11500D02*
X2475D01*
X800Y11600D02*
X2475D01*
X800Y11700D02*
X2475D01*
X800Y11800D02*
X2475D01*
X800Y11900D02*
X2475D01*
X800Y12000D02*
X2475D01*
X800Y12100D02*
X2475D01*
X800Y12200D02*
X2475D01*
X800Y12300D02*
X2475D01*
X800Y12400D02*
X2475D01*
X800Y12500D02*
X2475D01*
X800Y12600D02*
X2475D01*
X800Y12700D02*
X2475D01*
X2178Y13028D02*
X2475Y12731D01*
X3500Y3200D02*
X3690D01*
X3500Y2913D02*
Y3500D01*
X5590Y3200D02*
X6314D01*
X3500Y3300D02*
X3690D01*
X3500Y3400D02*
X3690D01*
X5590Y3300D02*
X6459D01*
X3500Y3500D02*
X3690D01*
X5852Y2800D02*
X5968D01*
X5789Y2900D02*
X6031D01*
X8392Y2800D02*
X8508D01*
X5712Y3000D02*
X6108D01*
X5620Y3100D02*
X6200D01*
X5590Y3400D02*
X6660D01*
X5590Y3500D02*
X7165D01*
X3600Y3037D02*
Y4132D01*
X3500Y3500D02*
Y4232D01*
X3690Y3128D02*
Y4042D01*
X4375Y6044D02*
X5312Y5107D01*
X4375Y6044D02*
Y13125D01*
Y10200D02*
X8410D01*
X8300Y2940D02*
Y10286D01*
X8200Y3059D02*
Y10384D01*
X8400Y2787D02*
Y10207D01*
X8500Y2787D02*
Y10143D01*
X5590Y3128D02*
Y4435D01*
X7900Y3301D02*
Y10977D01*
X8100Y3155D02*
Y10510D01*
X8000Y3235D02*
Y10680D01*
X8329Y2900D02*
X8571D01*
X8252Y3000D02*
X8648D01*
X8160Y3100D02*
X8740D01*
X8046Y3200D02*
X8854D01*
X7901Y3300D02*
X8999D01*
X4375Y10000D02*
X8877D01*
X7700Y3400D02*
X9200D01*
X7195Y3500D02*
X9705D01*
X8800Y3155D02*
Y10018D01*
X8900Y3235D02*
Y9995D01*
X9000Y3301D02*
Y9981D01*
X9100Y3355D02*
Y9975D01*
X9200Y3400D02*
Y9977D01*
X9300Y3435D02*
Y9987D01*
X9400Y3463D02*
Y10006D01*
X9500Y3483D02*
Y10033D01*
X8600Y2940D02*
Y10091D01*
X8700Y3059D02*
Y10050D01*
X9600Y3495D02*
Y10069D01*
X9700Y3500D02*
Y10115D01*
X4375Y10100D02*
X8580D01*
X9800Y3498D02*
Y10173D01*
X9900Y3488D02*
Y10244D01*
X10600Y3189D02*
Y11613D01*
X10500Y3263D02*
Y11721D01*
X10800Y2991D02*
Y11451D01*
X10700Y3100D02*
Y11525D01*
X10000Y3472D02*
Y10332D01*
X10100Y3447D02*
Y10443D01*
X10200Y3415D02*
Y10587D01*
X10300Y3374D02*
Y10798D01*
X10400Y3324D02*
Y11856D01*
X4375Y10500D02*
X8107D01*
X4375Y10600D02*
X8043D01*
X4375Y10300D02*
X8284D01*
X4375Y10400D02*
X8186D01*
X4375Y10800D02*
X7950D01*
X4375Y10900D02*
X7918D01*
X4375Y10700D02*
X7991D01*
X4375Y11000D02*
X7895D01*
X4375Y11200D02*
X7875D01*
X4375Y11300D02*
X7877D01*
X4375Y11100D02*
X7881D01*
X4375Y11400D02*
X7887D01*
X4375Y11500D02*
X7906D01*
X4375Y11600D02*
X7933D01*
X4375Y11700D02*
X7969D01*
X4375Y11800D02*
X8015D01*
X4375Y11900D02*
X8073D01*
X4375Y12000D02*
X8144D01*
X4375Y12100D02*
X8232D01*
X4375Y12200D02*
X8275D01*
X4375Y12300D02*
X8275D01*
X4375Y12400D02*
X8275D01*
X4375Y12500D02*
X8275D01*
X4375Y12600D02*
X8275D01*
X4375Y12700D02*
X8275D01*
X4375Y12800D02*
X8275D01*
X4375Y12900D02*
X8275D01*
X4375Y13000D02*
X8275D01*
X4375Y13100D02*
X8275D01*
X4372Y13200D02*
X8275D01*
X10018Y12100D02*
X10274D01*
X9975Y12200D02*
X10239D01*
X9975Y12300D02*
X10212D01*
X9975Y12400D02*
X10192D01*
X9975Y12500D02*
X10180D01*
X9975Y12600D02*
X10175D01*
X9975Y12700D02*
X10178D01*
X10281Y11700D02*
X10518D01*
X10300Y11652D02*
Y12040D01*
X10344Y11500D02*
X10732D01*
X10317Y11600D02*
X10613D01*
X10177Y11900D02*
X10373D01*
X10200Y11863D02*
Y12355D01*
X10235Y11800D02*
X10439D01*
X10106Y12000D02*
X10319D01*
X4359Y13300D02*
X8275D01*
X4334Y13400D02*
X8275D01*
X9975Y12800D02*
X10187D01*
X9975Y12900D02*
X10204D01*
X4298Y13500D02*
X8275D01*
X4248Y13600D02*
X8275D01*
X4181Y13700D02*
X8275D01*
X4094Y13800D02*
X8275D01*
X9975Y13000D02*
X10229D01*
X9975Y13100D02*
X10261D01*
X9975Y13200D02*
X10302D01*
X9975Y13300D02*
X10353D01*
X9975Y13400D02*
X10414D01*
X9975Y13500D02*
X10489D01*
X9975Y13600D02*
X10578D01*
X9975Y13700D02*
X10688D01*
X9975Y13800D02*
X10826D01*
X800Y13900D02*
X1900D01*
X800Y14000D02*
X1900D01*
X800Y14100D02*
X1900D01*
X800Y14200D02*
X1900D01*
X800Y14300D02*
X1900D01*
X800Y14400D02*
X1900D01*
X800Y14500D02*
X1900D01*
X800Y14600D02*
X1900D01*
X800Y14700D02*
X1900D01*
X800Y14800D02*
X1900D01*
X800Y14900D02*
X1900D01*
X800Y15000D02*
X1900D01*
X800Y15100D02*
X1900D01*
X800Y15200D02*
X1900D01*
X800Y15300D02*
X1900D01*
X800Y15400D02*
X1900D01*
X900Y3500D02*
Y33338D01*
X800Y3500D02*
Y33417D01*
X1100Y3500D02*
Y33218D01*
X1000Y3500D02*
Y33272D01*
X800Y15500D02*
X1900D01*
X1200Y3500D02*
Y33175D01*
X800Y15600D02*
X1900D01*
X800Y15700D02*
X1900D01*
X1300Y3500D02*
Y33140D01*
X1400Y3500D02*
Y33114D01*
X1500Y3500D02*
Y33096D01*
X1600Y3500D02*
Y33086D01*
X1700Y3500D02*
Y33083D01*
X1800Y3500D02*
Y33088D01*
X1900Y13700D02*
Y29875D01*
X1900Y3500D02*
Y33100D01*
X3800Y14094D02*
X4097Y13797D01*
X3800Y14100D02*
X8275D01*
X3800Y14200D02*
X8275D01*
X3800Y14300D02*
X8275D01*
X3800Y14400D02*
X8275D01*
X3800Y14500D02*
X8275D01*
X3800Y14600D02*
X8275D01*
X3800Y14700D02*
X8275D01*
X3800Y14800D02*
X8275D01*
X3800Y14900D02*
X8275D01*
X3800Y15000D02*
X8275D01*
X3800Y15100D02*
X8275D01*
X3800Y15200D02*
X8275D01*
X3800Y15300D02*
X8275D01*
X3800Y15400D02*
X8275D01*
X3800Y15500D02*
X8275D01*
X800Y15800D02*
X1900D01*
X800Y15900D02*
X1900D01*
X800Y16000D02*
X1900D01*
X800Y16100D02*
X1900D01*
X800Y16200D02*
X1900D01*
X800Y16300D02*
X1900D01*
X800Y16400D02*
X1900D01*
X800Y16500D02*
X1900D01*
X3800Y15800D02*
X6685D01*
X3800Y15900D02*
X6497D01*
X3800Y15600D02*
X8275D01*
X3800Y15700D02*
X8275D01*
X3800Y16300D02*
X6107D01*
X3800Y16400D02*
X6053D01*
X3800Y16000D02*
X6363D01*
X3800Y16100D02*
X6259D01*
X3800Y16200D02*
X6175D01*
X800Y16600D02*
X1900D01*
X800Y16700D02*
X1900D01*
X800Y16800D02*
X1900D01*
X800Y16900D02*
X1900D01*
X800Y17000D02*
X1900D01*
X800Y17100D02*
X1900D01*
X800Y17200D02*
X1900D01*
X800Y17300D02*
X1900D01*
X800Y17400D02*
X1900D01*
X800Y17500D02*
X1900D01*
X800Y17600D02*
X1900D01*
X800Y17700D02*
X1900D01*
X800Y17800D02*
X1900D01*
X800Y17900D02*
X1900D01*
X800Y18000D02*
X1900D01*
X800Y18100D02*
X1900D01*
X800Y18200D02*
X1900D01*
X800Y18300D02*
X1900D01*
X800Y18400D02*
X1900D01*
X800Y18500D02*
X1900D01*
X800Y18600D02*
X1900D01*
X800Y18700D02*
X1900D01*
X800Y18800D02*
X1900D01*
X800Y18900D02*
X1900D01*
X800Y19000D02*
X1900D01*
X800Y19100D02*
X1900D01*
X800Y19200D02*
X1900D01*
X800Y19300D02*
X1900D01*
X800Y19400D02*
X1900D01*
X800Y19500D02*
X1900D01*
X800Y19600D02*
X1900D01*
X800Y19700D02*
X1900D01*
X3800Y16700D02*
X5950D01*
X3800Y16800D02*
X5934D01*
X3800Y16500D02*
X6009D01*
X3800Y16600D02*
X5975D01*
X3800Y16900D02*
X5926D01*
X3800Y17000D02*
X5926D01*
X3800Y17100D02*
X5934D01*
X3800Y17200D02*
X5950D01*
X3800Y17300D02*
X5975D01*
X3800Y17400D02*
X6009D01*
X3800Y17500D02*
X6052D01*
X3800Y17600D02*
X6107D01*
X3800Y17900D02*
X5802D01*
X3800Y18000D02*
X5505D01*
X3800Y17700D02*
X6175D01*
X3800Y17800D02*
X6258D01*
X800Y19800D02*
X1900D01*
X800Y19900D02*
X1900D01*
X800Y20000D02*
X1900D01*
X800Y20100D02*
X1900D01*
X800Y20200D02*
X1900D01*
X800Y20300D02*
X1900D01*
X800Y20400D02*
X1900D01*
X800Y20500D02*
X1900D01*
X3800Y18300D02*
X5111D01*
X3800Y18400D02*
X5032D01*
X3800Y18100D02*
X5335D01*
X3800Y18200D02*
X5209D01*
X3800Y18700D02*
X4875D01*
X3800Y18800D02*
X4843D01*
X3800Y18500D02*
X4968D01*
X3800Y18600D02*
X4916D01*
X3800Y18900D02*
X4820D01*
X5700Y3015D02*
Y17925D01*
X5800Y2884D02*
Y17900D01*
X6000Y2853D02*
Y16524D01*
X5900Y2710D02*
Y17884D01*
X5500Y4839D02*
Y18003D01*
X5400Y5005D02*
Y18057D01*
X6100Y2991D02*
Y16312D01*
X5600Y3119D02*
Y17959D01*
X6300Y3189D02*
Y16057D01*
X6200Y3100D02*
Y16168D01*
X6500Y3324D02*
Y15898D01*
X6400Y3263D02*
Y15969D01*
X6600Y3374D02*
Y15840D01*
X6700Y3415D02*
Y15794D01*
X6800Y3447D02*
Y15758D01*
X6900Y3472D02*
Y15731D01*
X4200Y13675D02*
Y29881D01*
X4300Y13495D02*
Y29981D01*
X4400Y6019D02*
Y30081D01*
X4500Y5919D02*
Y30181D01*
X3800Y14094D02*
Y29482D01*
X3900Y13994D02*
Y29581D01*
X4000Y13894D02*
Y29681D01*
X4100Y13794D02*
Y29781D01*
X5100Y5319D02*
Y18313D01*
X5000Y5419D02*
Y18447D01*
X5300Y5119D02*
Y18125D01*
X5200Y5219D02*
Y18209D01*
X4600Y5819D02*
Y30281D01*
X4700Y5719D02*
Y30381D01*
X4900Y5519D02*
Y18635D01*
X4800Y5619D02*
Y28450D01*
X7100Y3498D02*
Y15702D01*
X7000Y3488D02*
Y15712D01*
X7200Y3500D02*
Y15700D01*
X7300Y3495D02*
Y15706D01*
X7400Y3483D02*
Y15720D01*
X7500Y3463D02*
Y15743D01*
X3994Y13900D02*
X8275D01*
X3894Y14000D02*
X8275D01*
X7600Y3436D02*
Y15774D01*
X7700Y3400D02*
Y15816D01*
X7800Y3355D02*
Y15867D01*
X7900Y11473D02*
Y15932D01*
X7665Y15800D02*
X8275D01*
X8000Y11770D02*
Y16011D01*
X7853Y15900D02*
X8275D01*
X7987Y16000D02*
X8275D01*
X8100Y11940D02*
Y16109D01*
X8200Y12066D02*
Y16234D01*
X8275Y12142D02*
Y16356D01*
X9975Y12142D02*
Y16775D01*
X8091Y16100D02*
X8275D01*
X8175Y16200D02*
X8275D01*
X9975Y16500D02*
X10732D01*
X10000Y12118D02*
Y23088D01*
X10100Y12007D02*
Y23088D01*
X10300Y13195D02*
Y17040D01*
X10200Y12879D02*
Y17355D01*
X10500Y13514D02*
Y16721D01*
X10400Y13378D02*
Y16856D01*
X10800Y13783D02*
Y16451D01*
X10600Y13622D02*
Y16613D01*
X10700Y13710D02*
Y16525D01*
X3800Y19000D02*
X4806D01*
X3800Y19100D02*
X4800D01*
X3800Y19200D02*
X4802D01*
X3800Y19300D02*
X4812D01*
X3800Y19400D02*
X4831D01*
X3800Y19500D02*
X4858D01*
X3800Y19600D02*
X4894D01*
X3800Y19700D02*
X4940D01*
X6000Y17376D02*
Y17876D01*
X6100Y17588D02*
Y17876D01*
X9275Y17827D02*
X9726Y17376D01*
X6200Y17732D02*
Y17884D01*
X3800Y19800D02*
X4998D01*
X3800Y19900D02*
X5069D01*
X3800Y20000D02*
X5157D01*
X5000Y19803D02*
Y28050D01*
X4900Y19615D02*
Y28206D01*
X3800Y20100D02*
X5162D01*
X5100Y19937D02*
Y27933D01*
X3800Y20200D02*
X5162D01*
X3800Y20300D02*
X5162D01*
X3800Y20400D02*
X5162D01*
X3800Y20500D02*
X5162D01*
X9500Y17602D02*
Y23088D01*
X9600Y17502D02*
Y23088D01*
X9700Y17402D02*
Y23088D01*
X9800Y17292D02*
Y23088D01*
X9275Y17827D02*
Y23088D01*
X5162Y20005D02*
Y27872D01*
X9300Y17802D02*
Y23088D01*
X9400Y17702D02*
Y23088D01*
X9702Y17400D02*
X10192D01*
X9602Y17500D02*
X10180D01*
X9502Y17600D02*
X10175D01*
X9402Y17700D02*
X10178D01*
X9302Y17800D02*
X10187D01*
X9275Y17900D02*
X10204D01*
X9975Y16800D02*
X10439D01*
X9966Y16900D02*
X10373D01*
X9975Y16600D02*
X10613D01*
X9975Y16700D02*
X10518D01*
X9910Y17100D02*
X10274D01*
X9861Y17200D02*
X10239D01*
X9945Y17000D02*
X10319D01*
X9794Y17300D02*
X10212D01*
X9275Y18000D02*
X10229D01*
X9275Y18100D02*
X10261D01*
X9275Y18200D02*
X10302D01*
X9275Y18300D02*
X10353D01*
X9275Y18400D02*
X10414D01*
X9275Y18500D02*
X10489D01*
X9275Y18600D02*
X10578D01*
X9275Y18700D02*
X10688D01*
X9900Y17124D02*
Y23088D01*
X10200Y17879D02*
Y23088D01*
X10300Y18195D02*
Y23088D01*
X10400Y18378D02*
Y23088D01*
X10500Y18514D02*
Y23088D01*
X10600Y18622D02*
Y23088D01*
X9275Y18800D02*
X10826D01*
X10700Y18710D02*
Y23088D01*
X10800Y18783D02*
Y23088D01*
X10869Y2900D02*
X11111D01*
X10792Y3000D02*
X11188D01*
X10700Y3100D02*
X11280D01*
X10586Y3200D02*
X11394D01*
X10441Y3300D02*
X11539D01*
X10240Y3400D02*
X11740D01*
X9735Y3500D02*
X12245D01*
X10932Y2800D02*
X11048D01*
X11200Y3014D02*
Y11268D01*
X11300Y3119D02*
Y11245D01*
X11400Y3205D02*
Y11228D01*
X11500Y3276D02*
Y11219D01*
X12981Y3300D02*
X14079D01*
X11600Y3335D02*
Y11217D01*
X11000Y2710D02*
Y11341D01*
X10900Y2854D02*
Y11391D01*
X11700Y3383D02*
Y11223D01*
X11100Y2884D02*
Y11300D01*
X11800Y3422D02*
Y11235D01*
X11900Y3453D02*
Y11255D01*
X12000Y3476D02*
Y11283D01*
X12100Y3491D02*
Y11319D01*
X12200Y3499D02*
Y11364D01*
X12700Y3429D02*
Y11784D01*
X12800Y3392D02*
Y11939D01*
X12900Y3345D02*
Y12164D01*
X12300Y3499D02*
Y11419D01*
X12400Y3493D02*
Y11486D01*
X12500Y3479D02*
Y11566D01*
X12600Y3458D02*
Y11663D01*
X5590Y3600D02*
X26650D01*
X5590Y3700D02*
X26650D01*
X5590Y3800D02*
X26650D01*
X5590Y3900D02*
X26650D01*
X5590Y4000D02*
X26650D01*
X5590Y4100D02*
X26650D01*
X5590Y4200D02*
X26650D01*
X5468Y4900D02*
X26650D01*
X12780Y3400D02*
X14280D01*
X12275Y3500D02*
X14785D01*
X5590Y4300D02*
X26650D01*
X5590Y4400D02*
X26650D01*
X5588Y4500D02*
X26650D01*
X5576Y4600D02*
X26650D01*
X5552Y4700D02*
X26650D01*
X5517Y4800D02*
X26650D01*
X4619Y5800D02*
X26650D01*
X4519Y5900D02*
X26650D01*
X4419Y6000D02*
X26650D01*
X4375Y6100D02*
X26650D01*
X4375Y6200D02*
X26650D01*
X4375Y6300D02*
X26650D01*
X4375Y6400D02*
X26650D01*
X4375Y6500D02*
X26650D01*
X5404Y5000D02*
X26650D01*
X5319Y5100D02*
X26650D01*
X5219Y5200D02*
X26650D01*
X5119Y5300D02*
X26650D01*
X5019Y5400D02*
X26650D01*
X4919Y5500D02*
X26650D01*
X4819Y5600D02*
X26650D01*
X4719Y5700D02*
X26650D01*
X4375Y9600D02*
X24276D01*
X4375Y9700D02*
X24275D01*
X4375Y9800D02*
X24275D01*
X4375Y9900D02*
X24275D01*
X9373Y10000D02*
X24275D01*
X9670Y10100D02*
X24275D01*
X9840Y10200D02*
X24275D01*
X9966Y10300D02*
X24275D01*
X10300Y10800D02*
X13263D01*
X10332Y10900D02*
X13263D01*
X10064Y10400D02*
X24275D01*
X10355Y11000D02*
X13263D01*
X10369Y11100D02*
X13263D01*
X10373Y11300D02*
X11101D01*
X10375Y11200D02*
X13263D01*
X12049Y11300D02*
X13263D01*
X10363Y11400D02*
X10884D01*
X12267D02*
X13263D01*
X12419Y11500D02*
X13263D01*
X12537Y11600D02*
X13263D01*
X12633Y11700D02*
X13263D01*
X12712Y11800D02*
X13263D01*
X12777Y11900D02*
X13263D01*
X12832Y12000D02*
X13263D01*
X12876Y12100D02*
X13263D01*
X12912Y12200D02*
X13263D01*
X12939Y12300D02*
X13263D01*
X12958Y12400D02*
X13263D01*
X12922Y13000D02*
X13263D01*
X12889Y13100D02*
X13263D01*
X12848Y13200D02*
X13263D01*
X12797Y13300D02*
X13263D01*
X4375Y6600D02*
X26650D01*
X4375Y6700D02*
X26650D01*
X4375Y6800D02*
X26650D01*
X4375Y6900D02*
X26650D01*
X4375Y7000D02*
X26650D01*
X4375Y7100D02*
X26650D01*
X4375Y7200D02*
X26650D01*
X4375Y7300D02*
X26650D01*
X4375Y7400D02*
X26650D01*
X4375Y7500D02*
X26650D01*
X4375Y7600D02*
X26650D01*
X4375Y7700D02*
X26650D01*
X4375Y8000D02*
X25062D01*
X4375Y8100D02*
X24918D01*
X4375Y7800D02*
X26650D01*
X4375Y7900D02*
X25274D01*
X4375Y8400D02*
X24648D01*
X4375Y8500D02*
X24590D01*
X4375Y8200D02*
X24807D01*
X4375Y8300D02*
X24719D01*
X4375Y8700D02*
X24508D01*
X4375Y8800D02*
X24481D01*
X4375Y8600D02*
X24544D01*
X4375Y8900D02*
X24462D01*
X4375Y9200D02*
X24404D01*
X4375Y9300D02*
X24350D01*
X4375Y9000D02*
X24452D01*
X4375Y9100D02*
X24450D01*
X10143Y10500D02*
X24275D01*
X10207Y10600D02*
X24275D01*
X4375Y9400D02*
X24313D01*
X4375Y9500D02*
X24288D01*
X10259Y10700D02*
X24275D01*
X13400Y2913D02*
Y10707D01*
X13500Y2750D02*
Y10707D01*
X13472Y2800D02*
X13588D01*
X13409Y2900D02*
X13651D01*
X13332Y3000D02*
X13728D01*
X13300Y3037D02*
Y10707D01*
X13240Y3100D02*
X13820D01*
X13126Y3200D02*
X13934D01*
X13600Y2821D02*
Y10707D01*
X16012Y2800D02*
X16128D01*
X15949Y2900D02*
X16191D01*
X13700Y2966D02*
Y10707D01*
X13800Y3080D02*
Y10707D01*
X15872Y3000D02*
X16268D01*
X15780Y3100D02*
X16360D01*
X13900Y3172D02*
Y10707D01*
X14000Y3249D02*
Y10707D01*
X14100Y3312D02*
Y10707D01*
X15500Y3312D02*
Y10707D01*
X14200Y3365D02*
Y10707D01*
X14300Y3408D02*
Y10707D01*
X15300Y3408D02*
Y10707D01*
X15400Y3365D02*
Y10707D01*
X15800Y3080D02*
Y10707D01*
X15900Y2966D02*
Y10707D01*
X16000Y2821D02*
Y10707D01*
X16200Y2912D02*
Y10707D01*
X15600Y3249D02*
Y10707D01*
X15700Y3172D02*
Y10707D01*
X16300Y3037D02*
Y10707D01*
X16400Y3137D02*
Y10707D01*
X15666Y3200D02*
X16474D01*
X16500Y3220D02*
Y10707D01*
X15521Y3300D02*
X16619D01*
X15320Y3400D02*
X16820D01*
X16600Y3288D02*
Y10707D01*
X18061Y3300D02*
X19159D01*
X17860Y3400D02*
X19360D01*
X18552Y2800D02*
X18668D01*
X18489Y2900D02*
X18731D01*
X18412Y3000D02*
X18808D01*
X18320Y3100D02*
X18900D01*
X18206Y3200D02*
X19014D01*
X20746D02*
X21554D01*
X20601Y3300D02*
X21699D01*
X16700Y3345D02*
Y10707D01*
X18000Y3335D02*
Y10707D01*
X18200Y3205D02*
Y10707D01*
X18300Y3119D02*
Y10707D01*
X16800Y3392D02*
Y10707D01*
X16900Y3429D02*
Y10707D01*
X17800Y3422D02*
Y10707D01*
X18100Y3276D02*
Y10707D01*
X18400Y3015D02*
Y10707D01*
X18500Y2884D02*
Y10707D01*
X18600Y2710D02*
Y10707D01*
X18700Y2853D02*
Y10707D01*
X18800Y2991D02*
Y10707D01*
X18900Y3100D02*
Y10707D01*
X19000Y3189D02*
Y10987D01*
X19100Y3263D02*
Y11016D01*
X19200Y3324D02*
Y11054D01*
X14400Y3442D02*
Y10707D01*
X14500Y3467D02*
Y10707D01*
X14600Y3486D02*
Y10707D01*
X14700Y3496D02*
Y10707D01*
X14800Y3500D02*
Y10707D01*
X14900Y3496D02*
Y10707D01*
X14815Y3500D02*
X17325D01*
X13263Y10707D02*
X16063D01*
X15000Y3486D02*
Y10707D01*
X15100Y3467D02*
Y10707D01*
X15200Y3442D02*
Y10707D01*
X17000Y3458D02*
Y10707D01*
X17100Y3479D02*
Y10707D01*
X17200Y3493D02*
Y10707D01*
X17300Y3499D02*
Y10707D01*
X17400Y3499D02*
Y10707D01*
X12970Y12500D02*
X13263D01*
X16163Y10707D02*
X18963D01*
X12975Y12600D02*
X13263D01*
X12973Y12700D02*
X13263D01*
X12963Y12800D02*
X13263D01*
X12946Y12900D02*
X13263D01*
X17500Y3491D02*
Y10707D01*
X17900Y3383D02*
Y10707D01*
X19300Y3374D02*
Y11103D01*
X19400Y3415D02*
Y11164D01*
X17600Y3476D02*
Y10707D01*
X17700Y3453D02*
Y10707D01*
X18963D02*
Y10978D01*
X19500Y3447D02*
Y11239D01*
X17355Y3500D02*
X19865D01*
X19600Y3472D02*
Y11332D01*
X18963Y10800D02*
X24275D01*
X18963Y10900D02*
X24275D01*
X19050Y11000D02*
X24275D01*
X19294Y11100D02*
X24275D01*
X19450Y11200D02*
X24275D01*
X19567Y11300D02*
X24275D01*
X19700Y3488D02*
Y11450D01*
X19800Y3498D02*
Y11606D01*
X20400Y3400D02*
X21900D01*
X19895Y3500D02*
X22405D01*
X19660Y11400D02*
X24275D01*
X19736Y11500D02*
X24275D01*
X19797Y11600D02*
X24275D01*
X19846Y11700D02*
X24275D01*
X19900Y3500D02*
Y11850D01*
X19884Y11800D02*
X24275D01*
X19797Y12800D02*
X24275D01*
X19736Y12900D02*
X24275D01*
X19661Y13000D02*
X24275D01*
X19568Y13100D02*
X24275D01*
X19450Y13200D02*
X24275D01*
X19913Y11900D02*
X24275D01*
X19934Y12000D02*
X24275D01*
X19946Y12100D02*
X24275D01*
X19950Y12200D02*
X24275D01*
X19946Y12300D02*
X24275D01*
X19934Y12400D02*
X24275D01*
X19913Y12500D02*
X24275D01*
X19884Y12600D02*
X24275D01*
X19846Y12700D02*
X24275D01*
X9975Y13900D02*
X11014D01*
X11000Y13894D02*
Y16341D01*
X9975Y14000D02*
X11356D01*
X11200Y13966D02*
Y16268D01*
X11100Y13934D02*
Y16300D01*
X11300Y13990D02*
Y16245D01*
X11400Y14006D02*
Y16228D01*
X11800Y13999D02*
Y16235D01*
X11900Y13979D02*
Y16255D01*
X12736Y13400D02*
X13263D01*
Y10707D02*
Y13807D01*
X11500Y14015D02*
Y16219D01*
X11600Y14017D02*
Y16217D01*
X11700Y14012D02*
Y16223D01*
X12000Y13951D02*
Y16283D01*
X12100Y13915D02*
Y16319D01*
X10900Y13844D02*
Y16391D01*
X12300Y13815D02*
Y16419D01*
X12400Y13749D02*
Y16486D01*
X9975Y16300D02*
X11101D01*
X9975Y16400D02*
X10884D01*
X12200Y13870D02*
Y16364D01*
X12900Y13070D02*
Y17164D01*
X13000Y3289D02*
Y23321D01*
X13100Y3220D02*
Y23398D01*
X13200Y3138D02*
Y23397D01*
X12500Y13668D02*
Y16566D01*
X12600Y13571D02*
Y16663D01*
X12700Y13451D02*
Y16784D01*
X12800Y13296D02*
Y16939D01*
X9975Y14100D02*
X23933D01*
X9975Y14200D02*
X23906D01*
X9975Y14300D02*
X23887D01*
X9975Y14400D02*
X23877D01*
X9975Y14500D02*
X23875D01*
X9975Y14600D02*
X23881D01*
X9975Y14700D02*
X23895D01*
X9975Y14800D02*
X23918D01*
X12662Y13500D02*
X13263D01*
X12572Y13600D02*
X13263D01*
X12463Y13700D02*
X13263D01*
X12324Y13800D02*
X13263D01*
Y13807D02*
X16063D01*
X12136Y13900D02*
X24015D01*
X11795Y14000D02*
X23969D01*
X9975Y14900D02*
X23949D01*
X9975Y15000D02*
X23991D01*
X9975Y15100D02*
X24042D01*
X9975Y15200D02*
X24107D01*
X9975Y15300D02*
X24186D01*
X9975Y15400D02*
X24284D01*
X9975Y15500D02*
X24409D01*
X9975Y15600D02*
X24580D01*
X9975Y15700D02*
X24876D01*
X13400Y13807D02*
Y23159D01*
X13300Y13807D02*
Y23263D01*
X9975Y15800D02*
X31565D01*
X13500Y13807D02*
Y23075D01*
X9975Y16200D02*
X22069D01*
X12049Y16300D02*
X21969D01*
X9975Y15900D02*
X31620D01*
X9975Y16000D02*
X22337D01*
X9975Y16100D02*
X22176D01*
X9275Y18900D02*
X11014D01*
X10900Y18844D02*
Y23088D01*
X12136Y18900D02*
X16174D01*
X11000Y18894D02*
Y23088D01*
X9275Y19000D02*
X11356D01*
X12100Y18915D02*
Y23098D01*
X11795Y19000D02*
X16274D01*
X12200Y18870D02*
Y23090D01*
X12736Y18400D02*
X16066D01*
X12662Y18500D02*
X15966D01*
X12848Y18200D02*
X16266D01*
X12797Y18300D02*
X16166D01*
X12572Y18600D02*
X15874D01*
X12300Y18815D02*
Y23089D01*
X12463Y18700D02*
X15974D01*
X12324Y18800D02*
X16074D01*
X11200Y18966D02*
Y23633D01*
X11100Y18934D02*
Y23798D01*
X11800Y18999D02*
Y23172D01*
X11300Y18990D02*
Y23510D01*
X11500Y19015D02*
Y23332D01*
X11400Y19006D02*
Y23412D01*
X11600Y19017D02*
Y23267D01*
X11700Y19012D02*
Y23214D01*
X12600Y18571D02*
Y23134D01*
X12700Y18451D02*
Y23166D01*
X12800Y18296D02*
Y23207D01*
X12900Y18070D02*
Y23258D01*
X11900Y18979D02*
Y23138D01*
X12000Y18951D02*
Y23114D01*
X12400Y18749D02*
Y23096D01*
X12500Y18668D02*
Y23111D01*
X12537Y16600D02*
X17866D01*
X12633Y16700D02*
X17766D01*
X12267Y16400D02*
X21869D01*
X12419Y16500D02*
X17966D01*
X12832Y17000D02*
X17466D01*
X12876Y17100D02*
X17366D01*
X12712Y16800D02*
X17666D01*
X12777Y16900D02*
X17566D01*
X12958Y17400D02*
X17066D01*
X12970Y17500D02*
X16966D01*
X12912Y17200D02*
X17266D01*
X12939Y17300D02*
X17166D01*
X12963Y17800D02*
X16666D01*
X12946Y17900D02*
X16566D01*
X12975Y17600D02*
X16866D01*
X12973Y17700D02*
X16766D01*
X9275Y19100D02*
X16374D01*
X9275Y19200D02*
X16474D01*
X9275Y19300D02*
X16574D01*
X9275Y19400D02*
X16674D01*
X9275Y19500D02*
X16774D01*
X9275Y19600D02*
X16874D01*
X9275Y19700D02*
X16974D01*
X9275Y19800D02*
X17074D01*
X12922Y18000D02*
X16466D01*
X12889Y18100D02*
X16366D01*
X9275Y19900D02*
X17174D01*
X9275Y20000D02*
X17274D01*
X9275Y20100D02*
X17374D01*
X9275Y20200D02*
X17474D01*
X9275Y20300D02*
X17574D01*
X9275Y20400D02*
X17674D01*
X9275Y20500D02*
X17769D01*
X14000Y13807D02*
Y22850D01*
X14100Y13807D02*
Y22834D01*
X14200Y13807D02*
Y22826D01*
X15600Y13807D02*
Y22669D01*
X15500Y13807D02*
Y22769D01*
X15800Y13807D02*
Y22469D01*
X15700Y13807D02*
Y22569D01*
X16000Y13807D02*
Y18466D01*
X15900Y13807D02*
Y18566D01*
X16300Y13807D02*
Y18166D01*
X16200Y13807D02*
Y18266D01*
X16500Y13807D02*
Y17966D01*
X16400Y13807D02*
Y18066D01*
X16700Y13807D02*
Y17766D01*
X16600Y13807D02*
Y17866D01*
X13600Y13807D02*
Y23007D01*
X13700Y13807D02*
Y22953D01*
X13800Y13807D02*
Y22909D01*
X13900Y13807D02*
Y22875D01*
X14300Y13807D02*
Y22826D01*
X14400Y13807D02*
Y22834D01*
X14500Y13807D02*
Y22850D01*
X14600Y13807D02*
Y22875D01*
X14700Y13807D02*
Y22909D01*
X14800Y13807D02*
Y22952D01*
X14900Y13807D02*
Y23007D01*
X15000Y13807D02*
Y23075D01*
X15200Y13807D02*
Y23069D01*
X15100Y13807D02*
Y23158D01*
X15400Y13807D02*
Y22869D01*
X15300Y13807D02*
Y22969D01*
X16163Y13807D02*
X18963D01*
X16900D02*
Y17566D01*
X18963Y13500D02*
X24275D01*
X17100Y13807D02*
Y17366D01*
X17000Y13807D02*
Y17466D01*
X17300Y13807D02*
Y17166D01*
X17200Y13807D02*
Y17266D01*
X18963Y13422D02*
Y13807D01*
X19000Y13413D02*
Y17342D01*
X19294Y13300D02*
X24275D01*
X20800Y3155D02*
Y17469D01*
X18963Y13700D02*
X24144D01*
X19100Y13384D02*
Y17442D01*
X19050Y13400D02*
X24275D01*
X18963Y13600D02*
X24232D01*
X19500Y13161D02*
Y17842D01*
X19600Y13068D02*
Y17942D01*
X19700Y12950D02*
Y18042D01*
X19800Y12794D02*
Y18142D01*
X19200Y13346D02*
Y17542D01*
X16800Y13807D02*
Y17666D01*
X19300Y13297D02*
Y17642D01*
X19400Y13236D02*
Y17742D01*
X20400Y3400D02*
Y17869D01*
X20300Y3436D02*
Y17969D01*
X20700Y3235D02*
Y17569D01*
X20600Y3301D02*
Y17669D01*
X19900Y12550D02*
Y18242D01*
X20000Y3495D02*
Y18269D01*
X20500Y3355D02*
Y17769D01*
X20100Y3483D02*
Y18169D01*
X20200Y3463D02*
Y18069D01*
X17500Y13807D02*
Y16966D01*
X17400Y13807D02*
Y17066D01*
X15870Y18596D02*
X18062Y16404D01*
X16000Y18466D02*
Y18726D01*
X16100Y18366D02*
Y18826D01*
X15870Y18596D02*
X17771Y20498D01*
X17500Y20226D02*
Y20769D01*
X17700Y13807D02*
Y16766D01*
X17600Y13807D02*
Y16866D01*
X17900Y13807D02*
Y16566D01*
X17800Y13807D02*
Y16666D01*
X17700Y20426D02*
Y20569D01*
X17600Y20326D02*
Y20669D01*
X18100Y13807D02*
Y16442D01*
X18000Y13807D02*
Y16466D01*
X16000Y18726D02*
Y22269D01*
X15900Y18626D02*
Y22369D01*
X16200Y18926D02*
Y22069D01*
X16100Y18826D02*
Y22169D01*
X16400Y19126D02*
Y21869D01*
X16300Y19026D02*
Y21969D01*
X16600Y19326D02*
Y21669D01*
X16500Y19226D02*
Y21769D01*
X16800Y19526D02*
Y21469D01*
X16700Y19426D02*
Y21569D01*
X17000Y19726D02*
Y21269D01*
X16900Y19626D02*
Y21369D01*
X17200Y19926D02*
Y21069D01*
X17100Y19826D02*
Y21169D01*
X17400Y20126D02*
Y20869D01*
X17300Y20026D02*
Y20969D01*
X17966Y16500D02*
X18158D01*
X18200Y13807D02*
Y16542D01*
X18300Y13807D02*
Y16642D01*
X18400Y13807D02*
Y16742D01*
X17866Y16600D02*
X18258D01*
X18358Y16700D02*
X21569D01*
X18158Y16500D02*
X21769D01*
X18258Y16600D02*
X21669D01*
X18500Y13807D02*
Y16842D01*
X18600Y13807D02*
Y16942D01*
X18963Y13800D02*
X24073D01*
X18700Y13807D02*
Y17042D01*
X18658Y17000D02*
X21269D01*
X18758Y17100D02*
X21169D01*
X18458Y16800D02*
X21469D01*
X18558Y16900D02*
X21369D01*
X18800Y13807D02*
Y17142D01*
X18900Y13807D02*
Y17242D01*
X18858Y17200D02*
X21069D01*
X18062Y16404D02*
X19963Y18306D01*
X18958Y17300D02*
X20969D01*
X19058Y17400D02*
X20869D01*
X19258Y17600D02*
X20669D01*
X19358Y17700D02*
X20569D01*
X19158Y17500D02*
X20769D01*
X19964Y18305D02*
X22108Y16160D01*
X19758Y18100D02*
X20169D01*
X19858Y18200D02*
X20069D01*
X19458Y17800D02*
X20469D01*
X19558Y17900D02*
X20369D01*
X19658Y18000D02*
X20269D01*
X800Y20600D02*
X1900D01*
X800Y20700D02*
X1900D01*
X800Y20800D02*
X1900D01*
X800Y20900D02*
X1900D01*
X800Y21000D02*
X1900D01*
X800Y21100D02*
X1900D01*
X800Y21200D02*
X1900D01*
X800Y21300D02*
X1900D01*
X800Y21400D02*
X1900D01*
X800Y21500D02*
X1900D01*
X800Y21600D02*
X1900D01*
X800Y21700D02*
X1900D01*
X800Y21800D02*
X1900D01*
X800Y21900D02*
X1900D01*
X800Y22000D02*
X1900D01*
X800Y22100D02*
X1900D01*
X800Y22200D02*
X1900D01*
X800Y22300D02*
X1900D01*
X800Y22400D02*
X1900D01*
X800Y22500D02*
X1900D01*
X800Y22600D02*
X1900D01*
X800Y22700D02*
X1900D01*
X800Y22800D02*
X1900D01*
X800Y22900D02*
X1900D01*
X800Y23000D02*
X1900D01*
X800Y23100D02*
X1900D01*
X800Y23200D02*
X1900D01*
X800Y23300D02*
X1900D01*
X800Y23400D02*
X1900D01*
X800Y23500D02*
X1900D01*
X800Y23600D02*
X1900D01*
X800Y23700D02*
X1900D01*
X800Y23800D02*
X1900D01*
X800Y23900D02*
X1900D01*
X3800Y20600D02*
X5162D01*
X3800Y20700D02*
X5162D01*
X800Y24000D02*
X1900D01*
X800Y24100D02*
X1900D01*
X800Y24200D02*
X1900D01*
X800Y24300D02*
X1900D01*
X3800Y20800D02*
X5162D01*
X3800Y20900D02*
X5162D01*
X3800Y21000D02*
X5162D01*
X3800Y21100D02*
X5162D01*
X3800Y21200D02*
X5162D01*
X3800Y21300D02*
X5162D01*
X3800Y21400D02*
X5162D01*
X3800Y21500D02*
X5162D01*
X800Y24400D02*
X1900D01*
X800Y24500D02*
X1900D01*
X800Y24600D02*
X1900D01*
X800Y24700D02*
X1900D01*
X800Y24800D02*
X1900D01*
X800Y24900D02*
X1900D01*
X800Y25000D02*
X1900D01*
X800Y25100D02*
X1900D01*
X800Y25200D02*
X1900D01*
X800Y25300D02*
X1900D01*
X800Y25400D02*
X1900D01*
X800Y25500D02*
X1900D01*
X800Y25600D02*
X1900D01*
X800Y25700D02*
X1900D01*
X800Y25800D02*
X1900D01*
X800Y25900D02*
X1900D01*
X800Y26000D02*
X1900D01*
X800Y26100D02*
X1900D01*
X800Y26200D02*
X1900D01*
X800Y26300D02*
X1900D01*
X800Y26400D02*
X1900D01*
X800Y26500D02*
X1900D01*
X800Y26600D02*
X1900D01*
X800Y26700D02*
X1900D01*
X800Y26800D02*
X1900D01*
X800Y26900D02*
X1900D01*
X800Y27000D02*
X1900D01*
X800Y27100D02*
X1900D01*
X800Y27200D02*
X1900D01*
X800Y27300D02*
X1900D01*
X800Y27400D02*
X1900D01*
X800Y27500D02*
X1900D01*
X800Y27600D02*
X1900D01*
X800Y27700D02*
X1900D01*
X800Y27800D02*
X1900D01*
X800Y27900D02*
X1900D01*
X800Y28000D02*
X1900D01*
X800Y28100D02*
X1900D01*
X800Y28200D02*
X1900D01*
X800Y28300D02*
X1900D01*
X800Y28400D02*
X1900D01*
X800Y28500D02*
X1900D01*
X800Y28600D02*
X1900D01*
X800Y28700D02*
X1900D01*
X800Y28800D02*
X1900D01*
X800Y28900D02*
X1900D01*
X800Y29000D02*
X1900D01*
X800Y29100D02*
X1900D01*
X800Y29200D02*
X1900D01*
X800Y29300D02*
X1900D01*
X800Y29400D02*
X1900D01*
X800Y29500D02*
X1900D01*
X800Y29600D02*
X1900D01*
X800Y29700D02*
X1900D01*
X800Y29800D02*
X1900D01*
X800Y29900D02*
X1900D01*
X800Y30000D02*
X1908D01*
X800Y30100D02*
X1927D01*
X800Y30200D02*
X1957D01*
X800Y30300D02*
X2000D01*
X800Y30400D02*
X2058D01*
X800Y30500D02*
X2134D01*
X800Y30600D02*
X2231D01*
X800Y30700D02*
X2331D01*
X800Y30800D02*
X2431D01*
X800Y30900D02*
X2531D01*
X800Y31000D02*
X2631D01*
X800Y31100D02*
X2731D01*
X800Y31200D02*
X2831D01*
X800Y31300D02*
X2931D01*
X800Y31400D02*
X3031D01*
X800Y31500D02*
X3131D01*
X800Y31600D02*
X3231D01*
X2178Y30547D02*
X3239Y31607D01*
X800Y31700D02*
X3239D01*
X800Y31800D02*
X3239D01*
X800Y31900D02*
X3239D01*
X800Y32000D02*
X3239D01*
X800Y32100D02*
X3239D01*
X3800Y21600D02*
X5162D01*
X3800Y21700D02*
X5162D01*
X3800Y21800D02*
X5162D01*
X3800Y21900D02*
X5162D01*
X3800Y22000D02*
X5162D01*
X3800Y22100D02*
X5162D01*
X3800Y22200D02*
X5162D01*
X3800Y22300D02*
X5162D01*
X3800Y22400D02*
X5162D01*
X3800Y22500D02*
X5162D01*
X3800Y22600D02*
X5162D01*
X3800Y22700D02*
X5162D01*
X3800Y22800D02*
X5162D01*
X3800Y22900D02*
X5162D01*
X3800Y23000D02*
X5162D01*
X3800Y23100D02*
X5162D01*
X3800Y23200D02*
X5162D01*
X3800Y23300D02*
X5162D01*
X3800Y23400D02*
X5162D01*
X3800Y23500D02*
X5162D01*
X3800Y23600D02*
X5162D01*
X3800Y23700D02*
X5162D01*
X3800Y23800D02*
X5162D01*
X3800Y23900D02*
X5162D01*
X3800Y24000D02*
X5162D01*
X3800Y24100D02*
X5162D01*
X3800Y24200D02*
X5162D01*
X3800Y24300D02*
X5162D01*
X3800Y24400D02*
X5162D01*
X3800Y24500D02*
X5162D01*
X3800Y24600D02*
X5162D01*
X3800Y24700D02*
X5162D01*
X3800Y24800D02*
X5162D01*
X3800Y24900D02*
X5162D01*
X3800Y25000D02*
X5162D01*
X3800Y25100D02*
X5162D01*
X3800Y25200D02*
X5162D01*
X3800Y25300D02*
X5162D01*
X3800Y25400D02*
X5162D01*
X3800Y25500D02*
X5162D01*
X3800Y25600D02*
X5162D01*
X3800Y25700D02*
X5162D01*
X9275Y25688D02*
Y26063D01*
X9300Y25688D02*
Y26063D01*
X3800Y25800D02*
X5162D01*
X3800Y25900D02*
X5162D01*
X3800Y26000D02*
X5162D01*
X3800Y26100D02*
X5162D01*
X3800Y26200D02*
X5162D01*
X3800Y26300D02*
X5162D01*
X3800Y26400D02*
X5162D01*
X3800Y26500D02*
X5162D01*
X3800Y26600D02*
X5162D01*
X3800Y26700D02*
X5162D01*
X3800Y26800D02*
X5162D01*
X3800Y26900D02*
X5162D01*
X9400Y25688D02*
Y26063D01*
X9500Y25688D02*
Y26063D01*
X9600Y25688D02*
Y26063D01*
X9700Y25688D02*
Y26063D01*
X3800Y27000D02*
X5162D01*
X3800Y27100D02*
X5162D01*
X3800Y27200D02*
X5162D01*
X3800Y27300D02*
X5162D01*
X3800Y27400D02*
X5162D01*
X3800Y27500D02*
X5162D01*
X3800Y27600D02*
X5162D01*
X3800Y27700D02*
X5162D01*
X3800Y27800D02*
X5162D01*
X3800Y28100D02*
X4964D01*
X3800Y28200D02*
X4903D01*
X3800Y27900D02*
X5133D01*
X3800Y28000D02*
X5040D01*
X3800Y28500D02*
X4787D01*
X3800Y28600D02*
X4766D01*
X3800Y28300D02*
X4854D01*
X3800Y28400D02*
X4816D01*
X3800Y28700D02*
X4754D01*
X3800Y28800D02*
X4750D01*
X3800Y28900D02*
X4754D01*
X3800Y29000D02*
X4766D01*
X3800Y29100D02*
X4786D01*
X3800Y29200D02*
X4816D01*
X3800Y29300D02*
X4854D01*
X3800Y29400D02*
X4903D01*
X3818Y29500D02*
X4964D01*
X3800Y29482D02*
X4860Y30542D01*
X3918Y29600D02*
X5039D01*
X4018Y29700D02*
X5132D01*
X4800Y29150D02*
Y30481D01*
X4900Y29394D02*
Y30584D01*
X5000Y29550D02*
Y30719D01*
X5100Y29667D02*
Y30945D01*
X4118Y29800D02*
X5250D01*
X4218Y29900D02*
X5406D01*
X4318Y30000D02*
X5650D01*
X4418Y30100D02*
X6325D01*
X4518Y30200D02*
X6325D01*
X4618Y30300D02*
X6325D01*
X4718Y30400D02*
X6325D01*
X4818Y30500D02*
X6325D01*
X4914Y30600D02*
X6325D01*
X9275Y28663D02*
Y30086D01*
X9300Y28663D02*
Y30108D01*
X9400Y28663D02*
Y30212D01*
X9500Y28663D02*
Y30347D01*
X4988Y30700D02*
X6325D01*
X5044Y30800D02*
X6325D01*
X9600Y28663D02*
Y30535D01*
X5085Y30900D02*
X6325D01*
X5114Y31000D02*
X6325D01*
X5132Y31100D02*
X6325D01*
X5139Y31200D02*
X6325D01*
X5139Y31300D02*
X6325D01*
X5139Y31400D02*
X6325D01*
X5139Y31700D02*
X6225D01*
X5139Y31500D02*
X6325D01*
X5139Y31600D02*
X6309D01*
X6200Y30034D02*
Y31735D01*
X6100Y30046D02*
Y31905D01*
X9700Y28663D02*
Y31010D01*
X6325Y30007D02*
Y31583D01*
X5139Y31900D02*
X6103D01*
X5139Y32100D02*
X6025D01*
X6300Y30013D02*
Y31609D01*
X5139Y31800D02*
X6157D01*
X5139Y32000D02*
X6059D01*
X800Y33200D02*
X1140D01*
X800Y33300D02*
X955D01*
X800Y33100D02*
X1477D01*
X800Y35450D02*
Y42750D01*
X900Y35529D02*
Y42750D01*
X800Y35600D02*
X1009D01*
X800Y35700D02*
X1222D01*
X2000Y30299D02*
Y33120D01*
X2100Y30458D02*
Y33147D01*
X2200Y30568D02*
Y33184D01*
X2300Y30668D02*
Y33230D01*
X2400Y30768D02*
Y33286D01*
X2500Y30868D02*
Y33354D01*
X2600Y30968D02*
Y33437D01*
X1000Y35594D02*
Y42750D01*
X1100Y35648D02*
Y42750D01*
X1200Y35692D02*
Y42750D01*
X1300Y35726D02*
Y42750D01*
X1400Y35752D02*
Y42750D01*
X1500Y35770D02*
Y42750D01*
X1600Y35780D02*
Y42750D01*
X1700Y35783D02*
Y42750D01*
X2100Y35719D02*
Y42750D01*
X2300Y35637D02*
Y42750D01*
X2400Y35581D02*
Y42750D01*
X2500Y35512D02*
Y42750D01*
X1800Y35779D02*
Y42750D01*
X1900Y35767D02*
Y42750D01*
X2000Y35747D02*
Y42750D01*
X2200Y35683D02*
Y42750D01*
X800Y32200D02*
X3239D01*
X800Y32300D02*
X3239D01*
X800Y32400D02*
X3239D01*
X800Y32500D02*
X3239D01*
X800Y32600D02*
X3239D01*
X800Y32700D02*
X3239D01*
X800Y32800D02*
X3239D01*
X800Y32900D02*
X3239D01*
X2900Y31268D02*
Y33083D01*
X1900Y33100D02*
X2839D01*
X800Y33000D02*
X3239D01*
X2839Y33083D02*
X3239D01*
X2238Y33200D02*
X2839D01*
X2422Y33300D02*
X2839D01*
X2557Y33400D02*
X2839D01*
X2664Y33500D02*
X2839D01*
X2600Y35429D02*
Y42750D01*
X2516Y35500D02*
X2839D01*
X2368Y35600D02*
X2839D01*
X2156Y35700D02*
X2839D01*
X800Y35800D02*
X3239D01*
X800Y35900D02*
X3239D01*
X2700Y31068D02*
Y33539D01*
X2800Y31168D02*
Y33667D01*
X2839Y33083D02*
Y33726D01*
Y35140D02*
Y35783D01*
X2700Y35327D02*
Y42750D01*
X2800Y35200D02*
Y42750D01*
X2724Y35300D02*
X2839D01*
X2631Y35400D02*
X2839D01*
Y35783D02*
X3239D01*
X800Y36000D02*
X3239D01*
X800Y36100D02*
X3239D01*
X800Y36200D02*
X3239D01*
X800Y36300D02*
X3239D01*
X800Y36400D02*
X3239D01*
X800Y36500D02*
X3239D01*
X800Y36600D02*
X3239D01*
X800Y36700D02*
X3239D01*
X800Y36800D02*
X3239D01*
X800Y36900D02*
X3239D01*
X800Y37000D02*
X3239D01*
X800Y37100D02*
X3239D01*
X800Y37200D02*
X3239D01*
X800Y37300D02*
X3239D01*
X800Y37400D02*
X3239D01*
X800Y37500D02*
X3239D01*
X800Y37600D02*
X3239D01*
X800Y37700D02*
X3239D01*
X800Y37800D02*
X3239D01*
X800Y37900D02*
X3239D01*
X800Y38000D02*
X3239D01*
X800Y38100D02*
X3239D01*
X800Y38200D02*
X3239D01*
X800Y38300D02*
X3239D01*
X800Y38400D02*
X3239D01*
X800Y38500D02*
X3239D01*
X800Y38600D02*
X3239D01*
X800Y38700D02*
X3239D01*
X800Y38800D02*
X3239D01*
X800Y38900D02*
X3239D01*
X800Y39000D02*
X3239D01*
X800Y39100D02*
X3239D01*
X800Y39200D02*
X3239D01*
X800Y39300D02*
X3239D01*
X800Y39400D02*
X3239D01*
X800Y39500D02*
X3241D01*
X800Y39600D02*
X3252D01*
X800Y39700D02*
X3275D01*
X800Y39800D02*
X3310D01*
X800Y39900D02*
X3358D01*
X800Y40000D02*
X3422D01*
X800Y40100D02*
X3507D01*
X800Y40200D02*
X3614D01*
X800Y40300D02*
X3723D01*
X800Y40400D02*
X3833D01*
X800Y40500D02*
X3943D01*
X800Y40600D02*
X4053D01*
X800Y40700D02*
X4163D01*
X800Y40800D02*
X4272D01*
X800Y40900D02*
X4382D01*
X800Y41000D02*
X4492D01*
X800Y41100D02*
X4602D01*
X800Y41200D02*
X4712D01*
X800Y41300D02*
X4821D01*
X800Y41400D02*
X4912D01*
X800Y41500D02*
X4931D01*
X800Y41600D02*
X4958D01*
X800Y41700D02*
X4994D01*
X800Y41800D02*
X5040D01*
X800Y41900D02*
X5098D01*
X800Y42000D02*
X5169D01*
X800Y42100D02*
X5257D01*
X800Y42200D02*
X5368D01*
X800Y42300D02*
X5512D01*
X800Y42400D02*
X5723D01*
X3000Y31368D02*
Y33083D01*
X3100Y31468D02*
Y33083D01*
X3200Y31568D02*
Y33083D01*
X3239Y31607D02*
Y33083D01*
X5139Y32200D02*
X6000D01*
X5139Y32300D02*
X5984D01*
X5139Y32400D02*
X5976D01*
X5139Y32500D02*
X5976D01*
X5200Y29760D02*
Y33083D01*
X5139Y31214D02*
Y33083D01*
X6000Y30050D02*
Y32202D01*
X5139Y32600D02*
X5984D01*
X5139Y32700D02*
X6000D01*
X5139Y32800D02*
X6025D01*
X5139Y32900D02*
X6059D01*
X5139Y33000D02*
X6102D01*
X5300Y29836D02*
Y33083D01*
X5400Y29897D02*
Y33083D01*
X5500Y29946D02*
Y33083D01*
X5139D02*
X5539D01*
Y33100D02*
X6157D01*
X5539Y33083D02*
Y35783D01*
Y33200D02*
X6225D01*
X5539Y33300D02*
X6308D01*
X5600Y29984D02*
Y39439D01*
X5700Y30013D02*
Y39530D01*
X5800Y30034D02*
Y39621D01*
X5900Y30046D02*
Y39712D01*
X6000Y32698D02*
Y39803D01*
X6100Y32995D02*
Y39894D01*
X6200Y33165D02*
Y39976D01*
X6300Y33291D02*
Y39984D01*
X5539Y33400D02*
X6412D01*
X6400Y33389D02*
Y40000D01*
X6500Y33468D02*
Y40025D01*
X5539Y33500D02*
X6547D01*
X6600Y33532D02*
Y40059D01*
X5539Y33600D02*
X6735D01*
X5539Y33700D02*
X7206D01*
X6700Y33584D02*
Y40102D01*
X7800Y33560D02*
Y42750D01*
X7900Y33502D02*
Y42750D01*
X6800Y33625D02*
Y40157D01*
X6900Y33657D02*
Y40225D01*
X7600Y33642D02*
Y42750D01*
X7700Y33606D02*
Y42750D01*
X8400Y32877D02*
Y42750D01*
X8500Y32274D02*
Y42750D01*
X8600Y32266D02*
Y42750D01*
X8700Y32250D02*
Y42750D01*
X8000Y33431D02*
Y42750D01*
X8100Y33343D02*
Y42750D01*
X8200Y33232D02*
Y42750D01*
X8300Y33088D02*
Y42750D01*
X9300Y31942D02*
Y42750D01*
X9400Y31838D02*
Y42750D01*
X9500Y31703D02*
Y42750D01*
X9600Y31515D02*
Y42750D01*
X8800Y32225D02*
Y42750D01*
X8900Y32191D02*
Y42750D01*
X9000Y32148D02*
Y42750D01*
X9100Y32093D02*
Y42750D01*
X9200Y32025D02*
Y42750D01*
X2900Y35783D02*
Y42750D01*
X3000Y35783D02*
Y42750D01*
X3239Y35783D02*
Y39439D01*
X3100Y35783D02*
Y42750D01*
X3200Y35783D02*
Y42750D01*
X3300Y39774D02*
Y42750D01*
X5139Y35783D02*
Y39019D01*
X3400Y39968D02*
Y42750D01*
X5200Y35783D02*
Y39075D01*
X5300Y35783D02*
Y39166D01*
X3500Y40093D02*
Y42750D01*
X3600Y40187D02*
Y42750D01*
X3550Y40142D02*
X4910Y41380D01*
X3700Y40278D02*
Y42750D01*
X3800Y40370D02*
Y42750D01*
X3900Y40461D02*
Y42750D01*
X4000Y40552D02*
Y42750D01*
X4100Y40643D02*
Y42750D01*
X4200Y40734D02*
Y42750D01*
X4300Y40825D02*
Y42750D01*
X4400Y40916D02*
Y42750D01*
X4500Y41007D02*
Y42750D01*
X4600Y41098D02*
Y42750D01*
X4700Y41189D02*
Y42750D01*
X4800Y41280D02*
Y42750D01*
X4900Y41371D02*
Y42750D01*
X5000Y41715D02*
Y42750D01*
X5100Y41903D02*
Y42750D01*
X5200Y42037D02*
Y42750D01*
X5300Y42141D02*
Y42750D01*
X5139Y35783D02*
X5539D01*
X5400D02*
Y39257D01*
X5500Y35783D02*
Y39348D01*
X5139Y39019D02*
X6189Y39976D01*
X5400Y42225D02*
Y42750D01*
X5500Y42293D02*
Y42750D01*
X5600Y42347D02*
Y42750D01*
X7000Y33680D02*
Y40308D01*
X7100Y33694D02*
Y40412D01*
X7200Y33700D02*
Y40547D01*
X7300Y33698D02*
Y40735D01*
X5700Y42391D02*
Y42750D01*
X5800Y42425D02*
Y42750D01*
X7400Y33688D02*
Y41210D01*
X5900Y42450D02*
Y42750D01*
X6000Y42466D02*
Y42750D01*
X6300Y42466D02*
Y42750D01*
X6400Y42450D02*
Y42750D01*
X6100Y42474D02*
Y42750D01*
X6200Y42474D02*
Y42750D01*
X6500Y42425D02*
Y42750D01*
X6600Y42391D02*
Y42750D01*
X7200Y41903D02*
Y42750D01*
X7300Y41715D02*
Y42750D01*
X7400Y41240D02*
Y42750D01*
X7500Y33669D02*
Y42750D01*
X6700Y42348D02*
Y42750D01*
X6800Y42293D02*
Y42750D01*
X6900Y42225D02*
Y42750D01*
X7000Y42142D02*
Y42750D01*
X7100Y42038D02*
Y42750D01*
X9275Y23088D02*
X11058D01*
X9275Y25688D02*
X11058D01*
X9275Y22900D02*
X13824D01*
X9275Y23000D02*
X13612D01*
X9275Y25700D02*
X13400D01*
X9275Y25800D02*
X13400D01*
X9275Y25900D02*
X13400D01*
X9275Y26000D02*
X13400D01*
X9800Y25688D02*
Y26063D01*
X9900Y25688D02*
Y26063D01*
X10000Y25688D02*
Y26063D01*
X10100Y25688D02*
Y26063D01*
X10200Y25688D02*
Y26063D01*
X10300Y25688D02*
Y26063D01*
X9275D02*
X11058D01*
X9275Y28663D02*
X11058D01*
X9275Y28700D02*
X14423D01*
X9275Y28800D02*
X14523D01*
X9275Y29900D02*
X14369D01*
X9275Y30000D02*
X14333D01*
X9275Y29800D02*
X14415D01*
X9291Y30100D02*
X14306D01*
X10400Y25688D02*
Y26063D01*
X9389Y30200D02*
X14287D01*
X9468Y30300D02*
X14277D01*
X9532Y30400D02*
X14275D01*
X9584Y30500D02*
X14281D01*
X9275Y20800D02*
X17469D01*
X9275Y20900D02*
X17369D01*
X9275Y20600D02*
X17669D01*
X9275Y20700D02*
X17569D01*
X9275Y21200D02*
X17069D01*
X9275Y21300D02*
X16969D01*
X9275Y21000D02*
X17269D01*
X9275Y21100D02*
X17169D01*
X9275Y21600D02*
X16669D01*
X9275Y21700D02*
X16569D01*
X9275Y21400D02*
X16869D01*
X9275Y21500D02*
X16769D01*
X9275Y22000D02*
X16269D01*
X9275Y22100D02*
X16169D01*
X9275Y21800D02*
X16469D01*
X9275Y21900D02*
X16369D01*
X9275Y22400D02*
X15869D01*
X9275Y22500D02*
X15769D01*
X9275Y22200D02*
X16069D01*
X9275Y22300D02*
X15969D01*
X9275Y22800D02*
X15469D01*
X9275Y28900D02*
X14623D01*
X9275Y22600D02*
X15669D01*
X9275Y22700D02*
X15569D01*
X9275Y29000D02*
X14723D01*
X9275Y29100D02*
X14823D01*
X9275Y29200D02*
X14923D01*
X9275Y29300D02*
X14887D01*
X9275Y29600D02*
X14544D01*
X9275Y29700D02*
X14473D01*
X9275Y29400D02*
X14743D01*
X9275Y29500D02*
X14632D01*
X8466Y32300D02*
X12891D01*
X8474Y32400D02*
X12879D01*
X8474Y32500D02*
X12875D01*
X8466Y32600D02*
X12879D01*
X8425Y32800D02*
X12911D01*
X8391Y32900D02*
X12941D01*
X8348Y33000D02*
X12979D01*
X9431Y31800D02*
X13089D01*
X9343Y31900D02*
X13028D01*
X9560Y31600D02*
X13258D01*
X9502Y31700D02*
X13165D01*
X9088Y32100D02*
X12941D01*
X8877Y32200D02*
X12912D01*
X9232Y32000D02*
X12979D01*
X8450Y32700D02*
X12891D01*
X5539Y33800D02*
X13275D01*
X5539Y33900D02*
X13275D01*
X5539Y34000D02*
X13275D01*
X5539Y34100D02*
X13275D01*
X5539Y34200D02*
X13275D01*
X5539Y34300D02*
X13275D01*
X5539Y34400D02*
X13275D01*
X5539Y34500D02*
X13275D01*
X8293Y33100D02*
X13028D01*
X8225Y33200D02*
X13089D01*
X8142Y33300D02*
X13164D01*
X8038Y33400D02*
X13257D01*
X7903Y33500D02*
X13275D01*
X7715Y33600D02*
X13275D01*
X7244Y33700D02*
X13275D01*
X5539Y34600D02*
X13275D01*
X5539Y34700D02*
X13275D01*
X5539Y34800D02*
X13275D01*
X9625Y30600D02*
X14295D01*
X9657Y30700D02*
X14318D01*
X5539Y34900D02*
X13275D01*
X5539Y35000D02*
X13275D01*
X5539Y35100D02*
X13275D01*
X5539Y35200D02*
X13275D01*
X9680Y30800D02*
X14349D01*
X9694Y30900D02*
X14391D01*
X9700Y31000D02*
X14442D01*
X9698Y31100D02*
X14507D01*
X9642Y31400D02*
X13532D01*
X9606Y31500D02*
X13375D01*
X9688Y31200D02*
X14586D01*
X9669Y31300D02*
X13775D01*
X5139Y35800D02*
X13275D01*
X5139Y35900D02*
X13275D01*
X5139Y36000D02*
X13275D01*
X5139Y36100D02*
X13275D01*
X5139Y36200D02*
X13275D01*
X5139Y36300D02*
X13275D01*
X5139Y36400D02*
X13275D01*
X5139Y36500D02*
X13275D01*
X5539Y35300D02*
X13275D01*
X5539Y35400D02*
X13275D01*
X5539Y35500D02*
X13275D01*
X5539Y35600D02*
X13275D01*
X5539Y35700D02*
X13275D01*
X5139Y36600D02*
X13275D01*
X5139Y36700D02*
X13275D01*
X5139Y36800D02*
X13275D01*
X5139Y36900D02*
X13275D01*
X11058Y23400D02*
X11413D01*
X11058Y23500D02*
X11309D01*
X11058Y23200D02*
X11731D01*
X11058Y23300D02*
X11547D01*
X10500Y25688D02*
Y26063D01*
X10600Y25688D02*
Y26063D01*
X11058Y23600D02*
X11224D01*
X10700Y25688D02*
Y26063D01*
X11058Y23088D02*
Y23888D01*
Y24888D02*
Y25688D01*
Y25100D02*
X11170D01*
X11058Y25200D02*
X11243D01*
X11058Y25300D02*
X11331D01*
X11058Y25400D02*
X11442D01*
X11058Y25500D02*
X11584D01*
X11058Y25600D02*
X11787D01*
X10800Y25688D02*
Y26063D01*
X10900Y25688D02*
Y26063D01*
X11200Y25143D02*
Y26608D01*
X11100Y24979D02*
Y26773D01*
X11000Y25688D02*
Y26063D01*
X11058D02*
Y26863D01*
Y26100D02*
X11951D01*
X11058Y26200D02*
X11678D01*
X11400Y25365D02*
Y26387D01*
X11300Y25267D02*
Y26485D01*
X11600Y25509D02*
Y26242D01*
X11500Y25444D02*
Y26307D01*
X11700Y25562D02*
Y26189D01*
X11800Y25605D02*
Y26147D01*
X12000Y25662D02*
Y26089D01*
X11900Y25638D02*
Y26113D01*
X11058Y23100D02*
X12084D01*
X12432D02*
X13468D01*
X12785Y23200D02*
X13357D01*
X12969Y23300D02*
X13269D01*
X12932Y25500D02*
X13400D01*
X12729Y25600D02*
X13400D01*
X14888Y23000D02*
X15269D01*
X14676Y22900D02*
X15369D01*
X15110Y23158D02*
X17769Y20500D01*
X13273Y25200D02*
X13400D01*
X13185Y25300D02*
X13400D01*
X15032Y23100D02*
X15169D01*
X13074Y25400D02*
X13400D01*
X12100Y25679D02*
Y26073D01*
X12200Y25687D02*
Y26065D01*
X12300Y25688D02*
Y26064D01*
X12600Y25642D02*
Y26109D01*
X12400Y25680D02*
Y26071D01*
X12500Y25666D02*
Y26086D01*
X12565Y26100D02*
X13400D01*
X13200Y25284D02*
Y26467D01*
X13300Y25166D02*
Y26586D01*
X13400Y25009D02*
Y26742D01*
X13400Y25010D02*
Y26742D01*
X12700Y25611D02*
Y26141D01*
X12800Y25570D02*
Y26182D01*
X12900Y25519D02*
Y26233D01*
X13000Y25456D02*
Y26296D01*
X13100Y25379D02*
Y26373D01*
X11058Y26300D02*
X11510D01*
X11058Y26400D02*
X11385D01*
X12838Y26200D02*
X13400D01*
X13006Y26300D02*
X13400D01*
X11058Y26600D02*
X11206D01*
X11058Y28100D02*
X11187D01*
X11058Y26500D02*
X11286D01*
X11058Y28200D02*
X11263D01*
X13131Y26400D02*
X13400D01*
X13230Y26500D02*
X13400D01*
X13442Y27900D02*
X13624D01*
X13391Y28000D02*
X13723D01*
X13329Y28100D02*
X13823D01*
X13253Y28200D02*
X13923D01*
X11058Y28300D02*
X11357D01*
X11058Y27863D02*
Y28663D01*
Y28400D02*
X11474D01*
X11058Y28500D02*
X11627D01*
X11058Y28600D02*
X11857D01*
X13000Y28431D02*
Y31955D01*
X12900Y28494D02*
Y32252D01*
X13500Y27747D02*
Y31418D01*
X13400Y27985D02*
Y31482D01*
X13700Y27977D02*
Y31324D01*
X13600Y27873D02*
Y31366D01*
X13200Y28259D02*
Y31659D01*
X13100Y28354D02*
Y31785D01*
X13800Y28077D02*
Y31293D01*
X13300Y28141D02*
Y31561D01*
X13159Y28300D02*
X14023D01*
X14000Y28277D02*
Y31256D01*
X13042Y28400D02*
X14123D01*
X13649Y27926D02*
X14975Y29252D01*
X14100Y28377D02*
Y31250D01*
X14200Y28477D02*
Y31252D01*
X12889Y28500D02*
X14223D01*
X12659Y28600D02*
X14323D01*
X14400Y28677D02*
Y29830D01*
X14300Y28577D02*
Y30127D01*
X14600Y28877D02*
Y29534D01*
X14500Y28777D02*
Y29660D01*
X14700Y28977D02*
Y29436D01*
X14300Y30623D02*
Y31262D01*
X14900Y29177D02*
Y29293D01*
X14800Y29077D02*
Y29357D01*
X13900Y28177D02*
Y31270D01*
X14400Y30920D02*
Y31281D01*
X14500Y31090D02*
Y31308D01*
X14600Y31216D02*
Y31344D01*
X14475Y31300D02*
X14684D01*
X14875Y31500D02*
X14980D01*
X18925Y35787D02*
Y36233D01*
X18970Y35787D02*
Y36277D01*
X19024Y36337D02*
X21770D01*
X19200D02*
Y36605D01*
X19075Y36400D02*
X23700D01*
X19143Y36500D02*
X23700D01*
X19197Y36600D02*
X23700D01*
X19241Y36700D02*
X23700D01*
X19275Y36800D02*
X23700D01*
X9800Y28663D02*
Y42750D01*
X9900Y28663D02*
Y42750D01*
X10000Y28663D02*
Y42750D01*
X10100Y28663D02*
Y42750D01*
X9700Y31040D02*
Y42750D01*
X10200Y28663D02*
Y42750D01*
X10300Y28663D02*
Y42750D01*
X10400Y28663D02*
Y42750D01*
X10500Y28663D02*
Y42750D01*
X10600Y28663D02*
Y42750D01*
X11100Y27954D02*
Y42750D01*
X11200Y28118D02*
Y42750D01*
X10700Y28663D02*
Y42750D01*
X10800Y28663D02*
Y42750D01*
X10900Y28663D02*
Y42750D01*
X11000Y28663D02*
Y42750D01*
X11300Y28242D02*
Y42750D01*
X11400Y28340D02*
Y42750D01*
X11500Y28419D02*
Y42750D01*
X11600Y28484D02*
Y42750D01*
X11700Y28537D02*
Y42750D01*
X11800Y28580D02*
Y42750D01*
X11900Y28613D02*
Y42750D01*
X12000Y28637D02*
Y42750D01*
X12100Y28654D02*
Y42750D01*
X12500Y28640D02*
Y42750D01*
X12600Y28617D02*
Y42750D01*
X12800Y28545D02*
Y42750D01*
X12200Y28662D02*
Y42750D01*
X12300Y28663D02*
Y42750D01*
X12400Y28655D02*
Y42750D01*
X12700Y28586D02*
Y42750D01*
X5139Y37000D02*
X13275D01*
X5139Y37100D02*
X13275D01*
X5139Y37200D02*
X13275D01*
X5139Y37300D02*
X13275D01*
X5139Y37400D02*
X13275D01*
X5139Y37500D02*
X13275D01*
X5139Y37600D02*
X13275D01*
X5139Y37700D02*
X13275D01*
X5139Y37800D02*
X13275D01*
X5139Y37900D02*
X13275D01*
X5139Y38000D02*
X13275D01*
X5139Y38100D02*
X13275D01*
X5139Y38200D02*
X13275D01*
X5139Y38300D02*
X13275D01*
X5139Y38400D02*
X13275D01*
X5139Y38500D02*
X13275D01*
X5139Y38600D02*
X13275D01*
X5139Y38700D02*
X13275D01*
X5139Y38800D02*
X13275D01*
X5139Y38900D02*
X13275D01*
X5139Y39000D02*
X13275D01*
X5228Y39100D02*
X13275D01*
X5337Y39200D02*
X13275D01*
X5447Y39300D02*
X13275D01*
X12900Y32748D02*
Y42750D01*
X13000Y33045D02*
Y42750D01*
X13200Y33341D02*
Y40280D01*
X13100Y33215D02*
Y40577D01*
X5557Y39400D02*
X13275D01*
Y33417D02*
Y40147D01*
X5667Y39500D02*
X13275D01*
X5776Y39600D02*
X13275D01*
X5886Y39700D02*
X13275D01*
X5996Y39800D02*
X13275D01*
X6106Y39900D02*
X13275D01*
X6398Y40000D02*
X13275D01*
X6695Y40100D02*
X13275D01*
X6991Y40300D02*
X13191D01*
X7168Y40500D02*
X13118D01*
X6865Y40200D02*
X13243D01*
X7089Y40400D02*
X13150D01*
X7232Y40600D02*
X13095D01*
X7284Y40700D02*
X13081D01*
X7325Y40800D02*
X13075D01*
X7357Y40900D02*
X13077D01*
X7380Y41000D02*
X13087D01*
X7394Y41100D02*
X13106D01*
X7400Y41200D02*
X13133D01*
X7398Y41300D02*
X13169D01*
X7388Y41400D02*
X13215D01*
X13100Y41073D02*
Y42750D01*
X7369Y41500D02*
X13273D01*
X7342Y41600D02*
X13344D01*
X7306Y41700D02*
X13432D01*
X7260Y41800D02*
X13543D01*
X7202Y41900D02*
X13687D01*
X7131Y42000D02*
X13898D01*
X13200Y41370D02*
Y42750D01*
X13300Y41540D02*
Y42750D01*
X13400Y41666D02*
Y42750D01*
X13500Y41764D02*
Y42750D01*
X13600Y41843D02*
Y42750D01*
X13700Y41907D02*
Y42750D01*
X13800Y41959D02*
Y42750D01*
X13900Y42000D02*
Y42750D01*
X14000Y42032D02*
Y42750D01*
X7043Y42100D02*
X17816D01*
X6932Y42200D02*
X17824D01*
X6788Y42300D02*
X17839D01*
X6577Y42400D02*
X17863D01*
X800Y42500D02*
X17896D01*
X800Y42600D02*
X17938D01*
X15377Y41500D02*
X17939D01*
X15306Y41600D02*
X17896D01*
X15481Y41300D02*
X18057D01*
X15435Y41400D02*
X17992D01*
X15218Y41700D02*
X17864D01*
X15107Y41800D02*
X17839D01*
X14963Y41900D02*
X17824D01*
X14752Y42000D02*
X17816D01*
X14100Y42055D02*
Y42750D01*
X14200Y42069D02*
Y42750D01*
X14300Y42075D02*
Y42750D01*
X14600Y42044D02*
Y42750D01*
X14400Y42073D02*
Y42750D01*
X14500Y42063D02*
Y42750D01*
X800Y42700D02*
X17991D01*
X800Y42750D02*
X18022D01*
X15200Y41718D02*
Y42750D01*
X15300Y41607D02*
Y42750D01*
X15400Y41463D02*
Y42750D01*
X15500Y41252D02*
Y42750D01*
X14700Y42017D02*
Y42750D01*
X14800Y41981D02*
Y42750D01*
X14900Y41935D02*
Y42750D01*
X15000Y41877D02*
Y42750D01*
X15100Y41806D02*
Y42750D01*
X19000Y37991D02*
Y40769D01*
X19100Y37866D02*
Y40765D01*
X18700Y38233D02*
Y40829D01*
X18800Y38168D02*
Y40801D01*
X18900Y38089D02*
Y40781D01*
X19300Y36337D02*
Y36901D01*
X19800Y36337D02*
Y40613D01*
X19900Y36337D02*
Y40613D01*
X20000Y36337D02*
Y40613D01*
X19200Y37695D02*
Y40769D01*
X19300Y37399D02*
Y40781D01*
X20100Y36337D02*
Y40613D01*
X20200Y36337D02*
Y40613D01*
X18000Y39200D02*
Y41386D01*
X17900Y39318D02*
Y41590D01*
X18200Y38800D02*
Y41133D01*
X18100Y39044D02*
Y41243D01*
X17400Y39634D02*
Y42750D01*
X17600Y39547D02*
Y42750D01*
X17700Y39486D02*
Y42750D01*
X17800Y39411D02*
Y42750D01*
X19400Y36337D02*
Y40801D01*
X19500Y36337D02*
Y40829D01*
X19600Y36337D02*
Y40866D01*
X19700Y36337D02*
Y40914D01*
X18400Y38357D02*
Y40972D01*
X18300Y38380D02*
Y41044D01*
X18500Y38326D02*
Y40914D01*
X18600Y38284D02*
Y40866D01*
X19241Y37600D02*
X23700D01*
X19143Y37800D02*
X23700D01*
X19075Y37900D02*
X23700D01*
X18992Y38000D02*
X23700D01*
X18888Y38100D02*
X23700D01*
X18753Y38200D02*
X23700D01*
X18565Y38300D02*
X23700D01*
X18249Y38500D02*
X23700D01*
X19300Y36900D02*
X23700D01*
X19316Y37000D02*
X23700D01*
X19324Y37100D02*
X23700D01*
X19324Y37200D02*
X23700D01*
X19316Y37300D02*
X23700D01*
X19300Y37400D02*
X23700D01*
X19275Y37500D02*
X23700D01*
X19198Y37700D02*
X23700D01*
X18166Y38900D02*
X23700D01*
X18123Y39000D02*
X23700D01*
X18068Y39100D02*
X23700D01*
X18000Y39200D02*
X23700D01*
X17917Y39300D02*
X23700D01*
X17813Y39400D02*
X23700D01*
X17678Y39500D02*
X23700D01*
X17490Y39600D02*
X23700D01*
X20300Y36337D02*
Y40613D01*
X20400Y36337D02*
Y40613D01*
X20500Y36337D02*
Y40613D01*
X20600Y36337D02*
Y40613D01*
X20700Y36337D02*
Y40613D01*
X20800Y36337D02*
Y40613D01*
X18241Y38600D02*
X23700D01*
X18225Y38700D02*
X23700D01*
X18200Y38800D02*
X23700D01*
X15600Y40824D02*
Y42750D01*
X15700Y40824D02*
Y42750D01*
X15800Y40816D02*
Y42750D01*
X15544Y41100D02*
X18235D01*
X15517Y41200D02*
X18136D01*
X15573Y40900D02*
X18527D01*
X15563Y41000D02*
X18359D01*
X15899Y40800D02*
X18803D01*
X16200Y40698D02*
Y42750D01*
X16195Y40700D02*
X19768D01*
Y40613D02*
Y40953D01*
X15900Y40800D02*
Y42750D01*
X16000Y40775D02*
Y42750D01*
X19397Y40800D02*
X19768D01*
X16100Y40741D02*
Y42750D01*
X16700Y40253D02*
Y42750D01*
X16800Y40065D02*
Y42750D01*
X16900Y39696D02*
Y42750D01*
X17000Y39700D02*
Y42750D01*
X16300Y40643D02*
Y42750D01*
X16400Y40575D02*
Y42750D01*
X16500Y40492D02*
Y42750D01*
X16600Y40388D02*
Y42750D01*
X17100Y39696D02*
Y42750D01*
X17200Y39684D02*
Y42750D01*
X17300Y39663D02*
Y42750D01*
X17500Y39596D02*
Y42750D01*
X17900Y42510D02*
Y42750D01*
X19768Y43147D02*
Y43413D01*
X19700Y43186D02*
Y47025D01*
X16880Y39800D02*
X23700D01*
X16826Y40000D02*
X23700D01*
X16784Y40100D02*
X23700D01*
X16733Y40200D02*
X23700D01*
X16668Y40300D02*
X23700D01*
X16589Y40400D02*
X23700D01*
X16491Y40500D02*
X23700D01*
X16366Y40600D02*
X23700D01*
X19768Y40613D02*
X22868D01*
X19768Y43513D02*
Y46313D01*
X17019Y39700D02*
X23700D01*
X16857Y39900D02*
X23700D01*
X19768Y46313D02*
X22868D01*
X19700Y46400D02*
X24732D01*
X19700Y46500D02*
X24644D01*
X19800Y46313D02*
Y47025D01*
X19900Y46313D02*
Y47025D01*
X19700Y46600D02*
X24573D01*
X19700Y46700D02*
X24515D01*
X19700Y46900D02*
X24433D01*
X19700Y47025D02*
X24400D01*
X19700Y46800D02*
X24469D01*
X19700Y47000D02*
X24406D01*
X20000Y46313D02*
Y47025D01*
X20100Y46313D02*
Y47025D01*
X20200Y46313D02*
Y47025D01*
X20300Y46313D02*
Y47025D01*
X20400Y46313D02*
Y47025D01*
X20500Y46313D02*
Y47025D01*
X20600Y46313D02*
Y47025D01*
X20700Y46313D02*
Y47025D01*
X20800Y46313D02*
Y47025D01*
X21092Y2800D02*
X21208D01*
X21029Y2900D02*
X21271D01*
X20952Y3000D02*
X21348D01*
X20860Y3100D02*
X21440D01*
X22500Y3498D02*
Y15945D01*
X23286Y3200D02*
X24094D01*
X23141Y3300D02*
X24239D01*
X23632Y2800D02*
X23748D01*
X23569Y2900D02*
X23811D01*
X23492Y3000D02*
X23888D01*
X23900Y3014D02*
Y14227D01*
X23400Y3100D02*
X23980D01*
X24000Y3119D02*
Y13930D01*
X24200Y3276D02*
Y13634D01*
X24100Y3205D02*
Y13760D01*
X22300Y3495D02*
Y16019D01*
X22200Y3483D02*
Y16082D01*
X22900Y3415D02*
Y15925D01*
X23000Y3374D02*
Y15925D01*
X22600Y3488D02*
Y15929D01*
X22400Y3500D02*
Y15974D01*
X22700Y3472D02*
Y15925D01*
X22800Y3447D02*
Y15925D01*
X23500Y2991D02*
Y15925D01*
X23600Y2854D02*
Y15925D01*
X23700Y2710D02*
Y15925D01*
X23800Y2884D02*
Y15925D01*
X23100Y3324D02*
Y15925D01*
X23200Y3263D02*
Y15925D01*
X23300Y3189D02*
Y15925D01*
X23400Y3100D02*
Y15925D01*
X22940Y3400D02*
X24440D01*
X25400Y3429D02*
Y7862D01*
X25600Y3345D02*
Y7829D01*
X22435Y3500D02*
X24945D01*
X25500Y3392D02*
Y7841D01*
X25480Y3400D02*
X26650D01*
X24975Y3500D02*
X26650D01*
X25900Y3138D02*
Y7841D01*
X26000Y3037D02*
Y7861D01*
X26032Y3000D02*
X26428D01*
X25940Y3100D02*
X26520D01*
X25700Y3289D02*
Y7825D01*
X25800Y3220D02*
Y7829D01*
X25826Y3200D02*
X26634D01*
X25681Y3300D02*
X26650D01*
X24400Y3383D02*
Y9206D01*
X24300Y3335D02*
Y9446D01*
X24600Y3453D02*
Y8481D01*
X24500Y3422D02*
Y8725D01*
X24275Y9650D02*
Y13558D01*
X24800Y3491D02*
Y8208D01*
X24700Y3476D02*
Y8325D01*
X25000Y3499D02*
Y8039D01*
X24900Y3499D02*
Y8115D01*
X25200Y3479D02*
Y7929D01*
X25100Y3493D02*
Y7978D01*
X25300Y3458D02*
Y7891D01*
X23900Y14723D02*
Y15925D01*
X24000Y15020D02*
Y15925D01*
X25975Y10300D02*
X27673D01*
X24100Y15190D02*
Y15925D01*
X24200Y15316D02*
Y15925D01*
X24300Y15414D02*
Y15925D01*
X24400Y15493D02*
Y15925D01*
X25975Y10294D02*
Y13558D01*
X26000Y10288D02*
Y13582D01*
X25975Y10400D02*
X27773D01*
X25975Y10500D02*
X27873D01*
X25975Y10600D02*
X27973D01*
X25975Y10700D02*
X28073D01*
X25975Y10800D02*
X28173D01*
X24500Y15557D02*
Y15925D01*
X24600Y15609D02*
Y15925D01*
X24700Y15650D02*
Y15925D01*
X24800Y15682D02*
Y15925D01*
X24900Y15705D02*
Y15925D01*
X25000Y15719D02*
Y15925D01*
X25100Y15725D02*
Y15925D01*
X22675D02*
X27800D01*
X25500Y15667D02*
Y15925D01*
X25700Y15585D02*
Y15925D01*
X25800Y15527D02*
Y15925D01*
X25900Y15456D02*
Y15925D01*
X25200Y15723D02*
Y15925D01*
X25300Y15713D02*
Y15925D01*
X25400Y15694D02*
Y15925D01*
X25600Y15631D02*
Y15925D01*
X25975Y10900D02*
X28273D01*
X25975Y11000D02*
X28373D01*
X25975Y11100D02*
X28473D01*
X25975Y11200D02*
X28573D01*
X25975Y11300D02*
X28673D01*
X25975Y11400D02*
X28773D01*
X25975Y11500D02*
X28873D01*
X25975Y11600D02*
X28973D01*
X25975Y11700D02*
X29073D01*
X25975Y11800D02*
X29173D01*
X25975Y11900D02*
X29273D01*
X25975Y12000D02*
X29373D01*
X25975Y12100D02*
X29473D01*
X25975Y12200D02*
X29573D01*
X25975Y12300D02*
X29673D01*
X25975Y12400D02*
X29773D01*
X25975Y12500D02*
X29873D01*
X25975Y12600D02*
X29973D01*
X25975Y12700D02*
X30073D01*
X25975Y12800D02*
X30173D01*
X25975Y12900D02*
X30273D01*
X25841Y15500D02*
X31463D01*
X25670Y15600D02*
X31487D01*
X25374Y15700D02*
X31521D01*
X25975Y13000D02*
X30373D01*
X25975Y13100D02*
X30473D01*
X25975Y13200D02*
X30573D01*
X25975Y13300D02*
X30673D01*
X25975Y13400D02*
X30773D01*
X25975Y13500D02*
X30873D01*
X26018Y13600D02*
X30973D01*
X25966Y15400D02*
X31446D01*
X26064Y15300D02*
X31438D01*
X26172Y2800D02*
X26288D01*
X26109Y2900D02*
X26351D01*
X39550Y3952D02*
X40014Y3488D01*
X39550Y4000D02*
X40206D01*
X39550Y4100D02*
X40220D01*
X39550Y4200D02*
X40243D01*
X39550Y4300D02*
X40274D01*
X40002Y3500D02*
X40185D01*
X39902Y3600D02*
X40231D01*
X39802Y3700D02*
X40212D01*
X39702Y3800D02*
X40202D01*
X39602Y3900D02*
X40200D01*
X39550Y4400D02*
X40316D01*
X39550Y4500D02*
X40367D01*
X26100Y2913D02*
Y7891D01*
X26200Y2750D02*
Y7929D01*
X26300Y2821D02*
Y7978D01*
X26400Y2966D02*
Y8039D01*
X26500Y3080D02*
Y8114D01*
X26600Y3172D02*
Y8207D01*
X26650Y3212D02*
Y8263D01*
X39550Y3952D02*
Y14748D01*
X39900Y3602D02*
Y15098D01*
X40000Y3502D02*
Y15198D01*
X40100Y3496D02*
Y15298D01*
X40200Y3500D02*
Y15398D01*
X39600Y3902D02*
Y14798D01*
X39700Y3802D02*
Y14898D01*
X39800Y3702D02*
Y14998D01*
X40300Y4365D02*
Y15498D01*
X39550Y4600D02*
X40432D01*
X39550Y4700D02*
X40511D01*
X39550Y4800D02*
X40609D01*
X39550Y4900D02*
X40714D01*
X39550Y5000D02*
X40782D01*
X39550Y5100D02*
X40873D01*
X39550Y5200D02*
X40973D01*
X39550Y5300D02*
X41073D01*
X40849Y5075D02*
X41273Y5500D01*
X39550Y5400D02*
X41173D01*
X39550Y5500D02*
X41273D01*
X39550Y5600D02*
X41273D01*
X39550Y5700D02*
X41273D01*
X39550Y5800D02*
X41273D01*
X40400Y4553D02*
Y15500D01*
X39550Y5900D02*
X41273D01*
X39550Y6000D02*
X41273D01*
X39550Y6100D02*
X41273D01*
X39550Y6200D02*
X41273D01*
X39550Y6300D02*
X41273D01*
X39550Y6400D02*
X41273D01*
X40500Y4687D02*
Y15500D01*
X40600Y4791D02*
Y15500D01*
X40700Y4875D02*
Y15500D01*
X40800Y5022D02*
Y15500D01*
X40900Y5126D02*
Y15500D01*
X41000Y5226D02*
Y15501D01*
X41273Y5500D02*
Y6673D01*
X41100Y5326D02*
Y15513D01*
X41200Y5426D02*
Y15538D01*
X26100Y10259D02*
Y13693D01*
X26200Y10221D02*
Y13837D01*
X26126Y7900D02*
X26650D01*
X26300Y10172D02*
Y14048D01*
X26000Y15368D02*
Y15925D01*
X26100Y15257D02*
Y15925D01*
X26245Y10200D02*
X27573D01*
X26200Y15113D02*
Y15925D01*
X26338Y8000D02*
X26650D01*
X26482Y8100D02*
X26650D01*
X26834Y9600D02*
X26973D01*
X26783Y9700D02*
X27073D01*
X26718Y9800D02*
X27173D01*
X26639Y9900D02*
X27273D01*
X26541Y10000D02*
X27373D01*
X26416Y10100D02*
X27473D01*
X26700Y9825D02*
Y15925D01*
X26800Y9669D02*
Y15925D01*
X26900Y9527D02*
Y15925D01*
X27000Y9627D02*
Y15925D01*
X26300Y14902D02*
Y15925D01*
X26400Y10111D02*
Y15925D01*
X26500Y10036D02*
Y15925D01*
X26600Y9943D02*
Y15925D01*
X27100Y9727D02*
Y15925D01*
X27200Y9827D02*
Y15925D01*
X27300Y9927D02*
Y15925D01*
X27400Y10027D02*
Y15925D01*
X27500Y10127D02*
Y15925D01*
X27600Y10227D02*
Y15925D01*
X27700Y10327D02*
Y15925D01*
X27800Y10427D02*
Y15925D01*
X26106Y13700D02*
X31073D01*
X26177Y13800D02*
X31173D01*
X26235Y13900D02*
X31273D01*
X26281Y14000D02*
X31373D01*
X26317Y14100D02*
X31473D01*
X26344Y14200D02*
X31573D01*
X26363Y14300D02*
X31673D01*
X26373Y14400D02*
X31771D01*
X39550Y6500D02*
X41273D01*
X39550Y6600D02*
X41273D01*
X39550Y6700D02*
X41325D01*
Y6673D02*
Y8775D01*
X31700Y14327D02*
Y14484D01*
X26375Y14500D02*
X31687D01*
X39550Y6800D02*
X41325D01*
X26899Y9526D02*
X31772Y14399D01*
X26355Y14700D02*
X31565D01*
X27900Y10527D02*
Y15931D01*
X26369Y14600D02*
X31620D01*
X26332Y14800D02*
X31521D01*
X26301Y14900D02*
X31487D01*
X26259Y15000D02*
X31463D01*
X26208Y15100D02*
X31446D01*
X26143Y15200D02*
X31438D01*
X28000Y10627D02*
Y15950D01*
X28100Y10727D02*
Y15983D01*
X28200Y10827D02*
Y16032D01*
X28300Y10927D02*
Y16100D01*
X31600Y14227D02*
Y14634D01*
X31500Y14127D02*
Y14860D01*
X39550Y14748D02*
X40302Y15500D01*
X28138Y16000D02*
X31687D01*
X40302Y15500D02*
X40950D01*
X21700Y3301D02*
Y16569D01*
X21600Y3235D02*
Y16669D01*
X21900Y3400D02*
Y16369D01*
X21800Y3355D02*
Y16469D01*
X22100Y3463D02*
Y16169D01*
X22000Y3435D02*
Y16269D01*
X28400Y11027D02*
Y16194D01*
X28500Y11127D02*
Y16294D01*
X28600Y11227D02*
Y16394D01*
X28700Y11327D02*
Y16494D01*
X28800Y11427D02*
Y16594D01*
X28900Y11527D02*
Y16694D01*
X21100Y2787D02*
Y17169D01*
X21000Y2940D02*
Y17269D01*
X21300Y2940D02*
Y16969D01*
X21200Y2787D02*
Y17069D01*
X21400Y3059D02*
Y16869D01*
X20900Y3059D02*
Y17369D01*
X21500Y3155D02*
Y16769D01*
X29000Y11627D02*
Y16794D01*
X29100Y11727D02*
Y16893D01*
X29200Y11827D02*
Y16993D01*
X29300Y11927D02*
Y17094D01*
X29400Y12027D02*
Y17194D01*
X29500Y12127D02*
Y17294D01*
X29600Y12227D02*
Y17393D01*
X29700Y12327D02*
Y17493D01*
X29800Y12427D02*
Y17594D01*
X28299Y16100D02*
X31771D01*
X28406Y16200D02*
X31780D01*
X28506Y16300D02*
X31780D01*
X28606Y16400D02*
X31780D01*
X28706Y16500D02*
X31783D01*
X28806Y16600D02*
X31797D01*
X28906Y16700D02*
X31824D01*
X29006Y16800D02*
X31865D01*
X29900Y12527D02*
Y17694D01*
X30000Y12627D02*
Y17794D01*
X30100Y12727D02*
Y17893D01*
X30200Y12827D02*
Y17993D01*
X31780Y16110D02*
Y16430D01*
X30300Y12927D02*
Y18094D01*
X30400Y13027D02*
Y18194D01*
X30500Y13127D02*
Y18294D01*
X30600Y13227D02*
Y18393D01*
X30700Y13327D02*
Y18493D01*
X30800Y13427D02*
Y18594D01*
X30900Y13527D02*
Y18694D01*
X28367Y16160D02*
X34125Y21919D01*
X31000Y13627D02*
Y18794D01*
X31100Y13727D02*
Y18893D01*
X31200Y13827D02*
Y18993D01*
X31300Y13927D02*
Y19094D01*
X31400Y14027D02*
Y19194D01*
X31500Y15640D02*
Y19294D01*
X31600Y15866D02*
Y19393D01*
X31700Y16016D02*
Y19493D01*
X31800Y16612D02*
Y19594D01*
X29106Y16900D02*
X31922D01*
X29206Y17000D02*
X31999D01*
X29306Y17100D02*
X32098D01*
X29406Y17200D02*
X32198D01*
X29506Y17300D02*
X32298D01*
X29606Y17400D02*
X32398D01*
X29706Y17500D02*
X32498D01*
X29806Y17600D02*
X32598D01*
X31900Y16865D02*
Y19694D01*
X32000Y17000D02*
Y19794D01*
X32029Y17031D02*
X32622Y17625D01*
X29906Y17700D02*
X32698D01*
X30006Y17800D02*
X32798D01*
X30106Y17900D02*
X32898D01*
X30206Y18000D02*
X32998D01*
X30306Y18100D02*
X33098D01*
X32100Y17102D02*
Y19893D01*
X32200Y17202D02*
Y19993D01*
X32300Y17302D02*
Y20094D01*
X32400Y17402D02*
Y20194D01*
X32500Y17502D02*
Y20294D01*
X32600Y17602D02*
Y20393D01*
X32700Y17702D02*
Y20493D01*
X32680Y30176D02*
X33165Y29691D01*
X32800Y17802D02*
Y20594D01*
X32900Y17902D02*
Y20694D01*
X33000Y18002D02*
Y20794D01*
X33100Y18102D02*
Y20893D01*
X32800Y30057D02*
Y30187D01*
X32900Y29957D02*
Y30206D01*
X33000Y29857D02*
Y30233D01*
X33100Y29757D02*
Y30269D01*
X30406Y18200D02*
X33198D01*
X30506Y18300D02*
X33298D01*
X30606Y18400D02*
X33398D01*
X30706Y18500D02*
X33498D01*
X30806Y18600D02*
X33598D01*
X30906Y18700D02*
X33698D01*
X31006Y18800D02*
X33798D01*
X31106Y18900D02*
X33898D01*
X31206Y19000D02*
X33998D01*
X31306Y19100D02*
X34098D01*
X32624Y17626D02*
X34125Y19127D01*
X31406Y19200D02*
X34125D01*
X31506Y19300D02*
X34125D01*
X31606Y19400D02*
X34125D01*
X31706Y19500D02*
X34125D01*
X31806Y19600D02*
X34125D01*
X31906Y19700D02*
X34125D01*
X32006Y19800D02*
X34125D01*
X32106Y19900D02*
X34125D01*
X32206Y20000D02*
X34125D01*
X32306Y20100D02*
X34125D01*
X32406Y20200D02*
X34125D01*
X32506Y20300D02*
X34125D01*
X32606Y20400D02*
X34125D01*
X32706Y20500D02*
X34125D01*
X32806Y20600D02*
X34125D01*
X32906Y20700D02*
X34125D01*
X33006Y20800D02*
X34125D01*
X33057Y29800D02*
X33274D01*
X32957Y29900D02*
X33374D01*
X33106Y20900D02*
X34125D01*
X32757Y30100D02*
X33574D01*
X32857Y30000D02*
X33474D01*
X33200Y18202D02*
Y20993D01*
X33300Y18302D02*
Y21094D01*
X33400Y18402D02*
Y21194D01*
X33500Y18502D02*
Y21294D01*
X33206Y21000D02*
X34125D01*
X33306Y21100D02*
X34125D01*
X33406Y21200D02*
X34125D01*
X33506Y21300D02*
X34125D01*
X33600Y18602D02*
Y21393D01*
X33700Y18702D02*
Y21493D01*
X33800Y18802D02*
Y21594D01*
X33900Y18902D02*
Y21693D01*
X33606Y21400D02*
X34125D01*
X33706Y21500D02*
X34125D01*
X33806Y21600D02*
X34125D01*
X33906Y21700D02*
X34125D01*
X34000Y19002D02*
Y21793D01*
X34125Y19127D02*
Y21919D01*
X34006Y21800D02*
X34125D01*
X34100Y19102D02*
Y21893D01*
X34800Y26759D02*
Y26942D01*
X34716Y26858D02*
X34968Y27110D01*
X34950Y25275D02*
Y26292D01*
X35000Y25275D02*
Y27142D01*
X35100Y25269D02*
Y27242D01*
X35200Y25255D02*
Y27342D01*
X34950Y25800D02*
X35258D01*
X34900Y26572D02*
Y27042D01*
X34950Y25900D02*
X35231D01*
X34950Y26000D02*
X35212D01*
X34950Y25400D02*
X35469D01*
X34950Y25500D02*
X35398D01*
X34950Y25300D02*
X35557D01*
X34950Y26100D02*
X35202D01*
X34950Y26200D02*
X35200D01*
X34950Y25600D02*
X35340D01*
X34950Y25700D02*
X35294D01*
X35600Y25108D02*
Y25258D01*
X35300Y25232D02*
Y25685D01*
X35600Y25108D02*
Y25259D01*
X35402Y25200D02*
X35600D01*
X34950Y26300D02*
X35206D01*
X34943Y26400D02*
X35220D01*
X35500Y25159D02*
Y25363D01*
X35400Y25201D02*
Y25497D01*
X34923Y26500D02*
X35243D01*
X34889Y26600D02*
X35274D01*
X34839Y26700D02*
X35316D01*
X34769Y26800D02*
X35367D01*
X34758Y26900D02*
X35432D01*
X34858Y27000D02*
X35511D01*
X34958Y27100D02*
X35609D01*
X34968Y27110D02*
X36850Y28992D01*
X35300Y26665D02*
Y27442D01*
X35400Y26853D02*
Y27542D01*
X35500Y26987D02*
Y27642D01*
X35058Y27200D02*
X35734D01*
X35600Y27091D02*
Y27742D01*
X35158Y27300D02*
X35905D01*
X35700Y27175D02*
Y27842D01*
X35800Y27243D02*
Y27942D01*
X35900Y27297D02*
Y28042D01*
X36000Y27341D02*
Y28142D01*
X35258Y27400D02*
X36201D01*
X36100Y27375D02*
Y28242D01*
X36200Y27400D02*
Y28342D01*
X36300Y27416D02*
Y28442D01*
X36400Y27424D02*
Y28542D01*
X36700Y27400D02*
Y28842D01*
X36800Y27375D02*
Y28942D01*
X36500Y27424D02*
Y28642D01*
X36600Y27416D02*
Y28742D01*
X36800Y28942D02*
Y29238D01*
X36700Y28842D02*
Y29338D01*
X33200Y29726D02*
Y30315D01*
X33300Y29826D02*
Y30373D01*
X33400Y29926D02*
Y30444D01*
X33165Y29691D02*
X34756Y31282D01*
X33500Y30026D02*
Y30532D01*
X33600Y30126D02*
Y30643D01*
X35900Y30138D02*
Y39416D01*
X36000Y30038D02*
Y39454D01*
X36600Y29438D02*
Y35507D01*
X36500Y29538D02*
Y35618D01*
X36700Y29338D02*
Y35419D01*
X36800Y29238D02*
Y35348D01*
X36200Y29838D02*
Y38016D01*
X36100Y29938D02*
Y39503D01*
X36400Y29638D02*
Y35762D01*
X36300Y29738D02*
Y35974D01*
X35358Y27500D02*
X36850D01*
X35458Y27600D02*
X36850D01*
X35558Y27700D02*
X36850D01*
X35658Y27800D02*
X36850D01*
X35758Y27900D02*
X36850D01*
X35858Y28000D02*
X36850D01*
X35958Y28100D02*
X36850D01*
X36058Y28200D02*
X36850D01*
X36699Y27400D02*
X36850D01*
Y27359D02*
Y28992D01*
X36158Y28300D02*
X36850D01*
X36258Y28400D02*
X36850D01*
X36358Y28500D02*
X36850D01*
X36458Y28600D02*
X36850D01*
X36558Y28700D02*
X36850D01*
X36658Y28800D02*
X36850D01*
X36538Y29500D02*
X36850D01*
X34756Y31282D02*
X36850Y29188D01*
X36438Y29600D02*
X36850D01*
X36338Y29700D02*
X36850D01*
X36238Y29800D02*
X36850D01*
X36138Y29900D02*
X36850D01*
X36038Y30000D02*
X36850D01*
X35938Y30100D02*
X36850D01*
Y28992D02*
Y29188D01*
Y35317D01*
X36738Y29300D02*
X36850D01*
X36638Y29400D02*
X36850D01*
X40575Y30015D02*
Y39825D01*
X40600Y30031D02*
Y47025D01*
X40575Y30100D02*
X40723D01*
X40700Y30088D02*
Y47025D01*
X40800Y30134D02*
Y47025D01*
X39550Y6900D02*
X41325D01*
X39550Y7000D02*
X41325D01*
X39550Y7100D02*
X41325D01*
X39550Y7200D02*
X41325D01*
X39550Y7300D02*
X41325D01*
X39550Y7400D02*
X41325D01*
X39550Y7500D02*
X41325D01*
X39550Y7600D02*
X41325D01*
X39550Y7700D02*
X41325D01*
X42700Y3499D02*
Y3855D01*
X39550Y7800D02*
X41325D01*
X39550Y7900D02*
X41325D01*
X39550Y8000D02*
X41325D01*
X39550Y8100D02*
X41325D01*
X39550Y8200D02*
X41325D01*
X39550Y8300D02*
X41325D01*
X39550Y8400D02*
X41325D01*
X39550Y8500D02*
X41325D01*
X39550Y8600D02*
X41325D01*
X39550Y8700D02*
X41325D01*
X39550Y8800D02*
X41325D01*
X39550Y8900D02*
X41334D01*
X39550Y9000D02*
X41355D01*
X39550Y9100D02*
X41390D01*
X39550Y9200D02*
X41439D01*
X39550Y9300D02*
X41506D01*
X39550Y9400D02*
X41598D01*
X41574Y9376D02*
X42492Y10294D01*
X42755Y3500D02*
X45265D01*
X42669Y3600D02*
X49200D01*
X42688Y3700D02*
X49200D01*
X42698Y3800D02*
X49200D01*
X42700Y3895D02*
Y4073D01*
X42700Y3900D02*
X49200D01*
X42694Y4000D02*
X49200D01*
X43952Y2800D02*
X44068D01*
X43889Y2900D02*
X44131D01*
X43812Y3000D02*
X44208D01*
X43720Y3100D02*
X44300D01*
X43606Y3200D02*
X44414D01*
X43461Y3300D02*
X44559D01*
X43260Y3400D02*
X44760D01*
X42800Y3499D02*
Y4073D01*
X42900Y3491D02*
Y4073D01*
X43000Y3476D02*
Y4073D01*
X43200Y3422D02*
Y4073D01*
X43100Y3453D02*
Y4073D01*
X42684D02*
X43173D01*
X43423D01*
X43173D02*
X43423D01*
X43600Y3205D02*
Y4073D01*
X43700Y3119D02*
Y4073D01*
X43800Y3015D02*
Y4073D01*
X43900Y2884D02*
Y4073D01*
X43300Y3383D02*
Y4073D01*
X43400Y3335D02*
Y4073D01*
X43500Y3276D02*
Y4073D01*
X43423D02*
X45323D01*
X39550Y9500D02*
X41698D01*
X39550Y9600D02*
X41798D01*
X39550Y9700D02*
X41898D01*
X39550Y9800D02*
X41998D01*
X39550Y9900D02*
X42098D01*
X39550Y10000D02*
X42198D01*
X39550Y10100D02*
X42298D01*
X39550Y10200D02*
X42398D01*
X39550Y10300D02*
X42498D01*
X39550Y10400D02*
X42621D01*
X39550Y10500D02*
X42825D01*
X43093Y10543D02*
X43337D01*
X39550Y10600D02*
X43337D01*
X39550Y10700D02*
X43337D01*
X39550Y10800D02*
X43337D01*
X39550Y10900D02*
X43337D01*
X39550Y11000D02*
X43337D01*
X39550Y11100D02*
X43337D01*
X39550Y11200D02*
X43337D01*
X39550Y11300D02*
X43363D01*
X39550Y11400D02*
X43363D01*
X39550Y11500D02*
X43363D01*
X43337Y10543D02*
Y11243D01*
X43363Y11132D02*
Y11243D01*
X39550Y11600D02*
X43363D01*
Y11243D02*
Y14232D01*
X39550Y11700D02*
X43363D01*
X39550Y11800D02*
X43363D01*
X39550Y11900D02*
X43363D01*
X39550Y12000D02*
X43363D01*
X39550Y12100D02*
X43363D01*
X39550Y12200D02*
X43363D01*
X39550Y12300D02*
X43363D01*
X39550Y12400D02*
X43363D01*
X39550Y12500D02*
X43363D01*
X39550Y12600D02*
X43363D01*
X39550Y12700D02*
X43363D01*
X39550Y12800D02*
X43363D01*
X39550Y12900D02*
X43363D01*
X39550Y13000D02*
X43363D01*
X39550Y13100D02*
X43363D01*
X39550Y13200D02*
X43363D01*
X39550Y13300D02*
X43363D01*
X39550Y13400D02*
X43363D01*
X39550Y13500D02*
X43363D01*
X39550Y13600D02*
X43363D01*
X39550Y13700D02*
X43363D01*
X39550Y13800D02*
X43363D01*
X39550Y13900D02*
X43363D01*
X39550Y14000D02*
X43363D01*
X39550Y14100D02*
X43363D01*
X39550Y14200D02*
X43363D01*
X39550Y14300D02*
X43600D01*
X39550Y14400D02*
X43600D01*
X43363Y14232D02*
X43600D01*
X39550Y14500D02*
X43600D01*
X39550Y14600D02*
X43600D01*
X39550Y14700D02*
X43600D01*
X39602Y14800D02*
X43600D01*
X39702Y14900D02*
X43600D01*
X39802Y15000D02*
X43600D01*
X39902Y15100D02*
X43600D01*
X40002Y15200D02*
X43600D01*
X44000Y2711D02*
Y4073D01*
X44100Y2853D02*
Y4073D01*
X44200Y2991D02*
Y4073D01*
X44300Y3100D02*
Y4073D01*
X44400Y3189D02*
Y4073D01*
X44500Y3262D02*
Y4073D01*
X45800Y3400D02*
X47300D01*
X44600Y3324D02*
Y4073D01*
X46492Y2800D02*
X46608D01*
X46429Y2900D02*
X46671D01*
X48600Y800D02*
Y937D01*
X46352Y3000D02*
X46748D01*
X46260Y3100D02*
X46840D01*
X46146Y3200D02*
X46954D01*
X46001Y3300D02*
X47099D01*
X46100Y3235D02*
Y4523D01*
X46200Y3155D02*
Y4523D01*
X46300Y3059D02*
Y4523D01*
X46400Y2940D02*
Y4523D01*
X44700Y3374D02*
Y4073D01*
X44800Y3415D02*
Y4073D01*
X45700Y3436D02*
Y4523D01*
X46000Y3301D02*
Y4523D01*
X46500Y2787D02*
Y4523D01*
X46600Y2786D02*
Y4523D01*
X46700Y2940D02*
Y4523D01*
X46800Y3059D02*
Y4523D01*
X46900Y3155D02*
Y4523D01*
X47000Y3235D02*
Y4523D01*
X47100Y3301D02*
Y4523D01*
X48500Y3324D02*
Y5398D01*
X48700Y800D02*
Y1011D01*
X48800Y800D02*
Y1100D01*
X48340Y800D02*
X49200D01*
X48541Y900D02*
X49200D01*
X48900Y800D02*
Y1209D01*
X48686Y1000D02*
X49200D01*
X48800Y1100D02*
X49200D01*
X49000Y800D02*
Y1346D01*
X49100Y800D02*
Y1533D01*
X49200Y800D02*
Y1864D01*
X49200Y800D02*
Y1863D01*
X48892Y1200D02*
X49200D01*
X48969Y1300D02*
X49200D01*
X49032Y1400D02*
X49200D01*
X49085Y1500D02*
X49200D01*
X48800Y3100D02*
Y5698D01*
X48800Y3100D02*
X49200D01*
X48600Y3263D02*
Y5498D01*
X48700Y3189D02*
Y5598D01*
X48686Y3200D02*
X49200D01*
X48541Y3300D02*
X49200D01*
X49100Y2667D02*
Y5998D01*
X49200Y2336D02*
Y6098D01*
X49085Y2700D02*
X49200D01*
X49200Y2337D02*
Y6098D01*
X48900Y2991D02*
Y5798D01*
X49000Y2854D02*
Y5898D01*
X49032Y2800D02*
X49200D01*
X48892Y3000D02*
X49200D01*
X48969Y2900D02*
X49200D01*
X44900Y3447D02*
Y4073D01*
X45000Y3472D02*
Y4073D01*
X45100Y3488D02*
Y4073D01*
X45200Y3498D02*
Y4073D01*
X45300Y3500D02*
Y4073D01*
X45323D02*
Y4523D01*
X45400Y3495D02*
Y4523D01*
X45323D02*
X47273D01*
X45800Y3400D02*
Y4523D01*
X45900Y3355D02*
Y4523D01*
X47200Y3355D02*
Y4523D01*
X47300Y3400D02*
Y4523D01*
X45500Y3483D02*
Y4523D01*
X45600Y3463D02*
Y4523D01*
X47400Y3435D02*
Y4532D01*
X47500Y3463D02*
Y4554D01*
X45300Y14232D02*
X46163D01*
X45300Y14300D02*
X46780D01*
X45300Y14400D02*
X46815D01*
X45300Y14500D02*
X46864D01*
X45300Y14600D02*
X46931D01*
X45300Y14700D02*
X47023D01*
X45300Y14800D02*
X47123D01*
X45300Y14900D02*
X47223D01*
X46163Y14232D02*
X46765D01*
X47600Y3483D02*
Y4588D01*
X45300Y15000D02*
X47323D01*
X46999Y14676D02*
X47399Y15076D01*
X45300Y15100D02*
X47424D01*
X45300Y15200D02*
X47556D01*
X45295Y3500D02*
X47805D01*
X45323Y4100D02*
X49200D01*
X45323Y4200D02*
X49200D01*
X45323Y4300D02*
X49200D01*
X45323Y4400D02*
X49200D01*
X45323Y4500D02*
X49200D01*
X47700Y3495D02*
Y4638D01*
X47800Y3500D02*
Y4706D01*
X48340Y3400D02*
X49200D01*
X47835Y3500D02*
X49200D01*
X47627Y4600D02*
X49200D01*
X47900Y3498D02*
Y4798D01*
X47792Y4700D02*
X49200D01*
X47902Y4800D02*
X49200D01*
X48000Y3488D02*
Y4898D01*
X48100Y3472D02*
Y4998D01*
X48200Y3447D02*
Y5098D01*
X48300Y3415D02*
Y5198D01*
X48002Y4900D02*
X49200D01*
X47874Y4772D02*
X49200Y6098D01*
X48102Y5000D02*
X49200D01*
X48202Y5100D02*
X49200D01*
X48302Y5200D02*
X49200D01*
X48400Y3374D02*
Y5298D01*
X48402Y5300D02*
X49200D01*
X48502Y5400D02*
X49200D01*
X48602Y5500D02*
X49200D01*
X48702Y5600D02*
X49200D01*
X48802Y5700D02*
X49200D01*
X48902Y5800D02*
X49200D01*
X49002Y5900D02*
X49200D01*
X41400Y9124D02*
Y15629D01*
X41500Y9291D02*
Y15702D01*
X40102Y15300D02*
X43600D01*
X40202Y15400D02*
X43600D01*
X40302Y15500D02*
X43600D01*
X41350Y15600D02*
X43600D01*
X41600Y9402D02*
Y15798D01*
X41700Y9502D02*
Y15898D01*
X41800Y9602D02*
Y15998D01*
X41900Y9702D02*
Y16098D01*
X42000Y9802D02*
Y16198D01*
X42100Y9902D02*
Y16298D01*
X42200Y10002D02*
Y16398D01*
X42300Y10102D02*
Y16498D01*
X42400Y10202D02*
Y16598D01*
X42500Y10302D02*
Y16698D01*
X42600Y10385D02*
Y16798D01*
X42700Y10447D02*
Y16898D01*
X42800Y10491D02*
Y16998D01*
X42900Y10521D02*
Y17098D01*
X43000Y10538D02*
Y17198D01*
X41551Y15749D02*
X43426Y17624D01*
X43100Y10543D02*
Y17298D01*
X43200Y10543D02*
Y17398D01*
X43300Y10543D02*
Y17498D01*
X43400Y14232D02*
Y17598D01*
X43302Y17500D02*
X43534D01*
X43500Y14232D02*
Y17538D01*
X43600Y14232D02*
Y17433D01*
X43600Y14232D02*
Y17434D01*
X41498Y15700D02*
X43600D01*
X41602Y15800D02*
X43600D01*
X41702Y15900D02*
X43600D01*
X41802Y16000D02*
X43600D01*
X41902Y16100D02*
X43600D01*
X42002Y16200D02*
X43600D01*
X42102Y16300D02*
X43600D01*
X42202Y16400D02*
X43600D01*
X42302Y16500D02*
X43600D01*
X42402Y16600D02*
X43600D01*
X42502Y16700D02*
X43600D01*
X42602Y16800D02*
X43600D01*
X42702Y16900D02*
X43600D01*
X42802Y17000D02*
X43600D01*
X42902Y17100D02*
X43600D01*
X43002Y17200D02*
X43600D01*
X43102Y17300D02*
X43600D01*
X43202Y17400D02*
X43600D01*
X44950Y19500D02*
X49200D01*
X44950Y19600D02*
X49200D01*
X44950Y19700D02*
X49200D01*
X44950Y19800D02*
X49200D01*
X44950Y19900D02*
X49200D01*
X44950Y20000D02*
X49200D01*
X44950Y20100D02*
X49200D01*
X44950Y20200D02*
X49200D01*
X44950Y20300D02*
X49200D01*
X44950Y20400D02*
X49200D01*
X44950Y20500D02*
X49200D01*
X44950Y20600D02*
X49200D01*
X44950Y20700D02*
X49200D01*
X44950Y20800D02*
X49200D01*
X44950Y20900D02*
X49200D01*
X44950Y21000D02*
X49200D01*
X44950Y21100D02*
X49200D01*
X44950Y21200D02*
X49200D01*
X44950Y21300D02*
X49200D01*
X44950Y21400D02*
X49200D01*
X44950Y21500D02*
X49200D01*
X44950Y21600D02*
X49200D01*
X44950Y21700D02*
X49200D01*
X44950Y21800D02*
X49200D01*
X44950Y21900D02*
X49200D01*
X44950Y22000D02*
X49200D01*
X44950Y22100D02*
X49200D01*
X44950Y22200D02*
X49200D01*
X44950Y22300D02*
X49200D01*
X44950Y22400D02*
X49200D01*
X44950Y22500D02*
X49200D01*
X44950Y22600D02*
X49200D01*
X41800Y30106D02*
Y31294D01*
X41700Y30148D02*
Y31377D01*
X41975Y30006D02*
Y31184D01*
X41900Y30054D02*
Y31226D01*
X44950Y22700D02*
X49200D01*
X44950Y22800D02*
X49200D01*
X44950Y22900D02*
X49200D01*
X44950Y23000D02*
X49200D01*
X44950Y23100D02*
X49200D01*
X44950Y23200D02*
X49200D01*
X44950Y23300D02*
X49200D01*
X44950Y23400D02*
X49200D01*
X44950Y23500D02*
X49200D01*
X44950Y23600D02*
X49200D01*
X44950Y23700D02*
X49200D01*
X44950Y23800D02*
X49200D01*
X44950Y23900D02*
X49200D01*
X44950Y24000D02*
X49200D01*
X44950Y24100D02*
X49200D01*
X44950Y24200D02*
X49200D01*
X44950Y24300D02*
X49200D01*
X44950Y24400D02*
X49200D01*
X44950Y24500D02*
X49200D01*
X44950Y24600D02*
X49200D01*
X44950Y24700D02*
X49200D01*
X44950Y24800D02*
X49200D01*
X44950Y24900D02*
X49200D01*
X44950Y25000D02*
X49200D01*
X44950Y25100D02*
X49200D01*
X44950Y25200D02*
X49200D01*
X44950Y25300D02*
X49200D01*
X44950Y25400D02*
X49200D01*
X44950Y25500D02*
X49200D01*
X44950Y25600D02*
X49200D01*
X44950Y25700D02*
X49200D01*
X44950Y25800D02*
X49200D01*
X44950Y25900D02*
X49200D01*
X44950Y26000D02*
X49200D01*
X44950Y26100D02*
X49200D01*
X44950Y26200D02*
X49200D01*
X44950Y26300D02*
X49200D01*
X44950Y26400D02*
X49200D01*
X44950Y26500D02*
X49200D01*
X44950Y26600D02*
X49200D01*
X44950Y26700D02*
X49200D01*
X45300Y14232D02*
Y17433D01*
X45400Y14232D02*
Y17537D01*
X45500Y14232D02*
Y17672D01*
X45600Y14232D02*
Y17860D01*
X45300Y15300D02*
X47786D01*
X45700Y14232D02*
Y18330D01*
X45300Y15400D02*
X47884D01*
X45300Y15500D02*
X48009D01*
X47300Y14977D02*
Y34587D01*
X47000Y14677D02*
Y34653D01*
X47400Y15077D02*
Y34578D01*
X47500Y15162D02*
Y34575D01*
X47600Y15225D02*
Y34578D01*
X47700Y15270D02*
Y34587D01*
X45900Y14232D02*
Y35822D01*
X45800Y14232D02*
Y38157D01*
X46100Y14232D02*
Y35352D01*
X46000Y14232D02*
Y35538D01*
X46300Y14232D02*
Y35092D01*
X46200Y14232D02*
Y35209D01*
X46500Y14232D02*
Y34913D01*
X46400Y14232D02*
Y34995D01*
X46600Y14232D02*
Y34842D01*
X46700Y14232D02*
Y34782D01*
X46800Y14362D02*
Y34731D01*
X46900Y14557D02*
Y34688D01*
X47100Y14777D02*
Y34624D01*
X47200Y14877D02*
Y34603D01*
X47800Y15316D02*
Y34603D01*
X47900Y15414D02*
Y34624D01*
X45300Y15600D02*
X48180D01*
X45300Y15700D02*
X48476D01*
X45300Y15800D02*
X49200D01*
X45300Y15900D02*
X49200D01*
X45300Y16000D02*
X49200D01*
X45300Y16100D02*
X49200D01*
X45300Y16200D02*
X49200D01*
X45300Y16300D02*
X49200D01*
X48974Y15700D02*
X49200D01*
X45300Y16400D02*
X49200D01*
X45300Y16500D02*
X49200D01*
X45300Y16600D02*
X49200D01*
X45300Y16700D02*
X49200D01*
X45300Y16800D02*
X49200D01*
X45300Y16900D02*
X49200D01*
X48000Y15493D02*
Y34653D01*
X48100Y15557D02*
Y34688D01*
X48200Y15609D02*
Y34731D01*
X48300Y15650D02*
Y34782D01*
X45300Y17000D02*
X49200D01*
X48400Y15682D02*
Y34842D01*
X45300Y17100D02*
X49200D01*
X45300Y17200D02*
X49200D01*
X48500Y15705D02*
Y34913D01*
X49100Y15667D02*
Y35822D01*
X49200Y15631D02*
Y41243D01*
X49200Y15631D02*
Y41243D01*
X48600Y15719D02*
Y34995D01*
X48700Y15725D02*
Y35093D01*
X48800Y15723D02*
Y35209D01*
X48900Y15713D02*
Y35352D01*
X49000Y15694D02*
Y35538D01*
X45300Y17300D02*
X49200D01*
X45300Y17400D02*
X49200D01*
X45366Y17500D02*
X49200D01*
X45450Y17600D02*
X49200D01*
X45518Y17700D02*
X49200D01*
X45572Y17800D02*
X49200D01*
X45616Y17900D02*
X49200D01*
X45650Y18000D02*
X49200D01*
X45675Y18100D02*
X49200D01*
X45691Y18200D02*
X49200D01*
X45699Y18300D02*
X49200D01*
X45699Y18400D02*
X49200D01*
X45691Y18500D02*
X49200D01*
X45675Y18600D02*
X49200D01*
X45650Y18700D02*
X49200D01*
X45367Y19200D02*
X49200D01*
X45300Y19267D02*
Y38020D01*
X45263Y19300D02*
X49200D01*
X45128Y19400D02*
X49200D01*
X44950Y19496D02*
Y36775D01*
X45000Y19473D02*
Y38028D01*
X45100Y19418D02*
Y38018D01*
X45200Y19350D02*
Y38016D01*
X45600Y18840D02*
Y38078D01*
X45700Y18370D02*
Y38113D01*
X45616Y18800D02*
X49200D01*
X45573Y18900D02*
X49200D01*
X45400Y19163D02*
Y38032D01*
X45500Y19028D02*
Y38051D01*
X45518Y19000D02*
X49200D01*
X45450Y19100D02*
X49200D01*
X44950Y26800D02*
X49200D01*
X44950Y26900D02*
X49200D01*
X44950Y27000D02*
X49200D01*
X44950Y27100D02*
X49200D01*
X44950Y27200D02*
X49200D01*
X44950Y27300D02*
X49200D01*
X44950Y27400D02*
X49200D01*
X44950Y27500D02*
X49200D01*
X44950Y27600D02*
X49200D01*
X44950Y27700D02*
X49200D01*
X44950Y27800D02*
X49200D01*
X44950Y27900D02*
X49200D01*
X44950Y28000D02*
X49200D01*
X44950Y28100D02*
X49200D01*
X44950Y28200D02*
X49200D01*
X44950Y28300D02*
X49200D01*
X44950Y28400D02*
X49200D01*
X44950Y28500D02*
X49200D01*
X44950Y28600D02*
X49200D01*
X44950Y28700D02*
X49200D01*
X44950Y28800D02*
X49200D01*
X44950Y28900D02*
X49200D01*
X44950Y29000D02*
X49200D01*
X44950Y29100D02*
X49200D01*
X44950Y29200D02*
X49200D01*
X44950Y29300D02*
X49200D01*
X44950Y29400D02*
X49200D01*
X44950Y29500D02*
X49200D01*
X44950Y29600D02*
X49200D01*
X44950Y29700D02*
X49200D01*
X44950Y29800D02*
X49200D01*
X44950Y29900D02*
X49200D01*
X44950Y30000D02*
X49200D01*
X28325Y35500D02*
X28687D01*
X28325Y35600D02*
X28666D01*
X28325Y35400D02*
X28716D01*
X21770Y35900D02*
X21893D01*
X21770Y36000D02*
X21998D01*
X21770Y36100D02*
X22130D01*
X21770Y36200D02*
X22305D01*
X28700Y35222D02*
Y35450D01*
X28325Y35700D02*
X28654D01*
X30850Y34518D02*
Y34988D01*
X28527Y35300D02*
X28754D01*
X28325Y35800D02*
X28650D01*
X28325Y35900D02*
X28654D01*
X28325Y36000D02*
X28666D01*
X28325Y36100D02*
X28687D01*
X21770Y35750D02*
Y36337D01*
X21800Y35791D02*
Y40613D01*
X21900Y35907D02*
Y40613D01*
X22000Y36001D02*
Y40613D01*
X22100Y36079D02*
Y40613D01*
X21770Y36300D02*
X22589D01*
X22200Y36144D02*
Y40613D01*
X22300Y36197D02*
Y40613D01*
X22400Y36241D02*
Y40613D01*
X23514Y36200D02*
X23700D01*
X28325D02*
X28716D01*
X22500Y36276D02*
Y40613D01*
X22600Y36302D02*
Y40613D01*
X23230Y36300D02*
X23700D01*
X28325D02*
X28754D01*
X30850Y34518D02*
X32695Y32673D01*
X30900Y34468D02*
Y35050D01*
X30869Y34500D02*
X36850D01*
X30850Y34600D02*
X36850D01*
X30850Y34700D02*
X36850D01*
X30850Y34800D02*
X36850D01*
X30850Y34900D02*
X36850D01*
X30860Y35000D02*
X36850D01*
X31669Y33700D02*
X36850D01*
X31569Y33800D02*
X36850D01*
X31469Y33900D02*
X36850D01*
X31368Y34000D02*
X36850D01*
X31268Y34100D02*
X36850D01*
X31169Y34200D02*
X36850D01*
X31069Y34300D02*
X36850D01*
X30969Y34400D02*
X36850D01*
X31000Y34368D02*
Y35206D01*
X31100Y34269D02*
Y35450D01*
X30936Y35100D02*
X36850D01*
X31084Y35400D02*
X36725D01*
X30997Y35200D02*
X36850D01*
X31046Y35300D02*
X36850D01*
X31146Y35700D02*
X36439D01*
X31150Y35800D02*
X36378D01*
X31113Y35500D02*
X36608D01*
X31134Y35600D02*
X36515D01*
X31114Y36100D02*
X36262D01*
X31084Y36200D02*
X36241D01*
X31146Y35900D02*
X36329D01*
X31134Y36000D02*
X36291D01*
X28325Y36400D02*
X28803D01*
X28325Y36500D02*
X28864D01*
X28325Y36600D02*
X28939D01*
X28325Y36700D02*
X29032D01*
X28325Y36800D02*
X29150D01*
X28325Y36900D02*
X29306D01*
X28325Y37000D02*
X29550D01*
X28325Y39600D02*
X34750D01*
X28325Y39900D02*
X34464D01*
X28325Y40000D02*
X34403D01*
X28325Y39700D02*
X34632D01*
X28325Y39800D02*
X34539D01*
X28325Y40200D02*
X34316D01*
X28325Y40300D02*
X34286D01*
X28325Y40100D02*
X34354D01*
X28325Y40400D02*
X34266D01*
X20900Y36337D02*
Y40613D01*
X21000Y36337D02*
Y40613D01*
X21100Y36337D02*
Y40613D01*
X21200Y36337D02*
Y40613D01*
X21300Y36337D02*
Y40613D01*
X21400Y36337D02*
Y40613D01*
X21500Y36337D02*
Y40613D01*
X21600Y36337D02*
Y40613D01*
X21700Y36337D02*
Y40613D01*
X22700Y36321D02*
Y40613D01*
X28325Y40500D02*
X34254D01*
X22800Y36333D02*
Y40613D01*
X22868Y40700D02*
X23700D01*
X22868Y40800D02*
X23700D01*
X28325Y40600D02*
X34250D01*
X28325Y40700D02*
X34254D01*
X28325Y37100D02*
X36439D01*
X28325Y37200D02*
X36514D01*
X28325Y37300D02*
X36607D01*
X28325Y37400D02*
X36725D01*
X28325Y37500D02*
X36881D01*
X28325Y37600D02*
X37125D01*
X28325Y37700D02*
X37284D01*
X28325Y37800D02*
X37300D01*
X31046Y36300D02*
X36229D01*
X30997Y36400D02*
X36225D01*
X30936Y36500D02*
X36229D01*
X30861Y36600D02*
X36241D01*
X30768Y36700D02*
X36262D01*
X30650Y36800D02*
X36291D01*
X30494Y36900D02*
X36329D01*
X30250Y37000D02*
X36378D01*
X28325Y38100D02*
X36167D01*
X28325Y38200D02*
X36167D01*
X28325Y37900D02*
X37325D01*
X28325Y38000D02*
X37359D01*
X28325Y38300D02*
X36167D01*
X28325Y38400D02*
X36167D01*
X28325Y38500D02*
X36167D01*
X28325Y38600D02*
X36167D01*
X28325Y38700D02*
X36167D01*
X28325Y38800D02*
X36167D01*
X28325Y38900D02*
X36167D01*
X28325Y39000D02*
X36167D01*
X28325Y39400D02*
X35150D01*
X28325Y39500D02*
X34906D01*
X28325Y39100D02*
X36167D01*
X28325Y39200D02*
X36167D01*
X28325Y39300D02*
X36167D01*
X32873Y30200D02*
X33674D01*
X33700Y30226D02*
Y30787D01*
X33169Y30300D02*
X33774D01*
X33340Y30400D02*
X33874D01*
X33465Y30500D02*
X33974D01*
X33564Y30600D02*
X34074D01*
X33643Y30700D02*
X34174D01*
X33707Y30800D02*
X34274D01*
X33800Y30326D02*
Y30999D01*
X33759Y30900D02*
X34374D01*
X33800Y31000D02*
X34474D01*
X33832Y31100D02*
X34574D01*
X33854Y31200D02*
X34674D01*
X34574Y31100D02*
X34938D01*
X34674Y31200D02*
X34838D01*
X34400Y30926D02*
Y40006D01*
X34300Y30826D02*
Y40250D01*
X34600Y31126D02*
Y39732D01*
X34500Y31026D02*
Y39850D01*
X34700Y31226D02*
Y39639D01*
X34900Y31138D02*
Y39503D01*
X34800Y31238D02*
Y39564D01*
X35400Y30638D02*
Y39354D01*
X35500Y30538D02*
Y39350D01*
X35600Y30438D02*
Y39354D01*
X35700Y30338D02*
Y39366D01*
X35100Y30938D02*
Y39416D01*
X35000Y31038D02*
Y39454D01*
X35200Y30838D02*
Y39386D01*
X35300Y30738D02*
Y39366D01*
X35138Y30900D02*
X36850D01*
X35038Y31000D02*
X36850D01*
X34938Y31100D02*
X36850D01*
X34838Y31200D02*
X36850D01*
X33869Y31300D02*
X36850D01*
X33875Y31400D02*
X36850D01*
X33873Y31500D02*
X36850D01*
X33863Y31600D02*
X36850D01*
X35838Y30200D02*
X36850D01*
X35738Y30300D02*
X36850D01*
X40575Y30200D02*
X41019D01*
X35638Y30400D02*
X36850D01*
X35538Y30500D02*
X36850D01*
X35438Y30600D02*
X36850D01*
X35338Y30700D02*
X36850D01*
X35238Y30800D02*
X36850D01*
X33844Y31700D02*
X36850D01*
X35800Y30238D02*
Y39386D01*
X33817Y31800D02*
X36850D01*
X33781Y31900D02*
X36850D01*
X33735Y32000D02*
X36850D01*
X33677Y32100D02*
X36850D01*
X33606Y32200D02*
X36850D01*
X33518Y32300D02*
X36850D01*
X41200Y30223D02*
Y36022D01*
X41100Y30214D02*
Y36210D01*
X41400Y30218D02*
Y31804D01*
X41300Y30225D02*
Y35888D01*
X40575Y32000D02*
X41335D01*
X40575Y32100D02*
X41315D01*
X40575Y31800D02*
X41402D01*
X40575Y31900D02*
X41364D01*
X40575Y32200D02*
X41304D01*
X32468Y32900D02*
X36850D01*
X32368Y33000D02*
X36850D01*
X32269Y33100D02*
X36850D01*
X32168Y33200D02*
X36850D01*
X32069Y33300D02*
X36850D01*
X31969Y33400D02*
X36850D01*
X31868Y33500D02*
X36850D01*
X31768Y33600D02*
X36850D01*
X33407Y32400D02*
X36850D01*
X33263Y32500D02*
X36850D01*
X33052Y32600D02*
X36850D01*
X32668Y32700D02*
X36850D01*
X32569Y32800D02*
X36850D01*
X36300Y36826D02*
Y38016D01*
X40575Y36600D02*
X41004D01*
X36400Y37038D02*
Y38016D01*
X36500Y37182D02*
Y38016D01*
X36600Y37293D02*
Y38016D01*
X36700Y37381D02*
Y38016D01*
X35850Y39400D02*
X36167D01*
Y38016D02*
Y39543D01*
X36800Y37452D02*
Y38016D01*
X36167D02*
X37365D01*
X36900Y37510D02*
Y38016D01*
X37000Y37556D02*
Y38016D01*
X37100Y37592D02*
Y38016D01*
X37200Y37619D02*
Y38016D01*
X37300Y37798D02*
Y38016D01*
X40575Y32300D02*
X41300D01*
X40575Y32400D02*
X41305D01*
X40575Y32500D02*
X41317D01*
X40575Y32600D02*
X41338D01*
X40575Y35900D02*
X41290D01*
X40575Y36000D02*
X41214D01*
X40575Y32700D02*
X41368D01*
X40575Y32800D02*
X41407D01*
X40575Y36300D02*
X41066D01*
X40575Y36400D02*
X41037D01*
X40575Y36100D02*
X41153D01*
X40575Y36200D02*
X41104D01*
X40575Y36700D02*
X41000D01*
X40575Y36800D02*
X41004D01*
X40575Y36500D02*
X41016D01*
X40575Y36900D02*
X41016D01*
X40575Y37000D02*
X41036D01*
X40575Y37100D02*
X41066D01*
X40575Y37200D02*
X41104D01*
X40575Y37300D02*
X41153D01*
X40575Y37400D02*
X41214D01*
X40575Y37500D02*
X41289D01*
X40575Y39000D02*
X41310D01*
X40575Y39100D02*
X41283D01*
X40575Y39300D02*
X41252D01*
X40575Y39400D02*
X41247D01*
X41300Y37512D02*
Y39035D01*
X40575Y39200D02*
X41264D01*
X40575Y39500D02*
X41250D01*
X40575Y39600D02*
X41259D01*
X40575Y39700D02*
X41276D01*
X40575Y39800D02*
X41301D01*
X40572Y39900D02*
X41334D01*
X22868Y41100D02*
X23668D01*
X22868Y41200D02*
X23616D01*
X22868Y40900D02*
X23700D01*
X22868Y41000D02*
X23700D01*
X22868Y41500D02*
X23520D01*
X22868Y41600D02*
X23506D01*
X22868Y41300D02*
X23575D01*
X22868Y41400D02*
X23543D01*
X23600Y36155D02*
Y41235D01*
X22868Y41700D02*
X23500D01*
X23700Y36093D02*
Y41047D01*
X23700Y36093D02*
Y41047D01*
X22868Y41800D02*
X23502D01*
X22868Y41900D02*
X23512D01*
X22868Y42000D02*
X23531D01*
X22868Y42100D02*
X23558D01*
X22868Y40613D02*
Y43413D01*
X22900Y36337D02*
Y47025D01*
X22868Y42200D02*
X23594D01*
X23000Y36334D02*
Y47025D01*
X22868Y42300D02*
X23640D01*
X22868Y42400D02*
X23698D01*
X22868Y42500D02*
X23769D01*
X22868Y42600D02*
X23857D01*
X23200Y36307D02*
Y47025D01*
X23300Y36282D02*
Y47025D01*
X23400Y36248D02*
Y47025D01*
X23500Y36206D02*
Y47025D01*
X23100Y36324D02*
Y47025D01*
X23600Y42215D02*
Y47025D01*
X23700Y42403D02*
Y47025D01*
X23800Y42537D02*
Y47025D01*
X28325Y40800D02*
X34266D01*
X28325Y40900D02*
X34286D01*
X28325Y41000D02*
X34316D01*
X28325Y41100D02*
X34354D01*
X22868Y42700D02*
X23968D01*
X22868Y42800D02*
X24112D01*
X28325Y41200D02*
X34403D01*
X22868Y42900D02*
X24323D01*
X28325Y41300D02*
X34464D01*
X28325Y41400D02*
X34539D01*
X28325Y41500D02*
X34632D01*
X28325Y41600D02*
X34750D01*
X28325Y41700D02*
X34906D01*
X28325Y41800D02*
X35150D01*
X28325Y41900D02*
X35593D01*
X28325Y42000D02*
X35788D01*
X23900Y42641D02*
Y47025D01*
X24000Y42725D02*
Y47025D01*
X24100Y42793D02*
Y47025D01*
X24200Y42847D02*
Y47025D01*
X24300Y42891D02*
Y47025D01*
X24500Y42950D02*
Y46730D01*
X24400Y42925D02*
Y47025D01*
X28325Y35355D02*
Y47025D01*
X28400Y35339D02*
Y47025D01*
X28500Y35309D02*
Y47025D01*
X28600Y35271D02*
Y47025D01*
X25300Y42848D02*
Y46068D01*
X24600Y42966D02*
Y46560D01*
X25400Y42793D02*
Y46045D01*
X25429Y42775D02*
Y46040D01*
X28700Y36150D02*
Y47025D01*
X22868Y46100D02*
X25199D01*
X22868Y46200D02*
X24987D01*
X20900Y46313D02*
Y47025D01*
X21000Y46313D02*
Y47025D01*
X21100Y46313D02*
Y47025D01*
X21200Y46313D02*
Y47025D01*
X25000Y42950D02*
Y46193D01*
X24900Y42966D02*
Y46257D01*
X25100Y42925D02*
Y46141D01*
X25200Y42891D02*
Y46100D01*
X22868Y43513D02*
Y46313D01*
X24700Y42974D02*
Y46434D01*
X22868Y46300D02*
X24843D01*
X24800Y42974D02*
Y46336D01*
X21300Y46313D02*
Y47025D01*
X21400Y46313D02*
Y47025D01*
X21500Y46313D02*
Y47025D01*
X21600Y46313D02*
Y47025D01*
X21700Y46313D02*
Y47025D01*
X21800Y46313D02*
Y47025D01*
X21900Y46313D02*
Y47025D01*
X22000Y46313D02*
Y47025D01*
X22100Y46313D02*
Y47025D01*
X22200Y46313D02*
Y47025D01*
X22300Y46313D02*
Y47025D01*
X22400Y46313D02*
Y47025D01*
X22500Y46313D02*
Y47025D01*
X22600Y46313D02*
Y47025D01*
X22700Y46313D02*
Y47025D01*
X22800Y46313D02*
Y47025D01*
X22868Y43000D02*
X25429D01*
X22868Y43100D02*
X25429D01*
X22868Y43200D02*
X25429D01*
X22868Y43300D02*
X25429D01*
X22868Y43400D02*
X25429D01*
X22868Y43600D02*
X25429D01*
X22868Y43700D02*
X25429D01*
X22868Y43800D02*
X25429D01*
X25177Y42900D02*
X25429D01*
X22868Y43900D02*
X25429D01*
X22868Y44000D02*
X25429D01*
X22868Y44100D02*
X25429D01*
X22868Y44200D02*
X25429D01*
X22868Y44300D02*
X25429D01*
X22868Y44400D02*
X25429D01*
X22868Y44500D02*
X25429D01*
X22868Y44600D02*
X25429D01*
X22868Y44700D02*
X25429D01*
X22868Y44800D02*
X25429D01*
X22868Y44900D02*
X25429D01*
X22868Y45000D02*
X25429D01*
X22868Y45100D02*
X25429D01*
X22868Y45200D02*
X25429D01*
X22868Y45300D02*
X25429D01*
X22868Y45400D02*
X25429D01*
X22868Y45500D02*
X25429D01*
X22868Y45600D02*
X25429D01*
X22868Y45700D02*
X25429D01*
X22868Y45800D02*
X25429D01*
X22868Y45900D02*
X25429D01*
X22868Y46000D02*
X25429D01*
X28325Y47025D02*
X40975D01*
X28800Y36393D02*
Y47025D01*
X28900Y36550D02*
Y47025D01*
X29000Y36667D02*
Y47025D01*
X29100Y36760D02*
Y47025D01*
X29200Y36836D02*
Y47025D01*
X29300Y36897D02*
Y47025D01*
X29400Y36946D02*
Y47025D01*
X29500Y36984D02*
Y47025D01*
X29600Y37013D02*
Y47025D01*
X29700Y37034D02*
Y47025D01*
X29800Y37046D02*
Y47025D01*
X29900Y37050D02*
Y47025D01*
X30000Y37046D02*
Y47025D01*
X30100Y37034D02*
Y47025D01*
X30200Y37014D02*
Y47025D01*
X30300Y36984D02*
Y47025D01*
X30800Y36668D02*
Y47025D01*
X30900Y36550D02*
Y47025D01*
X31000Y36394D02*
Y47025D01*
X31100Y36150D02*
Y47025D01*
X30400Y36946D02*
Y47025D01*
X30500Y36897D02*
Y47025D01*
X30600Y36836D02*
Y47025D01*
X30700Y36761D02*
Y47025D01*
X31600Y33769D02*
Y47025D01*
X31700Y33668D02*
Y47025D01*
X31800Y33569D02*
Y47025D01*
X31900Y33468D02*
Y47025D01*
X31200Y34168D02*
Y47025D01*
X31300Y34069D02*
Y47025D01*
X31400Y33968D02*
Y47025D01*
X31500Y33868D02*
Y47025D01*
X32400Y32968D02*
Y47025D01*
X32500Y32868D02*
Y47025D01*
X32600Y32769D02*
Y47025D01*
X32700Y32673D02*
Y47025D01*
X32000Y33368D02*
Y47025D01*
X32100Y33269D02*
Y47025D01*
X32200Y33168D02*
Y47025D01*
X32300Y33069D02*
Y47025D01*
X32900Y32644D02*
Y47025D01*
X33000Y32617D02*
Y47025D01*
X33200Y32535D02*
Y47025D01*
X33300Y32477D02*
Y47025D01*
X32800Y32663D02*
Y47025D01*
X33100Y32581D02*
Y47025D01*
X38951Y41801D02*
X40326Y40426D01*
X33800Y31851D02*
Y47025D01*
X33900Y30426D02*
Y47025D01*
X34000Y30526D02*
Y47025D01*
X34100Y30626D02*
Y47025D01*
X33400Y32406D02*
Y47025D01*
X33500Y32318D02*
Y47025D01*
X33600Y32207D02*
Y47025D01*
X33700Y32063D02*
Y47025D01*
X34200Y30726D02*
Y47025D01*
X40900Y30169D02*
Y47025D01*
X41000Y30196D02*
Y47050D01*
X41100Y37190D02*
Y47150D01*
X40300Y40452D02*
Y47025D01*
X40400Y40342D02*
Y47025D01*
X40500Y40174D02*
Y47025D01*
X41200Y37378D02*
Y47250D01*
X41300Y39796D02*
Y47350D01*
X34300Y40950D02*
Y47025D01*
X34400Y41194D02*
Y47025D01*
X34500Y41350D02*
Y47025D01*
X34600Y41467D02*
Y47025D01*
X34700Y41560D02*
Y47025D01*
X34800Y41635D02*
Y47025D01*
X34900Y41696D02*
Y47025D01*
X35000Y41745D02*
Y47025D01*
X35100Y41784D02*
Y47025D01*
X35200Y41813D02*
Y47025D01*
X35300Y41834D02*
Y47025D01*
X35400Y41846D02*
Y47025D01*
X35500Y41850D02*
Y47025D01*
X35600Y41905D02*
Y47025D01*
X35700Y41963D02*
Y47025D01*
X35800Y42004D02*
Y47025D01*
X35900Y42032D02*
Y47025D01*
X36000Y42047D02*
Y47025D01*
X36100Y42050D02*
Y47025D01*
X36200Y42050D02*
Y47025D01*
X36300Y42050D02*
Y47025D01*
X36400Y42050D02*
Y47025D01*
X36500Y42050D02*
Y47025D01*
X36600Y42050D02*
Y47025D01*
X36700Y42050D02*
Y47025D01*
X36800Y42050D02*
Y47025D01*
X36900Y42050D02*
Y47025D01*
X37000Y42050D02*
Y47025D01*
X37100Y42050D02*
Y47025D01*
X37200Y42050D02*
Y47025D01*
X37300Y42050D02*
Y47025D01*
X37400Y42050D02*
Y47025D01*
X36075Y42050D02*
X38350D01*
X37500D02*
Y47025D01*
X37600Y42050D02*
Y47025D01*
X37700Y42050D02*
Y47025D01*
X37800Y42050D02*
Y47025D01*
X37900Y42050D02*
Y47025D01*
X38000Y42050D02*
Y47025D01*
X38100Y42050D02*
Y47025D01*
X38200Y42050D02*
Y47025D01*
X38300Y42050D02*
Y47025D01*
X38400Y42048D02*
Y47025D01*
X38500Y42037D02*
Y47025D01*
X39000Y41752D02*
Y47025D01*
X39100Y41652D02*
Y47025D01*
X39200Y41552D02*
Y47025D01*
X39300Y41452D02*
Y47025D01*
X38600Y42012D02*
Y47025D01*
X38700Y41975D02*
Y47025D01*
X38800Y41921D02*
Y47025D01*
X38900Y41848D02*
Y47025D01*
X39900Y40852D02*
Y47025D01*
X40000Y40752D02*
Y47025D01*
X40100Y40652D02*
Y47025D01*
X40200Y40552D02*
Y47025D01*
X39400Y41352D02*
Y47025D01*
X39500Y41252D02*
Y47025D01*
X39600Y41152D02*
Y47025D01*
X39700Y41052D02*
Y47025D01*
X39800Y40952D02*
Y47025D01*
X40575Y30300D02*
X41975D01*
X40575Y30400D02*
X41975D01*
X40575Y30500D02*
X41975D01*
X40575Y30600D02*
X41975D01*
X40575Y30700D02*
X41975D01*
X40575Y30800D02*
X41975D01*
X40575Y30900D02*
X41975D01*
X40575Y31000D02*
X41975D01*
X41814Y30100D02*
X41975D01*
X41600Y30180D02*
Y31481D01*
X41518Y30200D02*
X41975D01*
X40575Y31100D02*
X41975D01*
X40575Y31400D02*
X41676D01*
X40575Y31500D02*
X41584D01*
X40575Y31200D02*
X41944D01*
X40575Y31300D02*
X41791D01*
X40575Y31700D02*
X41450D01*
X40575Y32900D02*
X41457D01*
X40575Y31600D02*
X41510D01*
X40575Y33000D02*
X41519D01*
X40575Y33100D02*
X41595D01*
X40575Y33200D02*
X41689D01*
X40575Y33300D02*
X41809D01*
X40575Y33400D02*
X41968D01*
X41500Y30203D02*
Y31615D01*
X41400Y32783D02*
Y35784D01*
X41600Y33106D02*
Y35632D01*
X41500Y32971D02*
Y35700D01*
X41700Y33210D02*
Y35578D01*
X41800Y33293D02*
Y35534D01*
X41900Y33361D02*
Y35500D01*
X42000Y33416D02*
Y35475D01*
X44950Y30100D02*
X49200D01*
X44950Y30200D02*
X49200D01*
X44950Y30300D02*
X49200D01*
X44950Y30400D02*
X49200D01*
X44950Y30500D02*
X49200D01*
X44950Y30600D02*
X49200D01*
X44950Y30700D02*
X49200D01*
X44950Y30800D02*
X49200D01*
X44950Y30900D02*
X49200D01*
X44950Y31000D02*
X49200D01*
X44950Y31100D02*
X49200D01*
X44950Y31200D02*
X49200D01*
X44950Y31300D02*
X49200D01*
X44950Y31400D02*
X49200D01*
X44950Y31500D02*
X49200D01*
X44950Y31600D02*
X49200D01*
X40575Y33500D02*
X42223D01*
X42100Y33460D02*
Y35459D01*
X42200Y33493D02*
Y35451D01*
X42300Y33518D02*
Y35451D01*
X42400Y33534D02*
Y35459D01*
X42500Y33542D02*
Y35475D01*
X42600Y33542D02*
Y35500D01*
X44950Y31700D02*
X49200D01*
X44950Y31800D02*
X49200D01*
X44950Y31900D02*
X49200D01*
X44950Y32000D02*
X49200D01*
X43000Y33460D02*
Y35700D01*
X43100Y33416D02*
Y35783D01*
X43132Y33400D02*
X43250D01*
X43200Y33361D02*
Y35887D01*
X43250Y33329D02*
Y35950D01*
X40575Y33600D02*
X43250D01*
X40575Y33700D02*
X43250D01*
X40575Y33800D02*
X43250D01*
X40575Y33900D02*
X43250D01*
X40575Y35600D02*
X41657D01*
X40575Y35700D02*
X41500D01*
X40575Y34000D02*
X43250D01*
X40575Y35500D02*
X41900D01*
X42700Y33534D02*
Y35534D01*
X42800Y33518D02*
Y35577D01*
X42877Y33500D02*
X43250D01*
X42900Y33493D02*
Y35632D01*
X40575Y35800D02*
X41383D01*
X40575Y37600D02*
X41382D01*
X40575Y37700D02*
X41500D01*
X40575Y37800D02*
X41656D01*
X40575Y37900D02*
X41781D01*
X40575Y38000D02*
X41782D01*
X40575Y38100D02*
X41783D01*
X40575Y38200D02*
X41784D01*
X40575Y38500D02*
X41588D01*
X40575Y38600D02*
X41509D01*
X40575Y38300D02*
X41785D01*
X40575Y38400D02*
X41684D01*
X41500Y37700D02*
Y38613D01*
X41400Y37616D02*
Y38780D01*
X41700Y37822D02*
Y38385D01*
X41600Y37768D02*
Y38487D01*
X40575Y38800D02*
X41390D01*
X40575Y38900D02*
X41346D01*
X41781Y37858D02*
X41785Y38312D01*
X40575Y38700D02*
X41444D01*
X40575Y34100D02*
X43250D01*
X40575Y34200D02*
X43250D01*
X40575Y34300D02*
X43250D01*
X40575Y34400D02*
X43250D01*
X40575Y34500D02*
X43250D01*
X40575Y34600D02*
X43250D01*
X40575Y34700D02*
X43250D01*
X40575Y34800D02*
X43250D01*
X40575Y34900D02*
X43250D01*
X40575Y35000D02*
X43250D01*
X40575Y35100D02*
X43250D01*
X40575Y35200D02*
X43250D01*
X40575Y35300D02*
X43250D01*
X40575Y35400D02*
X43250D01*
X42600Y35500D02*
X43250D01*
X42843Y35600D02*
X43250D01*
X43000Y35700D02*
X43250D01*
X43117Y35800D02*
X43250D01*
X44769Y37300D02*
X46248D01*
X44750Y37400D02*
X46341D01*
X44750Y37500D02*
X46452D01*
X44750Y37323D02*
Y38086D01*
X44800Y37257D02*
Y38070D01*
X44836Y37200D02*
X46169D01*
X44750Y37600D02*
X46588D01*
X44750Y37700D02*
X46760D01*
X44750Y37800D02*
X47008D01*
X44750Y37900D02*
X49200D01*
X44750Y38000D02*
X49200D01*
X44950Y32100D02*
X49200D01*
X44950Y32200D02*
X49200D01*
X44950Y32300D02*
X49200D01*
X44950Y32400D02*
X49200D01*
X44950Y34700D02*
X46870D01*
X44950Y34800D02*
X46668D01*
X44950Y32500D02*
X49200D01*
X44950Y34600D02*
X47214D01*
X44950Y35100D02*
X46293D01*
X44950Y35200D02*
X46207D01*
X44950Y34900D02*
X46517D01*
X44950Y35000D02*
X46395D01*
X44950Y35400D02*
X46071D01*
X44950Y35600D02*
X45973D01*
X44950Y35300D02*
X46134D01*
X44950Y35500D02*
X46018D01*
X44950Y35800D02*
X45906D01*
X44950Y35900D02*
X45882D01*
X44950Y35700D02*
X45936D01*
X44950Y36000D02*
X45865D01*
X44950Y36100D02*
X45855D01*
X44950Y36200D02*
X45850D01*
X44950Y36300D02*
X45852D01*
X44950Y36400D02*
X45859D01*
X44950Y36500D02*
X45873D01*
X44950Y36600D02*
X45893D01*
X45900Y36628D02*
Y38211D01*
X44950Y32600D02*
X49200D01*
X44950Y32700D02*
X49200D01*
X44950Y32800D02*
X49200D01*
X44950Y32900D02*
X49200D01*
X44950Y33000D02*
X49200D01*
X44950Y33100D02*
X49200D01*
X44950Y33200D02*
X49200D01*
X44950Y33300D02*
X49200D01*
X44950Y33400D02*
X49200D01*
X44950Y33500D02*
X49200D01*
X44950Y33600D02*
X49200D01*
X44950Y33700D02*
X49200D01*
X44950Y33800D02*
X49200D01*
X44950Y33900D02*
X49200D01*
X44950Y34000D02*
X49200D01*
X44950Y34100D02*
X49200D01*
X44950Y34200D02*
X49200D01*
X44950Y34300D02*
X49200D01*
X44950Y34400D02*
X49200D01*
X44950Y34500D02*
X49200D01*
X47785Y34600D02*
X49200D01*
X48129Y34700D02*
X49200D01*
X48331Y34800D02*
X49200D01*
X48483Y34900D02*
X49200D01*
X48605Y35000D02*
X49200D01*
X48707Y35100D02*
X49200D01*
X48793Y35200D02*
X49200D01*
X48866Y35300D02*
X49200D01*
X48929Y35400D02*
X49200D01*
X48982Y35500D02*
X49200D01*
X49027Y35600D02*
X49200D01*
X49064Y35700D02*
X49200D01*
X49094Y35800D02*
X49200D01*
X44950Y36700D02*
X45920D01*
X44950Y36800D02*
X45953D01*
X44941Y36900D02*
X45994D01*
X44920Y37000D02*
X46043D01*
X44885Y37100D02*
X46101D01*
X44900Y37063D02*
Y38045D01*
X45666Y38100D02*
X47249D01*
X47000Y37797D02*
Y38219D01*
X47100Y37826D02*
Y38164D01*
X47200Y37847D02*
Y38119D01*
X47300Y37863D02*
Y38082D01*
X47400Y37872D02*
Y38054D01*
X47500Y37875D02*
Y38034D01*
X47600Y37872D02*
Y38021D01*
X47700Y37863D02*
Y38016D01*
X47800Y37847D02*
Y38017D01*
X46000Y36912D02*
Y38276D01*
X46100Y37098D02*
Y38354D01*
X46200Y37241D02*
Y38449D01*
X46300Y37358D02*
Y38566D01*
X46151Y38400D02*
X46764D01*
X46246Y38500D02*
X46668D01*
X45881Y38200D02*
X47033D01*
X46033Y38300D02*
X46882D01*
X46400Y37455D02*
Y38716D01*
X46500Y37537D02*
Y38742D01*
X46700Y37668D02*
Y38465D01*
X46600Y37608D02*
Y38586D01*
X46325Y38600D02*
X46589D01*
X46390Y38700D02*
X46524D01*
X46900Y37762D02*
Y38286D01*
X46800Y37719D02*
Y38367D01*
X48547Y37500D02*
X49200D01*
X48200Y37719D02*
Y38098D01*
X48412Y37600D02*
X49200D01*
X48240Y37700D02*
X49200D01*
X47900Y37826D02*
Y38026D01*
X48000Y37797D02*
Y38042D01*
X47992Y37800D02*
X49200D01*
X48100Y37762D02*
Y38066D01*
X49080Y36700D02*
X49200D01*
X49046Y36800D02*
X49200D01*
X49005Y36900D02*
X49200D01*
X48957Y37000D02*
X49200D01*
X48899Y37100D02*
X49200D01*
X48831Y37200D02*
X49200D01*
X48752Y37300D02*
X49200D01*
X48658Y37400D02*
X49200D01*
X48400Y37608D02*
Y38188D01*
X48500Y37537D02*
Y38248D01*
X48600Y37455D02*
Y38321D01*
X48700Y37357D02*
Y38409D01*
X48300Y37668D02*
Y38138D01*
X48206Y38100D02*
X49200D01*
X48421Y38200D02*
X49200D01*
X48573Y38300D02*
X49200D01*
X48800Y37241D02*
Y38516D01*
X48900Y37098D02*
Y38651D01*
X48691Y38400D02*
X49200D01*
X49000Y36912D02*
Y38832D01*
X48786Y38500D02*
X49200D01*
X48865Y38600D02*
X49200D01*
X48930Y38700D02*
X49200D01*
X48985Y38800D02*
X49200D01*
X49029Y38900D02*
X49200D01*
X40152Y40600D02*
X41901D01*
X40052Y40700D02*
X42090D01*
X39952Y40800D02*
X42438D01*
X28325Y42200D02*
X42479D01*
X28325Y42400D02*
X42412D01*
X28325Y42500D02*
X42391D01*
X28325Y42300D02*
X42441D01*
X28325Y42600D02*
X42379D01*
X40557Y40000D02*
X41375D01*
X40529Y40100D02*
X41426D01*
X40488Y40200D02*
X41487D01*
X40430Y40300D02*
X41562D01*
X40351Y40400D02*
X41652D01*
X40252Y40500D02*
X41762D01*
X42500Y40808D02*
Y42155D01*
X42400Y40794D02*
Y42452D01*
X41400Y40051D02*
Y47450D01*
X41500Y40218D02*
Y47550D01*
X28325Y42700D02*
X42375D01*
X41600Y40345D02*
Y47650D01*
X28325Y42800D02*
X42379D01*
X28325Y42900D02*
X42391D01*
X28325Y43000D02*
X42411D01*
X28325Y43100D02*
X42441D01*
X41700Y40446D02*
Y47750D01*
X41800Y40530D02*
Y47850D01*
X41900Y40599D02*
Y47950D01*
X42000Y40657D02*
Y48050D01*
X42100Y40704D02*
Y48150D01*
X42200Y40742D02*
Y48250D01*
X42300Y40772D02*
Y48350D01*
X42400Y42948D02*
Y48450D01*
X39652Y41100D02*
X43050D01*
X39552Y41200D02*
X43050D01*
X39452Y41300D02*
X43050D01*
X39352Y41400D02*
X43050D01*
X39052Y41700D02*
X42875D01*
X38952Y41800D02*
X42758D01*
X39252Y41500D02*
X43050D01*
X39152Y41600D02*
X43032D01*
X43000Y40770D02*
Y41618D01*
X42900Y40793D02*
Y41682D01*
X42857Y40800D02*
X43050D01*
Y40756D02*
Y41590D01*
X42800Y40807D02*
Y41761D01*
X39852Y40900D02*
X43050D01*
X39752Y41000D02*
X43050D01*
X28325Y42100D02*
X42528D01*
X28325Y43200D02*
X42479D01*
X28325Y43300D02*
X42528D01*
X28325Y43400D02*
X42589D01*
X28325Y43500D02*
X42664D01*
X28325Y43600D02*
X42757D01*
X28325Y43700D02*
X42775D01*
X28325Y43800D02*
X42775D01*
X38832Y41900D02*
X42665D01*
X42600Y40815D02*
Y41985D01*
X42700Y40815D02*
Y41859D01*
X38637Y42000D02*
X42589D01*
X42500Y43245D02*
Y48550D01*
X42775Y43617D02*
Y44700D01*
X42600Y43415D02*
Y48650D01*
X42700Y43541D02*
Y48750D01*
X28325Y43900D02*
X42775D01*
X28325Y44000D02*
X42775D01*
X28325Y44100D02*
X42775D01*
X28325Y44200D02*
X42775D01*
X28325Y44300D02*
X42775D01*
X28325Y44400D02*
X42775D01*
X28325Y44500D02*
X42775D01*
X28325Y44600D02*
X42775D01*
X28325Y44700D02*
X42775D01*
X28325Y44800D02*
X42781D01*
X28325Y44900D02*
X42799D01*
X28325Y45000D02*
X42830D01*
X28325Y45100D02*
X42875D01*
X28325Y45200D02*
X42938D01*
X28325Y45300D02*
X43023D01*
X42800Y44904D02*
Y48850D01*
X28325Y45400D02*
X43123D01*
X28325Y45500D02*
X43223D01*
X28325Y45600D02*
X43323D01*
X40975Y47025D02*
X43025Y49075D01*
X28325Y45700D02*
X43423D01*
X28325Y45800D02*
X43523D01*
X42900Y45143D02*
Y48950D01*
X43000Y45276D02*
Y49050D01*
X43024Y45301D02*
X43631Y45907D01*
X43100Y45377D02*
Y49075D01*
X43200Y45477D02*
Y49075D01*
X43300Y45577D02*
Y49075D01*
X43400Y45677D02*
Y49075D01*
X43500Y45777D02*
Y49075D01*
X28325Y45900D02*
X43623D01*
X28325Y46000D02*
X43740D01*
X28325Y46100D02*
X43888D01*
X28325Y46200D02*
X43888D01*
X28325Y46300D02*
X43888D01*
X28325Y46400D02*
X43888D01*
X28325Y46500D02*
X43888D01*
X28325Y46600D02*
X43888D01*
X28325Y46700D02*
X43888D01*
X28325Y46800D02*
X43888D01*
X28325Y46900D02*
X43888D01*
X28325Y47000D02*
X49200D01*
X41050Y47100D02*
X49200D01*
X41150Y47200D02*
X49200D01*
X41250Y47300D02*
X49200D01*
X41350Y47400D02*
X49200D01*
X41450Y47500D02*
X49200D01*
X41550Y47600D02*
X49200D01*
X41650Y47700D02*
X49200D01*
X41750Y47800D02*
X49200D01*
X41850Y47900D02*
X49200D01*
X41950Y48000D02*
X49200D01*
X42050Y48100D02*
X49200D01*
X42150Y48200D02*
X49200D01*
X42250Y48300D02*
X49200D01*
X42350Y48400D02*
X49200D01*
X42450Y48500D02*
X49200D01*
X42550Y48600D02*
X49200D01*
X42650Y48700D02*
X49200D01*
X42750Y48800D02*
X49200D01*
X42850Y48900D02*
X49200D01*
X42950Y49000D02*
X49200D01*
X43025Y49075D02*
X49200D01*
X46037Y40528D02*
Y41243D01*
X46183Y40400D02*
X46732D01*
X46073Y40500D02*
X46842D01*
X46037Y40600D02*
X46980D01*
X46100Y40477D02*
Y41243D01*
X46037Y40700D02*
X47170D01*
X46037Y40800D02*
X47518D01*
X46400Y40115D02*
Y41243D01*
X46500Y40089D02*
Y41243D01*
X46200Y40382D02*
Y41243D01*
X46300Y40265D02*
Y41243D01*
X46347Y40200D02*
X46567D01*
X46273Y40300D02*
X46642D01*
X46600Y40246D02*
Y41243D01*
X46700Y40367D02*
Y41243D01*
X46800Y40464D02*
Y41243D01*
X46900Y40545D02*
Y41243D01*
X46037Y41243D02*
X46812D01*
X47000Y40612D02*
Y41243D01*
X47100Y40667D02*
Y41243D01*
X47200Y40712D02*
Y41243D01*
X47300Y40749D02*
Y41243D01*
X47400Y40777D02*
Y41243D01*
X47500Y40797D02*
Y41243D01*
X47900Y40805D02*
Y41243D01*
X47600Y40810D02*
Y41243D01*
X47700Y40815D02*
Y41243D01*
X47800Y40814D02*
Y41243D01*
X48000Y40789D02*
Y41243D01*
X48949Y40100D02*
X49200D01*
X48813Y40300D02*
X49200D01*
X48723Y40400D02*
X49200D01*
X48613Y40500D02*
X49200D01*
X48474Y40600D02*
X49200D01*
X48285Y40700D02*
X49200D01*
X49064Y39000D02*
X49200D01*
X49100Y36628D02*
Y39140D01*
X49091Y39100D02*
X49200D01*
X49098Y39700D02*
X49200D01*
X49073Y39800D02*
X49200D01*
X49041Y39900D02*
X49200D01*
X48999Y40000D02*
X49200D01*
X48887Y40200D02*
X49200D01*
X48100Y40765D02*
Y41243D01*
X48200Y40733D02*
Y41243D01*
X47937Y40800D02*
X49200D01*
X46037Y40900D02*
X49200D01*
X46037Y41000D02*
X49200D01*
X46037Y41100D02*
X49200D01*
X46037Y41200D02*
X49200D01*
X48800Y40315D02*
Y41243D01*
X48900Y40180D02*
Y41243D01*
X49000Y39999D02*
Y41243D01*
X49100Y39691D02*
Y41243D01*
X48300Y40693D02*
Y41243D01*
X48400Y40643D02*
Y41243D01*
X48500Y40583D02*
Y41243D01*
X48600Y40510D02*
Y41243D01*
X48700Y40423D02*
Y41243D01*
X43600Y45877D02*
Y49075D01*
X43700Y45970D02*
Y49075D01*
X43888Y46084D02*
Y46932D01*
X43800Y46039D02*
Y49075D01*
X43900Y46932D02*
Y49075D01*
X44000Y46932D02*
Y49075D01*
X44100Y46932D02*
Y49075D01*
X44200Y46932D02*
Y49075D01*
X44300Y46932D02*
Y49075D01*
X44400Y46932D02*
Y49075D01*
X44500Y46932D02*
Y49075D01*
X44600Y46932D02*
Y49075D01*
X44700Y46932D02*
Y49075D01*
X44800Y46932D02*
Y49075D01*
X44900Y46932D02*
Y49075D01*
X45000Y46932D02*
Y49075D01*
X45100Y46932D02*
Y49075D01*
X45200Y46932D02*
Y49075D01*
X45300Y46932D02*
Y49075D01*
X45400Y46932D02*
Y49075D01*
X45500Y46932D02*
Y49075D01*
X45600Y46932D02*
Y49075D01*
X45700Y46932D02*
Y49075D01*
X45800Y46932D02*
Y49075D01*
X45900Y46932D02*
Y49075D01*
X46000Y46932D02*
Y49075D01*
X46100Y46932D02*
Y49075D01*
X46200Y46932D02*
Y49075D01*
X46300Y46932D02*
Y49075D01*
X46400Y46932D02*
Y49075D01*
X46500Y46932D02*
Y49075D01*
X46600Y46932D02*
Y49075D01*
X46812Y41243D02*
X49200D01*
X43888Y46932D02*
X46688D01*
X46700Y46932D02*
Y49075D01*
X46800Y46932D02*
Y49075D01*
X46688Y46932D02*
X49200D01*
X46900D02*
Y49075D01*
X47000Y46932D02*
Y49075D01*
X47100Y46932D02*
Y49075D01*
X47200Y46932D02*
Y49075D01*
X47300Y46932D02*
Y49075D01*
X47400Y46932D02*
Y49075D01*
X47500Y46932D02*
Y49075D01*
X47600Y46932D02*
Y49075D01*
X47700Y46932D02*
Y49075D01*
X47800Y46932D02*
Y49075D01*
X47900Y46932D02*
Y49075D01*
X48000Y46932D02*
Y49075D01*
X48100Y46932D02*
Y49075D01*
X48200Y46932D02*
Y49075D01*
X48300Y46932D02*
Y49075D01*
X48400Y46932D02*
Y49075D01*
X48500Y46932D02*
Y49075D01*
X48600Y46932D02*
Y49075D01*
X48700Y46932D02*
Y49075D01*
X48800Y46932D02*
Y49075D01*
X48900Y46932D02*
Y49075D01*
X49000Y46932D02*
Y49075D01*
X49100Y46932D02*
Y49075D01*
X49200Y46932D02*
Y49075D01*
X49200Y46932D02*
Y49075D01*
D12*
X48162Y42793D02*
D03*
X45362Y42793D02*
D03*
X45338Y45382D02*
D03*
X48138Y45382D02*
D03*
X17513Y12257D02*
D03*
X14713D02*
D03*
X47613Y12682D02*
D03*
X44813Y12682D02*
D03*
X44787Y9693D02*
D03*
X47587D02*
D03*
D13*
X21318Y42063D02*
D03*
Y44863D02*
D03*
X17618Y54188D02*
D03*
Y56988D02*
D03*
D24*
X24600Y30350D02*
X26600Y28350D01*
X24600Y30350D02*
Y41850D01*
X48138Y45306D02*
X48338D01*
X47882Y45382D02*
X48138D01*
X18981Y21495D02*
X19971Y20505D01*
X20961Y19515D01*
X19971Y20505D02*
X20890Y21424D01*
X31927Y26262D02*
X32847Y27181D01*
X31857Y28171D02*
X32847Y27181D01*
X33837Y26191D01*
X2100Y2100D02*
Y3350D01*
X14713Y10857D02*
Y12257D01*
X13413D02*
X14713D01*
Y13657D01*
X17072Y17606D02*
X17991Y18525D01*
X18981Y17535D01*
X17001Y19515D02*
X17991Y18525D01*
X1689Y33233D02*
Y34433D01*
Y35633D01*
X9758Y23238D02*
Y24388D01*
Y25538D01*
Y26213D02*
Y27363D01*
Y28513D01*
X19918Y44863D02*
X21318D01*
X34827Y29161D02*
X35746Y30080D01*
X33837Y30151D02*
X34827Y29161D01*
X35816Y28171D01*
X47820Y2100D02*
Y3350D01*
Y2100D02*
X49070D01*
X21318Y44863D02*
X22718D01*
X21318D02*
Y46163D01*
X47500Y34725D02*
Y36225D01*
X46000D02*
X47500D01*
X49000D01*
X47500D02*
Y37725D01*
X47727Y38166D02*
Y39416D01*
Y40666D01*
Y39416D02*
X48977D01*
X48162Y41393D02*
Y42793D01*
D25*
X32917Y26262D02*
X31927Y27252D01*
X32776Y28100D01*
X33766Y27110D01*
X32917Y26262D01*
Y26733D02*
X32399Y27252D01*
X32776Y27629D01*
X33294Y27110D01*
X32917Y26733D01*
X32861Y27148D02*
X32832Y27213D01*
X34897Y28242D02*
X33907Y29232D01*
X34756Y30080D01*
X35746Y29090D01*
X34897Y28242D01*
Y28713D02*
X34379Y29232D01*
X34756Y29609D01*
X35274Y29090D01*
X34897Y28713D01*
X34841Y29128D02*
X34812Y29193D01*
X18062Y17606D02*
X17072Y18596D01*
X17920Y19444D01*
X18910Y18455D01*
X18062Y17606D01*
Y18077D02*
X17543Y18596D01*
X17920Y18973D01*
X18439Y18455D01*
X18062Y18077D01*
X18006Y18493D02*
X17976Y18558D01*
X20042Y19586D02*
X19052Y20576D01*
X19900Y21424D01*
X20890Y20434D01*
X20042Y19586D01*
Y20057D02*
X19523Y20576D01*
X19900Y20953D01*
X20419Y20434D01*
X20042Y20057D01*
X19985Y20473D02*
X19956Y20538D01*
X7900Y50200D02*
X13675D01*
X2825Y52175D02*
X6525D01*
Y51575D02*
Y52175D01*
Y51575D02*
X7900Y50200D01*
X2800Y52200D02*
X2825Y52175D01*
X27475Y34750D02*
X28100Y34125D01*
X27475Y34750D02*
Y48525D01*
X25625Y47275D02*
X26279Y46621D01*
Y34196D02*
Y46621D01*
X15250Y39175D02*
X15650Y39575D01*
X38525Y37550D02*
X38800Y37275D01*
Y22300D02*
Y37275D01*
X15250Y33100D02*
X15900Y32450D01*
X8425Y31000D02*
X8450Y31025D01*
X9125Y11225D02*
Y16775D01*
X16375Y34025D02*
X17150Y33250D01*
X16375Y37825D02*
X17000Y38450D01*
X37475Y36400D02*
X37700Y36175D01*
Y21300D02*
X39025Y19975D01*
X15525Y30375D02*
X15825D01*
X6000Y28550D02*
Y28800D01*
X18075Y31150D02*
Y37150D01*
X14250Y24075D02*
Y27325D01*
X42622Y37072D02*
X42647Y39416D01*
X42250Y36700D02*
X42622Y37072D01*
X47600Y12275D02*
Y14075D01*
X48000Y14475D02*
X48725D01*
X44248Y5373D02*
X47273D01*
X47600Y14075D02*
X48000Y14475D01*
X47600Y12275D02*
X49050Y10825D01*
Y7150D02*
Y10825D01*
X47273Y5373D02*
X49050Y7150D01*
X46175Y8450D02*
Y11125D01*
X45300Y7575D02*
X46175Y8450D01*
X45125Y7575D02*
X45300D01*
X47587Y7588D02*
Y9693D01*
Y7588D02*
X47600Y7575D01*
X43298Y7573D02*
X45123D01*
X44450Y12850D02*
X44813Y12487D01*
X46175Y11125D01*
X45123Y7573D02*
X45125Y7575D01*
X43093Y9693D02*
X44787D01*
X42175Y5546D02*
X42348Y5373D01*
X41450Y4474D02*
X42348Y5373D01*
X41450Y3875D02*
Y4474D01*
X42175Y8775D02*
X43093Y9693D01*
X42175Y5546D02*
Y8775D01*
X40950Y16350D02*
X42825Y18225D01*
Y32293D01*
X39950Y16350D02*
X40950D01*
X38700Y3600D02*
X40200Y2100D01*
X38700Y3600D02*
Y15100D01*
X39950Y16350D01*
X37660Y15135D02*
X39625Y17100D01*
X40550D01*
X41550Y18100D01*
Y28993D01*
X37660Y2100D02*
Y15135D01*
X17569Y12200D02*
X18700D01*
X17513Y12257D02*
X17569Y12200D01*
X39725Y23550D02*
Y39825D01*
X35487Y40612D02*
X36075Y41200D01*
X35475Y40600D02*
X35487Y40612D01*
X35475Y40600D02*
X35500D01*
X40250Y18550D02*
X40500Y18800D01*
X36075Y41200D02*
X38350D01*
X39725Y39825D01*
X42550Y32293D02*
X42750Y32093D01*
X41268Y28975D02*
X41275D01*
X41268D02*
X41475Y28768D01*
X7175Y32400D02*
X7225Y32450D01*
X14125Y32500D02*
Y40625D01*
X14325Y40825D01*
X8425Y17475D02*
X9125Y16775D01*
X15250Y33100D02*
Y39175D01*
X7175Y16600D02*
Y32400D01*
X8425Y17475D02*
Y31000D01*
X6012Y19200D02*
Y28900D01*
X6000Y28550D02*
X6012Y28900D01*
X15825Y30375D02*
X17150Y31700D01*
Y33250D01*
X16375Y34025D02*
Y37825D01*
X35175Y9075D02*
X36450Y10350D01*
X35150Y9075D02*
X35175D01*
X36450Y10350D02*
Y26175D01*
X40500Y18800D02*
Y22775D01*
X39725Y23550D02*
X40500Y22775D01*
X32775Y8800D02*
X35450Y11475D01*
Y11475D02*
Y16100D01*
X32525Y8800D02*
X32775D01*
X35275Y16275D02*
X35450Y16100D01*
X29912Y8787D02*
X34250Y13125D01*
X29725Y8787D02*
X29912D01*
X34250Y13125D02*
Y14850D01*
X32630Y15307D02*
Y16430D01*
X33225Y17025D02*
X34975Y18775D01*
X32630Y16430D02*
X33225Y17025D01*
X14250Y27325D02*
X18075Y31150D01*
X27500Y8925D02*
X32687Y14112D01*
X27500Y2100D02*
Y8925D01*
X32687Y14112D02*
Y15250D01*
X32630Y15307D02*
X32687Y15250D01*
X34975Y18775D02*
Y24025D01*
X25125Y9650D02*
Y14475D01*
Y9650D02*
X25700Y9075D01*
X18137Y34937D02*
X20370D01*
X37700Y21300D02*
Y36175D01*
X44100Y18700D02*
Y36775D01*
X43900Y36975D02*
X44100Y36775D01*
X43625Y44700D02*
X44232Y45306D01*
X43625Y42375D02*
X43900Y42100D01*
Y36975D02*
Y42100D01*
X45187Y39416D02*
Y42637D01*
X45603Y42803D02*
X48138Y45338D01*
X45331Y42781D02*
X45353Y42803D01*
X48138Y45338D02*
Y45382D01*
X45353Y42803D02*
X45603D01*
X19100Y42050D02*
X21306D01*
X44100Y18700D02*
X44450Y18350D01*
Y12850D02*
Y18350D01*
X21306Y42050D02*
X21318Y42063D01*
X43625Y42375D02*
Y44700D01*
X44232Y45306D02*
X45538D01*
D26*
X4189Y34433D02*
D03*
D27*
X1689D02*
D03*
D28*
X2800Y47200D02*
D03*
Y52200D02*
D03*
Y57200D02*
D03*
D29*
X47500Y36225D02*
D03*
X26300Y58250D02*
D03*
X6525Y57175D02*
D03*
X9500Y57225D02*
D03*
X6525Y52175D02*
D03*
X9500Y52225D02*
D03*
D30*
X11575Y17617D02*
D03*
Y12617D02*
D03*
X22910Y34937D02*
D03*
X45280Y2100D02*
D03*
X42740D02*
D03*
X47727Y39416D02*
D03*
X45187D02*
D03*
X42647D02*
D03*
X47820Y2100D02*
D03*
X40200D02*
D03*
X37660D02*
D03*
X32580D02*
D03*
X30040D02*
D03*
X27500D02*
D03*
X24960D02*
D03*
X22420D02*
D03*
X19880D02*
D03*
X17340D02*
D03*
X14800D02*
D03*
X12260D02*
D03*
X9720D02*
D03*
X7180D02*
D03*
X4640D02*
D03*
X35120D02*
D03*
D31*
X20370Y34937D02*
D03*
X37567Y39416D02*
D03*
X2100Y2100D02*
D03*
D32*
X9758Y27363D02*
D03*
Y24388D02*
D03*
D33*
X12258Y27363D02*
D03*
Y24388D02*
D03*
D34*
X19100Y42050D02*
D03*
X46100Y15625D02*
D03*
D35*
X13675Y50200D02*
D03*
X28100Y34125D02*
D03*
X27475Y48525D02*
D03*
X25625Y47275D02*
D03*
X32625Y31425D02*
D03*
X29900Y35800D02*
D03*
X35000Y33400D02*
D03*
X15050Y56175D02*
D03*
X19425Y53875D02*
D03*
X22125Y56400D02*
D03*
X29110Y56760D02*
D03*
X13790Y55110D02*
D03*
X37285Y53800D02*
D03*
X47275Y53875D02*
D03*
X48725Y14475D02*
D03*
X47600Y7575D02*
D03*
X18700Y12200D02*
D03*
X41450Y3875D02*
D03*
X35500Y40600D02*
D03*
X26279Y34196D02*
D03*
X42550Y32293D02*
D03*
X7175Y16950D02*
D03*
X7225Y32450D02*
D03*
X14125Y32500D02*
D03*
X14325Y40825D02*
D03*
X7145Y24445D02*
D03*
X9125Y11225D02*
D03*
X8450Y31025D02*
D03*
X15900Y32450D02*
D03*
X15650Y39575D02*
D03*
X38800Y22300D02*
D03*
X6050Y19125D02*
D03*
X6000Y28800D02*
D03*
X15525Y30375D02*
D03*
X17000Y38450D02*
D03*
X39025Y19975D02*
D03*
X16400Y34000D02*
D03*
X18075Y37150D02*
D03*
X42250Y36700D02*
D03*
X36450Y26175D02*
D03*
X35150Y9075D02*
D03*
X36400Y17575D02*
D03*
X40250Y18550D02*
D03*
X32525Y8800D02*
D03*
X35275Y16275D02*
D03*
X29725Y8787D02*
D03*
X34250Y14850D02*
D03*
X34975Y24025D02*
D03*
X32687Y15250D02*
D03*
X14250Y24075D02*
D03*
X25700Y9075D02*
D03*
X25125Y14475D02*
D03*
X22500Y22975D02*
D03*
X23700Y22025D02*
D03*
X26600Y28350D02*
D03*
X6150Y41225D02*
D03*
X36125Y30700D02*
D03*
X30575Y16500D02*
D03*
X16050Y10050D02*
D03*
X40850Y7100D02*
D03*
X12200Y4575D02*
D03*
X2200Y5025D02*
D03*
X2100Y10000D02*
D03*
X13250Y14500D02*
D03*
X13700Y19575D02*
D03*
X1975Y32300D02*
D03*
X7500Y39250D02*
D03*
X7525Y35000D02*
D03*
X38525Y37550D02*
D03*
X37475Y36400D02*
D03*
X44450Y18350D02*
D03*
X43625Y42700D02*
D03*
X13450Y22400D02*
D03*
X2000Y37100D02*
D03*
X1675Y41900D02*
D03*
X40500Y45575D02*
D03*
X21500Y9600D02*
D03*
X24750Y41725D02*
D03*
X41268Y28975D02*
D03*
X42100Y34575D02*
D03*
X40925Y40600D02*
D03*
X43300Y48125D02*
D03*
X33300Y45575D02*
D03*
X21300Y46775D02*
D03*
X13800Y28950D02*
D03*
X9900Y18625D02*
D03*
X47450Y17800D02*
D03*
D36*
X44248Y5373D02*
D03*
X42348D02*
D03*
X43298Y7573D02*
D03*
D37*
X28350Y55975D02*
X29550Y57175D01*
X21200Y57225D02*
X22450Y55975D01*
X15000Y56225D02*
Y57250D01*
X29110Y56735D02*
Y56760D01*
X47275Y53875D02*
Y53900D01*
X15000Y57225D02*
X21200D01*
X9500Y57225D02*
X14975D01*
X15000Y56225D02*
X15050Y56175D01*
X29900Y34125D02*
Y35800D01*
X32600Y31450D02*
X32625Y31425D01*
X32575Y31450D02*
X32600D01*
X29900Y34125D02*
X32575Y31450D01*
X14988Y57237D02*
X15000Y57250D01*
X13750Y54650D02*
Y55150D01*
X14600Y53800D02*
X37285D01*
X19425Y53875D02*
Y53925D01*
X13750Y55150D02*
X13790Y55110D01*
X13750Y54650D02*
X14600Y53800D01*
X14975Y57225D02*
X14988Y57237D01*
X44000Y57175D02*
X47275Y53900D01*
X29550Y57175D02*
X44000D01*
X22450Y55975D02*
X28350D01*
X2850Y29875D02*
X4189Y31214D01*
X2850Y13700D02*
Y29875D01*
Y13700D02*
X3425Y13125D01*
Y5650D02*
Y13125D01*
Y5650D02*
X4640Y4435D01*
X2800Y57200D02*
X6475D01*
X9500Y57225D02*
X9500Y57225D01*
X6500Y57225D02*
X9500D01*
X6475Y57200D02*
X6500Y57225D01*
X4640Y2100D02*
Y4435D01*
X4189Y39439D02*
X6150Y41225D01*
X4189Y31214D02*
Y39439D01*
M02*
