%FSLAX43Y43*%
%MOMM*%
G71*
G01*
G75*
G04 Layer_Physical_Order=1*
%ADD10C,0.300*%
%ADD11R,0.600X1.700*%
%ADD12R,1.600X1.800*%
%ADD13R,1.800X1.600*%
%ADD14R,1.450X0.550*%
%ADD15R,1.450X0.550*%
%ADD16O,2.000X1.000*%
%ADD17R,2.000X1.000*%
%ADD18R,0.600X2.150*%
%ADD19R,0.600X2.150*%
%ADD20R,0.600X2.200*%
%ADD21R,0.600X2.200*%
%ADD22R,0.600X1.700*%
%ADD23C,0.125*%
%ADD24C,0.500*%
%ADD25C,0.400*%
%ADD26R,1.400X1.400*%
%ADD27C,1.400*%
%ADD28C,4.000*%
%ADD29C,2.000*%
%ADD30C,1.500*%
%ADD31R,1.500X1.500*%
%ADD32R,1.300X1.300*%
%ADD33C,1.300*%
%ADD34C,1.270*%
%ADD35C,1.200*%
D10*
X5910Y2689D02*
G03*
X3500Y2913I-1270J-589D01*
G01*
X3538Y13787D02*
G03*
X3787Y13186I850J0D01*
G01*
X3538Y13787D02*
G03*
X3787Y13186I850J0D01*
G01*
X6174Y3074D02*
G03*
X5910Y2689I1006J-974D01*
G01*
X4321Y5212D02*
G03*
X4567Y4681I847J69D01*
G01*
X4321Y5212D02*
G03*
X4567Y4681I847J69D01*
G01*
X13530Y2689D02*
G03*
X12044Y3483I-1270J-589D01*
G01*
X10329Y10888D02*
G03*
X10375Y11225I-1204J337D01*
G01*
G03*
X8618Y12368I-1250J0D01*
G01*
X10725Y13730D02*
G03*
X10725Y11505I850J-1112D01*
G01*
X12425Y11505D02*
G03*
X12975Y12617I-850J1112D01*
G01*
G03*
X12425Y13730I-1400J0D01*
G01*
X8411Y16762D02*
G03*
X8425Y16950I-1236J188D01*
G01*
X6836Y18153D02*
G03*
X7300Y19125I-786J972D01*
G01*
X8425Y16950D02*
G03*
X6836Y18153I-1250J0D01*
G01*
X7300Y19125D02*
G03*
X5855Y20360I-1250J0D01*
G01*
X6228Y23595D02*
G03*
X8395Y24445I917J850D01*
G01*
X10974Y16095D02*
G03*
X10725Y15494I601J-601D01*
G01*
X10974Y16095D02*
G03*
X10725Y15494I601J-601D01*
G01*
X10643Y18662D02*
G03*
X11159Y16280I932J-1045D01*
G01*
X12912Y18033D02*
G03*
X12343Y18788I-1337J-416D01*
G01*
X11058Y23888D02*
G03*
X13164Y23456I1200J500D01*
G01*
X13950Y3212D02*
G03*
X13530Y2689I850J-1112D01*
G01*
X14056Y12389D02*
G03*
X13807Y11787I601J-601D01*
G01*
X14056Y12389D02*
G03*
X13807Y11787I601J-601D01*
G01*
X19682Y12974D02*
G03*
X19550Y13117I-982J-774D01*
G01*
X26230Y2689D02*
G03*
X26093Y2922I-1270J-589D01*
G01*
X28770Y2689D02*
G03*
X26230Y2689I-1270J-589D01*
G01*
X26793Y8469D02*
G03*
X26950Y9075I-1093J606D01*
G01*
G03*
X26412Y10103I-1250J0D01*
G01*
X29772Y10036D02*
G03*
X28518Y9112I-47J-1249D01*
G01*
X13164Y23456D02*
G03*
X15139Y23196I1086J619D01*
G01*
X23715Y20775D02*
G03*
X24950Y22025I-15J1250D01*
G01*
X23714Y23275D02*
G03*
X21251Y22922I-1214J-300D01*
G01*
X24950Y22025D02*
G03*
X23714Y23275I-1250J0D01*
G01*
X5880Y27556D02*
G03*
X7250Y28800I120J1244D01*
G01*
X8395Y24445D02*
G03*
X6228Y25295I-1250J0D01*
G01*
X5273Y31850D02*
G03*
X4776Y31690I0J-850D01*
G01*
X5273Y31850D02*
G03*
X4776Y31690I0J-850D01*
G01*
X12631Y25633D02*
G03*
X11058Y24888I-373J-1245D01*
G01*
Y26863D02*
G03*
X13242Y26513I1200J500D01*
G01*
X9025Y28975D02*
G03*
X9626Y29224I0J850D01*
G01*
X9025Y28975D02*
G03*
X9626Y29224I0J850D01*
G01*
X13242Y28213D02*
G03*
X11058Y27863I-984J-850D01*
G01*
X800Y33417D02*
G03*
X2839Y33726I889J1016D01*
G01*
Y35140D02*
G03*
X800Y35450I-1150J-707D01*
G01*
X8142Y33300D02*
G03*
X6128Y31850I-917J-850D01*
G01*
X6069Y42472D02*
G03*
X4903Y41306I81J-1247D01*
G01*
X6117Y39975D02*
G03*
X7399Y41175I33J1250D01*
G01*
X6532Y42875D02*
G03*
X6307Y42711I412J-800D01*
G01*
X6532Y42875D02*
G03*
X6308Y42711I412J-800D01*
G01*
X13575Y26225D02*
G03*
X12974Y25976I0J-850D01*
G01*
X13575Y26225D02*
G03*
X12974Y25976I0J-850D01*
G01*
X15438Y26513D02*
G03*
X16039Y26762I0J850D01*
G01*
X15438Y26513D02*
G03*
X16039Y26762I0J850D01*
G01*
X16275Y29050D02*
G03*
X15674Y28801I0J-850D01*
G01*
X16275Y29050D02*
G03*
X15674Y28801I0J-850D01*
G01*
X17819Y29021D02*
G03*
X17600Y29050I-219J-821D01*
G01*
X17819Y29021D02*
G03*
X17600Y29050I-219J-821D01*
G01*
X26734Y29593D02*
G03*
X27849Y28304I-134J-1243D01*
G01*
X14544Y29600D02*
G03*
X16775Y30375I981J775D01*
G01*
G03*
X16373Y31293I-1250J0D01*
G01*
G03*
X17150Y32450I-473J1157D01*
G01*
G03*
X17053Y32934I-1250J0D01*
G01*
G03*
X17220Y33057I-653J1066D01*
G01*
G03*
X17324Y32930I705J475D01*
G01*
X17220Y33057D02*
G03*
X17324Y32930I705J475D01*
G01*
X22383Y47175D02*
G03*
X22320Y46845I837J-330D01*
G01*
X22383Y47175D02*
G03*
X22320Y46845I837J-330D01*
G01*
X26661Y46575D02*
G03*
X26871Y47175I-1036J700D01*
G01*
X29190Y3212D02*
G03*
X28770Y2689I850J-1112D01*
G01*
X36390D02*
G03*
X35970Y3212I-1270J-589D01*
G01*
X37110Y3388D02*
G03*
X36390Y2689I550J-1288D01*
G01*
X38930D02*
G03*
X38210Y3388I-1270J-589D01*
G01*
X31237Y11266D02*
G03*
X30893Y11133I126J-841D01*
G01*
X31237Y11266D02*
G03*
X30893Y11133I126J-841D01*
G01*
X31363Y11275D02*
G03*
X31237Y11266I0J-850D01*
G01*
X31363Y11275D02*
G03*
X31237Y11266I0J-850D01*
G01*
X36400Y9087D02*
G03*
X36296Y9575I-1250J-12D01*
G01*
X39650Y3388D02*
G03*
X38930Y2689I550J-1288D01*
G01*
X39907Y3469D02*
G03*
X39650Y3388I293J-1369D01*
G01*
X40258Y3499D02*
G03*
X39907Y3469I-58J-1399D01*
G01*
X42641Y3497D02*
G03*
X42700Y3875I-1191J378D01*
G01*
G03*
X40258Y3499I-1250J0D01*
G01*
X29876Y16543D02*
G03*
X30125Y17144I-601J601D01*
G01*
X29876Y16543D02*
G03*
X30125Y17144I-601J601D01*
G01*
X31831Y16161D02*
G03*
X31837Y14333I856J-911D01*
G01*
X35336Y14232D02*
G03*
X35500Y14850I-1086J618D01*
G01*
G03*
X35485Y15043I-1250J0D01*
G01*
G03*
X36192Y15425I-210J1232D01*
G01*
X41009Y17557D02*
G03*
X41500Y18550I-759J993D01*
G01*
G03*
X41241Y19312I-1250J0D01*
G01*
X44010Y2689D02*
G03*
X42641Y3497I-1270J-589D01*
G01*
X46550Y2689D02*
G03*
X44010Y2689I-1270J-589D01*
G01*
X49200Y2336D02*
G03*
X46550Y2689I-1380J-236D01*
G01*
X46490Y8150D02*
G03*
X46507Y6968I1110J-575D01*
G01*
X48340Y800D02*
G03*
X49200Y1864I-520J1300D01*
G01*
X48693Y6968D02*
G03*
X48850Y7575I-1093J607D01*
G01*
G03*
X48710Y8150I-1250J0D01*
G01*
X48180Y13350D02*
G03*
X49200Y13319I545J1125D01*
G01*
X43277Y18782D02*
G03*
X45700Y18350I1173J-432D01*
G01*
G03*
X45623Y18782I-1250J0D01*
G01*
X49200Y15631D02*
G03*
X48805Y15722I-475J-1156D01*
G01*
X35163Y33143D02*
G03*
X34562Y32894I0J-850D01*
G01*
X35163Y33143D02*
G03*
X34562Y32894I0J-850D01*
G01*
X34175Y33879D02*
G03*
X34625Y33750I450J721D01*
G01*
X35624Y33399D02*
G03*
X36225Y33150I601J601D01*
G01*
X34175Y33879D02*
G03*
X34625Y33750I450J721D01*
G01*
X35624Y33399D02*
G03*
X36225Y33150I601J601D01*
G01*
X39775Y37550D02*
G03*
X38967Y38719I-1250J0D01*
G01*
X39768Y37420D02*
G03*
X39775Y37550I-1243J130D01*
G01*
X42138Y31113D02*
G03*
X43062Y31153I412J1180D01*
G01*
Y33434D02*
G03*
X42138Y33473I-512J-1140D01*
G01*
X41375Y38832D02*
G03*
X40949Y38601I175J-832D01*
G01*
X41375Y38832D02*
G03*
X40949Y38601I175J-832D01*
G01*
X41575Y35648D02*
G03*
X43500Y36700I675J1052D01*
G01*
X43917Y40005D02*
G03*
X41375Y38832I-1270J-589D01*
G01*
X43500Y36700D02*
G03*
X43416Y37150I-1250J0D01*
G01*
X42289Y41175D02*
G03*
X42500Y41150I211J875D01*
G01*
X42975D02*
G03*
X43612Y41414I0J900D01*
G01*
X42975Y41150D02*
G03*
X43611Y41414I0J900D01*
G01*
X36785Y46065D02*
G03*
X36785Y43765I0J-1150D01*
G01*
X35672Y47175D02*
G03*
X36785Y46315I1113J290D01*
G01*
X37785Y43765D02*
G03*
X38935Y44915I0J1150D01*
G01*
X42725Y43567D02*
G03*
X42406Y42975I900J-867D01*
G01*
X38935Y44915D02*
G03*
X37785Y46065I-1150J0D01*
G01*
Y46315D02*
G03*
X38898Y47175I0J1150D01*
G01*
X42989Y46711D02*
G03*
X42725Y46075I636J-636D01*
G01*
X42989Y46712D02*
G03*
X42725Y46075I636J-637D01*
G01*
X44625Y37150D02*
G03*
X45226Y37399I0J850D01*
G01*
X44625Y37150D02*
G03*
X45226Y37399I0J850D01*
G01*
X45763Y37936D02*
G03*
X45962Y38250I-601J601D01*
G01*
X45763Y37936D02*
G03*
X45962Y38250I-601J601D01*
G01*
X49150Y36225D02*
G03*
X49150Y36225I-1650J0D01*
G01*
X45962Y38250D02*
G03*
X46457Y38826I-775J1166D01*
G01*
G03*
X49127Y39416I1270J589D01*
G01*
X43648Y41450D02*
G03*
X44875Y42700I-23J1250D01*
G01*
G03*
X44525Y43567I-1250J0D01*
G01*
X46457Y40005D02*
G03*
X43917Y40005I-1270J-589D01*
G01*
X45015Y48365D02*
G03*
X44378Y48101I0J-900D01*
G01*
X45015Y48365D02*
G03*
X44379Y48101I0J-900D01*
G01*
X46069Y46565D02*
G03*
X46785Y46315I716J900D01*
G01*
Y48615D02*
G03*
X46069Y48365I0J-1150D01*
G01*
X46027Y49125D02*
G03*
X46785Y48840I758J865D01*
G01*
X49127Y39416D02*
G03*
X46457Y40005I-1400J0D01*
G01*
X47785Y46315D02*
G03*
X48935Y47465I0J1150D01*
G01*
G03*
X47785Y48615I-1150J0D01*
G01*
Y48840D02*
G03*
X48543Y49125I0J1150D01*
G01*
X15337Y14748D02*
X14277Y15809D01*
X15196Y16728D01*
X16257Y15667D01*
X15337Y14748D01*
Y15102D02*
X14630Y15809D01*
X15196Y16374D01*
X15903Y15667D01*
X15337Y15102D01*
Y15455D02*
X14984Y15809D01*
X15196Y16021D01*
X15550Y15667D01*
X15337Y15455D01*
X15267Y15720D02*
Y15756D01*
X17317Y16728D02*
X16257Y17789D01*
X17176Y18708D01*
X18237Y17647D01*
X17317Y16728D01*
Y17082D02*
X16610Y17789D01*
X17176Y18354D01*
X17883Y17647D01*
X17317Y17082D01*
Y17435D02*
X16964Y17789D01*
X17176Y18001D01*
X17529Y17647D01*
X17317Y17435D01*
X17247Y17700D02*
Y17736D01*
X800Y3500D02*
X3500D01*
X800Y5300D02*
X3618D01*
X800Y5400D02*
X3618D01*
X800Y5500D02*
X3618D01*
X800Y5600D02*
X3618D01*
X800Y5700D02*
X3618D01*
X800Y5800D02*
X3618D01*
X800Y5900D02*
X3618D01*
X800Y6000D02*
X3618D01*
X3500Y2913D02*
Y3500D01*
X800Y6100D02*
X3618D01*
Y5212D02*
Y8112D01*
X800Y6200D02*
X3618D01*
X800Y6300D02*
X3618D01*
X800Y6400D02*
X3618D01*
X800Y6500D02*
X3618D01*
X800Y6600D02*
X3618D01*
X800Y3500D02*
Y14394D01*
X900Y3500D02*
Y14394D01*
X1000Y3500D02*
Y14394D01*
X1100Y3500D02*
Y14394D01*
X1200Y3500D02*
Y14394D01*
X1300Y3500D02*
Y14394D01*
X1400Y3500D02*
Y14394D01*
X1500Y3500D02*
Y14394D01*
X1600Y3500D02*
Y14394D01*
X1700Y3500D02*
Y14394D01*
X1800Y3500D02*
Y14394D01*
X3600Y3037D02*
Y13468D01*
X1900Y3500D02*
Y14394D01*
X2000Y3500D02*
Y14394D01*
X2100Y3500D02*
Y14394D01*
X2200Y3500D02*
Y14394D01*
X2300Y3500D02*
Y14394D01*
X2400Y3500D02*
Y14394D01*
X2500Y3500D02*
Y14394D01*
X800Y3800D02*
X5448D01*
X800Y3900D02*
X5348D01*
X800Y3600D02*
X5648D01*
X800Y3700D02*
X5548D01*
X800Y4300D02*
X4948D01*
X800Y4400D02*
X4848D01*
X800Y4000D02*
X5248D01*
X800Y4100D02*
X5148D01*
X800Y4200D02*
X5048D01*
X3500Y3100D02*
X3660D01*
X3500Y3200D02*
X3774D01*
X3500Y3300D02*
X3919D01*
X3500Y3400D02*
X4120D01*
X800Y4700D02*
X4549D01*
X3500Y3500D02*
X4625D01*
X800Y4500D02*
X4748D01*
X800Y4600D02*
X4648D01*
X800Y5000D02*
X4366D01*
X800Y5100D02*
X4338D01*
X800Y4800D02*
X4468D01*
X800Y4900D02*
X4409D01*
X800Y6700D02*
X3618D01*
X800Y6800D02*
X3618D01*
X800Y5200D02*
X4322D01*
X800Y6900D02*
X3618D01*
X800Y7000D02*
X3618D01*
X3700Y3137D02*
Y5212D01*
X800Y7100D02*
X3618D01*
X3800Y3220D02*
Y5212D01*
X3618D02*
X4321D01*
X3900Y3288D02*
Y5212D01*
X800Y7200D02*
X3618D01*
X800Y7300D02*
X3618D01*
X800Y7400D02*
X3618D01*
X800Y7500D02*
X3618D01*
X800Y7600D02*
X3618D01*
X800Y7700D02*
X3618D01*
X800Y7800D02*
X3618D01*
X800Y7900D02*
X3618D01*
X800Y8000D02*
X3618D01*
X800Y8100D02*
X3618D01*
X800Y8200D02*
X3618D01*
X800Y8300D02*
X3618D01*
X800Y8400D02*
X3618D01*
X800Y8500D02*
X3618D01*
X800Y8600D02*
X3618D01*
X800Y8700D02*
X3618D01*
X800Y8800D02*
X3618D01*
X800Y8900D02*
X3618D01*
X800Y9000D02*
X3618D01*
X800Y9100D02*
X3618D01*
X800Y9200D02*
X3618D01*
X800Y9300D02*
X3618D01*
X800Y9400D02*
X3618D01*
X800Y9500D02*
X3618D01*
X800Y9600D02*
X3618D01*
X800Y9700D02*
X3618D01*
X800Y9800D02*
X3618D01*
X800Y9900D02*
X3618D01*
X800Y10000D02*
X3618D01*
X800Y10100D02*
X3618D01*
X800Y10200D02*
X3618D01*
X800Y10300D02*
X3618D01*
X800Y13700D02*
X3542D01*
X800Y13800D02*
X3538D01*
X800Y10400D02*
X3618D01*
X800Y10500D02*
X3618D01*
Y8112D02*
Y10912D01*
X800Y13900D02*
X3538D01*
X800Y14000D02*
X3538D01*
X800Y14100D02*
X3538D01*
X800Y14200D02*
X3538D01*
X800Y14300D02*
X3538D01*
X800Y10600D02*
X3618D01*
X800Y10700D02*
X3618D01*
X800Y10800D02*
X3618D01*
X800Y10900D02*
X3618D01*
X800Y11000D02*
X4318D01*
X800Y11100D02*
X4318D01*
X800Y11200D02*
X4318D01*
X800Y11300D02*
X4318D01*
X800Y11400D02*
X4318D01*
X3618Y10912D02*
X4318D01*
X800Y11500D02*
X4318D01*
X800Y11600D02*
X4318D01*
X800Y11700D02*
X4318D01*
X800Y11800D02*
X4318D01*
X800Y11900D02*
X4318D01*
X800Y12000D02*
X4318D01*
X800Y12100D02*
X4318D01*
X800Y12200D02*
X4318D01*
X800Y12300D02*
X4318D01*
X800Y12400D02*
X4318D01*
X800Y12500D02*
X4318D01*
X800Y12600D02*
X4318D01*
X800Y13000D02*
X3973D01*
X800Y13100D02*
X3873D01*
X800Y12700D02*
X4273D01*
X800Y12800D02*
X4173D01*
X800Y12900D02*
X4073D01*
X3800Y10912D02*
Y13173D01*
X3700Y10912D02*
Y13288D01*
X800Y13200D02*
X3773D01*
X3787Y13186D02*
X4318Y12655D01*
X800Y13400D02*
X3631D01*
X800Y13500D02*
X3588D01*
X800Y13300D02*
X3691D01*
X800Y13600D02*
X3559D01*
X5600Y3119D02*
Y3648D01*
X5500Y3205D02*
Y3748D01*
X5620Y3100D02*
X6148D01*
X5506Y3200D02*
X6048D01*
X5400Y3276D02*
Y3848D01*
X5300Y3335D02*
Y3948D01*
X5361Y3300D02*
X5948D01*
X4655Y3500D02*
X5748D01*
X5160Y3400D02*
X5848D01*
X5852Y2800D02*
X5968D01*
X5900Y2710D02*
Y3348D01*
X6000Y2853D02*
Y3248D01*
X5800Y2884D02*
Y3448D01*
X5700Y3015D02*
Y3548D01*
X5789Y2900D02*
X6031D01*
X5712Y3000D02*
X6108D01*
X6100Y2991D02*
Y3148D01*
X4000Y3345D02*
Y5212D01*
X4100Y3392D02*
Y5212D01*
X4200Y3429D02*
Y5212D01*
X4300Y3458D02*
Y5212D01*
X4500Y3493D02*
Y4757D01*
X4400Y3479D02*
Y4918D01*
X4600Y3499D02*
Y4648D01*
X4800Y3491D02*
Y4448D01*
X4700Y3499D02*
Y4548D01*
X5200Y3383D02*
Y4048D01*
X4567Y4681D02*
X6174Y3074D01*
X5100Y3422D02*
Y4148D01*
X5000Y3453D02*
Y4248D01*
X4900Y3476D02*
Y4348D01*
X10900Y4627D02*
Y5188D01*
X11000Y4527D02*
Y5188D01*
X11100Y4427D02*
Y5188D01*
X11300Y4227D02*
Y5188D01*
X11400Y4127D02*
Y5188D01*
X11327Y4200D02*
X13107D01*
X11227Y4300D02*
X13107D01*
X11127Y4400D02*
X13107D01*
X11200Y4327D02*
Y5188D01*
X11027Y4500D02*
X13107D01*
X10827Y4700D02*
X13107D01*
X10927Y4600D02*
X13107D01*
X13300Y3037D02*
Y3838D01*
X13400Y2913D02*
Y3838D01*
X13500Y2750D02*
Y3838D01*
X12027Y3500D02*
X12245D01*
X11627Y3900D02*
X13107D01*
X13200Y3138D02*
Y3838D01*
X11427Y4100D02*
X13107D01*
X11527Y4000D02*
X13107D01*
X12000Y3527D02*
Y5188D01*
X10339D02*
X12044Y3483D01*
X12100Y3491D02*
Y5188D01*
X12200Y3499D02*
Y5188D01*
X11500Y4027D02*
Y5188D01*
X11600Y3927D02*
Y5188D01*
X11700Y3827D02*
Y5188D01*
X11800Y3727D02*
Y5188D01*
X11900Y3627D02*
Y5188D01*
X12700Y3429D02*
Y5188D01*
X12800Y3392D02*
Y5188D01*
X12900Y3345D02*
Y5188D01*
X13000Y3289D02*
Y5188D01*
X13100Y3220D02*
Y5188D01*
X12300Y3499D02*
Y5188D01*
X12400Y3493D02*
Y5188D01*
X12500Y3479D02*
Y5188D01*
X12600Y3458D02*
Y5188D01*
X13107Y3838D02*
Y5188D01*
X10068Y5459D02*
X10339Y5188D01*
X10200Y11863D02*
Y12355D01*
X10235Y11800D02*
X10439D01*
X10177Y11900D02*
X10373D01*
X10018Y12100D02*
X10274D01*
X9552Y12400D02*
X10192D01*
X10106Y12000D02*
X10319D01*
X9763Y12300D02*
X10212D01*
X9907Y12200D02*
X10239D01*
X10400Y10888D02*
Y11856D01*
X10500Y5027D02*
Y5188D01*
X10600Y4927D02*
Y5188D01*
X10500Y10888D02*
Y11721D01*
X10300Y11652D02*
Y12040D01*
X10600Y10888D02*
Y11613D01*
X10317Y11600D02*
X10613D01*
X10281Y11700D02*
X10518D01*
X4000Y10912D02*
Y12973D01*
X3900Y10912D02*
Y13073D01*
X4200Y10912D02*
Y12773D01*
X4100Y10912D02*
Y12873D01*
X4300Y10912D02*
Y12673D01*
X4318Y10912D02*
Y12655D01*
X8618Y12500D02*
X10180D01*
X8618Y12600D02*
X10175D01*
X8618Y12700D02*
X10178D01*
X8618Y12368D02*
Y13862D01*
Y12800D02*
X10187D01*
X8618Y12900D02*
X10204D01*
X8618Y13000D02*
X10229D01*
X8618Y13100D02*
X10261D01*
X8618Y13200D02*
X10302D01*
X8618Y13300D02*
X10353D01*
X8618Y13400D02*
X10414D01*
X8618Y13500D02*
X10489D01*
X10329Y10888D02*
X10725D01*
X10332Y10900D02*
X10725D01*
X10427Y5100D02*
X13107D01*
X10339Y5188D02*
X13107D01*
X10355Y11000D02*
X10725D01*
X10369Y11100D02*
X10725D01*
X10375Y11200D02*
X10725D01*
X10373Y11300D02*
X10725D01*
X10363Y11400D02*
X10725D01*
X10700Y4827D02*
Y5188D01*
X10800Y4727D02*
Y5188D01*
X10727Y4800D02*
X13107D01*
X10627Y4900D02*
X13107D01*
X10700Y10888D02*
Y11525D01*
X10527Y5000D02*
X13107D01*
X12425Y10888D02*
X13132D01*
Y9538D02*
Y10888D01*
X8618Y13600D02*
X10578D01*
X8618Y13700D02*
X10688D01*
X8618Y13800D02*
X10725D01*
X8618Y13900D02*
X10725D01*
X8618Y14000D02*
X10725D01*
X8618Y14100D02*
X10725D01*
X8618Y14200D02*
X10725D01*
X8618Y14300D02*
X10725D01*
Y10888D02*
Y11505D01*
X12425Y10888D02*
Y11505D01*
X12500Y10888D02*
Y11566D01*
X12600Y10888D02*
Y11663D01*
X12700Y10888D02*
Y11784D01*
X10344Y11500D02*
X10725D01*
X12800Y10888D02*
Y11939D01*
X12900Y10888D02*
Y12164D01*
X2600Y3500D02*
Y14394D01*
X2700Y3500D02*
Y14394D01*
X2800Y3500D02*
Y14394D01*
X2900Y3500D02*
Y14394D01*
X800D02*
X2955D01*
X3100Y3500D02*
Y14394D01*
X3055D02*
X3538D01*
X3200Y3500D02*
Y14394D01*
X3300Y3500D02*
Y14394D01*
X3400Y3500D02*
Y14394D01*
X3500Y3500D02*
Y14394D01*
X3538Y13787D02*
Y14394D01*
X6891Y18200D02*
X7159D01*
X8411Y16762D02*
X8618D01*
X8341Y17400D02*
X10192D01*
X8298Y17500D02*
X10180D01*
X7000Y18188D02*
Y18312D01*
X7500Y18157D02*
Y19393D01*
X7100Y18198D02*
Y18447D01*
X7200Y18200D02*
Y18635D01*
X7300Y18194D02*
Y19110D01*
X7400Y18180D02*
Y19393D01*
X8100Y17791D02*
Y19393D01*
X8200Y17666D02*
Y19393D01*
X8300Y17495D02*
Y19393D01*
X8400Y17199D02*
Y19393D01*
X8500Y16762D02*
Y19393D01*
X7600Y18126D02*
Y19393D01*
X7700Y18084D02*
Y19393D01*
X7800Y18033D02*
Y19393D01*
X7900Y17968D02*
Y19393D01*
X8000Y17889D02*
Y19393D01*
X8618Y14400D02*
X10725D01*
X8618Y14500D02*
X10725D01*
X8618Y14600D02*
X10725D01*
X8618Y14700D02*
X10725D01*
X8416Y16800D02*
X10439D01*
X8424Y16900D02*
X10373D01*
X8618Y14800D02*
X10725D01*
X8618Y14900D02*
X10725D01*
X8618Y15000D02*
X10725D01*
X8618Y15100D02*
X10725D01*
X8618Y15200D02*
X10725D01*
X8618Y15300D02*
X10725D01*
X8618Y15400D02*
X10725D01*
X8618Y15500D02*
X10725D01*
X8618Y15600D02*
X10732D01*
X8618Y15700D02*
X10750D01*
X8618Y15800D02*
X10782D01*
X8618Y15900D02*
X10828D01*
X7191Y18200D02*
X10302D01*
X6989Y18300D02*
X10353D01*
X7068Y18400D02*
X10414D01*
X7132Y18500D02*
X10489D01*
X7184Y18600D02*
X10578D01*
X7225Y18700D02*
X10643D01*
X7257Y18800D02*
X10643D01*
X7280Y18900D02*
X10643D01*
X7294Y19000D02*
X10643D01*
X8416Y17100D02*
X10274D01*
X8243Y17600D02*
X10175D01*
X8424Y17000D02*
X10319D01*
X8400Y17200D02*
X10239D01*
X8375Y17300D02*
X10212D01*
X8175Y17700D02*
X10178D01*
X8092Y17800D02*
X10187D01*
X7988Y17900D02*
X10204D01*
X7665Y18100D02*
X10261D01*
X7853Y18000D02*
X10229D01*
X5855Y20400D02*
X7313D01*
X5855Y20360D02*
Y23164D01*
Y20500D02*
X7313D01*
X5855Y20600D02*
X7313D01*
X5855Y20700D02*
X7313D01*
X5855Y20800D02*
X7313D01*
X5855Y20900D02*
X7313D01*
X5855Y21000D02*
X7313D01*
X5855Y21100D02*
X7313D01*
X7206Y19600D02*
X7313D01*
Y19393D02*
Y22493D01*
X7160Y19700D02*
X7313D01*
X7102Y19800D02*
X7313D01*
X7031Y19900D02*
X7313D01*
X6943Y20000D02*
X7313D01*
X6832Y20100D02*
X7313D01*
X6477Y20300D02*
X7313D01*
X6688Y20200D02*
X7313D01*
X5900Y20366D02*
Y23595D01*
X6000Y20374D02*
Y23595D01*
X6100Y20374D02*
Y23595D01*
X6200Y20366D02*
Y23595D01*
X5838Y22895D02*
Y23164D01*
Y23595D01*
Y23200D02*
X7035D01*
X5838Y23300D02*
X6644D01*
X6300Y20350D02*
Y23524D01*
X6900Y20042D02*
Y23219D01*
X7000Y19938D02*
Y23203D01*
X7100Y19803D02*
Y23196D01*
X7200Y19615D02*
Y23196D01*
X7300Y19140D02*
Y23205D01*
X6400Y20325D02*
Y23441D01*
X6500Y20291D02*
Y23374D01*
X6700Y20193D02*
Y23277D01*
X6600Y20248D02*
Y23320D01*
X6800Y20125D02*
Y23244D01*
X5855Y21200D02*
X7313D01*
X5855Y21300D02*
X7313D01*
X5855Y21400D02*
X7313D01*
X5855Y21500D02*
X7313D01*
X5855Y21600D02*
X7313D01*
X5855Y21700D02*
X7313D01*
X5855Y21800D02*
X7313D01*
X5855Y21900D02*
X7313D01*
X5855Y22000D02*
X7313D01*
X7300Y19100D02*
X10643D01*
X7313Y19393D02*
X10113D01*
X7298Y19200D02*
X10643D01*
X7288Y19300D02*
X10643D01*
X5855Y22100D02*
X7313D01*
X5855Y22200D02*
X7313D01*
X5855Y22300D02*
X7313D01*
X5855Y22400D02*
X7313D01*
X7400Y22493D02*
Y23221D01*
X7500Y22493D02*
Y23246D01*
X7313Y22493D02*
X10213D01*
X7600D02*
Y23281D01*
X5855Y23100D02*
X8458D01*
X7700Y22493D02*
Y23325D01*
X7255Y23200D02*
X8458D01*
X7646Y23300D02*
X8458D01*
X7800Y22493D02*
Y23380D01*
X7900Y22493D02*
Y23449D01*
X8000Y22493D02*
Y23533D01*
X8100Y22493D02*
Y23638D01*
X8200Y22493D02*
Y23774D01*
X8300Y22493D02*
Y23967D01*
X8400Y22493D02*
Y28975D01*
X8500Y22493D02*
Y23088D01*
X8458D02*
X11058D01*
X8458D02*
Y25688D01*
X8618Y13862D02*
Y16762D01*
X10200Y12879D02*
Y17355D01*
X8618Y16000D02*
X10892D01*
X10300Y13195D02*
Y17040D01*
X8618Y16700D02*
X10518D01*
X8600Y16762D02*
Y19393D01*
X8618Y16400D02*
X10884D01*
X8618Y16500D02*
X10732D01*
X8618Y16600D02*
X10613D01*
X10500Y13514D02*
Y16721D01*
X10400Y13378D02*
Y16856D01*
X10725Y13730D02*
Y15494D01*
X10600Y13622D02*
Y16613D01*
X10800Y15843D02*
Y16451D01*
X10700Y13710D02*
Y16525D01*
X10900Y16011D02*
Y16391D01*
X8700Y12401D02*
Y19393D01*
X8800Y12432D02*
Y19393D01*
X8900Y12455D02*
Y19393D01*
X9500Y12417D02*
Y19393D01*
X9000Y12469D02*
Y19393D01*
X9100Y12475D02*
Y19393D01*
X9200Y12473D02*
Y19393D01*
X9300Y12463D02*
Y19393D01*
X9400Y12444D02*
Y19393D01*
X9700Y12335D02*
Y19393D01*
X9800Y12277D02*
Y19393D01*
X9900Y12206D02*
Y19393D01*
X10000Y12118D02*
Y19393D01*
X10100Y12007D02*
Y19393D01*
X9600Y12381D02*
Y19393D01*
X10200Y17879D02*
Y19393D01*
X10300Y18195D02*
Y19393D01*
X10400Y18378D02*
Y19393D01*
X10500Y18514D02*
Y19393D01*
X12600Y13571D02*
Y15317D01*
X12700Y13451D02*
Y15417D01*
X12800Y13296D02*
Y15517D01*
X12900Y13070D02*
Y15617D01*
X12425Y13730D02*
Y15142D01*
X8618Y16100D02*
X10979D01*
X12500Y13668D02*
Y15217D01*
X12783Y15500D02*
X13454D01*
X12883Y15600D02*
X13354D01*
X13300Y9538D02*
Y15654D01*
X13200Y9538D02*
Y15754D01*
X13500Y9538D02*
Y15454D01*
X13400Y9538D02*
Y15554D01*
X13000Y10888D02*
Y15717D01*
X13100Y10888D02*
Y15817D01*
X12983Y15700D02*
X13254D01*
X13200Y15754D02*
Y15863D01*
X13300Y15654D02*
Y15963D01*
X8618Y16200D02*
X11079D01*
X11000Y16121D02*
Y16341D01*
X10974Y16095D02*
X11159Y16280D01*
X8618Y16300D02*
X11101D01*
X12600Y18571D02*
Y19393D01*
X12736Y18400D02*
X13279D01*
X12662Y18500D02*
X13379D01*
X12900Y18070D02*
Y19393D01*
X13000Y18121D02*
Y19393D01*
X13400Y15554D02*
Y16063D01*
X12848Y18200D02*
X13079D01*
X13100Y18221D02*
Y20112D01*
X12700Y18451D02*
Y19393D01*
X12800Y18296D02*
Y19393D01*
X12797Y18300D02*
X13179D01*
X13200Y18321D02*
Y20112D01*
X13300Y18421D02*
Y20112D01*
X8600Y22493D02*
Y23088D01*
X8700Y22493D02*
Y23088D01*
X8800Y22493D02*
Y23088D01*
X8900Y22493D02*
Y23088D01*
X9000Y22493D02*
Y23088D01*
X9100Y22493D02*
Y23088D01*
X9200Y22493D02*
Y23088D01*
X10600Y18622D02*
Y19393D01*
X9300Y22493D02*
Y23088D01*
X10643Y18662D02*
Y19393D01*
X10113D02*
X10643D01*
X9400Y22493D02*
Y23088D01*
X9500Y22493D02*
Y23088D01*
X9600Y22493D02*
Y23088D01*
X9700Y22493D02*
Y23088D01*
X9800Y22493D02*
Y23088D01*
X9900Y22493D02*
Y23088D01*
X10000Y22493D02*
Y23088D01*
X10100Y22493D02*
Y23088D01*
X10200Y22493D02*
Y23088D01*
X10300Y22493D02*
Y23088D01*
X10400Y22493D02*
Y23088D01*
X10500Y22493D02*
Y23088D01*
X10600Y22493D02*
Y23088D01*
X10700Y22493D02*
Y23088D01*
X10800Y22493D02*
Y23088D01*
X10900Y22493D02*
Y23088D01*
X11000Y22493D02*
Y23088D01*
X11100Y22493D02*
Y23798D01*
X11200Y22493D02*
Y23633D01*
X11058Y23088D02*
Y23888D01*
X11500Y22493D02*
Y23332D01*
X11300Y22493D02*
Y23510D01*
X11400Y22493D02*
Y23412D01*
X12343Y18788D02*
Y19393D01*
X12400Y18749D02*
Y19393D01*
X12343D02*
X13013D01*
X10213Y22493D02*
X13013D01*
X12100D02*
Y23098D01*
X11058Y23100D02*
X12084D01*
X12200Y22493D02*
Y23090D01*
X12300Y22493D02*
Y23089D01*
X12400Y22493D02*
Y23096D01*
X12500Y18668D02*
Y19393D01*
X13400Y18521D02*
Y20112D01*
X12572Y18600D02*
X13479D01*
X13500Y18621D02*
Y20112D01*
X13013Y19393D02*
Y20112D01*
X12500Y22493D02*
Y23111D01*
X13013Y21812D02*
Y22493D01*
X12432Y23100D02*
X13468D01*
X13500Y21812D02*
Y23075D01*
X11600Y22493D02*
Y23267D01*
X11700Y22493D02*
Y23214D01*
X11800Y22493D02*
Y23172D01*
X11900Y22493D02*
Y23138D01*
X11058Y23200D02*
X11731D01*
X11058Y23300D02*
X11547D01*
X12000Y22493D02*
Y23114D01*
X12600Y22493D02*
Y23134D01*
X12700Y22493D02*
Y23166D01*
X13100Y21812D02*
Y23398D01*
X13400Y21812D02*
Y23159D01*
X13200Y21812D02*
Y23397D01*
X13300Y21812D02*
Y23263D01*
X12800Y22493D02*
Y23207D01*
X12900Y22493D02*
Y23258D01*
X12785Y23200D02*
X13357D01*
X13000Y22493D02*
Y23321D01*
X12969Y23300D02*
X13269D01*
X13240Y3100D02*
X13820D01*
X13126Y3200D02*
X13934D01*
X12981Y3300D02*
X13950D01*
X12780Y3400D02*
X13950D01*
X12275Y3500D02*
X13950D01*
X11927Y3600D02*
X13950D01*
X11827Y3700D02*
X13950D01*
X11727Y3800D02*
X13950D01*
X13107Y3838D02*
X13950D01*
X13472Y2800D02*
X13588D01*
X13600Y2821D02*
Y3838D01*
X13409Y2900D02*
X13651D01*
X13332Y3000D02*
X13728D01*
X13700Y2966D02*
Y3838D01*
X13800Y3080D02*
Y3838D01*
X13900Y3172D02*
Y3838D01*
X13950Y3212D02*
Y3838D01*
X13132Y9538D02*
X13807D01*
X13132Y9600D02*
X13807D01*
X13132Y9700D02*
X13807D01*
X13132Y9800D02*
X13807D01*
X13132Y9900D02*
X13807D01*
X13132Y10000D02*
X13807D01*
X13132Y10100D02*
X13807D01*
X13132Y10200D02*
X13807D01*
X13132Y10300D02*
X13807D01*
X15507Y9538D02*
Y11435D01*
X13807Y9538D02*
Y11787D01*
X15507Y9538D02*
X15707D01*
X15600D02*
Y11529D01*
X15700Y9538D02*
Y11629D01*
X13132Y10400D02*
X13807D01*
X13132Y10500D02*
X13807D01*
X15800Y9538D02*
Y11729D01*
X15900Y9538D02*
Y11829D01*
X16000Y9538D02*
Y11929D01*
X15707Y9538D02*
X16207D01*
X15707D02*
X16207D01*
X20500Y5002D02*
X20572Y4930D01*
Y6218D01*
X16207Y9538D02*
X16407D01*
X15507Y9600D02*
X16407D01*
X15507Y9700D02*
X16407D01*
X15507Y9800D02*
X16407D01*
X15507Y9900D02*
X16407D01*
X20572Y6318D02*
Y9118D01*
X22370D01*
X20500Y9200D02*
X22452D01*
X20500Y9300D02*
X22552D01*
X20500Y9400D02*
X22652D01*
X20500Y9500D02*
X22752D01*
X20500Y9600D02*
X22852D01*
X20500Y9700D02*
X22952D01*
X20500Y9800D02*
X23052D01*
X16100Y9538D02*
Y12029D01*
X16200Y9538D02*
Y12129D01*
X15507Y10000D02*
X16407D01*
X16300Y9538D02*
Y12229D01*
X15507Y10100D02*
X16407D01*
X15507Y10200D02*
X16407D01*
X15507Y10300D02*
X16407D01*
X15507Y10400D02*
X16407D01*
X15507Y10500D02*
X16407D01*
X20500Y5002D02*
Y10050D01*
X20600Y9118D02*
Y10072D01*
X20700Y9118D02*
Y10072D01*
X20800Y9118D02*
Y10072D01*
X20900Y9118D02*
Y10072D01*
X16407Y9538D02*
Y12335D01*
X16400Y9538D02*
Y12329D01*
X20500Y9900D02*
X23082D01*
X20500Y10000D02*
X23082D01*
X20500Y10072D02*
X22482D01*
X12425Y10900D02*
X13807D01*
X12425Y11000D02*
X13807D01*
X12425Y11100D02*
X13807D01*
X12425Y11200D02*
X13807D01*
X12425Y11300D02*
X13807D01*
X12425Y11400D02*
X13807D01*
X12425Y11500D02*
X13807D01*
X12537Y11600D02*
X13807D01*
X12633Y11700D02*
X13807D01*
X13132Y10600D02*
X13807D01*
X13132Y10700D02*
X13807D01*
X13132Y10800D02*
X13807D01*
X12712Y11800D02*
X13807D01*
X12777Y11900D02*
X13814D01*
X12832Y12000D02*
X13834D01*
X12876Y12100D02*
X13866D01*
X12912Y12200D02*
X13913D01*
X12939Y12300D02*
X13978D01*
X12958Y12400D02*
X14067D01*
X12922Y13000D02*
X14667D01*
X12889Y13100D02*
X14767D01*
X12848Y13200D02*
X14867D01*
X12425Y14000D02*
X14954D01*
X12425Y14100D02*
X14854D01*
X12797Y13300D02*
X14967D01*
X12425Y13900D02*
X15054D01*
X12736Y13400D02*
X15067D01*
X12970Y12500D02*
X14167D01*
X12975Y12600D02*
X14267D01*
X12973Y12700D02*
X14367D01*
X12963Y12800D02*
X14467D01*
X12946Y12900D02*
X14567D01*
X15100Y13433D02*
Y13854D01*
X14900Y13233D02*
Y14054D01*
X15000Y13333D02*
Y13954D01*
X15507Y10600D02*
X16407D01*
X15507Y10700D02*
X16407D01*
X15507Y10800D02*
X16407D01*
X15507Y10900D02*
X16407D01*
X15507Y11000D02*
X16407D01*
X15507Y11100D02*
X16407D01*
X15507Y11200D02*
X16407D01*
X15507Y11300D02*
X16407D01*
X15507Y11400D02*
X16407D01*
X15571Y11500D02*
X16407D01*
X15507Y11435D02*
X16407Y12335D01*
X15671Y11600D02*
X16407D01*
X15771Y11700D02*
X16407D01*
X15871Y11800D02*
X16407D01*
X15971Y11900D02*
X16407D01*
X16071Y12000D02*
X16407D01*
X16171Y12100D02*
X16407D01*
X16271Y12200D02*
X16407D01*
X14056Y12389D02*
X15311Y13644D01*
X19568Y13100D02*
X19682D01*
X19550Y13200D02*
X19713D01*
X12662Y13500D02*
X15167D01*
X15200Y13533D02*
Y13754D01*
X12572Y13600D02*
X15267D01*
X12463Y13700D02*
X15254D01*
X12425Y13800D02*
X15154D01*
X19682Y12974D02*
Y13172D01*
X19713Y12933D02*
Y13172D01*
X19550Y13300D02*
X19713D01*
X19550Y13400D02*
X19713D01*
X19550Y13500D02*
X19713D01*
X19550Y13600D02*
X19713D01*
X19550Y13700D02*
X19713D01*
X19550Y13800D02*
X19713D01*
X19550Y13900D02*
X19713D01*
X19550Y14000D02*
X19713D01*
X26093Y2922D02*
Y3387D01*
X26100Y2913D02*
Y3387D01*
X26109Y2900D02*
X26351D01*
X26093Y3000D02*
X26428D01*
X26093Y3100D02*
X26520D01*
X26093Y3200D02*
X26634D01*
X26093Y3300D02*
X26779D01*
X26093Y3387D02*
X26793D01*
X26172Y2800D02*
X26288D01*
X26200Y2750D02*
Y3387D01*
X26300Y2821D02*
Y3387D01*
X26400Y2966D02*
Y3387D01*
X26500Y3080D02*
Y3387D01*
X26600Y3172D02*
Y3387D01*
X26700Y3249D02*
Y3387D01*
X26793Y3400D02*
X26980D01*
X26793Y3500D02*
X27485D01*
X26793Y3387D02*
Y6187D01*
X26800Y3312D02*
Y8481D01*
X26900Y3365D02*
Y8725D01*
X27000Y3408D02*
Y10103D01*
X26793Y6187D02*
Y8469D01*
X27100Y3442D02*
Y10103D01*
X26793Y3600D02*
X28193D01*
X26793Y3700D02*
X28193D01*
X27200Y3467D02*
Y10103D01*
X27300Y3486D02*
Y10103D01*
X27400Y3496D02*
Y10103D01*
X27515Y3500D02*
X28193D01*
X28100Y3365D02*
Y10103D01*
X28193Y3412D02*
Y6312D01*
X27500Y3500D02*
Y10103D01*
X27600Y3496D02*
Y10103D01*
X27700Y3486D02*
Y10103D01*
X27800Y3468D02*
Y10103D01*
X27900Y3442D02*
Y10103D01*
X26793Y3800D02*
X28193D01*
X26793Y3900D02*
X28193D01*
X26793Y4000D02*
X28193D01*
X26793Y4100D02*
X28193D01*
X26793Y4200D02*
X28193D01*
X26793Y4300D02*
X28193D01*
X26793Y4400D02*
X28193D01*
X26793Y4500D02*
X28193D01*
X28300Y3249D02*
Y3412D01*
X28400Y3172D02*
Y3412D01*
X28480Y3100D02*
X29060D01*
X28500Y3080D02*
Y3412D01*
X28366Y3200D02*
X29174D01*
X26793Y4600D02*
X28193D01*
X28221Y3300D02*
X29190D01*
X28020Y3400D02*
X29190D01*
X28193Y3412D02*
X29190D01*
X26793Y4700D02*
X28193D01*
X26793Y4800D02*
X28193D01*
X26793Y4900D02*
X28193D01*
X26793Y5000D02*
X28193D01*
X26793Y5100D02*
X28193D01*
X26793Y5200D02*
X28193D01*
X26793Y5300D02*
X28193D01*
X26793Y5400D02*
X28193D01*
X26793Y5500D02*
X28193D01*
X26793Y5600D02*
X28193D01*
X26793Y5700D02*
X28193D01*
X26793Y5800D02*
X28193D01*
X26793Y5900D02*
X28193D01*
X26793Y6000D02*
X28193D01*
X26793Y6100D02*
X28193D01*
X26793Y6200D02*
X28193D01*
X26793Y6300D02*
X28193D01*
X26793Y6400D02*
X28193D01*
Y6312D02*
Y9112D01*
X21000Y9118D02*
Y10072D01*
X21100Y9118D02*
Y10072D01*
X21200Y9118D02*
Y10072D01*
X21300Y9118D02*
Y10072D01*
X21400Y9118D02*
Y10072D01*
X21500Y9118D02*
Y10072D01*
X21600Y9118D02*
Y10072D01*
X21700Y9118D02*
Y10072D01*
X21800Y9118D02*
Y10072D01*
X26793Y6500D02*
X28193D01*
X26793Y6600D02*
X28193D01*
X26793Y6700D02*
X28193D01*
X26793Y6800D02*
X28193D01*
X22370Y9118D02*
X23082Y9830D01*
X21900Y9118D02*
Y10072D01*
X26793Y6900D02*
X28193D01*
X26793Y7000D02*
X28193D01*
X22000Y9118D02*
Y10072D01*
X22100Y9118D02*
Y10072D01*
X22200Y9118D02*
Y10072D01*
X22300Y9118D02*
Y10072D01*
X22400Y9148D02*
Y10072D01*
X22600Y9348D02*
Y10072D01*
X22582D02*
X23082D01*
X22700Y9448D02*
Y10072D01*
X22800Y9548D02*
Y10072D01*
X22900Y9648D02*
Y10072D01*
X26800Y9669D02*
Y10103D01*
X26900Y9425D02*
Y10103D01*
X23000Y9748D02*
Y10072D01*
X23082Y9830D02*
Y10072D01*
X26600Y9943D02*
Y10103D01*
X26412D02*
X27993D01*
X26700Y9825D02*
Y10103D01*
X26793Y7100D02*
X28193D01*
X26793Y7200D02*
X28193D01*
X26793Y7300D02*
X28193D01*
X26793Y7400D02*
X28193D01*
X26793Y7500D02*
X28193D01*
X26793Y7600D02*
X28193D01*
X26793Y7700D02*
X28193D01*
X26793Y7800D02*
X28193D01*
X26793Y7900D02*
X28193D01*
X26793Y8000D02*
X28193D01*
X26793Y8100D02*
X28193D01*
X26793Y8200D02*
X28193D01*
X26793Y8300D02*
X28193D01*
X26793Y8400D02*
X28193D01*
X26810Y8500D02*
X28193D01*
X26856Y8600D02*
X28193D01*
X26892Y8700D02*
X28193D01*
X26919Y8800D02*
X28193D01*
X26938Y8900D02*
X28193D01*
X26948Y9000D02*
X28193D01*
X26907Y9400D02*
X28636D01*
X26876Y9500D02*
X28698D01*
X26834Y9600D02*
X28776D01*
X26783Y9700D02*
X28871D01*
X26718Y9800D02*
X28993D01*
X26541Y10000D02*
X29424D01*
X26639Y9900D02*
X29156D01*
X26950Y9100D02*
X28193D01*
X28200Y9112D02*
Y10103D01*
X28193Y9112D02*
X28518D01*
X28300D02*
Y10103D01*
X28400Y9112D02*
Y10103D01*
X26944Y9200D02*
X28545D01*
X28500Y9112D02*
Y10103D01*
X26930Y9300D02*
X28585D01*
X28093Y10103D02*
X29839D01*
X12425Y14700D02*
X14254D01*
X12425Y14800D02*
X14154D01*
X12425Y14500D02*
X14454D01*
X12425Y14600D02*
X14354D01*
X12483Y15200D02*
X13754D01*
X12583Y15300D02*
X13654D01*
X12425Y14900D02*
X14054D01*
X12425Y15000D02*
X13954D01*
X12425Y15100D02*
X13854D01*
X13700Y9538D02*
Y15254D01*
X13600Y9538D02*
Y15354D01*
X13900Y12175D02*
Y15054D01*
X13800Y9538D02*
Y15154D01*
X14100Y12433D02*
Y14854D01*
X14000Y12327D02*
Y14954D01*
X14400Y12733D02*
Y14554D01*
X14200Y12533D02*
Y14754D01*
X14300Y12633D02*
Y14654D01*
X12683Y15400D02*
X13554D01*
X12463Y18700D02*
X13579D01*
X12343Y18800D02*
X13679D01*
X12343Y18900D02*
X13779D01*
X12343Y19000D02*
X13879D01*
X12343Y19100D02*
X13979D01*
X12343Y19200D02*
X14079D01*
X12343Y19300D02*
X14179D01*
X13013Y19400D02*
X14279D01*
X13600Y18721D02*
Y20112D01*
X13700Y18821D02*
Y20112D01*
X13800Y18921D02*
Y20112D01*
X13900Y19021D02*
Y20112D01*
X14000Y19121D02*
Y20112D01*
X14100Y19221D02*
Y20112D01*
X14200Y19321D02*
Y20112D01*
X13013Y19500D02*
X14379D01*
X14300Y19421D02*
Y20112D01*
X14400Y19521D02*
Y20112D01*
X12425Y14300D02*
X14654D01*
X12425Y14400D02*
X14554D01*
X12425Y14200D02*
X14754D01*
X13145Y15809D02*
X15311Y13644D01*
X13013Y19600D02*
X14479D01*
X13013Y19700D02*
X14579D01*
X13145Y15809D02*
X15125Y17789D01*
X14600Y12933D02*
Y14354D01*
X14500Y12833D02*
Y14454D01*
X14800Y13133D02*
Y14154D01*
X14700Y13033D02*
Y14254D01*
X16937Y19600D02*
X17415D01*
X17037Y19700D02*
X17315D01*
X17515Y19500D02*
X17702D01*
X17315Y19700D02*
X17902D01*
X17415Y19600D02*
X17802D01*
X15196Y17859D02*
X17176Y19839D01*
X12912Y18033D02*
X14991Y20112D01*
X17176Y19839D02*
X17609Y19406D01*
X12425Y15142D02*
X18465Y21182D01*
X14500Y19621D02*
Y20112D01*
X14600Y19721D02*
Y20112D01*
X13013Y19800D02*
X14679D01*
X14700Y19821D02*
Y20112D01*
X17215Y19800D02*
X18002D01*
X17400Y19615D02*
Y20117D01*
X17500Y19515D02*
Y20217D01*
X17600Y19415D02*
Y20317D01*
X17609Y19406D02*
X18925Y20723D01*
X17700Y19498D02*
Y20417D01*
X17200Y19815D02*
Y19917D01*
X17300Y19715D02*
Y20017D01*
X17800Y19598D02*
Y20517D01*
X17900Y19698D02*
Y20617D01*
X18000Y19798D02*
Y20717D01*
X13013Y19900D02*
X14779D01*
X13013Y20000D02*
X14879D01*
X13013Y20112D02*
X14991D01*
X13013Y20100D02*
X14979D01*
X13013Y21812D02*
X15560D01*
X5855Y22900D02*
X13824D01*
X13013Y21900D02*
X15647D01*
X13013Y22000D02*
X15747D01*
X13013Y22100D02*
X15847D01*
X14000Y21812D02*
Y22850D01*
X13800Y21812D02*
Y22909D01*
X14800Y19921D02*
Y20112D01*
X14100Y21812D02*
Y22834D01*
X14200Y21812D02*
Y22826D01*
X14300Y21812D02*
Y22826D01*
X13013Y22200D02*
X15947D01*
X14400Y21812D02*
Y22834D01*
X14500Y21812D02*
Y22850D01*
X13600Y21812D02*
Y23007D01*
X13700Y21812D02*
Y22953D01*
X13900Y21812D02*
Y22875D01*
X14600Y21812D02*
Y22875D01*
X14700Y21812D02*
Y22909D01*
X5855Y23000D02*
X13612D01*
X14800Y21812D02*
Y22952D01*
X14900Y21812D02*
Y23007D01*
X15000Y21812D02*
Y23075D01*
X15100Y21812D02*
Y23158D01*
X15200Y21812D02*
Y23196D01*
X15300Y21812D02*
Y23196D01*
X15400Y21812D02*
Y23196D01*
X15500Y21812D02*
Y23196D01*
X15600Y21852D02*
Y23196D01*
X15700Y21952D02*
Y23196D01*
X15800Y22052D02*
Y23196D01*
X15900Y22152D02*
Y23196D01*
X17183Y19900D02*
X18102D01*
X17283Y20000D02*
X18202D01*
X17383Y20100D02*
X18302D01*
X17483Y20200D02*
X18402D01*
X17583Y20300D02*
X18502D01*
X17683Y20400D02*
X18602D01*
X17783Y20500D02*
X18702D01*
X17883Y20600D02*
X18802D01*
X17983Y20700D02*
X18902D01*
X18100Y19898D02*
Y20817D01*
X18200Y19998D02*
Y20917D01*
X18300Y20098D02*
Y21017D01*
X18400Y20198D02*
Y21117D01*
X18383Y21100D02*
X18548D01*
X18500Y20298D02*
Y21148D01*
X18083Y20800D02*
X18848D01*
X18183Y20900D02*
X18748D01*
X18283Y21000D02*
X18648D01*
X13013Y22300D02*
X16047D01*
X13013Y22400D02*
X16147D01*
X5855Y22500D02*
X16247D01*
X5855Y22600D02*
X16347D01*
X5855Y22700D02*
X16447D01*
X5855Y22800D02*
X16547D01*
X14676Y22900D02*
X16647D01*
X14888Y23000D02*
X16648D01*
X15032Y23100D02*
X16548D01*
X16000Y22252D02*
Y23196D01*
X16100Y22352D02*
Y23196D01*
X15560Y21812D02*
X16698Y22950D01*
X16200Y22452D02*
Y23196D01*
X16300Y22552D02*
Y23196D01*
X16400Y22652D02*
Y23196D01*
X15139D02*
X16452D01*
X16600Y22852D02*
Y23048D01*
X16500Y22752D02*
Y23148D01*
X16452Y23196D02*
X16662Y22985D01*
X19600Y13068D02*
Y14448D01*
X19550Y13117D02*
Y14398D01*
Y14100D02*
X19713D01*
Y13172D02*
Y14561D01*
X19550Y14200D02*
X19713D01*
X19550Y14300D02*
X19713D01*
X19552Y14400D02*
X19713D01*
X19550Y14398D02*
X19713Y14561D01*
X21145Y15993D02*
X21816D01*
X21177Y16025D02*
X21838D01*
X24723Y19450D02*
X24900Y19273D01*
X23557Y20617D02*
X24158Y20016D01*
X23557Y20617D02*
X24158Y20016D01*
X24158Y20016D02*
X24723Y19450D01*
X24016Y20157D02*
X24158Y20016D01*
X24158Y20016D02*
X24723Y19450D01*
X23800Y20373D02*
Y20779D01*
X18600Y20398D02*
Y21048D01*
X23900Y20273D02*
Y20791D01*
X24000Y20173D02*
Y20811D01*
X18800Y20598D02*
Y20848D01*
X18700Y20498D02*
Y20948D01*
X23700Y20473D02*
Y20760D01*
X18465Y21182D02*
X18925Y20723D01*
X23557Y20617D02*
X23715Y20775D01*
X24600Y19573D02*
Y21157D01*
X24700Y19473D02*
Y21275D01*
X24800Y19373D02*
Y21431D01*
X24900Y19273D02*
Y21674D01*
X25000Y19373D02*
Y31477D01*
X24100Y20073D02*
Y20841D01*
X24200Y19973D02*
Y20879D01*
X24300Y19873D02*
Y20928D01*
X24400Y19773D02*
Y20989D01*
X24500Y19673D02*
Y21064D01*
X24273Y19900D02*
X25527D01*
X24173Y20000D02*
X25627D01*
X24073Y20100D02*
X25727D01*
X23973Y20200D02*
X25827D01*
X23873Y20300D02*
X25927D01*
X23773Y20400D02*
X26027D01*
X23673Y20500D02*
X26127D01*
X23573Y20600D02*
X26227D01*
X23640Y20700D02*
X26327D01*
X24773Y19400D02*
X25027D01*
X24673Y19500D02*
X25127D01*
X24900Y19273D02*
X25642Y20016D01*
X25077Y19450D02*
X25642Y20016D01*
X24573Y19600D02*
X25227D01*
X24473Y19700D02*
X25327D01*
X24373Y19800D02*
X25427D01*
X25642Y20016D02*
X25784Y20157D01*
X25642Y20016D02*
X25784Y20157D01*
X25200Y19573D02*
Y31277D01*
X25100Y19473D02*
Y31377D01*
X25400Y19773D02*
Y28001D01*
X25300Y19673D02*
Y31177D01*
X25500Y19873D02*
Y27757D01*
X23949Y20800D02*
X26427D01*
X24245Y20900D02*
X26527D01*
X25642Y20016D02*
X26915Y21288D01*
X25700Y20073D02*
Y27483D01*
X25600Y19973D02*
Y27600D01*
X26000Y20373D02*
Y27254D01*
X25800Y20173D02*
Y27390D01*
X25900Y20273D02*
Y27315D01*
X26200Y20573D02*
Y27166D01*
X26100Y20473D02*
Y27204D01*
X26500Y20873D02*
Y27104D01*
X26300Y20673D02*
Y27137D01*
X26400Y20773D02*
Y27116D01*
X24415Y21000D02*
X26627D01*
X24541Y21100D02*
X26727D01*
X24639Y21200D02*
X26827D01*
X24718Y21300D02*
X26927D01*
X21073Y23100D02*
X21256D01*
X20056Y24117D02*
X21251Y22922D01*
X20973Y23200D02*
X21270D01*
X26600Y20973D02*
Y27100D01*
X26700Y21073D02*
Y27104D01*
X26774Y21147D02*
X26915Y21288D01*
X26774Y21147D02*
X26915Y21288D01*
X24783Y21400D02*
X27027D01*
X24834Y21500D02*
X27127D01*
X24876Y21600D02*
X27227D01*
X24907Y21700D02*
X27327D01*
X26915Y21288D02*
X27340Y21713D01*
X21100Y23073D02*
Y27777D01*
X21200Y22973D02*
Y27877D01*
X24300Y23122D02*
Y30977D01*
X24400Y23061D02*
Y31077D01*
X20900Y23273D02*
Y27577D01*
X21000Y23173D02*
Y27677D01*
X24000Y23238D02*
Y30677D01*
X24100Y23209D02*
Y30777D01*
X24200Y23171D02*
Y30877D01*
X26800Y21173D02*
Y27116D01*
X26900Y21273D02*
Y27136D01*
X27000Y21373D02*
Y27166D01*
X27100Y21473D02*
Y27204D01*
X27200Y21573D02*
Y27253D01*
X24500Y22985D02*
Y31177D01*
X24600Y22892D02*
Y31277D01*
X24700Y22775D02*
Y31377D01*
X24800Y22619D02*
Y31477D01*
X24900Y22375D02*
Y31577D01*
X24930Y21800D02*
X27427D01*
X24944Y21900D02*
X27527D01*
X24950Y22000D02*
X27627D01*
X24892Y22400D02*
X28027D01*
X24856Y22500D02*
X28127D01*
X24810Y22600D02*
X28227D01*
X24752Y22700D02*
X28327D01*
X24593Y22900D02*
X28527D01*
X24681Y22800D02*
X28427D01*
X27340Y21713D02*
X27481Y21854D01*
X24948Y22100D02*
X27727D01*
X26915Y21288D02*
X27905Y22278D01*
X27340Y21713D02*
X27905Y22278D01*
X24938Y22200D02*
X27827D01*
X24919Y22300D02*
X27927D01*
X27905Y22278D02*
X28047Y22420D01*
X27905Y22278D02*
X28047Y22420D01*
X27905Y22278D02*
X28047Y22420D01*
X27300Y21673D02*
Y27314D01*
X27400Y21773D02*
Y27389D01*
X27500Y21873D02*
Y27482D01*
X27600Y21973D02*
Y27600D01*
X27700Y22073D02*
Y27756D01*
X27800Y22173D02*
Y27999D01*
X24482Y23000D02*
X28627D01*
X24127Y23200D02*
X28827D01*
X24338Y23100D02*
X28727D01*
X27900Y22273D02*
Y28354D01*
X28000Y22373D02*
Y28454D01*
X28047Y22420D02*
X28612Y22985D01*
X28047Y22420D02*
X29037Y23410D01*
X28100Y22473D02*
Y28377D01*
X28300Y22673D02*
Y28177D01*
X28200Y22573D02*
Y28277D01*
X28471Y22844D02*
X28612Y22985D01*
X28400Y22773D02*
Y28077D01*
X28500Y22873D02*
Y27977D01*
X5838Y23595D02*
X6228D01*
X5838Y25295D02*
X6228D01*
X5838Y23400D02*
X6459D01*
X5838Y23500D02*
X6327D01*
X5838Y25300D02*
X6233D01*
X5838Y25295D02*
Y25759D01*
Y25400D02*
X6338D01*
X5838Y25500D02*
X6474D01*
X5838Y25600D02*
X6667D01*
X5900Y25295D02*
Y27554D01*
X6000Y25295D02*
Y27550D01*
X7831Y23400D02*
X8458D01*
X6100Y25295D02*
Y27554D01*
X5838Y25759D02*
Y25995D01*
X5880Y25759D02*
Y27556D01*
X6200Y25295D02*
Y27566D01*
X6300Y25366D02*
Y27587D01*
X6400Y25449D02*
Y27616D01*
X6500Y25516D02*
Y27654D01*
X6600Y25570D02*
Y27703D01*
X6700Y25613D02*
Y27764D01*
X6800Y25646D02*
Y27839D01*
X6900Y25671D02*
Y27932D01*
X7000Y25687D02*
Y28050D01*
X7100Y25694D02*
Y28206D01*
X7200Y25694D02*
Y28450D01*
X7700Y25565D02*
Y28975D01*
X7900Y25441D02*
Y28975D01*
X8000Y25357D02*
Y28975D01*
X8100Y25252D02*
Y28975D01*
X8200Y25116D02*
Y28975D01*
X7300Y25685D02*
Y28873D01*
X7400Y25669D02*
Y28973D01*
X7500Y25644D02*
Y28975D01*
X7600Y25609D02*
Y28975D01*
X7800Y25510D02*
Y28975D01*
X7623Y25600D02*
X8458D01*
X5838Y25700D02*
X12698D01*
X5880Y25800D02*
X12798D01*
X5880Y26100D02*
X8458D01*
X5880Y26200D02*
X8458D01*
X5880Y25900D02*
X12898D01*
X5880Y26000D02*
X12999D01*
X5880Y26300D02*
X8458D01*
X7963Y23500D02*
X8458D01*
X8066Y23600D02*
X8458D01*
X8149Y23700D02*
X8458D01*
X8216Y23800D02*
X8458D01*
X8210Y25100D02*
X8458D01*
X8141Y25200D02*
X8458D01*
X8057Y25300D02*
X8458D01*
X7816Y25500D02*
X8458D01*
X7952Y25400D02*
X8458D01*
X5880Y26400D02*
X8458D01*
X5880Y26500D02*
X8458D01*
X5880Y26600D02*
X8458D01*
X5880Y26700D02*
X8458D01*
X5880Y26800D02*
X8458D01*
X5880Y26900D02*
X8458D01*
X5880Y27000D02*
X8458D01*
X5880Y27100D02*
X8458D01*
X5880Y27200D02*
X8458D01*
X5880Y27300D02*
X8458D01*
X5880Y27400D02*
X8458D01*
X5880Y27500D02*
X8458D01*
X6350Y27600D02*
X8458D01*
X6593Y27700D02*
X8458D01*
X6750Y27800D02*
X8458D01*
X6867Y27900D02*
X8458D01*
X6960Y28000D02*
X8458D01*
X7036Y28100D02*
X8458D01*
X7097Y28200D02*
X8458D01*
X1500Y31690D02*
Y33096D01*
X1600Y31690D02*
Y33086D01*
X800Y31690D02*
X2963D01*
X1700D02*
Y33083D01*
X1800Y31690D02*
Y33088D01*
X2963Y31690D02*
X3063D01*
X2900D02*
Y33083D01*
X2963Y31690D02*
X3063D01*
X3000D02*
Y33083D01*
X3100Y31690D02*
Y33083D01*
X3200Y31690D02*
Y33083D01*
X3300Y31690D02*
Y33083D01*
X3400Y31690D02*
Y33083D01*
X3500Y31690D02*
Y33083D01*
X3600Y31690D02*
Y33083D01*
X3700Y31690D02*
Y33083D01*
X3800Y31690D02*
Y33083D01*
X1200Y31690D02*
Y33175D01*
X1100Y31690D02*
Y33218D01*
X1300Y31690D02*
Y33140D01*
X1400Y31690D02*
Y33114D01*
X800Y33100D02*
X1477D01*
X800Y33200D02*
X1140D01*
X1900Y31690D02*
Y33100D01*
X1900Y33100D02*
X2839D01*
X2000Y31690D02*
Y33120D01*
X2100Y31690D02*
Y33147D01*
X2200Y31690D02*
Y33184D01*
X3900Y31690D02*
Y33083D01*
X2300Y31690D02*
Y33230D01*
X4000Y31690D02*
Y33083D01*
X4100Y31690D02*
Y33083D01*
X4200Y31690D02*
Y33083D01*
X4300Y31690D02*
Y33083D01*
X4400Y31690D02*
Y33083D01*
X4500Y31690D02*
Y33083D01*
X800Y31700D02*
X4790D01*
X3063Y31690D02*
X4776D01*
X800Y31800D02*
X4985D01*
X800Y32100D02*
X6025D01*
X800Y32200D02*
X6000D01*
X800Y31900D02*
X6103D01*
X800Y32000D02*
X6059D01*
X800Y32300D02*
X5984D01*
X7146Y28300D02*
X8458D01*
X7184Y28400D02*
X8458D01*
X7213Y28500D02*
X8458D01*
X7234Y28600D02*
X8458D01*
X6000Y31850D02*
Y32202D01*
X7250Y28823D02*
X7402Y28975D01*
X5273Y31850D02*
X6128D01*
X7402Y28975D02*
X9025D01*
X800Y32400D02*
X5976D01*
X4600Y31690D02*
Y33083D01*
X800Y32500D02*
X5976D01*
X800Y32600D02*
X5984D01*
X800Y32700D02*
X6000D01*
X2839Y33083D02*
X5539D01*
X800Y32800D02*
X6025D01*
X800Y32900D02*
X6059D01*
X800Y33000D02*
X6102D01*
X4700Y31690D02*
Y33083D01*
X4800Y31706D02*
Y33083D01*
X4900Y31764D02*
Y33083D01*
X5000Y31805D02*
Y33083D01*
X5100Y31832D02*
Y33083D01*
X5200Y31847D02*
Y33083D01*
X5300Y31850D02*
Y33083D01*
X5400Y31850D02*
Y33083D01*
X5500Y31850D02*
Y33083D01*
X5539Y33100D02*
X6157D01*
X8270Y23900D02*
X8458D01*
X8313Y24000D02*
X8458D01*
X8346Y24100D02*
X8458D01*
X8344Y24800D02*
X8458D01*
X8309Y24900D02*
X8458D01*
X8265Y25000D02*
X8458D01*
X8500Y25688D02*
Y26063D01*
X8600Y25688D02*
Y26063D01*
X8700Y25688D02*
Y26063D01*
X8800Y25688D02*
Y26063D01*
X8900Y25688D02*
Y26063D01*
X9000Y25688D02*
Y26063D01*
X9100Y25688D02*
Y26063D01*
X9200Y25688D02*
Y26063D01*
X9300Y25688D02*
Y26063D01*
X9400Y25688D02*
Y26063D01*
X9500Y25688D02*
Y26063D01*
X8300Y24923D02*
Y28975D01*
X9600Y25688D02*
Y26063D01*
X9700Y25688D02*
Y26063D01*
X9800Y25688D02*
Y26063D01*
X8458D02*
Y28663D01*
X9900Y25688D02*
Y26063D01*
X10000Y25688D02*
Y26063D01*
X10100Y25688D02*
Y26063D01*
X10200Y25688D02*
Y26063D01*
X10300Y25688D02*
Y26063D01*
X10400Y25688D02*
Y26063D01*
X10500Y25688D02*
Y26063D01*
X10600Y25688D02*
Y26063D01*
X10700Y25688D02*
Y26063D01*
X10800Y25688D02*
Y26063D01*
X10900Y25688D02*
Y26063D01*
X11000Y25688D02*
Y26063D01*
X11058Y23600D02*
X11224D01*
X11058Y25100D02*
X11170D01*
X11058Y23400D02*
X11413D01*
X11058Y23500D02*
X11309D01*
X8458Y25688D02*
X11058D01*
X8458Y26063D02*
X11058D01*
Y25200D02*
X11243D01*
X11058Y25300D02*
X11331D01*
X11058Y25400D02*
X11442D01*
X11058Y25500D02*
X11584D01*
X11058Y24888D02*
Y25688D01*
Y25600D02*
X11787D01*
X11058Y26100D02*
X11951D01*
X12000Y25662D02*
Y26089D01*
X12631Y25633D02*
X12974Y25976D01*
X12100Y25679D02*
Y26073D01*
X12200Y25687D02*
Y26065D01*
X11200Y25143D02*
Y26608D01*
X11100Y24979D02*
Y26773D01*
X11400Y25365D02*
Y26387D01*
X11300Y25267D02*
Y26485D01*
X11500Y25444D02*
Y26307D01*
X11058Y26063D02*
Y26863D01*
X11700Y25562D02*
Y26189D01*
X11600Y25509D02*
Y26242D01*
X11800Y25605D02*
Y26147D01*
X11900Y25638D02*
Y26113D01*
X12300Y25688D02*
Y26064D01*
X12400Y25680D02*
Y26071D01*
X12600Y25642D02*
Y26109D01*
X12500Y25666D02*
Y26086D01*
X12700Y25702D02*
Y26141D01*
X12800Y25802D02*
Y26182D01*
X12900Y25902D02*
Y26233D01*
X13000Y26001D02*
Y26296D01*
X8500Y28663D02*
Y28975D01*
X8600Y28663D02*
Y28975D01*
X8458Y28663D02*
X11058D01*
X8700D02*
Y28975D01*
X8800Y28663D02*
Y28975D01*
X8900Y28663D02*
Y28975D01*
X9000Y28663D02*
Y28975D01*
X9100Y28663D02*
Y28978D01*
X11058Y27863D02*
Y28663D01*
Y26600D02*
X11206D01*
X11058Y28100D02*
X11187D01*
X9200Y28663D02*
Y28993D01*
X9300Y28663D02*
Y29021D01*
X9400Y28663D02*
Y29062D01*
X9500Y28663D02*
Y29120D01*
X9600Y28663D02*
Y29199D01*
X9700Y28663D02*
Y29298D01*
X9800Y28663D02*
Y29398D01*
X9900Y28663D02*
Y29498D01*
X10000Y28663D02*
Y29598D01*
X9626Y29224D02*
X10002Y29600D01*
X10100Y28663D02*
Y29600D01*
X10200Y28663D02*
Y29600D01*
X10300Y28663D02*
Y29600D01*
X10400Y28663D02*
Y29600D01*
X10500Y28663D02*
Y29600D01*
X11100Y27954D02*
Y29600D01*
X11200Y28118D02*
Y29600D01*
X10600Y28663D02*
Y29600D01*
X10700Y28663D02*
Y29600D01*
X10800Y28663D02*
Y29600D01*
X10900Y28663D02*
Y29600D01*
X11000Y28663D02*
Y29600D01*
X11058Y26400D02*
X11385D01*
X11058Y26500D02*
X11286D01*
X11058Y26200D02*
X11678D01*
X11058Y26300D02*
X11510D01*
X11058Y28200D02*
X11263D01*
X11058Y28300D02*
X11357D01*
X11058Y28400D02*
X11474D01*
X11058Y28500D02*
X11627D01*
X11058Y28600D02*
X11857D01*
X12565Y26100D02*
X13131D01*
X13100Y26080D02*
Y26373D01*
X12838Y26200D02*
X13370D01*
X13200Y26138D02*
Y26467D01*
X11300Y28242D02*
Y29600D01*
X11400Y28340D02*
Y29600D01*
X13300Y26179D02*
Y26513D01*
X13400Y26207D02*
Y26513D01*
X11500Y28419D02*
Y29600D01*
X11600Y28484D02*
Y29600D01*
X11700Y28537D02*
Y29600D01*
X11800Y28580D02*
Y29600D01*
X11900Y28613D02*
Y29600D01*
X12000Y28637D02*
Y29600D01*
X12100Y28654D02*
Y29600D01*
X12200Y28662D02*
Y29600D01*
X12300Y28663D02*
Y29600D01*
X12800Y28545D02*
Y29600D01*
X13000Y28431D02*
Y29600D01*
X13100Y28354D02*
Y29600D01*
X13200Y28259D02*
Y29600D01*
X13300Y28213D02*
Y29600D01*
X12400Y28655D02*
Y29600D01*
X12500Y28640D02*
Y29600D01*
X12600Y28617D02*
Y29600D01*
X12700Y28586D02*
Y29600D01*
X12900Y28494D02*
Y29600D01*
X900Y31690D02*
Y33338D01*
X800Y31690D02*
Y33417D01*
X1000Y31690D02*
Y33272D01*
X800Y33300D02*
X955D01*
X800Y35450D02*
Y37993D01*
Y35600D02*
X1009D01*
X800Y35700D02*
X1222D01*
X900Y35529D02*
Y37993D01*
X2400Y31690D02*
Y33286D01*
X2500Y31690D02*
Y33354D01*
X2600Y31690D02*
Y33437D01*
X2700Y31690D02*
Y33539D01*
X2238Y33200D02*
X2839D01*
X2800Y31690D02*
Y33667D01*
X2839Y33083D02*
Y33726D01*
X1000Y35594D02*
Y37993D01*
X1100Y35648D02*
Y37993D01*
X1200Y35692D02*
Y37993D01*
X1300Y35726D02*
Y37993D01*
X1400Y35752D02*
Y37993D01*
X1500Y35770D02*
Y37993D01*
X1600Y35780D02*
Y37993D01*
X1700Y35783D02*
Y37993D01*
X1800Y35779D02*
Y37993D01*
X2300Y35637D02*
Y37993D01*
X2500Y35512D02*
Y37993D01*
X2600Y35429D02*
Y37993D01*
X2700Y35327D02*
Y37993D01*
X2800Y35200D02*
Y37993D01*
X1900Y35767D02*
Y37993D01*
X2000Y35747D02*
Y37993D01*
X2100Y35719D02*
Y37993D01*
X2200Y35683D02*
Y37993D01*
X2400Y35581D02*
Y37993D01*
X2156Y35700D02*
X2839D01*
X800Y35800D02*
X9513D01*
X800Y35900D02*
X9513D01*
X800Y36000D02*
X9488D01*
X800Y36100D02*
X9488D01*
X800Y36200D02*
X9488D01*
X800Y36300D02*
X9488D01*
X800Y36400D02*
X9488D01*
X2422Y33300D02*
X2839D01*
X2557Y33400D02*
X2839D01*
X2664Y33500D02*
X2839D01*
Y35140D02*
Y35783D01*
X2724Y35300D02*
X2839D01*
X2631Y35400D02*
X2839D01*
X2516Y35500D02*
X2839D01*
X2368Y35600D02*
X2839D01*
Y35783D02*
X5539D01*
X2900D02*
Y37993D01*
X3000Y35783D02*
Y37993D01*
X3100Y35783D02*
Y37993D01*
X3200Y35783D02*
Y37993D01*
X3300Y35783D02*
Y37993D01*
X3400Y35783D02*
Y37993D01*
X800Y36500D02*
X9488D01*
X800Y36600D02*
X9488D01*
X800Y36700D02*
X9488D01*
X3500Y35783D02*
Y37993D01*
X3600Y35783D02*
Y37993D01*
X3700Y35783D02*
Y37993D01*
X3800Y35783D02*
Y37993D01*
X3900Y35783D02*
Y37993D01*
X4000Y35783D02*
Y37993D01*
X4100Y35783D02*
Y37993D01*
X4200Y35783D02*
Y37993D01*
X4300Y35783D02*
Y37993D01*
X4400Y35783D02*
Y37993D01*
X800Y41093D02*
Y42875D01*
X900Y41093D02*
Y42875D01*
X800Y37993D02*
X2963D01*
X800Y41093D02*
X3063D01*
X1000D02*
Y42875D01*
X1100Y41093D02*
Y42875D01*
X1200Y41093D02*
Y42875D01*
X1300Y41093D02*
Y42875D01*
X1400Y41093D02*
Y42875D01*
X1500Y41093D02*
Y42875D01*
X1600Y41093D02*
Y42875D01*
X1700Y41093D02*
Y42875D01*
X1800Y41093D02*
Y42875D01*
X1900Y41093D02*
Y42875D01*
X2000Y41093D02*
Y42875D01*
X2100Y41093D02*
Y42875D01*
X2200Y41093D02*
Y42875D01*
X2300Y41093D02*
Y42875D01*
X2400Y41093D02*
Y42875D01*
X2500Y41093D02*
Y42875D01*
X2600Y41093D02*
Y42875D01*
X2700Y41093D02*
Y42875D01*
X2800Y41093D02*
Y42875D01*
X2900Y41093D02*
Y42875D01*
X3000Y41093D02*
Y42875D01*
X3100Y41093D02*
Y42875D01*
X3200Y41093D02*
Y42875D01*
X3300Y41093D02*
Y42875D01*
X3400Y41093D02*
Y42875D01*
X3500Y41093D02*
Y42875D01*
X3600Y41093D02*
Y42875D01*
X3700Y41093D02*
Y42875D01*
X3800Y41093D02*
Y42875D01*
X3900Y41093D02*
Y42875D01*
X4000Y41093D02*
Y42875D01*
X800Y36800D02*
X9488D01*
X800Y36900D02*
X9488D01*
X800Y37000D02*
X9488D01*
X800Y37100D02*
X9488D01*
X800Y37200D02*
X9488D01*
X800Y37300D02*
X9488D01*
X800Y37400D02*
X9488D01*
X800Y37500D02*
X9488D01*
X800Y37600D02*
X9488D01*
X800Y37700D02*
X9488D01*
X2963Y37993D02*
X5863D01*
X800Y37800D02*
X9488D01*
X800Y37900D02*
X9488D01*
X800Y41100D02*
X4696D01*
X3063Y41093D02*
X4690D01*
X800Y41200D02*
X4796D01*
X800Y41300D02*
X4896D01*
X800Y41400D02*
X4912D01*
X800Y41500D02*
X4931D01*
X800Y41600D02*
X4958D01*
X800Y41700D02*
X4994D01*
X800Y41800D02*
X5040D01*
X800Y41900D02*
X5098D01*
X800Y42000D02*
X5169D01*
X800Y42100D02*
X5257D01*
X800Y42200D02*
X5368D01*
X800Y42300D02*
X5512D01*
X4100Y41093D02*
Y42875D01*
X4200Y41093D02*
Y42875D01*
X800Y42400D02*
X5723D01*
X4300Y41093D02*
Y42875D01*
X4400Y41093D02*
Y42875D01*
X800Y42500D02*
X6096D01*
X800Y42600D02*
X6196D01*
X800Y42700D02*
X6296D01*
X800Y42800D02*
X6411D01*
X800Y42875D02*
X6532D01*
X5539Y33083D02*
Y35783D01*
X5600Y31850D02*
Y37993D01*
X5539Y33200D02*
X6225D01*
X5539Y33300D02*
X6308D01*
X5539Y33400D02*
X6412D01*
X4500Y35783D02*
Y37993D01*
X5539Y33500D02*
X6547D01*
X5539Y33600D02*
X6735D01*
X5539Y33700D02*
X7206D01*
X5700Y31850D02*
Y37993D01*
X5800Y31850D02*
Y37993D01*
X5900Y31850D02*
Y39758D01*
X6000Y32698D02*
Y39858D01*
X6100Y32995D02*
Y39958D01*
X6200Y33165D02*
Y39976D01*
X6300Y33291D02*
Y39984D01*
X6400Y33389D02*
Y40000D01*
X6500Y33468D02*
Y40025D01*
X6600Y33532D02*
Y40059D01*
X6700Y33584D02*
Y40102D01*
X6800Y33625D02*
Y40157D01*
X6900Y33657D02*
Y40225D01*
X7000Y33680D02*
Y40308D01*
X7100Y33694D02*
Y40412D01*
X7200Y33700D02*
Y40547D01*
X7300Y33698D02*
Y40735D01*
X7800Y33560D02*
Y41175D01*
X8000Y33431D02*
Y41175D01*
X8100Y33343D02*
Y41175D01*
X8200Y33300D02*
Y41175D01*
X8300Y33300D02*
Y41175D01*
X7400Y33688D02*
Y41175D01*
X7500Y33669D02*
Y41175D01*
X7600Y33642D02*
Y41175D01*
X7700Y33606D02*
Y41175D01*
X7900Y33502D02*
Y41175D01*
X5539Y33800D02*
X9513D01*
X5539Y33900D02*
X9513D01*
X5539Y34000D02*
X9513D01*
X5539Y34100D02*
X9513D01*
X5539Y34200D02*
X9513D01*
X5539Y34300D02*
X9513D01*
X5539Y34400D02*
X9513D01*
X5539Y34500D02*
X9513D01*
X5539Y34600D02*
X9513D01*
X8142Y33300D02*
X9513D01*
X8038Y33400D02*
X9513D01*
X7903Y33500D02*
X9513D01*
X7715Y33600D02*
X9513D01*
X7244Y33700D02*
X9513D01*
X5539Y34700D02*
X9513D01*
X5539Y34800D02*
X9513D01*
X5539Y34900D02*
X9513D01*
X5539Y35000D02*
X9513D01*
X8400Y33300D02*
Y41175D01*
X8500Y33300D02*
Y41175D01*
X5539Y35100D02*
X9513D01*
X5539Y35200D02*
X9513D01*
X5539Y35300D02*
X9513D01*
X5539Y35400D02*
X9513D01*
X5539Y35500D02*
X9513D01*
X5539Y35600D02*
X9513D01*
X5539Y35700D02*
X9513D01*
X8600Y33300D02*
Y41175D01*
X8700Y33300D02*
Y41175D01*
X8800Y33300D02*
Y41175D01*
X8900Y33300D02*
Y41175D01*
X9000Y33300D02*
Y41175D01*
X9100Y33300D02*
Y41175D01*
X9200Y33300D02*
Y41175D01*
X9513Y33300D02*
Y35968D01*
X9300Y33300D02*
Y41175D01*
X9400Y33300D02*
Y41175D01*
X4600Y35783D02*
Y37993D01*
X4700Y35783D02*
Y37993D01*
X4800Y35783D02*
Y37993D01*
X4900Y35783D02*
Y37993D01*
X4500Y41093D02*
Y42875D01*
X4600Y41093D02*
Y42875D01*
X5000Y35783D02*
Y37993D01*
X4690Y41093D02*
X4903Y41306D01*
X5100Y35783D02*
Y37993D01*
X5200Y35783D02*
Y37993D01*
X5300Y35783D02*
Y37993D01*
X5400Y35783D02*
Y37993D01*
X5500Y35783D02*
Y37993D01*
X5863D02*
Y39721D01*
X6117Y39975D01*
X6069Y42472D02*
X6307Y42711D01*
X4700Y41104D02*
Y42875D01*
X4800Y41204D02*
Y42875D01*
X4900Y41304D02*
Y42875D01*
X5000Y41715D02*
Y42875D01*
X5100Y41903D02*
Y42875D01*
X5200Y42037D02*
Y42875D01*
X5300Y42141D02*
Y42875D01*
X5400Y42225D02*
Y42875D01*
X5500Y42293D02*
Y42875D01*
X5600Y42347D02*
Y42875D01*
X5700Y42391D02*
Y42875D01*
X5800Y42425D02*
Y42875D01*
X5900Y42450D02*
Y42875D01*
X6000Y42466D02*
Y42875D01*
X6100Y42504D02*
Y42875D01*
X6200Y42604D02*
Y42875D01*
X6300Y42704D02*
Y42875D01*
X5863Y38000D02*
X9488D01*
X5863Y38100D02*
X9488D01*
X5863Y38200D02*
X9488D01*
X5863Y38300D02*
X9488D01*
X5863Y38400D02*
X9488D01*
X5863Y38500D02*
X9488D01*
X5863Y38600D02*
X9488D01*
X5863Y38700D02*
X9488D01*
X5863Y38800D02*
X9463D01*
X9513Y35968D02*
Y36318D01*
X9488Y35968D02*
Y38768D01*
X5863Y38900D02*
X9463D01*
X9488Y38768D02*
Y39068D01*
X5863Y39000D02*
X9463D01*
X5863Y39100D02*
X9463D01*
X5863Y39200D02*
X9463D01*
X5863Y39300D02*
X9463D01*
X5863Y39400D02*
X9463D01*
X5863Y39500D02*
X9463D01*
X5863Y39600D02*
X9463D01*
X5863Y39700D02*
X9463D01*
X5942Y39800D02*
X9463D01*
X6042Y39900D02*
X9463D01*
X6398Y40000D02*
X9463D01*
X6695Y40100D02*
X9463D01*
X6865Y40200D02*
X9463D01*
X6991Y40300D02*
X9463D01*
X7089Y40400D02*
X9463D01*
Y38768D02*
Y41175D01*
X7168Y40500D02*
X9463D01*
X7232Y40600D02*
X9463D01*
X7284Y40700D02*
X9463D01*
X7325Y40800D02*
X9463D01*
X7357Y40900D02*
X9463D01*
X7380Y41000D02*
X9463D01*
X7394Y41100D02*
X9463D01*
X7399Y41175D02*
X9463D01*
X13500Y26222D02*
Y26513D01*
X13575Y26225D02*
X16083D01*
X13600D02*
Y26513D01*
X13700Y26225D02*
Y26513D01*
X13006Y26300D02*
X16158D01*
X13131Y26400D02*
X16258D01*
X13800Y26225D02*
Y26513D01*
X13900Y26225D02*
Y26513D01*
X14000Y26225D02*
Y26513D01*
X14100Y26225D02*
Y26513D01*
X14200Y26225D02*
Y26513D01*
X14300Y26225D02*
Y26513D01*
X14400Y26225D02*
Y26513D01*
X14500Y26225D02*
Y26513D01*
X14600Y26225D02*
Y26513D01*
X14700Y26225D02*
Y26513D01*
X14800Y26225D02*
Y26513D01*
X14900Y26225D02*
Y26513D01*
X15000Y26225D02*
Y26513D01*
X15100Y26225D02*
Y26513D01*
X15200Y26225D02*
Y26513D01*
X15300Y26225D02*
Y26513D01*
X15400Y26225D02*
Y26513D01*
X13242D02*
X15438D01*
X15500Y26225D02*
Y26515D01*
X15600Y26225D02*
Y26529D01*
X15700Y26225D02*
Y26554D01*
X15800Y26225D02*
Y26594D01*
X15900Y26225D02*
Y26650D01*
X16000Y26225D02*
Y26725D01*
X16100Y26242D02*
Y26823D01*
X16200Y26342D02*
Y26923D01*
X16300Y26442D02*
Y27023D01*
X18925Y25248D02*
X19491Y24683D01*
X18748Y25425D02*
X18925Y25248D01*
X19491Y24683D01*
X18873Y25300D02*
X30927D01*
X18800Y25373D02*
Y25477D01*
X18900Y25273D02*
Y25577D01*
X18773Y25400D02*
X31027D01*
X18748Y25425D02*
X18925Y25602D01*
X18823Y25500D02*
X30977D01*
X19491Y24683D02*
X19632Y24541D01*
X19491Y24683D02*
X19632Y24541D01*
X19491Y24683D02*
X19632Y24541D01*
X19373Y24800D02*
X30427D01*
X19273Y24900D02*
X30527D01*
X19173Y25000D02*
X30627D01*
X19073Y25100D02*
X30727D01*
X18973Y25200D02*
X30827D01*
X18923Y25600D02*
X30877D01*
X13230Y26500D02*
X16358D01*
X16400Y26542D02*
Y26996D01*
X19000Y25173D02*
Y25677D01*
X16083Y26225D02*
X16627Y26769D01*
X15812Y26600D02*
X16458D01*
X16039Y26762D02*
X16336Y27059D01*
X15970Y26700D02*
X16558D01*
X16077Y26800D02*
X16596D01*
X16500Y26642D02*
Y26896D01*
X19100Y25073D02*
Y25777D01*
X19200Y24973D02*
Y25877D01*
X19300Y24873D02*
Y25977D01*
X18925Y25602D02*
X19491Y26167D01*
X19400Y24773D02*
Y26077D01*
X19323Y26000D02*
X30477D01*
X18925Y25602D02*
X20056Y26733D01*
X19023Y25700D02*
X30777D01*
X19123Y25800D02*
X30677D01*
X19223Y25900D02*
X30577D01*
X13242Y28213D02*
X15086D01*
X13159Y28300D02*
X15173D01*
X13042Y28400D02*
X15273D01*
X12889Y28500D02*
X15373D01*
X9601Y29200D02*
X15099D01*
X9702Y29300D02*
X14887D01*
X12659Y28600D02*
X15473D01*
X7246Y28700D02*
X15573D01*
X7250Y28800D02*
X15673D01*
X15000Y28213D02*
Y29241D01*
X14900Y28213D02*
Y29293D01*
X15086Y28213D02*
X15674Y28801D01*
X15100Y28227D02*
Y29199D01*
X15200Y28327D02*
Y29168D01*
X15300Y28427D02*
Y29145D01*
X15400Y28527D02*
Y29131D01*
X15500Y28627D02*
Y29125D01*
X15600Y28727D02*
Y29127D01*
X13400Y28213D02*
Y29600D01*
X13500Y28213D02*
Y29600D01*
X13600Y28213D02*
Y29600D01*
X13700Y28213D02*
Y29600D01*
X13800Y28213D02*
Y29600D01*
X10002D02*
X14544D01*
X9802Y29400D02*
X14743D01*
X9902Y29500D02*
X14632D01*
X10002Y29600D02*
X14544D01*
X13900Y28213D02*
Y29600D01*
X14000Y28213D02*
Y29600D01*
X14100Y28213D02*
Y29600D01*
X14200Y28213D02*
Y29600D01*
X14300Y28213D02*
Y29600D01*
X14400Y28213D02*
Y29600D01*
X14500Y28213D02*
Y29600D01*
X14700Y28213D02*
Y29436D01*
X14600Y28213D02*
Y29534D01*
X14800Y28213D02*
Y29357D01*
X7327Y28900D02*
X15793D01*
X15700Y28826D02*
Y29137D01*
X15800Y28905D02*
Y29156D01*
X15900Y28963D02*
Y29183D01*
X9229Y29000D02*
X15987D01*
X9468Y29100D02*
X17898D01*
X16000Y29004D02*
Y29219D01*
X16277Y27000D02*
X16396D01*
X16100Y29032D02*
Y29265D01*
X16177Y26900D02*
X16496D01*
X16336Y27059D02*
X16627Y26769D01*
X16275Y29050D02*
X17600D01*
X17819Y29021D02*
X17935Y29137D01*
X17819Y29021D02*
X17935Y29137D01*
X16200Y29047D02*
Y29323D01*
X16300Y29050D02*
Y29394D01*
X16400Y29050D02*
Y29482D01*
X16500Y29050D02*
Y29593D01*
X15951Y29200D02*
X17998D01*
X16163Y29300D02*
X18098D01*
X16307Y29400D02*
X18198D01*
X16418Y29500D02*
X18298D01*
X16506Y29600D02*
X18398D01*
X16600Y29050D02*
Y29737D01*
X16700Y29050D02*
Y29948D01*
X17935Y29137D02*
X18359Y29562D01*
X17819Y29021D02*
X18501Y29703D01*
X18359Y29562D02*
X18501Y29703D01*
X18359Y29562D02*
X18501Y29703D01*
X16577Y29700D02*
X18498D01*
X16635Y29800D02*
X18598D01*
X16681Y29900D02*
X18698D01*
X16717Y30000D02*
X18798D01*
X19632Y24541D02*
X20056Y24117D01*
X19900Y24273D02*
Y26577D01*
X20056Y24117D02*
X20198Y23975D01*
X19632Y24541D02*
X20056Y24117D01*
X19500Y24673D02*
Y26177D01*
X19600Y24573D02*
Y26277D01*
X19491Y26167D02*
X19632Y26309D01*
X19700Y24473D02*
Y26377D01*
X19800Y24373D02*
Y26477D01*
X20873Y23300D02*
X21293D01*
X20773Y23400D02*
X21324D01*
X20673Y23500D02*
X21366D01*
X20573Y23600D02*
X21417D01*
X20473Y23700D02*
X21482D01*
X20056Y24117D02*
X20198Y23975D01*
X20373Y23800D02*
X21561D01*
X20173Y24000D02*
X21784D01*
X20273Y23900D02*
X21659D01*
X20200Y23973D02*
Y26877D01*
X20300Y23873D02*
Y26977D01*
X20400Y23773D02*
Y27077D01*
X20500Y23673D02*
Y27177D01*
X20000Y24173D02*
Y26677D01*
X20100Y24073D02*
Y26777D01*
X19491Y26167D02*
X20056Y26733D01*
X20056D02*
X20198Y26875D01*
X20056Y26733D02*
X20198Y26875D01*
X20600Y23573D02*
Y27277D01*
X20700Y23473D02*
Y27377D01*
X20800Y23373D02*
Y27477D01*
X21300Y23325D02*
Y27977D01*
X21400Y23569D02*
Y28077D01*
X21500Y23725D02*
Y28177D01*
X21600Y23842D02*
Y28277D01*
X21700Y23935D02*
Y28377D01*
X21800Y24011D02*
Y28477D01*
X21900Y24072D02*
Y28577D01*
X20073Y24100D02*
X21955D01*
X19973Y24200D02*
X22251D01*
X22749D02*
X29827D01*
X19873Y24300D02*
X29927D01*
X19773Y24400D02*
X30027D01*
X19673Y24500D02*
X30127D01*
X19573Y24600D02*
X30227D01*
X19473Y24700D02*
X30327D01*
X19423Y26100D02*
X30377D01*
X23707Y23300D02*
X28927D01*
X23676Y23400D02*
X29027D01*
X23634Y23500D02*
X29127D01*
X23583Y23600D02*
X29227D01*
X23518Y23700D02*
X29327D01*
X23439Y23800D02*
X29427D01*
X23341Y23900D02*
X29527D01*
X23045Y24100D02*
X29727D01*
X23216Y24000D02*
X29627D01*
X22000Y24121D02*
Y28677D01*
X22100Y24159D02*
Y28777D01*
X19523Y26200D02*
X30277D01*
X22200Y24188D02*
Y28877D01*
X19923Y26600D02*
X29877D01*
X20023Y26700D02*
X29777D01*
X19623Y26300D02*
X30177D01*
X19723Y26400D02*
X30077D01*
X19823Y26500D02*
X29977D01*
X22300Y24209D02*
Y28977D01*
X22900Y24159D02*
Y29577D01*
X23000Y24121D02*
Y29677D01*
X23100Y24072D02*
Y29777D01*
X23200Y24011D02*
Y29877D01*
X22400Y24221D02*
Y29077D01*
X22500Y24225D02*
Y29177D01*
X22600Y24221D02*
Y29277D01*
X22700Y24209D02*
Y29377D01*
X22800Y24188D02*
Y29477D01*
X20056Y26733D02*
X20198Y26875D01*
X20198D02*
X20622Y27299D01*
X20198Y26875D02*
X20622Y27299D01*
X20622D02*
X20763Y27440D01*
X20622Y27299D02*
X21329Y28006D01*
X20622Y27299D02*
X21329Y28006D01*
X20723Y27400D02*
X25788D01*
X20823Y27500D02*
X25684D01*
X20923Y27600D02*
X25600D01*
X21223Y27900D02*
X25434D01*
X21188Y27865D02*
X21329Y28006D01*
X21023Y27700D02*
X25532D01*
X21123Y27800D02*
X25478D01*
X21623Y28300D02*
X25351D01*
X21329Y28006D02*
X21753Y28430D01*
X21323Y28000D02*
X25400D01*
X21423Y28100D02*
X25375D01*
X21523Y28200D02*
X25359D01*
X21329Y28006D02*
X21753Y28430D01*
X21753D02*
X21895Y28572D01*
X21723Y28400D02*
X25351D01*
X21753Y28430D02*
X21895Y28572D01*
X21753Y28430D02*
X21895Y28572D01*
X21895D02*
X22319Y28996D01*
X21823Y28500D02*
X25359D01*
X21895Y28572D02*
X22319Y28996D01*
X21923Y28600D02*
X25375D01*
X22023Y28700D02*
X25400D01*
X22319Y28996D02*
X22460Y29137D01*
X22123Y28800D02*
X25434D01*
X22223Y28900D02*
X25478D01*
X22323Y29000D02*
X25532D01*
X22319Y28996D02*
X23026Y29703D01*
X22319Y28996D02*
X23026Y29703D01*
X22423Y29100D02*
X25600D01*
X22523Y29200D02*
X25683D01*
X22885Y29562D02*
X23026Y29703D01*
X20323Y27000D02*
X29477D01*
X20423Y27100D02*
X29377D01*
X20123Y26800D02*
X29677D01*
X20223Y26900D02*
X29577D01*
X20523Y27200D02*
X26111D01*
X20623Y27300D02*
X25922D01*
X27090Y27200D02*
X29277D01*
X27278Y27300D02*
X29177D01*
X27412Y27400D02*
X29077D01*
X27517Y27500D02*
X28977D01*
X27600Y27600D02*
X28877D01*
X28471Y28006D02*
X29037Y27440D01*
X28471Y28006D02*
X29037Y27440D01*
X27766Y27900D02*
X28577D01*
X27800Y28000D02*
X28477D01*
X27668Y27700D02*
X28777D01*
X27723Y27800D02*
X28677D01*
X28471Y28006D02*
X28612Y27865D01*
X22623Y29300D02*
X25788D01*
X22723Y29400D02*
X25922D01*
X22823Y29500D02*
X26110D01*
X22923Y29600D02*
X26582D01*
X23223Y29900D02*
X26577D01*
X26618Y29600D02*
X26741D01*
X23023Y29700D02*
X26777D01*
X23123Y29800D02*
X26677D01*
X27841Y28200D02*
X28277D01*
X27849Y28300D02*
X28177D01*
X27825Y28100D02*
X28377D01*
X28047Y28430D02*
X28471Y28006D01*
X28011Y28466D02*
X28471Y28006D01*
X26700Y29596D02*
Y29777D01*
X26600Y29600D02*
Y29877D01*
X27946Y28400D02*
X28077D01*
X26734Y29593D02*
X26809Y29668D01*
X27849Y28304D02*
X28011Y28466D01*
X16800Y29050D02*
Y31582D01*
X16900Y29050D02*
Y31700D01*
X17000Y29050D02*
Y31856D01*
X16500Y31157D02*
Y31353D01*
X16600Y31013D02*
Y31414D01*
X16700Y30802D02*
Y31489D01*
X16968Y31800D02*
X18454D01*
X17100Y29050D02*
Y32100D01*
X18200Y29402D02*
Y32054D01*
X18400Y29602D02*
Y31854D01*
X18300Y29502D02*
Y31954D01*
X17066Y32000D02*
X18254D01*
X17100Y32100D02*
X18154D01*
X18600Y29802D02*
Y31654D01*
X17022Y31900D02*
X18354D01*
X18500Y29702D02*
Y31754D01*
X17149Y32400D02*
X17854D01*
X17125Y32200D02*
X18054D01*
X17141Y32300D02*
X17954D01*
X17100Y32800D02*
X17454D01*
X17149Y32500D02*
X17754D01*
X17141Y32600D02*
X17654D01*
X17125Y32700D02*
X17554D01*
X17300Y29050D02*
Y32955D01*
X17200Y29050D02*
Y33039D01*
X17600Y29050D02*
Y32654D01*
X17400Y29050D02*
Y32854D01*
X17500Y29050D02*
Y32754D01*
X17800Y29026D02*
Y32454D01*
X17700Y29044D02*
Y32554D01*
X18100Y29302D02*
Y32154D01*
X17900Y29102D02*
Y32354D01*
X18000Y29202D02*
Y32254D01*
X18501Y29703D02*
X18925Y30127D01*
X18501Y29703D02*
X18925Y30127D01*
X16744Y30100D02*
X18898D01*
X16763Y30200D02*
X18998D01*
X16773Y30300D02*
X19098D01*
X16775Y30400D02*
X19198D01*
X16769Y30500D02*
X19298D01*
X16732Y30700D02*
X19498D01*
X16755Y30600D02*
X19398D01*
X23300Y23936D02*
Y29977D01*
X23400Y23843D02*
Y30077D01*
X23026Y29703D02*
X23450Y30127D01*
X23026Y29703D02*
X23450Y30127D01*
X18925D02*
X19066Y30269D01*
X18925Y30127D02*
X19066Y30269D01*
X23323Y30000D02*
X26477D01*
X18925Y30127D02*
X19526Y30728D01*
X19066Y30269D02*
X19491Y30693D01*
X16608Y31000D02*
X19254D01*
X16543Y31100D02*
X19154D01*
X16701Y30800D02*
X19454D01*
X16659Y30900D02*
X19354D01*
X16712Y31500D02*
X18754D01*
X16816Y31600D02*
X18654D01*
X16464Y31200D02*
X19054D01*
X16390Y31300D02*
X18954D01*
X16578Y31400D02*
X18854D01*
X18800Y30002D02*
Y31454D01*
X18700Y29902D02*
Y31554D01*
X19100Y30302D02*
Y31154D01*
X18900Y30102D02*
Y31354D01*
X19000Y30202D02*
Y31254D01*
X19200Y30402D02*
Y31054D01*
X16900Y31700D02*
X18554D01*
X19400Y30602D02*
Y30854D01*
X17324Y32930D02*
X19526Y30728D01*
X19300Y30502D02*
Y30954D01*
X17100Y32800D02*
Y32964D01*
X17066Y32900D02*
X17354D01*
X17150Y33000D02*
X17262D01*
X19730Y43170D02*
Y46575D01*
X21000D01*
X19700Y43186D02*
Y47175D01*
X21580Y42975D02*
Y43125D01*
X21700Y42975D02*
Y43125D01*
X21800Y42975D02*
Y43125D01*
X21900Y42975D02*
Y43125D01*
X19800Y46575D02*
Y47175D01*
X19900Y46575D02*
Y47175D01*
X21000Y46575D02*
X21630D01*
X20000D02*
Y47175D01*
X21000Y46575D02*
X21630D01*
X20100D02*
Y47175D01*
X20200Y46575D02*
Y47175D01*
X20300Y46575D02*
Y47175D01*
X20400Y46575D02*
Y47175D01*
X20500Y46575D02*
Y47175D01*
X20600Y46575D02*
Y47175D01*
X20700Y46575D02*
Y47175D01*
X20800Y46575D02*
Y47175D01*
X20900Y46575D02*
Y47175D01*
X21000Y46575D02*
Y47175D01*
X21100Y46575D02*
Y47175D01*
X21200Y46575D02*
Y47175D01*
X21300Y46575D02*
Y47175D01*
X21400Y46575D02*
Y47175D01*
X21500Y46575D02*
Y47175D01*
X21600Y46575D02*
Y47175D01*
X21700Y46575D02*
Y47175D01*
X21800Y46575D02*
Y47175D01*
X21900Y46575D02*
Y47175D01*
X22000Y42975D02*
Y43125D01*
X22100Y42975D02*
Y43125D01*
X21580Y42975D02*
X24750D01*
X21580Y43000D02*
X42411D01*
X22200Y42975D02*
Y43125D01*
X21630D02*
X22270D01*
X22300Y42975D02*
Y43125D01*
X22270D02*
X22900D01*
X22270D02*
X22900D01*
X22400Y42975D02*
Y43125D01*
X22500Y42975D02*
Y43125D01*
X22600Y42975D02*
Y43125D01*
X22700Y42975D02*
Y43125D01*
X22800Y42975D02*
Y43125D01*
X22900Y42975D02*
Y43125D01*
X23000Y42975D02*
Y43125D01*
X23100Y42975D02*
Y43125D01*
X23200Y42975D02*
Y43125D01*
X21630Y46575D02*
X22270D01*
X19700Y46600D02*
X22320D01*
X21580Y43100D02*
X42441D01*
X19700Y46700D02*
X22320D01*
X19700Y46800D02*
X22320D01*
X19700Y46900D02*
X22322D01*
X19700Y47000D02*
X22333D01*
X19700Y47100D02*
X22357D01*
X19700Y47175D02*
X22383D01*
X22000Y46575D02*
Y47175D01*
X23300Y42975D02*
Y43125D01*
X22900D02*
X23540D01*
X22100Y46575D02*
Y47175D01*
X22200Y46575D02*
Y47175D01*
X22320Y46575D02*
Y46845D01*
X23500Y23725D02*
Y30177D01*
X23600Y23569D02*
Y30277D01*
X23700Y23325D02*
Y30377D01*
X23800Y23271D02*
Y30477D01*
X23450Y30127D02*
X23592Y30269D01*
X23450Y30127D02*
X23592Y30269D01*
X23450Y30127D02*
X23592Y30269D01*
X23592D02*
X24016Y30693D01*
X23592Y30269D02*
X24723Y31400D01*
X23900Y23259D02*
Y30577D01*
X24016Y30693D02*
X24158Y30834D01*
X24016Y30693D02*
X24158Y30834D01*
X24723Y31400D01*
X24823Y31500D02*
X24977D01*
X24723Y31400D02*
X24900Y31577D01*
X24623Y31300D02*
X25177D01*
X24723Y31400D02*
X25077D01*
X24900Y31577D02*
X25077Y31400D01*
X23400Y42975D02*
Y43125D01*
X23500Y42975D02*
Y43125D01*
X23600Y42975D02*
Y43125D01*
X23700Y42975D02*
Y43125D01*
X23800Y42975D02*
Y43125D01*
X23900Y42975D02*
Y43125D01*
X24000Y42975D02*
Y43125D01*
X24100Y42975D02*
Y43125D01*
X24200Y42975D02*
Y43125D01*
X24300Y42975D02*
Y43125D01*
X24400Y42975D02*
Y43125D01*
X24500Y42975D02*
Y43125D01*
X24600Y42975D02*
Y43125D01*
X24700Y42975D02*
Y43125D01*
X24800Y42975D02*
Y43125D01*
X24900Y42975D02*
Y43125D01*
X25000Y42975D02*
Y43125D01*
X25100Y42975D02*
Y43125D01*
X25200Y42975D02*
Y43125D01*
X26000Y29446D02*
Y30477D01*
X25900Y29385D02*
Y30577D01*
X23423Y30100D02*
X26377D01*
X26100Y29496D02*
Y30377D01*
X23823Y30500D02*
X25977D01*
X23923Y30600D02*
X25877D01*
X23523Y30200D02*
X26277D01*
X23623Y30300D02*
X26177D01*
X23723Y30400D02*
X26077D01*
X26300Y29563D02*
Y30177D01*
X26200Y29534D02*
Y30277D01*
X26500Y29596D02*
Y29977D01*
X26400Y29584D02*
Y30077D01*
X26208Y30269D02*
X26350Y30127D01*
X26208Y30269D02*
X26350Y30127D01*
X26809Y29668D01*
X26208Y30269D02*
X26350Y30127D01*
X26809Y29668D01*
X24123Y30800D02*
X25677D01*
X24223Y30900D02*
X25577D01*
X24023Y30700D02*
X25777D01*
X25077Y31400D02*
X25642Y30834D01*
X24423Y31100D02*
X25377D01*
X24523Y31200D02*
X25277D01*
X24323Y31000D02*
X25477D01*
X24750Y42975D02*
X42406D01*
X25077Y31400D02*
X25642Y30834D01*
X25500Y28943D02*
Y30977D01*
X25400Y28699D02*
Y31077D01*
X25800Y29310D02*
Y30677D01*
X25600Y29100D02*
Y30877D01*
X25700Y29217D02*
Y30777D01*
X25642Y30834D02*
X25784Y30693D01*
X25642Y30834D02*
X25784Y30693D01*
X26208Y30269D01*
X25642Y30834D02*
X25784Y30693D01*
X26208Y30269D01*
X23540Y43125D02*
X24170D01*
X25300Y42975D02*
Y43125D01*
X25400Y42975D02*
Y43125D01*
X25500Y42975D02*
Y43125D01*
X23540D02*
X24170D01*
X24810D01*
X25440D01*
X24810D02*
X25440D01*
X26080D01*
X25600Y42975D02*
Y43125D01*
X25700Y42975D02*
Y43125D01*
X25800Y42975D02*
Y43125D01*
X25900Y42975D02*
Y43125D01*
X26000Y42975D02*
Y43125D01*
X26100Y42975D02*
Y43125D01*
X26200Y42975D02*
Y43125D01*
X26300Y42975D02*
Y43125D01*
X26400Y42975D02*
Y43125D01*
X26500Y42975D02*
Y43125D01*
X26600Y42975D02*
Y43125D01*
X26700Y42975D02*
Y43125D01*
X26800Y42975D02*
Y43125D01*
X26080D02*
X26710D01*
X26080D02*
X26710D01*
X27350D01*
X26710Y46575D02*
X27350D01*
X26900Y42975D02*
Y43125D01*
X27000Y42975D02*
Y43125D01*
X27100Y42975D02*
Y43125D01*
X27200Y42975D02*
Y43125D01*
X27300Y42975D02*
Y43125D01*
X26800Y46575D02*
Y46848D01*
X26900Y46575D02*
Y47175D01*
X27000Y46575D02*
Y47175D01*
X27100Y46575D02*
Y47175D01*
X27200Y46575D02*
Y47175D01*
X27400Y42975D02*
Y43125D01*
X27500Y42975D02*
Y43125D01*
X27600Y42975D02*
Y43125D01*
X27700Y42975D02*
Y43125D01*
X27350D02*
X27980D01*
X27350D02*
X27980D01*
X27350Y46575D02*
X27980D01*
X26677Y46600D02*
X36027D01*
X27350Y46575D02*
X27980D01*
X27800Y42975D02*
Y43125D01*
X27900Y42975D02*
Y43125D01*
X28000Y42975D02*
Y43125D01*
X28100Y42975D02*
Y43125D01*
X28200Y42975D02*
Y43125D01*
X28300Y42975D02*
Y43125D01*
X28400Y42975D02*
Y43125D01*
X28500Y42975D02*
Y43125D01*
X27980D02*
X28620D01*
X27980Y46575D02*
X28620D01*
X27300D02*
Y47175D01*
X27400Y46575D02*
Y47175D01*
X26735Y46700D02*
X35927D01*
X27500Y46575D02*
Y47175D01*
X26844Y47000D02*
X35733D01*
X26871Y47175D02*
X35672D01*
X26781Y46800D02*
X35847D01*
X26817Y46900D02*
X35784D01*
X26863Y47100D02*
X35695D01*
X27600Y46575D02*
Y47175D01*
X27700Y46575D02*
Y47175D01*
X27800Y46575D02*
Y47175D01*
X27900Y46575D02*
Y47175D01*
X28000Y46575D02*
Y47175D01*
X28100Y46575D02*
Y47175D01*
X28200Y46575D02*
Y47175D01*
X28300Y46575D02*
Y47175D01*
X28400Y46575D02*
Y47175D01*
X28500Y46575D02*
Y47175D01*
X28700Y2821D02*
Y3412D01*
X28800Y2750D02*
Y3412D01*
X28712Y2800D02*
X28828D01*
X28649Y2900D02*
X28891D01*
X28600Y2966D02*
Y3412D01*
X28572Y3000D02*
X28968D01*
X28900Y2912D02*
Y3412D01*
X29000Y3037D02*
Y3412D01*
X36332Y2800D02*
X36448D01*
X36269Y2900D02*
X36511D01*
X36192Y3000D02*
X36588D01*
X29100Y3137D02*
Y3412D01*
X29190Y3212D02*
Y3412D01*
X36100Y3100D02*
X36680D01*
X35970Y3212D02*
Y3387D01*
X35986Y3200D02*
X36794D01*
X36200Y2991D02*
Y3387D01*
X36300Y2854D02*
Y3387D01*
X36400Y2710D02*
Y3387D01*
X36500Y2884D02*
Y3387D01*
X36000Y3189D02*
Y3387D01*
X36100Y3100D02*
Y3387D01*
X36600Y3014D02*
Y3387D01*
X35970D02*
X36693D01*
Y3400D02*
X36807D01*
X36693Y3387D02*
Y6187D01*
X36700Y3119D02*
Y9575D01*
X36693Y3500D02*
X36807D01*
X36693Y3600D02*
X36807D01*
Y3388D02*
Y6188D01*
X36693Y3700D02*
X36807D01*
X36693Y6187D02*
Y9087D01*
X36693Y3800D02*
X36807D01*
X36693Y3900D02*
X36807D01*
X36693Y4000D02*
X36807D01*
X36693Y4100D02*
X36807D01*
X36693Y4200D02*
X36807D01*
X35970Y3300D02*
X36939D01*
X36693Y4300D02*
X36807D01*
X36693Y4400D02*
X36807D01*
X36693Y4500D02*
X36807D01*
X36693Y4600D02*
X36807D01*
X36693Y4700D02*
X36807D01*
X36900Y3276D02*
Y3388D01*
X36807D02*
X37110D01*
X38381Y3300D02*
X39479D01*
X36693Y4800D02*
X36807D01*
X36693Y4900D02*
X36807D01*
X38210Y3388D02*
X39650D01*
X36693Y5000D02*
X36807D01*
X36693Y5100D02*
X36807D01*
X36693Y5200D02*
X36807D01*
X36693Y5300D02*
X36807D01*
X36693Y5400D02*
X36807D01*
X36693Y5500D02*
X36807D01*
X36693Y5600D02*
X36807D01*
X36693Y5700D02*
X36807D01*
X36693Y5800D02*
X36807D01*
X36693Y5900D02*
X36807D01*
X36693Y6000D02*
X36807D01*
X36693Y6100D02*
X36807D01*
X36693Y6300D02*
X36807D01*
X36693Y6400D02*
X36807D01*
Y6288D02*
Y8557D01*
X36693Y6500D02*
X36807D01*
X36693Y6600D02*
X36807D01*
X36693Y6700D02*
X36807D01*
X28600Y9331D02*
Y10103D01*
X28700Y9502D02*
Y10103D01*
X28800Y9627D02*
Y10103D01*
X28900Y9726D02*
Y10103D01*
X29000Y9805D02*
Y10103D01*
X29100Y9869D02*
Y10103D01*
X29200Y9921D02*
Y10103D01*
X29300Y9962D02*
Y10103D01*
X29400Y9994D02*
Y10103D01*
X30893Y11200D02*
X31014D01*
X30893Y11300D02*
X31237D01*
X30893Y11400D02*
X31237D01*
X30893Y11500D02*
X31237D01*
X30893Y11600D02*
X31237D01*
X30893Y11700D02*
X31237D01*
X30893Y11800D02*
X31237D01*
X30893Y11900D02*
X31237D01*
X30893Y12000D02*
X31237D01*
X30893Y12100D02*
X31237D01*
X30893Y12200D02*
X31237D01*
X30893Y12300D02*
X31237D01*
X30893Y12400D02*
X31237D01*
X30893Y12500D02*
X31237D01*
X30893Y12600D02*
X31237D01*
X30893Y11133D02*
Y13203D01*
Y12700D02*
X31237D01*
X30893Y12800D02*
X31237D01*
X30893Y12900D02*
X31237D01*
X30893Y13000D02*
X31237D01*
X30862Y12932D02*
Y13203D01*
X30893Y13100D02*
X31237D01*
X30893Y13200D02*
X31237D01*
X30862Y13300D02*
X31237D01*
X36693Y6800D02*
X36807D01*
X36693Y6900D02*
X36807D01*
X36693Y7000D02*
X36807D01*
X36693Y7100D02*
X36807D01*
X36693Y7200D02*
X36807D01*
X36693Y7300D02*
X36807D01*
X36693Y7400D02*
X36807D01*
X36693Y7500D02*
X36807D01*
X36693Y7600D02*
X36807D01*
X36693Y7700D02*
X36807D01*
X36693Y7800D02*
X36807D01*
X36693Y7900D02*
X36807D01*
X36693Y8000D02*
X36807D01*
X36693Y8100D02*
X36807D01*
X36693Y8200D02*
X36807D01*
X36693Y8300D02*
X36807D01*
X36693Y8400D02*
X36807D01*
X36693Y8500D02*
X36807D01*
X36296Y9575D02*
X36762D01*
X30862Y13400D02*
X31237D01*
X30862Y13500D02*
X31237D01*
X30862Y13600D02*
X31237D01*
X30862Y13700D02*
X31237D01*
X30862Y13800D02*
X31237D01*
X36400Y9094D02*
Y9575D01*
X36500Y9087D02*
Y9575D01*
X36400Y9087D02*
X36693D01*
X36600D02*
Y9575D01*
X36762Y8557D02*
Y9575D01*
X36400Y9100D02*
X36762D01*
X36394Y9200D02*
X36762D01*
X36380Y9300D02*
X36762D01*
X36357Y9400D02*
X36762D01*
X36326Y9500D02*
X36762D01*
X38872Y2800D02*
X38988D01*
X38800Y2913D02*
Y3388D01*
X38809Y2900D02*
X39051D01*
X38732Y3000D02*
X39128D01*
X38500Y3220D02*
Y3388D01*
X38600Y3138D02*
Y3388D01*
X38640Y3100D02*
X39220D01*
X38526Y3200D02*
X39334D01*
X38700Y3037D02*
Y3388D01*
X38900Y2750D02*
Y3388D01*
X39000Y2821D02*
Y3388D01*
X39100Y2966D02*
Y3388D01*
X39200Y3080D02*
Y3388D01*
X39300Y3172D02*
Y3388D01*
X39400Y3249D02*
Y3388D01*
X39907Y3500D02*
X40185D01*
X39907Y3600D02*
X40231D01*
X39907Y3700D02*
X40212D01*
X39907Y3800D02*
X40202D01*
X39907Y3900D02*
X40200D01*
X39907Y4000D02*
X40206D01*
X39907Y4100D02*
X40220D01*
X39907Y4200D02*
X40243D01*
X39907Y4300D02*
X40274D01*
X39907Y3469D02*
Y6188D01*
X40000Y3486D02*
Y8557D01*
X39907Y4400D02*
X40316D01*
X40100Y3496D02*
Y8557D01*
X40200Y3500D02*
Y8557D01*
X39907Y4500D02*
X40367D01*
X40300Y4365D02*
Y8557D01*
X39907Y4600D02*
X40432D01*
X40400Y4553D02*
Y8557D01*
X40500Y4687D02*
Y8557D01*
X42533Y4500D02*
X43363D01*
X39907Y4700D02*
X40511D01*
X42468Y4600D02*
X43363D01*
X42389Y4700D02*
X43363D01*
X39907Y4800D02*
X40609D01*
X39907Y4900D02*
X40734D01*
X42291Y4800D02*
X43363D01*
X39907Y5000D02*
X40905D01*
X42166Y4900D02*
X43363D01*
X42700Y3499D02*
Y3855D01*
X43400Y3335D02*
Y3868D01*
X42700Y3900D02*
X43363D01*
X42694Y4000D02*
X43363D01*
X42680Y4100D02*
X43363D01*
X42657Y4200D02*
X43363D01*
X42626Y4300D02*
X43363D01*
X42584Y4400D02*
X43363D01*
X40600Y4791D02*
Y8557D01*
X40700Y4875D02*
Y8557D01*
X40800Y4943D02*
Y8557D01*
X40900Y4997D02*
Y8557D01*
X41000Y5041D02*
Y8557D01*
X39907Y5100D02*
X41201D01*
X41100Y5075D02*
Y8557D01*
X41200Y5100D02*
Y8557D01*
X43100Y3453D02*
Y8150D01*
X42400Y4688D02*
Y8557D01*
X43363Y3868D02*
Y6968D01*
X43200Y3422D02*
Y8150D01*
X43300Y3383D02*
Y8150D01*
X42000Y4998D02*
Y8557D01*
X42100Y4943D02*
Y8557D01*
X41995Y5000D02*
X43363D01*
X42200Y4875D02*
Y8557D01*
X42300Y4792D02*
Y8557D01*
X39907Y6288D02*
Y8557D01*
X41300Y5116D02*
Y8557D01*
X41400Y5124D02*
Y8557D01*
X41500Y5124D02*
Y8557D01*
X39907Y8200D02*
X43095D01*
X39907Y8557D02*
X42462D01*
X39907Y8300D02*
X43095D01*
X39907Y8400D02*
X43095D01*
X39907Y8500D02*
X43095D01*
X41600Y5116D02*
Y8557D01*
X41700Y5100D02*
Y8557D01*
X41800Y5075D02*
Y8557D01*
X41900Y5041D02*
Y8557D01*
X42462Y8600D02*
X43095D01*
X42462Y8700D02*
X43095D01*
X42462Y8800D02*
X43095D01*
X42462Y8900D02*
X43095D01*
X42462Y9000D02*
X43095D01*
X42462Y9100D02*
X43095D01*
X42462Y9200D02*
X43095D01*
X42462Y9300D02*
X43095D01*
X42462Y9400D02*
X43095D01*
X42462Y9500D02*
X43095D01*
X42462Y9600D02*
X43095D01*
X42462Y8557D02*
Y11632D01*
X43095Y8150D02*
Y11650D01*
X42462Y9700D02*
X43095D01*
X42462Y9800D02*
X43095D01*
X42462Y9900D02*
X43095D01*
X42462Y10000D02*
X43095D01*
X42462Y10100D02*
X43095D01*
X42462Y10200D02*
X43095D01*
X42462Y10300D02*
X43095D01*
X42462Y10400D02*
X43095D01*
X39907Y5200D02*
X43363D01*
X39907Y5300D02*
X43363D01*
X39907Y5400D02*
X43363D01*
X39907Y5500D02*
X43363D01*
X39907Y5600D02*
X43363D01*
X39907Y5700D02*
X43363D01*
X39907Y5800D02*
X43363D01*
X39907Y5900D02*
X43363D01*
X39907Y6000D02*
X43363D01*
X41699Y5100D02*
X43363D01*
X39907Y6100D02*
X43363D01*
X39907Y6300D02*
X43363D01*
X39907Y6400D02*
X43363D01*
X39907Y6500D02*
X43363D01*
X39907Y6600D02*
X43363D01*
X39907Y6700D02*
X43363D01*
X39907Y6800D02*
X43363D01*
X39907Y6900D02*
X43363D01*
X42462Y10500D02*
X43095D01*
X42462Y10600D02*
X43095D01*
X42462Y10700D02*
X43095D01*
X42462Y10800D02*
X43095D01*
X42462Y10900D02*
X43095D01*
X42462Y11000D02*
X43095D01*
X42462Y11100D02*
X43095D01*
X42462Y11200D02*
X43095D01*
X42462Y11300D02*
X43095D01*
X42462Y11400D02*
X43095D01*
X42462Y11500D02*
X43095D01*
X42462Y11600D02*
X43095D01*
X43100Y11650D02*
Y13350D01*
X43200Y11650D02*
Y13350D01*
X42512Y13400D02*
X43095D01*
X42512Y13500D02*
X43095D01*
X43300Y11650D02*
Y13350D01*
X42512Y13600D02*
X43095D01*
X42512Y13700D02*
X43095D01*
X29364Y16032D02*
X29876Y16543D01*
X29364Y16032D02*
X30862D01*
X29500D02*
Y16167D01*
X29600Y16032D02*
Y16267D01*
X29700Y16032D02*
Y16367D01*
X29800Y16032D02*
Y16467D01*
X29900Y16032D02*
Y16568D01*
X31237Y11266D02*
Y14232D01*
X30862Y13203D02*
Y16032D01*
Y13900D02*
X31237D01*
X30862Y14000D02*
X31237D01*
X30862Y14100D02*
X31237D01*
X30000Y16032D02*
Y16700D01*
X30862Y14200D02*
X31237D01*
X30000Y16700D02*
X31292D01*
X31300Y14232D02*
Y16692D01*
X30100Y16032D02*
Y16939D01*
X30200Y16032D02*
Y17792D01*
X30124Y17100D02*
X30892D01*
X30125Y17144D02*
Y17867D01*
X30052Y16800D02*
X31192D01*
X30089Y16900D02*
X31092D01*
X30113Y17000D02*
X30992D01*
X30900Y11138D02*
Y17092D01*
X30300Y16032D02*
Y17692D01*
X31200Y11259D02*
Y16792D01*
X31000Y11193D02*
Y16992D01*
X31100Y11233D02*
Y16892D01*
X30500Y16032D02*
Y17492D01*
X30400Y16032D02*
Y17592D01*
X30800Y16032D02*
Y17192D01*
X30600Y16032D02*
Y17392D01*
X30700Y16032D02*
Y17292D01*
X30862Y14500D02*
X31687D01*
X30862Y14600D02*
X31620D01*
X30862Y14300D02*
X31837D01*
X30862Y14400D02*
X31771D01*
X30862Y14900D02*
X31487D01*
X30862Y15000D02*
X31463D01*
X30862Y14700D02*
X31565D01*
X30862Y14800D02*
X31521D01*
X30862Y15100D02*
X31446D01*
X31600Y14232D02*
Y14634D01*
X31500Y14232D02*
Y14860D01*
X31237Y14232D02*
X31837D01*
X30862Y15200D02*
X31438D01*
X30862Y15300D02*
X31438D01*
X31800Y14232D02*
Y14370D01*
X31700Y14232D02*
Y14484D01*
X31837Y14232D02*
Y14333D01*
X30862Y15400D02*
X31446D01*
X30862Y15500D02*
X31463D01*
X29433Y16100D02*
X31771D01*
X30125Y17867D02*
X31831Y16161D01*
X29833Y16500D02*
X31492D01*
X29928Y16600D02*
X31392D01*
X29533Y16200D02*
X31792D01*
X29633Y16300D02*
X31692D01*
X29733Y16400D02*
X31592D01*
X30862Y15600D02*
X31487D01*
X31400Y14232D02*
Y16592D01*
X30862Y15700D02*
X31521D01*
X31500Y15640D02*
Y16492D01*
X30862Y15800D02*
X31565D01*
X31600Y15866D02*
Y16392D01*
X30862Y15900D02*
X31620D01*
X30862Y16000D02*
X31687D01*
X31700Y16016D02*
Y16292D01*
X28612Y22985D02*
X29037Y23410D01*
X29037Y23410D02*
X29178Y23551D01*
X29037Y23410D02*
X29178Y23551D01*
X29037Y23410D02*
X30309Y24683D01*
X29800Y24173D02*
Y26677D01*
X29700Y24073D02*
Y26777D01*
X29900Y24273D02*
Y26577D01*
X29744Y26733D02*
X30168Y26309D01*
X29744Y26733D02*
X30168Y26309D01*
X30100Y24473D02*
Y26377D01*
X30000Y24373D02*
Y26477D01*
X30125Y17700D02*
X30292D01*
X30168Y24541D02*
X30309Y24683D01*
X30168Y24541D02*
X30309Y24683D01*
X30200Y24573D02*
Y26277D01*
X30300Y24673D02*
Y26177D01*
X30168Y26309D02*
X30309Y26167D01*
X30168Y26309D02*
X30309Y26167D01*
X28700Y23073D02*
Y27777D01*
X28600Y22973D02*
Y27877D01*
X28900Y23273D02*
Y27577D01*
X28800Y23173D02*
Y27677D01*
X29100Y23473D02*
Y27377D01*
X29000Y23373D02*
Y27477D01*
X29037Y27440D02*
X29178Y27299D01*
X29037Y27440D02*
X29178Y27299D01*
X29037Y27440D02*
X29178Y27299D01*
X29300Y23673D02*
Y27177D01*
X29200Y23573D02*
Y27277D01*
X29600Y23973D02*
Y26877D01*
X29400Y23773D02*
Y27077D01*
X29500Y23873D02*
Y26977D01*
X29178Y27299D02*
X29602Y26875D01*
X29178Y27299D02*
X29602Y26875D01*
X29602Y26875D02*
X29744Y26733D01*
X29602Y26875D02*
X29744Y26733D01*
X29602Y26875D02*
X29744Y26733D01*
X30125Y17400D02*
X30592D01*
X30125Y17500D02*
X30492D01*
X30125Y17200D02*
X30792D01*
X30125Y17300D02*
X30692D01*
X30125Y17600D02*
X30392D01*
X30168Y26309D02*
X30309Y26167D01*
X30309Y24683D02*
X30875Y25248D01*
X30309Y24683D02*
X31052Y25425D01*
X30309Y26167D02*
X30875Y25602D01*
X30500Y24873D02*
Y25977D01*
X30400Y24773D02*
Y26077D01*
X30700Y25073D02*
Y25777D01*
X30600Y24973D02*
Y25877D01*
X30900Y25273D02*
Y25577D01*
X30800Y25173D02*
Y25677D01*
X31000Y25373D02*
Y25477D01*
X30309Y26167D02*
X30875Y25602D01*
X31052Y25425D01*
X34100Y29875D02*
Y30029D01*
X33946Y29875D02*
X35515Y31443D01*
X33946Y29875D02*
X36438D01*
X33971Y29900D02*
X36438D01*
X34200Y29875D02*
Y30129D01*
X34300Y29875D02*
Y30229D01*
X34071Y30000D02*
X36438D01*
X34171Y30100D02*
X36438D01*
X34271Y30200D02*
X36438D01*
X34400Y29875D02*
Y30329D01*
X34500Y29875D02*
Y30429D01*
X34600Y29875D02*
Y30529D01*
X34700Y29875D02*
Y30629D01*
X34800Y29875D02*
Y30729D01*
X34900Y29875D02*
Y30829D01*
X35000Y29875D02*
Y30929D01*
X35100Y29875D02*
Y31029D01*
X35200Y29875D02*
Y31129D01*
X35300Y29875D02*
Y31229D01*
X35400Y14232D02*
Y14360D01*
X35336Y14232D02*
X36812D01*
X35500D02*
Y14831D01*
X35372Y14300D02*
X36812D01*
X35416Y14400D02*
X36812D01*
X35450Y14500D02*
X36812D01*
X35475Y14600D02*
X36812D01*
X35491Y14700D02*
X36812D01*
X35600Y14232D02*
Y15068D01*
X35700Y14232D02*
Y15099D01*
X36812Y14232D02*
Y14732D01*
X36837Y14457D02*
Y14732D01*
X35500Y14869D02*
Y15045D01*
X35499Y14800D02*
X36837D01*
X35499Y14900D02*
X36837D01*
X35491Y15000D02*
X36837D01*
X35800Y14232D02*
Y15141D01*
X35900Y14232D02*
Y15192D01*
X36000Y14232D02*
Y15257D01*
X36100Y14232D02*
Y15336D01*
X36200Y14232D02*
Y15425D01*
X35701Y15100D02*
X36837D01*
X35913Y15200D02*
X36837D01*
X36057Y15300D02*
X36837D01*
X36300Y14232D02*
Y15425D01*
X36400Y14232D02*
Y15425D01*
X36500Y14232D02*
Y15425D01*
X36600Y14232D02*
Y15425D01*
X36700Y14232D02*
Y15425D01*
X36800Y14232D02*
Y15425D01*
X36837Y14732D02*
Y15425D01*
X36168Y15400D02*
X36837D01*
X36192Y15425D02*
X36837D01*
X42512Y13800D02*
X43095D01*
X42512Y11632D02*
Y14457D01*
Y13900D02*
X43095D01*
X42512Y14000D02*
X43095D01*
X42512Y14100D02*
X43095D01*
X42512Y14200D02*
X43095D01*
X42512Y14300D02*
X43095D01*
X42512Y14400D02*
X43095D01*
X42537Y14500D02*
X43095D01*
X42537Y14600D02*
X43095D01*
X42512Y14457D02*
Y14732D01*
X42537Y14700D02*
X43095D01*
X42537Y14800D02*
X43095D01*
X42537Y14900D02*
X43095D01*
X42537Y15000D02*
X43095D01*
X42537Y15100D02*
X43095D01*
X42537Y15200D02*
X43095D01*
X42537Y15300D02*
X43095D01*
X42537Y15400D02*
X43095D01*
X42537Y15500D02*
X43095D01*
X42537Y15600D02*
X43095D01*
X42537Y15700D02*
X43095D01*
X42537Y15800D02*
X43095D01*
X42537Y15900D02*
X43095D01*
X42537Y16000D02*
X43095D01*
X42537Y16100D02*
X43095D01*
X42600Y4365D02*
Y19312D01*
X42700Y3895D02*
Y19312D01*
X42800Y3499D02*
Y19312D01*
X42900Y3491D02*
Y19312D01*
X43000Y3476D02*
Y19312D01*
X43095Y13350D02*
Y16850D01*
X42537Y14457D02*
Y17557D01*
Y16200D02*
X43095D01*
X42537Y16300D02*
X43095D01*
X42537Y16400D02*
X43095D01*
X41200Y17557D02*
Y17737D01*
X41300Y17557D02*
Y17872D01*
X41009Y17557D02*
X42537D01*
X41400D02*
Y18060D01*
Y19040D02*
Y19312D01*
X41500Y17557D02*
Y18530D01*
Y18570D02*
Y19312D01*
X41600Y17557D02*
Y19312D01*
X41700Y17557D02*
Y19312D01*
X41800Y17557D02*
Y19312D01*
X41900Y17557D02*
Y19312D01*
X42000Y17557D02*
Y19312D01*
X42100Y17557D02*
Y19312D01*
X42200Y17557D02*
Y19312D01*
X42300Y17557D02*
Y19312D01*
X42400Y17557D02*
Y19312D01*
X35400Y29875D02*
Y31329D01*
X35500Y29875D02*
Y31429D01*
X35600Y29875D02*
Y31443D01*
X35700Y29875D02*
Y31443D01*
X35800Y29875D02*
Y31443D01*
X35900Y29875D02*
Y31443D01*
X36000Y29875D02*
Y31443D01*
X36100Y29875D02*
Y31443D01*
X36200Y29875D02*
Y31443D01*
X36300Y29875D02*
Y31443D01*
X36400Y29875D02*
Y31443D01*
X42500Y17557D02*
Y19312D01*
X36438Y29875D02*
Y30543D01*
X42138Y29873D02*
Y30543D01*
X42200Y29843D02*
Y31093D01*
X42300Y29843D02*
Y31069D01*
X42400Y29843D02*
Y31052D01*
X42500Y29843D02*
Y31044D01*
X42600Y29843D02*
Y31044D01*
X41372Y18000D02*
X43250D01*
X41416Y18100D02*
X43225D01*
X41250Y17800D02*
X43328D01*
X41318Y17900D02*
X43284D01*
X41450Y18200D02*
X43209D01*
X41475Y18300D02*
X43201D01*
X41491Y18400D02*
X43201D01*
X41499Y18500D02*
X43209D01*
X41499Y18600D02*
X43225D01*
X42537Y16500D02*
X43095D01*
X42537Y16600D02*
X43095D01*
X42537Y16700D02*
X43095D01*
X42537Y16800D02*
X43095D01*
X43100Y16850D02*
Y18782D01*
X43200Y16850D02*
Y18782D01*
X43300Y16850D02*
Y17860D01*
X41491Y18700D02*
X43250D01*
X43012Y18782D02*
X43277D01*
X41475Y18800D02*
X43012D01*
X41450Y18900D02*
X43012D01*
X41416Y19000D02*
X43012D01*
X41373Y19100D02*
X43012D01*
X41318Y19200D02*
X43012D01*
X41241Y19312D02*
X43012D01*
X41250Y19300D02*
X43012D01*
X42138Y29900D02*
X43012D01*
X42138Y30000D02*
X43012D01*
X42700Y29843D02*
Y31052D01*
X42800Y29843D02*
Y31069D01*
X43012Y18782D02*
Y19312D01*
X42167Y29843D02*
X43012D01*
X43012Y19312D02*
Y19482D01*
X42900Y29843D02*
Y31093D01*
X43000Y29843D02*
Y31127D01*
X42138Y30100D02*
X43012D01*
X42138Y30200D02*
X43012D01*
Y29843D02*
Y30532D01*
X43700Y3119D02*
Y3868D01*
X43800Y3015D02*
Y3868D01*
X43720Y3100D02*
X44300D01*
X43500Y3276D02*
Y3868D01*
X43600Y3205D02*
Y3868D01*
X43606Y3200D02*
X44414D01*
X43260Y3400D02*
X44760D01*
X43461Y3300D02*
X44559D01*
X43952Y2800D02*
X44068D01*
X44000Y2711D02*
Y3868D01*
X43889Y2900D02*
X44131D01*
X44100Y2853D02*
Y3868D01*
X43812Y3000D02*
X44208D01*
X43900Y2884D02*
Y3868D01*
X44200Y2991D02*
Y3868D01*
X44300Y3100D02*
Y3868D01*
X44400Y3189D02*
Y3868D01*
X43400Y6968D02*
Y8150D01*
X43500Y6968D02*
Y8150D01*
X43600Y6968D02*
Y8150D01*
X43700Y6968D02*
Y8150D01*
X43800Y6968D02*
Y8150D01*
X43900Y6968D02*
Y8150D01*
X44000Y6968D02*
Y8150D01*
X44100Y6968D02*
Y8150D01*
X44200Y6968D02*
Y8150D01*
X44500Y3262D02*
Y3868D01*
X44300Y6968D02*
Y8150D01*
X44600Y3324D02*
Y3868D01*
X44700Y3374D02*
Y3868D01*
X44800Y3415D02*
Y3868D01*
X44400Y6968D02*
Y8150D01*
X44500Y6968D02*
Y8150D01*
X44600Y6968D02*
Y8150D01*
X44700Y6968D02*
Y8150D01*
X44800Y6968D02*
Y8150D01*
X44900Y3447D02*
Y3868D01*
X45000Y3472D02*
Y3868D01*
X42755Y3500D02*
X45265D01*
X45100Y3488D02*
Y3868D01*
X45200Y3498D02*
Y3868D01*
X42669Y3600D02*
X49200D01*
X42688Y3700D02*
X49200D01*
X42698Y3800D02*
X49200D01*
X46492Y2800D02*
X46608D01*
X46429Y2900D02*
X46671D01*
X46352Y3000D02*
X46748D01*
X46260Y3100D02*
X46840D01*
X46146Y3200D02*
X46954D01*
X46001Y3300D02*
X47099D01*
X45295Y3500D02*
X47805D01*
X45800Y3400D02*
X47300D01*
X45300Y3500D02*
Y3868D01*
X45400Y3495D02*
Y3868D01*
X45500Y3483D02*
Y3868D01*
X43363D02*
X46163D01*
X39907Y7000D02*
X46490D01*
X43363Y6968D02*
X46163D01*
X46000Y3301D02*
Y3868D01*
X46100Y3235D02*
Y3868D01*
X46300Y3059D02*
Y3868D01*
X46400Y2940D02*
Y3868D01*
X46500Y2787D02*
Y3868D01*
X45600Y3463D02*
Y3868D01*
X45700Y3436D02*
Y3868D01*
X45800Y3400D02*
Y3868D01*
X45900Y3355D02*
Y3868D01*
X46263D02*
X49063D01*
X44900Y6968D02*
Y8150D01*
X45000Y6968D02*
Y8150D01*
X45100Y6968D02*
Y8150D01*
X45200Y6968D02*
Y8150D01*
X43095D02*
X44365D01*
X44995D01*
X44365D02*
X44995D01*
X45635D01*
X45300Y6968D02*
Y8150D01*
X45400Y6968D02*
Y8150D01*
X45500Y6968D02*
Y8150D01*
X45600Y6968D02*
Y8150D01*
X45700Y6968D02*
Y8150D01*
X45800Y6968D02*
Y8150D01*
X45900Y6968D02*
Y8150D01*
X46000Y6968D02*
Y8150D01*
X46100Y6968D02*
Y8150D01*
X46300Y6968D02*
Y8150D01*
X43400Y11650D02*
Y13350D01*
X43500Y11650D02*
Y13350D01*
X43095Y11650D02*
X44365D01*
X43600D02*
Y13350D01*
X43700Y11650D02*
Y13350D01*
X43800Y11650D02*
Y13350D01*
X43900Y11650D02*
Y13350D01*
X43095D02*
X44365D01*
X44000Y11650D02*
Y13350D01*
X44100Y11650D02*
Y13350D01*
X44200Y11650D02*
Y13350D01*
X45635Y8150D02*
X46265D01*
X44300Y11650D02*
Y13350D01*
X44400Y11650D02*
Y13350D01*
X44365Y11650D02*
X44995D01*
X44365D02*
X44995D01*
X45635D01*
X39907Y7200D02*
X46408D01*
X39907Y7300D02*
X46381D01*
X39907Y7100D02*
X46444D01*
X39907Y7400D02*
X46362D01*
X39907Y7500D02*
X46352D01*
X39907Y7600D02*
X46350D01*
X39907Y7700D02*
X46356D01*
X39907Y7800D02*
X46370D01*
X39907Y7900D02*
X46393D01*
X46400Y6968D02*
Y7226D01*
Y7924D02*
Y8150D01*
X46263Y6968D02*
X46507D01*
X39907Y8000D02*
X46424D01*
X45635Y8150D02*
X46265D01*
X39907Y8100D02*
X46466D01*
X46265Y8150D02*
X46490D01*
X42512Y11700D02*
X49200D01*
X42512Y11800D02*
X49200D01*
X42512Y11900D02*
X49200D01*
X42512Y12000D02*
X49200D01*
X42512Y12100D02*
X49200D01*
X42512Y12200D02*
X49200D01*
X42512Y12300D02*
X49200D01*
X42512Y12400D02*
X49200D01*
X42512Y12500D02*
X49200D01*
X45635Y11650D02*
X46265D01*
X45635D02*
X46265D01*
X46905D01*
X42512Y12600D02*
X49200D01*
X42512Y12700D02*
X49200D01*
X42512Y12800D02*
X49200D01*
X42512Y12900D02*
X49200D01*
X42512Y13000D02*
X49200D01*
X42512Y13100D02*
X49200D01*
X42512Y13200D02*
X49200D01*
X46600Y2786D02*
Y3868D01*
X46700Y2940D02*
Y3868D01*
X46800Y3059D02*
Y3868D01*
X46900Y3155D02*
Y3868D01*
X47000Y3235D02*
Y3868D01*
X47100Y3301D02*
Y3868D01*
X47200Y3355D02*
Y3868D01*
X47300Y3400D02*
Y3868D01*
X48600Y800D02*
Y937D01*
X48700Y800D02*
Y1011D01*
X48340Y800D02*
X49200D01*
X48800D02*
Y1100D01*
X48900Y800D02*
Y1209D01*
X49000Y800D02*
Y1346D01*
X49100Y800D02*
Y1533D01*
X49200Y800D02*
Y1864D01*
X47400Y3435D02*
Y3868D01*
X47500Y3463D02*
Y3868D01*
X47600Y3483D02*
Y3868D01*
X47700Y3495D02*
Y3868D01*
X47800Y3500D02*
Y3868D01*
X47900Y3498D02*
Y3868D01*
X48000Y3488D02*
Y3868D01*
X48100Y3472D02*
Y3868D01*
X48200Y3447D02*
Y3868D01*
X48600Y3263D02*
Y3868D01*
X48800Y3100D02*
Y3868D01*
X48900Y2991D02*
Y3868D01*
X49000Y2854D02*
Y3868D01*
X49100Y2667D02*
Y13283D01*
X48300Y3415D02*
Y3868D01*
X48400Y3374D02*
Y3868D01*
X48500Y3324D02*
Y3868D01*
X48700Y3189D02*
Y3868D01*
X49063D02*
Y6968D01*
X48541Y900D02*
X49200D01*
X48686Y1000D02*
X49200D01*
X48800Y1100D02*
X49200D01*
X48800Y3100D02*
X49200D01*
X48686Y3200D02*
X49200D01*
X48541Y3300D02*
X49200D01*
X47835Y3500D02*
X49200D01*
X48340Y3400D02*
X49200D01*
X48892Y1200D02*
X49200D01*
X49200Y800D02*
Y1863D01*
X48969Y1300D02*
X49200D01*
X49032Y1400D02*
X49200D01*
X49085Y1500D02*
X49200D01*
X49085Y2700D02*
X49200D01*
X49032Y2800D02*
X49200D01*
X48892Y3000D02*
X49200D01*
X48969Y2900D02*
X49200D01*
X49063Y3900D02*
X49200D01*
X49063Y4000D02*
X49200D01*
X49063Y4100D02*
X49200D01*
X49063Y4200D02*
X49200D01*
X49063Y4300D02*
X49200D01*
X49063Y4400D02*
X49200D01*
X49063Y4500D02*
X49200D01*
X49063Y4600D02*
X49200D01*
X49063Y4700D02*
X49200D01*
X49063Y4800D02*
X49200D01*
X49063Y4900D02*
X49200D01*
X49063Y5000D02*
X49200D01*
X49063Y5100D02*
X49200D01*
X49063Y5200D02*
X49200D01*
X49063Y5300D02*
X49200D01*
X49063Y5400D02*
X49200D01*
X49063Y5500D02*
X49200D01*
X49063Y5600D02*
X49200D01*
X49063Y5700D02*
X49200D01*
X49063Y5800D02*
X49200D01*
X48693Y6968D02*
X49063D01*
Y5900D02*
X49200D01*
X49063Y6000D02*
X49200D01*
X48710Y7000D02*
X49200D01*
X48800Y6968D02*
Y7224D01*
X48756Y7100D02*
X49200D01*
X48792Y7200D02*
X49200D01*
X48819Y7300D02*
X49200D01*
X49063Y6100D02*
X49200D01*
X49063Y6200D02*
X49200D01*
X49063Y6300D02*
X49200D01*
X49063Y6400D02*
X49200D01*
X49063Y6500D02*
X49200D01*
X49063Y6600D02*
X49200D01*
X49063Y6700D02*
X49200D01*
X49063Y6800D02*
X49200D01*
X49063Y6900D02*
X49200D01*
X46905Y11650D02*
X47535D01*
X46905D02*
X47535D01*
X48400D02*
Y13268D01*
X48500Y11650D02*
Y13245D01*
X47535Y11650D02*
X48805D01*
X48600D02*
Y13231D01*
X48700Y11650D02*
Y13225D01*
X48900Y6968D02*
Y13237D01*
X49000Y6968D02*
Y13256D01*
X48838Y7400D02*
X49200D01*
X48848Y7500D02*
X49200D01*
X48850Y7600D02*
X49200D01*
X48805Y8150D02*
Y11650D01*
X48800D02*
Y13227D01*
X48844Y7700D02*
X49200D01*
X48830Y7800D02*
X49200D01*
X48807Y7900D02*
X49200D01*
X48776Y8000D02*
X49200D01*
X48734Y8100D02*
X49200D01*
X48805Y8200D02*
X49200D01*
X48805Y8300D02*
X49200D01*
X48805Y8400D02*
X49200D01*
X48805Y8500D02*
X49200D01*
X48805Y8600D02*
X49200D01*
X48805Y8700D02*
X49200D01*
X48805Y8800D02*
X49200D01*
X48805Y8900D02*
X49200D01*
X48805Y9000D02*
X49200D01*
X48805Y9100D02*
X49200D01*
X48805Y9200D02*
X49200D01*
X48805Y9300D02*
X49200D01*
X48805Y9400D02*
X49200D01*
X48805Y9500D02*
X49200D01*
X48805Y9600D02*
X49200D01*
X48805Y9700D02*
X49200D01*
X48805Y9800D02*
X49200D01*
X48805Y9900D02*
X49200D01*
X48805Y10000D02*
X49200D01*
X48805Y10100D02*
X49200D01*
X48805Y10200D02*
X49200D01*
X48805Y10300D02*
X49200D01*
X48805Y10400D02*
X49200D01*
X48805Y10500D02*
X49200D01*
X48805Y10600D02*
X49200D01*
X48805Y10700D02*
X49200D01*
X48805Y10800D02*
X49200D01*
X48805Y10900D02*
X49200D01*
X48805Y11000D02*
X49200D01*
X48805Y11100D02*
X49200D01*
X48805Y11200D02*
X49200D01*
X48805Y11300D02*
X49200D01*
X48805Y11400D02*
X49200D01*
X48805Y11500D02*
X49200D01*
X48805Y11600D02*
X49200D01*
X44500Y11650D02*
Y13350D01*
X44600Y11650D02*
Y13350D01*
X44700Y11650D02*
Y13350D01*
X44800Y11650D02*
Y13350D01*
X44900Y11650D02*
Y13350D01*
X43095Y16850D02*
X44365D01*
Y13350D02*
X44995D01*
X44365D02*
X44995D01*
X44365Y16850D02*
X44995D01*
X45000Y11650D02*
Y13350D01*
X45100Y11650D02*
Y13350D01*
X45200Y11650D02*
Y13350D01*
X45300Y11650D02*
Y13350D01*
X45400Y11650D02*
Y13350D01*
X45500Y11650D02*
Y13350D01*
X44995D02*
X45635D01*
X45600Y11650D02*
Y13350D01*
X43500Y16850D02*
Y17538D01*
X43400Y16850D02*
Y17672D01*
X43700Y16850D02*
Y17350D01*
X43600Y16850D02*
Y17434D01*
X43800Y16850D02*
Y17282D01*
X43900Y16850D02*
Y17228D01*
X44000Y16850D02*
Y17184D01*
X44100Y16850D02*
Y17150D01*
X44200Y16850D02*
Y17125D01*
X44300Y16850D02*
Y17109D01*
X44400Y16850D02*
Y17101D01*
X44365Y16850D02*
X44995D01*
X44500D02*
Y17101D01*
X44600Y16850D02*
Y17109D01*
X44700Y16850D02*
Y17125D01*
X44995Y16850D02*
X45635D01*
X44800D02*
Y17150D01*
X44900Y16850D02*
Y17184D01*
X45700Y11650D02*
Y13350D01*
X45800Y11650D02*
Y13350D01*
X45900Y11650D02*
Y13350D01*
X46000Y11650D02*
Y13350D01*
X46100Y11650D02*
Y13350D01*
X46200Y11650D02*
Y13350D01*
X46300Y11650D02*
Y13350D01*
X45635D02*
X46265D01*
X45635D02*
X46265D01*
X46400Y11650D02*
Y13350D01*
X46500Y11650D02*
Y13350D01*
X46600Y11650D02*
Y13350D01*
X46700Y11650D02*
Y13350D01*
X46800Y11650D02*
Y13350D01*
X46900Y11650D02*
Y13350D01*
X46265D02*
X46905D01*
X47000Y11650D02*
Y13350D01*
X47100Y11650D02*
Y13350D01*
X47200Y11650D02*
Y13350D01*
X47300Y11650D02*
Y13350D01*
X47400Y11650D02*
Y13350D01*
X42512Y13300D02*
X48299D01*
X46905Y13350D02*
X47535D01*
X42537Y16900D02*
X49200D01*
X46905Y13350D02*
X48180D01*
X47500Y11650D02*
Y13350D01*
X47600Y11650D02*
Y13350D01*
X47700Y11650D02*
Y13350D01*
X47800Y11650D02*
Y13350D01*
X47900Y11650D02*
Y13350D01*
X48000Y11650D02*
Y13350D01*
X48100Y11650D02*
Y13350D01*
X48200Y11650D02*
Y13341D01*
X48300Y11650D02*
Y13300D01*
X42537Y17200D02*
X43960D01*
X45000Y16850D02*
Y17227D01*
X45100Y16850D02*
Y17282D01*
X41062Y17600D02*
X43450D01*
X41166Y17700D02*
X43382D01*
X42537Y17300D02*
X43772D01*
X42537Y17400D02*
X43638D01*
X42537Y17500D02*
X43534D01*
X45200Y16850D02*
Y17350D01*
X45300Y16850D02*
Y17433D01*
X45400Y16850D02*
Y17537D01*
X45500Y16850D02*
Y17672D01*
X45600Y16850D02*
Y17860D01*
X45700Y16850D02*
Y18330D01*
X45635Y16850D02*
X46265D01*
X45635D02*
X46265D01*
X46905D01*
X45800D02*
Y18782D01*
X45900Y16850D02*
Y18782D01*
X46000Y16850D02*
Y18782D01*
X46100Y16850D02*
Y18782D01*
X45700Y18370D02*
Y18782D01*
X45623D02*
X45812D01*
X46200Y16850D02*
Y18782D01*
X46300Y16850D02*
Y18782D01*
X46400Y16850D02*
Y18782D01*
X46500Y16850D02*
Y18782D01*
X46600Y16850D02*
Y18782D01*
X46700Y16850D02*
Y18782D01*
X46800Y16850D02*
Y18782D01*
X46900Y16850D02*
Y18782D01*
X47000Y16850D02*
Y18782D01*
X47100Y16850D02*
Y18782D01*
X47200Y16850D02*
Y18782D01*
X47300Y16850D02*
Y18782D01*
X42537Y17000D02*
X49200D01*
X42537Y17100D02*
X49200D01*
X44940Y17200D02*
X49200D01*
X45128Y17300D02*
X49200D01*
X45262Y17400D02*
X49200D01*
X45366Y17500D02*
X49200D01*
X45450Y17600D02*
X49200D01*
X45518Y17700D02*
X49200D01*
X45572Y17800D02*
X49200D01*
X46905Y16850D02*
X47535D01*
X46905Y16850D02*
X48805D01*
X45616Y17900D02*
X49200D01*
X45650Y18000D02*
X49200D01*
X45675Y18100D02*
X49200D01*
X45691Y18200D02*
X49200D01*
X45699Y18300D02*
X49200D01*
X45699Y18400D02*
X49200D01*
X45691Y18500D02*
X49200D01*
X45812Y18782D02*
X48712D01*
X45675Y18600D02*
X49200D01*
X45650Y18700D02*
X49200D01*
X47400Y16850D02*
Y18782D01*
X47500Y16850D02*
Y18782D01*
X47600Y16850D02*
Y18782D01*
X47700Y16850D02*
Y18782D01*
X47800Y16850D02*
Y18782D01*
X47900Y16850D02*
Y18782D01*
X48000Y16850D02*
Y18782D01*
X48100Y16850D02*
Y18782D01*
X48200Y16850D02*
Y18782D01*
X48300Y16850D02*
Y18782D01*
X48805Y15800D02*
X49200D01*
X48805Y15900D02*
X49200D01*
X48805Y16000D02*
X49200D01*
X48400Y16850D02*
Y18782D01*
X48500Y16850D02*
Y18782D01*
X48805Y16100D02*
X49200D01*
X48805Y16200D02*
X49200D01*
X48805Y16300D02*
X49200D01*
Y2336D02*
Y13319D01*
X48805Y15722D02*
Y16850D01*
X49200Y2337D02*
Y13319D01*
X48974Y15700D02*
X49200D01*
X48805Y16400D02*
X49200D01*
X48805Y16500D02*
X49200D01*
X48805Y16600D02*
X49200D01*
X48805Y16700D02*
X49200D01*
X48805Y16800D02*
X49200D01*
X48600Y16850D02*
Y18782D01*
X48700Y16850D02*
Y18782D01*
X48712Y18800D02*
X49200D01*
X48712Y18900D02*
X49200D01*
X48712Y19000D02*
X49200D01*
X48712Y19100D02*
X49200D01*
X48712Y19200D02*
X49200D01*
X48712Y19300D02*
X49200D01*
X48712Y19400D02*
X49200D01*
X48900Y15713D02*
Y35352D01*
X49000Y15694D02*
Y35538D01*
X49100Y15667D02*
Y35822D01*
X49200Y15631D02*
Y49125D01*
X49200Y15631D02*
Y49125D01*
X48712Y18782D02*
Y21632D01*
Y21882D01*
Y19500D02*
X49200D01*
X48737Y21632D02*
Y24532D01*
X48800Y16850D02*
Y35209D01*
X48712Y19600D02*
X49200D01*
X48712Y19700D02*
X49200D01*
X48712Y19800D02*
X49200D01*
X48712Y19900D02*
X49200D01*
X48712Y20000D02*
X49200D01*
X48712Y20100D02*
X49200D01*
X48712Y20200D02*
X49200D01*
X48712Y20300D02*
X49200D01*
X48712Y20400D02*
X49200D01*
X48712Y20500D02*
X49200D01*
X48712Y20600D02*
X49200D01*
X48712Y20700D02*
X49200D01*
X48712Y20800D02*
X49200D01*
X48712Y20900D02*
X49200D01*
X48712Y21000D02*
X49200D01*
X48712Y21100D02*
X49200D01*
X48712Y21200D02*
X49200D01*
X48712Y21300D02*
X49200D01*
X48712Y21400D02*
X49200D01*
X48712Y21500D02*
X49200D01*
X48712Y21600D02*
X49200D01*
X48737Y21700D02*
X49200D01*
X48737Y21800D02*
X49200D01*
X48737Y21900D02*
X49200D01*
X48737Y22000D02*
X49200D01*
X48737Y22100D02*
X49200D01*
X48737Y22200D02*
X49200D01*
X48737Y22300D02*
X49200D01*
X48737Y22400D02*
X49200D01*
X48737Y22500D02*
X49200D01*
X48737Y22600D02*
X49200D01*
X48737Y22700D02*
X49200D01*
X48737Y22800D02*
X49200D01*
X48737Y22900D02*
X49200D01*
X48737Y23000D02*
X49200D01*
X48737Y23100D02*
X49200D01*
X48737Y23200D02*
X49200D01*
X48737Y23300D02*
X49200D01*
X48737Y23400D02*
X49200D01*
X48737Y23500D02*
X49200D01*
X48737Y23600D02*
X49200D01*
X48737Y23700D02*
X49200D01*
X48737Y23800D02*
X49200D01*
X48737Y23900D02*
X49200D01*
X48737Y24000D02*
X49200D01*
X48737Y24100D02*
X49200D01*
X48737Y24200D02*
X49200D01*
X48737Y24300D02*
X49200D01*
X48737Y24400D02*
X49200D01*
X48737Y24500D02*
X49200D01*
X48737Y24532D02*
Y24732D01*
Y24532D02*
Y24732D01*
Y24600D02*
X49200D01*
X48737Y24700D02*
X49200D01*
X48737Y24800D02*
X49200D01*
X48737Y24900D02*
X49200D01*
X48737Y25000D02*
X49200D01*
X48737Y25100D02*
X49200D01*
X48737Y25200D02*
X49200D01*
X48712Y27432D02*
Y27632D01*
Y30532D01*
X48737Y25300D02*
X49200D01*
X48737Y25400D02*
X49200D01*
X48737Y25500D02*
X49200D01*
X48737Y25600D02*
X49200D01*
X48737Y24732D02*
Y27632D01*
Y25700D02*
X49200D01*
X48737Y25800D02*
X49200D01*
X48737Y25900D02*
X49200D01*
X48737Y26000D02*
X49200D01*
X48737Y26100D02*
X49200D01*
X48737Y26200D02*
X49200D01*
X48737Y26300D02*
X49200D01*
X48737Y26400D02*
X49200D01*
X48737Y26500D02*
X49200D01*
X48737Y26600D02*
X49200D01*
X48737Y26700D02*
X49200D01*
X48712Y27700D02*
X49200D01*
X48712Y27800D02*
X49200D01*
X48712Y27900D02*
X49200D01*
X48712Y28000D02*
X49200D01*
X48712Y28100D02*
X49200D01*
X48712Y28200D02*
X49200D01*
X48737Y26800D02*
X49200D01*
X48737Y26900D02*
X49200D01*
X48737Y27000D02*
X49200D01*
X48737Y27100D02*
X49200D01*
X48737Y27200D02*
X49200D01*
X48737Y27300D02*
X49200D01*
X48737Y27400D02*
X49200D01*
X48737Y27500D02*
X49200D01*
X48737Y27600D02*
X49200D01*
X48712Y28300D02*
X49200D01*
X48712Y28400D02*
X49200D01*
X48712Y28500D02*
X49200D01*
X48712Y28600D02*
X49200D01*
X48712Y28700D02*
X49200D01*
X48712Y28800D02*
X49200D01*
X48712Y28900D02*
X49200D01*
X48712Y29000D02*
X49200D01*
X48712Y29100D02*
X49200D01*
X48712Y29200D02*
X49200D01*
X48712Y29300D02*
X49200D01*
X48712Y29400D02*
X49200D01*
X48712Y29500D02*
X49200D01*
X48712Y29600D02*
X49200D01*
X48712Y29700D02*
X49200D01*
X48712Y29800D02*
X49200D01*
X48712Y29900D02*
X49200D01*
X48712Y30000D02*
X49200D01*
X48712Y30100D02*
X49200D01*
X34371Y30300D02*
X36438D01*
X34471Y30400D02*
X36438D01*
X34571Y30500D02*
X36438D01*
X34871Y30800D02*
X36438D01*
X34175Y32700D02*
X34367D01*
X34175Y32800D02*
X34467D01*
X34175Y32508D02*
X34562Y32894D01*
X34175Y32900D02*
X34567D01*
X34175Y33000D02*
X34690D01*
X36500Y30543D02*
Y30743D01*
X36438D02*
Y31443D01*
X34971Y30900D02*
X36438D01*
X35071Y31000D02*
X36438D01*
X35171Y31100D02*
X36438D01*
X35271Y31200D02*
X36438D01*
X35371Y31300D02*
X36438D01*
X35471Y31400D02*
X36438D01*
X35515Y31443D02*
X36438D01*
X34175Y32508D02*
Y33475D01*
X34175Y32575D02*
Y33475D01*
X34300Y32633D02*
Y33815D01*
X34200Y32533D02*
Y33864D01*
X34500Y32833D02*
Y33759D01*
X34400Y32733D02*
Y33780D01*
X34175Y33100D02*
X34894D01*
X34600Y32930D02*
Y33750D01*
X34700Y33006D02*
Y33750D01*
X34800Y33062D02*
Y33750D01*
X34900Y33102D02*
Y33750D01*
X35000Y33128D02*
Y33750D01*
X35100Y33141D02*
Y33750D01*
X35200Y33143D02*
Y33750D01*
X35500Y33143D02*
Y33523D01*
X35300Y33143D02*
Y33723D01*
X35400Y33143D02*
Y33623D01*
X36600Y30543D02*
Y30743D01*
X36700Y30543D02*
Y30743D01*
X36438Y30543D02*
X39238D01*
X36800D02*
Y30743D01*
X36900Y30543D02*
Y30743D01*
X37000Y30543D02*
Y30743D01*
X37100Y30543D02*
Y30743D01*
X37200Y30543D02*
Y30743D01*
X37300Y30543D02*
Y30743D01*
X37400Y30543D02*
Y30743D01*
X37500Y30543D02*
Y30743D01*
X37600Y30543D02*
Y30743D01*
X37700Y30543D02*
Y30743D01*
X37800Y30543D02*
Y30743D01*
X37900Y30543D02*
Y30743D01*
X39338Y30543D02*
X42138D01*
X38000D02*
Y30743D01*
X38100Y30543D02*
Y30743D01*
X38200Y30543D02*
Y30743D01*
X38300Y30543D02*
Y30743D01*
X38400Y30543D02*
Y30743D01*
X38500Y30543D02*
Y30743D01*
X38600Y30543D02*
Y30743D01*
X35163Y33143D02*
X36438D01*
X38700Y30543D02*
Y30743D01*
X36438D02*
X39238D01*
X38800Y30543D02*
Y30743D01*
X38900Y30543D02*
Y30743D01*
X39000Y30543D02*
Y30743D01*
X39100Y30543D02*
Y30743D01*
X39200Y30543D02*
Y30743D01*
X39400Y30543D02*
Y30743D01*
X39500Y30543D02*
Y30743D01*
X39600Y30543D02*
Y30743D01*
X39700Y30543D02*
Y30743D01*
X39338D02*
X42138D01*
X39800Y30543D02*
Y30743D01*
X34175Y33400D02*
X35623D01*
X34175Y33525D02*
Y33879D01*
X34175Y33200D02*
X35938D01*
X34175Y33300D02*
X35743D01*
X34175Y33800D02*
X34338D01*
X34175Y33525D02*
Y33879D01*
Y33600D02*
X35423D01*
X34175Y33700D02*
X35323D01*
X35700Y33143D02*
Y33332D01*
X35600Y33143D02*
Y33423D01*
X35800Y33143D02*
Y33264D01*
X34625Y33750D02*
X35273D01*
X36225Y33150D02*
X36438D01*
X35273Y33750D02*
X35624Y33399D01*
X38442Y40816D02*
Y41175D01*
X38500Y40816D02*
Y41175D01*
X38442Y40816D02*
X38967D01*
X38600D02*
Y41175D01*
X28600Y42975D02*
Y43125D01*
X28700Y42975D02*
Y43125D01*
X38700Y40816D02*
Y41175D01*
X28800Y42975D02*
Y43125D01*
X28900Y42975D02*
Y43125D01*
X39200Y38602D02*
Y41175D01*
X39300Y38531D02*
Y41175D01*
X39400Y38443D02*
Y41175D01*
X39500Y38332D02*
Y41175D01*
X39600Y38188D02*
Y41175D01*
X38800Y40816D02*
Y41175D01*
X38900Y40816D02*
Y41175D01*
X38967Y38719D02*
Y40816D01*
X39000Y38706D02*
Y41175D01*
X39100Y38660D02*
Y41175D01*
X39442Y38400D02*
X40748D01*
X39338Y38500D02*
X40848D01*
X39203Y38600D02*
X40948D01*
X39015Y38700D02*
X41068D01*
X38967Y38800D02*
X41262D01*
X38967Y38900D02*
X41346D01*
X38967Y39000D02*
X41310D01*
X38967Y39100D02*
X41283D01*
X39774Y37600D02*
X39948D01*
X39770Y33843D02*
X42138D01*
X39770D02*
X41575Y35648D01*
X39766Y37700D02*
X40048D01*
X39691Y38000D02*
X40348D01*
X39648Y38100D02*
X40448D01*
X39525Y38300D02*
X40648D01*
X39593Y38200D02*
X40548D01*
X38967Y39300D02*
X41252D01*
X38967Y39400D02*
X41247D01*
X38967Y39200D02*
X41264D01*
X38967Y39500D02*
X41250D01*
X38967Y39600D02*
X41259D01*
X38967Y39700D02*
X41276D01*
X38967Y39800D02*
X41301D01*
X38442Y41175D02*
X42289D01*
X38967Y39900D02*
X41334D01*
X38967Y40000D02*
X41375D01*
X39700Y37977D02*
Y41175D01*
X38967Y40100D02*
X41426D01*
X38967Y40200D02*
X41487D01*
X38967Y40300D02*
X41562D01*
X38967Y40400D02*
X41652D01*
X38967Y40500D02*
X41762D01*
X38967Y40600D02*
X41901D01*
X38967Y40700D02*
X42090D01*
X38967Y40800D02*
X42438D01*
X39900Y30543D02*
Y30743D01*
X40000Y30543D02*
Y30743D01*
X40100Y30543D02*
Y30743D01*
X40200Y30543D02*
Y30743D01*
X40300Y30543D02*
Y30743D01*
X40400Y30543D02*
Y30743D01*
X40500Y30543D02*
Y30743D01*
X40600Y30543D02*
Y30743D01*
X40700Y30543D02*
Y30743D01*
X40800Y30543D02*
Y30743D01*
X40900Y30543D02*
Y30743D01*
X41000Y30543D02*
Y30743D01*
X41100Y30543D02*
Y30743D01*
X41200Y30543D02*
Y30743D01*
X41300Y30543D02*
Y30743D01*
X41400Y30543D02*
Y30743D01*
X41500Y30543D02*
Y30743D01*
X41600Y30543D02*
Y30743D01*
X39900Y33843D02*
Y33973D01*
X40000Y33843D02*
Y34073D01*
X40100Y33843D02*
Y34173D01*
X40200Y33843D02*
Y34273D01*
X40300Y33843D02*
Y34373D01*
X40400Y33843D02*
Y34473D01*
X40500Y33843D02*
Y34573D01*
X40600Y33843D02*
Y34673D01*
X40700Y33843D02*
Y34773D01*
X40800Y33843D02*
Y34873D01*
X40900Y33843D02*
Y34973D01*
X41700Y30543D02*
Y30743D01*
X41800Y30543D02*
Y30743D01*
X41900Y30543D02*
Y30743D01*
X41000Y33843D02*
Y35073D01*
X41100Y33843D02*
Y35173D01*
X41200Y33843D02*
Y35273D01*
X41300Y33843D02*
Y35373D01*
X41400Y33843D02*
Y35473D01*
X42138Y30300D02*
X43012D01*
X42000Y30543D02*
Y30743D01*
X42138Y30400D02*
X43012D01*
X42138Y30500D02*
X43012D01*
X42100Y30543D02*
Y30743D01*
X42138Y30800D02*
X43062D01*
X42138Y30900D02*
X43062D01*
X42138Y31000D02*
X43062D01*
X42921Y31100D02*
X43062D01*
X43100Y30532D02*
Y30732D01*
X43200Y30532D02*
Y30732D01*
X43300Y30532D02*
Y30732D01*
X43400Y30532D02*
Y30732D01*
X43500Y30532D02*
Y30732D01*
X43600Y30532D02*
Y30732D01*
X43700Y30532D02*
Y30732D01*
X43800Y30532D02*
Y30732D01*
X43900Y30532D02*
Y30732D01*
X42138Y30743D02*
Y31113D01*
Y33473D02*
Y33843D01*
X42200Y33493D02*
Y35451D01*
X42300Y33518D02*
Y35451D01*
X42138Y33600D02*
X43062D01*
X42138Y33700D02*
X43062D01*
X42138Y33800D02*
X43062D01*
X42400Y33534D02*
Y35459D01*
X42500Y33542D02*
Y35475D01*
X43062Y30732D02*
Y31153D01*
X43000Y33460D02*
Y35700D01*
X43062Y33434D02*
Y33832D01*
X42600Y33542D02*
Y35500D01*
X42700Y33534D02*
Y35534D01*
X42877Y33500D02*
X43062D01*
X42800Y33518D02*
Y35577D01*
X42900Y33493D02*
Y35632D01*
X39800Y37452D02*
Y41175D01*
X39900Y37552D02*
Y41175D01*
X39768Y37420D02*
X40949Y38601D01*
X40000Y37652D02*
Y41175D01*
X39750Y37800D02*
X40148D01*
X40100Y37752D02*
Y41175D01*
X39725Y37900D02*
X40248D01*
X41500Y33843D02*
Y35573D01*
X41600Y33843D02*
Y35632D01*
X41700Y33843D02*
Y35578D01*
X41800Y33843D02*
Y35534D01*
X41527Y35600D02*
X41657D01*
X41300Y38812D02*
Y39035D01*
X41900Y33843D02*
Y35500D01*
X41427Y35500D02*
X41900D01*
X42000Y33843D02*
Y35475D01*
X40200Y37852D02*
Y41175D01*
X40300Y37952D02*
Y41175D01*
X40400Y38052D02*
Y41175D01*
X40500Y38152D02*
Y41175D01*
X40600Y38252D02*
Y41175D01*
X40700Y38352D02*
Y41175D01*
X40800Y38452D02*
Y41175D01*
X40900Y38552D02*
Y41175D01*
X41000Y38648D02*
Y41175D01*
X41100Y38721D02*
Y41175D01*
X41200Y38775D02*
Y41175D01*
X41300Y39796D02*
Y41175D01*
X41400Y40051D02*
Y41175D01*
X41500Y40218D02*
Y41175D01*
X41600Y40345D02*
Y41175D01*
X41700Y40446D02*
Y41175D01*
X41800Y40530D02*
Y41175D01*
X41900Y40599D02*
Y41175D01*
X42000Y40657D02*
Y41175D01*
X42100Y33843D02*
Y35459D01*
X43100Y33832D02*
Y35783D01*
X43200Y33832D02*
Y35887D01*
X42300Y40772D02*
Y41173D01*
X42400Y40794D02*
Y41156D01*
X42500Y40808D02*
Y41150D01*
X42600Y40815D02*
Y41150D01*
X43300Y33832D02*
Y36022D01*
X43400Y33832D02*
Y36210D01*
X43500Y33832D02*
Y36680D01*
X43600Y33832D02*
Y37150D01*
X43500Y36720D02*
Y37150D01*
X43700Y33832D02*
Y37150D01*
X43800Y33832D02*
Y37150D01*
X43900Y33832D02*
Y37150D01*
X42100Y40704D02*
Y41175D01*
X42200Y40742D02*
Y41175D01*
X42900Y40793D02*
Y41150D01*
X43000Y40770D02*
Y41150D01*
X42700Y40815D02*
Y41150D01*
X42800Y40807D02*
Y41150D01*
X42500D02*
X42975D01*
X43500Y40526D02*
Y41319D01*
X43600Y40442D02*
Y41402D01*
X43700Y40339D02*
Y41452D01*
X43800Y40210D02*
Y41462D01*
X43900Y40041D02*
Y41481D01*
X43100Y40740D02*
Y41159D01*
X43200Y40702D02*
Y41179D01*
X43300Y40654D02*
Y41211D01*
X43400Y40596D02*
Y41257D01*
X29000Y42975D02*
Y43125D01*
X29100Y42975D02*
Y43125D01*
X29200Y42975D02*
Y43125D01*
X29300Y42975D02*
Y43125D01*
X29400Y42975D02*
Y43125D01*
X29500Y42975D02*
Y43125D01*
X29600Y42975D02*
Y43125D01*
X29700Y42975D02*
Y43125D01*
X29800Y42975D02*
Y43125D01*
X29900Y42975D02*
Y43125D01*
X30000Y42975D02*
Y43125D01*
X30100Y42975D02*
Y43125D01*
X30200Y42975D02*
Y43125D01*
X30300Y42975D02*
Y43125D01*
X30400Y42975D02*
Y43125D01*
X30500Y42975D02*
Y43125D01*
X30600Y42975D02*
Y47175D01*
X30700Y42975D02*
Y47175D01*
X30800Y42975D02*
Y47175D01*
X30900Y42975D02*
Y47175D01*
X31000Y42975D02*
Y47175D01*
X31100Y42975D02*
Y47175D01*
X31200Y42975D02*
Y47175D01*
X31300Y42975D02*
Y47175D01*
X31400Y42975D02*
Y47175D01*
X31500Y42975D02*
Y47175D01*
X31600Y42975D02*
Y47175D01*
X31700Y42975D02*
Y47175D01*
X31800Y42975D02*
Y47175D01*
X31900Y42975D02*
Y47175D01*
X32000Y42975D02*
Y47175D01*
X32100Y42975D02*
Y47175D01*
X32200Y42975D02*
Y47175D01*
X32300Y42975D02*
Y47175D01*
X32400Y42975D02*
Y47175D01*
X32500Y42975D02*
Y47175D01*
X32600Y42975D02*
Y47175D01*
X32700Y42975D02*
Y47175D01*
X32800Y42975D02*
Y47175D01*
X32900Y42975D02*
Y47175D01*
X33000Y42975D02*
Y47175D01*
X33100Y42975D02*
Y47175D01*
X33200Y42975D02*
Y47175D01*
X33300Y42975D02*
Y47175D01*
X33400Y42975D02*
Y47175D01*
X33500Y42975D02*
Y47175D01*
X33600Y42975D02*
Y47175D01*
X33700Y42975D02*
Y47175D01*
X35800Y42975D02*
Y44322D01*
X35700Y42975D02*
Y44535D01*
X36000Y42975D02*
Y44075D01*
X35900Y42975D02*
Y44181D01*
X36300Y42975D02*
Y43872D01*
X36100Y42975D02*
Y43991D01*
X36200Y42975D02*
Y43925D01*
X33800Y42975D02*
Y47175D01*
X33900Y42975D02*
Y47175D01*
X34000Y42975D02*
Y47175D01*
X34100Y42975D02*
Y47175D01*
X34200Y42975D02*
Y47175D01*
X34300Y42975D02*
Y47175D01*
X34400Y42975D02*
Y47175D01*
X34500Y42975D02*
Y47175D01*
X34600Y42975D02*
Y47175D01*
X34700Y42975D02*
Y47175D01*
X34800Y42975D02*
Y47175D01*
X34900Y42975D02*
Y47175D01*
X35000Y42975D02*
Y47175D01*
X35100Y42975D02*
Y47175D01*
X35200Y42975D02*
Y47175D01*
X35300Y42975D02*
Y47175D01*
X35400Y42975D02*
Y47175D01*
X35500Y42975D02*
Y47175D01*
X35600Y42975D02*
Y47175D01*
X28620Y43125D02*
X29250D01*
X28620D02*
X29250D01*
X30520D01*
X28620Y46575D02*
X29250D01*
X28600D02*
Y47175D01*
X28620Y46575D02*
X29250D01*
X30520D01*
Y43125D02*
Y46575D01*
Y44600D02*
X35679D01*
X30520Y44700D02*
X35655D01*
X30520Y44800D02*
X35641D01*
X30520Y44900D02*
X35635D01*
X30520Y45000D02*
X35638D01*
X30520Y45100D02*
X35650D01*
X30520Y45200D02*
X35671D01*
X28700Y46575D02*
Y47175D01*
X28800Y46575D02*
Y47175D01*
X28900Y46575D02*
Y47175D01*
X29000Y46575D02*
Y47175D01*
X29100Y46575D02*
Y47175D01*
X29200Y46575D02*
Y47175D01*
X29300Y46575D02*
Y47175D01*
X29400Y46575D02*
Y47175D01*
X29500Y46575D02*
Y47175D01*
X29600Y46575D02*
Y47175D01*
X29700Y46575D02*
Y47175D01*
X29800Y46575D02*
Y47175D01*
X29900Y46575D02*
Y47175D01*
X30000Y46575D02*
Y47175D01*
X30100Y46575D02*
Y47175D01*
X30200Y46575D02*
Y47175D01*
X30300Y46575D02*
Y47175D01*
X30400Y46575D02*
Y47175D01*
X30500Y46575D02*
Y47175D01*
X30520Y43200D02*
X42479D01*
X30520Y43300D02*
X42528D01*
X30520Y43400D02*
X42589D01*
X30520Y43500D02*
X42664D01*
X30520Y43900D02*
X36244D01*
X30520Y44000D02*
X36089D01*
X30520Y43600D02*
X42725D01*
X30520Y43700D02*
X42725D01*
X30520Y43800D02*
X36503D01*
X30520Y44200D02*
X35884D01*
X30520Y44300D02*
X35813D01*
X36400Y42975D02*
Y43831D01*
X30520Y44100D02*
X35974D01*
X30520Y44400D02*
X35757D01*
X30520Y44500D02*
X35713D01*
X30520Y45300D02*
X35702D01*
X30520Y45400D02*
X35742D01*
X30520Y45500D02*
X35795D01*
X30520Y45600D02*
X35861D01*
X30520Y45700D02*
X35945D01*
X30520Y45800D02*
X36051D01*
X30520Y45900D02*
X36192D01*
X30520Y46000D02*
X36404D01*
X30520Y46400D02*
X36351D01*
X30520Y46100D02*
X42725D01*
X30520Y46200D02*
X42734D01*
X30520Y46300D02*
X42754D01*
X35800Y45508D02*
Y46872D01*
X35700Y45295D02*
Y47085D01*
X35900Y45649D02*
Y46731D01*
X36000Y45755D02*
Y46625D01*
X36100Y45838D02*
Y46541D01*
X30520Y46500D02*
X36160D01*
X36200Y45905D02*
Y46475D01*
X36300Y45957D02*
Y46422D01*
X36500Y42975D02*
Y43801D01*
X36600Y42975D02*
Y43780D01*
X36700Y42975D02*
Y43768D01*
X36800Y42975D02*
Y43765D01*
X36900Y42975D02*
Y43765D01*
X37000Y42975D02*
Y43765D01*
X37100Y42975D02*
Y43765D01*
X36785D02*
X37785D01*
X37200Y42975D02*
Y43765D01*
X37300Y42975D02*
Y43765D01*
X37400Y42975D02*
Y43765D01*
X37500Y42975D02*
Y43765D01*
X37600Y42975D02*
Y43765D01*
X37700Y42975D02*
Y43765D01*
X37800Y42975D02*
Y43765D01*
X37900Y42975D02*
Y43771D01*
X38000Y42975D02*
Y43785D01*
X38100Y42975D02*
Y43809D01*
X38200Y42975D02*
Y43842D01*
X38300Y42975D02*
Y43886D01*
X38400Y42975D02*
Y43943D01*
X38500Y42975D02*
Y44014D01*
X38600Y42975D02*
Y44103D01*
X38700Y42975D02*
Y44218D01*
X38800Y42975D02*
Y44374D01*
X38900Y42975D02*
Y44632D01*
X39000Y42975D02*
Y47175D01*
X39100Y42975D02*
Y47175D01*
X39200Y42975D02*
Y47175D01*
X39300Y42975D02*
Y47175D01*
X39400Y42975D02*
Y47175D01*
X39500Y42975D02*
Y47175D01*
X39600Y42975D02*
Y47175D01*
X39700Y42975D02*
Y47175D01*
X39800Y42975D02*
Y47175D01*
X39900Y42975D02*
Y47175D01*
X40000Y42975D02*
Y47175D01*
X40100Y42975D02*
Y47175D01*
X38067Y43800D02*
X42725D01*
X38326Y43900D02*
X42725D01*
X38482Y44000D02*
X42725D01*
X38597Y44100D02*
X42725D01*
X38686Y44200D02*
X42725D01*
X38757Y44300D02*
X42725D01*
X38813Y44400D02*
X42725D01*
X40200Y42975D02*
Y47175D01*
X40300Y42975D02*
Y47175D01*
X40400Y42975D02*
Y47175D01*
X40500Y42975D02*
Y47175D01*
X40600Y42975D02*
Y47175D01*
X40700Y42975D02*
Y47175D01*
X40800Y42975D02*
Y47250D01*
X42725Y43567D02*
Y46075D01*
X40900Y42975D02*
Y47350D01*
X41000Y42975D02*
Y47450D01*
X41100Y42975D02*
Y47550D01*
X41200Y42975D02*
Y47650D01*
X41300Y42975D02*
Y47750D01*
X41400Y42975D02*
Y47850D01*
X41500Y42975D02*
Y47950D01*
X41600Y42975D02*
Y48050D01*
X41700Y42975D02*
Y48150D01*
X41800Y42975D02*
Y48250D01*
X41900Y42975D02*
Y48350D01*
X42000Y42975D02*
Y48450D01*
X42100Y42975D02*
Y48550D01*
X42200Y42975D02*
Y48650D01*
X42300Y42975D02*
Y48750D01*
X42400Y42975D02*
Y48850D01*
X42500Y43245D02*
Y48950D01*
X42600Y43415D02*
Y49050D01*
X42700Y43541D02*
Y49125D01*
X36600Y46050D02*
Y46330D01*
X36700Y46062D02*
Y46318D01*
X36785Y46065D02*
X37785D01*
X36800D02*
Y46315D01*
X36900Y46065D02*
Y46315D01*
X37000Y46065D02*
Y46315D01*
X37100Y46065D02*
Y46315D01*
X37200Y46065D02*
Y46315D01*
X37300Y46065D02*
Y46315D01*
X38858Y44500D02*
X42725D01*
X38891Y44600D02*
X42725D01*
X38915Y44700D02*
X42725D01*
X38929Y44800D02*
X42725D01*
X37400Y46065D02*
Y46315D01*
X37500Y46065D02*
Y46315D01*
X38935Y44900D02*
X42725D01*
X38932Y45000D02*
X42725D01*
X36400Y45998D02*
Y46381D01*
X36500Y46029D02*
Y46351D01*
X37600Y46065D02*
Y46315D01*
X38000Y46045D02*
Y46335D01*
X37700Y46065D02*
Y46315D01*
X37800Y46065D02*
Y46315D01*
X36785Y46315D02*
X37785D01*
X37900Y46059D02*
Y46321D01*
X38500Y45816D02*
Y46564D01*
X38600Y45726D02*
Y46653D01*
X38700Y45612D02*
Y46768D01*
X38800Y45456D02*
Y46924D01*
X38900Y45198D02*
Y47175D01*
X38100Y46021D02*
Y46359D01*
X38200Y45987D02*
Y46392D01*
X38300Y45943D02*
Y46436D01*
X38400Y45887D02*
Y46493D01*
X38898Y47175D02*
X40725D01*
X38709Y45600D02*
X42725D01*
X38626Y45700D02*
X42725D01*
X38520Y45800D02*
X42725D01*
X38379Y45900D02*
X42725D01*
X38166Y46000D02*
X42725D01*
X38219Y46400D02*
X42786D01*
X38411Y46500D02*
X42832D01*
X38543Y46600D02*
X42894D01*
X38644Y46700D02*
X42977D01*
X38920Y45100D02*
X42725D01*
X38899Y45200D02*
X42725D01*
X38869Y45300D02*
X42725D01*
X38828Y45400D02*
X42725D01*
X38775Y45500D02*
X42725D01*
X38723Y46800D02*
X43077D01*
X38787Y46900D02*
X43177D01*
X38837Y47000D02*
X43277D01*
X42800Y46434D02*
Y49125D01*
X38876Y47100D02*
X43377D01*
X40750Y47200D02*
X43477D01*
X40850Y47300D02*
X43577D01*
X40725Y47175D02*
X42675Y49125D01*
X40950Y47400D02*
X43677D01*
X41050Y47500D02*
X43777D01*
X41150Y47600D02*
X43877D01*
X42900Y46608D02*
Y49125D01*
X43000Y46722D02*
Y49125D01*
X43100Y46822D02*
Y49125D01*
X43200Y46922D02*
Y49125D01*
X43300Y47022D02*
Y49125D01*
X43400Y47122D02*
Y49125D01*
X43500Y47222D02*
Y49125D01*
X43600Y47322D02*
Y49125D01*
X43700Y47422D02*
Y49125D01*
X43800Y47522D02*
Y49125D01*
X44000Y30532D02*
Y30732D01*
X44100Y30532D02*
Y30732D01*
X44200Y30532D02*
Y30732D01*
X44300Y30532D02*
Y30732D01*
X44400Y30532D02*
Y30732D01*
X44500Y30532D02*
Y30732D01*
X44600Y30532D02*
Y30732D01*
X44700Y30532D02*
Y30732D01*
X44800Y30532D02*
Y30732D01*
X44900Y30532D02*
Y30732D01*
X45000Y30532D02*
Y30732D01*
X45100Y30532D02*
Y30732D01*
X45200Y30532D02*
Y30732D01*
X45300Y30532D02*
Y30732D01*
X45400Y30532D02*
Y30732D01*
X45500Y30532D02*
Y30732D01*
X45600Y30532D02*
Y30732D01*
X45700Y30532D02*
Y30732D01*
X44000Y33832D02*
Y37150D01*
X44100Y33832D02*
Y37150D01*
X44200Y33832D02*
Y37150D01*
X44300Y33832D02*
Y37150D01*
X44400Y33832D02*
Y37150D01*
X44500Y33832D02*
Y37150D01*
X44600Y33832D02*
Y37150D01*
X44700Y33832D02*
Y37153D01*
X44800Y33832D02*
Y37168D01*
X44900Y33832D02*
Y37196D01*
X45000Y33832D02*
Y37237D01*
X45800Y30532D02*
Y30732D01*
X45100Y33832D02*
Y37295D01*
X45200Y33832D02*
Y37374D01*
X45300Y33832D02*
Y37473D01*
X45400Y33832D02*
Y37573D01*
X45500Y33832D02*
Y37673D01*
X45600Y33832D02*
Y37773D01*
X45700Y33832D02*
Y37873D01*
X43012Y30532D02*
X45912D01*
X45900D02*
Y30732D01*
X45912Y30532D02*
X48712D01*
X46000D02*
Y30732D01*
X43062Y30732D02*
X45862D01*
X43062Y33832D02*
X45962D01*
X34671Y30600D02*
X49200D01*
X34771Y30700D02*
X49200D01*
X45862Y30732D02*
X48762D01*
X46100Y30532D02*
Y30732D01*
X46200Y30532D02*
Y30732D01*
X46300Y30532D02*
Y30732D01*
X46400Y30532D02*
Y30732D01*
X46500Y30532D02*
Y30732D01*
X46600Y30532D02*
Y30732D01*
X46700Y30532D02*
Y30732D01*
X46800Y30532D02*
Y30732D01*
X46900Y30532D02*
Y30732D01*
X45900Y33832D02*
Y35822D01*
X45800Y33832D02*
Y37975D01*
X45962Y33832D02*
X48762D01*
X39827Y33900D02*
X49200D01*
X39927Y34000D02*
X49200D01*
X40027Y34100D02*
X49200D01*
X40127Y34200D02*
X49200D01*
X40227Y34300D02*
X49200D01*
X40327Y34400D02*
X49200D01*
X46100Y33832D02*
Y35352D01*
X46000Y33832D02*
Y35538D01*
X46400Y33832D02*
Y34995D01*
X46200Y33832D02*
Y35209D01*
X46300Y33832D02*
Y35092D01*
X46600Y33832D02*
Y34842D01*
X46500Y33832D02*
Y34913D01*
X46800Y33832D02*
Y34731D01*
X46700Y33832D02*
Y34782D01*
X46900Y33832D02*
Y34688D01*
X41327Y35400D02*
X46071D01*
X42600Y35500D02*
X46018D01*
X41127Y35200D02*
X46207D01*
X41227Y35300D02*
X46134D01*
X43117Y35800D02*
X45906D01*
X43210Y35900D02*
X45882D01*
X42843Y35600D02*
X45973D01*
X43000Y35700D02*
X45936D01*
X43286Y36000D02*
X45865D01*
X43347Y36100D02*
X45855D01*
X43396Y36200D02*
X45850D01*
X43434Y36300D02*
X45852D01*
X43463Y36400D02*
X45859D01*
X43484Y36500D02*
X45873D01*
X43496Y36600D02*
X45893D01*
X43500Y36700D02*
X45920D01*
X43496Y36800D02*
X45953D01*
X43484Y36900D02*
X45994D01*
X43416Y37150D02*
X44625D01*
X43464Y37000D02*
X46043D01*
X43434Y37100D02*
X46101D01*
X43807Y40200D02*
X44027D01*
X43733Y40300D02*
X44102D01*
X43643Y40400D02*
X44192D01*
X43394Y40600D02*
X44440D01*
X43533Y40500D02*
X44302D01*
X45900Y36628D02*
Y38115D01*
X44912Y37200D02*
X46169D01*
X46000Y36912D02*
Y38276D01*
X46100Y37098D02*
Y38354D01*
X45226Y37399D02*
X45763Y37936D01*
X45107Y37300D02*
X46248D01*
X46200Y37241D02*
Y38449D01*
X40627Y34700D02*
X46870D01*
X40727Y34800D02*
X46668D01*
X40427Y34500D02*
X49200D01*
X40527Y34600D02*
X47214D01*
X40927Y35000D02*
X46395D01*
X41027Y35100D02*
X46293D01*
X40827Y34900D02*
X46517D01*
X45227Y37400D02*
X46341D01*
X45327Y37500D02*
X46452D01*
X45427Y37600D02*
X46588D01*
X45527Y37700D02*
X46760D01*
X45627Y37800D02*
X47008D01*
X45942Y38200D02*
X47033D01*
X45727Y37900D02*
X49200D01*
X45821Y38000D02*
X49200D01*
X45891Y38100D02*
X47249D01*
X46300Y37358D02*
Y38566D01*
X46033Y38300D02*
X46882D01*
X46151Y38400D02*
X46764D01*
X46246Y38500D02*
X46668D01*
X46273Y40300D02*
X46642D01*
X46183Y40400D02*
X46732D01*
X45934Y40600D02*
X46980D01*
X46073Y40500D02*
X46842D01*
X46400Y37455D02*
Y38716D01*
X46500Y37537D02*
Y38742D01*
X46800Y37719D02*
Y38367D01*
X46600Y37608D02*
Y38586D01*
X46700Y37668D02*
Y38465D01*
X46390Y38700D02*
X46524D01*
X46347Y40200D02*
X46567D01*
X46900Y37762D02*
Y38286D01*
X46325Y38600D02*
X46589D01*
X47000Y30532D02*
Y30732D01*
X47100Y30532D02*
Y30732D01*
X47200Y30532D02*
Y30732D01*
X47300Y30532D02*
Y30732D01*
X47400Y30532D02*
Y30732D01*
X47500Y30532D02*
Y30732D01*
X47600Y30532D02*
Y30732D01*
X47700Y30532D02*
Y30732D01*
X47800Y30532D02*
Y30732D01*
X47900Y30532D02*
Y30732D01*
X48000Y30532D02*
Y30732D01*
X48100Y30532D02*
Y30732D01*
X48200Y30532D02*
Y30732D01*
X48300Y30532D02*
Y30732D01*
X48400Y30532D02*
Y30732D01*
X48500Y30532D02*
Y30732D01*
X48600Y30532D02*
Y30732D01*
X48700Y30532D02*
Y30732D01*
X47000Y33832D02*
Y34653D01*
X47100Y33832D02*
Y34624D01*
X47300Y33832D02*
Y34587D01*
X47200Y33832D02*
Y34603D01*
X47400Y33832D02*
Y34578D01*
X47500Y33832D02*
Y34575D01*
X47600Y33832D02*
Y34578D01*
X47700Y33832D02*
Y34587D01*
X47800Y33832D02*
Y34603D01*
X47900Y33832D02*
Y34624D01*
X48000Y33832D02*
Y34653D01*
X48100Y33832D02*
Y34688D01*
X48200Y33832D02*
Y34731D01*
X48300Y33832D02*
Y34782D01*
X48400Y33832D02*
Y34842D01*
X48500Y33832D02*
Y34913D01*
X48600Y33832D02*
Y34995D01*
X48712Y30200D02*
X49200D01*
X48712Y30300D02*
X49200D01*
X48712Y30400D02*
X49200D01*
X48712Y30500D02*
X49200D01*
X48762Y30800D02*
X49200D01*
X48762Y30900D02*
X49200D01*
X48762Y31000D02*
X49200D01*
X48762Y31100D02*
X49200D01*
X48762Y31200D02*
X49200D01*
X48762Y31300D02*
X49200D01*
X48762Y31400D02*
X49200D01*
X48762Y31500D02*
X49200D01*
X48762Y31600D02*
X49200D01*
X48762Y31700D02*
X49200D01*
X48762Y31800D02*
X49200D01*
X48762Y31900D02*
X49200D01*
X48762Y32000D02*
X49200D01*
X48762Y32100D02*
X49200D01*
X48762Y32200D02*
X49200D01*
X48762Y32300D02*
X49200D01*
X48762Y32400D02*
X49200D01*
X48762Y32500D02*
X49200D01*
X48762Y32600D02*
X49200D01*
X48762Y32700D02*
X49200D01*
X48762Y32800D02*
X49200D01*
X48762Y32900D02*
X49200D01*
X48762Y33000D02*
X49200D01*
X48762Y30732D02*
Y33832D01*
Y33100D02*
X49200D01*
X48762Y33200D02*
X49200D01*
X48762Y33300D02*
X49200D01*
X48762Y33400D02*
X49200D01*
X48762Y33500D02*
X49200D01*
X48762Y33600D02*
X49200D01*
X48762Y33700D02*
X49200D01*
X48762Y33800D02*
X49200D01*
X47785Y34600D02*
X49200D01*
X47300Y37863D02*
Y38082D01*
X47400Y37872D02*
Y38054D01*
X47500Y37875D02*
Y38034D01*
X47600Y37872D02*
Y38021D01*
X47700Y37863D02*
Y38016D01*
X48129Y34700D02*
X49200D01*
X48700Y33832D02*
Y35093D01*
X48331Y34800D02*
X49200D01*
X48483Y34900D02*
X49200D01*
X48605Y35000D02*
X49200D01*
X48707Y35100D02*
X49200D01*
X48793Y35200D02*
X49200D01*
X48866Y35300D02*
X49200D01*
X48929Y35400D02*
X49200D01*
X47100Y37826D02*
Y38164D01*
X47000Y37797D02*
Y38219D01*
X48000Y37797D02*
Y38042D01*
X48100Y37762D02*
Y38066D01*
X47800Y37847D02*
Y38017D01*
X47200Y37847D02*
Y38119D01*
X47900Y37826D02*
Y38026D01*
X48700Y37357D02*
Y38409D01*
X48800Y37241D02*
Y38516D01*
X48900Y37098D02*
Y38651D01*
X49000Y36912D02*
Y38832D01*
X49100Y36628D02*
Y39140D01*
X48200Y37719D02*
Y38098D01*
X48300Y37668D02*
Y38138D01*
X48400Y37608D02*
Y38188D01*
X48500Y37537D02*
Y38248D01*
X48600Y37455D02*
Y38321D01*
X48831Y37200D02*
X49200D01*
X48752Y37300D02*
X49200D01*
X48658Y37400D02*
X49200D01*
X48547Y37500D02*
X49200D01*
X48412Y37600D02*
X49200D01*
X48240Y37700D02*
X49200D01*
X47992Y37800D02*
X49200D01*
X48206Y38100D02*
X49200D01*
X48421Y38200D02*
X49200D01*
X48982Y35500D02*
X49200D01*
X49027Y35600D02*
X49200D01*
X49064Y35700D02*
X49200D01*
X49094Y35800D02*
X49200D01*
X49080Y36700D02*
X49200D01*
X49046Y36800D02*
X49200D01*
X49005Y36900D02*
X49200D01*
X48957Y37000D02*
X49200D01*
X48899Y37100D02*
X49200D01*
X48573Y38300D02*
X49200D01*
X48691Y38400D02*
X49200D01*
X48786Y38500D02*
X49200D01*
X48865Y38600D02*
X49200D01*
X48930Y38700D02*
X49200D01*
X48813Y40300D02*
X49200D01*
X48723Y40400D02*
X49200D01*
X48474Y40600D02*
X49200D01*
X48613Y40500D02*
X49200D01*
X48985Y38800D02*
X49200D01*
X49029Y38900D02*
X49200D01*
X49064Y39000D02*
X49200D01*
X49091Y39100D02*
X49200D01*
X49098Y39700D02*
X49200D01*
X49073Y39800D02*
X49200D01*
X49041Y39900D02*
X49200D01*
X48999Y40000D02*
X49200D01*
X48949Y40100D02*
X49200D01*
X48887Y40200D02*
X49200D01*
X44000Y40157D02*
Y41508D01*
X44100Y40297D02*
Y41544D01*
X44200Y40408D02*
Y41590D01*
X44300Y40498D02*
Y41648D01*
X44400Y40573D02*
Y41719D01*
X44500Y40635D02*
Y41807D01*
X43205Y40700D02*
X44630D01*
X42857Y40800D02*
X44978D01*
X44600Y40686D02*
Y41918D01*
X44700Y40728D02*
Y42062D01*
X45700Y40718D02*
Y43765D01*
X45800Y40674D02*
Y43765D01*
X44800Y40761D02*
Y42273D01*
X44525Y43800D02*
X45635D01*
X44525Y43900D02*
X45635D01*
X44525Y44000D02*
X45635D01*
X44525Y43567D02*
Y45702D01*
X44600Y43482D02*
Y45777D01*
X44525Y44100D02*
X45635D01*
X44700Y43338D02*
Y45877D01*
X44525Y44200D02*
X45635D01*
X44525Y44300D02*
X45635D01*
X44525Y44400D02*
X45635D01*
X44525Y44500D02*
X45635D01*
X44525Y44600D02*
X45635D01*
X44900Y40786D02*
Y46077D01*
X45000Y40803D02*
Y46177D01*
X45400Y40799D02*
Y46565D01*
X45500Y40780D02*
Y46565D01*
X45600Y40753D02*
Y46565D01*
X44800Y43127D02*
Y45977D01*
X45100Y40813D02*
Y46277D01*
X45635Y43765D02*
Y46065D01*
X45200Y40816D02*
Y46377D01*
X45300Y40811D02*
Y46477D01*
X38442Y40900D02*
X49200D01*
X38442Y41000D02*
X49200D01*
X38442Y41100D02*
X49200D01*
X43270Y41200D02*
X49200D01*
X43472Y41300D02*
X49200D01*
X43597Y41400D02*
X49200D01*
X43974Y41500D02*
X49200D01*
X44218Y41600D02*
X49200D01*
X45745Y40700D02*
X47170D01*
X45397Y40800D02*
X47518D01*
X44375Y41700D02*
X49200D01*
X44492Y41800D02*
X49200D01*
X44585Y41900D02*
X49200D01*
X44661Y42000D02*
X49200D01*
X44722Y42100D02*
X49200D01*
X44771Y42200D02*
X49200D01*
X44809Y42300D02*
X49200D01*
X44838Y42400D02*
X49200D01*
X44859Y42500D02*
X49200D01*
X44871Y42600D02*
X49200D01*
X44771Y43200D02*
X49200D01*
X44722Y43300D02*
X49200D01*
X44661Y43400D02*
X49200D01*
X44586Y43500D02*
X49200D01*
X44525Y43600D02*
X49200D01*
X44525Y43700D02*
X49200D01*
X45900Y40621D02*
Y43765D01*
X46000Y40556D02*
Y43765D01*
X44875Y42700D02*
X49200D01*
X46100Y40477D02*
Y43765D01*
X46200Y40382D02*
Y43765D01*
X44871Y42800D02*
X49200D01*
X45635Y43765D02*
X48935D01*
X44859Y42900D02*
X49200D01*
X44839Y43000D02*
X49200D01*
X44809Y43100D02*
X49200D01*
X41250Y47700D02*
X43977D01*
X41350Y47800D02*
X44077D01*
X44525Y44700D02*
X45635D01*
X42989Y46712D02*
X44378Y48101D01*
X41450Y47900D02*
X44177D01*
X41550Y48000D02*
X44277D01*
X41650Y48100D02*
X44377D01*
X41750Y48200D02*
X44496D01*
X41850Y48300D02*
X44679D01*
X44525Y44800D02*
X45635D01*
X44525Y44900D02*
X45635D01*
X44525Y45000D02*
X45635D01*
X44525Y45100D02*
X45635D01*
X44525Y45200D02*
X45635D01*
X44525Y45702D02*
X45388Y46565D01*
X44525Y45300D02*
X45635D01*
X44525Y45400D02*
X45635D01*
X44525Y45500D02*
X45635D01*
X43900Y47622D02*
Y49125D01*
X44000Y47722D02*
Y49125D01*
X44100Y47822D02*
Y49125D01*
X44200Y47922D02*
Y49125D01*
X44300Y48022D02*
Y49125D01*
X44400Y48122D02*
Y49125D01*
X44500Y48203D02*
Y49125D01*
X44600Y48263D02*
Y49125D01*
X44700Y48308D02*
Y49125D01*
X44800Y48339D02*
Y49125D01*
X44900Y48357D02*
Y49125D01*
X45000Y48365D02*
Y49125D01*
X45100Y48365D02*
Y49125D01*
X45200Y48365D02*
Y49125D01*
X45300Y48365D02*
Y49125D01*
X45400Y48365D02*
Y49125D01*
X45500Y48365D02*
Y49125D01*
X44525Y45600D02*
X45635D01*
X44525Y45700D02*
X45635D01*
X44623Y45800D02*
X45635D01*
X44723Y45900D02*
X45635D01*
X44823Y46000D02*
X45635D01*
X45223Y46400D02*
X46351D01*
X44923Y46100D02*
X49200D01*
X45023Y46200D02*
X49200D01*
X45123Y46300D02*
X49200D01*
X45700Y46065D02*
Y46565D01*
X45800Y46065D02*
Y46565D01*
X45635Y46065D02*
X48935D01*
X45900D02*
Y46565D01*
X46000Y46065D02*
Y46565D01*
X45388D02*
X46069D01*
X45323Y46500D02*
X46160D01*
X46100Y46065D02*
Y46541D01*
X41950Y48400D02*
X46116D01*
X42050Y48500D02*
X46284D01*
X42150Y48600D02*
X46600D01*
X42250Y48700D02*
X49200D01*
X42675Y49125D02*
X46027D01*
X42650Y49100D02*
X46057D01*
X42350Y48800D02*
X49200D01*
X42450Y48900D02*
X46418D01*
X42550Y49000D02*
X46200D01*
X45600Y48365D02*
Y49125D01*
X45700Y48365D02*
Y49125D01*
X45015Y48365D02*
X46069D01*
X45800D02*
Y49125D01*
X45900Y48365D02*
Y49125D01*
X46000Y48365D02*
Y49125D01*
X46100Y48388D02*
Y49066D01*
X46300Y40265D02*
Y43765D01*
X46400Y40115D02*
Y43765D01*
X46500Y40089D02*
Y43765D01*
X46600Y40246D02*
Y43765D01*
X46700Y40367D02*
Y43765D01*
X46800Y40464D02*
Y43765D01*
X46900Y40545D02*
Y43765D01*
X47000Y40612D02*
Y43765D01*
X47100Y40667D02*
Y43765D01*
X47200Y40712D02*
Y43765D01*
X47300Y40749D02*
Y43765D01*
X47400Y40777D02*
Y43765D01*
X47500Y40797D02*
Y43765D01*
X47600Y40810D02*
Y43765D01*
X47700Y40815D02*
Y43765D01*
X47800Y40814D02*
Y43765D01*
X47900Y40805D02*
Y43765D01*
X46200Y46065D02*
Y46475D01*
X46300Y46065D02*
Y46422D01*
X46400Y46065D02*
Y46381D01*
X46500Y46065D02*
Y46351D01*
X46600Y46065D02*
Y46330D01*
X46700Y46065D02*
Y46318D01*
X46800Y46065D02*
Y46315D01*
X46900Y46065D02*
Y46315D01*
X47000Y46065D02*
Y46315D01*
X48000Y40789D02*
Y43765D01*
X48100Y40765D02*
Y43765D01*
X48200Y40733D02*
Y43765D01*
X47100Y46065D02*
Y46315D01*
X47200Y46065D02*
Y46315D01*
X47300Y46065D02*
Y46315D01*
X47400Y46065D02*
Y46315D01*
X47500Y46065D02*
Y46315D01*
X48600Y40510D02*
Y43765D01*
X48700Y40423D02*
Y43765D01*
X48800Y40315D02*
Y43765D01*
X48300Y40693D02*
Y43765D01*
X48400Y40643D02*
Y43765D01*
X48285Y40700D02*
X49200D01*
X47937Y40800D02*
X49200D01*
X48500Y40583D02*
Y43765D01*
X48900Y40180D02*
Y43765D01*
X48935Y43800D02*
X49200D01*
X48935Y43900D02*
X49200D01*
X48935Y44000D02*
X49200D01*
X48935Y44100D02*
X49200D01*
X48935Y44200D02*
X49200D01*
X48935Y44300D02*
X49200D01*
X48935Y44400D02*
X49200D01*
X48935Y44500D02*
X49200D01*
X48935Y44600D02*
X49200D01*
X48935Y44700D02*
X49200D01*
X48935Y44800D02*
X49200D01*
X48935Y44900D02*
X49200D01*
X48935Y45000D02*
X49200D01*
X48935Y45100D02*
X49200D01*
X48935Y45200D02*
X49200D01*
X48935Y45300D02*
X49200D01*
X48935Y43765D02*
Y46065D01*
X49000Y39999D02*
Y49125D01*
X48935Y45400D02*
X49200D01*
X48935Y45500D02*
X49200D01*
X49100Y39691D02*
Y49125D01*
X48935Y45600D02*
X49200D01*
X48935Y45700D02*
X49200D01*
X48935Y45800D02*
X49200D01*
X48935Y45900D02*
X49200D01*
X48935Y46000D02*
X49200D01*
X46400Y48548D02*
Y48906D01*
X46500Y48579D02*
Y48876D01*
X47600Y46065D02*
Y46315D01*
X46785D02*
X47785D01*
X46600Y48600D02*
Y48855D01*
X46700Y48612D02*
Y48843D01*
X46785Y48615D02*
X47785D01*
X46800D02*
Y48840D01*
X46900Y48615D02*
Y48840D01*
X47700Y46065D02*
Y46315D01*
X47800Y46065D02*
Y46315D01*
X47900Y46065D02*
Y46321D01*
X48000Y46065D02*
Y46335D01*
X48100Y46065D02*
Y46359D01*
X48200Y46065D02*
Y46392D01*
X48300Y46065D02*
Y46436D01*
X48400Y46065D02*
Y46493D01*
X48500Y46065D02*
Y46564D01*
X46300Y48507D02*
Y48947D01*
X46200Y48455D02*
Y49000D01*
X47000Y48615D02*
Y48840D01*
X47100Y48615D02*
Y48840D01*
X47200Y48615D02*
Y48840D01*
X47300Y48615D02*
Y48840D01*
X47400Y48615D02*
Y48840D01*
X46785D02*
X47785D01*
X47500Y48615D02*
Y48840D01*
X47600Y48615D02*
Y48840D01*
X48200Y48537D02*
Y48917D01*
X48300Y48493D02*
Y48961D01*
X48400Y48437D02*
Y49018D01*
X48500Y48366D02*
Y49089D01*
X47700Y48615D02*
Y48840D01*
X47800Y48615D02*
Y48840D01*
X47900Y48609D02*
Y48846D01*
X48000Y48595D02*
Y48860D01*
X48100Y48571D02*
Y48884D01*
X48600Y46065D02*
Y46653D01*
X48700Y46065D02*
Y46768D01*
X48219Y46400D02*
X49200D01*
X48411Y46500D02*
X49200D01*
X48543Y46600D02*
X49200D01*
X48644Y46700D02*
X49200D01*
X48723Y46800D02*
X49200D01*
X48787Y46900D02*
X49200D01*
X48800Y46065D02*
Y46923D01*
X48900Y46065D02*
Y47182D01*
X48837Y47000D02*
X49200D01*
X48876Y47100D02*
X49200D01*
X48904Y47200D02*
X49200D01*
X48923Y47300D02*
X49200D01*
X48933Y47400D02*
X49200D01*
X48935Y47500D02*
X49200D01*
X48927Y47600D02*
X49200D01*
X48911Y47700D02*
X49200D01*
X48455Y48400D02*
X49200D01*
X48286Y48500D02*
X49200D01*
X47970Y48600D02*
X49200D01*
X48152Y48900D02*
X49200D01*
X48370Y49000D02*
X49200D01*
X48543Y49125D02*
X49200D01*
X48514Y49100D02*
X49200D01*
X48800Y48006D02*
Y49125D01*
X48900Y47748D02*
Y49125D01*
X48885Y47800D02*
X49200D01*
X48850Y47900D02*
X49200D01*
X48803Y48000D02*
X49200D01*
X48600Y48277D02*
Y49125D01*
X48700Y48162D02*
Y49125D01*
X48744Y48100D02*
X49200D01*
X48576Y48300D02*
X49200D01*
X48670Y48200D02*
X49200D01*
D11*
X16330Y48000D02*
D03*
X13790Y53700D02*
D03*
X12520D02*
D03*
X15060Y48000D02*
D03*
X13790D02*
D03*
X12520D02*
D03*
D12*
X12738Y45393D02*
D03*
X15538D02*
D03*
X47613Y5418D02*
D03*
X44813D02*
D03*
X44462Y28982D02*
D03*
X47262Y28982D02*
D03*
X40688Y28993D02*
D03*
X37888D02*
D03*
X44512Y32282D02*
D03*
X40688Y32293D02*
D03*
X37888D02*
D03*
X47312Y32282D02*
D03*
X44487Y23182D02*
D03*
Y26082D02*
D03*
X47287Y23182D02*
D03*
Y26082D02*
D03*
X4413Y30140D02*
D03*
X1613D02*
D03*
X4430Y27309D02*
D03*
X1630D02*
D03*
X4388Y24445D02*
D03*
X1588Y24445D02*
D03*
X4405Y21614D02*
D03*
X1605Y21614D02*
D03*
X4388Y18775D02*
D03*
X1588D02*
D03*
X4405Y15944D02*
D03*
X1605D02*
D03*
X13763Y34768D02*
D03*
X10963Y34768D02*
D03*
X38287Y16007D02*
D03*
X41087Y16007D02*
D03*
X38212Y10107D02*
D03*
X41012Y10107D02*
D03*
X32687Y12682D02*
D03*
X35487Y12682D02*
D03*
X26612Y14482D02*
D03*
X29412Y14482D02*
D03*
X38262Y13182D02*
D03*
X41062Y13182D02*
D03*
X23963Y14443D02*
D03*
X21163Y14443D02*
D03*
X29443Y11653D02*
D03*
X26643D02*
D03*
X21132Y11622D02*
D03*
X23932D02*
D03*
X11563Y20943D02*
D03*
X8763Y20943D02*
D03*
X4413Y39543D02*
D03*
X1613Y39543D02*
D03*
X44462Y20332D02*
D03*
X47262Y20332D02*
D03*
X13738Y37518D02*
D03*
X10938Y37518D02*
D03*
X13713Y40318D02*
D03*
X10913Y40318D02*
D03*
D13*
X6657Y45413D02*
D03*
Y48213D02*
D03*
X9543Y45412D02*
D03*
X9543Y48212D02*
D03*
X11582Y9438D02*
D03*
X11582Y6638D02*
D03*
X17257Y8088D02*
D03*
Y5288D02*
D03*
X14657Y8088D02*
D03*
Y5288D02*
D03*
X35143Y4837D02*
D03*
X35143Y7637D02*
D03*
X8518Y6662D02*
D03*
X8518Y9462D02*
D03*
X7068Y12512D02*
D03*
X7068Y15312D02*
D03*
X5168Y6662D02*
D03*
X5168Y9462D02*
D03*
X38357Y7638D02*
D03*
Y4838D02*
D03*
X41568Y20762D02*
D03*
X41568Y23562D02*
D03*
X32518Y4837D02*
D03*
X32518Y7637D02*
D03*
X29743Y4862D02*
D03*
X29743Y7662D02*
D03*
X25243Y4837D02*
D03*
X25243Y7637D02*
D03*
X22122Y7668D02*
D03*
Y4868D02*
D03*
D14*
X30650Y32550D02*
D03*
Y34450D02*
D03*
X32800Y33500D02*
D03*
X32800Y32550D02*
D03*
D15*
X32800Y34450D02*
D03*
D16*
X37285Y44915D02*
D03*
X47285Y49990D02*
D03*
X47285Y52540D02*
D03*
X37285D02*
D03*
X37235Y49990D02*
D03*
X37285Y47465D02*
D03*
X47285Y55090D02*
D03*
Y57640D02*
D03*
X37310Y55090D02*
D03*
X37285Y57640D02*
D03*
X47285Y47465D02*
D03*
D17*
Y44915D02*
D03*
D18*
X29570Y54100D02*
D03*
X28300D02*
D03*
X27030D02*
D03*
X25760D02*
D03*
X21950D02*
D03*
X20680D02*
D03*
X29570Y44850D02*
D03*
X28300D02*
D03*
X27030D02*
D03*
X25760D02*
D03*
X24490D02*
D03*
X23220D02*
D03*
X21950D02*
D03*
X20680D02*
D03*
D19*
X24490Y54100D02*
D03*
X23220D02*
D03*
D20*
X46585Y15100D02*
D03*
X45315D02*
D03*
X44045D02*
D03*
X47855Y9900D02*
D03*
X46585D02*
D03*
X45315D02*
D03*
X44045D02*
D03*
D21*
X47855Y15100D02*
D03*
D22*
X15060Y53700D02*
D03*
X16330D02*
D03*
D23*
X17369Y23286D02*
X17104Y23551D01*
X18359Y24806D01*
X18624Y24541D01*
X17369Y23286D01*
Y23433D02*
X17251Y23551D01*
X18359Y24659D01*
X18477Y24541D01*
X17369Y23433D01*
X17393Y23557D02*
X18336Y24535D01*
X17935Y22720D02*
X17670Y22985D01*
X18925Y24241D01*
X19190Y23975D01*
X17935Y22720D01*
Y22868D02*
X17817Y22985D01*
X18925Y24093D01*
X19043Y23975D01*
X17935Y22868D01*
X17959Y22991D02*
X18901Y23970D01*
X18501Y22155D02*
X18236Y22420D01*
X19491Y23675D01*
X19756Y23410D01*
X18501Y22155D01*
Y22302D02*
X18383Y22420D01*
X19491Y23528D01*
X19608Y23410D01*
X18501Y22302D01*
X18524Y22426D02*
X19467Y23404D01*
X19066Y21589D02*
X18801Y21854D01*
X20056Y23109D01*
X20322Y22844D01*
X19066Y21589D01*
Y21736D02*
X18949Y21854D01*
X20056Y22962D01*
X20174Y22844D01*
X19066Y21736D01*
X19090Y21860D02*
X20033Y22838D01*
X19632Y21023D02*
X19367Y21288D01*
X20622Y22544D01*
X20887Y22278D01*
X19632Y21023D01*
Y21171D02*
X19514Y21288D01*
X20622Y22396D01*
X20740Y22278D01*
X19632Y21171D01*
X19656Y21294D02*
X20598Y22273D01*
X20198Y20458D02*
X19933Y20723D01*
X21188Y21978D01*
X21453Y21713D01*
X20198Y20458D01*
Y20605D02*
X20080Y20723D01*
X21188Y21831D01*
X21306Y21713D01*
X20198Y20605D01*
X20221Y20728D02*
X21164Y21707D01*
X20763Y19892D02*
X20498Y20157D01*
X21753Y21412D01*
X22019Y21147D01*
X20763Y19892D01*
Y20039D02*
X20646Y20157D01*
X21753Y21265D01*
X21871Y21147D01*
X20763Y20039D01*
X20787Y20163D02*
X21730Y21141D01*
X21329Y19326D02*
X21064Y19591D01*
X22319Y20846D01*
X22584Y20581D01*
X21329Y19326D01*
Y19473D02*
X21211Y19591D01*
X22319Y20699D01*
X22437Y20581D01*
X21329Y19473D01*
X21353Y19597D02*
X22295Y20576D01*
X21895Y18761D02*
X21630Y19026D01*
X22885Y20281D01*
X23150Y20016D01*
X21895Y18761D01*
Y18908D02*
X21777Y19026D01*
X22885Y20133D01*
X23003Y20016D01*
X21895Y18908D01*
X21919Y19031D02*
X22861Y20010D01*
X22461Y18195D02*
X22195Y18460D01*
X23450Y19715D01*
X23716Y19450D01*
X22461Y18195D01*
Y18342D02*
X22343Y18460D01*
X23450Y19568D01*
X23568Y19450D01*
X22461Y18342D01*
X22484Y18466D02*
X23427Y19444D01*
X23026Y17629D02*
X22761Y17894D01*
X24016Y19149D01*
X24281Y18884D01*
X23026Y17629D01*
Y17776D02*
X22908Y17894D01*
X24016Y19002D01*
X24134Y18884D01*
X23026Y17776D01*
X23050Y17900D02*
X23992Y18879D01*
X27039Y17894D02*
X26774Y17629D01*
X25519Y18884D01*
X25784Y19149D01*
X27039Y17894D01*
X26892D02*
X26774Y17776D01*
X25666Y18884D01*
X25784Y19002D01*
X26892Y17894D01*
X26768Y17918D02*
X25790Y18861D01*
X27605Y18460D02*
X27340Y18195D01*
X26084Y19450D01*
X26350Y19715D01*
X27605Y18460D01*
X27457D02*
X27340Y18342D01*
X26232Y19450D01*
X26350Y19568D01*
X27457Y18460D01*
X27334Y18484D02*
X26355Y19426D01*
X28170Y19026D02*
X27905Y18761D01*
X26650Y20016D01*
X26915Y20281D01*
X28170Y19026D01*
X28023D02*
X27905Y18908D01*
X26797Y20016D01*
X26915Y20134D01*
X28023Y19026D01*
X27899Y19049D02*
X26921Y19992D01*
X28736Y19591D02*
X28471Y19326D01*
X27216Y20581D01*
X27481Y20846D01*
X28736Y19591D01*
X28589D02*
X28471Y19473D01*
X27363Y20581D01*
X27481Y20699D01*
X28589Y19591D01*
X28465Y19615D02*
X27487Y20558D01*
X30999Y21854D02*
X30734Y21589D01*
X29479Y22844D01*
X29744Y23109D01*
X30999Y21854D01*
X30852D02*
X30734Y21736D01*
X29626Y22844D01*
X29744Y22962D01*
X30852Y21854D01*
X30728Y21878D02*
X29749Y22820D01*
X31564Y22420D02*
X31299Y22155D01*
X30044Y23410D01*
X30309Y23675D01*
X31564Y22420D01*
X31417D02*
X31299Y22302D01*
X30191Y23410D01*
X30309Y23528D01*
X31417Y22420D01*
X31294Y22444D02*
X30315Y23386D01*
X32130Y22985D02*
X31865Y22720D01*
X30610Y23975D01*
X30875Y24241D01*
X32130Y22985D01*
X31983D02*
X31865Y22868D01*
X30757Y23975D01*
X30875Y24093D01*
X31983Y22985D01*
X31859Y23009D02*
X30881Y23952D01*
X32696Y23551D02*
X32431Y23286D01*
X31176Y24541D01*
X31441Y24806D01*
X32696Y23551D01*
X32549D02*
X32431Y23433D01*
X31323Y24541D01*
X31441Y24659D01*
X32549Y23551D01*
X32425Y23575D02*
X31446Y24517D01*
X25784Y31701D02*
X25519Y31966D01*
X26774Y33221D01*
X27039Y32956D01*
X25784Y31701D01*
Y31848D02*
X25666Y31966D01*
X26774Y33074D01*
X26892Y32956D01*
X25784Y31848D01*
X25808Y31971D02*
X26750Y32950D01*
X26350Y31135D02*
X26084Y31400D01*
X27340Y32655D01*
X27605Y32390D01*
X26350Y31135D01*
Y31282D02*
X26232Y31400D01*
X27340Y32508D01*
X27457Y32390D01*
X26350Y31282D01*
X26373Y31406D02*
X27316Y32384D01*
X26915Y30569D02*
X26650Y30834D01*
X27905Y32089D01*
X28170Y31824D01*
X26915Y30569D01*
Y30717D02*
X26797Y30834D01*
X27905Y31942D01*
X28023Y31824D01*
X26915Y30717D01*
X26939Y30840D02*
X27882Y31819D01*
X27481Y30004D02*
X27216Y30269D01*
X28471Y31524D01*
X28736Y31259D01*
X27481Y30004D01*
Y30151D02*
X27363Y30269D01*
X28471Y31376D01*
X28589Y31259D01*
X27481Y30151D01*
X27505Y30274D02*
X28447Y31253D01*
X28047Y29438D02*
X27781Y29703D01*
X29037Y30958D01*
X29302Y30693D01*
X28047Y29438D01*
Y29585D02*
X27929Y29703D01*
X29037Y30811D01*
X29154Y30693D01*
X28047Y29585D01*
X28070Y29709D02*
X29013Y30687D01*
X28612Y28872D02*
X28347Y29137D01*
X29602Y30392D01*
X29867Y30127D01*
X28612Y28872D01*
Y29019D02*
X28494Y29137D01*
X29602Y30245D01*
X29720Y30127D01*
X28612Y29019D01*
X28636Y29143D02*
X29579Y30122D01*
X29178Y28306D02*
X28913Y28572D01*
X30168Y29827D01*
X30433Y29562D01*
X29178Y28306D01*
Y28454D02*
X29060Y28572D01*
X30168Y29679D01*
X30286Y29562D01*
X29178Y28454D01*
X29202Y28577D02*
X30144Y29556D01*
X29744Y27741D02*
X29479Y28006D01*
X30734Y29261D01*
X30999Y28996D01*
X29744Y27741D01*
Y27888D02*
X29626Y28006D01*
X30734Y29114D01*
X30851Y28996D01*
X29744Y27888D01*
X29767Y28012D02*
X30710Y28990D01*
X30309Y27175D02*
X30044Y27440D01*
X31299Y28695D01*
X31565Y28430D01*
X30309Y27175D01*
Y27322D02*
X30192Y27440D01*
X31299Y28548D01*
X31417Y28430D01*
X30309Y27322D01*
X30333Y27446D02*
X31276Y28424D01*
X30875Y26609D02*
X30610Y26875D01*
X31865Y28130D01*
X32130Y27865D01*
X30875Y26609D01*
Y26757D02*
X30757Y26875D01*
X31865Y27982D01*
X31983Y27865D01*
X30875Y26757D01*
X30899Y26880D02*
X31841Y27859D01*
X31441Y26044D02*
X31176Y26309D01*
X32431Y27564D01*
X32696Y27299D01*
X31441Y26044D01*
Y26191D02*
X31323Y26309D01*
X32431Y27417D01*
X32549Y27299D01*
X31441Y26191D01*
X31464Y26315D02*
X32407Y27293D01*
X18624Y26309D02*
X18359Y26044D01*
X17104Y27299D01*
X17369Y27564D01*
X18624Y26309D01*
X18477D02*
X18359Y26191D01*
X17251Y27299D01*
X17369Y27417D01*
X18477Y26309D01*
X18354Y26333D02*
X17375Y27275D01*
X19190Y26875D02*
X18925Y26609D01*
X17670Y27865D01*
X17935Y28130D01*
X19190Y26875D01*
X19043D02*
X18925Y26757D01*
X17817Y27865D01*
X17935Y27982D01*
X19043Y26875D01*
X18919Y26898D02*
X17941Y27841D01*
X19756Y27440D02*
X19491Y27175D01*
X18236Y28430D01*
X18501Y28695D01*
X19756Y27440D01*
X19608D02*
X19491Y27322D01*
X18383Y28430D01*
X18501Y28548D01*
X19608Y27440D01*
X19485Y27464D02*
X18506Y28406D01*
X20321Y28006D02*
X20056Y27741D01*
X18801Y28996D01*
X19066Y29261D01*
X20321Y28006D01*
X20174D02*
X20056Y27888D01*
X18949Y28996D01*
X19066Y29114D01*
X20174Y28006D01*
X20051Y28030D02*
X19072Y28972D01*
X20887Y28572D02*
X20622Y28306D01*
X19367Y29562D01*
X19632Y29827D01*
X20887Y28572D01*
X20740D02*
X20622Y28454D01*
X19514Y29562D01*
X19632Y29679D01*
X20740Y28572D01*
X20616Y28595D02*
X19638Y29538D01*
X21453Y29137D02*
X21188Y28872D01*
X19933Y30127D01*
X20198Y30392D01*
X21453Y29137D01*
X21306D02*
X21188Y29019D01*
X20080Y30127D01*
X20198Y30245D01*
X21306Y29137D01*
X21182Y29161D02*
X20203Y30104D01*
X22019Y29703D02*
X21753Y29438D01*
X20498Y30693D01*
X20763Y30958D01*
X22019Y29703D01*
X21871D02*
X21753Y29585D01*
X20646Y30693D01*
X20763Y30811D01*
X21871Y29703D01*
X21748Y29727D02*
X20769Y30669D01*
X22584Y30269D02*
X22319Y30004D01*
X21064Y31259D01*
X21329Y31524D01*
X22584Y30269D01*
X22437D02*
X22319Y30151D01*
X21211Y31259D01*
X21329Y31376D01*
X22437Y30269D01*
X22313Y30292D02*
X21335Y31235D01*
X23150Y30834D02*
X22885Y30569D01*
X21630Y31824D01*
X21895Y32089D01*
X23150Y30834D01*
X23003D02*
X22885Y30717D01*
X21777Y31824D01*
X21895Y31942D01*
X23003Y30834D01*
X22879Y30858D02*
X21901Y31801D01*
X23716Y31400D02*
X23450Y31135D01*
X22195Y32390D01*
X22460Y32655D01*
X23716Y31400D01*
X23568D02*
X23450Y31282D01*
X22343Y32390D01*
X22460Y32508D01*
X23568Y31400D01*
X23445Y31424D02*
X22466Y32366D01*
X24281Y31966D02*
X24016Y31701D01*
X22761Y32956D01*
X23026Y33221D01*
X24281Y31966D01*
X24134D02*
X24016Y31848D01*
X22908Y32956D01*
X23026Y33074D01*
X24134Y31966D01*
X24010Y31989D02*
X23032Y32932D01*
X30433Y21288D02*
X30168Y21023D01*
X28913Y22278D01*
X29178Y22544D01*
X30433Y21288D01*
X30286D02*
X30168Y21171D01*
X29060Y22278D01*
X29178Y22396D01*
X30286Y21288D01*
X30162Y21312D02*
X29184Y22255D01*
X29867Y20723D02*
X29602Y20458D01*
X28347Y21713D01*
X28612Y21978D01*
X29867Y20723D01*
X29720D02*
X29602Y20605D01*
X28494Y21713D01*
X28612Y21831D01*
X29720Y20723D01*
X29597Y20746D02*
X28618Y21689D01*
X29302Y20157D02*
X29037Y19892D01*
X27781Y21147D01*
X28047Y21412D01*
X29302Y20157D01*
X29154D02*
X29037Y20039D01*
X27929Y21147D01*
X28047Y21265D01*
X29154Y20157D01*
X29031Y20181D02*
X28052Y21123D01*
D24*
X47285Y52540D02*
Y55069D01*
X17600Y46350D02*
Y50025D01*
X15050Y52575D02*
Y56175D01*
X29125Y56775D02*
X29570Y56330D01*
X47275Y55080D02*
X47285Y55069D01*
X29110Y56760D02*
X29125Y56775D01*
X21950Y56225D02*
X22125Y56400D01*
X47275Y53875D02*
Y55080D01*
X29570Y54100D02*
Y56330D01*
X21950Y54100D02*
Y56225D01*
X15050Y56175D02*
X15060Y56165D01*
X16330Y48000D02*
X17600D01*
X15538Y45393D02*
X16643D01*
X17600Y46350D01*
X15050Y52575D02*
X17600Y50025D01*
X13725Y52225D02*
X15060Y50890D01*
Y48000D02*
Y50890D01*
X9500Y52225D02*
X13725D01*
X9500D02*
X9543Y52182D01*
Y48212D02*
Y52182D01*
X13675Y50200D02*
X13790Y50085D01*
Y48000D02*
Y50085D01*
X8156Y46825D02*
X9543Y48212D01*
X2800Y47200D02*
X3175Y46825D01*
X8156D01*
X6525Y52175D02*
X6657Y52043D01*
Y48213D02*
Y52043D01*
Y45413D02*
X12718D01*
X12738Y45393D01*
X27425Y48575D02*
X27475Y48525D01*
X28100Y33150D02*
Y34125D01*
X26845Y31895D02*
X28100Y33150D01*
X23220Y44850D02*
Y46845D01*
X24950Y48575D02*
X27425D01*
X23220Y46845D02*
X24950Y48575D01*
X25760Y44850D02*
Y47140D01*
X26279Y32461D02*
Y34196D01*
X25625Y47275D02*
X25760Y47140D01*
X22910Y34937D02*
X23773Y35800D01*
X32625Y32375D02*
X32800Y32550D01*
X32625Y31425D02*
Y32375D01*
X23773Y35800D02*
X29900D01*
X25760Y54100D02*
Y55565D01*
X12520Y53700D02*
Y57445D01*
X13850Y58775D01*
X22550D01*
X25760Y55565D01*
X23220Y52495D02*
Y54100D01*
X16330Y53700D02*
X18155Y51875D01*
X22600D02*
X23220Y52495D01*
X18155Y51875D02*
X22600D01*
X37310Y52565D02*
Y55090D01*
X19475Y54100D02*
X20680D01*
X19425Y53875D02*
Y54050D01*
X37285Y53800D02*
X37310Y53825D01*
X13790Y53700D02*
Y55110D01*
X19425Y54050D02*
X19475Y54100D01*
X37285Y52540D02*
X37310Y52565D01*
X42500Y42050D02*
X42975D01*
X43625Y46075D02*
X45015Y47465D01*
X17247Y17718D02*
Y17772D01*
X20693Y21218D01*
X10963Y34768D02*
X11000Y34806D01*
X37542Y40066D02*
Y42058D01*
X4388Y18775D02*
X4738Y19125D01*
X6050D01*
X21100Y22756D02*
Y23550D01*
X21012Y23800D02*
X21025D01*
X2100Y2100D02*
Y3350D01*
X11582Y5338D02*
Y6638D01*
X1605Y14544D02*
Y15944D01*
X7463Y20943D02*
X8763D01*
Y19543D02*
Y20943D01*
Y22343D01*
X9758Y23238D02*
Y24388D01*
X21132Y10222D02*
Y11622D01*
X14347Y14819D02*
X15267Y15738D01*
X14277Y16728D02*
X15267Y15738D01*
X19863Y14443D02*
X21163D01*
Y15843D01*
X1613Y30140D02*
Y31540D01*
X8608Y24388D02*
X9758D01*
Y25538D01*
Y26213D02*
Y27363D01*
X8608D02*
X9758D01*
Y28513D01*
X1689Y33233D02*
Y34433D01*
Y35633D01*
X1613Y38143D02*
Y39543D01*
Y40943D01*
X21950Y43275D02*
Y44850D01*
Y46425D01*
X36957Y4838D02*
X38357D01*
Y3538D02*
Y4838D01*
X39757D01*
X29443Y10253D02*
Y11653D01*
X30743D01*
X41012Y8707D02*
Y10107D01*
X42312D01*
X41062Y13182D02*
X42362D01*
X29412Y14482D02*
Y15882D01*
Y14482D02*
X30712D01*
X35487Y12682D02*
Y14082D01*
X41087Y16007D02*
Y17407D01*
Y16007D02*
X42387D01*
X44813Y4018D02*
Y5418D01*
X43513D02*
X44813D01*
Y6818D01*
X45315Y8300D02*
Y9900D01*
Y11500D01*
X46585Y9900D02*
Y11500D01*
X47820Y2100D02*
Y3350D01*
Y2100D02*
X49070D01*
X45315Y13500D02*
Y15100D01*
Y16700D01*
X46585Y13500D02*
Y15100D01*
Y16700D01*
X47262Y18932D02*
Y20332D01*
X48562D01*
X47262Y28982D02*
Y30382D01*
X47287Y23182D02*
X48587D01*
X47287Y26082D02*
X48587D01*
X47262Y28982D02*
X48562D01*
X29570Y43275D02*
Y44850D01*
X30370D01*
X29570D02*
Y46425D01*
X46000Y36225D02*
X47500D01*
X47312Y30882D02*
Y32282D01*
Y33682D01*
Y32282D02*
X48612D01*
X47500Y34725D02*
Y36225D01*
Y37725D01*
Y36225D02*
X49000D01*
X47727Y38166D02*
Y39416D01*
X48977D01*
X45785Y44915D02*
X47285D01*
X47727Y39416D02*
Y40666D01*
X47285Y43915D02*
Y44915D01*
Y45915D01*
Y44915D02*
X48785D01*
X20680Y42080D02*
Y44850D01*
X42975Y42050D02*
X43625Y42700D01*
Y46075D01*
X45015Y47465D02*
X47285D01*
X11000Y34806D02*
Y42075D01*
X4413Y39543D02*
X6944Y42075D01*
X42500D01*
X1613Y14456D02*
Y31275D01*
X17900Y20675D02*
Y20688D01*
Y20675D02*
X18377Y20198D01*
X18541D01*
X21100Y22756D01*
X17900Y20688D02*
X21012Y23800D01*
X21132Y11622D02*
X21163Y11653D01*
Y14443D01*
D25*
X15925Y39850D02*
X33100D01*
X35400Y37550D02*
X38525D01*
X33100Y39850D02*
X35400Y37550D01*
X15650Y39575D02*
X15925Y39850D01*
X15650Y38875D02*
Y39575D01*
X33682Y22300D02*
X38800D01*
X31936Y24046D02*
X33682Y22300D01*
X14825Y31375D02*
X15900Y32450D01*
X8450Y31025D02*
X8800Y31375D01*
X8518Y10618D02*
X9125Y11225D01*
X4413Y30140D02*
X5273Y31000D01*
X8518Y9462D02*
Y10618D01*
X35175Y36400D02*
X37475D01*
X17375Y38825D02*
X32750D01*
X35175Y36400D01*
X17000Y38450D02*
X17375Y38825D01*
X34875Y19975D02*
X39025D01*
X31370Y23480D02*
X34875Y19975D01*
X13763Y34768D02*
X15632D01*
X15450Y30450D02*
X15525Y30375D01*
X6000Y28800D02*
X6025D01*
X35900Y35550D02*
X36405Y35045D01*
X25875Y37950D02*
X32450D01*
X45162Y38537D02*
X45187Y39416D01*
X36405Y35045D02*
X36600Y34850D01*
X18075Y37150D02*
X18475Y37550D01*
X14279Y24046D02*
X17864D01*
X14250Y24075D02*
X14279Y24046D01*
X34850Y35550D02*
X35900D01*
X32450Y37950D02*
X34850Y35550D01*
X38400Y34850D02*
X41550Y38000D01*
X36600Y34850D02*
X38400D01*
X38725Y34000D02*
X41425Y36700D01*
X34625Y34600D02*
X35625D01*
X41425Y36700D02*
X42250D01*
X35625Y34600D02*
X36225Y34000D01*
X17925Y33531D02*
X21258Y30198D01*
X36225Y34000D02*
X38725D01*
X26575Y36950D02*
X32275D01*
X34625Y34600D01*
X27410Y31329D02*
X30531Y34450D01*
X30650D01*
Y32306D02*
Y32550D01*
X33700Y33400D02*
X35000D01*
X32800Y33500D02*
X33600D01*
X33700Y33400D01*
X48325Y14475D02*
X48725D01*
X47825Y14950D02*
X47850D01*
X48325Y14475D01*
X47855Y8055D02*
Y9900D01*
X47600Y7575D02*
Y7800D01*
Y7575D02*
X47613Y7562D01*
Y5418D02*
Y7562D01*
X47600Y7800D02*
X47855Y8055D01*
X41450Y1300D02*
Y3875D01*
X26650Y16050D02*
X28400Y17800D01*
X22525Y13029D02*
Y15525D01*
X27410Y19521D02*
X28400Y18531D01*
X22525Y15525D02*
X23050Y16050D01*
X22525Y13029D02*
X23932Y11622D01*
X23050Y16050D02*
X26650D01*
X17257Y8088D02*
Y14382D01*
X21626Y17625D02*
X22955Y18955D01*
X20500Y17625D02*
X21626D01*
X20210Y18325D02*
X21194D01*
X16557Y14672D02*
X20210Y18325D01*
X16557Y13687D02*
Y14672D01*
X21194Y18325D02*
X22390Y19521D01*
X14657Y11787D02*
X16557Y13687D01*
X17257Y14382D02*
X20500Y17625D01*
X18700Y11000D02*
Y14750D01*
X24765Y16875D02*
X26279Y18389D01*
X40825Y675D02*
X41450Y1300D01*
X21775Y675D02*
X40825D01*
X21100Y1350D02*
X21775Y675D01*
X21150Y1350D02*
Y3200D01*
X19650Y4650D02*
X21100Y3200D01*
X19650Y4650D02*
Y10050D01*
X18700Y11000D02*
X19650Y10050D01*
X18700Y14750D02*
X20825Y16875D01*
X24765D01*
X27350Y40825D02*
X35275D01*
X38000Y18550D02*
X40250D01*
X35275Y40825D02*
X35500Y40600D01*
X30804Y22915D02*
X34794Y18925D01*
X25175Y20600D02*
X26820Y18955D01*
X26845D01*
X28100Y28625D02*
X29107Y29632D01*
X28100Y27650D02*
Y28625D01*
X35487Y12682D02*
X36544Y11625D01*
X29412Y11738D02*
Y14482D01*
X34006Y11200D02*
X35487Y12682D01*
X29412Y11738D02*
X29950Y11200D01*
X29950Y11200D02*
X34006D01*
X41062Y12512D02*
Y13182D01*
X40175Y11625D02*
X41062Y12512D01*
X36544Y11625D02*
X40175D01*
X44501Y32293D02*
X44512Y32282D01*
X44451Y28993D02*
X44462Y28982D01*
X41250Y28993D02*
X41268Y28975D01*
X40688Y28993D02*
X44451D01*
X14800Y2100D02*
Y5200D01*
X14825Y5225D01*
X17340Y2100D02*
Y5165D01*
X11575Y9444D02*
X11582Y9438D01*
X11493Y17699D02*
X11575Y17617D01*
X40688Y32293D02*
X44501D01*
X5168Y5282D02*
X7180Y3270D01*
X5168Y5282D02*
Y6662D01*
X7180Y2100D02*
Y3270D01*
X6850Y5600D02*
X9720Y2730D01*
X6850Y5600D02*
Y12194D01*
X9720Y2100D02*
Y2730D01*
X8518Y5807D02*
X12225Y2100D01*
X8518Y5807D02*
Y6662D01*
X12225Y2100D02*
X12260D01*
X4388Y13787D02*
X5168Y13007D01*
X7068Y15312D02*
Y16493D01*
X4405Y21614D02*
Y24428D01*
X7068Y16493D02*
X7175Y16600D01*
X4388Y24445D02*
X4405Y24428D01*
X4388Y24445D02*
X7145D01*
X7225Y32450D02*
X14075D01*
X14125Y32500D01*
X8800Y31375D02*
X14825D01*
X6025Y28800D02*
X7050Y29825D01*
X9025D01*
X9650Y30450D01*
X15450D01*
X14657Y8088D02*
Y11787D01*
X11493Y17699D02*
Y20962D01*
X15912D01*
X18430Y23480D01*
X11575Y15494D02*
X18996Y22915D01*
X11575Y9444D02*
Y15494D01*
X5273Y31000D02*
X8425D01*
X15632Y34768D02*
X16400Y34000D01*
X14293Y37518D02*
X15650Y38875D01*
X13738Y37518D02*
X14293D01*
X31370Y27370D02*
X33026Y29025D01*
X37825D01*
X30804Y27935D02*
X35163Y32293D01*
X37888D01*
X44487Y23182D02*
Y26082D01*
X35143Y7637D02*
Y9068D01*
X35013Y17575D02*
X36400D01*
X35143Y9068D02*
X35150Y9075D01*
X36450Y26175D02*
X36543Y26082D01*
X44487D01*
X37625Y18925D02*
X38000Y18550D01*
X30040Y2100D02*
Y4566D01*
X29743Y4862D02*
X30040Y4566D01*
X32580Y2100D02*
Y4776D01*
X32518Y4837D02*
X32580Y4776D01*
X35120Y2100D02*
Y4814D01*
X35143Y4837D01*
X38019Y16275D02*
X38287Y16007D01*
X38262Y15982D02*
X38287Y16007D01*
X32518Y7637D02*
Y8793D01*
X32525Y8800D01*
X38262Y13182D02*
Y15982D01*
X35181Y16275D02*
X38019D01*
X33925Y15850D02*
X34250Y15525D01*
X33925Y15850D02*
Y16400D01*
X38262Y10357D02*
X38357Y10262D01*
X38194Y10425D02*
X38262Y10357D01*
X31363Y10425D02*
X38194D01*
X29743Y7662D02*
Y8768D01*
X29725Y8787D02*
X29743Y8768D01*
X29725Y8787D02*
X31363Y10425D01*
X38357Y7638D02*
Y10262D01*
X34250Y14850D02*
Y15525D01*
X34794Y18925D02*
X37625D01*
X30239Y22349D02*
X35013Y17575D01*
X29673Y21783D02*
X35181Y16275D01*
X29107Y21218D02*
X33925Y16400D01*
X12588Y24388D02*
X13575Y25375D01*
X16435D01*
X12258Y24388D02*
X12588D01*
X16435Y25375D02*
X17864Y26804D01*
X15438Y27363D02*
X16275Y28200D01*
X17600D01*
X12258Y27363D02*
X15438D01*
X17600Y28200D02*
X18430Y27370D01*
X28542Y20652D02*
X32687Y16506D01*
X35438Y23562D02*
X41568D01*
X34975Y24025D02*
X35438Y23562D01*
X32687Y12682D02*
Y16506D01*
X23932Y11622D02*
X26613D01*
X26643Y11653D01*
X29275Y17144D02*
Y18787D01*
X27976Y20086D02*
X29275Y18787D01*
X26574Y14443D02*
X29275Y17144D01*
X28400Y17800D02*
Y18531D01*
X22122Y7668D02*
X23932Y9478D01*
Y11622D01*
X24960Y2100D02*
X25243Y2383D01*
Y4837D01*
X22122Y2398D02*
Y4868D01*
Y2398D02*
X22420Y2100D01*
X25243Y7637D02*
X25700Y8094D01*
Y9075D01*
X25125Y14443D02*
Y14475D01*
X23963Y14443D02*
X26574D01*
X17925Y34825D02*
X19675Y36575D01*
X17925Y33531D02*
Y34825D01*
X26200Y36575D02*
X26575Y36950D01*
X19675Y36575D02*
X26200D01*
X25475Y37550D02*
X25875Y37950D01*
X18475Y37550D02*
X25475D01*
X21258Y20652D02*
X22500Y21894D01*
Y22975D01*
X21824Y20086D02*
X23700Y21962D01*
Y22025D01*
X22275Y40575D02*
X27100D01*
X22025Y40825D02*
X22275Y40575D01*
X27100D02*
X27350Y40825D01*
X14325D02*
X22025D01*
X41568Y20762D02*
X41999Y20332D01*
X4430Y27309D02*
Y30123D01*
X4413Y30140D02*
X4430Y30123D01*
X44625Y38000D02*
X45162Y38537D01*
X41550Y38000D02*
X44625D01*
X41999Y20332D02*
X44462D01*
X26600Y28350D02*
X26694D01*
X30650Y32306D01*
X4388Y13787D02*
Y18775D01*
Y17325D02*
X4475D01*
X4388Y18775D02*
X4405Y18758D01*
X5168Y9462D02*
Y13007D01*
X44462Y18362D02*
Y20332D01*
D26*
X4189Y34433D02*
D03*
D27*
X1689D02*
D03*
D28*
X2800Y47200D02*
D03*
Y52200D02*
D03*
Y57200D02*
D03*
D29*
X47500Y36225D02*
D03*
X26300Y58250D02*
D03*
X6525Y57175D02*
D03*
X9500Y57225D02*
D03*
X6525Y52175D02*
D03*
X9500Y52225D02*
D03*
D30*
X11575Y17617D02*
D03*
Y12617D02*
D03*
X22910Y34937D02*
D03*
X45280Y2100D02*
D03*
X42740D02*
D03*
X47727Y39416D02*
D03*
X45187D02*
D03*
X42647D02*
D03*
X47820Y2100D02*
D03*
X40200D02*
D03*
X37660D02*
D03*
X32580D02*
D03*
X30040D02*
D03*
X27500D02*
D03*
X24960D02*
D03*
X22420D02*
D03*
X19880D02*
D03*
X17340D02*
D03*
X14800D02*
D03*
X12260D02*
D03*
X9720D02*
D03*
X7180D02*
D03*
X4640D02*
D03*
X35120D02*
D03*
D31*
X20370Y34937D02*
D03*
X37567Y39416D02*
D03*
X2100Y2100D02*
D03*
D32*
X9758Y27363D02*
D03*
Y24388D02*
D03*
D33*
X12258Y27363D02*
D03*
Y24388D02*
D03*
D34*
X19100Y42050D02*
D03*
X46100Y15625D02*
D03*
D35*
X13675Y50200D02*
D03*
X28100Y34125D02*
D03*
X27475Y48525D02*
D03*
X25625Y47275D02*
D03*
X32625Y31425D02*
D03*
X29900Y35800D02*
D03*
X35000Y33400D02*
D03*
X15050Y56175D02*
D03*
X19425Y53875D02*
D03*
X22125Y56400D02*
D03*
X29110Y56760D02*
D03*
X13790Y55110D02*
D03*
X37285Y53800D02*
D03*
X47275Y53875D02*
D03*
X48725Y14475D02*
D03*
X47600Y7575D02*
D03*
X18700Y12200D02*
D03*
X41450Y3875D02*
D03*
X35500Y40600D02*
D03*
X26279Y34196D02*
D03*
X42550Y32293D02*
D03*
X7175Y16950D02*
D03*
X7225Y32450D02*
D03*
X14125Y32500D02*
D03*
X14325Y40825D02*
D03*
X7145Y24445D02*
D03*
X9125Y11225D02*
D03*
X8450Y31025D02*
D03*
X15900Y32450D02*
D03*
X15650Y39575D02*
D03*
X38800Y22300D02*
D03*
X6050Y19125D02*
D03*
X6000Y28800D02*
D03*
X15525Y30375D02*
D03*
X17000Y38450D02*
D03*
X39025Y19975D02*
D03*
X16400Y34000D02*
D03*
X18075Y37150D02*
D03*
X42250Y36700D02*
D03*
X36450Y26175D02*
D03*
X35150Y9075D02*
D03*
X36400Y17575D02*
D03*
X40250Y18550D02*
D03*
X32525Y8800D02*
D03*
X35275Y16275D02*
D03*
X29725Y8787D02*
D03*
X34250Y14850D02*
D03*
X34975Y24025D02*
D03*
X32687Y15250D02*
D03*
X14250Y24075D02*
D03*
X25700Y9075D02*
D03*
X25125Y14475D02*
D03*
X22500Y22975D02*
D03*
X23700Y22025D02*
D03*
X26600Y28350D02*
D03*
X6150Y41225D02*
D03*
X36125Y30700D02*
D03*
X30575Y16500D02*
D03*
X16050Y10050D02*
D03*
X40850Y7100D02*
D03*
X12200Y4575D02*
D03*
X2200Y5025D02*
D03*
X2100Y10000D02*
D03*
X13250Y14500D02*
D03*
X13700Y19575D02*
D03*
X1975Y32300D02*
D03*
X7500Y39250D02*
D03*
X7525Y35000D02*
D03*
X38525Y37550D02*
D03*
X37475Y36400D02*
D03*
X44450Y18350D02*
D03*
X43625Y42700D02*
D03*
X13450Y22400D02*
D03*
X2000Y37100D02*
D03*
X1675Y41900D02*
D03*
X40500Y45575D02*
D03*
X21500Y9600D02*
D03*
X24750Y41725D02*
D03*
X41268Y28975D02*
D03*
X42100Y34575D02*
D03*
X40925Y40600D02*
D03*
X43300Y48125D02*
D03*
X33300Y45575D02*
D03*
X21300Y46775D02*
D03*
X13800Y28950D02*
D03*
X9900Y18625D02*
D03*
X47450Y17800D02*
D03*
M02*
