%FSLAX43Y43*%
%MOMM*%
G71*
G01*
G75*
G04 Layer_Physical_Order=1*
%ADD10C,0.300*%
%ADD11O,2.000X1.000*%
%ADD12R,2.000X1.000*%
%ADD13R,1.800X1.600*%
%ADD14R,1.600X1.800*%
%ADD15R,0.600X2.150*%
%ADD16R,0.600X2.150*%
%ADD17R,1.450X0.550*%
%ADD18R,1.450X0.550*%
%ADD19R,0.600X2.200*%
%ADD20R,0.600X2.200*%
%ADD21R,0.600X1.700*%
%ADD22R,0.600X1.700*%
%ADD23C,0.125*%
%ADD24C,0.500*%
%ADD25C,0.400*%
%ADD26R,1.400X1.400*%
%ADD27C,1.400*%
%ADD28C,4.000*%
%ADD29C,2.000*%
%ADD30C,1.500*%
%ADD31R,1.500X1.500*%
%ADD32R,1.300X1.300*%
%ADD33C,1.300*%
%ADD34C,1.200*%
%ADD35C,1.270*%
D10*
X49200Y51420D02*
G03*
X48741Y51826I-2420J-2270D01*
G01*
X47785Y51315D02*
G03*
X48741Y51826I0J1150D01*
G01*
X46027Y54125D02*
G03*
X46219Y53989I758J865D01*
G01*
X46069Y51565D02*
G03*
X46785Y51315I716J900D01*
G01*
X49060Y44845D02*
G03*
X49200Y44922I-2279J4305D01*
G01*
X49127Y44416D02*
G03*
X49060Y44845I-1400J0D01*
G01*
X46457Y43826D02*
G03*
X49127Y44416I1270J589D01*
G01*
X45962Y43250D02*
G03*
X46457Y43826I-775J1166D01*
G01*
X46219Y53989D02*
G03*
X42053Y47975I562J-4839D01*
G01*
X44465Y46774D02*
G03*
X49200Y46880I2316J2376D01*
G01*
X44875Y47700D02*
G03*
X44525Y48567I-1250J0D01*
G01*
X44465Y46774D02*
G03*
X44875Y47700I-840J926D01*
G01*
X43997Y45152D02*
G03*
X43917Y45005I1191J-737D01*
G01*
X42942Y46150D02*
G03*
X43997Y45152I3838J3000D01*
G01*
X43917Y45005D02*
G03*
X41375Y43832I-1270J-589D01*
G01*
X49150Y41225D02*
G03*
X49150Y41225I-1650J0D01*
G01*
X45763Y42936D02*
G03*
X45962Y43250I-601J601D01*
G01*
X45763Y42936D02*
G03*
X45962Y43250I-601J601D01*
G01*
X44625Y42150D02*
G03*
X45226Y42399I0J850D01*
G01*
X44625Y42150D02*
G03*
X45226Y42399I0J850D01*
G01*
X43500Y41700D02*
G03*
X43416Y42150I-1250J0D01*
G01*
X41575Y40648D02*
G03*
X43500Y41700I675J1052D01*
G01*
X37785Y51315D02*
G03*
X38898Y52175I0J1150D01*
G01*
X35672D02*
G03*
X36785Y51315I1113J290D01*
G01*
X38935Y49915D02*
G03*
X37785Y51065I-1150J0D01*
G01*
Y48765D02*
G03*
X38935Y49915I0J1150D01*
G01*
X26661Y51575D02*
G03*
X26871Y52175I-1036J700D01*
G01*
X36785Y51065D02*
G03*
X36785Y48765I0J-1150D01*
G01*
X42289Y46175D02*
G03*
X42500Y46150I211J875D01*
G01*
X41375Y43832D02*
G03*
X40949Y43601I175J-832D01*
G01*
X41375Y43832D02*
G03*
X40949Y43601I175J-832D01*
G01*
X39768Y42420D02*
G03*
X39775Y42550I-1243J130D01*
G01*
X43062Y38434D02*
G03*
X42138Y38473I-512J-1140D01*
G01*
Y36113D02*
G03*
X43062Y36153I412J1180D01*
G01*
X39775Y42550D02*
G03*
X38967Y43719I-1250J0D01*
G01*
X35624Y38399D02*
G03*
X36225Y38150I601J601D01*
G01*
X35624Y38399D02*
G03*
X36225Y38150I601J601D01*
G01*
X34175Y38879D02*
G03*
X34625Y38750I450J721D01*
G01*
X34175Y38879D02*
G03*
X34625Y38750I450J721D01*
G01*
X35163Y38143D02*
G03*
X34753Y38038I0J-850D01*
G01*
X35163Y38143D02*
G03*
X34753Y38038I0J-850D01*
G01*
G03*
X34175Y38126I-1022J-4763D01*
G01*
X45700Y23350D02*
G03*
X45623Y23782I-1250J0D01*
G01*
X41500Y23550D02*
G03*
X41241Y24312I-1250J0D01*
G01*
X43277Y23782D02*
G03*
X45700Y23350I1173J-432D01*
G01*
X41009Y22557D02*
G03*
X41500Y23550I-759J993D01*
G01*
X49200Y20631D02*
G03*
X48805Y20722I-475J-1156D01*
G01*
X48749Y12083D02*
G03*
X49200Y12413I-2644J4092D01*
G01*
X48693Y11968D02*
G03*
X48749Y12083I-1093J607D01*
G01*
X49200Y7336D02*
G03*
X46550Y7689I-1380J-236D01*
G01*
X48450Y5850D02*
G03*
X49200Y6864I-630J1250D01*
G01*
X46468Y7841D02*
G03*
X47364Y8868I-3187J3684D01*
G01*
X46550Y7689D02*
G03*
X46468Y7841I-1270J-589D01*
G01*
X41997Y13557D02*
G03*
X43648Y11968I4108J2618D01*
G01*
X43095Y20005D02*
G03*
X42537Y19492I3010J-3830D01*
G01*
X43579Y8221D02*
G03*
X45268Y8868I-298J3304D01*
G01*
X43579Y8221D02*
G03*
X42641Y8497I-839J-1121D01*
G01*
G03*
X42700Y8875I-1191J378D01*
G01*
G03*
X40510Y9699I-1250J0D01*
G01*
X36438Y35144D02*
G03*
X35204Y36133I-2632J-2019D01*
G01*
X38042Y35543D02*
G03*
X37930Y35743I-4311J-2268D01*
G01*
X35485Y20043D02*
G03*
X36192Y20425I-210J1232D01*
G01*
X35500Y19850D02*
G03*
X35485Y20043I-1250J0D01*
G01*
X31831Y21161D02*
G03*
X31837Y19333I856J-911D01*
G01*
X35336Y19232D02*
G03*
X35500Y19850I-1086J618D01*
G01*
X28911Y32566D02*
G03*
X29411Y31022I4820J709D01*
G01*
G03*
X30334Y29707I4394J2103D01*
G01*
X29876Y21543D02*
G03*
X30125Y22144I-601J601D01*
G01*
X29876Y21543D02*
G03*
X30125Y22144I-601J601D01*
G01*
X36400Y14087D02*
G03*
X36296Y14575I-1250J-12D01*
G01*
X31363Y16275D02*
G03*
X31237Y16266I0J-850D01*
G01*
X31363Y16275D02*
G03*
X31237Y16266I0J-850D01*
G01*
X40658Y13557D02*
G03*
X40510Y9699I2623J-2032D01*
G01*
X39581Y8356D02*
G03*
X38930Y7689I619J-1256D01*
G01*
G03*
X38210Y8388I-1270J-589D01*
G01*
X37110D02*
G03*
X36390Y7689I550J-1288D01*
G01*
G03*
X35970Y8212I-1270J-589D01*
G01*
X31237Y16266D02*
G03*
X30893Y16133I126J-841D01*
G01*
X31237Y16266D02*
G03*
X30893Y16133I126J-841D01*
G01*
X29772Y15036D02*
G03*
X28518Y14112I-47J-1249D01*
G01*
X26793Y13469D02*
G03*
X26950Y14075I-1093J606D01*
G01*
X29190Y8212D02*
G03*
X28770Y7689I850J-1112D01*
G01*
X26126Y47975D02*
G03*
X26139Y48125I-4846J500D01*
G01*
X24560Y47975D02*
G03*
X24579Y48125I-3280J500D01*
G01*
X26734Y34593D02*
G03*
X27849Y33304I-134J-1243D01*
G01*
X22320Y51625D02*
G03*
X20099Y51575I-1040J-3151D01*
G01*
G03*
X19730Y51408I1182J-3100D01*
G01*
X17220Y38057D02*
G03*
X17324Y37930I705J475D01*
G01*
X17220Y38057D02*
G03*
X17324Y37930I705J475D01*
G01*
X17053Y37934D02*
G03*
X17220Y38057I-653J1066D01*
G01*
X17150Y37450D02*
G03*
X17053Y37934I-1250J0D01*
G01*
X16373Y36293D02*
G03*
X17150Y37450I-473J1157D01*
G01*
X16775Y35375D02*
G03*
X16373Y36293I-1250J0D01*
G01*
X14544Y34600D02*
G03*
X16775Y35375I981J775D01*
G01*
X23714Y28275D02*
G03*
X21455Y28661I-1214J-300D01*
G01*
G03*
X19880Y29293I-2574J-4136D01*
G01*
X17819Y34021D02*
G03*
X17600Y34050I-219J-821D01*
G01*
X17819Y34021D02*
G03*
X17600Y34050I-219J-821D01*
G01*
X16275D02*
G03*
X15674Y33801I0J-850D01*
G01*
X16275Y34050D02*
G03*
X15674Y33801I0J-850D01*
G01*
X15438Y31513D02*
G03*
X16039Y31762I0J850D01*
G01*
X15438Y31513D02*
G03*
X16039Y31762I0J850D01*
G01*
X13242Y33213D02*
G03*
X11058Y32863I-984J-850D01*
G01*
X13575Y31225D02*
G03*
X12974Y30976I0J-850D01*
G01*
X13575Y31225D02*
G03*
X12974Y30976I0J-850D01*
G01*
X11058Y31863D02*
G03*
X13242Y31513I1200J500D01*
G01*
X12631Y30633D02*
G03*
X11058Y29888I-373J-1245D01*
G01*
X6532Y47875D02*
G03*
X6308Y47711I412J-800D01*
G01*
X6532Y47875D02*
G03*
X6307Y47711I412J-800D01*
G01*
X6117Y44975D02*
G03*
X7399Y46175I33J1250D01*
G01*
X6069Y47472D02*
G03*
X4903Y46306I81J-1247D01*
G01*
X800Y47772D02*
G03*
X5073Y47875I2030J4428D01*
G01*
X2839Y40140D02*
G03*
X800Y40450I-1150J-707D01*
G01*
X9025Y33975D02*
G03*
X9626Y34224I0J850D01*
G01*
X9025Y33975D02*
G03*
X9626Y34224I0J850D01*
G01*
X8142Y38300D02*
G03*
X6128Y36850I-917J-850D01*
G01*
X5273D02*
G03*
X4776Y36690I0J-850D01*
G01*
X5273Y36850D02*
G03*
X4776Y36690I0J-850D01*
G01*
X800Y38417D02*
G03*
X2839Y38726I889J1016D01*
G01*
X5880Y32556D02*
G03*
X7250Y33800I120J1244D01*
G01*
X8395Y29445D02*
G03*
X6228Y30295I-1250J0D01*
G01*
X24950Y27025D02*
G03*
X23714Y28275I-1250J0D01*
G01*
X23715Y25775D02*
G03*
X24950Y27025I-15J1250D01*
G01*
X23648Y25525D02*
G03*
X23614Y25675I-4768J-1000D01*
G01*
X15678Y28196D02*
G03*
X14579Y26812I3202J-3671D01*
G01*
X13164Y28456D02*
G03*
X15139Y28196I1086J619D01*
G01*
X11058Y28888D02*
G03*
X13164Y28456I1200J500D01*
G01*
X14044Y25112D02*
G03*
X14024Y24145I4836J-587D01*
G01*
X12912Y23033D02*
G03*
X12343Y23788I-1337J-416D01*
G01*
X10643Y23662D02*
G03*
X11159Y21280I932J-1045D01*
G01*
X10974Y21095D02*
G03*
X10725Y20494I601J-601D01*
G01*
X10974Y21095D02*
G03*
X10725Y20494I601J-601D01*
G01*
X14056Y17389D02*
G03*
X13807Y16787I601J-601D01*
G01*
X14056Y17389D02*
G03*
X13807Y16787I601J-601D01*
G01*
X26950Y14075D02*
G03*
X26412Y15103I-1250J0D01*
G01*
X28770Y7689D02*
G03*
X26230Y7689I-1270J-589D01*
G01*
G03*
X26093Y7922I-1270J-589D01*
G01*
X13964Y19990D02*
G03*
X12812Y18274I2041J-2615D01*
G01*
X10725Y18730D02*
G03*
X10725Y16505I850J-1112D01*
G01*
X13040Y15888D02*
G03*
X13132Y15717I2965J1487D01*
G01*
X12975Y17617D02*
G03*
X12812Y18274I-1400J0D01*
G01*
X12733Y16830D02*
G03*
X12975Y17617I-1158J787D01*
G01*
X12733Y16830D02*
G03*
X13040Y15888I3273J545D01*
G01*
X13132Y15717D02*
G03*
X13807Y14891I2874J1658D01*
G01*
X13950Y8212D02*
G03*
X13530Y7689I850J-1112D01*
G01*
G03*
X12044Y8483I-1270J-589D01*
G01*
X10375Y16225D02*
G03*
X8618Y17368I-1250J0D01*
G01*
X8411Y21762D02*
G03*
X8425Y21950I-1236J188D01*
G01*
X6228Y28595D02*
G03*
X8395Y29445I917J850D01*
G01*
X8425Y21950D02*
G03*
X6836Y23153I-1250J0D01*
G01*
X7300Y24125D02*
G03*
X5855Y25360I-1250J0D01*
G01*
X6836Y23153D02*
G03*
X7300Y24125I-786J972D01*
G01*
X3538Y18787D02*
G03*
X3787Y18186I850J0D01*
G01*
X3538Y18787D02*
G03*
X3787Y18186I850J0D01*
G01*
X10329Y15888D02*
G03*
X10375Y16225I-1204J337D01*
G01*
X6174Y8074D02*
G03*
X5910Y7689I1006J-974D01*
G01*
X4321Y10212D02*
G03*
X4567Y9681I847J69D01*
G01*
X4321Y10212D02*
G03*
X4567Y9681I847J69D01*
G01*
X5910Y7689D02*
G03*
X3500Y7913I-1270J-589D01*
G01*
X8450Y6511D02*
G03*
X9577Y5707I1270J589D01*
G01*
X5910Y6511D02*
G03*
X8450Y6511I1270J589D01*
G01*
X9577Y5707D02*
G03*
X9250Y5075I448J-632D01*
G01*
X9577Y5707D02*
G03*
X9250Y5075I448J-632D01*
G01*
X3500Y6287D02*
G03*
X5910Y6511I1140J813D01*
G01*
X775Y4802D02*
G03*
X800Y5000I-775J198D01*
G01*
X15337Y19748D02*
X14277Y20809D01*
X15196Y21728D01*
X16257Y20667D01*
X15337Y19748D01*
Y20102D02*
X14630Y20809D01*
X15196Y21374D01*
X15903Y20667D01*
X15337Y20102D01*
Y20455D02*
X14984Y20809D01*
X15196Y21021D01*
X15550Y20667D01*
X15337Y20455D01*
X15267Y20720D02*
Y20756D01*
X17317Y21728D02*
X16257Y22789D01*
X17176Y23708D01*
X18237Y22647D01*
X17317Y21728D01*
Y22082D02*
X16610Y22789D01*
X17176Y23354D01*
X17883Y22647D01*
X17317Y22082D01*
Y22435D02*
X16964Y22789D01*
X17176Y23001D01*
X17529Y22647D01*
X17317Y22435D01*
X17247Y22700D02*
Y22736D01*
X48644Y51700D02*
X48903D01*
X48900Y51065D02*
Y51702D01*
X48800Y51065D02*
Y51782D01*
X48700Y51065D02*
Y51768D01*
X48935Y51000D02*
X49200D01*
X48935Y50900D02*
X49200D01*
X48935Y50800D02*
X49200D01*
X48935Y50700D02*
X49200D01*
X48543Y51600D02*
X49018D01*
X48411Y51500D02*
X49122D01*
X48219Y51400D02*
X49200D01*
X48600Y51065D02*
Y51653D01*
X48500Y51065D02*
Y51564D01*
X45635Y51065D02*
X48935D01*
X48400D02*
Y51493D01*
X48300Y51065D02*
Y51436D01*
X48935Y50600D02*
X49200D01*
X48935Y50500D02*
X49200D01*
X48935Y50400D02*
X49200D01*
X48935Y50300D02*
X49200D01*
X48935Y50200D02*
X49200D01*
X48935Y50100D02*
X49200D01*
X48935Y50000D02*
X49200D01*
X48935Y49900D02*
X49200D01*
X48935Y49800D02*
X49200D01*
X48935Y49700D02*
X49200D01*
X48935Y49600D02*
X49200D01*
X48935Y49500D02*
X49200D01*
X48935Y49400D02*
X49200D01*
X48935Y49300D02*
X49200D01*
X48935Y49200D02*
X49200D01*
X48935Y49100D02*
X49200D01*
X48200Y51065D02*
Y51392D01*
X48100Y51065D02*
Y51359D01*
X48000Y51065D02*
Y51335D01*
X46300Y51065D02*
Y51422D01*
X46500Y51065D02*
Y51351D01*
X46100Y51065D02*
Y51541D01*
X46200Y51065D02*
Y51475D01*
X46000Y53959D02*
Y54125D01*
X45900Y53941D02*
Y54125D01*
X45800Y53922D02*
Y54125D01*
X45700Y53900D02*
Y54125D01*
X46000Y51065D02*
Y51565D01*
X45900Y51065D02*
Y51565D01*
X45800Y51065D02*
Y51565D01*
X45700Y51065D02*
Y51565D01*
X47900Y51065D02*
Y51321D01*
X47800Y51065D02*
Y51315D01*
X47700Y51065D02*
Y51315D01*
X47600Y51065D02*
Y51315D01*
X47500Y51065D02*
Y51315D01*
X47400Y51065D02*
Y51315D01*
X47300Y51065D02*
Y51315D01*
X47200Y51065D02*
Y51315D01*
X46785D02*
X47785D01*
X47100Y51065D02*
Y51315D01*
X47000Y51065D02*
Y51315D01*
X46900Y51065D02*
Y51315D01*
X46800Y51065D02*
Y51315D01*
X46700Y51065D02*
Y51318D01*
X46400Y51065D02*
Y51381D01*
X46600Y51065D02*
Y51330D01*
X48935Y49000D02*
X49200D01*
X48935Y48900D02*
X49200D01*
X48935Y48800D02*
X49200D01*
X49200Y46880D02*
Y51420D01*
X48935Y48765D02*
Y51065D01*
X49100Y46778D02*
Y51522D01*
X49200Y46880D02*
Y51420D01*
X49000Y46684D02*
Y51616D01*
X48900Y46598D02*
Y48765D01*
X48800Y46518D02*
Y48765D01*
X48700Y46444D02*
Y48765D01*
X48600Y46376D02*
Y48765D01*
X48500Y46313D02*
Y48765D01*
X48400Y46255D02*
Y48765D01*
X48300Y46201D02*
Y48765D01*
X48200Y46151D02*
Y48765D01*
X48100Y46106D02*
Y48765D01*
X49073Y44800D02*
X49200D01*
X49098Y44700D02*
X49200D01*
X49100Y44691D02*
Y44866D01*
X49091Y44100D02*
X49200D01*
X49064Y44000D02*
X49200D01*
X49100Y41628D02*
Y44140D01*
X49029Y43900D02*
X49200D01*
X48985Y43800D02*
X49200D01*
X48930Y43700D02*
X49200D01*
X48865Y43600D02*
X49200D01*
X48786Y43500D02*
X49200D01*
X49000Y41912D02*
Y43832D01*
X48900Y42098D02*
Y43651D01*
X48800Y42241D02*
Y43516D01*
X48000Y46065D02*
Y48765D01*
X47900Y46027D02*
Y48765D01*
X47800Y45993D02*
Y48765D01*
X47700Y45962D02*
Y48765D01*
X47600Y45935D02*
Y48765D01*
X47500Y45911D02*
Y48765D01*
X47400Y45891D02*
Y48765D01*
X47300Y45873D02*
Y48765D01*
X47200Y45859D02*
Y48765D01*
X47100Y45848D02*
Y48765D01*
X47000Y45840D02*
Y48765D01*
X46900Y45835D02*
Y48765D01*
X46800Y45832D02*
Y48765D01*
X46700Y45833D02*
Y48765D01*
X46600Y45837D02*
Y48765D01*
X46500Y45844D02*
Y48765D01*
X46390Y43700D02*
X46524D01*
X46325Y43600D02*
X46589D01*
X46246Y43500D02*
X46668D01*
X46400Y45854D02*
Y48765D01*
X46300Y45867D02*
Y48765D01*
X46500Y42537D02*
Y43742D01*
X46600Y42608D02*
Y43586D01*
X46400Y42455D02*
Y43716D01*
X46300Y42358D02*
Y43566D01*
X45740Y46000D02*
X47821D01*
X46115Y45900D02*
X47446D01*
X46100Y45903D02*
Y48765D01*
X45800Y45981D02*
Y48765D01*
X46200Y45884D02*
Y48765D01*
X46000Y45926D02*
Y48765D01*
X45900Y45951D02*
Y48765D01*
X45600Y53876D02*
Y54125D01*
X45500Y53850D02*
Y54125D01*
X45400Y53822D02*
Y54125D01*
X45300Y53791D02*
Y54125D01*
X45200Y53758D02*
Y54125D01*
X45323Y51500D02*
X46160D01*
X45223Y51400D02*
X46351D01*
X45100Y53723D02*
Y54125D01*
X45388Y51565D02*
X46069D01*
X42650Y54100D02*
X46057D01*
X42675Y54125D02*
X46027D01*
X42550Y54000D02*
X46200D01*
X42450Y53900D02*
X45698D01*
X42350Y53800D02*
X45327D01*
X45123Y51300D02*
X49200D01*
X45023Y51200D02*
X49200D01*
X42250Y53700D02*
X45039D01*
X44525Y50702D02*
X45388Y51565D01*
X44923Y51100D02*
X49200D01*
X44823Y51000D02*
X45635D01*
X44723Y50900D02*
X45635D01*
X44623Y50800D02*
X45635D01*
X44525Y50700D02*
X45635D01*
X44525Y50600D02*
X45635D01*
X44525Y50500D02*
X45635D01*
X44525Y50400D02*
X45635D01*
X44525Y50300D02*
X45635D01*
X44525Y50200D02*
X45635D01*
X44525Y50100D02*
X45635D01*
X44525Y50000D02*
X45635D01*
X44525Y49900D02*
X45635D01*
X44525Y49800D02*
X45635D01*
X44525Y49700D02*
X45635D01*
X44525Y49600D02*
X45635D01*
X45000Y53685D02*
Y54125D01*
X44900Y53644D02*
Y54125D01*
X44800Y53601D02*
Y54125D01*
X44700Y53555D02*
Y54125D01*
X44600Y53506D02*
Y54125D01*
X44500Y53455D02*
Y54125D01*
X44400Y53400D02*
Y54125D01*
X44300Y53343D02*
Y54125D01*
X44200Y53282D02*
Y54125D01*
X44100Y53218D02*
Y54125D01*
X44000Y53150D02*
Y54125D01*
X43900Y53079D02*
Y54125D01*
X43800Y53003D02*
Y54125D01*
X43700Y52924D02*
Y54125D01*
X43600Y52840D02*
Y54125D01*
X43500Y52751D02*
Y54125D01*
X43400Y52658D02*
Y54125D01*
X42150Y53600D02*
X44798D01*
X42050Y53500D02*
X44587D01*
X41950Y53400D02*
X44399D01*
X41850Y53300D02*
X44229D01*
X41750Y53200D02*
X44073D01*
X43300Y52559D02*
Y54125D01*
X41650Y53100D02*
X43929D01*
X43200Y52453D02*
Y54125D01*
X43100Y52341D02*
Y54125D01*
X41550Y53000D02*
X43795D01*
X41450Y52900D02*
X43671D01*
X41350Y52800D02*
X43554D01*
X41250Y52700D02*
X43444D01*
X41150Y52600D02*
X43341D01*
X41050Y52500D02*
X43243D01*
X40950Y52400D02*
X43151D01*
X40850Y52300D02*
X43064D01*
X44722Y48300D02*
X49200D01*
X44771Y48200D02*
X49200D01*
X44809Y48100D02*
X49200D01*
X45635Y48765D02*
X48935D01*
X44839Y48000D02*
X49200D01*
X44859Y47900D02*
X49200D01*
X44871Y47800D02*
X49200D01*
X45700Y46013D02*
Y48765D01*
X44875Y47700D02*
X49200D01*
X44525Y49500D02*
X45635D01*
X44525Y48700D02*
X49200D01*
X44525Y49400D02*
X45635D01*
X44525Y49300D02*
X45635D01*
X44525Y48600D02*
X49200D01*
X44586Y48500D02*
X49200D01*
X44661Y48400D02*
X49200D01*
X44871Y47600D02*
X49200D01*
X44859Y47500D02*
X49200D01*
X44838Y47400D02*
X49200D01*
X44809Y47300D02*
X49200D01*
X44771Y47200D02*
X49200D01*
X44925Y46400D02*
X48636D01*
X45082Y46300D02*
X48478D01*
X45263Y46200D02*
X48298D01*
X45475Y46100D02*
X48085D01*
X44722Y47100D02*
X49200D01*
X44661Y47000D02*
X49200D01*
X44585Y46900D02*
X49200D01*
X44492Y46800D02*
X49122D01*
X44544Y46700D02*
X49017D01*
X44658Y46600D02*
X48902D01*
X44785Y46500D02*
X48776D01*
X45200Y46233D02*
Y51377D01*
X45100Y46290D02*
Y51277D01*
X45635Y48765D02*
Y51065D01*
X45000Y46351D02*
Y51177D01*
X44900Y46417D02*
Y51077D01*
X45600Y46050D02*
Y51565D01*
X45500Y46090D02*
Y51565D01*
X45400Y46133D02*
Y51565D01*
X45300Y46181D02*
Y51477D01*
X44525Y49200D02*
X45635D01*
X44525Y49100D02*
X45635D01*
X44525Y49000D02*
X45635D01*
X44525Y48900D02*
X45635D01*
X44800Y48127D02*
Y50977D01*
X44700Y48338D02*
Y50877D01*
X44600Y48482D02*
Y50777D01*
X44525Y48567D02*
Y50702D01*
Y48800D02*
X45635D01*
X44700Y46566D02*
Y47062D01*
X44600Y46650D02*
Y46918D01*
X44800Y46488D02*
Y47273D01*
X43807Y45200D02*
X43929D01*
X43900Y45041D02*
Y45221D01*
X38442Y45900D02*
X43152D01*
X42857Y45800D02*
X43244D01*
X43100Y45740D02*
Y45958D01*
X38442Y46000D02*
X43064D01*
X43200Y45702D02*
Y45847D01*
X43205Y45700D02*
X43341D01*
X48691Y43400D02*
X49200D01*
X48658Y42400D02*
X49200D01*
X48752Y42300D02*
X49200D01*
X48700Y42357D02*
Y43409D01*
X48831Y42200D02*
X49200D01*
X48899Y42100D02*
X49200D01*
X48957Y42000D02*
X49200D01*
X49005Y41900D02*
X49200D01*
X49046Y41800D02*
X49200D01*
X48573Y43300D02*
X49200D01*
X48421Y43200D02*
X49200D01*
X48206Y43100D02*
X49200D01*
X47992Y42800D02*
X49200D01*
X48240Y42700D02*
X49200D01*
X48412Y42600D02*
X49200D01*
X48547Y42500D02*
X49200D01*
X48600Y42455D02*
Y43321D01*
X48500Y42537D02*
Y43248D01*
X49080Y41700D02*
X49200D01*
X49094Y40800D02*
X49200D01*
X49064Y40700D02*
X49200D01*
X49027Y40600D02*
X49200D01*
X48982Y40500D02*
X49200D01*
X48929Y40400D02*
X49200D01*
X48866Y40300D02*
X49200D01*
X48793Y40200D02*
X49200D01*
X48707Y40100D02*
X49200D01*
X48605Y40000D02*
X49200D01*
X48483Y39900D02*
X49200D01*
X48331Y39800D02*
X49200D01*
X48129Y39700D02*
X49200D01*
X47785Y39600D02*
X49200D01*
X48700Y38832D02*
Y40093D01*
X48600Y38832D02*
Y39995D01*
X48100Y42762D02*
Y43066D01*
X47900Y42826D02*
Y43026D01*
X47800Y42847D02*
Y43017D01*
X47700Y42863D02*
Y43016D01*
X47600Y42872D02*
Y43021D01*
X48400Y42608D02*
Y43188D01*
X48300Y42668D02*
Y43138D01*
X48200Y42719D02*
Y43098D01*
X48000Y42797D02*
Y43042D01*
X47500Y42875D02*
Y43034D01*
X47400Y42872D02*
Y43054D01*
X47200Y42847D02*
Y43119D01*
X47100Y42826D02*
Y43164D01*
X46900Y42762D02*
Y43286D01*
X47000Y42797D02*
Y43219D01*
X46700Y42668D02*
Y43465D01*
X46800Y42719D02*
Y43367D01*
X48500Y38832D02*
Y39913D01*
X48400Y38832D02*
Y39842D01*
X48300Y38832D02*
Y39782D01*
X48200Y38832D02*
Y39731D01*
X48100Y38832D02*
Y39688D01*
X48000Y38832D02*
Y39653D01*
X47900Y38832D02*
Y39624D01*
X47800Y38832D02*
Y39603D01*
X47700Y38832D02*
Y39587D01*
X47300Y42863D02*
Y43082D01*
X47600Y38832D02*
Y39578D01*
X47500Y38832D02*
Y39575D01*
X47400Y38832D02*
Y39578D01*
X47200Y38832D02*
Y39603D01*
X47300Y38832D02*
Y39587D01*
X48762Y38800D02*
X49200D01*
X48762Y38700D02*
X49200D01*
X48762Y38600D02*
X49200D01*
X48762Y38500D02*
X49200D01*
X48762Y38400D02*
X49200D01*
X48762Y38300D02*
X49200D01*
X48762Y38200D02*
X49200D01*
X48762Y35732D02*
Y38832D01*
Y38100D02*
X49200D01*
X48762Y38000D02*
X49200D01*
X48762Y37900D02*
X49200D01*
X48762Y37800D02*
X49200D01*
X48762Y37700D02*
X49200D01*
X48762Y37600D02*
X49200D01*
X48762Y37500D02*
X49200D01*
X48762Y37400D02*
X49200D01*
X48762Y37300D02*
X49200D01*
X48762Y37200D02*
X49200D01*
X48762Y37100D02*
X49200D01*
X48762Y37000D02*
X49200D01*
X48762Y36900D02*
X49200D01*
X48762Y36800D02*
X49200D01*
X48762Y36700D02*
X49200D01*
X48762Y36600D02*
X49200D01*
X48762Y36500D02*
X49200D01*
X48762Y36400D02*
X49200D01*
X48762Y36300D02*
X49200D01*
X48762Y36200D02*
X49200D01*
X48762Y36100D02*
X49200D01*
X48762Y36000D02*
X49200D01*
X48762Y35900D02*
X49200D01*
X48762Y35800D02*
X49200D01*
X48712Y35500D02*
X49200D01*
X48700Y35532D02*
Y35732D01*
X48600Y35532D02*
Y35732D01*
X48500Y35532D02*
Y35732D01*
X48400Y35532D02*
Y35732D01*
X48300Y35532D02*
Y35732D01*
X48200Y35532D02*
Y35732D01*
X48100Y35532D02*
Y35732D01*
X47100Y38832D02*
Y39624D01*
X47000Y38832D02*
Y39653D01*
X46900Y38832D02*
Y39688D01*
X46800Y38832D02*
Y39731D01*
X46700Y38832D02*
Y39782D01*
X46600Y38832D02*
Y39842D01*
X46400Y38832D02*
Y39995D01*
X46500Y38832D02*
Y39913D01*
X48000Y35532D02*
Y35732D01*
X47900Y35532D02*
Y35732D01*
X47800Y35532D02*
Y35732D01*
X47700Y35532D02*
Y35732D01*
X47600Y35532D02*
Y35732D01*
X47500Y35532D02*
Y35732D01*
X47400Y35532D02*
Y35732D01*
X47300Y35532D02*
Y35732D01*
X47200Y35532D02*
Y35732D01*
X47100Y35532D02*
Y35732D01*
X47000Y35532D02*
Y35732D01*
X46900Y35532D02*
Y35732D01*
X46800Y35532D02*
Y35732D01*
X46700Y35532D02*
Y35732D01*
X46600Y35532D02*
Y35732D01*
X46500Y35532D02*
Y35732D01*
X46400Y35532D02*
Y35732D01*
X45942Y43200D02*
X47033D01*
X45891Y43100D02*
X47249D01*
X45821Y43000D02*
X49200D01*
X46151Y43400D02*
X46764D01*
X46033Y43300D02*
X46882D01*
X46200Y42241D02*
Y43449D01*
X46100Y42098D02*
Y43354D01*
X45727Y42900D02*
X49200D01*
X45627Y42800D02*
X47008D01*
X45527Y42700D02*
X46760D01*
X45427Y42600D02*
X46588D01*
X45327Y42500D02*
X46452D01*
X45227Y42400D02*
X46341D01*
X45107Y42300D02*
X46248D01*
X44912Y42200D02*
X46169D01*
X40927Y40000D02*
X46395D01*
X40827Y39900D02*
X46517D01*
X40727Y39800D02*
X46668D01*
X41127Y40200D02*
X46207D01*
X41027Y40100D02*
X46293D01*
X40627Y39700D02*
X46870D01*
X45962Y38832D02*
X48762D01*
X46200D02*
Y40209D01*
X46300Y38832D02*
Y40092D01*
X40427Y39500D02*
X49200D01*
X40327Y39400D02*
X49200D01*
X40527Y39600D02*
X47214D01*
X40227Y39300D02*
X49200D01*
X40127Y39200D02*
X49200D01*
X40027Y39100D02*
X49200D01*
X39927Y39000D02*
X49200D01*
X39827Y38900D02*
X49200D01*
X45226Y42399D02*
X45763Y42936D01*
X46000Y41912D02*
Y43276D01*
X45900Y41628D02*
Y43115D01*
X45800Y38832D02*
Y42975D01*
X43500Y41720D02*
Y42150D01*
X43434Y42100D02*
X46101D01*
X43464Y42000D02*
X46043D01*
X43416Y42150D02*
X44625D01*
X43484Y41900D02*
X45994D01*
X43496Y41800D02*
X45953D01*
X43500Y41700D02*
X45920D01*
X43496Y41600D02*
X45893D01*
X43484Y41500D02*
X45873D01*
X43463Y41400D02*
X45859D01*
X43434Y41300D02*
X45852D01*
X43396Y41200D02*
X45850D01*
X46000Y38832D02*
Y40538D01*
X46100Y38832D02*
Y40352D01*
X43347Y41100D02*
X45855D01*
X45900Y38832D02*
Y40822D01*
X43286Y41000D02*
X45865D01*
X43000Y40700D02*
X45936D01*
X43210Y40900D02*
X45882D01*
X43117Y40800D02*
X45906D01*
X42600Y40500D02*
X46018D01*
X41227Y40300D02*
X46134D01*
X42843Y40600D02*
X45973D01*
X41327Y40400D02*
X46071D01*
X45700Y38832D02*
Y42873D01*
X45600Y38832D02*
Y42773D01*
X45500Y38832D02*
Y42673D01*
X45400Y38832D02*
Y42573D01*
X45300Y38832D02*
Y42473D01*
X45862Y35732D02*
X48762D01*
X46300Y35532D02*
Y35732D01*
X46200Y35532D02*
Y35732D01*
X46100Y35532D02*
Y35732D01*
X45200Y38832D02*
Y42374D01*
X45100Y38832D02*
Y42295D01*
X45000Y38832D02*
Y42237D01*
X44900Y38832D02*
Y42196D01*
X43062Y38832D02*
X45962D01*
X37956Y35700D02*
X49200D01*
X44800Y38832D02*
Y42168D01*
X44700Y38832D02*
Y42153D01*
X46000Y35532D02*
Y35732D01*
X45900Y35532D02*
Y35732D01*
X45912Y35532D02*
X48712D01*
X45800Y35532D02*
Y35732D01*
X45700Y35532D02*
Y35732D01*
X45600Y35532D02*
Y35732D01*
X45500Y35532D02*
Y35732D01*
X45400Y35532D02*
Y35732D01*
X45300Y35532D02*
Y35732D01*
X43062D02*
X45862D01*
X38011Y35600D02*
X49200D01*
X45200Y35532D02*
Y35732D01*
X45100Y35532D02*
Y35732D01*
X45000Y35532D02*
Y35732D01*
X43012Y35532D02*
X45912D01*
X44900D02*
Y35732D01*
X44800Y35532D02*
Y35732D01*
X44600Y38832D02*
Y42150D01*
X44500Y38832D02*
Y42150D01*
X44400Y38832D02*
Y42150D01*
X44300Y38832D02*
Y42150D01*
X44200Y38832D02*
Y42150D01*
X44100Y38832D02*
Y42150D01*
X44000Y38832D02*
Y42150D01*
X43900Y38832D02*
Y42150D01*
X43800Y38832D02*
Y42150D01*
X43700Y38832D02*
Y42150D01*
X43600Y38832D02*
Y42150D01*
X43500Y38832D02*
Y41680D01*
X43400Y38832D02*
Y41210D01*
X43300Y38832D02*
Y41022D01*
X43200Y38832D02*
Y40887D01*
X43100Y38832D02*
Y40783D01*
X42138Y38800D02*
X43062D01*
X44700Y35532D02*
Y35732D01*
X44600Y35532D02*
Y35732D01*
X44500Y35532D02*
Y35732D01*
X44400Y35532D02*
Y35732D01*
X44300Y35532D02*
Y35732D01*
X44200Y35532D02*
Y35732D01*
X44100Y35532D02*
Y35732D01*
X44000Y35532D02*
Y35732D01*
X43900Y35532D02*
Y35732D01*
X43800Y35532D02*
Y35732D01*
X43700Y35532D02*
Y35732D01*
X43600Y35532D02*
Y35732D01*
X43500Y35532D02*
Y35732D01*
X43400Y35532D02*
Y35732D01*
X43300Y35532D02*
Y35732D01*
X43200Y35532D02*
Y35732D01*
X43100Y35532D02*
Y35732D01*
X43000Y52222D02*
Y54125D01*
X42900Y52095D02*
Y54125D01*
X42800Y51958D02*
Y54125D01*
X42700Y51811D02*
Y54125D01*
X42600Y51651D02*
Y54050D01*
X42500Y51476D02*
Y53950D01*
X42400Y51281D02*
Y53850D01*
X42300Y51062D02*
Y53750D01*
X42200Y50809D02*
Y53650D01*
X40750Y52200D02*
X42982D01*
X38876Y52100D02*
X42903D01*
X38837Y52000D02*
X42829D01*
X40725Y52175D02*
X42675Y54125D01*
X38898Y52175D02*
X40725D01*
X42100Y50501D02*
Y53550D01*
X42000Y50087D02*
Y53450D01*
X38900Y50198D02*
Y52175D01*
X38787Y51900D02*
X42759D01*
X38723Y51800D02*
X42693D01*
X38644Y51700D02*
X42629D01*
X38775Y50500D02*
X42100D01*
X38828Y50400D02*
X42072D01*
X38869Y50300D02*
X42046D01*
X38899Y50200D02*
X42023D01*
X38800Y50456D02*
Y51924D01*
X38920Y50100D02*
X42002D01*
X38543Y51600D02*
X42570D01*
X38411Y51500D02*
X42513D01*
X38219Y51400D02*
X42459D01*
X38166Y51000D02*
X42274D01*
X38379Y50900D02*
X42234D01*
X38520Y50800D02*
X42197D01*
X38626Y50700D02*
X42162D01*
X38709Y50600D02*
X42130D01*
X38400Y50887D02*
Y51493D01*
X38200Y50987D02*
Y51392D01*
X38100Y51021D02*
Y51359D01*
X38000Y51045D02*
Y51335D01*
X36500Y51029D02*
Y51351D01*
X38700Y50612D02*
Y51768D01*
X38600Y50726D02*
Y51653D01*
X38500Y50816D02*
Y51564D01*
X38300Y50943D02*
Y51436D01*
X36300Y50957D02*
Y51422D01*
X36100Y50838D02*
Y51541D01*
X36200Y50905D02*
Y51475D01*
X35900Y50649D02*
Y51731D01*
X36000Y50755D02*
Y51625D01*
X35700Y50295D02*
Y52085D01*
X35800Y50508D02*
Y51872D01*
X37900Y51059D02*
Y51321D01*
X37800Y51065D02*
Y51315D01*
X37700Y51065D02*
Y51315D01*
X37600Y51065D02*
Y51315D01*
X37500Y51065D02*
Y51315D01*
X37400Y51065D02*
Y51315D01*
X37300Y51065D02*
Y51315D01*
X37200Y51065D02*
Y51315D01*
X37100Y51065D02*
Y51315D01*
X36785D02*
X37785D01*
X37000Y51065D02*
Y51315D01*
X36900Y51065D02*
Y51315D01*
X36800Y51065D02*
Y51315D01*
X36700Y51062D02*
Y51318D01*
X36785Y51065D02*
X37785D01*
X36400Y50998D02*
Y51381D01*
X36600Y51050D02*
Y51330D01*
X41900Y47975D02*
Y53350D01*
X41800Y47975D02*
Y53250D01*
X41700Y47975D02*
Y53150D01*
X41600Y47975D02*
Y53050D01*
X41500Y47975D02*
Y52950D01*
X41400Y47975D02*
Y52850D01*
X41300Y47975D02*
Y52750D01*
X41200Y47975D02*
Y52650D01*
X41100Y47975D02*
Y52550D01*
X41000Y47975D02*
Y52450D01*
X40900Y47975D02*
Y52350D01*
X40800Y47975D02*
Y52250D01*
X40700Y47975D02*
Y52175D01*
X40600Y47975D02*
Y52175D01*
X40500Y47975D02*
Y52175D01*
X40400Y47975D02*
Y52175D01*
X40300Y47975D02*
Y52175D01*
X38932Y50000D02*
X41984D01*
X38935Y49900D02*
X41967D01*
X38929Y49800D02*
X41952D01*
X38915Y49700D02*
X41940D01*
X38891Y49600D02*
X41930D01*
X40200Y47975D02*
Y52175D01*
X40100Y47975D02*
Y52175D01*
X40000Y47975D02*
Y52175D01*
X39900Y47975D02*
Y52175D01*
X38858Y49500D02*
X41921D01*
X38813Y49400D02*
X41915D01*
X38757Y49300D02*
X41911D01*
X38686Y49200D02*
X41909D01*
X38597Y49100D02*
X41909D01*
X38482Y49000D02*
X41911D01*
X38326Y48900D02*
X41915D01*
X38067Y48800D02*
X41921D01*
X39800Y47975D02*
Y52175D01*
X39700Y47975D02*
Y52175D01*
X39600Y47975D02*
Y52175D01*
X39500Y47975D02*
Y52175D01*
X39400Y47975D02*
Y52175D01*
X39300Y47975D02*
Y52175D01*
X39200Y47975D02*
Y52175D01*
X39100Y47975D02*
Y52175D01*
X39000Y47975D02*
Y52175D01*
X38900Y47975D02*
Y49632D01*
X38800Y47975D02*
Y49374D01*
X38700Y47975D02*
Y49218D01*
X35900Y47975D02*
Y49181D01*
X35700Y47975D02*
Y49535D01*
X35800Y47975D02*
Y49322D01*
X38600Y47975D02*
Y49103D01*
X38500Y47975D02*
Y49014D01*
X38400Y47975D02*
Y48943D01*
X38300Y47975D02*
Y48886D01*
X38200Y47975D02*
Y48842D01*
X38100Y47975D02*
Y48809D01*
X38000Y47975D02*
Y48785D01*
X37900Y47975D02*
Y48771D01*
X37800Y47975D02*
Y48765D01*
X36785Y48765D02*
X37785D01*
X37700Y47975D02*
Y48765D01*
X37600Y47975D02*
Y48765D01*
X37500Y47975D02*
Y48765D01*
X36200Y47975D02*
Y48925D01*
X36300Y47975D02*
Y48872D01*
X36000Y47975D02*
Y49075D01*
X36100Y47975D02*
Y48991D01*
X30500Y51575D02*
Y52175D01*
X30400Y51575D02*
Y52175D01*
X30300Y51575D02*
Y52175D01*
X30200Y51575D02*
Y52175D01*
X30100Y51575D02*
Y52175D01*
X30000Y51575D02*
Y52175D01*
X29900Y51575D02*
Y52175D01*
X29800Y51575D02*
Y52175D01*
X29700Y51575D02*
Y52175D01*
X26863Y52100D02*
X35695D01*
X26817Y51900D02*
X35784D01*
X26871Y52175D02*
X35672D01*
X26844Y52000D02*
X35733D01*
X26781Y51800D02*
X35847D01*
X26735Y51700D02*
X35927D01*
X29600Y51575D02*
Y52175D01*
X29500Y51575D02*
Y52175D01*
X30520Y51300D02*
X42409D01*
X30520Y51200D02*
X42361D01*
X30520Y51100D02*
X42316D01*
X30520Y51500D02*
X36160D01*
X30520Y51400D02*
X36351D01*
X30520Y51000D02*
X36404D01*
X30520Y50900D02*
X36192D01*
X30520Y50800D02*
X36051D01*
X30520Y50700D02*
X35945D01*
X26677Y51600D02*
X36027D01*
X30520Y50600D02*
X35861D01*
X29250Y51575D02*
X30520D01*
Y50500D02*
X35795D01*
X30520Y50400D02*
X35742D01*
X30520Y50300D02*
X35702D01*
X30520Y50200D02*
X35671D01*
X30520Y50100D02*
X35650D01*
X29400Y51575D02*
Y52175D01*
X29300Y51575D02*
Y52175D01*
X29200Y51575D02*
Y52175D01*
X29100Y51575D02*
Y52175D01*
X29000Y51575D02*
Y52175D01*
X28900Y51575D02*
Y52175D01*
X28800Y51575D02*
Y52175D01*
X28700Y51575D02*
Y52175D01*
X28600Y51575D02*
Y52175D01*
X28500Y51575D02*
Y52175D01*
X28400Y51575D02*
Y52175D01*
X28300Y51575D02*
Y52175D01*
X28200Y51575D02*
Y52175D01*
X28100Y51575D02*
Y52175D01*
X28000Y51575D02*
Y52175D01*
X27900Y51575D02*
Y52175D01*
X27800Y51575D02*
Y52175D01*
X28620Y51575D02*
X29250D01*
X28620D02*
X29250D01*
X27980D02*
X28620D01*
X27700D02*
Y52175D01*
X27600Y51575D02*
Y52175D01*
X27350Y51575D02*
X27980D01*
X27350D02*
X27980D01*
X27500D02*
Y52175D01*
X27400Y51575D02*
Y52175D01*
X27300Y51575D02*
Y52175D01*
X27200Y51575D02*
Y52175D01*
X27100Y51575D02*
Y52175D01*
X27000Y51575D02*
Y52175D01*
X26900Y51575D02*
Y52175D01*
X26710Y51575D02*
X27350D01*
X26800D02*
Y51848D01*
X35600Y47975D02*
Y52175D01*
X35500Y47975D02*
Y52175D01*
X35400Y47975D02*
Y52175D01*
X35300Y47975D02*
Y52175D01*
X35200Y47975D02*
Y52175D01*
X35100Y47975D02*
Y52175D01*
X35000Y47975D02*
Y52175D01*
X34900Y47975D02*
Y52175D01*
X34800Y47975D02*
Y52175D01*
X34700Y47975D02*
Y52175D01*
X34600Y47975D02*
Y52175D01*
X34500Y47975D02*
Y52175D01*
X34400Y47975D02*
Y52175D01*
X34300Y47975D02*
Y52175D01*
X34200Y47975D02*
Y52175D01*
X34100Y47975D02*
Y52175D01*
X34000Y47975D02*
Y52175D01*
X30520Y50000D02*
X35638D01*
X30520Y49900D02*
X35635D01*
X30520Y49800D02*
X35641D01*
X30520Y49700D02*
X35655D01*
X33900Y47975D02*
Y52175D01*
X33800Y47975D02*
Y52175D01*
X33700Y47975D02*
Y52175D01*
X33600Y47975D02*
Y52175D01*
X30520Y49500D02*
X35713D01*
X30520Y49300D02*
X35813D01*
X30520Y49600D02*
X35679D01*
X30520Y49400D02*
X35757D01*
X30520Y49000D02*
X36089D01*
X30520Y48900D02*
X36244D01*
X30520Y49200D02*
X35884D01*
X30520Y49100D02*
X35974D01*
X33500Y47975D02*
Y52175D01*
X33400Y47975D02*
Y52175D01*
X33300Y47975D02*
Y52175D01*
X33200Y47975D02*
Y52175D01*
X33100Y47975D02*
Y52175D01*
X33000Y47975D02*
Y52175D01*
X32900Y47975D02*
Y52175D01*
X32800Y47975D02*
Y52175D01*
X32700Y47975D02*
Y52175D01*
X32600Y47975D02*
Y52175D01*
X32500Y47975D02*
Y52175D01*
X32400Y47975D02*
Y52175D01*
X32300Y47975D02*
Y52175D01*
X32200Y47975D02*
Y52175D01*
X32100Y47975D02*
Y52175D01*
X32000Y47975D02*
Y52175D01*
X31900Y47975D02*
Y52175D01*
X31800Y47975D02*
Y52175D01*
X31700Y47975D02*
Y52175D01*
X31600Y47975D02*
Y52175D01*
X31500Y47975D02*
Y52175D01*
X31400Y47975D02*
Y52175D01*
X31300Y47975D02*
Y52175D01*
X31200Y47975D02*
Y52175D01*
X31100Y47975D02*
Y52175D01*
X31000Y47975D02*
Y52175D01*
X30520Y48125D02*
Y51575D01*
X30900Y47975D02*
Y52175D01*
X30800Y47975D02*
Y52175D01*
X30700Y47975D02*
Y52175D01*
X30600Y47975D02*
Y52175D01*
X42900Y45793D02*
Y46150D01*
X42500D02*
X42942D01*
X42800Y45807D02*
Y46150D01*
X42000Y47975D02*
Y48213D01*
X42200Y45742D02*
Y46175D01*
X42100Y45704D02*
Y46175D01*
X42000Y45657D02*
Y46175D01*
X41900Y45599D02*
Y46175D01*
X41800Y45530D02*
Y46175D01*
X41700Y45446D02*
Y46175D01*
X41600Y45345D02*
Y46175D01*
X41500Y45218D02*
Y46175D01*
X41400Y45051D02*
Y46175D01*
X41300Y44796D02*
Y46175D01*
X41200Y43775D02*
Y46175D01*
X41100Y43721D02*
Y46175D01*
X41000Y43648D02*
Y46175D01*
X42700Y45815D02*
Y46150D01*
X42600Y45815D02*
Y46150D01*
X43000Y45770D02*
Y46078D01*
X42500Y45808D02*
Y46150D01*
X42400Y45794D02*
Y46156D01*
X42300Y45772D02*
Y46173D01*
X41527Y40600D02*
X41657D01*
X41300Y43812D02*
Y44035D01*
X38967Y45800D02*
X42438D01*
X38967Y45700D02*
X42090D01*
X38967Y45600D02*
X41901D01*
X38967Y45500D02*
X41762D01*
X38967Y45400D02*
X41652D01*
X39015Y43700D02*
X41068D01*
X39203Y43600D02*
X40948D01*
X40900Y43552D02*
Y46175D01*
X40800Y43452D02*
Y46175D01*
X40700Y43352D02*
Y46175D01*
X40600Y43252D02*
Y46175D01*
X40500Y43152D02*
Y46175D01*
X40400Y43052D02*
Y46175D01*
X40300Y42952D02*
Y46175D01*
X40200Y42852D02*
Y46175D01*
X40100Y42752D02*
Y46175D01*
X39600Y43188D02*
Y46175D01*
X39500Y43332D02*
Y46175D01*
X39400Y43443D02*
Y46175D01*
X39300Y43531D02*
Y46175D01*
X40000Y42652D02*
Y46175D01*
X39900Y42552D02*
Y46175D01*
X39800Y42452D02*
Y46175D01*
X39700Y42977D02*
Y46175D01*
X39648Y43100D02*
X40448D01*
X39593Y43200D02*
X40548D01*
X39691Y43000D02*
X40348D01*
X39725Y42900D02*
X40248D01*
X39750Y42800D02*
X40148D01*
X39768Y42420D02*
X40949Y43601D01*
X39766Y42700D02*
X40048D01*
X39774Y42600D02*
X39948D01*
X39100Y43660D02*
Y46175D01*
X39000Y43706D02*
Y46175D01*
X38900Y45816D02*
Y46175D01*
X38967Y43719D02*
Y45816D01*
X39338Y43500D02*
X40848D01*
X39442Y43400D02*
X40748D01*
X39200Y43602D02*
Y46175D01*
X39525Y43300D02*
X40648D01*
X42900Y38493D02*
Y40632D01*
X42800Y38518D02*
Y40577D01*
X42700Y38534D02*
Y40534D01*
X42600Y38542D02*
Y40500D01*
X42500Y38542D02*
Y40475D01*
X43000Y38460D02*
Y40700D01*
X43062Y38434D02*
Y38832D01*
X42400Y38534D02*
Y40459D01*
X42300Y38518D02*
Y40451D01*
X42100Y38843D02*
Y40459D01*
X42000Y38843D02*
Y40475D01*
X41427Y40500D02*
X41900D01*
X41900Y38843D02*
Y40500D01*
X42200Y38493D02*
Y40451D01*
X39770Y38843D02*
X42138D01*
X41800D02*
Y40534D01*
X42138Y38473D02*
Y38843D01*
Y38700D02*
X43062D01*
X42138Y38600D02*
X43062D01*
X42877Y38500D02*
X43062D01*
X42921Y36100D02*
X43062D01*
X42138Y36000D02*
X43062D01*
Y35732D02*
Y36153D01*
X42138Y35743D02*
Y36113D01*
Y35900D02*
X43062D01*
X42138Y35800D02*
X43062D01*
X39338Y35743D02*
X42138D01*
X42100Y35543D02*
Y35743D01*
X42000Y35543D02*
Y35743D01*
X42138Y35500D02*
X43012D01*
X41900Y35543D02*
Y35743D01*
X41800Y35543D02*
Y35743D01*
X41700Y38843D02*
Y40578D01*
X41600Y38843D02*
Y40632D01*
X41500Y38843D02*
Y40573D01*
X41400Y38843D02*
Y40473D01*
X41300Y38843D02*
Y40373D01*
X41200Y38843D02*
Y40273D01*
X41100Y38843D02*
Y40173D01*
X41000Y38843D02*
Y40073D01*
X40900Y38843D02*
Y39973D01*
X40800Y38843D02*
Y39873D01*
X40700Y38843D02*
Y39773D01*
X40600Y38843D02*
Y39673D01*
X40500Y38843D02*
Y39573D01*
X39770Y38843D02*
X41575Y40648D01*
X40400Y38843D02*
Y39473D01*
X40300Y38843D02*
Y39373D01*
X40200Y38843D02*
Y39273D01*
X41700Y35543D02*
Y35743D01*
X41600Y35543D02*
Y35743D01*
X41500Y35543D02*
Y35743D01*
X41400Y35543D02*
Y35743D01*
X41300Y35543D02*
Y35743D01*
X41200Y35543D02*
Y35743D01*
X41100Y35543D02*
Y35743D01*
X41000Y35543D02*
Y35743D01*
X40900Y35543D02*
Y35743D01*
X40100Y38843D02*
Y39173D01*
X40800Y35543D02*
Y35743D01*
X40000Y38843D02*
Y39073D01*
X39900Y38843D02*
Y38973D01*
X40700Y35543D02*
Y35743D01*
X40600Y35543D02*
Y35743D01*
X40500Y35543D02*
Y35743D01*
X40400Y35543D02*
Y35743D01*
X37400Y47975D02*
Y48765D01*
X37300Y47975D02*
Y48765D01*
X37200Y47975D02*
Y48765D01*
X37100Y47975D02*
Y48765D01*
X37000Y47975D02*
Y48765D01*
X36900Y47975D02*
Y48765D01*
X36800Y47975D02*
Y48765D01*
X36700Y47975D02*
Y48768D01*
X36600Y47975D02*
Y48780D01*
X30520Y48700D02*
X41930D01*
X30520Y48600D02*
X41940D01*
X30520Y48800D02*
X36503D01*
X30520Y48500D02*
X41952D01*
X30520Y48400D02*
X41967D01*
X30520Y48300D02*
X41984D01*
X36500Y47975D02*
Y48801D01*
X36400Y47975D02*
Y48831D01*
X30520Y48200D02*
X42002D01*
X30500Y47975D02*
Y48125D01*
X30400Y47975D02*
Y48125D01*
X30300Y47975D02*
Y48125D01*
X30200Y47975D02*
Y48125D01*
X38442Y46175D02*
X42289D01*
X38442Y46100D02*
X42982D01*
X38800Y45816D02*
Y46175D01*
X38700Y45816D02*
Y46175D01*
X29250Y48125D02*
X30520D01*
X30100Y47975D02*
Y48125D01*
X30000Y47975D02*
Y48125D01*
X29900Y47975D02*
Y48125D01*
X29800Y47975D02*
Y48125D01*
X29700Y47975D02*
Y48125D01*
X29600Y47975D02*
Y48125D01*
X29500Y47975D02*
Y48125D01*
X29400Y47975D02*
Y48125D01*
X29300Y47975D02*
Y48125D01*
X28620D02*
X29250D01*
X29200Y47975D02*
Y48125D01*
X29100Y47975D02*
Y48125D01*
X29000Y47975D02*
Y48125D01*
X28900Y47975D02*
Y48125D01*
X28800Y47975D02*
Y48125D01*
X28700Y47975D02*
Y48125D01*
X28620D02*
X29250D01*
X27980D02*
X28620D01*
X28600Y47975D02*
Y48125D01*
X28500Y47975D02*
Y48125D01*
X28400Y47975D02*
Y48125D01*
X28300Y47975D02*
Y48125D01*
X28200Y47975D02*
Y48125D01*
X28100Y47975D02*
Y48125D01*
X27350D02*
X27980D01*
X27350D02*
X27980D01*
X28000Y47975D02*
Y48125D01*
X27900Y47975D02*
Y48125D01*
X27800Y47975D02*
Y48125D01*
X27700Y47975D02*
Y48125D01*
X27600Y47975D02*
Y48125D01*
X27500Y47975D02*
Y48125D01*
X27400Y47975D02*
Y48125D01*
X26710D02*
X27350D01*
X27300Y47975D02*
Y48125D01*
X27200Y47975D02*
Y48125D01*
X27100Y47975D02*
Y48125D01*
X27000Y47975D02*
Y48125D01*
X26900Y47975D02*
Y48125D01*
X26800Y47975D02*
Y48125D01*
X26700Y47975D02*
Y48125D01*
X38967Y45300D02*
X41562D01*
X38967Y45200D02*
X41487D01*
X38967Y45100D02*
X41426D01*
X38967Y45000D02*
X41375D01*
X38967Y44900D02*
X41334D01*
X38967Y44800D02*
X41301D01*
X38967Y44700D02*
X41276D01*
X38967Y44600D02*
X41259D01*
X38967Y44500D02*
X41250D01*
X38600Y45816D02*
Y46175D01*
X38442Y45816D02*
X38967D01*
X38500D02*
Y46175D01*
X38442Y45816D02*
Y46175D01*
X38967Y44200D02*
X41264D01*
X38967Y44100D02*
X41283D01*
X38967Y44400D02*
X41247D01*
X38967Y44300D02*
X41252D01*
X38967Y44000D02*
X41310D01*
X38967Y43900D02*
X41346D01*
X38967Y43800D02*
X41262D01*
X36225Y38150D02*
X36438D01*
X37930Y35743D02*
X39238D01*
X38000Y35621D02*
Y35743D01*
X35700Y38143D02*
Y38332D01*
X35800Y38143D02*
Y38264D01*
X34175Y38300D02*
X35743D01*
X34175Y38200D02*
X35938D01*
X35163Y38143D02*
X36438D01*
X34671Y35600D02*
X36015D01*
X34871Y35800D02*
X35768D01*
X34771Y35700D02*
X35897D01*
X35273Y38750D02*
X35624Y38399D01*
X34625Y38750D02*
X35273D01*
X35300Y38143D02*
Y38723D01*
X35200Y38143D02*
Y38750D01*
X35100Y38141D02*
Y38750D01*
X35000Y38128D02*
Y38750D01*
X34900Y38102D02*
Y38750D01*
X34400Y38100D02*
Y38780D01*
X34800Y38062D02*
Y38750D01*
X34175Y38700D02*
X35323D01*
X34175Y38800D02*
X34338D01*
X34200Y38124D02*
Y38864D01*
X34300Y38113D02*
Y38815D01*
X34175Y38525D02*
Y38879D01*
X34175Y38525D02*
Y38879D01*
X35500Y38143D02*
Y38523D01*
X35400Y38143D02*
Y38623D01*
X35600Y38143D02*
Y38423D01*
X35071Y36000D02*
X35461D01*
X34971Y35900D02*
X35624D01*
X34700Y38049D02*
Y38750D01*
X35171Y36100D02*
X35274D01*
X34175Y38600D02*
X35423D01*
X34175Y38400D02*
X35623D01*
X34600Y38068D02*
Y38750D01*
X34500Y38085D02*
Y38759D01*
X34403Y38100D02*
X34894D01*
X34175Y38126D02*
Y38475D01*
X34175Y38126D02*
Y38475D01*
X48712Y35400D02*
X49200D01*
X48712Y35300D02*
X49200D01*
X48712Y35200D02*
X49200D01*
X48712Y35100D02*
X49200D01*
X48712Y35000D02*
X49200D01*
X48712Y34900D02*
X49200D01*
X48712Y34800D02*
X49200D01*
X48712Y34700D02*
X49200D01*
X48712Y34600D02*
X49200D01*
X48712Y34500D02*
X49200D01*
X48712Y34400D02*
X49200D01*
X48712Y34300D02*
X49200D01*
X48712Y34200D02*
X49200D01*
X48712Y34100D02*
X49200D01*
X48712Y34000D02*
X49200D01*
X48712Y33900D02*
X49200D01*
X48712Y33800D02*
X49200D01*
X48712Y33700D02*
X49200D01*
X48712Y33600D02*
X49200D01*
X48712Y33500D02*
X49200D01*
X48737Y32600D02*
X49200D01*
X48737Y32500D02*
X49200D01*
X48737Y32400D02*
X49200D01*
X48737Y32300D02*
X49200D01*
X48737Y32200D02*
X49200D01*
X48737Y32100D02*
X49200D01*
X48737Y32000D02*
X49200D01*
X48712Y33400D02*
X49200D01*
X48712Y33300D02*
X49200D01*
X48712Y33200D02*
X49200D01*
X48712Y33100D02*
X49200D01*
X48712Y33000D02*
X49200D01*
X48712Y32900D02*
X49200D01*
X48712Y32800D02*
X49200D01*
X48712Y32700D02*
X49200D01*
X48737Y31900D02*
X49200D01*
X48737Y31800D02*
X49200D01*
X48737Y31700D02*
X49200D01*
X48737Y31600D02*
X49200D01*
X48737Y31500D02*
X49200D01*
X48737Y31400D02*
X49200D01*
X48737Y31300D02*
X49200D01*
X48737Y29732D02*
Y32632D01*
Y31200D02*
X49200D01*
X48737Y31100D02*
X49200D01*
X48737Y31000D02*
X49200D01*
X48712Y32632D02*
Y35532D01*
Y32432D02*
Y32632D01*
X48737Y30900D02*
X49200D01*
X48737Y30800D02*
X49200D01*
X48737Y30700D02*
X49200D01*
X48737Y30600D02*
X49200D01*
X48737Y30500D02*
X49200D01*
X48737Y30400D02*
X49200D01*
X48737Y30300D02*
X49200D01*
X48737Y30200D02*
X49200D01*
X48737Y30100D02*
X49200D01*
X48737Y30000D02*
X49200D01*
X48737Y29900D02*
X49200D01*
X48737Y29800D02*
X49200D01*
X48737Y29700D02*
X49200D01*
X48737Y29600D02*
X49200D01*
X48737Y29500D02*
X49200D01*
X48737Y29532D02*
Y29732D01*
Y29532D02*
Y29732D01*
Y29400D02*
X49200D01*
X48737Y29300D02*
X49200D01*
X48737Y29200D02*
X49200D01*
X48737Y29100D02*
X49200D01*
X48737Y29000D02*
X49200D01*
X48737Y28900D02*
X49200D01*
X48737Y28800D02*
X49200D01*
X48737Y28700D02*
X49200D01*
X48737Y28600D02*
X49200D01*
X48737Y28500D02*
X49200D01*
X48737Y28400D02*
X49200D01*
X48737Y28300D02*
X49200D01*
X48737Y28200D02*
X49200D01*
X48737Y28100D02*
X49200D01*
X48737Y28000D02*
X49200D01*
X48737Y27900D02*
X49200D01*
X48737Y27800D02*
X49200D01*
X48737Y27700D02*
X49200D01*
X48737Y27600D02*
X49200D01*
X48737Y27500D02*
X49200D01*
X48737Y27400D02*
X49200D01*
X48737Y27300D02*
X49200D01*
X48737Y27200D02*
X49200D01*
X48737Y27100D02*
X49200D01*
X48737Y27000D02*
X49200D01*
X48737Y26900D02*
X49200D01*
X48737Y26800D02*
X49200D01*
X48737Y26700D02*
X49200D01*
X48712Y26600D02*
X49200D01*
X48712Y26500D02*
X49200D01*
X48712Y26400D02*
X49200D01*
X48712Y26300D02*
X49200D01*
X48712Y26200D02*
X49200D01*
X48712Y26100D02*
X49200D01*
X48712Y26000D02*
X49200D01*
X48712Y25900D02*
X49200D01*
X48712Y25800D02*
X49200D01*
X48712Y25700D02*
X49200D01*
X49000Y20694D02*
Y40538D01*
X48800Y21850D02*
Y40209D01*
X48737Y26632D02*
Y29532D01*
X48712Y26632D02*
Y26882D01*
Y23782D02*
Y26632D01*
X49200Y20631D02*
Y44922D01*
X49200Y20631D02*
Y44922D01*
X49100Y20667D02*
Y40822D01*
X48900Y20713D02*
Y40352D01*
X48712Y25600D02*
X49200D01*
X48712Y25500D02*
X49200D01*
X48712Y25400D02*
X49200D01*
X48712Y25300D02*
X49200D01*
X48712Y25200D02*
X49200D01*
X48712Y25100D02*
X49200D01*
X48712Y25000D02*
X49200D01*
X48712Y24900D02*
X49200D01*
X48712Y24800D02*
X49200D01*
X48712Y24700D02*
X49200D01*
X48712Y24600D02*
X49200D01*
X48712Y24500D02*
X49200D01*
X48712Y24400D02*
X49200D01*
X48712Y24300D02*
X49200D01*
X48712Y24200D02*
X49200D01*
X48712Y24100D02*
X49200D01*
X48712Y24000D02*
X49200D01*
X48712Y23900D02*
X49200D01*
X48712Y23800D02*
X49200D01*
X48700Y21850D02*
Y23782D01*
X48600Y21850D02*
Y23782D01*
X48500Y21850D02*
Y23782D01*
X48400Y21850D02*
Y23782D01*
X48300Y21850D02*
Y23782D01*
X48200Y21850D02*
Y23782D01*
X45812D02*
X48712D01*
X45650Y23700D02*
X49200D01*
X45700Y23370D02*
Y23782D01*
X45623D02*
X45812D01*
X45675Y23600D02*
X49200D01*
X43012Y23782D02*
X43277D01*
X41491Y23700D02*
X43250D01*
X45691Y23500D02*
X49200D01*
X41499Y23600D02*
X43225D01*
X41499Y23500D02*
X43209D01*
X45699Y23400D02*
X49200D01*
X45699Y23300D02*
X49200D01*
X45691Y23200D02*
X49200D01*
X45675Y23100D02*
X49200D01*
X45650Y23000D02*
X49200D01*
X45616Y22900D02*
X49200D01*
X45572Y22800D02*
X49200D01*
X45518Y22700D02*
X49200D01*
X45450Y22600D02*
X49200D01*
X41491Y23400D02*
X43201D01*
X41475Y23300D02*
X43201D01*
X41450Y23200D02*
X43209D01*
X41416Y23100D02*
X43225D01*
X41166Y22700D02*
X43382D01*
X41062Y22600D02*
X43450D01*
X41318Y22900D02*
X43284D01*
X41250Y22800D02*
X43328D01*
X43000Y34843D02*
Y36127D01*
X42900Y34843D02*
Y36093D01*
X43012Y34843D02*
Y35532D01*
X42800Y34843D02*
Y36069D01*
X42700Y34843D02*
Y36052D01*
X42600Y34843D02*
Y36044D01*
X42500Y34843D02*
Y36044D01*
X42400Y34843D02*
Y36052D01*
X42300Y34843D02*
Y36069D01*
X42138Y35400D02*
X43012D01*
X42138Y35300D02*
X43012D01*
X39338Y35543D02*
X42138D01*
Y35200D02*
X43012D01*
X42138Y35100D02*
X43012D01*
X42138Y35000D02*
X43012D01*
X42200Y34843D02*
Y36093D01*
X42138Y34873D02*
Y35543D01*
X42167Y34843D02*
X43012D01*
X42138Y34900D02*
X43012D01*
X43012Y24312D02*
Y24482D01*
Y23782D02*
Y24312D01*
X41475Y23800D02*
X43012D01*
X42500Y22557D02*
Y24312D01*
X42400Y22557D02*
Y24312D01*
X42300Y22557D02*
Y24312D01*
X41500Y23570D02*
Y24312D01*
X41250Y24300D02*
X43012D01*
X41241Y24312D02*
X43012D01*
X41318Y24200D02*
X43012D01*
X41373Y24100D02*
X43012D01*
X41416Y24000D02*
X43012D01*
X41372Y23000D02*
X43250D01*
X41450Y23900D02*
X43012D01*
X48100Y21850D02*
Y23782D01*
X48000Y21850D02*
Y23782D01*
X47900Y21850D02*
Y23782D01*
X47800Y21850D02*
Y23782D01*
X47700Y21850D02*
Y23782D01*
X47600Y21850D02*
Y23782D01*
X47500Y21850D02*
Y23782D01*
X47400Y21850D02*
Y23782D01*
X47300Y21850D02*
Y23782D01*
X47200Y21850D02*
Y23782D01*
X47100Y21850D02*
Y23782D01*
X47000Y21850D02*
Y23782D01*
X46900Y21850D02*
Y23782D01*
X46800Y21850D02*
Y23782D01*
X46700Y21850D02*
Y23782D01*
X46600Y21850D02*
Y23782D01*
X46500Y21850D02*
Y23782D01*
X46400Y21850D02*
Y23782D01*
X46300Y21850D02*
Y23782D01*
X46200Y21850D02*
Y23782D01*
X46100Y21850D02*
Y23782D01*
X46000Y21850D02*
Y23782D01*
X45900Y21850D02*
Y23782D01*
X45800Y21850D02*
Y23782D01*
X45700Y21850D02*
Y23330D01*
X45600Y21850D02*
Y22860D01*
X45366Y22500D02*
X49200D01*
X45262Y22400D02*
X49200D01*
X45128Y22300D02*
X49200D01*
X44940Y22200D02*
X49200D01*
X45500Y21850D02*
Y22672D01*
X45400Y21850D02*
Y22537D01*
X45300Y21850D02*
Y22433D01*
X43200Y21850D02*
Y23782D01*
X43100Y21850D02*
Y23782D01*
X43300Y21850D02*
Y22860D01*
X43000Y19928D02*
Y24312D01*
X42200Y22557D02*
Y24312D01*
X42900Y19843D02*
Y24312D01*
X42800Y19753D02*
Y24312D01*
X42700Y19658D02*
Y24312D01*
X42600Y19558D02*
Y24312D01*
X42100Y22557D02*
Y24312D01*
X42000Y22557D02*
Y24312D01*
X41900Y22557D02*
Y24312D01*
X41800Y22557D02*
Y24312D01*
X41700Y22557D02*
Y24312D01*
X41600Y22557D02*
Y24312D01*
X41500Y22557D02*
Y23530D01*
X45200Y21850D02*
Y22350D01*
X45100Y21850D02*
Y22282D01*
X45000Y21850D02*
Y22227D01*
X44900Y21850D02*
Y22184D01*
X44800Y21850D02*
Y22150D01*
X43900Y21850D02*
Y22228D01*
X44700Y21850D02*
Y22125D01*
X43700Y21850D02*
Y22350D01*
X43800Y21850D02*
Y22282D01*
X42537Y22400D02*
X43638D01*
X42537Y22300D02*
X43772D01*
X41009Y22557D02*
X42537D01*
Y22500D02*
X43534D01*
X43500Y21850D02*
Y22538D01*
X43600Y21850D02*
Y22434D01*
X43400Y21850D02*
Y22672D01*
X42537Y19492D02*
Y22557D01*
X48805Y21800D02*
X49200D01*
X48805Y21700D02*
X49200D01*
X48805Y21600D02*
X49200D01*
X48805Y21500D02*
X49200D01*
X48805Y21400D02*
X49200D01*
X48805Y21300D02*
X49200D01*
X48974Y20700D02*
X49200D01*
X49058Y12300D02*
X49200D01*
X48922Y12200D02*
X49200D01*
X48805Y21200D02*
X49200D01*
X48805Y21100D02*
X49200D01*
X48805Y21000D02*
X49200D01*
X48805Y20900D02*
X49200D01*
X48805Y20800D02*
X49200D01*
X48775Y12100D02*
X49200D01*
X48710Y12000D02*
X49200D01*
X49063Y11900D02*
X49200D01*
X49063Y11800D02*
X49200D01*
X49063Y11700D02*
X49200D01*
X49063Y11600D02*
X49200D01*
X49063Y11500D02*
X49200D01*
X49063Y11400D02*
X49200D01*
X49063Y11300D02*
X49200D01*
X49063Y11200D02*
X49200D01*
X49063Y11100D02*
X49200D01*
X49063Y11000D02*
X49200D01*
X49063Y10900D02*
X49200D01*
X49063Y10800D02*
X49200D01*
X49063Y10700D02*
X49200D01*
X49063Y10600D02*
X49200D01*
X49063Y10500D02*
X49200D01*
X49063Y10400D02*
X49200D01*
X49063Y10300D02*
X49200D01*
X49000Y11968D02*
Y12256D01*
X48805Y20722D02*
Y21850D01*
X48900Y11968D02*
Y12185D01*
X48800Y11968D02*
Y12116D01*
X49063Y10200D02*
X49200D01*
X49063Y10100D02*
X49200D01*
X48693Y11968D02*
X49063D01*
Y8868D02*
Y11968D01*
X46905Y21850D02*
X48805D01*
X46905Y21850D02*
X47535D01*
X46265D02*
X46905D01*
X45635D02*
X46265D01*
X45635D02*
X46265D01*
X44995D02*
X45635D01*
X44600D02*
Y22109D01*
X49063Y10000D02*
X49200D01*
X49063Y9900D02*
X49200D01*
X49063Y9800D02*
X49200D01*
X49063Y9700D02*
X49200D01*
X49063Y9600D02*
X49200D01*
X49063Y9500D02*
X49200D01*
X49063Y9400D02*
X49200D01*
X49063Y9300D02*
X49200D01*
X49063Y9200D02*
X49200D01*
X49063Y9100D02*
X49200D01*
X49063Y9000D02*
X49200D01*
X49063Y8900D02*
X49200D01*
X47364Y8868D02*
X49063D01*
X47319Y8800D02*
X49200D01*
X47249Y8700D02*
X49200D01*
X45100Y8751D02*
Y8868D01*
X45000Y8688D02*
Y8868D01*
X49000Y7854D02*
Y8868D01*
X48892Y8000D02*
X49200D01*
X48969Y7900D02*
X49200D01*
X48900Y7991D02*
Y8868D01*
X48800Y8100D02*
Y8868D01*
X49200Y7337D02*
Y12412D01*
X49032Y7800D02*
X49200D01*
Y7336D02*
Y12413D01*
X49100Y7667D02*
Y12332D01*
X47176Y8600D02*
X49200D01*
X47835Y8500D02*
X49200D01*
X48340Y8400D02*
X49200D01*
X48541Y8300D02*
X49200D01*
X48686Y8200D02*
X49200D01*
X48800Y8100D02*
X49200D01*
X48700Y8189D02*
Y8868D01*
X49085Y7700D02*
X49200D01*
X49085Y6500D02*
X49200D01*
X49032Y6400D02*
X49200D01*
X48969Y6300D02*
X49200D01*
X48892Y6200D02*
X49200D01*
X49200Y5850D02*
Y6863D01*
X49200Y5850D02*
Y6864D01*
X49100Y5850D02*
Y6533D01*
X49000Y5850D02*
Y6346D01*
X48800Y6100D02*
X49200D01*
X48686Y6000D02*
X49200D01*
X48541Y5900D02*
X49200D01*
X48450Y5850D02*
X49200D01*
X48900D02*
Y6209D01*
X48800Y5850D02*
Y6100D01*
X48200Y8447D02*
Y8868D01*
X48100Y8472D02*
Y8868D01*
X48000Y8488D02*
Y8868D01*
X47900Y8498D02*
Y8868D01*
X47800Y8500D02*
Y8868D01*
X48600Y8263D02*
Y8868D01*
X48500Y8324D02*
Y8868D01*
X48400Y8374D02*
Y8868D01*
X48300Y8415D02*
Y8868D01*
X47700Y8495D02*
Y8868D01*
X44900Y8630D02*
Y8868D01*
X44800Y8576D02*
Y8868D01*
X44700Y8526D02*
Y8868D01*
X47600Y8483D02*
Y8868D01*
X47500Y8463D02*
Y8868D01*
X47400Y8435D02*
Y8868D01*
X47300Y8400D02*
Y8772D01*
X47099Y8500D02*
X47805D01*
X47018Y8400D02*
X47300D01*
X47200Y8355D02*
Y8632D01*
X47100Y8301D02*
Y8501D01*
X48700Y5850D02*
Y6011D01*
X47000Y8235D02*
Y8379D01*
X46932Y8300D02*
X47099D01*
X46900Y8155D02*
Y8264D01*
X46841Y8200D02*
X46954D01*
X46700Y7940D02*
Y8055D01*
X46643Y8000D02*
X46748D01*
X46535Y7900D02*
X46671D01*
X46600Y7786D02*
Y7959D01*
X46492Y7800D02*
X46608D01*
X44500Y21850D02*
Y22101D01*
X44365Y21850D02*
X44995D01*
X44365D02*
X44995D01*
X44400D02*
Y22101D01*
X44300Y21850D02*
Y22109D01*
X44200Y21850D02*
Y22125D01*
X43095Y21850D02*
X44365D01*
X44100D02*
Y22150D01*
X44000Y21850D02*
Y22184D01*
X42537Y22100D02*
X49200D01*
X42537Y22000D02*
X49200D01*
X42537Y22200D02*
X43960D01*
X42537Y21900D02*
X49200D01*
X42537Y21800D02*
X43095D01*
X42537Y21700D02*
X43095D01*
X42537Y21600D02*
X43095D01*
X42537Y21500D02*
X43095D01*
X42537Y21400D02*
X43095D01*
X40032Y12200D02*
X43289D01*
X40013Y12100D02*
X43436D01*
X42537Y21300D02*
X43095D01*
X42537Y21200D02*
X43095D01*
X43363Y11968D02*
X43648D01*
X43400D02*
Y12124D01*
X39997Y12000D02*
X43595D01*
X39984Y11900D02*
X43363D01*
X39974Y11800D02*
X43363D01*
X39967Y11700D02*
X43363D01*
X39964Y11600D02*
X43363D01*
X39963Y11500D02*
X43363D01*
X39965Y11400D02*
X43363D01*
X39970Y11300D02*
X43363D01*
X39979Y11200D02*
X43363D01*
X42537Y21100D02*
X43095D01*
X42537Y21000D02*
X43095D01*
X42537Y20900D02*
X43095D01*
X42537Y20800D02*
X43095D01*
X42537Y20700D02*
X43095D01*
X42537Y20600D02*
X43095D01*
X42537Y20500D02*
X43095D01*
Y20005D02*
Y21850D01*
X42537Y20400D02*
X43095D01*
X42537Y20300D02*
X43095D01*
X42537Y20200D02*
X43095D01*
X42537Y20100D02*
X43095D01*
X42537Y20000D02*
X43088D01*
X42537Y19900D02*
X42966D01*
X42537Y19800D02*
X42851D01*
X42512Y19465D02*
Y19732D01*
X42537Y19700D02*
X42743D01*
X42537Y19600D02*
X42641D01*
X40658Y13557D02*
X41997D01*
X40615Y13500D02*
X42034D01*
X40478Y13300D02*
X42173D01*
X40360Y13100D02*
X42327D01*
X40543Y13400D02*
X42102D01*
X40417Y13200D02*
X42248D01*
X40218Y12800D02*
X42592D01*
X40178Y12700D02*
X42691D01*
X40309Y13000D02*
X42411D01*
X40261Y12900D02*
X42499D01*
X40080Y12400D02*
X43026D01*
X40055Y12300D02*
X43153D01*
X40142Y12600D02*
X42796D01*
X40109Y12500D02*
X42908D01*
X40159Y10400D02*
X43363D01*
X40239Y10200D02*
X43363D01*
X41699Y10100D02*
X43363D01*
X41995Y10000D02*
X43363D01*
Y8868D02*
X45268D01*
X44600Y8481D02*
Y8868D01*
X44500Y8440D02*
Y8868D01*
X39990Y11100D02*
X43363D01*
X40005Y11000D02*
X43363D01*
X40022Y10900D02*
X43363D01*
X40043Y10800D02*
X43363D01*
X40067Y10700D02*
X43363D01*
X40094Y10600D02*
X43363D01*
X40125Y10500D02*
X43363D01*
X40197Y10300D02*
X43363D01*
X44400Y8402D02*
Y8868D01*
X44300Y8368D02*
Y8868D01*
X44200Y8337D02*
Y8868D01*
X44100Y8310D02*
Y8868D01*
X44000Y8286D02*
Y8868D01*
X43900Y8266D02*
Y8868D01*
X43800Y8248D02*
Y8868D01*
X43700Y8234D02*
Y8868D01*
X43600Y8223D02*
Y8868D01*
X42698Y8800D02*
X45173D01*
X42688Y8700D02*
X45020D01*
X42669Y8600D02*
X44846D01*
X42755Y8500D02*
X44643D01*
X43260Y8400D02*
X44394D01*
X43461Y8300D02*
X44058D01*
X43500Y8276D02*
Y8868D01*
X42700Y8895D02*
Y12692D01*
X42600Y9365D02*
Y12792D01*
X43100Y8453D02*
Y12341D01*
X42400Y9688D02*
Y13013D01*
X42500Y9553D02*
Y12899D01*
X43000Y8476D02*
Y12422D01*
X43200Y8422D02*
Y12265D01*
X42800Y8499D02*
Y12597D01*
X42900Y8491D02*
Y12507D01*
X41900Y10041D02*
Y13557D01*
X41800Y10075D02*
Y13557D01*
X41700Y10100D02*
Y13557D01*
X41600Y10116D02*
Y13557D01*
X42200Y9875D02*
Y13263D01*
X42300Y9792D02*
Y13134D01*
X42000Y9998D02*
Y13553D01*
X42100Y9943D02*
Y13402D01*
X42657Y9200D02*
X43363D01*
X42680Y9100D02*
X43363D01*
X42694Y9000D02*
X43363D01*
Y8868D02*
Y11968D01*
X42700Y8900D02*
X43363D01*
X43300Y8383D02*
Y12192D01*
X43400Y8335D02*
Y8868D01*
X42700Y8499D02*
Y8855D01*
X42166Y9900D02*
X43363D01*
X42291Y9800D02*
X43363D01*
X42389Y9700D02*
X43363D01*
X42468Y9600D02*
X43363D01*
X42533Y9500D02*
X43363D01*
X42584Y9400D02*
X43363D01*
X42626Y9300D02*
X43363D01*
X40300Y35543D02*
Y35743D01*
X40200Y35543D02*
Y35743D01*
X40100Y35543D02*
Y35743D01*
X40000Y35543D02*
Y35743D01*
X39900Y35543D02*
Y35743D01*
X39800Y35543D02*
Y35743D01*
X39700Y35543D02*
Y35743D01*
X39600Y35543D02*
Y35743D01*
X39500Y35543D02*
Y35743D01*
X39400Y35543D02*
Y35743D01*
X39200Y35543D02*
Y35743D01*
X39100Y35543D02*
Y35743D01*
X39000Y35543D02*
Y35743D01*
X38900Y35543D02*
Y35743D01*
X38800Y35543D02*
Y35743D01*
X38700Y35543D02*
Y35743D01*
X38600Y35543D02*
Y35743D01*
X38500Y35543D02*
Y35743D01*
X38400Y35543D02*
Y35743D01*
X41400Y24040D02*
Y24312D01*
X38300Y35543D02*
Y35743D01*
X38200Y35543D02*
Y35743D01*
X41400Y22557D02*
Y23060D01*
X41300Y22557D02*
Y22872D01*
X41200Y22557D02*
Y22737D01*
X38100Y35543D02*
Y35743D01*
X38042Y35543D02*
X39238D01*
X34171Y35100D02*
X36438D01*
Y34875D02*
Y35144D01*
X34071Y35000D02*
X36438D01*
X33971Y34900D02*
X36438D01*
X33946Y34875D02*
X36438D01*
X36000D02*
Y35613D01*
X35900Y34875D02*
Y35698D01*
X36100Y34875D02*
Y35521D01*
X35800Y34875D02*
Y35776D01*
X35700Y34875D02*
Y35848D01*
X35500Y34875D02*
Y35977D01*
X35600Y34875D02*
Y35915D01*
X35400Y34875D02*
Y36034D01*
X35300Y34875D02*
Y36087D01*
X35200Y34875D02*
Y36129D01*
X35100Y34875D02*
Y36029D01*
X35000Y34875D02*
Y35929D01*
X34900Y34875D02*
Y35829D01*
X33946Y34875D02*
X35204Y36133D01*
X34800Y34875D02*
Y35729D01*
X34700Y34875D02*
Y35629D01*
X34600Y34875D02*
Y35529D01*
X34371Y35300D02*
X36311D01*
X34271Y35200D02*
X36394D01*
X36400Y34875D02*
Y35193D01*
X34571Y35500D02*
X36122D01*
X34471Y35400D02*
X36220D01*
X36200Y34875D02*
Y35421D01*
X36300Y34875D02*
Y35312D01*
X34500Y34875D02*
Y35429D01*
X34400Y34875D02*
Y35329D01*
X34300Y34875D02*
Y35229D01*
X34200Y34875D02*
Y35129D01*
X34100Y34875D02*
Y35029D01*
X31700Y21016D02*
Y21292D01*
X30862Y21000D02*
X31687D01*
X30862Y20900D02*
X31620D01*
X31600Y20866D02*
Y21392D01*
X30862Y20800D02*
X31565D01*
X36192Y20425D02*
X36837D01*
X36168Y20400D02*
X36837D01*
Y19732D02*
Y20425D01*
X36800Y19232D02*
Y20425D01*
X36700Y19232D02*
Y20425D01*
X36600Y19232D02*
Y20425D01*
X36500Y19232D02*
Y20425D01*
X36400Y19232D02*
Y20425D01*
X36300Y19232D02*
Y20425D01*
X36057Y20300D02*
X36837D01*
X35913Y20200D02*
X36837D01*
X36200Y19232D02*
Y20425D01*
X36100Y19232D02*
Y20336D01*
X36000Y19232D02*
Y20257D01*
X35900Y19232D02*
Y20192D01*
X35800Y19232D02*
Y20141D01*
X35701Y20100D02*
X36837D01*
X35491Y20000D02*
X36837D01*
X35499Y19900D02*
X36837D01*
X35500Y19869D02*
Y20045D01*
X36837Y19457D02*
Y19732D01*
X36812Y19232D02*
Y19732D01*
X35700Y19232D02*
Y20099D01*
X35600Y19232D02*
Y20068D01*
X35499Y19800D02*
X36837D01*
X35491Y19700D02*
X36812D01*
X35475Y19600D02*
X36812D01*
X35450Y19500D02*
X36812D01*
X35416Y19400D02*
X36812D01*
X35372Y19300D02*
X36812D01*
X35336Y19232D02*
X36812D01*
X31500Y20640D02*
Y21492D01*
X31400Y19232D02*
Y21592D01*
X31300Y19232D02*
Y21692D01*
X30862Y18203D02*
Y21032D01*
X31100Y16233D02*
Y21892D01*
X31200Y16259D02*
Y21792D01*
X30900Y16138D02*
Y22092D01*
X31000Y16193D02*
Y21992D01*
X30862Y20700D02*
X31521D01*
X30862Y20600D02*
X31487D01*
X30862Y20500D02*
X31463D01*
X30862Y20400D02*
X31446D01*
X30862Y20300D02*
X31438D01*
X30862Y20200D02*
X31438D01*
X30862Y20100D02*
X31446D01*
X30862Y20000D02*
X31463D01*
X35500Y19232D02*
Y19831D01*
X35400Y19232D02*
Y19360D01*
X31837Y19232D02*
Y19333D01*
X31800Y19232D02*
Y19370D01*
X31700Y19232D02*
Y19484D01*
X31237Y19232D02*
X31837D01*
X31500D02*
Y19860D01*
X31600Y19232D02*
Y19634D01*
X30862Y19800D02*
X31521D01*
X30862Y19600D02*
X31620D01*
X30862Y19900D02*
X31487D01*
X30862Y19700D02*
X31565D01*
X30862Y19400D02*
X31771D01*
X30862Y19300D02*
X31837D01*
X30862Y19500D02*
X31687D01*
X31237Y16266D02*
Y19232D01*
X29200Y28573D02*
Y31484D01*
X29300Y28673D02*
Y31250D01*
X28471Y33006D02*
X28911Y32566D01*
X29100Y28473D02*
Y31762D01*
X28900Y28273D02*
Y32577D01*
X29000Y28373D02*
Y32111D01*
X28700Y28073D02*
Y32777D01*
X28800Y28173D02*
Y32677D01*
X28471Y33006D02*
X28911Y32566D01*
X27600Y32600D02*
X28877D01*
X28471Y33006D02*
X28612Y32865D01*
X27668Y32700D02*
X28777D01*
X27412Y32400D02*
X28938D01*
X27278Y32300D02*
X28957D01*
X27517Y32500D02*
X28921D01*
X27090Y32200D02*
X28979D01*
X30200Y29573D02*
Y29849D01*
X30168Y29541D02*
X30309Y29683D01*
X30168Y29541D02*
X30309Y29683D01*
X30000Y29373D02*
Y30084D01*
X30100Y29473D02*
Y29963D01*
X29800Y29173D02*
Y30352D01*
X29900Y29273D02*
Y30213D01*
X29600Y28973D02*
Y30666D01*
X29700Y29073D02*
Y30503D01*
X29037Y28410D02*
X30309Y29683D01*
X29400Y28773D02*
Y31044D01*
X29500Y28873D02*
Y30846D01*
X29037Y28410D02*
X29178Y28551D01*
X29037Y28410D02*
X29178Y28551D01*
X28612Y27985D02*
X29037Y28410D01*
X28047Y27420D02*
X29037Y28410D01*
X28011Y33466D02*
X28471Y33006D01*
X28047Y33430D02*
X28471Y33006D01*
X28500Y27873D02*
Y32977D01*
X27946Y33400D02*
X28077D01*
X28400Y27773D02*
Y33077D01*
X28200Y27573D02*
Y33277D01*
X28300Y27673D02*
Y33177D01*
X28000Y27373D02*
Y33454D01*
X28100Y27473D02*
Y33377D01*
X27849Y33304D02*
X28011Y33466D01*
X27849Y33300D02*
X28177D01*
X26700Y34596D02*
Y34777D01*
X26734Y34593D02*
X26809Y34668D01*
X27825Y33100D02*
X28377D01*
X27800Y33000D02*
X28477D01*
X27900Y27273D02*
Y33354D01*
X27841Y33200D02*
X28277D01*
X28471Y27844D02*
X28612Y27985D01*
X27723Y32800D02*
X28677D01*
X28047Y27420D02*
X28612Y27985D01*
X27766Y32900D02*
X28577D01*
X28600Y27973D02*
Y32877D01*
X27905Y27278D02*
X28047Y27420D01*
X27905Y27278D02*
X28047Y27420D01*
X27800Y27173D02*
Y32999D01*
X27905Y27278D02*
X28047Y27420D01*
X27700Y27073D02*
Y32756D01*
X27600Y26973D02*
Y32600D01*
X27500Y26873D02*
Y32482D01*
X27400Y26773D02*
Y32389D01*
X27340Y26713D02*
X27905Y27278D01*
X27340Y26713D02*
X27481Y26854D01*
X27300Y26673D02*
Y32314D01*
X27200Y26573D02*
Y32253D01*
X30113Y22000D02*
X30992D01*
X30089Y21900D02*
X31092D01*
X30052Y21800D02*
X31192D01*
X30125Y22200D02*
X30792D01*
X30124Y22100D02*
X30892D01*
X30125Y22867D02*
X31831Y21161D01*
X30862Y19200D02*
X31237D01*
X30862Y19100D02*
X31237D01*
X30862Y19000D02*
X31237D01*
X29833Y21500D02*
X31492D01*
X29733Y21400D02*
X31592D01*
X30000Y21700D02*
X31292D01*
X29928Y21600D02*
X31392D01*
X29533Y21200D02*
X31792D01*
X29433Y21100D02*
X31771D01*
X29633Y21300D02*
X31692D01*
X29364Y21032D02*
X30862D01*
Y18900D02*
X31237D01*
X30862Y18800D02*
X31237D01*
X30862Y18700D02*
X31237D01*
X30862Y18600D02*
X31237D01*
X30862Y18500D02*
X31237D01*
X30862Y18400D02*
X31237D01*
X30862Y18300D02*
X31237D01*
X30893Y18200D02*
X31237D01*
X30862Y17932D02*
Y18203D01*
X30893Y18100D02*
X31237D01*
X30893Y18000D02*
X31237D01*
X30893Y17900D02*
X31237D01*
X30893Y17800D02*
X31237D01*
X30893Y17700D02*
X31237D01*
X30893Y17600D02*
X31237D01*
X30893Y16133D02*
Y18203D01*
Y17500D02*
X31237D01*
X30125Y22700D02*
X30292D01*
X30125Y22600D02*
X30392D01*
X30125Y22500D02*
X30492D01*
X27100Y26473D02*
Y32204D01*
X30125Y22144D02*
Y22867D01*
X30400Y21032D02*
Y22592D01*
X30500Y21032D02*
Y22492D01*
X30200Y21032D02*
Y22792D01*
X30300Y21032D02*
Y22692D01*
X26915Y26288D02*
X27905Y27278D01*
X26915Y26288D02*
X27340Y26713D01*
X27000Y26373D02*
Y32166D01*
X26900Y26273D02*
Y32136D01*
X26774Y26147D02*
X26915Y26288D01*
X26774Y26147D02*
X26915Y26288D01*
X26800Y26173D02*
Y32116D01*
X26700Y26073D02*
Y32104D01*
X30125Y22400D02*
X30592D01*
X30125Y22300D02*
X30692D01*
X30800Y21032D02*
Y22192D01*
X30600Y21032D02*
Y22392D01*
X30700Y21032D02*
Y22292D01*
X30100Y21032D02*
Y21939D01*
X30000Y21032D02*
Y21700D01*
X29900Y21032D02*
Y21568D01*
X29800Y21032D02*
Y21467D01*
X29700Y21032D02*
Y21367D01*
X29600Y21032D02*
Y21267D01*
X29364Y21032D02*
X29876Y21543D01*
X29500Y21032D02*
Y21167D01*
X41500Y10124D02*
Y13557D01*
X41400Y10124D02*
Y13557D01*
X41300Y10116D02*
Y13557D01*
X36762Y13557D02*
Y14575D01*
X41200Y10100D02*
Y13557D01*
X41100Y10075D02*
Y13557D01*
X41000Y10041D02*
Y13557D01*
X40900Y9997D02*
Y13557D01*
X40800Y9943D02*
Y13557D01*
X36326Y14500D02*
X36762D01*
X36296Y14575D02*
X36762D01*
X36357Y14400D02*
X36762D01*
X36380Y14300D02*
X36762D01*
X36394Y14200D02*
X36762D01*
X36400Y14100D02*
X36762D01*
X36693Y13500D02*
X36807D01*
X36693Y13400D02*
X36807D01*
X36693Y13300D02*
X36807D01*
X36693Y13200D02*
X36807D01*
X36693Y13100D02*
X36807D01*
X40000Y11031D02*
Y12019D01*
X36693Y13000D02*
X36807D01*
X36693Y12900D02*
X36807D01*
X40300Y10068D02*
Y12982D01*
X40285Y10100D02*
X41201D01*
X40200Y10294D02*
Y12756D01*
X40100Y10581D02*
Y12469D01*
X36693Y12800D02*
X36807D01*
X36693Y12700D02*
X36807D01*
X36693Y12600D02*
X36807D01*
X36693Y12500D02*
X36807D01*
X36693Y12400D02*
X36807D01*
X36693Y12300D02*
X36807D01*
X36693Y12200D02*
X36807D01*
X36693Y12100D02*
X36807D01*
X36600Y14087D02*
Y14575D01*
X36500Y14087D02*
Y14575D01*
X36400Y14087D02*
X36693D01*
X36400Y14094D02*
Y14575D01*
X36693Y12000D02*
X36807D01*
X36693Y11900D02*
X36807D01*
X36693Y11187D02*
Y14087D01*
X36807Y11288D02*
Y13557D01*
X30893Y17400D02*
X31237D01*
X30893Y17300D02*
X31237D01*
X30893Y17200D02*
X31237D01*
X30893Y17100D02*
X31237D01*
X30893Y17000D02*
X31237D01*
X30893Y16900D02*
X31237D01*
X36693Y11800D02*
X36807D01*
X36693Y11700D02*
X36807D01*
X36693Y11600D02*
X36807D01*
X36693Y11500D02*
X36807D01*
X36693Y11400D02*
X36807D01*
X36693Y11300D02*
X36807D01*
X36693Y11100D02*
X36807D01*
X36693Y11000D02*
X36807D01*
X36693Y10900D02*
X36807D01*
X36693Y10800D02*
X36807D01*
X36693Y10700D02*
X36807D01*
X36693Y10600D02*
X36807D01*
X36693Y10500D02*
X36807D01*
X36693Y10400D02*
X36807D01*
X36693Y10300D02*
X36807D01*
X36693Y10200D02*
X36807D01*
X36693Y10100D02*
X36807D01*
X40700Y9875D02*
Y13557D01*
X40334Y10000D02*
X40905D01*
X40388Y9900D02*
X40734D01*
X40600Y9791D02*
Y13480D01*
X40400Y9879D02*
Y13171D01*
X40447Y9800D02*
X40609D01*
X40500Y9715D02*
Y13335D01*
X39400Y8249D02*
Y8388D01*
X38210D02*
X39554D01*
X36693Y10000D02*
X36807D01*
X39300Y8172D02*
Y8388D01*
X39200Y8080D02*
Y8388D01*
X39100Y7966D02*
Y8388D01*
X39000Y7821D02*
Y8388D01*
X38800Y7913D02*
Y8388D01*
X38640Y8100D02*
X39220D01*
X38732Y8000D02*
X39128D01*
X38700Y8037D02*
Y8388D01*
X38600Y8138D02*
Y8388D01*
X38809Y7900D02*
X39051D01*
X38900Y7750D02*
Y8388D01*
X38872Y7800D02*
X38988D01*
X36807Y8388D02*
X37110D01*
X38381Y8300D02*
X39479D01*
X36900Y8276D02*
Y8388D01*
X35970Y8300D02*
X36939D01*
X38526Y8200D02*
X39334D01*
X38500Y8220D02*
Y8388D01*
X36693Y9900D02*
X36807D01*
X36693Y9800D02*
X36807D01*
X36693Y9700D02*
X36807D01*
X36693Y9600D02*
X36807D01*
X36693Y9500D02*
X36807D01*
Y8388D02*
Y11188D01*
X36693Y9400D02*
X36807D01*
X36700Y8119D02*
Y14575D01*
X36693Y8387D02*
Y11187D01*
Y9300D02*
X36807D01*
X36693Y9200D02*
X36807D01*
X36693Y9100D02*
X36807D01*
X36693Y9000D02*
X36807D01*
X36693Y8900D02*
X36807D01*
X36693Y8800D02*
X36807D01*
X36693Y8700D02*
X36807D01*
X36693Y8600D02*
X36807D01*
X36693Y8500D02*
X36807D01*
X36693Y8400D02*
X36807D01*
X36600Y8014D02*
Y8387D01*
X36500Y7884D02*
Y8387D01*
X36200Y7991D02*
Y8387D01*
X36269Y7900D02*
X36511D01*
X36332Y7800D02*
X36448D01*
X36400Y7710D02*
Y8387D01*
X36300Y7854D02*
Y8387D01*
X35970D02*
X36693D01*
X35986Y8200D02*
X36794D01*
X36000Y8189D02*
Y8387D01*
X35970Y8212D02*
Y8387D01*
X36100Y8100D02*
X36680D01*
X36192Y8000D02*
X36588D01*
X36100Y8100D02*
Y8387D01*
X30893Y16800D02*
X31237D01*
X30893Y16700D02*
X31237D01*
X30893Y16600D02*
X31237D01*
X30893Y16500D02*
X31237D01*
X30893Y16400D02*
X31237D01*
X30893Y16300D02*
X31237D01*
X30893Y16200D02*
X31014D01*
X28093Y15103D02*
X29839D01*
X29400Y14994D02*
Y15103D01*
X29300Y14962D02*
Y15103D01*
X29200Y14921D02*
Y15103D01*
X29100Y14869D02*
Y15103D01*
X29000Y14805D02*
Y15103D01*
X28900Y14726D02*
Y15103D01*
X28800Y14627D02*
Y15103D01*
X28700Y14502D02*
Y15103D01*
X28600Y14331D02*
Y15103D01*
X28500Y14112D02*
Y15103D01*
X28400Y14112D02*
Y15103D01*
X28300Y14112D02*
Y15103D01*
X28200Y14112D02*
Y15103D01*
X26718Y14800D02*
X28993D01*
X26783Y14700D02*
X28871D01*
X26834Y14600D02*
X28776D01*
X26876Y14500D02*
X28698D01*
X26907Y14400D02*
X28636D01*
X26930Y14300D02*
X28585D01*
X26944Y14200D02*
X28545D01*
X28193Y14112D02*
X28518D01*
X26950Y14100D02*
X28193D01*
X26948Y14000D02*
X28193D01*
X26938Y13900D02*
X28193D01*
X26900Y14425D02*
Y15103D01*
X26800Y14669D02*
Y15103D01*
X26919Y13800D02*
X28193D01*
X26892Y13700D02*
X28193D01*
Y11312D02*
Y14112D01*
X26856Y13600D02*
X28193D01*
X26810Y13500D02*
X28193D01*
X26700Y14825D02*
Y15103D01*
X26600Y14943D02*
Y15103D01*
X26793Y13400D02*
X28193D01*
X26793Y13300D02*
X28193D01*
X26793Y13200D02*
X28193D01*
X26793Y13100D02*
X28193D01*
X26793Y13000D02*
X28193D01*
X26793Y12900D02*
X28193D01*
X26793Y12800D02*
X28193D01*
X26793Y12700D02*
X28193D01*
X26793Y12600D02*
X28193D01*
X26793Y12500D02*
X28193D01*
X26793Y12400D02*
X28193D01*
X26793Y12300D02*
X28193D01*
X26793Y12200D02*
X28193D01*
X26793Y12100D02*
X28193D01*
X26793Y12000D02*
X28193D01*
X26793Y11900D02*
X28193D01*
X26793Y11800D02*
X28193D01*
X26793Y11700D02*
X28193D01*
X26793Y11600D02*
X28193D01*
X26793Y11500D02*
X28193D01*
X26793Y11400D02*
X28193D01*
X26793Y11300D02*
X28193D01*
X26793Y11200D02*
X28193D01*
X26793Y11100D02*
X28193D01*
X26793Y11000D02*
X28193D01*
X26793Y10900D02*
X28193D01*
Y8412D02*
X29190D01*
X28020Y8400D02*
X29190D01*
X26793Y10800D02*
X28193D01*
X26793Y10700D02*
X28193D01*
X26793Y10600D02*
X28193D01*
X26793Y10500D02*
X28193D01*
X26793Y10400D02*
X28193D01*
X26793Y10300D02*
X28193D01*
X26793Y10200D02*
X28193D01*
X26793Y10100D02*
X28193D01*
X26793Y10000D02*
X28193D01*
X26793Y9900D02*
X28193D01*
X29190Y8212D02*
Y8412D01*
X29100Y8137D02*
Y8412D01*
X29000Y8037D02*
Y8412D01*
X28900Y7912D02*
Y8412D01*
X28600Y7966D02*
Y8412D01*
X28712Y7800D02*
X28828D01*
X28800Y7750D02*
Y8412D01*
X28700Y7821D02*
Y8412D01*
X28221Y8300D02*
X29190D01*
X28366Y8200D02*
X29174D01*
X28400Y8172D02*
Y8412D01*
X28300Y8249D02*
Y8412D01*
X28480Y8100D02*
X29060D01*
X28572Y8000D02*
X28968D01*
X28500Y8080D02*
Y8412D01*
X28649Y7900D02*
X28891D01*
X27900Y8442D02*
Y15103D01*
X27800Y8468D02*
Y15103D01*
X27700Y8486D02*
Y15103D01*
X27600Y8496D02*
Y15103D01*
X27500Y8500D02*
Y15103D01*
X28100Y8365D02*
Y15103D01*
X28193Y8412D02*
Y11312D01*
X27400Y8496D02*
Y15103D01*
X27300Y8486D02*
Y15103D01*
X27200Y8467D02*
Y15103D01*
X26793Y9800D02*
X28193D01*
X27100Y8442D02*
Y15103D01*
X26793Y11187D02*
Y13469D01*
X27000Y8408D02*
Y15103D01*
X26900Y8365D02*
Y13725D01*
X26800Y8312D02*
Y13481D01*
X26793Y8387D02*
Y11187D01*
Y9700D02*
X28193D01*
X26793Y9600D02*
X28193D01*
X26793Y9500D02*
X28193D01*
X26793Y9400D02*
X28193D01*
X26793Y9300D02*
X28193D01*
X26793Y9200D02*
X28193D01*
X26793Y9100D02*
X28193D01*
X26793Y9000D02*
X28193D01*
X27515Y8500D02*
X28193D01*
X26793Y8900D02*
X28193D01*
X26793Y8800D02*
X28193D01*
X26793Y8700D02*
X28193D01*
X26793Y8600D02*
X28193D01*
X26793Y8500D02*
X27485D01*
X26793Y8400D02*
X26980D01*
X26700Y8249D02*
Y8387D01*
X26600Y8172D02*
Y8387D01*
X26138Y48100D02*
X42023D01*
X26139Y48125D02*
X26710D01*
X26139D02*
X26710D01*
X26600Y47975D02*
Y48125D01*
X26500Y47975D02*
Y48125D01*
X26400Y47975D02*
Y48125D01*
X26300Y47975D02*
Y48125D01*
X26200Y47975D02*
Y48125D01*
X24170D02*
X24579D01*
X21580Y48100D02*
X24577D01*
X23540Y48125D02*
X24170D01*
X23540D02*
X24170D01*
X24500Y47975D02*
Y48125D01*
X24400Y47975D02*
Y48125D01*
X24300Y47975D02*
Y48125D01*
X24200Y47975D02*
Y48125D01*
X26129Y48000D02*
X42047D01*
X26126Y47975D02*
X42053D01*
X24900Y36577D02*
X25077Y36400D01*
X24723Y36400D02*
X24900Y36577D01*
X24823Y36500D02*
X24977D01*
X24523Y36200D02*
X25277D01*
X24423Y36100D02*
X25377D01*
X24723Y36400D02*
X25077D01*
X24623Y36300D02*
X25177D01*
X24100Y47975D02*
Y48125D01*
X24000Y47975D02*
Y48125D01*
X23900Y47975D02*
Y48125D01*
X22900D02*
X23540D01*
X21580Y48000D02*
X24564D01*
X24323Y36000D02*
X25477D01*
X23800Y47975D02*
Y48125D01*
X23700Y47975D02*
Y48125D01*
X23600Y47975D02*
Y48125D01*
X23500Y47975D02*
Y48125D01*
X23400Y47975D02*
Y48125D01*
X22100Y51575D02*
Y51690D01*
X22000Y51575D02*
Y51714D01*
X23300Y47975D02*
Y48125D01*
X23200Y47975D02*
Y48125D01*
X23100Y47975D02*
Y48125D01*
X23000Y47975D02*
Y48125D01*
X21800Y51575D02*
Y51752D01*
X21900Y51575D02*
Y51734D01*
X21700Y51575D02*
Y51766D01*
X21600Y51575D02*
Y51777D01*
X21630Y51575D02*
X22270D01*
X21500D02*
Y51785D01*
X22270Y48125D02*
X22900D01*
X22270D02*
X22900D01*
X22900Y47975D02*
Y48125D01*
X22800Y47975D02*
Y48125D01*
X22700Y47975D02*
Y48125D01*
X22600Y47975D02*
Y48125D01*
X22500Y47975D02*
Y48125D01*
X22400Y47975D02*
Y48125D01*
X22300Y47975D02*
Y48125D01*
X21630D02*
X22270D01*
X22200Y47975D02*
Y48125D01*
X22100Y47975D02*
Y48125D01*
X22000Y47975D02*
Y48125D01*
X21900Y47975D02*
Y48125D01*
X21800Y47975D02*
Y48125D01*
X21700Y47975D02*
Y48125D01*
X21580Y47975D02*
Y48125D01*
X25784Y35693D02*
X26208Y35269D01*
X25784Y35693D02*
X26208Y35269D01*
X26200Y34534D02*
Y35277D01*
X25642Y35834D02*
X25784Y35693D01*
X26100Y34496D02*
Y35377D01*
X25900Y34385D02*
Y35577D01*
X26000Y34446D02*
Y35477D01*
X25700Y34217D02*
Y35777D01*
X25800Y34310D02*
Y35677D01*
X25642Y35834D02*
X25784Y35693D01*
X23923Y35600D02*
X25877D01*
X25642Y35834D02*
X25784Y35693D01*
X24023Y35700D02*
X25777D01*
X23623Y35300D02*
X26177D01*
X23523Y35200D02*
X26277D01*
X23823Y35500D02*
X25977D01*
X23723Y35400D02*
X26077D01*
X26350Y35127D02*
X26809Y34668D01*
X26350Y35127D02*
X26809Y34668D01*
X26600Y34600D02*
Y34877D01*
X26208Y35269D02*
X26350Y35127D01*
X26208Y35269D02*
X26350Y35127D01*
X26500Y34596D02*
Y34977D01*
X26618Y34600D02*
X26741D01*
X26300Y34563D02*
Y35177D01*
X26400Y34584D02*
Y35077D01*
X23323Y35000D02*
X26477D01*
X23223Y34900D02*
X26577D01*
X26208Y35269D02*
X26350Y35127D01*
X23423Y35100D02*
X26377D01*
X23023Y34700D02*
X26777D01*
X23123Y34800D02*
X26677D01*
X22923Y34600D02*
X26582D01*
X25077Y36400D02*
X25642Y35834D01*
X25077Y36400D02*
X25642Y35834D01*
X24123Y35800D02*
X25677D01*
X24158Y35834D02*
X24723Y36400D01*
X24223Y35900D02*
X25577D01*
X25500Y33943D02*
Y35977D01*
X25600Y34100D02*
Y35877D01*
X25400Y33699D02*
Y36077D01*
X24200Y28171D02*
Y35877D01*
X23592Y35269D02*
X24723Y36400D01*
X24016Y35693D02*
X24158Y35834D01*
X24016Y35693D02*
X24158Y35834D01*
X23592Y35269D02*
X24016Y35693D01*
X24100Y28209D02*
Y35777D01*
X24000Y28238D02*
Y35677D01*
X23900Y28259D02*
Y35577D01*
X23800Y28271D02*
Y35477D01*
X23450Y35127D02*
X23592Y35269D01*
X23450Y35127D02*
X23592Y35269D01*
X23450Y35127D02*
X23592Y35269D01*
X23300Y28936D02*
Y34977D01*
X23200Y29011D02*
Y34877D01*
X23700Y28325D02*
Y35377D01*
X23600Y28569D02*
Y35277D01*
X23500Y28725D02*
Y35177D01*
X23400Y28843D02*
Y35077D01*
X23026Y34703D02*
X23450Y35127D01*
X23026Y34703D02*
X23450Y35127D01*
X22885Y34562D02*
X23026Y34703D01*
X22319Y33996D02*
X23026Y34703D01*
X23100Y29072D02*
Y34777D01*
X22319Y33996D02*
X23026Y34703D01*
X23000Y29121D02*
Y34677D01*
X22900Y29159D02*
Y34577D01*
X21400Y51575D02*
Y51790D01*
X21300Y51575D02*
Y51793D01*
X21200Y51575D02*
Y51792D01*
X21100Y51575D02*
Y51788D01*
X21000Y51575D02*
Y51781D01*
X21000Y51575D02*
X21630D01*
X21000D02*
X21630D01*
X20900D02*
Y51771D01*
X20800Y51575D02*
Y51758D01*
X20501Y51700D02*
X22059D01*
X20700Y51575D02*
Y51741D01*
X20600Y51575D02*
Y51722D01*
X20500Y51575D02*
Y51699D01*
X20099Y51575D02*
X21000D01*
X19730Y48170D02*
Y51408D01*
X19700Y48186D02*
Y51392D01*
X21580Y47975D02*
X24560D01*
X17324Y37930D02*
X19526Y35728D01*
X19400Y35602D02*
Y35854D01*
X19300Y35502D02*
Y35954D01*
X16755Y35600D02*
X19398D01*
X19066Y35269D02*
X19491Y35693D01*
X18925Y35127D02*
X19526Y35728D01*
X19100Y35302D02*
Y36154D01*
X19200Y35402D02*
Y36054D01*
X16608Y36000D02*
X19254D01*
X16659Y35900D02*
X19354D01*
X16464Y36200D02*
X19054D01*
X16543Y36100D02*
X19154D01*
X16701Y35800D02*
X19454D01*
X16732Y35700D02*
X19498D01*
X16769Y35500D02*
X19298D01*
X16775Y35400D02*
X19198D01*
X17100Y37800D02*
X17454D01*
X17150Y38000D02*
X17262D01*
X17100Y37800D02*
Y37964D01*
X17149Y37500D02*
X17754D01*
X17149Y37400D02*
X17854D01*
X17125Y37700D02*
X17554D01*
X17141Y37600D02*
X17654D01*
X17066Y37900D02*
X17354D01*
X17141Y37300D02*
X17954D01*
X17100Y37100D02*
X18154D01*
X17066Y37000D02*
X18254D01*
X17125Y37200D02*
X18054D01*
X16900Y36700D02*
X18554D01*
X16816Y36600D02*
X18654D01*
X16773Y35300D02*
X19098D01*
X17022Y36900D02*
X18354D01*
X16968Y36800D02*
X18454D01*
X18925Y35127D02*
X19066Y35269D01*
X18925Y35127D02*
X19066Y35269D01*
X18900Y35102D02*
Y36354D01*
X19000Y35202D02*
Y36254D01*
X16578Y36400D02*
X18854D01*
X16390Y36300D02*
X18954D01*
X16712Y36500D02*
X18754D01*
X16500Y36157D02*
Y36353D01*
X16763Y35200D02*
X18998D01*
X16700Y35802D02*
Y36489D01*
X16600Y36013D02*
Y36414D01*
X18400Y34602D02*
Y36854D01*
X18300Y34502D02*
Y36954D01*
X18500Y34702D02*
Y36754D01*
X18100Y34302D02*
Y37154D01*
X18200Y34402D02*
Y37054D01*
X17900Y34102D02*
Y37354D01*
X18000Y34202D02*
Y37254D01*
X17700Y34044D02*
Y37554D01*
X17800Y34026D02*
Y37454D01*
X17500Y34050D02*
Y37754D01*
X17600Y34050D02*
Y37654D01*
X17300Y34050D02*
Y37955D01*
X17400Y34050D02*
Y37854D01*
X17200Y34050D02*
Y38039D01*
X17100Y34050D02*
Y37100D01*
X17000Y34050D02*
Y36856D01*
X16900Y34050D02*
Y36700D01*
X18800Y35002D02*
Y36454D01*
X18501Y34703D02*
X18925Y35127D01*
X18501Y34703D02*
X18925Y35127D01*
X18600Y34802D02*
Y36654D01*
X18700Y34902D02*
Y36554D01*
X18359Y34562D02*
X18501Y34703D01*
X18359Y34562D02*
X18501Y34703D01*
X17819Y34021D02*
X18501Y34703D01*
X17935Y34137D02*
X18359Y34562D01*
X16744Y35100D02*
X18898D01*
X16717Y35000D02*
X18798D01*
X16681Y34900D02*
X18698D01*
X16635Y34800D02*
X18598D01*
X16577Y34700D02*
X18498D01*
X16506Y34600D02*
X18398D01*
X16800Y34050D02*
Y36582D01*
X16700Y34050D02*
Y34948D01*
X16600Y34050D02*
Y34737D01*
X16500Y34050D02*
Y34593D01*
X14600Y33213D02*
Y34534D01*
X14500Y33213D02*
Y34600D01*
X14400Y33213D02*
Y34600D01*
X14300Y33213D02*
Y34600D01*
X14200Y33213D02*
Y34600D01*
X14100Y33213D02*
Y34600D01*
X10002Y34600D02*
X14544D01*
X10002Y34600D02*
X14544D01*
X14000Y33213D02*
Y34600D01*
X13900Y33213D02*
Y34600D01*
X13800Y33213D02*
Y34600D01*
X13700Y33213D02*
Y34600D01*
X13600Y33213D02*
Y34600D01*
X13500Y33213D02*
Y34600D01*
X13000Y33431D02*
Y34600D01*
X12900Y33494D02*
Y34600D01*
X12800Y33545D02*
Y34600D01*
X12700Y33586D02*
Y34600D01*
X12600Y33617D02*
Y34600D01*
X13400Y33213D02*
Y34600D01*
X13300Y33213D02*
Y34600D01*
X13200Y33259D02*
Y34600D01*
X13100Y33354D02*
Y34600D01*
X12500Y33640D02*
Y34600D01*
X12400Y33655D02*
Y34600D01*
X12300Y33663D02*
Y34600D01*
X12200Y33662D02*
Y34600D01*
X12100Y33654D02*
Y34600D01*
X12000Y33637D02*
Y34600D01*
X11900Y33613D02*
Y34600D01*
X11800Y33580D02*
Y34600D01*
X22823Y34500D02*
X26110D01*
X22723Y34400D02*
X25922D01*
X22623Y34300D02*
X25788D01*
X22523Y34200D02*
X25683D01*
X22423Y34100D02*
X25600D01*
X22323Y34000D02*
X25532D01*
X21023Y32700D02*
X25532D01*
X22223Y33900D02*
X25478D01*
X21123Y32800D02*
X25478D01*
X20723Y32400D02*
X25788D01*
X20623Y32300D02*
X25922D01*
X20523Y32200D02*
X26111D01*
X20923Y32600D02*
X25600D01*
X20823Y32500D02*
X25684D01*
X20323Y32000D02*
X29029D01*
X20223Y31900D02*
X29057D01*
X20423Y32100D02*
X29003D01*
X20123Y31800D02*
X29088D01*
X19823Y31500D02*
X29194D01*
X19723Y31400D02*
X29234D01*
X19623Y31300D02*
X29277D01*
X20023Y31700D02*
X29121D01*
X19923Y31600D02*
X29156D01*
X19423Y31100D02*
X29371D01*
X19223Y30900D02*
X29472D01*
X19523Y31200D02*
X29323D01*
X19323Y31000D02*
X29422D01*
X18923Y30600D02*
X29639D01*
X18823Y30500D02*
X29702D01*
X19123Y30800D02*
X29525D01*
X19023Y30700D02*
X29580D01*
X19073Y30100D02*
X29987D01*
X19173Y30000D02*
X30068D01*
X18873Y30300D02*
X29837D01*
X18973Y30200D02*
X29910D01*
X22123Y33800D02*
X25434D01*
X22023Y33700D02*
X25400D01*
X21923Y33600D02*
X25375D01*
X22319Y33996D02*
X22460Y34137D01*
X21895Y33572D02*
X22319Y33996D01*
X21895Y33572D02*
X22319Y33996D01*
X21753Y33430D02*
X21895Y33572D01*
X21753Y33430D02*
X21895Y33572D01*
X21753Y33430D02*
X21895Y33572D01*
X21823Y33500D02*
X25359D01*
X21523Y33200D02*
X25359D01*
X21723Y33400D02*
X25351D01*
X21623Y33300D02*
X25351D01*
X21423Y33100D02*
X25375D01*
X21323Y33000D02*
X25400D01*
X21329Y33006D02*
X21753Y33430D01*
X21329Y33006D02*
X21753Y33430D01*
X21188Y32865D02*
X21329Y33006D01*
X20622Y32299D02*
X21329Y33006D01*
X21223Y32900D02*
X25434D01*
X20622Y32299D02*
X21329Y33006D01*
X20622Y32299D02*
X20763Y32440D01*
X20198Y31875D02*
X20622Y32299D01*
X20198Y31875D02*
X20622Y32299D01*
X20056Y31733D02*
X20198Y31875D01*
X20056Y31733D02*
X20198Y31875D01*
X20056Y31733D02*
X20198Y31875D01*
X19491Y31167D02*
X20056Y31733D01*
X18925Y30602D02*
X20056Y31733D01*
X19491Y31167D02*
X19632Y31309D01*
X18925Y30602D02*
X19491Y31167D01*
X19100Y30073D02*
Y30777D01*
X19000Y30173D02*
Y30677D01*
X18900Y30273D02*
Y30577D01*
X22800Y29188D02*
Y34477D01*
X22700Y29209D02*
Y34377D01*
X22600Y29221D02*
Y34277D01*
X22500Y29225D02*
Y34177D01*
X22400Y29221D02*
Y34077D01*
X22300Y29209D02*
Y33977D01*
X22200Y29188D02*
Y33877D01*
X22100Y29159D02*
Y33777D01*
X22000Y29121D02*
Y33677D01*
X19373Y29800D02*
X30245D01*
X19573Y29600D02*
X30227D01*
X19273Y29900D02*
X30154D01*
X19673Y29500D02*
X30127D01*
X21900Y29072D02*
Y33577D01*
X19773Y29400D02*
X30027D01*
X21800Y29011D02*
Y33477D01*
X21700Y28935D02*
Y33377D01*
X23341Y28900D02*
X29527D01*
X23216Y29000D02*
X29627D01*
X23439Y28800D02*
X29427D01*
X23518Y28700D02*
X29327D01*
X23583Y28600D02*
X29227D01*
X23634Y28500D02*
X29127D01*
X23676Y28400D02*
X29027D01*
X23707Y28300D02*
X28927D01*
X24127Y28200D02*
X28827D01*
X19873Y29300D02*
X29927D01*
X22749Y29200D02*
X29827D01*
X20251D02*
X22251D01*
X23045Y29100D02*
X29727D01*
X20555D02*
X21955D01*
X20806Y29000D02*
X21784D01*
X21023Y28900D02*
X21659D01*
X21600Y28842D02*
Y33277D01*
X21100Y28862D02*
Y32777D01*
X21000Y28911D02*
Y32677D01*
X20900Y28958D02*
Y32577D01*
X20800Y29002D02*
Y32477D01*
X21500Y28725D02*
Y33177D01*
X21400Y28694D02*
Y33077D01*
X21300Y28753D02*
Y32977D01*
X21200Y28809D02*
Y32877D01*
X20300Y29185D02*
Y31977D01*
X20200Y29214D02*
Y31877D01*
X20100Y29241D02*
Y31777D01*
X20000Y29266D02*
Y31677D01*
X20700Y29044D02*
Y32377D01*
X20600Y29083D02*
Y32277D01*
X20500Y29120D02*
Y32177D01*
X20400Y29154D02*
Y32077D01*
X19900Y29289D02*
Y31577D01*
X19800Y29373D02*
Y31477D01*
X19700Y29473D02*
Y31377D01*
X19600Y29573D02*
Y31277D01*
X19500Y29673D02*
Y31177D01*
X21217Y28800D02*
X21561D01*
X19632Y29541D02*
X19880Y29293D01*
X19632Y29541D02*
X19880Y29293D01*
X19400Y29773D02*
Y31077D01*
X18925Y30248D02*
X19491Y29683D01*
X19300Y29873D02*
Y30977D01*
X19200Y29973D02*
Y30877D01*
X19491Y29683D02*
X19632Y29541D01*
X19491Y29683D02*
X19632Y29541D01*
X18925Y30248D02*
X19491Y29683D01*
X19632Y29541D01*
X16418Y34500D02*
X18298D01*
X16307Y34400D02*
X18198D01*
X17819Y34021D02*
X17935Y34137D01*
X17819Y34021D02*
X17935Y34137D01*
X16275Y34050D02*
X17600D01*
X16400D02*
Y34482D01*
X16300Y34050D02*
Y34394D01*
X16163Y34300D02*
X18098D01*
X15951Y34200D02*
X17998D01*
X16200Y34047D02*
Y34323D01*
X9468Y34100D02*
X17898D01*
X16336Y32059D02*
X16627Y31769D01*
X16100Y34032D02*
Y34265D01*
X16500Y31642D02*
Y31896D01*
X16177Y31900D02*
X16496D01*
X16077Y31800D02*
X16596D01*
X16039Y31762D02*
X16336Y32059D01*
X16277Y32000D02*
X16396D01*
X16400Y31542D02*
Y31996D01*
X16300Y31442D02*
Y32023D01*
X16200Y31342D02*
Y31923D01*
X16100Y31242D02*
Y31823D01*
X15970Y31700D02*
X16558D01*
X15812Y31600D02*
X16458D01*
X16083Y31225D02*
X16627Y31769D01*
X13230Y31500D02*
X16358D01*
X13131Y31400D02*
X16258D01*
X13006Y31300D02*
X16158D01*
X16000Y34004D02*
Y34219D01*
X15900Y33963D02*
Y34183D01*
X15800Y33905D02*
Y34156D01*
X15700Y33826D02*
Y34137D01*
X15600Y33727D02*
Y34127D01*
X15100Y33227D02*
Y34200D01*
X15500Y33627D02*
Y34125D01*
X14900Y33213D02*
Y34293D01*
X15000Y33213D02*
Y34241D01*
X9702Y34300D02*
X14887D01*
X9601Y34200D02*
X15099D01*
X9902Y34500D02*
X14632D01*
X9802Y34400D02*
X14743D01*
X14800Y33213D02*
Y34357D01*
X14700Y33213D02*
Y34436D01*
X11700Y33537D02*
Y34600D01*
X11600Y33484D02*
Y34600D01*
X15400Y33527D02*
Y34131D01*
X15300Y33427D02*
Y34145D01*
X12889Y33500D02*
X15373D01*
X15200Y33327D02*
Y34168D01*
X13042Y33400D02*
X15273D01*
X15086Y33213D02*
X15674Y33801D01*
X13242Y31513D02*
X15438D01*
X13159Y33300D02*
X15173D01*
X13242Y33213D02*
X15086D01*
X9229Y34000D02*
X15987D01*
X7327Y33900D02*
X15793D01*
X7250Y33800D02*
X15673D01*
X7246Y33700D02*
X15573D01*
X12659Y33600D02*
X15473D01*
X11058D02*
X11857D01*
X11058Y33500D02*
X11627D01*
X16000Y31225D02*
Y31725D01*
X15900Y31225D02*
Y31650D01*
X15800Y31225D02*
Y31594D01*
X15700Y31225D02*
Y31554D01*
X15600Y31225D02*
Y31529D01*
X15500Y31225D02*
Y31515D01*
X15400Y31225D02*
Y31513D01*
X15300Y31225D02*
Y31513D01*
X15200Y31225D02*
Y31513D01*
X15100Y31225D02*
Y31513D01*
X15000Y31225D02*
Y31513D01*
X14900Y31225D02*
Y31513D01*
X14800Y31225D02*
Y31513D01*
X14700Y31225D02*
Y31513D01*
X14600Y31225D02*
Y31513D01*
X14500Y31225D02*
Y31513D01*
X14400Y31225D02*
Y31513D01*
X14300Y31225D02*
Y31513D01*
X14200Y31225D02*
Y31513D01*
X18748Y30425D02*
X18925Y30602D01*
X14100Y31225D02*
Y31513D01*
X14000Y31225D02*
Y31513D01*
X18773Y30400D02*
X29767D01*
X18748Y30425D02*
X18925Y30248D01*
X18800Y30373D02*
Y30477D01*
X15139Y28196D02*
X15678D01*
X13900Y31225D02*
Y31513D01*
X13800Y31225D02*
Y31513D01*
X13700Y31225D02*
Y31513D01*
X13600Y31225D02*
Y31513D01*
X13575Y31225D02*
X16083D01*
X13500Y31222D02*
Y31513D01*
X13400Y31207D02*
Y31513D01*
X13300Y31179D02*
Y31513D01*
X12838Y31200D02*
X13370D01*
X13200Y31138D02*
Y31467D01*
X13100Y31080D02*
Y31373D01*
X13000Y31001D02*
Y31296D01*
X12900Y30902D02*
Y31233D01*
X12800Y30802D02*
Y31182D01*
X12700Y30702D02*
Y31141D01*
X12565Y31100D02*
X13131D01*
X11058Y31200D02*
X11678D01*
X12600Y30642D02*
Y31109D01*
X11900Y30638D02*
Y31113D01*
X11800Y30605D02*
Y31147D01*
X11600Y30509D02*
Y31242D01*
X11700Y30562D02*
Y31189D01*
X12500Y30666D02*
Y31086D01*
X12400Y30680D02*
Y31071D01*
X12300Y30688D02*
Y31064D01*
X12200Y30687D02*
Y31065D01*
X11058Y31100D02*
X11951D01*
X12631Y30633D02*
X12974Y30976D01*
X12969Y28300D02*
X13269D01*
X12100Y30679D02*
Y31073D01*
X12000Y30662D02*
Y31089D01*
X5880Y31000D02*
X12999D01*
X5880Y30900D02*
X12898D01*
X5880Y30800D02*
X12798D01*
X5838Y30700D02*
X12698D01*
X11058Y30600D02*
X11787D01*
X11058Y30500D02*
X11584D01*
X11058Y28300D02*
X11547D01*
X7399Y46175D02*
X9463D01*
X7394Y46100D02*
X9463D01*
X7380Y46000D02*
X9463D01*
X7357Y45900D02*
X9463D01*
X7325Y45800D02*
X9463D01*
X7284Y45700D02*
X9463D01*
X7232Y45600D02*
X9463D01*
Y43768D02*
Y46175D01*
X7168Y45500D02*
X9463D01*
X7089Y45400D02*
X9463D01*
X6991Y45300D02*
X9463D01*
X6865Y45200D02*
X9463D01*
X6695Y45100D02*
X9463D01*
X6398Y45000D02*
X9463D01*
X6042Y44900D02*
X9463D01*
X5942Y44800D02*
X9463D01*
X5863Y44700D02*
X9463D01*
X5863Y44600D02*
X9463D01*
X5863Y44500D02*
X9463D01*
X5863Y44400D02*
X9463D01*
X5863Y44300D02*
X9463D01*
X5863Y44200D02*
X9463D01*
X5863Y44100D02*
X9463D01*
X5863Y44000D02*
X9463D01*
X5863Y43900D02*
X9463D01*
X9488Y43768D02*
Y44068D01*
X5863Y43800D02*
X9463D01*
X5863Y43700D02*
X9488D01*
X5863Y43600D02*
X9488D01*
X5863Y43500D02*
X9488D01*
X5863Y43400D02*
X9488D01*
X5863Y43300D02*
X9488D01*
X5863Y43200D02*
X9488D01*
X5863Y43100D02*
X9488D01*
X5863Y43000D02*
X9488D01*
X6300Y47704D02*
Y47875D01*
X6200Y47604D02*
Y47875D01*
X6100Y47504D02*
Y47875D01*
X6000Y47466D02*
Y47875D01*
X5900Y47450D02*
Y47875D01*
X5800Y47425D02*
Y47875D01*
X5700Y47391D02*
Y47875D01*
X5073D02*
X6532D01*
X5600Y47347D02*
Y47875D01*
X5500Y47293D02*
Y47875D01*
X5400Y47225D02*
Y47875D01*
X5300Y47141D02*
Y47875D01*
X5200Y47037D02*
Y47875D01*
X5100Y46903D02*
Y47875D01*
X5000Y46715D02*
Y47838D01*
X6069Y47472D02*
X6307Y47711D01*
X4921Y47800D02*
X6411D01*
X5863Y44721D02*
X6117Y44975D01*
X5863Y42993D02*
Y44721D01*
X9488Y40968D02*
Y43768D01*
X9513Y40968D02*
Y41318D01*
X5500Y40783D02*
Y42993D01*
X5400Y40783D02*
Y42993D01*
X4696Y47700D02*
X6296D01*
X4900Y46304D02*
Y47790D01*
X4800Y46204D02*
Y47744D01*
X4700Y46104D02*
Y47701D01*
X4690Y46093D02*
X4903Y46306D01*
X4600Y46093D02*
Y47661D01*
X4500Y46093D02*
Y47623D01*
X9400Y38300D02*
Y46175D01*
X9300Y38300D02*
Y46175D01*
X9513Y38300D02*
Y40968D01*
X9200Y38300D02*
Y46175D01*
X9100Y38300D02*
Y46175D01*
X9000Y38300D02*
Y46175D01*
X8900Y38300D02*
Y46175D01*
X8800Y38300D02*
Y46175D01*
X8700Y38300D02*
Y46175D01*
X5539Y40700D02*
X9513D01*
X5539Y40600D02*
X9513D01*
X8600Y38300D02*
Y46175D01*
X8100Y38343D02*
Y46175D01*
X8500Y38300D02*
Y46175D01*
X8400Y38300D02*
Y46175D01*
X8300Y38300D02*
Y46175D01*
X8200Y38300D02*
Y46175D01*
X5539Y40500D02*
X9513D01*
X5539Y40400D02*
X9513D01*
X5539Y40300D02*
X9513D01*
X5539Y40200D02*
X9513D01*
X5539Y40100D02*
X9513D01*
X5539Y40000D02*
X9513D01*
X5539Y39900D02*
X9513D01*
X5539Y39800D02*
X9513D01*
X5539Y39700D02*
X9513D01*
X5539Y39600D02*
X9513D01*
X5539Y39500D02*
X9513D01*
X5539Y39400D02*
X9513D01*
X5539Y39300D02*
X9513D01*
X5539Y39200D02*
X9513D01*
X5539Y39100D02*
X9513D01*
X5539Y39000D02*
X9513D01*
X5539Y38900D02*
X9513D01*
X7700Y38606D02*
Y46175D01*
X7500Y38669D02*
Y46175D01*
X7400Y38688D02*
Y46175D01*
X7300Y38698D02*
Y45735D01*
X7200Y38700D02*
Y45547D01*
X8000Y38431D02*
Y46175D01*
X7900Y38502D02*
Y46175D01*
X7800Y38560D02*
Y46175D01*
X7600Y38642D02*
Y46175D01*
X7100Y38694D02*
Y45412D01*
X7000Y38680D02*
Y45308D01*
X6900Y38657D02*
Y45225D01*
X6800Y38625D02*
Y45157D01*
X6700Y38584D02*
Y45102D01*
X6600Y38532D02*
Y45059D01*
X6500Y38468D02*
Y45025D01*
X6400Y38389D02*
Y45000D01*
X6300Y38291D02*
Y44984D01*
X6200Y38165D02*
Y44976D01*
X6100Y37995D02*
Y44958D01*
X6000Y37698D02*
Y44858D01*
X5539Y38083D02*
Y40783D01*
X5900Y36850D02*
Y44758D01*
X5800Y36850D02*
Y42993D01*
X5700Y36850D02*
Y42993D01*
X5600Y36850D02*
Y42993D01*
X5300Y40783D02*
Y42993D01*
X5200Y40783D02*
Y42993D01*
X5100Y40783D02*
Y42993D01*
X5000Y40783D02*
Y42993D01*
X4900Y40783D02*
Y42993D01*
X4800Y40783D02*
Y42993D01*
X4700Y40783D02*
Y42993D01*
X4600Y40783D02*
Y42993D01*
X4434Y47600D02*
X6196D01*
X4400Y46093D02*
Y47588D01*
X4111Y47500D02*
X6096D01*
X4300Y46093D02*
Y47555D01*
X4200Y46093D02*
Y47525D01*
X4100Y46093D02*
Y47497D01*
X4000Y46093D02*
Y47471D01*
X3900Y46093D02*
Y47447D01*
X3800Y46093D02*
Y47426D01*
X3662Y47400D02*
X5723D01*
X800Y47300D02*
X5512D01*
X800Y47200D02*
X5368D01*
X3700Y46093D02*
Y47407D01*
X3600Y46093D02*
Y47390D01*
X3500Y46093D02*
Y47375D01*
X3400Y46093D02*
Y47362D01*
X800Y47100D02*
X5257D01*
X800Y47000D02*
X5169D01*
X800Y46900D02*
X5098D01*
X800Y46800D02*
X5040D01*
X800Y46700D02*
X4994D01*
X800Y46600D02*
X4958D01*
X2963Y42993D02*
X5863D01*
X800Y46500D02*
X4931D01*
X3063Y46093D02*
X4690D01*
X800Y46400D02*
X4912D01*
X800Y46300D02*
X4896D01*
X800Y46200D02*
X4796D01*
X800Y46100D02*
X4696D01*
X800Y42900D02*
X9488D01*
X800Y42800D02*
X9488D01*
X800Y42700D02*
X9488D01*
X800Y42600D02*
X9488D01*
X3300Y46093D02*
Y47351D01*
X3200Y46093D02*
Y47342D01*
X2500Y46093D02*
Y47340D01*
X1800Y46093D02*
Y47439D01*
X1700Y46093D02*
Y47461D01*
X1500Y46093D02*
Y47514D01*
X1600Y46093D02*
Y47486D01*
X1400Y46093D02*
Y47543D01*
X1300Y46093D02*
Y47575D01*
X800Y47600D02*
X1227D01*
X800Y47500D02*
X1549D01*
X800Y47700D02*
X965D01*
X1200Y46093D02*
Y47609D01*
X1000Y46093D02*
Y47685D01*
X1100Y46093D02*
Y47646D01*
X800Y46093D02*
Y47772D01*
X900Y46093D02*
Y47727D01*
X3100Y46093D02*
Y47336D01*
X3000Y46093D02*
Y47331D01*
X2900Y46093D02*
Y47329D01*
X2800Y46093D02*
Y47329D01*
X2700Y46093D02*
Y47330D01*
X2400Y46093D02*
Y47347D01*
X2600Y46093D02*
Y47334D01*
X2300Y46093D02*
Y47357D01*
X2200Y46093D02*
Y47369D01*
X2100Y46093D02*
Y47383D01*
X800Y47400D02*
X1999D01*
X2000Y46093D02*
Y47400D01*
X1900Y46093D02*
Y47418D01*
X800Y46093D02*
X3063D01*
X800Y42993D02*
X2963D01*
X4500Y40783D02*
Y42993D01*
X4400Y40783D02*
Y42993D01*
X4300Y40783D02*
Y42993D01*
X4200Y40783D02*
Y42993D01*
X4100Y40783D02*
Y42993D01*
X4000Y40783D02*
Y42993D01*
X3900Y40783D02*
Y42993D01*
X3800Y40783D02*
Y42993D01*
X3700Y40783D02*
Y42993D01*
X800Y42500D02*
X9488D01*
X800Y42400D02*
X9488D01*
X3600Y40783D02*
Y42993D01*
X3500Y40783D02*
Y42993D01*
X3400Y40783D02*
Y42993D01*
X3300Y40783D02*
Y42993D01*
X3200Y40783D02*
Y42993D01*
X3100Y40783D02*
Y42993D01*
X800Y42300D02*
X9488D01*
X800Y42200D02*
X9488D01*
X800Y42100D02*
X9488D01*
X800Y42000D02*
X9488D01*
X800Y41900D02*
X9488D01*
X800Y41800D02*
X9488D01*
X800Y41700D02*
X9488D01*
X800Y41600D02*
X9488D01*
X2839Y40783D02*
X5539D01*
X800Y41500D02*
X9488D01*
X800Y41400D02*
X9488D01*
X800Y41300D02*
X9488D01*
X800Y41200D02*
X9488D01*
X800Y41100D02*
X9488D01*
X800Y41000D02*
X9488D01*
X800Y40900D02*
X9513D01*
X800Y40800D02*
X9513D01*
X3000Y40783D02*
Y42993D01*
X2900Y40783D02*
Y42993D01*
X2400Y40581D02*
Y42993D01*
X2300Y40637D02*
Y42993D01*
X2200Y40683D02*
Y42993D01*
X2800Y40200D02*
Y42993D01*
X2700Y40327D02*
Y42993D01*
X2600Y40429D02*
Y42993D01*
X2500Y40512D02*
Y42993D01*
X2000Y40747D02*
Y42993D01*
X1900Y40767D02*
Y42993D01*
X1800Y40779D02*
Y42993D01*
X1700Y40783D02*
Y42993D01*
X2100Y40719D02*
Y42993D01*
X1600Y40780D02*
Y42993D01*
X1500Y40770D02*
Y42993D01*
X1400Y40752D02*
Y42993D01*
X2368Y40600D02*
X2839D01*
X2156Y40700D02*
X2839D01*
X2516Y40500D02*
X2839D01*
X1300Y40726D02*
Y42993D01*
X2631Y40400D02*
X2839D01*
Y40140D02*
Y40783D01*
X2724Y40300D02*
X2839D01*
X1200Y40692D02*
Y42993D01*
X800Y40700D02*
X1222D01*
X1100Y40648D02*
Y42993D01*
X1000Y40594D02*
Y42993D01*
X800Y40600D02*
X1009D01*
X900Y40529D02*
Y42993D01*
X800Y40450D02*
Y42993D01*
X11500Y33419D02*
Y34600D01*
X11000Y33663D02*
Y34600D01*
X10900Y33663D02*
Y34600D01*
X10800Y33663D02*
Y34600D01*
X10700Y33663D02*
Y34600D01*
X11400Y33340D02*
Y34600D01*
X11300Y33242D02*
Y34600D01*
X11200Y33118D02*
Y34600D01*
X11100Y32954D02*
Y34600D01*
X10600Y33663D02*
Y34600D01*
X10500Y33663D02*
Y34600D01*
X10400Y33663D02*
Y34600D01*
X10300Y33663D02*
Y34600D01*
X9626Y34224D02*
X10002Y34600D01*
X10200Y33663D02*
Y34600D01*
X8458Y33663D02*
X11058D01*
X10100D02*
Y34600D01*
X10000Y33663D02*
Y34598D01*
X11058Y33400D02*
X11474D01*
X11058Y33300D02*
X11357D01*
X11058Y33200D02*
X11263D01*
X11058Y32863D02*
Y33663D01*
Y33100D02*
X11187D01*
X11058Y31500D02*
X11286D01*
X11058Y31400D02*
X11385D01*
X11058Y31063D02*
Y31863D01*
Y31600D02*
X11206D01*
X11058Y31300D02*
X11510D01*
X8458Y31063D02*
X11058D01*
X11000Y30688D02*
Y31063D01*
X10900Y30688D02*
Y31063D01*
X10800Y30688D02*
Y31063D01*
X10700Y30688D02*
Y31063D01*
X10600Y30688D02*
Y31063D01*
X10500Y30688D02*
Y31063D01*
X9900Y33663D02*
Y34498D01*
X9800Y33663D02*
Y34398D01*
X9700Y33663D02*
Y34298D01*
X9600Y33663D02*
Y34199D01*
X9500Y33663D02*
Y34120D01*
X9400Y33663D02*
Y34062D01*
X9300Y33663D02*
Y34021D01*
X9200Y33663D02*
Y33993D01*
X9100Y33663D02*
Y33978D01*
X7244Y38700D02*
X9513D01*
X7715Y38600D02*
X9513D01*
X7903Y38500D02*
X9513D01*
X8038Y38400D02*
X9513D01*
X8142Y38300D02*
X9513D01*
X7402Y33975D02*
X9025D01*
X9000Y33663D02*
Y33975D01*
X8900Y33663D02*
Y33975D01*
X8800Y33663D02*
Y33975D01*
X8700Y33663D02*
Y33975D01*
X8600Y33663D02*
Y33975D01*
X8500Y33663D02*
Y33975D01*
X8458Y31063D02*
Y33663D01*
X7234Y33600D02*
X8458D01*
X7213Y33500D02*
X8458D01*
X7250Y33823D02*
X7402Y33975D01*
X7184Y33400D02*
X8458D01*
X7146Y33300D02*
X8458D01*
X7097Y33200D02*
X8458D01*
X7036Y33100D02*
X8458D01*
X11500Y30444D02*
Y31307D01*
X10400Y30688D02*
Y31063D01*
X10300Y30688D02*
Y31063D01*
X10200Y30688D02*
Y31063D01*
X10100Y30688D02*
Y31063D01*
X11300Y30267D02*
Y31485D01*
X11400Y30365D02*
Y31387D01*
X11100Y29979D02*
Y31773D01*
X11200Y30143D02*
Y31608D01*
X10000Y30688D02*
Y31063D01*
X9900Y30688D02*
Y31063D01*
X9800Y30688D02*
Y31063D01*
X9700Y30688D02*
Y31063D01*
X9600Y30688D02*
Y31063D01*
X9500Y30688D02*
Y31063D01*
X9400Y30688D02*
Y31063D01*
X9300Y30688D02*
Y31063D01*
X11058Y30400D02*
X11442D01*
X11058Y30300D02*
X11331D01*
X11058Y30200D02*
X11243D01*
X11058Y29888D02*
Y30688D01*
Y30100D02*
X11170D01*
X11058Y28500D02*
X11309D01*
X11058Y28400D02*
X11413D01*
X11058Y28600D02*
X11224D01*
X9200Y30688D02*
Y31063D01*
X9100Y30688D02*
Y31063D01*
X9000Y30688D02*
Y31063D01*
X8900Y30688D02*
Y31063D01*
X8458Y30688D02*
X11058D01*
X8800D02*
Y31063D01*
X8700Y30688D02*
Y31063D01*
X8600Y30688D02*
Y31063D01*
X7900Y30441D02*
Y33975D01*
X8500Y30688D02*
Y31063D01*
X7800Y30510D02*
Y33975D01*
X7700Y30565D02*
Y33975D01*
X8300Y29923D02*
Y33975D01*
X8200Y30116D02*
Y33975D01*
X8100Y30252D02*
Y33975D01*
X8000Y30357D02*
Y33975D01*
X7400Y30669D02*
Y33973D01*
X7300Y30685D02*
Y33873D01*
X7200Y30694D02*
Y33450D01*
X7100Y30694D02*
Y33206D01*
X7600Y30609D02*
Y33975D01*
X7623Y30600D02*
X8458D01*
X7500Y30644D02*
Y33975D01*
X7000Y30687D02*
Y33050D01*
X8210Y30100D02*
X8458D01*
X8141Y30200D02*
X8458D01*
X8265Y30000D02*
X8458D01*
X8309Y29900D02*
X8458D01*
X8344Y29800D02*
X8458D01*
X8346Y29100D02*
X8458D01*
X8313Y29000D02*
X8458D01*
X8270Y28900D02*
X8458D01*
X8216Y28800D02*
X8458D01*
X7816Y30500D02*
X8458D01*
X7952Y30400D02*
X8458D01*
X8057Y30300D02*
X8458D01*
X8149Y28700D02*
X8458D01*
X8066Y28600D02*
X8458D01*
X7963Y28500D02*
X8458D01*
X7831Y28400D02*
X8458D01*
X7646Y28300D02*
X8458D01*
X5539Y38800D02*
X9513D01*
X5539Y38700D02*
X7206D01*
X5539Y38600D02*
X6735D01*
X5539Y38500D02*
X6547D01*
X5539Y38400D02*
X6412D01*
X5539Y38300D02*
X6308D01*
X5539Y38200D02*
X6225D01*
X5539Y38100D02*
X6157D01*
X2839Y38083D02*
X5539D01*
X5500Y36850D02*
Y38083D01*
X5400Y36850D02*
Y38083D01*
X5300Y36850D02*
Y38083D01*
X5200Y36847D02*
Y38083D01*
X5100Y36832D02*
Y38083D01*
X5000Y36805D02*
Y38083D01*
X4900Y36764D02*
Y38083D01*
X800Y38000D02*
X6102D01*
X800Y37900D02*
X6059D01*
X800Y37800D02*
X6025D01*
X800Y37700D02*
X6000D01*
X800Y37600D02*
X5984D01*
X6000Y36850D02*
Y37202D01*
X5273Y36850D02*
X6128D01*
X800Y37500D02*
X5976D01*
X800Y37400D02*
X5976D01*
X800Y37300D02*
X5984D01*
X800Y37200D02*
X6000D01*
X800Y37000D02*
X6059D01*
X800Y36900D02*
X6103D01*
X800Y37100D02*
X6025D01*
X800Y36800D02*
X4985D01*
X4800Y36706D02*
Y38083D01*
X4700Y36690D02*
Y38083D01*
X4600Y36690D02*
Y38083D01*
X2839D02*
Y38726D01*
X2664Y38500D02*
X2839D01*
X4500Y36690D02*
Y38083D01*
X4400Y36690D02*
Y38083D01*
X2800Y36690D02*
Y38667D01*
X4300Y36690D02*
Y38083D01*
X2557Y38400D02*
X2839D01*
X2422Y38300D02*
X2839D01*
X800D02*
X955D01*
X2238Y38200D02*
X2839D01*
X1900Y38100D02*
X2839D01*
X800Y38200D02*
X1140D01*
X800Y38100D02*
X1477D01*
X4200Y36690D02*
Y38083D01*
X4100Y36690D02*
Y38083D01*
X4000Y36690D02*
Y38083D01*
X3900Y36690D02*
Y38083D01*
X3800Y36690D02*
Y38083D01*
X3700Y36690D02*
Y38083D01*
X3600Y36690D02*
Y38083D01*
X3500Y36690D02*
Y38083D01*
X3400Y36690D02*
Y38083D01*
X3300Y36690D02*
Y38083D01*
X3063Y36690D02*
X4776D01*
X3200D02*
Y38083D01*
X3100Y36690D02*
Y38083D01*
X2963Y36690D02*
X3063D01*
X2963D02*
X3063D01*
X3000D02*
Y38083D01*
X2900Y36690D02*
Y38083D01*
X6960Y33000D02*
X8458D01*
X6867Y32900D02*
X8458D01*
X6750Y32800D02*
X8458D01*
X6900Y30671D02*
Y32932D01*
X6593Y32700D02*
X8458D01*
X6800Y30646D02*
Y32839D01*
X6700Y30613D02*
Y32764D01*
X6600Y30570D02*
Y32703D01*
X6500Y30516D02*
Y32654D01*
X6350Y32600D02*
X8458D01*
X5880Y32500D02*
X8458D01*
X5880Y32400D02*
X8458D01*
X5880Y32300D02*
X8458D01*
X5880Y32200D02*
X8458D01*
X6400Y30449D02*
Y32616D01*
X6300Y30366D02*
Y32587D01*
X5880Y32100D02*
X8458D01*
X5880Y32000D02*
X8458D01*
X5880Y31900D02*
X8458D01*
X5880Y31800D02*
X8458D01*
X5880Y31700D02*
X8458D01*
X5880Y31600D02*
X8458D01*
X5880Y31500D02*
X8458D01*
X5880Y31400D02*
X8458D01*
X5880Y31300D02*
X8458D01*
X5880Y31200D02*
X8458D01*
X5880Y31100D02*
X8458D01*
X5838Y30600D02*
X6667D01*
X5838Y30500D02*
X6474D01*
X5838Y28300D02*
X6644D01*
X5838Y30400D02*
X6338D01*
X5838Y28400D02*
X6459D01*
X2700Y36690D02*
Y38539D01*
X2600Y36690D02*
Y38437D01*
X2500Y36690D02*
Y38354D01*
X2400Y36690D02*
Y38286D01*
X2300Y36690D02*
Y38230D01*
X2200Y36690D02*
Y38184D01*
X2100Y36690D02*
Y38147D01*
X2000Y36690D02*
Y38120D01*
X1900Y36690D02*
Y38100D01*
X1400Y36690D02*
Y38114D01*
X1800Y36690D02*
Y38088D01*
X1300Y36690D02*
Y38140D01*
X1200Y36690D02*
Y38175D01*
X1000Y36690D02*
Y38272D01*
X1100Y36690D02*
Y38218D01*
X800Y36690D02*
Y38417D01*
X900Y36690D02*
Y38338D01*
X6200Y30295D02*
Y32566D01*
X6100Y30295D02*
Y32554D01*
X6000Y30295D02*
Y32550D01*
X5880Y30759D02*
Y32556D01*
X5838Y30759D02*
Y30995D01*
Y30300D02*
X6233D01*
X5838Y30295D02*
X6228D01*
X5900D02*
Y32554D01*
X5838Y30295D02*
Y30759D01*
X1700Y36690D02*
Y38083D01*
X800Y36700D02*
X4790D01*
X1600Y36690D02*
Y38086D01*
X1500Y36690D02*
Y38096D01*
X5838Y28595D02*
X6228D01*
X5838Y28500D02*
X6327D01*
X800Y36690D02*
X2963D01*
X26600Y25973D02*
Y32100D01*
X24919Y27300D02*
X27927D01*
X24938Y27200D02*
X27827D01*
X26400Y25773D02*
Y32116D01*
X26500Y25873D02*
Y32104D01*
X26300Y25673D02*
Y32137D01*
X26200Y25573D02*
Y32166D01*
X26100Y25473D02*
Y32204D01*
X26000Y25373D02*
Y32254D01*
X24482Y28000D02*
X28627D01*
X24338Y28100D02*
X28727D01*
X24593Y27900D02*
X28527D01*
X24681Y27800D02*
X28427D01*
X24752Y27700D02*
X28327D01*
X24810Y27600D02*
X28227D01*
X24856Y27500D02*
X28127D01*
X24892Y27400D02*
X28027D01*
X24948Y27100D02*
X27727D01*
X24950Y27000D02*
X27627D01*
X24944Y26900D02*
X27527D01*
X24930Y26800D02*
X27427D01*
X24907Y26700D02*
X27327D01*
X24876Y26600D02*
X27227D01*
X24834Y26500D02*
X27127D01*
X24783Y26400D02*
X27027D01*
X24718Y26300D02*
X26927D01*
X24639Y26200D02*
X26827D01*
X24541Y26100D02*
X26727D01*
X24415Y26000D02*
X26627D01*
X24245Y25900D02*
X26527D01*
X23949Y25800D02*
X26427D01*
X23640Y25700D02*
X26327D01*
X23632Y25600D02*
X26227D01*
X23673Y25500D02*
X26127D01*
X23773Y25400D02*
X26027D01*
X24700Y27775D02*
Y36377D01*
X24600Y27892D02*
Y36277D01*
X24500Y27985D02*
Y36177D01*
X24400Y28061D02*
Y36077D01*
X24300Y28122D02*
Y35977D01*
X25900Y25273D02*
Y32315D01*
X24900Y27375D02*
Y36577D01*
X24800Y27619D02*
Y36477D01*
X15500Y28033D02*
Y28196D01*
X15032Y28100D02*
X15571D01*
X15400Y27934D02*
Y28196D01*
X15300Y27828D02*
Y28196D01*
X18465Y26182D02*
X18925Y25723D01*
X15200Y27717D02*
Y28196D01*
X15100Y27597D02*
Y28158D01*
X23700Y25473D02*
Y25760D01*
X23614Y25675D02*
X23715Y25775D01*
X18700Y25498D02*
Y25948D01*
X18800Y25598D02*
Y25848D01*
X23900Y25273D02*
Y25791D01*
X23873Y25300D02*
X25927D01*
X18600Y25398D02*
Y26048D01*
X23800Y25373D02*
Y25779D01*
X18183Y25900D02*
X18748D01*
X18083Y25800D02*
X18848D01*
X18383Y26100D02*
X18548D01*
X18283Y26000D02*
X18648D01*
X17983Y25700D02*
X18902D01*
X17883Y25600D02*
X18802D01*
X17783Y25500D02*
X18702D01*
X17683Y25400D02*
X18602D01*
X25800Y25173D02*
Y32390D01*
X25700Y25073D02*
Y32483D01*
X25642Y25016D02*
X26915Y26288D01*
X25500Y24873D02*
Y32757D01*
X25600Y24973D02*
Y32600D01*
X25300Y24673D02*
Y36177D01*
X25400Y24773D02*
Y33001D01*
X25100Y24473D02*
Y36377D01*
X25200Y24573D02*
Y36277D01*
X24600Y24573D02*
Y26157D01*
X24500Y24673D02*
Y26064D01*
X24400Y24773D02*
Y25989D01*
X24300Y24873D02*
Y25928D01*
X25000Y24373D02*
Y36477D01*
X24900Y24273D02*
Y26674D01*
X24800Y24373D02*
Y26431D01*
X24700Y24473D02*
Y26275D01*
X25642Y25016D02*
X25784Y25157D01*
X25642Y25016D02*
X25784Y25157D01*
X24473Y24700D02*
X25327D01*
X24573Y24600D02*
X25227D01*
X24673Y24500D02*
X25127D01*
X25077Y24450D02*
X25642Y25016D01*
X24900Y24273D02*
X25642Y25016D01*
X24723Y24450D02*
X24900Y24273D01*
X24773Y24400D02*
X25027D01*
X23973Y25200D02*
X25827D01*
X24073Y25100D02*
X25727D01*
X24200Y24973D02*
Y25879D01*
X24173Y25000D02*
X25627D01*
X24273Y24900D02*
X25527D01*
X24373Y24800D02*
X25427D01*
X24158Y25016D02*
X24723Y24450D01*
X24158Y25016D02*
X24723Y24450D01*
X24100Y25073D02*
Y25841D01*
X18500Y25298D02*
Y26148D01*
X24000Y25173D02*
Y25811D01*
X18400Y25198D02*
Y26117D01*
X18300Y25098D02*
Y26017D01*
X23648Y25525D02*
X24158Y25016D01*
X23648Y25525D02*
X24158Y25016D01*
X18200Y24998D02*
Y25917D01*
X18100Y24898D02*
Y25817D01*
X18000Y24798D02*
Y25717D01*
X17583Y25300D02*
X18502D01*
X17900Y24698D02*
Y25617D01*
X17800Y24598D02*
Y25517D01*
X15740Y23457D02*
X18465Y26182D01*
X17609Y24406D02*
X18925Y25723D01*
X17700Y24498D02*
Y25417D01*
X17600Y24415D02*
Y25317D01*
X24016Y25157D02*
X24158Y25016D01*
X17483Y25200D02*
X18402D01*
X17383Y25100D02*
X18302D01*
X17283Y25000D02*
X18202D01*
X17300Y24715D02*
Y25017D01*
X17415Y24600D02*
X17802D01*
X17515Y24500D02*
X17702D01*
X17500Y24515D02*
Y25217D01*
X17400Y24615D02*
Y25117D01*
X17183Y24900D02*
X18102D01*
X17215Y24800D02*
X18002D01*
X17200Y24815D02*
Y24917D01*
X17315Y24700D02*
X17902D01*
X17176Y24839D02*
X17609Y24406D01*
X16937Y24600D02*
X17415D01*
X15753Y23417D02*
X17176Y24839D01*
X17037Y24700D02*
X17315D01*
X15000Y27470D02*
Y28075D01*
X14888Y28000D02*
X15466D01*
X14676Y27900D02*
X15367D01*
X14900Y27334D02*
Y28007D01*
X14800Y27186D02*
Y27952D01*
X14700Y27026D02*
Y27909D01*
X14600Y26851D02*
Y27875D01*
X13900Y26812D02*
Y27875D01*
X5855Y27900D02*
X13824D01*
X12432Y28100D02*
X13468D01*
X5855Y28000D02*
X13612D01*
X13700Y26812D02*
Y27953D01*
X13600Y26812D02*
Y28007D01*
X13400Y26812D02*
Y28159D01*
X13500Y26812D02*
Y28075D01*
X14500Y26812D02*
Y27850D01*
X13013Y27400D02*
X14948D01*
X13013Y27300D02*
X14876D01*
X14400Y26812D02*
Y27834D01*
X14300Y26812D02*
Y27826D01*
X14200Y26812D02*
Y27826D01*
X14100Y26812D02*
Y27834D01*
X13800Y26812D02*
Y27909D01*
X14000Y26812D02*
Y27850D01*
X5855Y27800D02*
X15274D01*
X5855Y27700D02*
X15186D01*
X5855Y27600D02*
X15102D01*
X5855Y27500D02*
X15023D01*
X13013Y27200D02*
X14809D01*
X13013Y27100D02*
X14745D01*
X13013Y27000D02*
X14684D01*
X13013Y26900D02*
X14627D01*
X13000Y27493D02*
Y28321D01*
X12785Y28200D02*
X13357D01*
X12900Y27493D02*
Y28258D01*
X12800Y27493D02*
Y28207D01*
X11700Y27493D02*
Y28214D01*
X13200Y26812D02*
Y28397D01*
X13300Y26812D02*
Y28263D01*
X13100Y26812D02*
Y28398D01*
X11600Y27493D02*
Y28267D01*
X11058Y28200D02*
X11731D01*
X11058Y28088D02*
Y28888D01*
X11500Y27493D02*
Y28332D01*
X11300Y27493D02*
Y28510D01*
X11400Y27493D02*
Y28412D01*
X11100Y27493D02*
Y28798D01*
X11200Y27493D02*
Y28633D01*
X12700Y27493D02*
Y28166D01*
X12600Y27493D02*
Y28134D01*
X12500Y27493D02*
Y28111D01*
X12400Y27493D02*
Y28096D01*
X12300Y27493D02*
Y28089D01*
X12200Y27493D02*
Y28090D01*
X13013Y26812D02*
Y27493D01*
X12000D02*
Y28114D01*
X12100Y27493D02*
Y28098D01*
X11900Y27493D02*
Y28138D01*
X11058Y28100D02*
X12084D01*
X11800Y27493D02*
Y28172D01*
X8458Y28088D02*
X11058D01*
X11000Y27493D02*
Y28088D01*
X10213Y27493D02*
X13013D01*
X10900D02*
Y28088D01*
X10800Y27493D02*
Y28088D01*
X14000Y24121D02*
Y25112D01*
X13900Y24021D02*
Y25112D01*
X13800Y23921D02*
Y25112D01*
X13700Y23821D02*
Y25112D01*
X13600Y23721D02*
Y25112D01*
X13500Y23621D02*
Y25112D01*
X13400Y23521D02*
Y25112D01*
X13300Y23421D02*
Y25112D01*
X13013Y26812D02*
X14579D01*
X13013Y25100D02*
X14043D01*
X13013Y25112D02*
X14044D01*
X13013Y25000D02*
X14032D01*
X13013Y24900D02*
X14023D01*
X13013Y24800D02*
X14017D01*
X13200Y23321D02*
Y25112D01*
X13100Y23221D02*
Y25112D01*
X13013Y24700D02*
X14012D01*
X13013Y24600D02*
X14009D01*
X13013Y24500D02*
X14009D01*
X13013Y24400D02*
X14010D01*
X12662Y23500D02*
X13379D01*
X12912Y23033D02*
X14024Y24145D01*
X12736Y23400D02*
X13279D01*
X12797Y23300D02*
X13179D01*
X12848Y23200D02*
X13079D01*
X12343Y24300D02*
X14014D01*
X12343Y24200D02*
X14020D01*
X12343Y24100D02*
X13979D01*
X12343Y24000D02*
X13879D01*
X12343Y23900D02*
X13779D01*
X12343Y23800D02*
X13679D01*
X12463Y23700D02*
X13579D01*
X12572Y23600D02*
X13479D01*
X13013Y24393D02*
Y25112D01*
X12343Y24393D02*
X13013D01*
X12600Y23571D02*
Y24393D01*
X12500Y23668D02*
Y24393D01*
X12400Y23749D02*
Y24393D01*
X13000Y23121D02*
Y24393D01*
X12900Y23070D02*
Y24393D01*
X12800Y23296D02*
Y24393D01*
X12700Y23451D02*
Y24393D01*
X12343Y23788D02*
Y24393D01*
X8618Y21500D02*
X10732D01*
X8618Y21400D02*
X10884D01*
X8618Y21300D02*
X11101D01*
X10900Y21011D02*
Y21391D01*
X10800Y20843D02*
Y21451D01*
X11000Y21121D02*
Y21341D01*
X10974Y21095D02*
X11159Y21280D01*
X8618Y21200D02*
X11079D01*
X8618Y21100D02*
X10979D01*
X8618Y21000D02*
X10892D01*
X8618Y20900D02*
X10828D01*
X10725Y18730D02*
Y20494D01*
X8618Y20800D02*
X10782D01*
X8618Y20700D02*
X10750D01*
X8618Y20600D02*
X10732D01*
X8618Y20500D02*
X10725D01*
X8618Y20400D02*
X10725D01*
X8618Y20300D02*
X10725D01*
X8618Y20200D02*
X10725D01*
X8618Y20100D02*
X10725D01*
X16271Y17200D02*
X16407D01*
X16171Y17100D02*
X16407D01*
X16071Y17000D02*
X16407D01*
X15971Y16900D02*
X16407D01*
X15871Y16800D02*
X16407D01*
X15771Y16700D02*
X16407D01*
X15507Y16435D02*
X16407Y17335D01*
X15671Y16600D02*
X16407D01*
X15571Y16500D02*
X16407D01*
X15507Y16400D02*
X16407D01*
X15507Y16300D02*
X16407D01*
X15507Y16200D02*
X16407D01*
X15507Y16100D02*
X16407D01*
X15507Y16000D02*
X16407D01*
X15507Y15900D02*
X16407D01*
X15507Y15800D02*
X16407D01*
X15507Y15700D02*
X16407D01*
X26412Y15103D02*
X27993D01*
X22582Y15072D02*
X23082D01*
X26541Y15000D02*
X29424D01*
X20500Y15072D02*
X22482D01*
X20500Y15000D02*
X23082D01*
Y14830D02*
Y15072D01*
X26639Y14900D02*
X29156D01*
X23000Y14748D02*
Y15072D01*
X22900Y14648D02*
Y15072D01*
X15507Y15600D02*
X16407D01*
X15507Y15500D02*
X16407D01*
X15507Y15400D02*
X16407D01*
X15507Y15300D02*
X16407D01*
X20500Y14900D02*
X23082D01*
X20500Y14800D02*
X23052D01*
X20500Y14700D02*
X22952D01*
X20500Y14600D02*
X22852D01*
X14700Y18033D02*
Y19254D01*
X13964Y19990D02*
X15311Y18644D01*
X14800Y18133D02*
Y19154D01*
X14500Y17833D02*
Y19454D01*
X14600Y17933D02*
Y19354D01*
X14300Y17633D02*
Y19654D01*
X14400Y17733D02*
Y19554D01*
X14100Y17433D02*
Y19854D01*
X14200Y17533D02*
Y19754D01*
X13741Y19800D02*
X14154D01*
X13639Y19700D02*
X14254D01*
X13853Y19900D02*
X14054D01*
X14000Y17327D02*
Y19954D01*
X13900Y17175D02*
Y19939D01*
X13800Y14897D02*
Y19853D01*
X13700Y14989D02*
Y19761D01*
X13600Y15090D02*
Y19660D01*
X15507Y15200D02*
X16407D01*
X15507Y15100D02*
X16407D01*
X15507Y15000D02*
X16407D01*
X15100Y18433D02*
Y18854D01*
X15200Y18533D02*
Y18754D01*
X15507Y14900D02*
X16407D01*
X15507Y14800D02*
X16407D01*
X15507Y14700D02*
X16407D01*
X15507Y14600D02*
X16407D01*
X15000Y18333D02*
Y18954D01*
X14056Y17389D02*
X15311Y18644D01*
X14900Y18233D02*
Y19054D01*
X13591Y15100D02*
X13807D01*
Y14891D02*
Y16787D01*
X13689Y15000D02*
X13807D01*
X22800Y14548D02*
Y15072D01*
X22700Y14448D02*
Y15072D01*
X22370Y14118D02*
X23082Y14830D01*
X22600Y14348D02*
Y15072D01*
X22400Y14148D02*
Y15072D01*
X22300Y14118D02*
Y15072D01*
X22200Y14118D02*
Y15072D01*
X22100Y14118D02*
Y15072D01*
X20500Y14500D02*
X22752D01*
X20500Y14400D02*
X22652D01*
X22000Y14118D02*
Y15072D01*
X20500Y14300D02*
X22552D01*
X21900Y14118D02*
Y15072D01*
X21800Y14118D02*
Y15072D01*
X21700Y14118D02*
Y15072D01*
X21600Y14118D02*
Y15072D01*
X26500Y8080D02*
Y8387D01*
X26093D02*
X26793D01*
X26400Y7966D02*
Y8387D01*
X26100Y7913D02*
Y8387D01*
X26093Y7922D02*
Y8387D01*
X26300Y7821D02*
Y8387D01*
X26200Y7750D02*
Y8387D01*
X26172Y7800D02*
X26288D01*
X26093Y8300D02*
X26779D01*
X26093Y8200D02*
X26634D01*
X20500Y14200D02*
X22452D01*
X20572Y14118D02*
X22370D01*
X26093Y8100D02*
X26520D01*
X26093Y8000D02*
X26428D01*
X26109Y7900D02*
X26351D01*
X21500Y14118D02*
Y15072D01*
X16400Y14538D02*
Y17329D01*
X21400Y14118D02*
Y15072D01*
X16407Y14538D02*
Y17335D01*
X16300Y14538D02*
Y17229D01*
X21300Y14118D02*
Y15072D01*
X21200Y14118D02*
Y15072D01*
X21100Y14118D02*
Y15072D01*
X21000Y14118D02*
Y15072D01*
X16200Y14538D02*
Y17129D01*
X16100Y14538D02*
Y17029D01*
X16000Y14538D02*
Y16929D01*
X15900Y14538D02*
Y16829D01*
X15800Y14538D02*
Y16729D01*
X15700Y14538D02*
Y16629D01*
X15600Y14538D02*
Y16529D01*
X15507Y14538D02*
Y16435D01*
X20900Y14118D02*
Y15072D01*
X20800Y14118D02*
Y15072D01*
X20700Y14118D02*
Y15072D01*
X20600Y14118D02*
Y15072D01*
X16207Y14538D02*
X16407D01*
X20572Y11318D02*
Y14118D01*
Y9930D02*
Y11218D01*
X20500Y10002D02*
Y15050D01*
Y10002D02*
X20572Y9930D01*
X15707Y14538D02*
X16207D01*
X15707D02*
X16207D01*
X15507D02*
X15707D01*
X13950Y8212D02*
Y8838D01*
X13900Y8172D02*
Y8838D01*
X13800Y8080D02*
Y8838D01*
X13700Y7966D02*
Y8838D01*
X13600Y7821D02*
Y8838D01*
X13377Y19400D02*
X14554D01*
X13303Y19300D02*
X14654D01*
X13235Y19200D02*
X14754D01*
X13544Y19600D02*
X14354D01*
X13458Y19500D02*
X14454D01*
X13059Y18900D02*
X15054D01*
X13009Y18800D02*
X15154D01*
X13172Y19100D02*
X14854D01*
X13113Y19000D02*
X14954D01*
X12964Y18700D02*
X15254D01*
X12922Y18600D02*
X15267D01*
X12884Y18500D02*
X15167D01*
X12850Y18400D02*
X15067D01*
X12819Y18300D02*
X14967D01*
X12848Y18200D02*
X14867D01*
X12889Y18100D02*
X14767D01*
X12946Y17900D02*
X14567D01*
X12922Y18000D02*
X14667D01*
X12963Y17800D02*
X14467D01*
X12973Y17700D02*
X14367D01*
X12975Y17600D02*
X14267D01*
X12970Y17500D02*
X14167D01*
X12958Y17400D02*
X14067D01*
X12939Y17300D02*
X13978D01*
X12912Y17200D02*
X13913D01*
X12876Y17100D02*
X13866D01*
X12832Y17000D02*
X13834D01*
X12777Y16900D02*
X13814D01*
X12738Y16800D02*
X13807D01*
X12757Y16700D02*
X13807D01*
X12780Y16600D02*
X13807D01*
X12805Y16500D02*
X13807D01*
X12834Y16400D02*
X13807D01*
X8618Y20000D02*
X10725D01*
X8618Y19900D02*
X10725D01*
X8618Y19800D02*
X10725D01*
X8618Y19700D02*
X10725D01*
X8618Y19600D02*
X10725D01*
X13200Y15604D02*
Y19146D01*
X13100Y15774D02*
Y18976D01*
X13000Y15970D02*
Y18780D01*
X8618Y19500D02*
X10725D01*
X8618Y19400D02*
X10725D01*
X8618Y19300D02*
X10725D01*
X8618Y19200D02*
X10725D01*
X8618Y19100D02*
X10725D01*
X8618Y19000D02*
X10725D01*
X8618Y18900D02*
X10725D01*
X8618Y18800D02*
X10725D01*
X12943Y16100D02*
X13807D01*
X12986Y16000D02*
X13807D01*
X13034Y15900D02*
X13807D01*
X12900Y18070D02*
Y18542D01*
X13132Y15800D02*
X13807D01*
X13142Y15700D02*
X13807D01*
X13203Y15600D02*
X13807D01*
X13132Y15717D02*
Y15888D01*
X12800Y16520D02*
Y16939D01*
X10344Y16500D02*
X10725D01*
X12867Y16300D02*
X13807D01*
X12903Y16200D02*
X13807D01*
X12900Y16208D02*
Y17164D01*
X13269Y15500D02*
X13807D01*
X13340Y15400D02*
X13807D01*
X13417Y15300D02*
X13807D01*
X13400Y15321D02*
Y19429D01*
X13300Y15455D02*
Y19295D01*
X13500Y15200D02*
X13807D01*
X13107Y8838D02*
X13950D01*
X13500Y15200D02*
Y19550D01*
X10339Y10188D02*
X13107D01*
X10427Y10100D02*
X13107D01*
X10527Y10000D02*
X13107D01*
X10627Y9900D02*
X13107D01*
X10727Y9800D02*
X13107D01*
X10827Y9700D02*
X13107D01*
X10927Y9600D02*
X13107D01*
X11027Y9500D02*
X13107D01*
X13400Y7913D02*
Y8838D01*
X13240Y8100D02*
X13820D01*
X13332Y8000D02*
X13728D01*
X13300Y8037D02*
Y8838D01*
X13200Y8138D02*
Y8838D01*
X13409Y7900D02*
X13651D01*
X13500Y7750D02*
Y8838D01*
X13472Y7800D02*
X13588D01*
X11727Y8800D02*
X13950D01*
X11827Y8700D02*
X13950D01*
X11927Y8600D02*
X13950D01*
X12275Y8500D02*
X13950D01*
X12780Y8400D02*
X13950D01*
X12981Y8300D02*
X13950D01*
X13126Y8200D02*
X13934D01*
X13107Y8838D02*
Y10188D01*
X12800Y8392D02*
Y10188D01*
X12600Y8458D02*
Y10188D01*
X12500Y8479D02*
Y10188D01*
X12400Y8493D02*
Y10188D01*
X13100Y8220D02*
Y10188D01*
X13000Y8289D02*
Y10188D01*
X12900Y8345D02*
Y10188D01*
X12700Y8429D02*
Y10188D01*
X12000Y8527D02*
Y10188D01*
X11900Y8627D02*
Y10188D01*
X11800Y8727D02*
Y10188D01*
X12300Y8499D02*
Y10188D01*
X12200Y8499D02*
Y10188D01*
X12100Y8491D02*
Y10188D01*
X10339D02*
X12044Y8483D01*
X11500Y9027D02*
Y10188D01*
X11427Y9100D02*
X13107D01*
X11527Y9000D02*
X13107D01*
X11400Y9127D02*
Y10188D01*
X11300Y9227D02*
Y10188D01*
X11627Y8900D02*
X13107D01*
X12027Y8500D02*
X12245D01*
X11700Y8827D02*
Y10188D01*
X11600Y8927D02*
Y10188D01*
X11100Y9427D02*
Y10188D01*
X11000Y9527D02*
Y10188D01*
X10900Y9627D02*
Y10188D01*
X10800Y9727D02*
Y10188D01*
X11127Y9400D02*
X13107D01*
X11227Y9300D02*
X13107D01*
X11200Y9327D02*
Y10188D01*
X11327Y9200D02*
X13107D01*
X10700Y27493D02*
Y28088D01*
X10600Y27493D02*
Y28088D01*
X10500Y27493D02*
Y28088D01*
X10400Y27493D02*
Y28088D01*
X10300Y27493D02*
Y28088D01*
X10200Y27493D02*
Y28088D01*
X10100Y27493D02*
Y28088D01*
X10000Y27493D02*
Y28088D01*
X9900Y27493D02*
Y28088D01*
X9800Y27493D02*
Y28088D01*
X9700Y27493D02*
Y28088D01*
X9600Y27493D02*
Y28088D01*
X9500Y27493D02*
Y28088D01*
X9400Y27493D02*
Y28088D01*
X7313Y27493D02*
X10213D01*
X9300D02*
Y28088D01*
X9200Y27493D02*
Y28088D01*
X10643Y23662D02*
Y24393D01*
X10113D02*
X10643D01*
X10600Y23622D02*
Y24393D01*
X10500Y23514D02*
Y24393D01*
X10400Y23378D02*
Y24393D01*
X10300Y23195D02*
Y24393D01*
X10200Y22879D02*
Y24393D01*
X8092Y22800D02*
X10187D01*
X8175Y22700D02*
X10178D01*
X7288Y24300D02*
X10643D01*
X7298Y24200D02*
X10643D01*
X7313Y24393D02*
X10113D01*
X7300Y24100D02*
X10643D01*
X7294Y24000D02*
X10643D01*
X7665Y23100D02*
X10261D01*
X7853Y23000D02*
X10229D01*
X7988Y22900D02*
X10204D01*
X9100Y27493D02*
Y28088D01*
X9000Y27493D02*
Y28088D01*
X8900Y27493D02*
Y28088D01*
X8458D02*
Y30688D01*
X8800Y27493D02*
Y28088D01*
X8400Y27493D02*
Y33975D01*
X8300Y27493D02*
Y28967D01*
X8200Y27493D02*
Y28774D01*
X8100Y27493D02*
Y28638D01*
X8000Y27493D02*
Y28533D01*
X7900Y27493D02*
Y28449D01*
X7800Y27493D02*
Y28380D01*
X7700Y27493D02*
Y28325D01*
X7600Y27493D02*
Y28281D01*
X7500Y27493D02*
Y28246D01*
X7400Y27493D02*
Y28221D01*
X7300Y24140D02*
Y28205D01*
X8700Y27493D02*
Y28088D01*
X8600Y27493D02*
Y28088D01*
X8500Y27493D02*
Y28088D01*
X8200Y22666D02*
Y24393D01*
X8100Y22791D02*
Y24393D01*
X8000Y22889D02*
Y24393D01*
X7900Y22968D02*
Y24393D01*
X7400Y23180D02*
Y24393D01*
X7313D02*
Y27493D01*
X7300Y23194D02*
Y24110D01*
X7800Y23033D02*
Y24393D01*
X7700Y23084D02*
Y24393D01*
X7600Y23126D02*
Y24393D01*
X7500Y23157D02*
Y24393D01*
X10700Y18710D02*
Y21525D01*
X8618Y21600D02*
X10613D01*
X8618Y18700D02*
X10688D01*
X8618Y21700D02*
X10518D01*
X10600Y18622D02*
Y21613D01*
X10500Y18514D02*
Y21721D01*
X8618Y18600D02*
X10578D01*
X10300Y18195D02*
Y22040D01*
X10400Y18378D02*
Y21856D01*
X8375Y22300D02*
X10212D01*
X8424Y22000D02*
X10319D01*
X8400Y22200D02*
X10239D01*
X8416Y22100D02*
X10274D01*
X8416Y21800D02*
X10439D01*
X8618Y18500D02*
X10489D01*
X8424Y21900D02*
X10373D01*
X8618Y18400D02*
X10414D01*
X10235Y16800D02*
X10439D01*
X10106Y17000D02*
X10319D01*
X10281Y16700D02*
X10518D01*
X10300Y16652D02*
Y17040D01*
X10177Y16900D02*
X10373D01*
X10317Y16600D02*
X10613D01*
X10600Y15888D02*
Y16613D01*
X10400Y15888D02*
Y16856D01*
X10500Y15888D02*
Y16721D01*
X8618Y18300D02*
X10353D01*
X8618Y18200D02*
X10302D01*
X8618Y18100D02*
X10261D01*
X8618Y18000D02*
X10229D01*
X9763Y17300D02*
X10212D01*
X9907Y17200D02*
X10239D01*
X10018Y17100D02*
X10274D01*
X9800Y17277D02*
Y24393D01*
X9600Y17381D02*
Y24393D01*
X9500Y17417D02*
Y24393D01*
X9400Y17444D02*
Y24393D01*
X9300Y17463D02*
Y24393D01*
X10100Y17007D02*
Y24393D01*
X10000Y17118D02*
Y24393D01*
X9900Y17206D02*
Y24393D01*
X9700Y17335D02*
Y24393D01*
X9200Y17473D02*
Y24393D01*
X9100Y17475D02*
Y24393D01*
X8600Y21762D02*
Y24393D01*
X8500Y21762D02*
Y24393D01*
X9000Y17469D02*
Y24393D01*
X8900Y17455D02*
Y24393D01*
X8800Y17432D02*
Y24393D01*
X8700Y17400D02*
Y24393D01*
X10200Y17879D02*
Y22355D01*
X8618Y17900D02*
X10204D01*
X8618Y17800D02*
X10187D01*
X8618Y18862D02*
Y21762D01*
X8618Y17700D02*
X10178D01*
X8618Y17600D02*
X10175D01*
X9552Y17400D02*
X10192D01*
X8618Y17368D02*
Y18862D01*
X10200Y16863D02*
Y17355D01*
X8243Y22600D02*
X10175D01*
X8298Y22500D02*
X10180D01*
X8300Y22495D02*
Y24393D01*
X8341Y22400D02*
X10192D01*
X8411Y21762D02*
X8618D01*
X8618Y17500D02*
X10180D01*
X8400Y22199D02*
Y24393D01*
X7255Y28200D02*
X8458D01*
X5855Y28100D02*
X8458D01*
X5855Y27400D02*
X7313D01*
X5855Y27300D02*
X7313D01*
X5855Y27200D02*
X7313D01*
X5855Y27100D02*
X7313D01*
X5855Y27000D02*
X7313D01*
X5855Y26900D02*
X7313D01*
X5855Y26800D02*
X7313D01*
X5855Y26700D02*
X7313D01*
X5855Y26600D02*
X7313D01*
X5855Y26500D02*
X7313D01*
X5855Y26400D02*
X7313D01*
X5855Y26300D02*
X7313D01*
X5855Y26200D02*
X7313D01*
X5855Y26100D02*
X7313D01*
X7280Y23900D02*
X10643D01*
X7257Y23800D02*
X10643D01*
X7225Y23700D02*
X10643D01*
X7184Y23600D02*
X10578D01*
X7132Y23500D02*
X10489D01*
X7068Y23400D02*
X10414D01*
X6989Y23300D02*
X10353D01*
X7191Y23200D02*
X10302D01*
X5855Y26000D02*
X7313D01*
X5855Y25900D02*
X7313D01*
X5855Y25800D02*
X7313D01*
X5855Y25700D02*
X7313D01*
X5855Y25600D02*
X7313D01*
X5855Y25500D02*
X7313D01*
X5855Y25400D02*
X7313D01*
X6477Y25300D02*
X7313D01*
X6800Y25125D02*
Y28244D01*
X6600Y25248D02*
Y28320D01*
X6700Y25193D02*
Y28277D01*
X6500Y25291D02*
Y28374D01*
X6400Y25325D02*
Y28441D01*
X7200Y24615D02*
Y28196D01*
X7100Y24803D02*
Y28196D01*
X7000Y24938D02*
Y28203D01*
X6900Y25042D02*
Y28219D01*
X6300Y25350D02*
Y28524D01*
X5838Y28200D02*
X7035D01*
X5838Y28164D02*
Y28595D01*
Y27895D02*
Y28164D01*
X6200Y25366D02*
Y28595D01*
X6100Y25374D02*
Y28595D01*
X6000Y25374D02*
Y28595D01*
X5900Y25366D02*
Y28595D01*
X7031Y24900D02*
X7313D01*
X6943Y25000D02*
X7313D01*
X7102Y24800D02*
X7313D01*
X7160Y24700D02*
X7313D01*
X7206Y24600D02*
X7313D01*
X7200Y23200D02*
Y23635D01*
X6891Y23200D02*
X7159D01*
X7100Y23198D02*
Y23447D01*
X7000Y23188D02*
Y23312D01*
X6688Y25200D02*
X7313D01*
X6832Y25100D02*
X7313D01*
X5855Y25360D02*
Y28164D01*
X3055Y19394D02*
X3538D01*
X800D02*
X2955D01*
X3787Y18186D02*
X4318Y17655D01*
X4000Y15912D02*
Y17973D01*
X800Y19300D02*
X3538D01*
X3800Y15912D02*
Y18173D01*
X3900Y15912D02*
Y18073D01*
X3600Y8037D02*
Y18468D01*
X3700Y15912D02*
Y18288D01*
X800Y18600D02*
X3559D01*
X800Y18300D02*
X3691D01*
X800Y18500D02*
X3588D01*
X800Y18400D02*
X3631D01*
X800Y18000D02*
X3973D01*
X800Y17900D02*
X4073D01*
X800Y18200D02*
X3773D01*
X800Y18100D02*
X3873D01*
X800Y17600D02*
X4318D01*
X800Y17500D02*
X4318D01*
X800Y17400D02*
X4318D01*
X800Y17800D02*
X4173D01*
X800Y17700D02*
X4273D01*
X4318Y15912D02*
Y17655D01*
X4300Y15912D02*
Y17673D01*
X4100Y15912D02*
Y17873D01*
X4200Y15912D02*
Y17773D01*
X800Y17300D02*
X4318D01*
X800Y17200D02*
X4318D01*
X800Y17100D02*
X4318D01*
X800Y17000D02*
X4318D01*
X800Y16900D02*
X4318D01*
X800Y16800D02*
X4318D01*
X800Y16700D02*
X4318D01*
X800Y16600D02*
X4318D01*
X3538Y18787D02*
Y19394D01*
X3500Y8500D02*
Y19394D01*
X3400Y8500D02*
Y19394D01*
X3300Y8500D02*
Y19394D01*
X3200Y8500D02*
Y19394D01*
X3100Y8500D02*
Y19394D01*
X2900Y8500D02*
Y19394D01*
X2800Y8500D02*
Y19394D01*
X2700Y8500D02*
Y19394D01*
X2600Y8500D02*
Y19394D01*
X2500Y8500D02*
Y19394D01*
X2400Y8500D02*
Y19394D01*
X2300Y8500D02*
Y19394D01*
X2200Y8500D02*
Y19394D01*
X2100Y8500D02*
Y19394D01*
X2000Y8500D02*
Y19394D01*
X1900Y8500D02*
Y19394D01*
X1800Y8500D02*
Y19394D01*
X1700Y8500D02*
Y19394D01*
X1600Y8500D02*
Y19394D01*
X1500Y8500D02*
Y19394D01*
X1400Y8500D02*
Y19394D01*
X1300Y8500D02*
Y19394D01*
X1200Y8500D02*
Y19394D01*
X1100Y8500D02*
Y19394D01*
X1000Y8500D02*
Y19394D01*
X800Y19200D02*
X3538D01*
X800Y19100D02*
X3538D01*
X800Y19000D02*
X3538D01*
X800Y18900D02*
X3538D01*
X800Y18800D02*
X3538D01*
X800Y18700D02*
X3542D01*
X900Y8500D02*
Y19394D01*
X800Y8500D02*
Y19394D01*
X10363Y16400D02*
X10725D01*
X10373Y16300D02*
X10725D01*
X10375Y16200D02*
X10725D01*
Y15888D02*
Y16505D01*
X10369Y16100D02*
X10725D01*
X10700Y15888D02*
Y16525D01*
Y9827D02*
Y10188D01*
X10600Y9927D02*
Y10188D01*
X10500Y10027D02*
Y10188D01*
X10355Y16000D02*
X10725D01*
X10332Y15900D02*
X10725D01*
X10329Y15888D02*
X10725D01*
X10068Y10459D02*
X10339Y10188D01*
X4567Y9681D02*
X6174Y8074D01*
X6000Y7853D02*
Y8248D01*
X5900Y7710D02*
Y8348D01*
X5361Y8300D02*
X5948D01*
X6100Y7991D02*
Y8148D01*
X8392Y6400D02*
X8508D01*
X5852Y7800D02*
X5968D01*
X5852Y6400D02*
X5968D01*
X8160Y6100D02*
X8740D01*
X8046Y6000D02*
X8854D01*
X8329Y6300D02*
X8571D01*
X8252Y6200D02*
X8648D01*
X5620Y8100D02*
X6148D01*
X5712Y8000D02*
X6108D01*
X5506Y8200D02*
X6048D01*
X5789Y7900D02*
X6031D01*
X5620Y6100D02*
X6200D01*
X5506Y6000D02*
X6314D01*
X5789Y6300D02*
X6031D01*
X5712Y6200D02*
X6108D01*
X4700Y8499D02*
Y9548D01*
X4500Y8493D02*
Y9757D01*
X4600Y8499D02*
Y9648D01*
X4300Y8458D02*
Y10212D01*
X4400Y8479D02*
Y9918D01*
X4200Y8429D02*
Y10212D01*
X4100Y8392D02*
Y10212D01*
X3618Y15912D02*
X4318D01*
X3618Y10212D02*
X4321D01*
X3618Y13112D02*
Y15912D01*
X3618Y10212D02*
Y13112D01*
X4000Y8345D02*
Y10212D01*
X3900Y8288D02*
Y10212D01*
X3800Y8220D02*
Y10212D01*
X3700Y8137D02*
Y10212D01*
X5400Y8276D02*
Y8848D01*
X5300Y8335D02*
Y8948D01*
X5160Y8400D02*
X5848D01*
X5100Y8422D02*
Y9148D01*
X5200Y8383D02*
Y9048D01*
X5700Y8015D02*
Y8548D01*
X5800Y7884D02*
Y8448D01*
X5500Y8205D02*
Y8748D01*
X5600Y8119D02*
Y8648D01*
X5000Y8453D02*
Y9248D01*
X4655Y8500D02*
X5748D01*
X4800Y8491D02*
Y9448D01*
X4900Y8476D02*
Y9348D01*
X3500Y8500D02*
X4625D01*
X3500Y7913D02*
Y8500D01*
Y8400D02*
X4120D01*
X9000Y4600D02*
Y5899D01*
X9100Y4600D02*
Y5845D01*
X8800Y4600D02*
Y6045D01*
X8900Y4600D02*
Y5965D01*
X8600Y4600D02*
Y6260D01*
X8700Y4600D02*
Y6141D01*
X8500Y4600D02*
Y6413D01*
X8400Y4600D02*
Y6413D01*
X7901Y5900D02*
X8999D01*
X8300Y4600D02*
Y6260D01*
X8200Y4600D02*
Y6141D01*
X8100Y4600D02*
Y6045D01*
X8000Y4600D02*
Y5965D01*
X7900Y4600D02*
Y5899D01*
X7800Y4600D02*
Y5845D01*
X9400Y5533D02*
Y5737D01*
X9300Y5349D02*
Y5765D01*
X7699Y5800D02*
X9201D01*
X9200Y4600D02*
Y5800D01*
X9250Y4600D02*
Y5075D01*
X7700Y4600D02*
Y5800D01*
X7600Y4600D02*
Y5764D01*
X7500Y4600D02*
Y5737D01*
X7400Y4600D02*
Y5717D01*
X7300Y4600D02*
Y5705D01*
X7200Y4600D02*
Y5700D01*
X7100Y4600D02*
Y5702D01*
X7000Y4600D02*
Y5712D01*
X6900Y4600D02*
Y5728D01*
X6800Y4600D02*
Y5753D01*
X6400Y4600D02*
Y5937D01*
X6300Y4600D02*
Y6011D01*
X6600Y4600D02*
Y5826D01*
X6100Y4600D02*
Y6209D01*
X6200Y4600D02*
Y6100D01*
X5900Y4600D02*
Y6490D01*
X6000Y4600D02*
Y6347D01*
X5800Y4600D02*
Y6316D01*
X5700Y4600D02*
Y6185D01*
X5600Y4600D02*
Y6081D01*
X5361Y5900D02*
X6459D01*
X5500Y4600D02*
Y5995D01*
X5400Y4600D02*
Y5924D01*
X3800Y4600D02*
Y5980D01*
X3900Y4600D02*
Y5912D01*
X3600Y4600D02*
Y6163D01*
X3700Y4600D02*
Y6063D01*
X6500Y4600D02*
Y5876D01*
X5159Y5800D02*
X6661D01*
X6700Y4600D02*
Y5785D01*
X5300Y4600D02*
Y5865D01*
X5200Y4600D02*
Y5817D01*
X5100Y4600D02*
Y5778D01*
X5000Y4600D02*
Y5747D01*
X4900Y4600D02*
Y5724D01*
X4800Y4600D02*
Y5709D01*
X4700Y4600D02*
Y5701D01*
X4600Y4600D02*
Y5701D01*
X4500Y4600D02*
Y5707D01*
X4400Y4600D02*
Y5721D01*
X4300Y4600D02*
Y5742D01*
X4200Y4600D02*
Y5771D01*
X4100Y4600D02*
Y5808D01*
X4000Y4600D02*
Y5855D01*
X800Y16500D02*
X4318D01*
X800Y16400D02*
X4318D01*
X800Y16300D02*
X4318D01*
X800Y16200D02*
X4318D01*
X800Y16100D02*
X4318D01*
X800Y16000D02*
X4318D01*
X800Y15900D02*
X3618D01*
X800Y15800D02*
X3618D01*
X800Y15700D02*
X3618D01*
X800Y15600D02*
X3618D01*
X800Y15500D02*
X3618D01*
X800Y15400D02*
X3618D01*
X800Y15300D02*
X3618D01*
X800Y15200D02*
X3618D01*
X800Y15100D02*
X3618D01*
X800Y15000D02*
X3618D01*
X800Y14900D02*
X3618D01*
X800Y14800D02*
X3618D01*
X800Y14700D02*
X3618D01*
X800Y14600D02*
X3618D01*
X800Y14500D02*
X3618D01*
X800Y14400D02*
X3618D01*
X800Y14300D02*
X3618D01*
X800Y14200D02*
X3618D01*
X800Y14100D02*
X3618D01*
X800Y14000D02*
X3618D01*
X800Y13900D02*
X3618D01*
X800Y10200D02*
X4322D01*
X800Y13800D02*
X3618D01*
X800Y13700D02*
X3618D01*
X800Y9900D02*
X4409D01*
X800Y9800D02*
X4468D01*
X800Y10100D02*
X4338D01*
X800Y10000D02*
X4366D01*
X800Y13600D02*
X3618D01*
X800Y13500D02*
X3618D01*
X800Y13400D02*
X3618D01*
X800Y13300D02*
X3618D01*
X800Y13200D02*
X3618D01*
X800Y13100D02*
X3618D01*
X800Y13000D02*
X3618D01*
X800Y12900D02*
X3618D01*
X800Y12800D02*
X3618D01*
X800Y12700D02*
X3618D01*
X800Y12600D02*
X3618D01*
X800Y12500D02*
X3618D01*
X800Y12400D02*
X3618D01*
X800Y12300D02*
X3618D01*
X800Y12200D02*
X3618D01*
X800Y12100D02*
X3618D01*
X800Y12000D02*
X3618D01*
X800Y11900D02*
X3618D01*
X800Y11800D02*
X3618D01*
X800Y11700D02*
X3618D01*
X800Y11600D02*
X3618D01*
X800Y11500D02*
X3618D01*
X800Y11400D02*
X3618D01*
X800Y11300D02*
X3618D01*
X800Y11200D02*
X3618D01*
X800Y11100D02*
X3618D01*
X800Y11000D02*
X3618D01*
X800Y10900D02*
X3618D01*
X800Y10800D02*
X3618D01*
X800Y10700D02*
X3618D01*
X800Y10600D02*
X3618D01*
X800Y10500D02*
X3618D01*
X800Y10400D02*
X3618D01*
X800Y10300D02*
X3618D01*
X800Y9500D02*
X4748D01*
X800Y9400D02*
X4848D01*
X800Y9300D02*
X4948D01*
X800Y9700D02*
X4549D01*
X800Y9600D02*
X4648D01*
X3500Y8300D02*
X3919D01*
X3500Y8200D02*
X3774D01*
X3500Y8100D02*
X3660D01*
X800Y9000D02*
X5248D01*
X800Y8900D02*
X5348D01*
X800Y9200D02*
X5048D01*
X800Y9100D02*
X5148D01*
X800Y8700D02*
X5548D01*
X800Y8600D02*
X5648D01*
X800Y8800D02*
X5448D01*
X800Y8500D02*
X3500D01*
Y6000D02*
X3774D01*
X3500Y5900D02*
X3919D01*
X3500Y5800D02*
X4121D01*
X3500Y5700D02*
Y6287D01*
Y6100D02*
X3660D01*
X800Y5700D02*
X9567D01*
X800Y5600D02*
X9455D01*
X800Y5500D02*
X9377D01*
X800Y5400D02*
X9321D01*
X800Y5300D02*
X9283D01*
X800Y5200D02*
X9260D01*
X800Y5100D02*
X9250D01*
X800Y5000D02*
X9250D01*
X794Y4900D02*
X9250D01*
X775Y4800D02*
X9250D01*
X775Y4700D02*
X9250D01*
X775Y4600D02*
X9250D01*
X3500D02*
Y5700D01*
X3400Y4600D02*
Y5700D01*
X3300Y4600D02*
Y5700D01*
X3200Y4600D02*
Y5700D01*
X3100Y4600D02*
Y5700D01*
X3000Y4600D02*
Y5700D01*
X2900Y4600D02*
Y5700D01*
X2800Y4600D02*
Y5700D01*
X2700Y4600D02*
Y5700D01*
X800D02*
X3500D01*
X2600Y4600D02*
Y5700D01*
X2500Y4600D02*
Y5700D01*
X2400Y4600D02*
Y5700D01*
X2300Y4600D02*
Y5700D01*
X2200Y4600D02*
Y5700D01*
X2100Y4600D02*
Y5700D01*
X2000Y4600D02*
Y5700D01*
X1900Y4600D02*
Y5700D01*
X1800Y4600D02*
Y5700D01*
X1700Y4600D02*
Y5700D01*
X1600Y4600D02*
Y5700D01*
X1500Y4600D02*
Y5700D01*
X1400Y4600D02*
Y5700D01*
X1300Y4600D02*
Y5700D01*
X1200Y4600D02*
Y5700D01*
X1100Y4600D02*
Y5700D01*
X800Y5000D02*
Y5700D01*
X1000Y4600D02*
Y5700D01*
X900Y4600D02*
Y5700D01*
X800Y4600D02*
Y4989D01*
X775Y4600D02*
Y4802D01*
D11*
X37285Y49915D02*
D03*
X47285Y54990D02*
D03*
X47285Y57540D02*
D03*
X37285D02*
D03*
X37235Y54990D02*
D03*
X37285Y52465D02*
D03*
X47285Y60090D02*
D03*
Y62640D02*
D03*
X37310Y60090D02*
D03*
X37285Y62640D02*
D03*
X47285Y52465D02*
D03*
D12*
Y49915D02*
D03*
D13*
X6657Y50413D02*
D03*
Y53213D02*
D03*
X9543Y50412D02*
D03*
X9543Y53212D02*
D03*
X11582Y14438D02*
D03*
X11582Y11638D02*
D03*
X17257Y13088D02*
D03*
Y10288D02*
D03*
X14657Y13088D02*
D03*
Y10288D02*
D03*
X35143Y9837D02*
D03*
X35143Y12637D02*
D03*
X5168Y11662D02*
D03*
X5168Y14462D02*
D03*
X7068Y17512D02*
D03*
X7068Y20312D02*
D03*
X8518Y11662D02*
D03*
X8518Y14462D02*
D03*
X32518Y9837D02*
D03*
X32518Y12637D02*
D03*
X29743Y9862D02*
D03*
X29743Y12662D02*
D03*
X25243Y9837D02*
D03*
X25243Y12637D02*
D03*
X38357Y12638D02*
D03*
Y9838D02*
D03*
X41568Y25762D02*
D03*
X41568Y28562D02*
D03*
X22122Y12668D02*
D03*
Y9868D02*
D03*
D14*
X12738Y50393D02*
D03*
X15538D02*
D03*
X47613Y10418D02*
D03*
X44813D02*
D03*
X11563Y25943D02*
D03*
X8763Y25943D02*
D03*
X44462Y33982D02*
D03*
X47262Y33982D02*
D03*
X44512Y37282D02*
D03*
X47312Y37282D02*
D03*
X40688Y33993D02*
D03*
X37888D02*
D03*
X40688Y37293D02*
D03*
X37888D02*
D03*
X4413Y44543D02*
D03*
X1613Y44543D02*
D03*
X44462Y25332D02*
D03*
X47262Y25332D02*
D03*
X44487Y28182D02*
D03*
X47287Y28182D02*
D03*
X44487Y31082D02*
D03*
X47287Y31082D02*
D03*
X4388Y23775D02*
D03*
X1588D02*
D03*
X4388Y29445D02*
D03*
X1588Y29445D02*
D03*
X4413Y35140D02*
D03*
X1613D02*
D03*
X4405Y20944D02*
D03*
X1605D02*
D03*
X4405Y26614D02*
D03*
X1605Y26614D02*
D03*
X4430Y32309D02*
D03*
X1630D02*
D03*
X13763Y39768D02*
D03*
X10963Y39768D02*
D03*
X13713Y45318D02*
D03*
X10913Y45318D02*
D03*
X13738Y42518D02*
D03*
X10938Y42518D02*
D03*
X38287Y21007D02*
D03*
X41087Y21007D02*
D03*
X38212Y15107D02*
D03*
X41012Y15107D02*
D03*
X32687Y17682D02*
D03*
X35487Y17682D02*
D03*
X26612Y19482D02*
D03*
X29412Y19482D02*
D03*
X38262Y18182D02*
D03*
X41062Y18182D02*
D03*
X23963Y19443D02*
D03*
X21163Y19443D02*
D03*
X29443Y16653D02*
D03*
X26643D02*
D03*
X21132Y16622D02*
D03*
X23932D02*
D03*
D15*
X29570Y59100D02*
D03*
X28300D02*
D03*
X27030D02*
D03*
X25760D02*
D03*
X21950D02*
D03*
X20680D02*
D03*
X29570Y49850D02*
D03*
X28300D02*
D03*
X27030D02*
D03*
X25760D02*
D03*
X24490D02*
D03*
X23220D02*
D03*
X21950D02*
D03*
X20680D02*
D03*
D16*
X24490Y59100D02*
D03*
X23220D02*
D03*
D17*
X30650Y37550D02*
D03*
Y39450D02*
D03*
X32800Y38500D02*
D03*
X32800Y37550D02*
D03*
D18*
X32800Y39450D02*
D03*
D19*
X46585Y20100D02*
D03*
X45315D02*
D03*
X44045D02*
D03*
X47855Y14900D02*
D03*
X46585D02*
D03*
X45315D02*
D03*
X44045D02*
D03*
D20*
X47855Y20100D02*
D03*
D21*
X16330Y53000D02*
D03*
X13790Y58700D02*
D03*
X12520D02*
D03*
X15060Y53000D02*
D03*
X13790D02*
D03*
X12520D02*
D03*
D22*
X15060Y58700D02*
D03*
X16330D02*
D03*
D23*
X17369Y28286D02*
X17104Y28551D01*
X18359Y29806D01*
X18624Y29541D01*
X17369Y28286D01*
Y28433D02*
X17251Y28551D01*
X18359Y29659D01*
X18477Y29541D01*
X17369Y28433D01*
X17393Y28557D02*
X18336Y29535D01*
X17935Y27720D02*
X17670Y27985D01*
X18925Y29241D01*
X19190Y28975D01*
X17935Y27720D01*
Y27868D02*
X17817Y27985D01*
X18925Y29093D01*
X19043Y28975D01*
X17935Y27868D01*
X17959Y27991D02*
X18901Y28970D01*
X18501Y27155D02*
X18236Y27420D01*
X19491Y28675D01*
X19756Y28410D01*
X18501Y27155D01*
Y27302D02*
X18383Y27420D01*
X19491Y28528D01*
X19608Y28410D01*
X18501Y27302D01*
X18524Y27426D02*
X19467Y28404D01*
X19066Y26589D02*
X18801Y26854D01*
X20056Y28109D01*
X20322Y27844D01*
X19066Y26589D01*
Y26736D02*
X18949Y26854D01*
X20056Y27962D01*
X20174Y27844D01*
X19066Y26736D01*
X19090Y26860D02*
X20033Y27838D01*
X19632Y26023D02*
X19367Y26288D01*
X20622Y27544D01*
X20887Y27278D01*
X19632Y26023D01*
Y26171D02*
X19514Y26288D01*
X20622Y27396D01*
X20740Y27278D01*
X19632Y26171D01*
X19656Y26294D02*
X20598Y27273D01*
X20198Y25458D02*
X19933Y25723D01*
X21188Y26978D01*
X21453Y26713D01*
X20198Y25458D01*
Y25605D02*
X20080Y25723D01*
X21188Y26831D01*
X21306Y26713D01*
X20198Y25605D01*
X20221Y25728D02*
X21164Y26707D01*
X20763Y24892D02*
X20498Y25157D01*
X21753Y26412D01*
X22019Y26147D01*
X20763Y24892D01*
Y25039D02*
X20646Y25157D01*
X21753Y26265D01*
X21871Y26147D01*
X20763Y25039D01*
X20787Y25163D02*
X21730Y26141D01*
X21329Y24326D02*
X21064Y24591D01*
X22319Y25846D01*
X22584Y25581D01*
X21329Y24326D01*
Y24473D02*
X21211Y24591D01*
X22319Y25699D01*
X22437Y25581D01*
X21329Y24473D01*
X21353Y24597D02*
X22295Y25576D01*
X21895Y23761D02*
X21630Y24026D01*
X22885Y25281D01*
X23150Y25016D01*
X21895Y23761D01*
Y23908D02*
X21777Y24026D01*
X22885Y25133D01*
X23003Y25016D01*
X21895Y23908D01*
X21919Y24031D02*
X22861Y25010D01*
X22461Y23195D02*
X22195Y23460D01*
X23450Y24715D01*
X23716Y24450D01*
X22461Y23195D01*
Y23342D02*
X22343Y23460D01*
X23450Y24568D01*
X23568Y24450D01*
X22461Y23342D01*
X22484Y23466D02*
X23427Y24444D01*
X23026Y22629D02*
X22761Y22894D01*
X24016Y24149D01*
X24281Y23884D01*
X23026Y22629D01*
Y22776D02*
X22908Y22894D01*
X24016Y24002D01*
X24134Y23884D01*
X23026Y22776D01*
X23050Y22900D02*
X23992Y23879D01*
X27039Y22894D02*
X26774Y22629D01*
X25519Y23884D01*
X25784Y24149D01*
X27039Y22894D01*
X26892D02*
X26774Y22776D01*
X25666Y23884D01*
X25784Y24002D01*
X26892Y22894D01*
X26768Y22918D02*
X25790Y23861D01*
X27605Y23460D02*
X27340Y23195D01*
X26084Y24450D01*
X26350Y24715D01*
X27605Y23460D01*
X27457D02*
X27340Y23342D01*
X26232Y24450D01*
X26350Y24568D01*
X27457Y23460D01*
X27334Y23484D02*
X26355Y24426D01*
X28170Y24026D02*
X27905Y23761D01*
X26650Y25016D01*
X26915Y25281D01*
X28170Y24026D01*
X28023D02*
X27905Y23908D01*
X26797Y25016D01*
X26915Y25134D01*
X28023Y24026D01*
X27899Y24049D02*
X26921Y24992D01*
X28736Y24591D02*
X28471Y24326D01*
X27216Y25581D01*
X27481Y25846D01*
X28736Y24591D01*
X28589D02*
X28471Y24473D01*
X27363Y25581D01*
X27481Y25699D01*
X28589Y24591D01*
X28465Y24615D02*
X27487Y25558D01*
X30999Y26854D02*
X30734Y26589D01*
X29479Y27844D01*
X29744Y28109D01*
X30999Y26854D01*
X30852D02*
X30734Y26736D01*
X29626Y27844D01*
X29744Y27962D01*
X30852Y26854D01*
X30728Y26878D02*
X29749Y27820D01*
X31564Y27420D02*
X31299Y27155D01*
X30044Y28410D01*
X30309Y28675D01*
X31564Y27420D01*
X31417D02*
X31299Y27302D01*
X30191Y28410D01*
X30309Y28528D01*
X31417Y27420D01*
X31294Y27444D02*
X30315Y28386D01*
X32130Y27985D02*
X31865Y27720D01*
X30610Y28975D01*
X30875Y29241D01*
X32130Y27985D01*
X31983D02*
X31865Y27868D01*
X30757Y28975D01*
X30875Y29093D01*
X31983Y27985D01*
X31859Y28009D02*
X30881Y28952D01*
X32696Y28551D02*
X32431Y28286D01*
X31176Y29541D01*
X31441Y29806D01*
X32696Y28551D01*
X32549D02*
X32431Y28433D01*
X31323Y29541D01*
X31441Y29659D01*
X32549Y28551D01*
X32425Y28575D02*
X31446Y29517D01*
X25784Y36701D02*
X25519Y36966D01*
X26774Y38221D01*
X27039Y37956D01*
X25784Y36701D01*
Y36848D02*
X25666Y36966D01*
X26774Y38074D01*
X26892Y37956D01*
X25784Y36848D01*
X25808Y36971D02*
X26750Y37950D01*
X26350Y36135D02*
X26084Y36400D01*
X27340Y37655D01*
X27605Y37390D01*
X26350Y36135D01*
Y36282D02*
X26232Y36400D01*
X27340Y37508D01*
X27457Y37390D01*
X26350Y36282D01*
X26373Y36406D02*
X27316Y37384D01*
X26915Y35569D02*
X26650Y35834D01*
X27905Y37089D01*
X28170Y36824D01*
X26915Y35569D01*
Y35717D02*
X26797Y35834D01*
X27905Y36942D01*
X28023Y36824D01*
X26915Y35717D01*
X26939Y35840D02*
X27882Y36819D01*
X27481Y35004D02*
X27216Y35269D01*
X28471Y36524D01*
X28736Y36259D01*
X27481Y35004D01*
Y35151D02*
X27363Y35269D01*
X28471Y36376D01*
X28589Y36259D01*
X27481Y35151D01*
X27505Y35274D02*
X28447Y36253D01*
X28047Y34438D02*
X27781Y34703D01*
X29037Y35958D01*
X29302Y35693D01*
X28047Y34438D01*
Y34585D02*
X27929Y34703D01*
X29037Y35811D01*
X29154Y35693D01*
X28047Y34585D01*
X28070Y34709D02*
X29013Y35687D01*
X28612Y33872D02*
X28347Y34137D01*
X29602Y35392D01*
X29867Y35127D01*
X28612Y33872D01*
Y34019D02*
X28494Y34137D01*
X29602Y35245D01*
X29720Y35127D01*
X28612Y34019D01*
X28636Y34143D02*
X29579Y35122D01*
X29178Y33306D02*
X28913Y33572D01*
X30168Y34827D01*
X30433Y34562D01*
X29178Y33306D01*
Y33454D02*
X29060Y33572D01*
X30168Y34679D01*
X30286Y34562D01*
X29178Y33454D01*
X29202Y33577D02*
X30144Y34556D01*
X29744Y32741D02*
X29479Y33006D01*
X30734Y34261D01*
X30999Y33996D01*
X29744Y32741D01*
Y32888D02*
X29626Y33006D01*
X30734Y34114D01*
X30851Y33996D01*
X29744Y32888D01*
X29767Y33012D02*
X30710Y33990D01*
X30309Y32175D02*
X30044Y32440D01*
X31299Y33695D01*
X31565Y33430D01*
X30309Y32175D01*
Y32322D02*
X30192Y32440D01*
X31299Y33548D01*
X31417Y33430D01*
X30309Y32322D01*
X30333Y32446D02*
X31276Y33424D01*
X30875Y31609D02*
X30610Y31875D01*
X31865Y33130D01*
X32130Y32865D01*
X30875Y31609D01*
Y31757D02*
X30757Y31875D01*
X31865Y32982D01*
X31983Y32865D01*
X30875Y31757D01*
X30899Y31880D02*
X31841Y32859D01*
X31441Y31044D02*
X31176Y31309D01*
X32431Y32564D01*
X32696Y32299D01*
X31441Y31044D01*
Y31191D02*
X31323Y31309D01*
X32431Y32417D01*
X32549Y32299D01*
X31441Y31191D01*
X31464Y31315D02*
X32407Y32293D01*
X18624Y31309D02*
X18359Y31044D01*
X17104Y32299D01*
X17369Y32564D01*
X18624Y31309D01*
X18477D02*
X18359Y31191D01*
X17251Y32299D01*
X17369Y32417D01*
X18477Y31309D01*
X18354Y31333D02*
X17375Y32275D01*
X19190Y31875D02*
X18925Y31609D01*
X17670Y32865D01*
X17935Y33130D01*
X19190Y31875D01*
X19043D02*
X18925Y31757D01*
X17817Y32865D01*
X17935Y32982D01*
X19043Y31875D01*
X18919Y31898D02*
X17941Y32841D01*
X19756Y32440D02*
X19491Y32175D01*
X18236Y33430D01*
X18501Y33695D01*
X19756Y32440D01*
X19608D02*
X19491Y32322D01*
X18383Y33430D01*
X18501Y33548D01*
X19608Y32440D01*
X19485Y32464D02*
X18506Y33407D01*
X20321Y33006D02*
X20056Y32741D01*
X18801Y33996D01*
X19066Y34261D01*
X20321Y33006D01*
X20174D02*
X20056Y32888D01*
X18949Y33996D01*
X19066Y34114D01*
X20174Y33006D01*
X20051Y33030D02*
X19072Y33972D01*
X20887Y33572D02*
X20622Y33306D01*
X19367Y34562D01*
X19632Y34827D01*
X20887Y33572D01*
X20740D02*
X20622Y33454D01*
X19514Y34562D01*
X19632Y34679D01*
X20740Y33572D01*
X20616Y33595D02*
X19638Y34538D01*
X21453Y34137D02*
X21188Y33872D01*
X19933Y35127D01*
X20198Y35392D01*
X21453Y34137D01*
X21306D02*
X21188Y34019D01*
X20080Y35127D01*
X20198Y35245D01*
X21306Y34137D01*
X21182Y34161D02*
X20203Y35104D01*
X22019Y34703D02*
X21753Y34438D01*
X20498Y35693D01*
X20763Y35958D01*
X22019Y34703D01*
X21871D02*
X21753Y34585D01*
X20646Y35693D01*
X20763Y35811D01*
X21871Y34703D01*
X21748Y34727D02*
X20769Y35669D01*
X22584Y35269D02*
X22319Y35004D01*
X21064Y36259D01*
X21329Y36524D01*
X22584Y35269D01*
X22437D02*
X22319Y35151D01*
X21211Y36259D01*
X21329Y36376D01*
X22437Y35269D01*
X22313Y35292D02*
X21335Y36235D01*
X23150Y35834D02*
X22885Y35569D01*
X21630Y36824D01*
X21895Y37089D01*
X23150Y35834D01*
X23003D02*
X22885Y35717D01*
X21777Y36824D01*
X21895Y36942D01*
X23003Y35834D01*
X22879Y35858D02*
X21901Y36801D01*
X23716Y36400D02*
X23450Y36135D01*
X22195Y37390D01*
X22460Y37655D01*
X23716Y36400D01*
X23568D02*
X23450Y36282D01*
X22343Y37390D01*
X22460Y37508D01*
X23568Y36400D01*
X23445Y36424D02*
X22466Y37366D01*
X24281Y36966D02*
X24016Y36701D01*
X22761Y37956D01*
X23026Y38221D01*
X24281Y36966D01*
X24134D02*
X24016Y36848D01*
X22908Y37956D01*
X23026Y38074D01*
X24134Y36966D01*
X24010Y36989D02*
X23032Y37932D01*
X30433Y26288D02*
X30168Y26023D01*
X28913Y27278D01*
X29178Y27544D01*
X30433Y26288D01*
X30286D02*
X30168Y26171D01*
X29060Y27278D01*
X29178Y27396D01*
X30286Y26288D01*
X30162Y26312D02*
X29184Y27255D01*
X29867Y25723D02*
X29602Y25458D01*
X28347Y26713D01*
X28612Y26978D01*
X29867Y25723D01*
X29720D02*
X29602Y25605D01*
X28494Y26713D01*
X28612Y26831D01*
X29720Y25723D01*
X29597Y25746D02*
X28618Y26689D01*
X29302Y25157D02*
X29037Y24892D01*
X27781Y26147D01*
X28047Y26412D01*
X29302Y25157D01*
X29154D02*
X29037Y25039D01*
X27929Y26147D01*
X28047Y26265D01*
X29154Y25157D01*
X29031Y25181D02*
X28052Y26123D01*
D24*
X47285Y49915D02*
X48785D01*
X47285D02*
Y50915D01*
Y48915D02*
Y49915D01*
X45785D02*
X47285D01*
X47500Y41225D02*
X49000D01*
X47500D02*
Y42725D01*
Y39725D02*
Y41225D01*
X47312Y37282D02*
X48612D01*
X47312D02*
Y38682D01*
Y35882D02*
Y37282D01*
X46000Y41225D02*
X47500D01*
X29570Y49850D02*
X30370D01*
X29570D02*
Y51425D01*
Y48275D02*
Y49850D01*
X47262Y33982D02*
X48562D01*
X47287Y31082D02*
X48587D01*
X47287Y28182D02*
X48587D01*
X47262Y33982D02*
Y35382D01*
X47262Y25332D02*
X48562D01*
X47262Y23932D02*
Y25332D01*
X44813Y9018D02*
Y10418D01*
X47820Y7100D02*
X49070D01*
X47820D02*
Y8350D01*
X41087Y21007D02*
X42387D01*
X43513Y10418D02*
X44813D01*
X41087Y21007D02*
Y22407D01*
X35487Y17682D02*
Y19082D01*
X29412Y19482D02*
X30712D01*
X29412D02*
Y20882D01*
X36957Y9838D02*
X38357D01*
Y8538D02*
Y9838D01*
X29443Y16653D02*
X30743D01*
X29443Y15253D02*
Y16653D01*
X21950Y49850D02*
Y51425D01*
Y48275D02*
Y49850D01*
X1613Y44543D02*
Y45943D01*
Y43143D02*
Y44543D01*
X1689Y39433D02*
Y40633D01*
Y38233D02*
Y39433D01*
X9758Y32363D02*
Y33513D01*
Y31213D02*
Y32363D01*
X8608D02*
X9758D01*
Y29388D02*
Y30538D01*
X8608Y29388D02*
X9758D01*
X1613Y35140D02*
Y36540D01*
X21132Y15222D02*
Y16622D01*
X11582Y10338D02*
Y11638D01*
X9758Y28238D02*
Y29388D01*
X8763Y25943D02*
Y27343D01*
Y24543D02*
Y25943D01*
X7463D02*
X8763D01*
X1605Y19544D02*
Y20944D01*
X2100Y7100D02*
Y8350D01*
Y5850D02*
Y7100D01*
X47285Y57540D02*
Y60069D01*
X17600Y51350D02*
Y55025D01*
X15050Y57575D02*
Y61175D01*
X29125Y61775D02*
X29570Y61330D01*
X47275Y60080D02*
X47285Y60069D01*
X29110Y61760D02*
X29125Y61775D01*
X21950Y61225D02*
X22125Y61400D01*
X47275Y58875D02*
Y60080D01*
X29570Y59100D02*
Y61330D01*
X21950Y59100D02*
Y61225D01*
X15050Y61175D02*
X15060Y61165D01*
X16330Y53000D02*
X17600D01*
X15538Y50393D02*
X16643D01*
X17600Y51350D01*
X15050Y57575D02*
X17600Y55025D01*
X13725Y57225D02*
X15060Y55890D01*
Y53000D02*
Y55890D01*
X9500Y57225D02*
X13725D01*
X9500D02*
X9543Y57182D01*
Y53212D02*
Y57182D01*
X13675Y55200D02*
X13790Y55085D01*
Y53000D02*
Y55085D01*
X8156Y51825D02*
X9543Y53212D01*
X2800Y52200D02*
X3175Y51825D01*
X8156D01*
X6525Y57175D02*
X6657Y57043D01*
Y53213D02*
Y57043D01*
Y50413D02*
X12718D01*
X12738Y50393D01*
X27425Y53575D02*
X27475Y53525D01*
X28100Y38150D02*
Y39125D01*
X26845Y36895D02*
X28100Y38150D01*
X23220Y49850D02*
Y51845D01*
X24950Y53575D02*
X27425D01*
X23220Y51845D02*
X24950Y53575D01*
X25760Y49850D02*
Y52140D01*
X26279Y37461D02*
Y39196D01*
X25625Y52275D02*
X25760Y52140D01*
X22910Y39937D02*
X23773Y40800D01*
X32625Y37375D02*
X32800Y37550D01*
X32625Y36425D02*
Y37375D01*
X23773Y40800D02*
X29900D01*
X25760Y59100D02*
Y60565D01*
X12520Y58700D02*
Y62445D01*
X13850Y63775D01*
X22550D01*
X25760Y60565D01*
X23220Y57495D02*
Y59100D01*
X16330Y58700D02*
X18155Y56875D01*
X22600D02*
X23220Y57495D01*
X18155Y56875D02*
X22600D01*
X37310Y57565D02*
Y60090D01*
X19475Y59100D02*
X20680D01*
X19425Y58875D02*
Y59050D01*
X37285Y58800D02*
X37310Y58825D01*
X13790Y58700D02*
Y60110D01*
X19425Y59050D02*
X19475Y59100D01*
X37285Y57540D02*
X37310Y57565D01*
X42500Y47050D02*
X42975D01*
X43625Y51075D02*
X45015Y52465D01*
X17247Y22718D02*
Y22772D01*
X20693Y26218D01*
X10963Y39768D02*
X11000Y39806D01*
X37542Y45066D02*
Y47058D01*
X4388Y23775D02*
X4738Y24125D01*
X6050D01*
X21100Y27756D02*
Y28550D01*
X21012Y28800D02*
X21025D01*
X20680Y47080D02*
Y49850D01*
X42975Y47050D02*
X43625Y47700D01*
Y51075D01*
X45015Y52465D02*
X47285D01*
X11000Y39806D02*
Y47075D01*
X4413Y44543D02*
X6944Y47075D01*
X42500D01*
X1613Y19456D02*
Y36275D01*
X17900Y25675D02*
Y25688D01*
Y25675D02*
X18377Y25198D01*
X18541D01*
X21100Y27756D01*
X17900Y25688D02*
X21012Y28800D01*
X21132Y16622D02*
X21163Y16653D01*
Y19443D01*
D25*
X15925Y44850D02*
X33100D01*
X35400Y42550D02*
X38525D01*
X33100Y44850D02*
X35400Y42550D01*
X15650Y44575D02*
X15925Y44850D01*
X15650Y43875D02*
Y44575D01*
X33682Y27300D02*
X38800D01*
X31936Y29046D02*
X33682Y27300D01*
X14825Y36375D02*
X15900Y37450D01*
X8450Y36025D02*
X8800Y36375D01*
X8518Y15618D02*
X9125Y16225D01*
X4413Y35140D02*
X5273Y36000D01*
X8518Y14462D02*
Y15618D01*
X35175Y41400D02*
X37475D01*
X17375Y43825D02*
X32750D01*
X35175Y41400D01*
X17000Y43450D02*
X17375Y43825D01*
X34875Y24975D02*
X39025D01*
X31370Y28480D02*
X34875Y24975D01*
X13763Y39768D02*
X15632D01*
X15450Y35450D02*
X15525Y35375D01*
X6000Y33800D02*
X6025D01*
X35900Y40550D02*
X36405Y40045D01*
X25875Y42950D02*
X32450D01*
X45162Y43537D02*
X45187Y44416D01*
X36405Y40045D02*
X36600Y39850D01*
X18075Y42150D02*
X18475Y42550D01*
X14279Y29046D02*
X17864D01*
X14250Y29075D02*
X14279Y29046D01*
X34850Y40550D02*
X35900D01*
X32450Y42950D02*
X34850Y40550D01*
X38400Y39850D02*
X41550Y43000D01*
X36600Y39850D02*
X38400D01*
X38725Y39000D02*
X41425Y41700D01*
X34625Y39600D02*
X35625D01*
X41425Y41700D02*
X42250D01*
X35625Y39600D02*
X36225Y39000D01*
X17925Y38531D02*
X21258Y35198D01*
X36225Y39000D02*
X38725D01*
X26575Y41950D02*
X32275D01*
X34625Y39600D01*
X27410Y36329D02*
X30531Y39450D01*
X30650D01*
Y37306D02*
Y37550D01*
X33700Y38400D02*
X35000D01*
X32800Y38500D02*
X33600D01*
X33700Y38400D01*
X48325Y19475D02*
X48725D01*
X47825Y19950D02*
X47850D01*
X48325Y19475D01*
X47855Y13055D02*
Y14900D01*
X47600Y12575D02*
Y12800D01*
Y12575D02*
X47613Y12562D01*
Y10418D02*
Y12562D01*
X47600Y12800D02*
X47855Y13055D01*
X41450Y6300D02*
Y8875D01*
X26650Y21050D02*
X28400Y22800D01*
X22525Y18029D02*
Y20525D01*
X27410Y24521D02*
X28400Y23531D01*
X22525Y20525D02*
X23050Y21050D01*
X22525Y18029D02*
X23932Y16622D01*
X23050Y21050D02*
X26650D01*
X17257Y13088D02*
Y19382D01*
X21626Y22625D02*
X22955Y23955D01*
X20500Y22625D02*
X21626D01*
X20210Y23325D02*
X21194D01*
X16557Y19672D02*
X20210Y23325D01*
X16557Y18687D02*
Y19672D01*
X21194Y23325D02*
X22390Y24521D01*
X14657Y16787D02*
X16557Y18687D01*
X17257Y19382D02*
X20500Y22625D01*
X18700Y16000D02*
Y19750D01*
X24765Y21875D02*
X26279Y23389D01*
X40825Y5675D02*
X41450Y6300D01*
X21775Y5675D02*
X40825D01*
X21100Y6350D02*
X21775Y5675D01*
X21150Y6350D02*
Y8200D01*
X19650Y9650D02*
X21100Y8200D01*
X19650Y9650D02*
Y15050D01*
X18700Y16000D02*
X19650Y15050D01*
X18700Y19750D02*
X20825Y21875D01*
X24765D01*
X27350Y45825D02*
X35275D01*
X38000Y23550D02*
X40250D01*
X35275Y45825D02*
X35500Y45600D01*
X30804Y27915D02*
X34794Y23925D01*
X25175Y25600D02*
X26820Y23955D01*
X26845D01*
X28100Y33625D02*
X29107Y34632D01*
X28100Y32650D02*
Y33625D01*
X35487Y17682D02*
X36544Y16625D01*
X29412Y16738D02*
Y19482D01*
X34006Y16200D02*
X35487Y17682D01*
X29412Y16738D02*
X29950Y16200D01*
X29950Y16200D02*
X34006D01*
X41062Y17512D02*
Y18182D01*
X40175Y16625D02*
X41062Y17512D01*
X36544Y16625D02*
X40175D01*
X44501Y37293D02*
X44512Y37282D01*
X44451Y33993D02*
X44462Y33982D01*
X41250Y33993D02*
X41268Y33975D01*
X40688Y33993D02*
X44451D01*
X14800Y7100D02*
Y10200D01*
X14825Y10225D01*
X17340Y7100D02*
Y10165D01*
X11575Y14444D02*
X11582Y14438D01*
X11493Y22699D02*
X11575Y22617D01*
X40688Y37293D02*
X44501D01*
X5168Y10282D02*
X7180Y8270D01*
X5168Y10282D02*
Y11662D01*
X7180Y7100D02*
Y8270D01*
X6850Y10600D02*
X9720Y7730D01*
X6850Y10600D02*
Y17194D01*
X9720Y7100D02*
Y7730D01*
X8518Y10807D02*
X12225Y7100D01*
X8518Y10807D02*
Y11662D01*
X12225Y7100D02*
X12260D01*
X4388Y18787D02*
X5168Y18007D01*
X7068Y20312D02*
Y21493D01*
X4405Y26614D02*
Y29428D01*
X7068Y21493D02*
X7175Y21600D01*
X4388Y29445D02*
X4405Y29428D01*
X4388Y29445D02*
X7145D01*
X7225Y37450D02*
X14075D01*
X14125Y37500D01*
X8800Y36375D02*
X14825D01*
X6025Y33800D02*
X7050Y34825D01*
X9025D01*
X9650Y35450D01*
X15450D01*
X14657Y13088D02*
Y16787D01*
X11493Y22699D02*
Y25962D01*
X15912D01*
X18430Y28480D01*
X11575Y20494D02*
X18996Y27915D01*
X11575Y14444D02*
Y20494D01*
X5273Y36000D02*
X8425D01*
X15632Y39768D02*
X16400Y39000D01*
X14293Y42518D02*
X15650Y43875D01*
X13738Y42518D02*
X14293D01*
X31370Y32370D02*
X33026Y34025D01*
X37825D01*
X30804Y32935D02*
X35163Y37293D01*
X37888D01*
X44487Y28182D02*
Y31082D01*
X35143Y12637D02*
Y14068D01*
X35013Y22575D02*
X36400D01*
X35143Y14068D02*
X35150Y14075D01*
X36450Y31175D02*
X36543Y31082D01*
X44487D01*
X37625Y23925D02*
X38000Y23550D01*
X30040Y7100D02*
Y9566D01*
X29743Y9862D02*
X30040Y9566D01*
X32580Y7100D02*
Y9776D01*
X32518Y9837D02*
X32580Y9776D01*
X35120Y7100D02*
Y9814D01*
X35143Y9837D01*
X38019Y21275D02*
X38287Y21007D01*
X38262Y20982D02*
X38287Y21007D01*
X32518Y12637D02*
Y13793D01*
X32525Y13800D01*
X38262Y18182D02*
Y20982D01*
X35181Y21275D02*
X38019D01*
X33925Y20850D02*
X34250Y20525D01*
X33925Y20850D02*
Y21400D01*
X38262Y15357D02*
X38357Y15262D01*
X38194Y15425D02*
X38262Y15357D01*
X31363Y15425D02*
X38194D01*
X29743Y12662D02*
Y13768D01*
X29725Y13787D02*
X29743Y13768D01*
X29725Y13787D02*
X31363Y15425D01*
X38357Y12638D02*
Y15262D01*
X34250Y19850D02*
Y20525D01*
X34794Y23925D02*
X37625D01*
X30239Y27349D02*
X35013Y22575D01*
X29673Y26783D02*
X35181Y21275D01*
X29107Y26218D02*
X33925Y21400D01*
X12588Y29388D02*
X13575Y30375D01*
X16435D01*
X12258Y29388D02*
X12588D01*
X16435Y30375D02*
X17864Y31804D01*
X15438Y32363D02*
X16275Y33200D01*
X17600D01*
X12258Y32363D02*
X15438D01*
X17600Y33200D02*
X18430Y32370D01*
X28542Y25652D02*
X32687Y21506D01*
X35438Y28562D02*
X41568D01*
X34975Y29025D02*
X35438Y28562D01*
X32687Y17682D02*
Y21506D01*
X23932Y16622D02*
X26613D01*
X26643Y16653D01*
X29275Y22144D02*
Y23787D01*
X27976Y25086D02*
X29275Y23787D01*
X26574Y19443D02*
X29275Y22144D01*
X28400Y22800D02*
Y23531D01*
X22122Y12668D02*
X23932Y14478D01*
Y16622D01*
X24960Y7100D02*
X25243Y7383D01*
Y9837D01*
X22122Y7398D02*
Y9868D01*
Y7398D02*
X22420Y7100D01*
X25243Y12637D02*
X25700Y13094D01*
Y14075D01*
X25125Y19443D02*
Y19475D01*
X23963Y19443D02*
X26574D01*
X17925Y39825D02*
X19675Y41575D01*
X17925Y38531D02*
Y39825D01*
X26200Y41575D02*
X26575Y41950D01*
X19675Y41575D02*
X26200D01*
X25475Y42550D02*
X25875Y42950D01*
X18475Y42550D02*
X25475D01*
X21258Y25652D02*
X22500Y26894D01*
Y27975D01*
X21824Y25086D02*
X23700Y26962D01*
Y27025D01*
X22275Y45575D02*
X27100D01*
X22025Y45825D02*
X22275Y45575D01*
X27100D02*
X27350Y45825D01*
X14325D02*
X22025D01*
X41568Y25762D02*
X41999Y25332D01*
X4430Y32309D02*
Y35123D01*
X4413Y35140D02*
X4430Y35123D01*
X44625Y43000D02*
X45162Y43537D01*
X41550Y43000D02*
X44625D01*
X41999Y25332D02*
X44462D01*
X26600Y33350D02*
X26694D01*
X30650Y37306D01*
X4388Y18787D02*
Y23775D01*
Y22325D02*
X4475D01*
X4388Y23775D02*
X4405Y23758D01*
X5168Y14462D02*
Y18007D01*
X44462Y23362D02*
Y25332D01*
D26*
X4189Y39433D02*
D03*
D27*
X1689D02*
D03*
D28*
X2800Y52200D02*
D03*
Y57200D02*
D03*
Y62200D02*
D03*
D29*
X6525Y62175D02*
D03*
Y57175D02*
D03*
X9500Y62225D02*
D03*
Y57225D02*
D03*
X26300Y63250D02*
D03*
X47500Y41225D02*
D03*
D30*
X45280Y7100D02*
D03*
X42740D02*
D03*
X47820D02*
D03*
X40200D02*
D03*
X37660D02*
D03*
X32580D02*
D03*
X30040D02*
D03*
X27500D02*
D03*
X24960D02*
D03*
X22420D02*
D03*
X19880D02*
D03*
X17340D02*
D03*
X14800D02*
D03*
X12260D02*
D03*
X9720D02*
D03*
X7180D02*
D03*
X4640D02*
D03*
X35120D02*
D03*
X47727Y44416D02*
D03*
X45187D02*
D03*
X42647D02*
D03*
X11575Y22617D02*
D03*
Y17617D02*
D03*
X22910Y39937D02*
D03*
D31*
X2100Y7100D02*
D03*
X37567Y44416D02*
D03*
X20370Y39937D02*
D03*
D32*
X9758Y32363D02*
D03*
Y29388D02*
D03*
D33*
X12258Y32363D02*
D03*
Y29388D02*
D03*
D34*
X33300Y50575D02*
D03*
X47450Y22800D02*
D03*
X9900Y23625D02*
D03*
X13800Y33950D02*
D03*
X21300Y51775D02*
D03*
X43300Y53125D02*
D03*
X40925Y45600D02*
D03*
X42100Y39575D02*
D03*
X41268Y33975D02*
D03*
X24750Y46725D02*
D03*
X21500Y14600D02*
D03*
X40500Y50575D02*
D03*
X1675Y46900D02*
D03*
X2000Y42100D02*
D03*
X13450Y27400D02*
D03*
X43625Y47700D02*
D03*
X44450Y23350D02*
D03*
X37475Y41400D02*
D03*
X38525Y42550D02*
D03*
X7525Y40000D02*
D03*
X7500Y44250D02*
D03*
X1975Y37300D02*
D03*
X13700Y24575D02*
D03*
X13250Y19500D02*
D03*
X2100Y15000D02*
D03*
X2200Y10025D02*
D03*
X12200Y9575D02*
D03*
X40850Y12100D02*
D03*
X16050Y15050D02*
D03*
X30575Y21500D02*
D03*
X36125Y35700D02*
D03*
X6150Y46225D02*
D03*
X26600Y33350D02*
D03*
X23700Y27025D02*
D03*
X22500Y27975D02*
D03*
X25125Y19475D02*
D03*
X25700Y14075D02*
D03*
X14250Y29075D02*
D03*
X32687Y20250D02*
D03*
X34975Y29025D02*
D03*
X34250Y19850D02*
D03*
X29725Y13787D02*
D03*
X35275Y21275D02*
D03*
X32525Y13800D02*
D03*
X40250Y23550D02*
D03*
X36400Y22575D02*
D03*
X35150Y14075D02*
D03*
X36450Y31175D02*
D03*
X42250Y41700D02*
D03*
X18075Y42150D02*
D03*
X16400Y39000D02*
D03*
X39025Y24975D02*
D03*
X17000Y43450D02*
D03*
X15525Y35375D02*
D03*
X6000Y33800D02*
D03*
X6050Y24125D02*
D03*
X38800Y27300D02*
D03*
X15650Y44575D02*
D03*
X15900Y37450D02*
D03*
X8450Y36025D02*
D03*
X9125Y16225D02*
D03*
X7145Y29445D02*
D03*
X14325Y45825D02*
D03*
X14125Y37500D02*
D03*
X7225Y37450D02*
D03*
X7175Y21950D02*
D03*
X42550Y37293D02*
D03*
X26279Y39196D02*
D03*
X35500Y45600D02*
D03*
X41450Y8875D02*
D03*
X18700Y17200D02*
D03*
X47600Y12575D02*
D03*
X48725Y19475D02*
D03*
X47275Y58875D02*
D03*
X37285Y58800D02*
D03*
X13790Y60110D02*
D03*
X29110Y61760D02*
D03*
X22125Y61400D02*
D03*
X19425Y58875D02*
D03*
X15050Y61175D02*
D03*
X35000Y38400D02*
D03*
X29900Y40800D02*
D03*
X32625Y36425D02*
D03*
X25625Y52275D02*
D03*
X27475Y53525D02*
D03*
X28100Y39125D02*
D03*
X13675Y55200D02*
D03*
D35*
X46100Y20625D02*
D03*
X19100Y47050D02*
D03*
M02*
