%FSLAX43Y43*%
%MOMM*%
G71*
G01*
G75*
G04 Layer_Physical_Order=2*
%ADD10C,0.300*%
%ADD11O,2.000X1.000*%
%ADD12R,2.000X1.000*%
%ADD13R,1.800X1.600*%
%ADD14R,1.600X1.800*%
%ADD15R,0.600X2.150*%
%ADD16R,0.600X2.150*%
%ADD17R,1.450X0.550*%
%ADD18R,1.450X0.550*%
%ADD19R,0.600X2.200*%
%ADD20R,0.600X2.200*%
%ADD21R,0.600X1.700*%
%ADD22R,0.600X1.700*%
%ADD23C,0.125*%
%ADD24C,0.500*%
%ADD25C,0.400*%
%ADD26R,1.400X1.400*%
%ADD27C,1.400*%
%ADD28C,4.000*%
%ADD29C,2.000*%
%ADD30C,1.500*%
%ADD31R,1.500X1.500*%
%ADD32R,1.300X1.300*%
%ADD33C,1.300*%
%ADD34C,1.200*%
%ADD35C,1.270*%
%ADD36R,0.850X1.300*%
%ADD37C,0.600*%
D10*
X43888Y51084D02*
G03*
X43631Y50907I344J-777D01*
G01*
X43888Y51084D02*
G03*
X43631Y50907I344J-777D01*
G01*
X49127Y44416D02*
G03*
X46457Y45005I-1400J0D01*
G01*
Y43826D02*
G03*
X49127Y44416I1270J589D01*
G01*
X46457Y45005D02*
G03*
X46037Y45528I-1270J-589D01*
G01*
X43024Y50301D02*
G03*
X42775Y49700I601J-601D01*
G01*
X43024Y50301D02*
G03*
X42775Y49700I601J-601D01*
G01*
Y48617D02*
G03*
X43050Y46590I850J-917D01*
G01*
Y45756D02*
G03*
X41785Y43312I-403J-1341D01*
G01*
X49150Y41225D02*
G03*
X49150Y41225I-1650J0D01*
G01*
X44750Y43086D02*
G03*
X46457Y43826I437J1330D01*
G01*
X44950Y41775D02*
G03*
X44750Y42323I-850J0D01*
G01*
X44950Y41775D02*
G03*
X44750Y42323I-850J0D01*
G01*
X41781Y42858D02*
G03*
X43250Y40950I469J-1158D01*
G01*
Y38329D02*
G03*
X41975Y36184I-700J-1036D01*
G01*
X38951Y46801D02*
G03*
X38350Y47050I-601J-601D01*
G01*
X38951Y46801D02*
G03*
X38350Y47050I-601J-601D01*
G01*
X36075D02*
G03*
X35527Y46850I0J-850D01*
G01*
X36075Y47050D02*
G03*
X35527Y46850I0J-850D01*
G01*
G03*
X36167Y44543I-27J-1250D01*
G01*
X24400Y52025D02*
G03*
X25429Y51040I1225J250D01*
G01*
Y47775D02*
G03*
X23700Y46047I-679J-1050D01*
G01*
X40575Y44825D02*
G03*
X40326Y45426I-850J0D01*
G01*
X40575Y44825D02*
G03*
X40326Y45426I-850J0D01*
G01*
X37365Y43016D02*
G03*
X37278Y42634I1160J-466D01*
G01*
G03*
X36850Y40317I197J-1234D01*
G01*
X33875Y36425D02*
G03*
X32695Y37673I-1250J0D01*
G01*
X32680Y35176D02*
G03*
X33875Y36425I-56J1249D01*
G01*
X31150Y40800D02*
G03*
X28846Y40128I-1250J0D01*
G01*
X30850Y39988D02*
G03*
X31150Y40800I-950J812D01*
G01*
X23700Y41093D02*
G03*
X21770Y40750I-790J-1156D01*
G01*
X28846Y40128D02*
G03*
X28325Y40355I-746J-1003D01*
G01*
X45300Y22433D02*
G03*
X45700Y23350I-850J917D01*
G01*
X49200Y20631D02*
G03*
X47783Y20297I-475J-1156D01*
G01*
G03*
X47399Y20076I217J-822D01*
G01*
X47783Y20297D02*
G03*
X47399Y20076I217J-822D01*
G01*
X41975Y35006D02*
G03*
X40575Y35015I-707J-1031D01*
G01*
X45700Y23350D02*
G03*
X44950Y24496I-1250J0D01*
G01*
X43430Y22628D02*
G03*
X43600Y22433I1020J722D01*
G01*
X40950Y20500D02*
G03*
X41551Y20749I0J850D01*
G01*
X40950Y20500D02*
G03*
X41551Y20749I0J850D01*
G01*
X47273Y9523D02*
G03*
X47874Y9772I0J850D01*
G01*
X47273Y9523D02*
G03*
X47874Y9772I0J850D01*
G01*
X46999Y19676D02*
G03*
X46765Y19232I601J-601D01*
G01*
X46999Y19676D02*
G03*
X46765Y19232I601J-601D01*
G01*
X49200Y7336D02*
G03*
X46550Y7689I-1380J-236D01*
G01*
X48340Y5800D02*
G03*
X49200Y6864I-520J1300D01*
G01*
X43093Y15543D02*
G03*
X42492Y15294I0J-850D01*
G01*
X43093Y15543D02*
G03*
X42492Y15294I0J-850D01*
G01*
X46550Y7689D02*
G03*
X44010Y7689I-1270J-589D01*
G01*
G03*
X42641Y8497I-1270J-589D01*
G01*
X41574Y14376D02*
G03*
X41325Y13775I601J-601D01*
G01*
X41574Y14376D02*
G03*
X41325Y13775I601J-601D01*
G01*
X42700Y8875D02*
G03*
X42684Y9073I-1250J0D01*
G01*
X42641Y8497D02*
G03*
X42700Y8875I-1191J378D01*
G01*
X36850Y32359D02*
G03*
X35600Y30258I-400J-1184D01*
G01*
Y30108D02*
G03*
X34950Y30275I-625J-1083D01*
G01*
Y31292D02*
G03*
X34716Y31858I-800J0D01*
G01*
X34950Y31292D02*
G03*
X34716Y31858I-800J0D01*
G01*
X32029Y22031D02*
G03*
X31780Y21430I601J-601D01*
G01*
X32029Y22031D02*
G03*
X31780Y21430I601J-601D01*
G01*
Y21110D02*
G03*
X31772Y19399I907J-860D01*
G01*
X27800Y20925D02*
G03*
X28366Y21159I0J800D01*
G01*
X27800Y20925D02*
G03*
X28367Y21160I0J800D01*
G01*
X22109Y21159D02*
G03*
X22675Y20925I566J566D01*
G01*
X22108Y21160D02*
G03*
X22675Y20925I567J565D01*
G01*
X40849Y10075D02*
G03*
X40701Y9875I601J-601D01*
G01*
X40849Y10075D02*
G03*
X40701Y9875I601J-601D01*
G01*
G03*
X40258Y8499I749J-1000D01*
G01*
G03*
X40014Y8488I-58J-1399D01*
G01*
X26650Y8212D02*
G03*
X26230Y7689I850J-1112D01*
G01*
X25975Y18558D02*
G03*
X26375Y19475I-850J917D01*
G01*
G03*
X24275Y18558I-1250J0D01*
G01*
X26875Y14501D02*
G03*
X25975Y15294I-1175J-426D01*
G01*
X24275Y14650D02*
G03*
X24451Y14132I850J0D01*
G01*
G03*
X26650Y13263I1249J-57D01*
G01*
X24275Y14650D02*
G03*
X24451Y14132I850J0D01*
G01*
X26230Y7689D02*
G03*
X23690Y7689I-1270J-589D01*
G01*
G03*
X21150Y7689I-1270J-589D01*
G01*
X18022Y47750D02*
G03*
X19768Y45953I1078J-700D01*
G01*
X16894Y44696D02*
G03*
X15575Y45823I-1244J-121D01*
G01*
X18250Y43450D02*
G03*
X16894Y44696I-1250J0D01*
G01*
X19325Y42150D02*
G03*
X18248Y43388I-1250J0D01*
G01*
X19024Y41337D02*
G03*
X19325Y42150I-949J813D01*
G01*
X15575Y45825D02*
G03*
X13275Y45147I-1250J0D01*
G01*
Y38417D02*
G03*
X14988Y36595I850J-917D01*
G01*
X15052Y36532D02*
G03*
X14975Y34252I473J-1157D01*
G01*
X13504Y32733D02*
G03*
X11058Y32863I-1246J-370D01*
G01*
X13649Y32926D02*
G03*
X13504Y32733I601J-601D01*
G01*
X13649Y32926D02*
G03*
X13504Y32733I601J-601D01*
G01*
X11058Y31863D02*
G03*
X13400Y31742I1200J500D01*
G01*
X13164Y28456D02*
G03*
X15105Y28164I1086J619D01*
G01*
X13400Y30009D02*
G03*
X11058Y29888I-1142J-621D01*
G01*
Y28888D02*
G03*
X13164Y28456I1200J500D01*
G01*
X9700Y36025D02*
G03*
X8463Y37275I-1250J0D01*
G01*
X9275Y35086D02*
G03*
X9700Y36025I-825J939D01*
G01*
X6189Y44976D02*
G03*
X7400Y46225I-39J1249D01*
G01*
G03*
X4910Y46380I-1250J0D01*
G01*
X3550Y45142D02*
G03*
X3239Y44439I639J-703D01*
G01*
X3549Y45141D02*
G03*
X3239Y44439I640J-702D01*
G01*
X8463Y37275D02*
G03*
X8475Y37450I-1238J175D01*
G01*
G03*
X6325Y36583I-1250J0D01*
G01*
X2839Y40140D02*
G03*
X800Y40450I-1150J-707D01*
G01*
Y38417D02*
G03*
X2839Y38726I889J1016D01*
G01*
X6325Y35007D02*
G03*
X5162Y32872I-325J-1207D01*
G01*
X4860Y35542D02*
G03*
X5139Y36214I-672J672D01*
G01*
X4860Y35542D02*
G03*
X5139Y36214I-672J672D01*
G01*
X2178Y35547D02*
G03*
X1900Y34875I672J-672D01*
G01*
X2178Y35547D02*
G03*
X1900Y34875I672J-672D01*
G01*
X19950Y17200D02*
G03*
X18963Y18422I-1250J0D01*
G01*
X12975Y22617D02*
G03*
X12975Y22617I-1400J0D01*
G01*
Y17617D02*
G03*
X12975Y17617I-1400J0D01*
G01*
X18963Y15978D02*
G03*
X19950Y17200I-263J1222D01*
G01*
X21150Y7689D02*
G03*
X18610Y7689I-1270J-589D01*
G01*
G03*
X16070Y7689I-1270J-589D01*
G01*
G03*
X13530Y7689I-1270J-589D01*
G01*
G03*
X10990Y7689I-1270J-589D01*
G01*
G03*
X8450Y7689I-1270J-589D01*
G01*
X9975Y21775D02*
G03*
X9726Y22376I-850J0D01*
G01*
X9975Y21775D02*
G03*
X9726Y22376I-850J0D01*
G01*
X5162Y25005D02*
G03*
X6325Y22906I888J-880D01*
G01*
Y22867D02*
G03*
X8275Y21356I850J-917D01*
G01*
X10375Y16225D02*
G03*
X9975Y17142I-1250J0D01*
G01*
X4375Y18125D02*
G03*
X4097Y18797I-950J0D01*
G01*
X4375Y18125D02*
G03*
X4097Y18797I-950J0D01*
G01*
X8275Y17142D02*
G03*
X10375Y16225I850J-917D01*
G01*
X5590Y9435D02*
G03*
X5312Y10107I-950J0D01*
G01*
X5590Y9435D02*
G03*
X5312Y10107I-950J0D01*
G01*
X8450Y7689D02*
G03*
X5910Y7689I-1270J-589D01*
G01*
X5910D02*
G03*
X5590Y8128I-1270J-589D01*
G01*
X1900Y18700D02*
G03*
X2178Y18028I950J0D01*
G01*
X1900Y18700D02*
G03*
X2178Y18028I950J0D01*
G01*
X2475Y10650D02*
G03*
X2753Y9978I950J0D01*
G01*
X2475Y10650D02*
G03*
X2753Y9978I950J0D01*
G01*
X3690Y8128D02*
G03*
X3500Y7913I950J-1028D01*
G01*
X34150Y29964D02*
G03*
X34125Y28108I825J-939D01*
G01*
X27156Y38306D02*
G03*
X28698Y38027I944J819D01*
G01*
X25031Y39275D02*
G03*
X27156Y38306I1247J-79D01*
G01*
X22068Y38818D02*
G03*
X24143Y39275I841J1119D01*
G01*
X49200Y51932D02*
Y54075D01*
X49200Y51932D02*
Y54075D01*
X49100Y51932D02*
Y54075D01*
X49000Y51932D02*
Y54075D01*
X48900Y51932D02*
Y54075D01*
X48800Y51932D02*
Y54075D01*
X48700Y51932D02*
Y54075D01*
X48600Y51932D02*
Y54075D01*
X48500Y51932D02*
Y54075D01*
X48400Y51932D02*
Y54075D01*
X48300Y51932D02*
Y54075D01*
X48200Y51932D02*
Y54075D01*
X48100Y51932D02*
Y54075D01*
X48000Y51932D02*
Y54075D01*
X47900Y51932D02*
Y54075D01*
X47800Y51932D02*
Y54075D01*
X47700Y51932D02*
Y54075D01*
X47600Y51932D02*
Y54075D01*
X47500Y51932D02*
Y54075D01*
X47400Y51932D02*
Y54075D01*
X47300Y51932D02*
Y54075D01*
X47200Y51932D02*
Y54075D01*
X47100Y51932D02*
Y54075D01*
X47000Y51932D02*
Y54075D01*
X46900Y51932D02*
Y54075D01*
X46688Y51932D02*
X49200D01*
X46800D02*
Y54075D01*
X46700Y51932D02*
Y54075D01*
X43888Y51932D02*
X46688D01*
X46812Y46243D02*
X49200D01*
X46600Y51932D02*
Y54075D01*
X46500Y51932D02*
Y54075D01*
X46400Y51932D02*
Y54075D01*
X46300Y51932D02*
Y54075D01*
X46200Y51932D02*
Y54075D01*
X46100Y51932D02*
Y54075D01*
X46000Y51932D02*
Y54075D01*
X45900Y51932D02*
Y54075D01*
X45800Y51932D02*
Y54075D01*
X45700Y51932D02*
Y54075D01*
X45600Y51932D02*
Y54075D01*
X45500Y51932D02*
Y54075D01*
X45400Y51932D02*
Y54075D01*
X45300Y51932D02*
Y54075D01*
X45200Y51932D02*
Y54075D01*
X45100Y51932D02*
Y54075D01*
X45000Y51932D02*
Y54075D01*
X44900Y51932D02*
Y54075D01*
X44800Y51932D02*
Y54075D01*
X44700Y51932D02*
Y54075D01*
X44600Y51932D02*
Y54075D01*
X44500Y51932D02*
Y54075D01*
X44400Y51932D02*
Y54075D01*
X44300Y51932D02*
Y54075D01*
X44200Y51932D02*
Y54075D01*
X44100Y51932D02*
Y54075D01*
X44000Y51932D02*
Y54075D01*
X43900Y51932D02*
Y54075D01*
X43800Y51039D02*
Y54075D01*
X43888Y51084D02*
Y51932D01*
X43700Y50970D02*
Y54075D01*
X43600Y50877D02*
Y54075D01*
X48700Y45423D02*
Y46243D01*
X48600Y45510D02*
Y46243D01*
X48500Y45583D02*
Y46243D01*
X48400Y45643D02*
Y46243D01*
X48300Y45693D02*
Y46243D01*
X49100Y44691D02*
Y46243D01*
X49000Y44999D02*
Y46243D01*
X48900Y45180D02*
Y46243D01*
X48800Y45315D02*
Y46243D01*
X46037Y46200D02*
X49200D01*
X46037Y46100D02*
X49200D01*
X46037Y46000D02*
X49200D01*
X46037Y45900D02*
X49200D01*
X47937Y45800D02*
X49200D01*
X48200Y45733D02*
Y46243D01*
X48100Y45765D02*
Y46243D01*
X48887Y45200D02*
X49200D01*
X48999Y45000D02*
X49200D01*
X49041Y44900D02*
X49200D01*
X49073Y44800D02*
X49200D01*
X49098Y44700D02*
X49200D01*
X49091Y44100D02*
X49200D01*
X49100Y41628D02*
Y44140D01*
X49064Y44000D02*
X49200D01*
X48285Y45700D02*
X49200D01*
X48474Y45600D02*
X49200D01*
X48613Y45500D02*
X49200D01*
X48723Y45400D02*
X49200D01*
X48813Y45300D02*
X49200D01*
X48949Y45100D02*
X49200D01*
X48000Y45789D02*
Y46243D01*
X47800Y45814D02*
Y46243D01*
X47700Y45815D02*
Y46243D01*
X47600Y45810D02*
Y46243D01*
X47900Y45805D02*
Y46243D01*
X47500Y45797D02*
Y46243D01*
X47400Y45777D02*
Y46243D01*
X47300Y45749D02*
Y46243D01*
X47200Y45712D02*
Y46243D01*
X47100Y45667D02*
Y46243D01*
X47000Y45612D02*
Y46243D01*
X46037Y46243D02*
X46812D01*
X46900Y45545D02*
Y46243D01*
X46800Y45464D02*
Y46243D01*
X46700Y45367D02*
Y46243D01*
X46600Y45246D02*
Y46243D01*
X46273Y45300D02*
X46642D01*
X46347Y45200D02*
X46567D01*
X46300Y45265D02*
Y46243D01*
X46200Y45382D02*
Y46243D01*
X46500Y45089D02*
Y46243D01*
X46400Y45115D02*
Y46243D01*
X46037Y45800D02*
X47518D01*
X46037Y45700D02*
X47170D01*
X46100Y45477D02*
Y46243D01*
X46037Y45600D02*
X46980D01*
X46073Y45500D02*
X46842D01*
X46183Y45400D02*
X46732D01*
X46037Y45528D02*
Y46243D01*
X43025Y54075D02*
X49200D01*
X42950Y54000D02*
X49200D01*
X42850Y53900D02*
X49200D01*
X42750Y53800D02*
X49200D01*
X42650Y53700D02*
X49200D01*
X42550Y53600D02*
X49200D01*
X42450Y53500D02*
X49200D01*
X42350Y53400D02*
X49200D01*
X42250Y53300D02*
X49200D01*
X42150Y53200D02*
X49200D01*
X42050Y53100D02*
X49200D01*
X41950Y53000D02*
X49200D01*
X41850Y52900D02*
X49200D01*
X41750Y52800D02*
X49200D01*
X41650Y52700D02*
X49200D01*
X41550Y52600D02*
X49200D01*
X41450Y52500D02*
X49200D01*
X41350Y52400D02*
X49200D01*
X41250Y52300D02*
X49200D01*
X41150Y52200D02*
X49200D01*
X41050Y52100D02*
X49200D01*
X28325Y52000D02*
X49200D01*
X28325Y51900D02*
X43888D01*
X28325Y51800D02*
X43888D01*
X28325Y51700D02*
X43888D01*
X28325Y51600D02*
X43888D01*
X28325Y51500D02*
X43888D01*
X28325Y51400D02*
X43888D01*
X28325Y51300D02*
X43888D01*
X28325Y51200D02*
X43888D01*
X28325Y51100D02*
X43888D01*
X28325Y51000D02*
X43740D01*
X28325Y50900D02*
X43623D01*
X43500Y50777D02*
Y54075D01*
X43400Y50677D02*
Y54075D01*
X43300Y50577D02*
Y54075D01*
X43200Y50477D02*
Y54075D01*
X43100Y50377D02*
Y54075D01*
X43024Y50301D02*
X43631Y50907D01*
X43000Y50276D02*
Y54050D01*
X42900Y50143D02*
Y53950D01*
X28325Y50800D02*
X43523D01*
X28325Y50700D02*
X43423D01*
X40975Y52025D02*
X43025Y54075D01*
X28325Y50600D02*
X43323D01*
X28325Y50500D02*
X43223D01*
X28325Y50400D02*
X43123D01*
X42800Y49904D02*
Y53850D01*
X28325Y50300D02*
X43023D01*
X28325Y50200D02*
X42938D01*
X28325Y50100D02*
X42875D01*
X28325Y50000D02*
X42830D01*
X28325Y49900D02*
X42799D01*
X28325Y49800D02*
X42781D01*
X28325Y49700D02*
X42775D01*
X28325Y49600D02*
X42775D01*
X28325Y49500D02*
X42775D01*
X28325Y49400D02*
X42775D01*
X28325Y49300D02*
X42775D01*
X28325Y49200D02*
X42775D01*
X28325Y49100D02*
X42775D01*
X28325Y49000D02*
X42775D01*
X28325Y48900D02*
X42775D01*
X42700Y48541D02*
Y53750D01*
X42600Y48415D02*
Y53650D01*
X42775Y48617D02*
Y49700D01*
X42500Y48245D02*
Y53550D01*
X38637Y47000D02*
X42589D01*
X42700Y45815D02*
Y46859D01*
X42600Y45815D02*
Y46985D01*
X38832Y46900D02*
X42665D01*
X28325Y48800D02*
X42775D01*
X28325Y48700D02*
X42775D01*
X28325Y48600D02*
X42757D01*
X28325Y48500D02*
X42664D01*
X28325Y48400D02*
X42589D01*
X28325Y48300D02*
X42528D01*
X28325Y48200D02*
X42479D01*
X28325Y47100D02*
X42528D01*
X39752Y46000D02*
X43050D01*
X39852Y45900D02*
X43050D01*
X42800Y45807D02*
Y46761D01*
X43050Y45756D02*
Y46590D01*
X42857Y45800D02*
X43050D01*
X42900Y45793D02*
Y46682D01*
X43000Y45770D02*
Y46618D01*
X39152Y46600D02*
X43032D01*
X39252Y46500D02*
X43050D01*
X38952Y46800D02*
X42758D01*
X39052Y46700D02*
X42875D01*
X39352Y46400D02*
X43050D01*
X39452Y46300D02*
X43050D01*
X39552Y46200D02*
X43050D01*
X39652Y46100D02*
X43050D01*
X42400Y47948D02*
Y53450D01*
X42300Y45772D02*
Y53350D01*
X42200Y45742D02*
Y53250D01*
X42100Y45704D02*
Y53150D01*
X42000Y45657D02*
Y53050D01*
X41900Y45599D02*
Y52950D01*
X41800Y45530D02*
Y52850D01*
X41700Y45446D02*
Y52750D01*
X28325Y48100D02*
X42441D01*
X28325Y48000D02*
X42411D01*
X28325Y47900D02*
X42391D01*
X28325Y47800D02*
X42379D01*
X41600Y45345D02*
Y52650D01*
X28325Y47700D02*
X42375D01*
X41500Y45218D02*
Y52550D01*
X41400Y45051D02*
Y52450D01*
X42400Y45794D02*
Y47452D01*
X42500Y45808D02*
Y47155D01*
X40252Y45500D02*
X41762D01*
X40351Y45400D02*
X41652D01*
X40430Y45300D02*
X41562D01*
X40488Y45200D02*
X41487D01*
X40529Y45100D02*
X41426D01*
X40557Y45000D02*
X41375D01*
X28325Y47600D02*
X42379D01*
X28325Y47300D02*
X42441D01*
X28325Y47500D02*
X42391D01*
X28325Y47400D02*
X42412D01*
X28325Y47200D02*
X42479D01*
X39952Y45800D02*
X42438D01*
X40052Y45700D02*
X42090D01*
X40152Y45600D02*
X41901D01*
X49029Y43900D02*
X49200D01*
X48985Y43800D02*
X49200D01*
X48930Y43700D02*
X49200D01*
X48865Y43600D02*
X49200D01*
X48786Y43500D02*
X49200D01*
X49000Y41912D02*
Y43832D01*
X48691Y43400D02*
X49200D01*
X48900Y42098D02*
Y43651D01*
X48800Y42241D02*
Y43516D01*
X48573Y43300D02*
X49200D01*
X48421Y43200D02*
X49200D01*
X48206Y43100D02*
X49200D01*
X48300Y42668D02*
Y43138D01*
X48700Y42357D02*
Y43409D01*
X48600Y42455D02*
Y43321D01*
X48500Y42537D02*
Y43248D01*
X48400Y42608D02*
Y43188D01*
X48658Y42400D02*
X49200D01*
X48752Y42300D02*
X49200D01*
X48831Y42200D02*
X49200D01*
X48899Y42100D02*
X49200D01*
X48957Y42000D02*
X49200D01*
X49005Y41900D02*
X49200D01*
X49046Y41800D02*
X49200D01*
X49080Y41700D02*
X49200D01*
X48100Y42762D02*
Y43066D01*
X47992Y42800D02*
X49200D01*
X48000Y42797D02*
Y43042D01*
X47900Y42826D02*
Y43026D01*
X48240Y42700D02*
X49200D01*
X48412Y42600D02*
X49200D01*
X48200Y42719D02*
Y43098D01*
X48547Y42500D02*
X49200D01*
X46800Y42719D02*
Y43367D01*
X46900Y42762D02*
Y43286D01*
X46390Y43700D02*
X46524D01*
X46325Y43600D02*
X46589D01*
X46600Y42608D02*
Y43586D01*
X46700Y42668D02*
Y43465D01*
X46500Y42537D02*
Y43742D01*
X46400Y42455D02*
Y43716D01*
X46033Y43300D02*
X46882D01*
X45881Y43200D02*
X47033D01*
X46246Y43500D02*
X46668D01*
X46151Y43400D02*
X46764D01*
X46300Y42358D02*
Y43566D01*
X46200Y42241D02*
Y43449D01*
X46100Y42098D02*
Y43354D01*
X46000Y41912D02*
Y43276D01*
X47800Y42847D02*
Y43017D01*
X47700Y42863D02*
Y43016D01*
X47600Y42872D02*
Y43021D01*
X47500Y42875D02*
Y43034D01*
X47400Y42872D02*
Y43054D01*
X47300Y42863D02*
Y43082D01*
X47200Y42847D02*
Y43119D01*
X47100Y42826D02*
Y43164D01*
X47000Y42797D02*
Y43219D01*
X45666Y43100D02*
X47249D01*
X44900Y42063D02*
Y43045D01*
X44885Y42100D02*
X46101D01*
X44920Y42000D02*
X46043D01*
X44941Y41900D02*
X45994D01*
X44950Y41800D02*
X45953D01*
X44950Y41700D02*
X45920D01*
X49094Y40800D02*
X49200D01*
X49064Y40700D02*
X49200D01*
X49027Y40600D02*
X49200D01*
X48982Y40500D02*
X49200D01*
X48929Y40400D02*
X49200D01*
X48866Y40300D02*
X49200D01*
X48793Y40200D02*
X49200D01*
X48707Y40100D02*
X49200D01*
X48605Y40000D02*
X49200D01*
X48483Y39900D02*
X49200D01*
X48331Y39800D02*
X49200D01*
X48129Y39700D02*
X49200D01*
X47785Y39600D02*
X49200D01*
X44950Y39500D02*
X49200D01*
X44950Y39400D02*
X49200D01*
X44950Y39300D02*
X49200D01*
X44950Y39200D02*
X49200D01*
X44950Y39100D02*
X49200D01*
X44950Y39000D02*
X49200D01*
X44950Y38900D02*
X49200D01*
X44950Y38800D02*
X49200D01*
X44950Y38700D02*
X49200D01*
X44950Y38600D02*
X49200D01*
X44950Y38500D02*
X49200D01*
X44950Y38400D02*
X49200D01*
X44950Y38300D02*
X49200D01*
X44950Y38200D02*
X49200D01*
X44950Y38100D02*
X49200D01*
X44950Y38000D02*
X49200D01*
X44950Y37900D02*
X49200D01*
X44950Y37800D02*
X49200D01*
X44950Y37700D02*
X49200D01*
X44950Y37600D02*
X49200D01*
X45900Y41628D02*
Y43211D01*
X44950Y41600D02*
X45893D01*
X44950Y41500D02*
X45873D01*
X44950Y41400D02*
X45859D01*
X44950Y41300D02*
X45852D01*
X44950Y41200D02*
X45850D01*
X44950Y41100D02*
X45855D01*
X44950Y41000D02*
X45865D01*
X44950Y40700D02*
X45936D01*
X44950Y40900D02*
X45882D01*
X44950Y40800D02*
X45906D01*
X44950Y40500D02*
X46018D01*
X44950Y40300D02*
X46134D01*
X44950Y40600D02*
X45973D01*
X44950Y40400D02*
X46071D01*
X44950Y40000D02*
X46395D01*
X44950Y39900D02*
X46517D01*
X44950Y40200D02*
X46207D01*
X44950Y40100D02*
X46293D01*
X44950Y39600D02*
X47214D01*
X44950Y37500D02*
X49200D01*
X44950Y39800D02*
X46668D01*
X44950Y39700D02*
X46870D01*
X44950Y37400D02*
X49200D01*
X44950Y37300D02*
X49200D01*
X44950Y37200D02*
X49200D01*
X44950Y37100D02*
X49200D01*
X44750Y43000D02*
X49200D01*
X44750Y42900D02*
X49200D01*
X44750Y42800D02*
X47008D01*
X44750Y42700D02*
X46760D01*
X44750Y42600D02*
X46588D01*
X44836Y42200D02*
X46169D01*
X44800Y42257D02*
Y43070D01*
X44750Y42323D02*
Y43086D01*
Y42500D02*
X46452D01*
X44750Y42400D02*
X46341D01*
X44769Y42300D02*
X46248D01*
X43117Y40800D02*
X43250D01*
X43000Y40700D02*
X43250D01*
X42843Y40600D02*
X43250D01*
X42600Y40500D02*
X43250D01*
X40575Y40400D02*
X43250D01*
X40575Y40300D02*
X43250D01*
X40575Y40200D02*
X43250D01*
X40575Y40100D02*
X43250D01*
X40575Y40000D02*
X43250D01*
X40575Y39900D02*
X43250D01*
X40575Y39800D02*
X43250D01*
X40575Y39700D02*
X43250D01*
X40575Y39600D02*
X43250D01*
X40575Y39500D02*
X43250D01*
X40575Y39400D02*
X43250D01*
X40575Y39300D02*
X43250D01*
X40575Y39200D02*
X43250D01*
X40575Y39100D02*
X43250D01*
X40575Y43700D02*
X41444D01*
X41781Y42858D02*
X41785Y43312D01*
X40575Y43900D02*
X41346D01*
X40575Y43800D02*
X41390D01*
X41600Y42768D02*
Y43487D01*
X41700Y42822D02*
Y43385D01*
X41400Y42616D02*
Y43780D01*
X41500Y42700D02*
Y43613D01*
X40575Y43400D02*
X41684D01*
X40575Y43300D02*
X41785D01*
X40575Y43600D02*
X41509D01*
X40575Y43500D02*
X41588D01*
X40575Y43200D02*
X41784D01*
X40575Y43100D02*
X41783D01*
X40575Y43000D02*
X41782D01*
X40575Y42900D02*
X41781D01*
X40575Y42800D02*
X41656D01*
X40575Y42700D02*
X41500D01*
X40575Y42600D02*
X41382D01*
X40575Y40800D02*
X41383D01*
X42900Y38493D02*
Y40632D01*
X42877Y38500D02*
X43250D01*
X42800Y38518D02*
Y40577D01*
X42700Y38534D02*
Y40534D01*
X40575Y40500D02*
X41900D01*
X40575Y39000D02*
X43250D01*
X40575Y40700D02*
X41500D01*
X40575Y40600D02*
X41657D01*
X40575Y38900D02*
X43250D01*
X40575Y38800D02*
X43250D01*
X40575Y38700D02*
X43250D01*
X40575Y38600D02*
X43250D01*
Y38329D02*
Y40950D01*
X43200Y38361D02*
Y40887D01*
X43132Y38400D02*
X43250D01*
X43100Y38416D02*
Y40783D01*
X43000Y38460D02*
Y40700D01*
X44950Y37000D02*
X49200D01*
X44950Y36900D02*
X49200D01*
X44950Y36800D02*
X49200D01*
X44950Y36700D02*
X49200D01*
X42600Y38542D02*
Y40500D01*
X42500Y38542D02*
Y40475D01*
X42400Y38534D02*
Y40459D01*
X42300Y38518D02*
Y40451D01*
X42200Y38493D02*
Y40451D01*
X42100Y38460D02*
Y40459D01*
X40575Y38500D02*
X42223D01*
X44950Y36600D02*
X49200D01*
X44950Y36500D02*
X49200D01*
X44950Y36400D02*
X49200D01*
X44950Y36300D02*
X49200D01*
X44950Y36200D02*
X49200D01*
X44950Y36100D02*
X49200D01*
X44950Y36000D02*
X49200D01*
X44950Y35900D02*
X49200D01*
X44950Y35800D02*
X49200D01*
X44950Y35700D02*
X49200D01*
X44950Y35600D02*
X49200D01*
X44950Y35500D02*
X49200D01*
X44950Y35400D02*
X49200D01*
X44950Y35300D02*
X49200D01*
X44950Y35200D02*
X49200D01*
X44950Y35100D02*
X49200D01*
X42000Y38416D02*
Y40475D01*
X41900Y38361D02*
Y40500D01*
X41800Y38293D02*
Y40534D01*
X41700Y38210D02*
Y40578D01*
X41500Y37971D02*
Y40700D01*
X41600Y38106D02*
Y40632D01*
X41400Y37783D02*
Y40784D01*
X41500Y35203D02*
Y36615D01*
X40575Y38400D02*
X41968D01*
X40575Y38300D02*
X41809D01*
X40575Y38200D02*
X41689D01*
X40575Y38100D02*
X41595D01*
X40575Y38000D02*
X41519D01*
X40575Y36600D02*
X41510D01*
X40575Y37900D02*
X41457D01*
X40575Y36700D02*
X41450D01*
X40575Y36300D02*
X41791D01*
X40575Y36200D02*
X41944D01*
X40575Y36500D02*
X41584D01*
X40575Y36400D02*
X41676D01*
X40575Y36100D02*
X41975D01*
X41518Y35200D02*
X41975D01*
X41600Y35180D02*
Y36481D01*
X41814Y35100D02*
X41975D01*
X40575Y36000D02*
X41975D01*
X40575Y35900D02*
X41975D01*
X40575Y35800D02*
X41975D01*
X40575Y35700D02*
X41975D01*
X40575Y35600D02*
X41975D01*
X40575Y35500D02*
X41975D01*
X40575Y35400D02*
X41975D01*
X40575Y35300D02*
X41975D01*
X39800Y45952D02*
Y52025D01*
X39700Y46052D02*
Y52025D01*
X39600Y46152D02*
Y52025D01*
X39500Y46252D02*
Y52025D01*
X39400Y46352D02*
Y52025D01*
X40200Y45552D02*
Y52025D01*
X40100Y45652D02*
Y52025D01*
X40000Y45752D02*
Y52025D01*
X39900Y45852D02*
Y52025D01*
X38900Y46848D02*
Y52025D01*
X38800Y46921D02*
Y52025D01*
X38700Y46975D02*
Y52025D01*
X38600Y47012D02*
Y52025D01*
X39300Y46452D02*
Y52025D01*
X39200Y46552D02*
Y52025D01*
X39100Y46652D02*
Y52025D01*
X39000Y46752D02*
Y52025D01*
X38500Y47037D02*
Y52025D01*
X38400Y47048D02*
Y52025D01*
X38300Y47050D02*
Y52025D01*
X38200Y47050D02*
Y52025D01*
X38100Y47050D02*
Y52025D01*
X38000Y47050D02*
Y52025D01*
X37900Y47050D02*
Y52025D01*
X37800Y47050D02*
Y52025D01*
X37700Y47050D02*
Y52025D01*
X37600Y47050D02*
Y52025D01*
X37500Y47050D02*
Y52025D01*
X36075Y47050D02*
X38350D01*
X37400D02*
Y52025D01*
X37300Y47050D02*
Y52025D01*
X37200Y47050D02*
Y52025D01*
X37100Y47050D02*
Y52025D01*
X37000Y47050D02*
Y52025D01*
X36900Y47050D02*
Y52025D01*
X36800Y47050D02*
Y52025D01*
X36700Y47050D02*
Y52025D01*
X36600Y47050D02*
Y52025D01*
X36500Y47050D02*
Y52025D01*
X36400Y47050D02*
Y52025D01*
X36300Y47050D02*
Y52025D01*
X36200Y47050D02*
Y52025D01*
X36100Y47050D02*
Y52025D01*
X36000Y47047D02*
Y52025D01*
X35900Y47032D02*
Y52025D01*
X35800Y47004D02*
Y52025D01*
X35700Y46963D02*
Y52025D01*
X35600Y46905D02*
Y52025D01*
X35500Y46850D02*
Y52025D01*
X35400Y46846D02*
Y52025D01*
X35300Y46834D02*
Y52025D01*
X35200Y46813D02*
Y52025D01*
X35100Y46784D02*
Y52025D01*
X35000Y46745D02*
Y52025D01*
X34900Y46696D02*
Y52025D01*
X34800Y46635D02*
Y52025D01*
X34700Y46560D02*
Y52025D01*
X34600Y46467D02*
Y52025D01*
X34500Y46350D02*
Y52025D01*
X34400Y46194D02*
Y52025D01*
X34300Y45950D02*
Y52025D01*
X41300Y44796D02*
Y52350D01*
X41200Y42378D02*
Y52250D01*
X40500Y45174D02*
Y52025D01*
X40400Y45342D02*
Y52025D01*
X40300Y45452D02*
Y52025D01*
X41100Y42190D02*
Y52150D01*
X41000Y35196D02*
Y52050D01*
X40900Y35169D02*
Y52025D01*
X34200Y35726D02*
Y52025D01*
X33700Y37063D02*
Y52025D01*
X33600Y37207D02*
Y52025D01*
X33500Y37318D02*
Y52025D01*
X33400Y37406D02*
Y52025D01*
X34100Y35626D02*
Y52025D01*
X34000Y35526D02*
Y52025D01*
X33900Y35426D02*
Y52025D01*
X33800Y36851D02*
Y52025D01*
X38951Y46801D02*
X40326Y45426D01*
X33100Y37581D02*
Y52025D01*
X32800Y37663D02*
Y52025D01*
X33300Y37477D02*
Y52025D01*
X33200Y37535D02*
Y52025D01*
X33000Y37617D02*
Y52025D01*
X32900Y37644D02*
Y52025D01*
X32300Y38069D02*
Y52025D01*
X32200Y38168D02*
Y52025D01*
X32100Y38269D02*
Y52025D01*
X32000Y38368D02*
Y52025D01*
X32700Y37673D02*
Y52025D01*
X32600Y37769D02*
Y52025D01*
X32500Y37868D02*
Y52025D01*
X32400Y37968D02*
Y52025D01*
X31500Y38868D02*
Y52025D01*
X31400Y38968D02*
Y52025D01*
X31300Y39069D02*
Y52025D01*
X31200Y39168D02*
Y52025D01*
X31900Y38468D02*
Y52025D01*
X31800Y38569D02*
Y52025D01*
X31700Y38668D02*
Y52025D01*
X31600Y38769D02*
Y52025D01*
X30700Y41761D02*
Y52025D01*
X30600Y41836D02*
Y52025D01*
X30500Y41897D02*
Y52025D01*
X30400Y41946D02*
Y52025D01*
X31100Y41150D02*
Y52025D01*
X31000Y41394D02*
Y52025D01*
X30900Y41550D02*
Y52025D01*
X30800Y41668D02*
Y52025D01*
X30300Y41984D02*
Y52025D01*
X30200Y42014D02*
Y52025D01*
X30100Y42034D02*
Y52025D01*
X30000Y42046D02*
Y52025D01*
X29900Y42050D02*
Y52025D01*
X29800Y42046D02*
Y52025D01*
X29700Y42034D02*
Y52025D01*
X29600Y42013D02*
Y52025D01*
X29500Y41984D02*
Y52025D01*
X29400Y41946D02*
Y52025D01*
X29300Y41897D02*
Y52025D01*
X29200Y41836D02*
Y52025D01*
X29100Y41760D02*
Y52025D01*
X29000Y41667D02*
Y52025D01*
X28900Y41550D02*
Y52025D01*
X28800Y41393D02*
Y52025D01*
X28325D02*
X40975D01*
X22868Y51000D02*
X25429D01*
X22868Y50900D02*
X25429D01*
X22868Y50800D02*
X25429D01*
X22868Y50700D02*
X25429D01*
X22868Y50600D02*
X25429D01*
X22868Y50500D02*
X25429D01*
X22868Y50400D02*
X25429D01*
X22868Y50300D02*
X25429D01*
X22868Y50200D02*
X25429D01*
X22868Y50100D02*
X25429D01*
X22868Y50000D02*
X25429D01*
X22868Y49900D02*
X25429D01*
X22868Y49800D02*
X25429D01*
X22868Y49700D02*
X25429D01*
X22868Y49600D02*
X25429D01*
X22868Y49500D02*
X25429D01*
X22868Y49400D02*
X25429D01*
X22868Y49300D02*
X25429D01*
X22868Y49200D02*
X25429D01*
X22868Y49100D02*
X25429D01*
X22868Y49000D02*
X25429D01*
X22868Y48900D02*
X25429D01*
X25177Y47900D02*
X25429D01*
X22868Y48800D02*
X25429D01*
X22868Y48700D02*
X25429D01*
X22868Y48600D02*
X25429D01*
X22868Y48400D02*
X25429D01*
X22868Y48300D02*
X25429D01*
X22868Y48200D02*
X25429D01*
X22868Y48100D02*
X25429D01*
X22868Y48000D02*
X25429D01*
X22800Y51313D02*
Y52025D01*
X22700Y51313D02*
Y52025D01*
X22600Y51313D02*
Y52025D01*
X22500Y51313D02*
Y52025D01*
X22400Y51313D02*
Y52025D01*
X22300Y51313D02*
Y52025D01*
X22200Y51313D02*
Y52025D01*
X22100Y51313D02*
Y52025D01*
X22000Y51313D02*
Y52025D01*
X21900Y51313D02*
Y52025D01*
X21800Y51313D02*
Y52025D01*
X21700Y51313D02*
Y52025D01*
X21600Y51313D02*
Y52025D01*
X21500Y51313D02*
Y52025D01*
X21400Y51313D02*
Y52025D01*
X21300Y51313D02*
Y52025D01*
X24800Y47974D02*
Y51336D01*
X22868Y51300D02*
X24843D01*
X24700Y47974D02*
Y51434D01*
X22868Y48513D02*
Y51313D01*
X25200Y47891D02*
Y51100D01*
X25100Y47925D02*
Y51141D01*
X24900Y47966D02*
Y51257D01*
X25000Y47950D02*
Y51193D01*
X21200Y51313D02*
Y52025D01*
X21100Y51313D02*
Y52025D01*
X21000Y51313D02*
Y52025D01*
X20900Y51313D02*
Y52025D01*
X22868Y51200D02*
X24987D01*
X22868Y51100D02*
X25199D01*
X28700Y41150D02*
Y52025D01*
X25429Y47775D02*
Y51040D01*
X25400Y47793D02*
Y51045D01*
X24600Y47966D02*
Y51560D01*
X25300Y47848D02*
Y51068D01*
X28600Y40271D02*
Y52025D01*
X28500Y40309D02*
Y52025D01*
X28400Y40339D02*
Y52025D01*
X28325Y40355D02*
Y52025D01*
X24400Y47925D02*
Y52025D01*
X24500Y47950D02*
Y51730D01*
X24300Y47891D02*
Y52025D01*
X24200Y47847D02*
Y52025D01*
X24100Y47793D02*
Y52025D01*
X24000Y47725D02*
Y52025D01*
X23900Y47641D02*
Y52025D01*
X28325Y47000D02*
X35788D01*
X28325Y46900D02*
X35593D01*
X28325Y46800D02*
X35150D01*
X28325Y46700D02*
X34906D01*
X28325Y46600D02*
X34750D01*
X28325Y46500D02*
X34632D01*
X28325Y46400D02*
X34539D01*
X28325Y46300D02*
X34464D01*
X22868Y47900D02*
X24323D01*
X28325Y46200D02*
X34403D01*
X22868Y47800D02*
X24112D01*
X22868Y47700D02*
X23968D01*
X28325Y46100D02*
X34354D01*
X28325Y46000D02*
X34316D01*
X28325Y45900D02*
X34286D01*
X28325Y45800D02*
X34266D01*
X23800Y47537D02*
Y52025D01*
X23700Y47403D02*
Y52025D01*
X23600Y47215D02*
Y52025D01*
X23100Y41324D02*
Y52025D01*
X23500Y41206D02*
Y52025D01*
X23400Y41248D02*
Y52025D01*
X23300Y41282D02*
Y52025D01*
X23200Y41307D02*
Y52025D01*
X22868Y47600D02*
X23857D01*
X22868Y47500D02*
X23769D01*
X22868Y47400D02*
X23698D01*
X22868Y47300D02*
X23640D01*
X23000Y41334D02*
Y52025D01*
X22868Y47200D02*
X23594D01*
X22900Y41337D02*
Y52025D01*
X22868Y45613D02*
Y48413D01*
Y47100D02*
X23558D01*
X22868Y47000D02*
X23531D01*
X22868Y46900D02*
X23512D01*
X22868Y46800D02*
X23502D01*
X23700Y41093D02*
Y46047D01*
X23700Y41093D02*
Y46047D01*
X22868Y46700D02*
X23500D01*
X23600Y41155D02*
Y46235D01*
X22868Y46400D02*
X23543D01*
X22868Y46300D02*
X23575D01*
X22868Y46600D02*
X23506D01*
X22868Y46500D02*
X23520D01*
X22868Y46000D02*
X23700D01*
X22868Y45900D02*
X23700D01*
X22868Y46200D02*
X23616D01*
X22868Y46100D02*
X23668D01*
X40572Y44900D02*
X41334D01*
X40575Y44800D02*
X41301D01*
X40575Y44700D02*
X41276D01*
X40575Y44600D02*
X41259D01*
X40575Y44500D02*
X41250D01*
X40575Y44200D02*
X41264D01*
X41300Y42512D02*
Y44035D01*
X40575Y44400D02*
X41247D01*
X40575Y44300D02*
X41252D01*
X40575Y44100D02*
X41283D01*
X40575Y44000D02*
X41310D01*
X40575Y42500D02*
X41289D01*
X40575Y42400D02*
X41214D01*
X40575Y42300D02*
X41153D01*
X40575Y42200D02*
X41104D01*
X40575Y42100D02*
X41066D01*
X40575Y42000D02*
X41036D01*
X40575Y41900D02*
X41016D01*
X40575Y41500D02*
X41016D01*
X40575Y41800D02*
X41004D01*
X40575Y41700D02*
X41000D01*
X40575Y41200D02*
X41104D01*
X40575Y41100D02*
X41153D01*
X40575Y41400D02*
X41037D01*
X40575Y41300D02*
X41066D01*
X40575Y37800D02*
X41407D01*
X40575Y37700D02*
X41368D01*
X40575Y41000D02*
X41214D01*
X40575Y40900D02*
X41290D01*
X40575Y37600D02*
X41338D01*
X40575Y37500D02*
X41317D01*
X40575Y37400D02*
X41305D01*
X40575Y37300D02*
X41300D01*
X37300Y42798D02*
Y43016D01*
X37200Y42619D02*
Y43016D01*
X37100Y42592D02*
Y43016D01*
X37000Y42556D02*
Y43016D01*
X36900Y42510D02*
Y43016D01*
X36167D02*
X37365D01*
X36800Y42452D02*
Y43016D01*
X36167D02*
Y44543D01*
X35850Y44400D02*
X36167D01*
X36700Y42381D02*
Y43016D01*
X36600Y42293D02*
Y43016D01*
X36500Y42182D02*
Y43016D01*
X36400Y42038D02*
Y43016D01*
X40575Y41600D02*
X41004D01*
X36300Y41826D02*
Y43016D01*
X32569Y37800D02*
X36850D01*
X32668Y37700D02*
X36850D01*
X33052Y37600D02*
X36850D01*
X33263Y37500D02*
X36850D01*
X33407Y37400D02*
X36850D01*
X31768Y38600D02*
X36850D01*
X31868Y38500D02*
X36850D01*
X31969Y38400D02*
X36850D01*
X32069Y38300D02*
X36850D01*
X32168Y38200D02*
X36850D01*
X32269Y38100D02*
X36850D01*
X32368Y38000D02*
X36850D01*
X32468Y37900D02*
X36850D01*
X40575Y37200D02*
X41304D01*
X40575Y36900D02*
X41364D01*
X40575Y36800D02*
X41402D01*
X40575Y37100D02*
X41315D01*
X40575Y37000D02*
X41335D01*
X41300Y35225D02*
Y40888D01*
X41400Y35218D02*
Y36804D01*
X41100Y35214D02*
Y41210D01*
X41200Y35223D02*
Y41022D01*
X33518Y37300D02*
X36850D01*
X33606Y37200D02*
X36850D01*
X33677Y37100D02*
X36850D01*
X33735Y37000D02*
X36850D01*
X33781Y36900D02*
X36850D01*
X33817Y36800D02*
X36850D01*
X35800Y35238D02*
Y44386D01*
X33844Y36700D02*
X36850D01*
X35238Y35800D02*
X36850D01*
X35338Y35700D02*
X36850D01*
X35438Y35600D02*
X36850D01*
X35538Y35500D02*
X36850D01*
X35638Y35400D02*
X36850D01*
X40575Y35200D02*
X41019D01*
X35738Y35300D02*
X36850D01*
X35838Y35200D02*
X36850D01*
X33863Y36600D02*
X36850D01*
X33873Y36500D02*
X36850D01*
X33875Y36400D02*
X36850D01*
X33869Y36300D02*
X36850D01*
X34838Y36200D02*
X36850D01*
X34938Y36100D02*
X36850D01*
X35038Y36000D02*
X36850D01*
X35138Y35900D02*
X36850D01*
X35300Y35738D02*
Y44366D01*
X35200Y35838D02*
Y44386D01*
X35000Y36038D02*
Y44454D01*
X35100Y35938D02*
Y44416D01*
X35700Y35338D02*
Y44366D01*
X35600Y35438D02*
Y44354D01*
X35500Y35538D02*
Y44350D01*
X35400Y35638D02*
Y44354D01*
X34800Y36238D02*
Y44564D01*
X34900Y36138D02*
Y44503D01*
X34700Y36226D02*
Y44639D01*
X34500Y36026D02*
Y44850D01*
X34600Y36126D02*
Y44732D01*
X34300Y35826D02*
Y45250D01*
X34400Y35926D02*
Y45006D01*
X34674Y36200D02*
X34838D01*
X34574Y36100D02*
X34938D01*
X33854Y36200D02*
X34674D01*
X33832Y36100D02*
X34574D01*
X33800Y36000D02*
X34474D01*
X33759Y35900D02*
X34374D01*
X33800Y35326D02*
Y35999D01*
X33707Y35800D02*
X34274D01*
X33643Y35700D02*
X34174D01*
X33564Y35600D02*
X34074D01*
X33465Y35500D02*
X33974D01*
X33340Y35400D02*
X33874D01*
X33169Y35300D02*
X33774D01*
X33700Y35226D02*
Y35787D01*
X32873Y35200D02*
X33674D01*
X28325Y44300D02*
X36167D01*
X28325Y44200D02*
X36167D01*
X28325Y44100D02*
X36167D01*
X28325Y44500D02*
X34906D01*
X28325Y44400D02*
X35150D01*
X28325Y44000D02*
X36167D01*
X28325Y43900D02*
X36167D01*
X28325Y43800D02*
X36167D01*
X28325Y43700D02*
X36167D01*
X28325Y43600D02*
X36167D01*
X28325Y43500D02*
X36167D01*
X28325Y43400D02*
X36167D01*
X28325Y43300D02*
X36167D01*
X28325Y43000D02*
X37359D01*
X28325Y42900D02*
X37325D01*
X28325Y43200D02*
X36167D01*
X28325Y43100D02*
X36167D01*
X30250Y42000D02*
X36378D01*
X30494Y41900D02*
X36329D01*
X30650Y41800D02*
X36291D01*
X30768Y41700D02*
X36262D01*
X30861Y41600D02*
X36241D01*
X30936Y41500D02*
X36229D01*
X30997Y41400D02*
X36225D01*
X31046Y41300D02*
X36229D01*
X28325Y42800D02*
X37300D01*
X28325Y42700D02*
X37284D01*
X28325Y42600D02*
X37125D01*
X28325Y42500D02*
X36881D01*
X28325Y42400D02*
X36725D01*
X28325Y42300D02*
X36607D01*
X28325Y42200D02*
X36514D01*
X28325Y42100D02*
X36439D01*
X28325Y45700D02*
X34254D01*
X28325Y45600D02*
X34250D01*
X22868Y45800D02*
X23700D01*
X22868Y45700D02*
X23700D01*
X22800Y41333D02*
Y45613D01*
X28325Y45500D02*
X34254D01*
X22700Y41321D02*
Y45613D01*
X21700Y41337D02*
Y45613D01*
X21600Y41337D02*
Y45613D01*
X21500Y41337D02*
Y45613D01*
X21400Y41337D02*
Y45613D01*
X21300Y41337D02*
Y45613D01*
X21200Y41337D02*
Y45613D01*
X21100Y41337D02*
Y45613D01*
X21000Y41337D02*
Y45613D01*
X20900Y41337D02*
Y45613D01*
X28325Y45400D02*
X34266D01*
X28325Y45100D02*
X34354D01*
X28325Y45300D02*
X34286D01*
X28325Y45200D02*
X34316D01*
X28325Y44800D02*
X34539D01*
X28325Y44700D02*
X34632D01*
X28325Y45000D02*
X34403D01*
X28325Y44900D02*
X34464D01*
X28325Y44600D02*
X34750D01*
X28325Y42000D02*
X29550D01*
X28325Y41900D02*
X29306D01*
X28325Y41800D02*
X29150D01*
X28325Y41700D02*
X29032D01*
X28325Y41600D02*
X28939D01*
X28325Y41500D02*
X28864D01*
X28325Y41400D02*
X28803D01*
X31134Y41000D02*
X36291D01*
X31146Y40900D02*
X36329D01*
X31084Y41200D02*
X36241D01*
X31114Y41100D02*
X36262D01*
X31134Y40600D02*
X36515D01*
X31113Y40500D02*
X36608D01*
X31150Y40800D02*
X36378D01*
X31146Y40700D02*
X36439D01*
X31046Y40300D02*
X36850D01*
X30997Y40200D02*
X36850D01*
X31084Y40400D02*
X36725D01*
X30936Y40100D02*
X36850D01*
X31100Y39269D02*
Y40450D01*
X31000Y39368D02*
Y40206D01*
X30969Y39400D02*
X36850D01*
X31069Y39300D02*
X36850D01*
X31169Y39200D02*
X36850D01*
X31268Y39100D02*
X36850D01*
X31368Y39000D02*
X36850D01*
X31469Y38900D02*
X36850D01*
X31569Y38800D02*
X36850D01*
X31669Y38700D02*
X36850D01*
X30860Y40000D02*
X36850D01*
X30850Y39900D02*
X36850D01*
X30850Y39800D02*
X36850D01*
X30850Y39700D02*
X36850D01*
X30850Y39600D02*
X36850D01*
X30869Y39500D02*
X36850D01*
X30900Y39468D02*
Y40050D01*
X30850Y39518D02*
X32695Y37673D01*
X28325Y41300D02*
X28754D01*
X23230D02*
X23700D01*
X22600Y41302D02*
Y45613D01*
X22500Y41276D02*
Y45613D01*
X28325Y41200D02*
X28716D01*
X23514D02*
X23700D01*
X22400Y41241D02*
Y45613D01*
X22300Y41197D02*
Y45613D01*
X22200Y41144D02*
Y45613D01*
X21770Y41300D02*
X22589D01*
X22100Y41079D02*
Y45613D01*
X22000Y41001D02*
Y45613D01*
X21900Y40907D02*
Y45613D01*
X21800Y40791D02*
Y45613D01*
X21770Y40750D02*
Y41337D01*
X28325Y41100D02*
X28687D01*
X28325Y41000D02*
X28666D01*
X28325Y40900D02*
X28654D01*
X28325Y40800D02*
X28650D01*
X28527Y40300D02*
X28754D01*
X30850Y39518D02*
Y39988D01*
X28325Y40700D02*
X28654D01*
X28700Y40222D02*
Y40450D01*
X21770Y41200D02*
X22305D01*
X21770Y41100D02*
X22130D01*
X21770Y41000D02*
X21998D01*
X21770Y40900D02*
X21893D01*
X28325Y40400D02*
X28716D01*
X28325Y40600D02*
X28666D01*
X28325Y40500D02*
X28687D01*
X44950Y35000D02*
X49200D01*
X44950Y34900D02*
X49200D01*
X44950Y34800D02*
X49200D01*
X44950Y34700D02*
X49200D01*
X44950Y34600D02*
X49200D01*
X44950Y34500D02*
X49200D01*
X44950Y34400D02*
X49200D01*
X44950Y34300D02*
X49200D01*
X44950Y34200D02*
X49200D01*
X44950Y34100D02*
X49200D01*
X44950Y34000D02*
X49200D01*
X44950Y33900D02*
X49200D01*
X44950Y33800D02*
X49200D01*
X44950Y33700D02*
X49200D01*
X44950Y33600D02*
X49200D01*
X44950Y33500D02*
X49200D01*
X44950Y33400D02*
X49200D01*
X44950Y33300D02*
X49200D01*
X44950Y33200D02*
X49200D01*
X44950Y33100D02*
X49200D01*
X44950Y33000D02*
X49200D01*
X44950Y32900D02*
X49200D01*
X44950Y32800D02*
X49200D01*
X44950Y32700D02*
X49200D01*
X44950Y32600D02*
X49200D01*
X44950Y32500D02*
X49200D01*
X44950Y32400D02*
X49200D01*
X44950Y32300D02*
X49200D01*
X44950Y32200D02*
X49200D01*
X44950Y32100D02*
X49200D01*
X44950Y32000D02*
X49200D01*
X44950Y31900D02*
X49200D01*
X44950Y31800D02*
X49200D01*
X45450Y24100D02*
X49200D01*
X45518Y24000D02*
X49200D01*
X45500Y24028D02*
Y43051D01*
X45400Y24163D02*
Y43032D01*
X45573Y23900D02*
X49200D01*
X45616Y23800D02*
X49200D01*
X45700Y23370D02*
Y43113D01*
X45600Y23840D02*
Y43078D01*
X45200Y24350D02*
Y43016D01*
X45100Y24418D02*
Y43018D01*
X45000Y24473D02*
Y43028D01*
X44950Y24496D02*
Y41775D01*
X45128Y24400D02*
X49200D01*
X45263Y24300D02*
X49200D01*
X45300Y24267D02*
Y43020D01*
X45367Y24200D02*
X49200D01*
X45650Y23700D02*
X49200D01*
X45675Y23600D02*
X49200D01*
X45691Y23500D02*
X49200D01*
X45699Y23400D02*
X49200D01*
X45699Y23300D02*
X49200D01*
X45691Y23200D02*
X49200D01*
X45675Y23100D02*
X49200D01*
X45650Y23000D02*
X49200D01*
X45616Y22900D02*
X49200D01*
X45572Y22800D02*
X49200D01*
X45518Y22700D02*
X49200D01*
X45450Y22600D02*
X49200D01*
X45366Y22500D02*
X49200D01*
X45300Y22400D02*
X49200D01*
X45300Y22300D02*
X49200D01*
X49000Y20694D02*
Y40538D01*
X48900Y20713D02*
Y40352D01*
X48800Y20723D02*
Y40209D01*
X48700Y20725D02*
Y40093D01*
X48600Y20719D02*
Y39995D01*
X49200Y20631D02*
Y46243D01*
X49200Y20631D02*
Y46243D01*
X49100Y20667D02*
Y40822D01*
X48500Y20705D02*
Y39913D01*
X45300Y22200D02*
X49200D01*
X45300Y22100D02*
X49200D01*
X48400Y20682D02*
Y39842D01*
X45300Y22000D02*
X49200D01*
X48300Y20650D02*
Y39782D01*
X48200Y20609D02*
Y39731D01*
X48100Y20557D02*
Y39688D01*
X48000Y20493D02*
Y39653D01*
X45300Y21900D02*
X49200D01*
X45300Y21800D02*
X49200D01*
X45300Y21700D02*
X49200D01*
X45300Y21600D02*
X49200D01*
X45300Y21500D02*
X49200D01*
X45300Y21400D02*
X49200D01*
X48974Y20700D02*
X49200D01*
X45300Y21300D02*
X49200D01*
X45300Y21200D02*
X49200D01*
X45300Y21100D02*
X49200D01*
X45300Y21000D02*
X49200D01*
X45300Y20900D02*
X49200D01*
X45300Y20800D02*
X49200D01*
X45300Y20700D02*
X48476D01*
X45300Y20600D02*
X48180D01*
X47900Y20414D02*
Y39624D01*
X47800Y20316D02*
Y39603D01*
X47200Y19877D02*
Y39603D01*
X47100Y19777D02*
Y39624D01*
X46900Y19557D02*
Y39688D01*
X46800Y19362D02*
Y39731D01*
X46700Y19232D02*
Y39782D01*
X46600Y19232D02*
Y39842D01*
X46400Y19232D02*
Y39995D01*
X46500Y19232D02*
Y39913D01*
X46200Y19232D02*
Y40209D01*
X46300Y19232D02*
Y40092D01*
X46000Y19232D02*
Y40538D01*
X46100Y19232D02*
Y40352D01*
X45800Y19232D02*
Y43157D01*
X45900Y19232D02*
Y40822D01*
X47700Y20270D02*
Y39587D01*
X47600Y20225D02*
Y39578D01*
X47500Y20162D02*
Y39575D01*
X47400Y20077D02*
Y39578D01*
X47000Y19677D02*
Y39653D01*
X47300Y19977D02*
Y39587D01*
X45300Y20500D02*
X48009D01*
X45300Y20400D02*
X47884D01*
X45700Y19232D02*
Y23330D01*
X45300Y20300D02*
X47786D01*
X45600Y19232D02*
Y22860D01*
X45500Y19232D02*
Y22672D01*
X45400Y19232D02*
Y22537D01*
X45300Y19232D02*
Y22433D01*
X44950Y31700D02*
X49200D01*
X44950Y31600D02*
X49200D01*
X44950Y31500D02*
X49200D01*
X44950Y31400D02*
X49200D01*
X44950Y31300D02*
X49200D01*
X44950Y31200D02*
X49200D01*
X44950Y31100D02*
X49200D01*
X44950Y31000D02*
X49200D01*
X44950Y30900D02*
X49200D01*
X44950Y30800D02*
X49200D01*
X44950Y30700D02*
X49200D01*
X44950Y30600D02*
X49200D01*
X44950Y30500D02*
X49200D01*
X44950Y30400D02*
X49200D01*
X44950Y30300D02*
X49200D01*
X44950Y30200D02*
X49200D01*
X44950Y30100D02*
X49200D01*
X44950Y30000D02*
X49200D01*
X44950Y29900D02*
X49200D01*
X44950Y29800D02*
X49200D01*
X44950Y29700D02*
X49200D01*
X44950Y29600D02*
X49200D01*
X44950Y29500D02*
X49200D01*
X44950Y29400D02*
X49200D01*
X44950Y29300D02*
X49200D01*
X44950Y29200D02*
X49200D01*
X44950Y29100D02*
X49200D01*
X44950Y29000D02*
X49200D01*
X44950Y28900D02*
X49200D01*
X44950Y28800D02*
X49200D01*
X44950Y28700D02*
X49200D01*
X44950Y28600D02*
X49200D01*
X44950Y28500D02*
X49200D01*
X44950Y28400D02*
X49200D01*
X44950Y28300D02*
X49200D01*
X44950Y28200D02*
X49200D01*
X44950Y28100D02*
X49200D01*
X44950Y28000D02*
X49200D01*
X44950Y27900D02*
X49200D01*
X44950Y27800D02*
X49200D01*
X44950Y27700D02*
X49200D01*
X41900Y35054D02*
Y36226D01*
X41975Y35006D02*
Y36184D01*
X41700Y35148D02*
Y36377D01*
X41800Y35106D02*
Y36294D01*
X44950Y27600D02*
X49200D01*
X44950Y27500D02*
X49200D01*
X44950Y27400D02*
X49200D01*
X44950Y27300D02*
X49200D01*
X44950Y27200D02*
X49200D01*
X44950Y27100D02*
X49200D01*
X44950Y27000D02*
X49200D01*
X44950Y26900D02*
X49200D01*
X44950Y26800D02*
X49200D01*
X44950Y26700D02*
X49200D01*
X44950Y26600D02*
X49200D01*
X44950Y26500D02*
X49200D01*
X44950Y26400D02*
X49200D01*
X44950Y26300D02*
X49200D01*
X44950Y26200D02*
X49200D01*
X44950Y26100D02*
X49200D01*
X44950Y26000D02*
X49200D01*
X44950Y25900D02*
X49200D01*
X44950Y25800D02*
X49200D01*
X44950Y25700D02*
X49200D01*
X44950Y25600D02*
X49200D01*
X44950Y25500D02*
X49200D01*
X44950Y25400D02*
X49200D01*
X44950Y25300D02*
X49200D01*
X44950Y25200D02*
X49200D01*
X44950Y25100D02*
X49200D01*
X44950Y25000D02*
X49200D01*
X44950Y24900D02*
X49200D01*
X44950Y24800D02*
X49200D01*
X44950Y24700D02*
X49200D01*
X44950Y24600D02*
X49200D01*
X44950Y24500D02*
X49200D01*
X43202Y22400D02*
X43600D01*
X43102Y22300D02*
X43600D01*
X43002Y22200D02*
X43600D01*
X42902Y22100D02*
X43600D01*
X42802Y22000D02*
X43600D01*
X42702Y21900D02*
X43600D01*
X42602Y21800D02*
X43600D01*
X42502Y21700D02*
X43600D01*
X42402Y21600D02*
X43600D01*
X42302Y21500D02*
X43600D01*
X42202Y21400D02*
X43600D01*
X42102Y21300D02*
X43600D01*
X42002Y21200D02*
X43600D01*
X41902Y21100D02*
X43600D01*
X41802Y21000D02*
X43600D01*
X41702Y20900D02*
X43600D01*
X41602Y20800D02*
X43600D01*
X41498Y20700D02*
X43600D01*
X43600Y19232D02*
Y22434D01*
X43600Y19232D02*
Y22433D01*
X43500Y19232D02*
Y22538D01*
X43302Y22500D02*
X43534D01*
X43400Y19232D02*
Y22598D01*
X43300Y15543D02*
Y22498D01*
X43200Y15543D02*
Y22398D01*
X43100Y15543D02*
Y22298D01*
X41551Y20749D02*
X43426Y22624D01*
X43000Y15538D02*
Y22198D01*
X42900Y15521D02*
Y22098D01*
X42800Y15491D02*
Y21998D01*
X42700Y15447D02*
Y21898D01*
X42600Y15385D02*
Y21798D01*
X42500Y15302D02*
Y21698D01*
X42400Y15202D02*
Y21598D01*
X42300Y15102D02*
Y21498D01*
X42200Y15002D02*
Y21398D01*
X42100Y14902D02*
Y21298D01*
X42000Y14802D02*
Y21198D01*
X41900Y14702D02*
Y21098D01*
X41800Y14602D02*
Y20998D01*
X41700Y14502D02*
Y20898D01*
X41600Y14402D02*
Y20798D01*
X41350Y20600D02*
X43600D01*
X40302Y20500D02*
X43600D01*
X40202Y20400D02*
X43600D01*
X40102Y20300D02*
X43600D01*
X41500Y14291D02*
Y20702D01*
X41400Y14124D02*
Y20629D01*
X49002Y10900D02*
X49200D01*
X48902Y10800D02*
X49200D01*
X48802Y10700D02*
X49200D01*
X48702Y10600D02*
X49200D01*
X48602Y10500D02*
X49200D01*
X48502Y10400D02*
X49200D01*
X48402Y10300D02*
X49200D01*
X48400Y8374D02*
Y10298D01*
X48302Y10200D02*
X49200D01*
X48202Y10100D02*
X49200D01*
X48102Y10000D02*
X49200D01*
X47874Y9772D02*
X49200Y11098D01*
X48002Y9900D02*
X49200D01*
X48300Y8415D02*
Y10198D01*
X48200Y8447D02*
Y10098D01*
X48100Y8472D02*
Y9998D01*
X48000Y8488D02*
Y9898D01*
X47902Y9800D02*
X49200D01*
X47792Y9700D02*
X49200D01*
X47900Y8498D02*
Y9798D01*
X47627Y9600D02*
X49200D01*
X47835Y8500D02*
X49200D01*
X48340Y8400D02*
X49200D01*
X47800Y8500D02*
Y9706D01*
X47700Y8495D02*
Y9638D01*
X45323Y9500D02*
X49200D01*
X45323Y9400D02*
X49200D01*
X45323Y9300D02*
X49200D01*
X45323Y9200D02*
X49200D01*
X45323Y9100D02*
X49200D01*
X45295Y8500D02*
X47805D01*
X45300Y20200D02*
X47556D01*
X45300Y20100D02*
X47424D01*
X46999Y19676D02*
X47399Y20076D01*
X45300Y20000D02*
X47323D01*
X47600Y8483D02*
Y9588D01*
X46163Y19232D02*
X46765D01*
X45300Y19900D02*
X47223D01*
X45300Y19800D02*
X47123D01*
X45300Y19700D02*
X47023D01*
X45300Y19600D02*
X46931D01*
X45300Y19500D02*
X46864D01*
X45300Y19400D02*
X46815D01*
X45300Y19300D02*
X46780D01*
X45300Y19232D02*
X46163D01*
X47500Y8463D02*
Y9554D01*
X47400Y8435D02*
Y9532D01*
X45600Y8463D02*
Y9523D01*
X45500Y8483D02*
Y9523D01*
X47300Y8400D02*
Y9523D01*
X47200Y8355D02*
Y9523D01*
X45900Y8355D02*
Y9523D01*
X45800Y8400D02*
Y9523D01*
X45323D02*
X47273D01*
X45400Y8495D02*
Y9523D01*
X45323Y9073D02*
Y9523D01*
X45300Y8500D02*
Y9073D01*
X45200Y8498D02*
Y9073D01*
X45100Y8488D02*
Y9073D01*
X45000Y8472D02*
Y9073D01*
X44900Y8447D02*
Y9073D01*
X48969Y7900D02*
X49200D01*
X48892Y8000D02*
X49200D01*
X49032Y7800D02*
X49200D01*
X49000Y7854D02*
Y10898D01*
X48900Y7991D02*
Y10798D01*
X49200Y7337D02*
Y11098D01*
X49085Y7700D02*
X49200D01*
Y7336D02*
Y11098D01*
X49100Y7667D02*
Y10998D01*
X48541Y8300D02*
X49200D01*
X48686Y8200D02*
X49200D01*
X48700Y8189D02*
Y10598D01*
X48600Y8263D02*
Y10498D01*
X48800Y8100D02*
X49200D01*
X48800Y8100D02*
Y10698D01*
X49085Y6500D02*
X49200D01*
X49032Y6400D02*
X49200D01*
X48969Y6300D02*
X49200D01*
X48892Y6200D02*
X49200D01*
X49200Y5800D02*
Y6863D01*
X49200Y5800D02*
Y6864D01*
X49100Y5800D02*
Y6533D01*
X49000Y5800D02*
Y6346D01*
X48800Y6100D02*
X49200D01*
X48686Y6000D02*
X49200D01*
X48900Y5800D02*
Y6209D01*
X48541Y5900D02*
X49200D01*
X48340Y5800D02*
X49200D01*
X48800D02*
Y6100D01*
X48700Y5800D02*
Y6011D01*
X48500Y8324D02*
Y10398D01*
X47100Y8301D02*
Y9523D01*
X47000Y8235D02*
Y9523D01*
X46900Y8155D02*
Y9523D01*
X46800Y8059D02*
Y9523D01*
X46700Y7940D02*
Y9523D01*
X46600Y7786D02*
Y9523D01*
X46500Y7787D02*
Y9523D01*
X46000Y8301D02*
Y9523D01*
X45700Y8436D02*
Y9523D01*
X44800Y8415D02*
Y9073D01*
X44700Y8374D02*
Y9073D01*
X46400Y7940D02*
Y9523D01*
X46300Y8059D02*
Y9523D01*
X46200Y8155D02*
Y9523D01*
X46100Y8235D02*
Y9523D01*
X46001Y8300D02*
X47099D01*
X46146Y8200D02*
X46954D01*
X46260Y8100D02*
X46840D01*
X46352Y8000D02*
X46748D01*
X48600Y5800D02*
Y5937D01*
X46429Y7900D02*
X46671D01*
X46492Y7800D02*
X46608D01*
X44600Y8324D02*
Y9073D01*
X45800Y8400D02*
X47300D01*
X44500Y8262D02*
Y9073D01*
X44400Y8189D02*
Y9073D01*
X44300Y8100D02*
Y9073D01*
X44200Y7991D02*
Y9073D01*
X44100Y7853D02*
Y9073D01*
X44000Y7711D02*
Y9073D01*
X40002Y20200D02*
X43600D01*
X39902Y20100D02*
X43600D01*
X39802Y20000D02*
X43600D01*
X39702Y19900D02*
X43600D01*
X39602Y19800D02*
X43600D01*
X39550Y19700D02*
X43600D01*
X39550Y19600D02*
X43600D01*
X39550Y19500D02*
X43600D01*
X43363Y19232D02*
X43600D01*
X39550Y19400D02*
X43600D01*
X39550Y19300D02*
X43600D01*
X39550Y19200D02*
X43363D01*
X39550Y19100D02*
X43363D01*
X39550Y19000D02*
X43363D01*
X39550Y18900D02*
X43363D01*
X39550Y18800D02*
X43363D01*
X39550Y18700D02*
X43363D01*
X39550Y18600D02*
X43363D01*
X39550Y18500D02*
X43363D01*
X39550Y18400D02*
X43363D01*
X39550Y18300D02*
X43363D01*
X39550Y18200D02*
X43363D01*
X39550Y18100D02*
X43363D01*
X39550Y18000D02*
X43363D01*
X39550Y17900D02*
X43363D01*
X39550Y17800D02*
X43363D01*
X39550Y17700D02*
X43363D01*
X39550Y17600D02*
X43363D01*
X39550Y17500D02*
X43363D01*
X39550Y17400D02*
X43363D01*
X39550Y17300D02*
X43363D01*
X39550Y17200D02*
X43363D01*
X39550Y17100D02*
X43363D01*
X39550Y17000D02*
X43363D01*
X39550Y16900D02*
X43363D01*
X39550Y16800D02*
X43363D01*
X39550Y16700D02*
X43363D01*
Y16243D02*
Y19232D01*
X39550Y16600D02*
X43363D01*
Y16132D02*
Y16243D01*
X43337Y15543D02*
Y16243D01*
X39550Y16500D02*
X43363D01*
X39550Y16400D02*
X43363D01*
X39550Y16300D02*
X43363D01*
X39550Y16200D02*
X43337D01*
X39550Y16100D02*
X43337D01*
X39550Y16000D02*
X43337D01*
X39550Y15900D02*
X43337D01*
X39550Y15800D02*
X43337D01*
X39550Y15700D02*
X43337D01*
X39550Y15600D02*
X43337D01*
X43093Y15543D02*
X43337D01*
X39550Y15500D02*
X42825D01*
X39550Y15400D02*
X42621D01*
X39550Y15300D02*
X42498D01*
X39550Y15200D02*
X42398D01*
X39550Y15100D02*
X42298D01*
X39550Y15000D02*
X42198D01*
X39550Y14900D02*
X42098D01*
X39550Y14800D02*
X41998D01*
X39550Y14700D02*
X41898D01*
X39550Y14600D02*
X41798D01*
X39550Y14500D02*
X41698D01*
X43423Y9073D02*
X45323D01*
X43500Y8276D02*
Y9073D01*
X43400Y8335D02*
Y9073D01*
X43300Y8383D02*
Y9073D01*
X43900Y7884D02*
Y9073D01*
X43800Y8015D02*
Y9073D01*
X43700Y8119D02*
Y9073D01*
X43600Y8205D02*
Y9073D01*
X43173D02*
X43423D01*
X43173D02*
X43423D01*
X42684D02*
X43173D01*
X43100Y8453D02*
Y9073D01*
X43200Y8422D02*
Y9073D01*
X43000Y8476D02*
Y9073D01*
X42900Y8491D02*
Y9073D01*
X42800Y8499D02*
Y9073D01*
X43260Y8400D02*
X44760D01*
X43461Y8300D02*
X44559D01*
X43606Y8200D02*
X44414D01*
X43720Y8100D02*
X44300D01*
X43812Y8000D02*
X44208D01*
X43889Y7900D02*
X44131D01*
X43952Y7800D02*
X44068D01*
X42694Y9000D02*
X49200D01*
X42700Y8900D02*
X49200D01*
X42700Y8895D02*
Y9073D01*
X42698Y8800D02*
X49200D01*
X42688Y8700D02*
X49200D01*
X42669Y8600D02*
X49200D01*
X42755Y8500D02*
X45265D01*
X41574Y14376D02*
X42492Y15294D01*
X39550Y14400D02*
X41598D01*
X39550Y14300D02*
X41506D01*
X39550Y14200D02*
X41439D01*
X39550Y14100D02*
X41390D01*
X39550Y14000D02*
X41355D01*
X39550Y13900D02*
X41334D01*
X39550Y13800D02*
X41325D01*
X39550Y13700D02*
X41325D01*
X39550Y13600D02*
X41325D01*
X39550Y13500D02*
X41325D01*
X39550Y13400D02*
X41325D01*
X39550Y13300D02*
X41325D01*
X39550Y13200D02*
X41325D01*
X39550Y13100D02*
X41325D01*
X39550Y13000D02*
X41325D01*
X39550Y12900D02*
X41325D01*
X39550Y12800D02*
X41325D01*
X42700Y8499D02*
Y8855D01*
X39550Y12700D02*
X41325D01*
X39550Y12600D02*
X41325D01*
X39550Y12500D02*
X41325D01*
X39550Y12400D02*
X41325D01*
X39550Y12300D02*
X41325D01*
X39550Y12200D02*
X41325D01*
X39550Y12100D02*
X41325D01*
X39550Y12000D02*
X41325D01*
X39550Y11900D02*
X41325D01*
X40800Y35134D02*
Y52025D01*
X40700Y35088D02*
Y52025D01*
X40575Y35100D02*
X40723D01*
X40600Y35031D02*
Y52025D01*
X40575Y35015D02*
Y44825D01*
X36638Y34400D02*
X36850D01*
X36738Y34300D02*
X36850D01*
Y34188D02*
Y40317D01*
Y33992D02*
Y34188D01*
X35938Y35100D02*
X36850D01*
X36038Y35000D02*
X36850D01*
X36138Y34900D02*
X36850D01*
X36238Y34800D02*
X36850D01*
X36338Y34700D02*
X36850D01*
X36438Y34600D02*
X36850D01*
X34756Y36282D02*
X36850Y34188D01*
X36538Y34500D02*
X36850D01*
X36658Y33800D02*
X36850D01*
X36558Y33700D02*
X36850D01*
X36458Y33600D02*
X36850D01*
X36358Y33500D02*
X36850D01*
X36258Y33400D02*
X36850D01*
X36158Y33300D02*
X36850D01*
Y32359D02*
Y33992D01*
X36699Y32400D02*
X36850D01*
X36058Y33200D02*
X36850D01*
X35958Y33100D02*
X36850D01*
X35858Y33000D02*
X36850D01*
X35758Y32900D02*
X36850D01*
X35658Y32800D02*
X36850D01*
X35558Y32700D02*
X36850D01*
X35458Y32600D02*
X36850D01*
X35358Y32500D02*
X36850D01*
X36300Y34738D02*
Y40974D01*
X36400Y34638D02*
Y40762D01*
X36100Y34938D02*
Y44503D01*
X36200Y34838D02*
Y43016D01*
X36800Y34238D02*
Y40348D01*
X36700Y34338D02*
Y40419D01*
X36500Y34538D02*
Y40618D01*
X36600Y34438D02*
Y40507D01*
X36000Y35038D02*
Y44454D01*
X35900Y35138D02*
Y44416D01*
X33600Y35126D02*
Y35643D01*
X33500Y35026D02*
Y35532D01*
X33165Y34692D02*
X34756Y36282D01*
X33400Y34926D02*
Y35444D01*
X33300Y34826D02*
Y35373D01*
X33200Y34726D02*
Y35315D01*
X36700Y33842D02*
Y34338D01*
X36800Y33942D02*
Y34238D01*
X36600Y32416D02*
Y33742D01*
X36500Y32424D02*
Y33642D01*
X36800Y32375D02*
Y33942D01*
X36700Y32400D02*
Y33842D01*
X36400Y32424D02*
Y33542D01*
X36300Y32416D02*
Y33442D01*
X36200Y32400D02*
Y33342D01*
X36100Y32375D02*
Y33242D01*
X35258Y32400D02*
X36201D01*
X36000Y32341D02*
Y33142D01*
X35900Y32297D02*
Y33042D01*
X35800Y32243D02*
Y32942D01*
X35700Y32175D02*
Y32842D01*
X35158Y32300D02*
X35905D01*
X35600Y32091D02*
Y32742D01*
X35058Y32200D02*
X35734D01*
X35500Y31987D02*
Y32642D01*
X35400Y31853D02*
Y32542D01*
X35300Y31665D02*
Y32442D01*
X34968Y32110D02*
X36850Y33992D01*
X34958Y32100D02*
X35609D01*
X34858Y32000D02*
X35511D01*
X34758Y31900D02*
X35432D01*
X34769Y31800D02*
X35367D01*
X34839Y31700D02*
X35316D01*
X34889Y31600D02*
X35274D01*
X34923Y31500D02*
X35243D01*
X35400Y30201D02*
Y30497D01*
X35500Y30159D02*
Y30363D01*
X34943Y31400D02*
X35220D01*
X34950Y31300D02*
X35206D01*
X35402Y30200D02*
X35600D01*
X35600Y30108D02*
Y30259D01*
X35300Y30232D02*
Y30685D01*
X35600Y30108D02*
Y30258D01*
X34950Y30700D02*
X35294D01*
X34950Y30600D02*
X35340D01*
X34950Y31200D02*
X35200D01*
X34950Y31100D02*
X35202D01*
X34950Y30300D02*
X35557D01*
X34950Y30500D02*
X35398D01*
X34950Y30400D02*
X35469D01*
X34950Y31000D02*
X35212D01*
X34950Y30900D02*
X35231D01*
X34900Y31572D02*
Y32042D01*
X34950Y30800D02*
X35258D01*
X35200Y30255D02*
Y32342D01*
X35100Y30269D02*
Y32242D01*
X35000Y30275D02*
Y32142D01*
X34950Y30275D02*
Y31292D01*
X34716Y31858D02*
X34968Y32110D01*
X34800Y31759D02*
Y31942D01*
X34100Y24102D02*
Y26893D01*
X34006Y26800D02*
X34125D01*
Y24127D02*
Y26919D01*
X34000Y24002D02*
Y26793D01*
X33906Y26700D02*
X34125D01*
X33806Y26600D02*
X34125D01*
X33706Y26500D02*
X34125D01*
X33606Y26400D02*
X34125D01*
X33900Y23902D02*
Y26693D01*
X33800Y23802D02*
Y26594D01*
X33700Y23702D02*
Y26493D01*
X33600Y23602D02*
Y26393D01*
X33506Y26300D02*
X34125D01*
X33406Y26200D02*
X34125D01*
X33306Y26100D02*
X34125D01*
X33206Y26000D02*
X34125D01*
X33500Y23502D02*
Y26294D01*
X33400Y23402D02*
Y26194D01*
X33300Y23302D02*
Y26094D01*
X33200Y23202D02*
Y25993D01*
X32857Y35000D02*
X33474D01*
X32757Y35100D02*
X33574D01*
X33106Y25900D02*
X34125D01*
X32957Y34900D02*
X33374D01*
X33057Y34800D02*
X33274D01*
X33006Y25800D02*
X34125D01*
X32906Y25700D02*
X34125D01*
X32806Y25600D02*
X34125D01*
X32706Y25500D02*
X34125D01*
X32606Y25400D02*
X34125D01*
X32506Y25300D02*
X34125D01*
X32406Y25200D02*
X34125D01*
X32306Y25100D02*
X34125D01*
X32206Y25000D02*
X34125D01*
X32106Y24900D02*
X34125D01*
X32006Y24800D02*
X34125D01*
X31906Y24700D02*
X34125D01*
X31806Y24600D02*
X34125D01*
X31706Y24500D02*
X34125D01*
X31606Y24400D02*
X34125D01*
X31506Y24300D02*
X34125D01*
X31406Y24200D02*
X34125D01*
X32624Y22626D02*
X34125Y24127D01*
X31306Y24100D02*
X34098D01*
X31206Y24000D02*
X33998D01*
X31106Y23900D02*
X33898D01*
X31006Y23800D02*
X33798D01*
X30906Y23700D02*
X33698D01*
X30806Y23600D02*
X33598D01*
X30706Y23500D02*
X33498D01*
X30606Y23400D02*
X33398D01*
X30506Y23300D02*
X33298D01*
X30406Y23200D02*
X33198D01*
X33100Y34757D02*
Y35269D01*
X33000Y34857D02*
Y35233D01*
X32900Y34957D02*
Y35206D01*
X32800Y35057D02*
Y35187D01*
X33100Y23102D02*
Y25893D01*
X33000Y23002D02*
Y25794D01*
X32900Y22902D02*
Y25694D01*
X32800Y22802D02*
Y25594D01*
X32680Y35176D02*
X33165Y34692D01*
X32700Y22702D02*
Y25493D01*
X32600Y22602D02*
Y25393D01*
X32500Y22502D02*
Y25294D01*
X32400Y22402D02*
Y25194D01*
X32300Y22302D02*
Y25094D01*
X32200Y22202D02*
Y24993D01*
X32100Y22102D02*
Y24893D01*
X30306Y23100D02*
X33098D01*
X30206Y23000D02*
X32998D01*
X30106Y22900D02*
X32898D01*
X30006Y22800D02*
X32798D01*
X29906Y22700D02*
X32698D01*
X32029Y22031D02*
X32622Y22625D01*
X32000Y22000D02*
Y24794D01*
X31900Y21865D02*
Y24694D01*
X29806Y22600D02*
X32598D01*
X29706Y22500D02*
X32498D01*
X29606Y22400D02*
X32398D01*
X29506Y22300D02*
X32298D01*
X29406Y22200D02*
X32198D01*
X29306Y22100D02*
X32098D01*
X29206Y22000D02*
X31999D01*
X29106Y21900D02*
X31922D01*
X31800Y21612D02*
Y24594D01*
X31700Y21016D02*
Y24493D01*
X31600Y20866D02*
Y24393D01*
X31500Y20640D02*
Y24294D01*
X31400Y19027D02*
Y24194D01*
X31300Y18927D02*
Y24094D01*
X31200Y18827D02*
Y23993D01*
X31100Y18727D02*
Y23893D01*
X31000Y18627D02*
Y23794D01*
X28367Y21160D02*
X34125Y26919D01*
X30900Y18527D02*
Y23694D01*
X30800Y18427D02*
Y23594D01*
X30700Y18327D02*
Y23493D01*
X30600Y18227D02*
Y23393D01*
X30500Y18127D02*
Y23294D01*
X30400Y18027D02*
Y23194D01*
X30300Y17927D02*
Y23094D01*
X31780Y21110D02*
Y21430D01*
X30200Y17827D02*
Y22993D01*
X30100Y17727D02*
Y22893D01*
X30000Y17627D02*
Y22794D01*
X29900Y17527D02*
Y22694D01*
X29006Y21800D02*
X31865D01*
X28906Y21700D02*
X31824D01*
X28806Y21600D02*
X31797D01*
X28706Y21500D02*
X31783D01*
X28606Y21400D02*
X31780D01*
X28506Y21300D02*
X31780D01*
X28406Y21200D02*
X31780D01*
X28299Y21100D02*
X31771D01*
X29800Y17427D02*
Y22594D01*
X29700Y17327D02*
Y22493D01*
X29600Y17227D02*
Y22393D01*
X29500Y17127D02*
Y22294D01*
X29400Y17027D02*
Y22194D01*
X29300Y16927D02*
Y22094D01*
X29200Y16827D02*
Y21993D01*
X29100Y16727D02*
Y21893D01*
X29000Y16627D02*
Y21794D01*
X21500Y8155D02*
Y21769D01*
X20900Y8059D02*
Y22369D01*
X21400Y8059D02*
Y21869D01*
X21200Y7787D02*
Y22069D01*
X21300Y7940D02*
Y21969D01*
X21000Y7940D02*
Y22269D01*
X21100Y7787D02*
Y22169D01*
X28900Y16527D02*
Y21694D01*
X28800Y16427D02*
Y21594D01*
X28700Y16327D02*
Y21494D01*
X28600Y16227D02*
Y21394D01*
X28500Y16127D02*
Y21294D01*
X28400Y16027D02*
Y21194D01*
X22000Y8435D02*
Y21269D01*
X22100Y8463D02*
Y21169D01*
X21800Y8355D02*
Y21469D01*
X21900Y8400D02*
Y21369D01*
X21600Y8235D02*
Y21669D01*
X21700Y8301D02*
Y21569D01*
X40302Y20500D02*
X40950D01*
X28138Y21000D02*
X31687D01*
X39550Y19748D02*
X40302Y20500D01*
X31500Y19127D02*
Y19860D01*
X31600Y19227D02*
Y19634D01*
X28300Y15927D02*
Y21100D01*
X28200Y15827D02*
Y21032D01*
X28100Y15727D02*
Y20983D01*
X28000Y15627D02*
Y20950D01*
X26143Y20200D02*
X31438D01*
X26208Y20100D02*
X31446D01*
X26259Y20000D02*
X31463D01*
X26301Y19900D02*
X31487D01*
X26332Y19800D02*
X31521D01*
X26369Y19600D02*
X31620D01*
X27900Y15527D02*
Y20931D01*
X26355Y19700D02*
X31565D01*
X26899Y14526D02*
X31772Y19399D01*
X39550Y11800D02*
X41325D01*
X26375Y19500D02*
X31687D01*
X31700Y19327D02*
Y19484D01*
X41325Y11673D02*
Y13775D01*
X39550Y11700D02*
X41325D01*
X39550Y11600D02*
X41273D01*
X39550Y11500D02*
X41273D01*
X26373Y19400D02*
X31771D01*
X26363Y19300D02*
X31673D01*
X26344Y19200D02*
X31573D01*
X26317Y19100D02*
X31473D01*
X26281Y19000D02*
X31373D01*
X26235Y18900D02*
X31273D01*
X26177Y18800D02*
X31173D01*
X26106Y18700D02*
X31073D01*
X27800Y15427D02*
Y20925D01*
X27700Y15327D02*
Y20925D01*
X27600Y15227D02*
Y20925D01*
X27500Y15127D02*
Y20925D01*
X27400Y15027D02*
Y20925D01*
X27300Y14927D02*
Y20925D01*
X27200Y14827D02*
Y20925D01*
X27100Y14727D02*
Y20925D01*
X26600Y14943D02*
Y20925D01*
X26500Y15036D02*
Y20925D01*
X26400Y15111D02*
Y20925D01*
X26300Y19902D02*
Y20925D01*
X27000Y14627D02*
Y20925D01*
X26900Y14527D02*
Y20925D01*
X26800Y14669D02*
Y20925D01*
X26700Y14825D02*
Y20925D01*
X26416Y15100D02*
X27473D01*
X26541Y15000D02*
X27373D01*
X26639Y14900D02*
X27273D01*
X26718Y14800D02*
X27173D01*
X26783Y14700D02*
X27073D01*
X26834Y14600D02*
X26973D01*
X26482Y13100D02*
X26650D01*
X26338Y13000D02*
X26650D01*
X26200Y20113D02*
Y20925D01*
X26245Y15200D02*
X27573D01*
X26100Y20257D02*
Y20925D01*
X26000Y20368D02*
Y20925D01*
X26300Y15172D02*
Y19048D01*
X26126Y12900D02*
X26650D01*
X26200Y15221D02*
Y18837D01*
X26100Y15259D02*
Y18693D01*
X41200Y10426D02*
Y20538D01*
X41100Y10326D02*
Y20513D01*
X41273Y10500D02*
Y11673D01*
X41000Y10226D02*
Y20501D01*
X40900Y10126D02*
Y20500D01*
X40800Y10022D02*
Y20500D01*
X40700Y9875D02*
Y20500D01*
X40600Y9791D02*
Y20500D01*
X40500Y9687D02*
Y20500D01*
X39550Y11400D02*
X41273D01*
X39550Y11300D02*
X41273D01*
X39550Y11200D02*
X41273D01*
X39550Y11100D02*
X41273D01*
X39550Y11000D02*
X41273D01*
X39550Y10900D02*
X41273D01*
X40400Y9553D02*
Y20500D01*
X39550Y10800D02*
X41273D01*
X39550Y10700D02*
X41273D01*
X39550Y10600D02*
X41273D01*
X39550Y10500D02*
X41273D01*
X39550Y10400D02*
X41173D01*
X40849Y10075D02*
X41273Y10500D01*
X39550Y10300D02*
X41073D01*
X39550Y10200D02*
X40973D01*
X39550Y10100D02*
X40873D01*
X39550Y10000D02*
X40782D01*
X39550Y9900D02*
X40714D01*
X39550Y9800D02*
X40609D01*
X39550Y9700D02*
X40511D01*
X39550Y9600D02*
X40432D01*
X40300Y9365D02*
Y20498D01*
X39800Y8702D02*
Y19998D01*
X39700Y8802D02*
Y19898D01*
X39600Y8902D02*
Y19798D01*
X40200Y8500D02*
Y20398D01*
X40100Y8496D02*
Y20298D01*
X40000Y8502D02*
Y20198D01*
X39900Y8602D02*
Y20098D01*
X39550Y8952D02*
Y19748D01*
X26650Y8212D02*
Y13263D01*
X26600Y8172D02*
Y13207D01*
X26500Y8080D02*
Y13114D01*
X26400Y7966D02*
Y13039D01*
X26300Y7821D02*
Y12978D01*
X26200Y7750D02*
Y12929D01*
X26100Y7913D02*
Y12891D01*
X39550Y9500D02*
X40367D01*
X39550Y9400D02*
X40316D01*
X39602Y8900D02*
X40200D01*
X39702Y8800D02*
X40202D01*
X39802Y8700D02*
X40212D01*
X39902Y8600D02*
X40231D01*
X40002Y8500D02*
X40185D01*
X39550Y9300D02*
X40274D01*
X39550Y9200D02*
X40243D01*
X39550Y9100D02*
X40220D01*
X39550Y9000D02*
X40206D01*
X39550Y8952D02*
X40014Y8488D01*
X26109Y7900D02*
X26351D01*
X26172Y7800D02*
X26288D01*
X26064Y20300D02*
X31438D01*
X25966Y20400D02*
X31446D01*
X26018Y18600D02*
X30973D01*
X25975Y18500D02*
X30873D01*
X25975Y18400D02*
X30773D01*
X25975Y18300D02*
X30673D01*
X25975Y18200D02*
X30573D01*
X25975Y18100D02*
X30473D01*
X25975Y18000D02*
X30373D01*
X25374Y20700D02*
X31521D01*
X25670Y20600D02*
X31487D01*
X25841Y20500D02*
X31463D01*
X25975Y17900D02*
X30273D01*
X25975Y17800D02*
X30173D01*
X25975Y17700D02*
X30073D01*
X25975Y17600D02*
X29973D01*
X25975Y17500D02*
X29873D01*
X25975Y17400D02*
X29773D01*
X25975Y17300D02*
X29673D01*
X25975Y17200D02*
X29573D01*
X25975Y17100D02*
X29473D01*
X25975Y17000D02*
X29373D01*
X25975Y16900D02*
X29273D01*
X25975Y16800D02*
X29173D01*
X25975Y16700D02*
X29073D01*
X25975Y16600D02*
X28973D01*
X25975Y16500D02*
X28873D01*
X25975Y16400D02*
X28773D01*
X25975Y16300D02*
X28673D01*
X25975Y16200D02*
X28573D01*
X25975Y16100D02*
X28473D01*
X25975Y16000D02*
X28373D01*
X25975Y15900D02*
X28273D01*
X25600Y20631D02*
Y20925D01*
X25400Y20694D02*
Y20925D01*
X25300Y20713D02*
Y20925D01*
X25200Y20723D02*
Y20925D01*
X25900Y20456D02*
Y20925D01*
X25800Y20527D02*
Y20925D01*
X25700Y20585D02*
Y20925D01*
X25500Y20667D02*
Y20925D01*
X22675D02*
X27800D01*
X25100Y20725D02*
Y20925D01*
X25000Y20719D02*
Y20925D01*
X24900Y20705D02*
Y20925D01*
X24800Y20682D02*
Y20925D01*
X24700Y20650D02*
Y20925D01*
X24600Y20609D02*
Y20925D01*
X24500Y20557D02*
Y20925D01*
X25975Y15800D02*
X28173D01*
X25975Y15700D02*
X28073D01*
X25975Y15600D02*
X27973D01*
X25975Y15500D02*
X27873D01*
X25975Y15400D02*
X27773D01*
X26000Y15288D02*
Y18582D01*
X25975Y15294D02*
Y18558D01*
X24400Y20493D02*
Y20925D01*
X24300Y20414D02*
Y20925D01*
X24200Y20316D02*
Y20925D01*
X24100Y20190D02*
Y20925D01*
X25975Y15300D02*
X27673D01*
X24000Y20020D02*
Y20925D01*
X23900Y19723D02*
Y20925D01*
X25300Y8458D02*
Y12891D01*
X25100Y8493D02*
Y12978D01*
X25200Y8479D02*
Y12929D01*
X24900Y8499D02*
Y13115D01*
X25000Y8499D02*
Y13039D01*
X24700Y8476D02*
Y13325D01*
X24800Y8491D02*
Y13208D01*
X24275Y14650D02*
Y18558D01*
X24500Y8422D02*
Y13725D01*
X24600Y8453D02*
Y13481D01*
X24300Y8335D02*
Y14446D01*
X24400Y8383D02*
Y14206D01*
X25681Y8300D02*
X26650D01*
X25826Y8200D02*
X26634D01*
X25800Y8220D02*
Y12829D01*
X25700Y8289D02*
Y12825D01*
X25940Y8100D02*
X26520D01*
X26032Y8000D02*
X26428D01*
X26000Y8037D02*
Y12861D01*
X25900Y8138D02*
Y12841D01*
X24975Y8500D02*
X26650D01*
X25480Y8400D02*
X26650D01*
X25500Y8392D02*
Y12841D01*
X22435Y8500D02*
X24945D01*
X25600Y8345D02*
Y12829D01*
X25400Y8429D02*
Y12862D01*
X22940Y8400D02*
X24440D01*
X23400Y8100D02*
Y20925D01*
X23300Y8189D02*
Y20925D01*
X23200Y8263D02*
Y20925D01*
X23100Y8324D02*
Y20925D01*
X23800Y7884D02*
Y20925D01*
X23700Y7710D02*
Y20925D01*
X23600Y7854D02*
Y20925D01*
X23500Y7991D02*
Y20925D01*
X22800Y8447D02*
Y20925D01*
X22700Y8472D02*
Y20925D01*
X22400Y8500D02*
Y20974D01*
X22600Y8488D02*
Y20929D01*
X23000Y8374D02*
Y20925D01*
X22900Y8415D02*
Y20925D01*
X22200Y8483D02*
Y21082D01*
X22300Y8495D02*
Y21019D01*
X24100Y8205D02*
Y18760D01*
X24200Y8276D02*
Y18634D01*
X24000Y8119D02*
Y18930D01*
X23400Y8100D02*
X23980D01*
X23900Y8014D02*
Y19227D01*
X23492Y8000D02*
X23888D01*
X23569Y7900D02*
X23811D01*
X23632Y7800D02*
X23748D01*
X23141Y8300D02*
X24239D01*
X23286Y8200D02*
X24094D01*
X22500Y8498D02*
Y20945D01*
X20860Y8100D02*
X21440D01*
X20952Y8000D02*
X21348D01*
X21029Y7900D02*
X21271D01*
X21092Y7800D02*
X21208D01*
X20800Y51313D02*
Y52025D01*
X20700Y51313D02*
Y52025D01*
X20600Y51313D02*
Y52025D01*
X20500Y51313D02*
Y52025D01*
X20400Y51313D02*
Y52025D01*
X20300Y51313D02*
Y52025D01*
X20200Y51313D02*
Y52025D01*
X20100Y51313D02*
Y52025D01*
X20000Y51313D02*
Y52025D01*
X19700Y52000D02*
X24406D01*
X19700Y51800D02*
X24469D01*
X19700Y52025D02*
X24400D01*
X19700Y51900D02*
X24433D01*
X19700Y51700D02*
X24515D01*
X19700Y51600D02*
X24573D01*
X19900Y51313D02*
Y52025D01*
X19800Y51313D02*
Y52025D01*
X19700Y51500D02*
X24644D01*
X19700Y51400D02*
X24732D01*
X19768Y51313D02*
X22868D01*
X16857Y44900D02*
X23700D01*
X17019Y44700D02*
X23700D01*
X19768Y48513D02*
Y51313D01*
Y45613D02*
X22868D01*
X16366Y45600D02*
X23700D01*
X16491Y45500D02*
X23700D01*
X16589Y45400D02*
X23700D01*
X16668Y45300D02*
X23700D01*
X16733Y45200D02*
X23700D01*
X16784Y45100D02*
X23700D01*
X16826Y45000D02*
X23700D01*
X16880Y44800D02*
X23700D01*
X19700Y48186D02*
Y52025D01*
X19768Y48147D02*
Y48413D01*
X17900Y47510D02*
Y47750D01*
X17500Y44596D02*
Y47750D01*
X17300Y44663D02*
Y47750D01*
X17200Y44684D02*
Y47750D01*
X17100Y44696D02*
Y47750D01*
X16600Y45388D02*
Y47750D01*
X16500Y45492D02*
Y47750D01*
X16400Y45575D02*
Y47750D01*
X16300Y45643D02*
Y47750D01*
X17000Y44700D02*
Y47750D01*
X16900Y44696D02*
Y47750D01*
X16800Y45065D02*
Y47750D01*
X16700Y45253D02*
Y47750D01*
X16100Y45741D02*
Y47750D01*
X19397Y45800D02*
X19768D01*
X16000Y45775D02*
Y47750D01*
X15900Y45800D02*
Y47750D01*
X19768Y45613D02*
Y45953D01*
X16195Y45700D02*
X19768D01*
X16200Y45698D02*
Y47750D01*
X15899Y45800D02*
X18803D01*
X15563Y46000D02*
X18359D01*
X15573Y45900D02*
X18527D01*
X15517Y46200D02*
X18136D01*
X15544Y46100D02*
X18235D01*
X15800Y45816D02*
Y47750D01*
X15700Y45824D02*
Y47750D01*
X15600Y45824D02*
Y47750D01*
X18200Y43800D02*
X23700D01*
X18225Y43700D02*
X23700D01*
X18241Y43600D02*
X23700D01*
X20800Y41337D02*
Y45613D01*
X20700Y41337D02*
Y45613D01*
X20600Y41337D02*
Y45613D01*
X20500Y41337D02*
Y45613D01*
X20400Y41337D02*
Y45613D01*
X20300Y41337D02*
Y45613D01*
X17490Y44600D02*
X23700D01*
X17678Y44500D02*
X23700D01*
X17813Y44400D02*
X23700D01*
X17917Y44300D02*
X23700D01*
X18000Y44200D02*
X23700D01*
X18068Y44100D02*
X23700D01*
X18123Y44000D02*
X23700D01*
X18166Y43900D02*
X23700D01*
X19198Y42700D02*
X23700D01*
X19275Y42500D02*
X23700D01*
X19300Y42400D02*
X23700D01*
X19316Y42300D02*
X23700D01*
X19324Y42200D02*
X23700D01*
X19324Y42100D02*
X23700D01*
X19316Y42000D02*
X23700D01*
X19300Y41900D02*
X23700D01*
X18249Y43500D02*
X23700D01*
X18565Y43300D02*
X23700D01*
X18753Y43200D02*
X23700D01*
X18888Y43100D02*
X23700D01*
X18992Y43000D02*
X23700D01*
X19075Y42900D02*
X23700D01*
X19143Y42800D02*
X23700D01*
X19241Y42600D02*
X23700D01*
X18600Y43284D02*
Y45866D01*
X18500Y43326D02*
Y45914D01*
X18300Y43380D02*
Y46044D01*
X18400Y43357D02*
Y45972D01*
X19700Y41337D02*
Y45914D01*
X19600Y41337D02*
Y45866D01*
X19500Y41337D02*
Y45829D01*
X19400Y41337D02*
Y45801D01*
X17800Y44411D02*
Y47750D01*
X17700Y44486D02*
Y47750D01*
X17600Y44547D02*
Y47750D01*
X17400Y44634D02*
Y47750D01*
X18100Y44044D02*
Y46243D01*
X18200Y43800D02*
Y46133D01*
X17900Y44318D02*
Y46590D01*
X18000Y44200D02*
Y46386D01*
X20200Y41337D02*
Y45613D01*
X20100Y41337D02*
Y45613D01*
X19300Y42399D02*
Y45781D01*
X19200Y42695D02*
Y45769D01*
X20000Y41337D02*
Y45613D01*
X19900Y41337D02*
Y45613D01*
X19800Y41337D02*
Y45613D01*
X19300Y41337D02*
Y41901D01*
X18900Y43089D02*
Y45781D01*
X18800Y43168D02*
Y45801D01*
X18700Y43233D02*
Y45829D01*
X19100Y42866D02*
Y45765D01*
X19000Y42991D02*
Y45769D01*
X15100Y46806D02*
Y47750D01*
X15000Y46877D02*
Y47750D01*
X14900Y46935D02*
Y47750D01*
X14800Y46981D02*
Y47750D01*
X14700Y47017D02*
Y47750D01*
X15500Y46252D02*
Y47750D01*
X15400Y46463D02*
Y47750D01*
X15300Y46607D02*
Y47750D01*
X15200Y46718D02*
Y47750D01*
X800D02*
X18022D01*
X800Y47700D02*
X17991D01*
X14500Y47063D02*
Y47750D01*
X14400Y47073D02*
Y47750D01*
X14600Y47044D02*
Y47750D01*
X14300Y47075D02*
Y47750D01*
X14200Y47069D02*
Y47750D01*
X14100Y47055D02*
Y47750D01*
X14752Y47000D02*
X17816D01*
X14963Y46900D02*
X17824D01*
X15107Y46800D02*
X17839D01*
X15218Y46700D02*
X17864D01*
X15435Y46400D02*
X17992D01*
X15481Y46300D02*
X18057D01*
X15306Y46600D02*
X17896D01*
X15377Y46500D02*
X17939D01*
X800Y47600D02*
X17938D01*
X800Y47500D02*
X17896D01*
X6577Y47400D02*
X17863D01*
X6788Y47300D02*
X17839D01*
X6932Y47200D02*
X17824D01*
X7043Y47100D02*
X17816D01*
X14000Y47032D02*
Y47750D01*
X13900Y47000D02*
Y47750D01*
X13800Y46959D02*
Y47750D01*
X13700Y46907D02*
Y47750D01*
X13600Y46843D02*
Y47750D01*
X13500Y46764D02*
Y47750D01*
X13400Y46666D02*
Y47750D01*
X13300Y46540D02*
Y47750D01*
X13200Y46370D02*
Y47750D01*
X7131Y47000D02*
X13898D01*
X7202Y46900D02*
X13687D01*
X7260Y46800D02*
X13543D01*
X7306Y46700D02*
X13432D01*
X7342Y46600D02*
X13344D01*
X7369Y46500D02*
X13273D01*
X13100Y46073D02*
Y47750D01*
X7388Y46400D02*
X13215D01*
X7398Y46300D02*
X13169D01*
X7400Y46200D02*
X13133D01*
X7394Y46100D02*
X13106D01*
X7380Y46000D02*
X13087D01*
X7357Y45900D02*
X13077D01*
X7325Y45800D02*
X13075D01*
X7284Y45700D02*
X13081D01*
X7232Y45600D02*
X13095D01*
X7089Y45400D02*
X13150D01*
X6865Y45200D02*
X13243D01*
X7168Y45500D02*
X13118D01*
X6991Y45300D02*
X13191D01*
X6695Y45100D02*
X13275D01*
X6398Y45000D02*
X13275D01*
X6106Y44900D02*
X13275D01*
X5996Y44800D02*
X13275D01*
X5886Y44700D02*
X13275D01*
X5776Y44600D02*
X13275D01*
X5667Y44500D02*
X13275D01*
Y38417D02*
Y45147D01*
X5557Y44400D02*
X13275D01*
X13100Y38215D02*
Y45577D01*
X13200Y38341D02*
Y45280D01*
X13000Y38045D02*
Y47750D01*
X12900Y37748D02*
Y47750D01*
X5447Y44300D02*
X13275D01*
X5337Y44200D02*
X13275D01*
X5228Y44100D02*
X13275D01*
X5139Y44000D02*
X13275D01*
X5139Y43900D02*
X13275D01*
X5139Y43800D02*
X13275D01*
X5139Y43700D02*
X13275D01*
X5139Y43600D02*
X13275D01*
X5139Y43500D02*
X13275D01*
X5139Y43400D02*
X13275D01*
X5139Y43300D02*
X13275D01*
X5139Y43200D02*
X13275D01*
X5139Y43100D02*
X13275D01*
X5139Y43000D02*
X13275D01*
X5139Y42900D02*
X13275D01*
X5139Y42800D02*
X13275D01*
X5139Y42700D02*
X13275D01*
X5139Y42600D02*
X13275D01*
X5139Y42500D02*
X13275D01*
X5139Y42400D02*
X13275D01*
X5139Y42300D02*
X13275D01*
X5139Y42200D02*
X13275D01*
X5139Y42100D02*
X13275D01*
X5139Y42000D02*
X13275D01*
X12700Y33586D02*
Y47750D01*
X12400Y33655D02*
Y47750D01*
X12300Y33663D02*
Y47750D01*
X12200Y33662D02*
Y47750D01*
X12800Y33545D02*
Y47750D01*
X12600Y33617D02*
Y47750D01*
X12500Y33640D02*
Y47750D01*
X12100Y33654D02*
Y47750D01*
X12000Y33637D02*
Y47750D01*
X11900Y33613D02*
Y47750D01*
X11800Y33580D02*
Y47750D01*
X11700Y33537D02*
Y47750D01*
X11600Y33484D02*
Y47750D01*
X11500Y33419D02*
Y47750D01*
X11400Y33340D02*
Y47750D01*
X11300Y33242D02*
Y47750D01*
X11000Y33663D02*
Y47750D01*
X10900Y33663D02*
Y47750D01*
X10800Y33663D02*
Y47750D01*
X10700Y33663D02*
Y47750D01*
X11200Y33118D02*
Y47750D01*
X11100Y32954D02*
Y47750D01*
X10600Y33663D02*
Y47750D01*
X10500Y33663D02*
Y47750D01*
X10400Y33663D02*
Y47750D01*
X10300Y33663D02*
Y47750D01*
X10200Y33663D02*
Y47750D01*
X9700Y36040D02*
Y47750D01*
X10100Y33663D02*
Y47750D01*
X10000Y33663D02*
Y47750D01*
X9900Y33663D02*
Y47750D01*
X9800Y33663D02*
Y47750D01*
X19275Y41800D02*
X23700D01*
X19241Y41700D02*
X23700D01*
X19197Y41600D02*
X23700D01*
X19143Y41500D02*
X23700D01*
X19075Y41400D02*
X23700D01*
X19200Y41337D02*
Y41605D01*
X19024Y41337D02*
X21770D01*
X18970Y40787D02*
Y41277D01*
X18925Y40787D02*
Y41233D01*
X14875Y36500D02*
X14980D01*
X14475Y36300D02*
X14684D01*
X14600Y36216D02*
Y36344D01*
X14500Y36090D02*
Y36308D01*
X14400Y35920D02*
Y36281D01*
X13900Y33177D02*
Y36270D01*
X14800Y34077D02*
Y34357D01*
X14900Y34177D02*
Y34293D01*
X14300Y35623D02*
Y36262D01*
X14700Y33977D02*
Y34436D01*
X14500Y33777D02*
Y34660D01*
X14600Y33877D02*
Y34534D01*
X14300Y33577D02*
Y35127D01*
X14400Y33677D02*
Y34830D01*
X12659Y33600D02*
X14323D01*
X12889Y33500D02*
X14223D01*
X14200Y33477D02*
Y36252D01*
X14100Y33377D02*
Y36250D01*
X13649Y32926D02*
X14975Y34252D01*
X13042Y33400D02*
X14123D01*
X14000Y33277D02*
Y36256D01*
X13159Y33300D02*
X14023D01*
X13300Y33141D02*
Y36561D01*
X13800Y33077D02*
Y36293D01*
X13100Y33354D02*
Y36785D01*
X13200Y33259D02*
Y36659D01*
X13600Y32873D02*
Y36366D01*
X13700Y32977D02*
Y36325D01*
X13400Y32985D02*
Y36482D01*
X13500Y32747D02*
Y36418D01*
X12900Y33494D02*
Y37252D01*
X13000Y33431D02*
Y36955D01*
X11058Y33600D02*
X11857D01*
X11058Y33500D02*
X11627D01*
X11058Y33400D02*
X11474D01*
X11058Y32863D02*
Y33663D01*
Y33300D02*
X11357D01*
X13253Y33200D02*
X13923D01*
X13329Y33100D02*
X13823D01*
X13391Y33000D02*
X13723D01*
X13442Y32900D02*
X13624D01*
X13230Y31500D02*
X13400D01*
X13131Y31400D02*
X13400D01*
X11058Y33200D02*
X11263D01*
X11058Y31500D02*
X11286D01*
X11058Y33100D02*
X11187D01*
X11058Y31600D02*
X11206D01*
X13006Y31300D02*
X13400D01*
X12838Y31200D02*
X13400D01*
X11058Y31400D02*
X11385D01*
X11058Y31300D02*
X11510D01*
X13100Y30379D02*
Y31373D01*
X13000Y30456D02*
Y31296D01*
X12900Y30519D02*
Y31233D01*
X12800Y30570D02*
Y31182D01*
X12700Y30611D02*
Y31141D01*
X13400Y30010D02*
Y31742D01*
X13400Y30009D02*
Y31742D01*
X13300Y30166D02*
Y31586D01*
X13200Y30284D02*
Y31467D01*
X12565Y31100D02*
X13400D01*
X12500Y30666D02*
Y31086D01*
X12400Y30680D02*
Y31071D01*
X12600Y30642D02*
Y31109D01*
X12300Y30688D02*
Y31064D01*
X12200Y30687D02*
Y31065D01*
X12100Y30679D02*
Y31073D01*
X13074Y30400D02*
X13400D01*
X15032Y28100D02*
X15169D01*
X13185Y30300D02*
X13400D01*
X13273Y30200D02*
X13400D01*
X15110Y28158D02*
X17769Y25500D01*
X14676Y27900D02*
X15369D01*
X14888Y28000D02*
X15269D01*
X12729Y30600D02*
X13400D01*
X12932Y30500D02*
X13400D01*
X12969Y28300D02*
X13269D01*
X12785Y28200D02*
X13357D01*
X12432Y28100D02*
X13468D01*
X11058D02*
X12084D01*
X11900Y30638D02*
Y31113D01*
X12000Y30662D02*
Y31089D01*
X11800Y30605D02*
Y31147D01*
X11700Y30562D02*
Y31189D01*
X11500Y30444D02*
Y31307D01*
X11600Y30509D02*
Y31242D01*
X11300Y30267D02*
Y31485D01*
X11400Y30365D02*
Y31387D01*
X11058Y31200D02*
X11678D01*
X11058Y31100D02*
X11951D01*
X11058Y31063D02*
Y31863D01*
X11000Y30688D02*
Y31063D01*
X11100Y29979D02*
Y31773D01*
X11200Y30143D02*
Y31608D01*
X10900Y30688D02*
Y31063D01*
X10800Y30688D02*
Y31063D01*
X11058Y30600D02*
X11787D01*
X11058Y30500D02*
X11584D01*
X11058Y30400D02*
X11442D01*
X11058Y30300D02*
X11331D01*
X11058Y30200D02*
X11243D01*
X11058Y30100D02*
X11170D01*
X11058Y29888D02*
Y30688D01*
Y28088D02*
Y28888D01*
X10700Y30688D02*
Y31063D01*
X11058Y28600D02*
X11224D01*
X10600Y30688D02*
Y31063D01*
X10500Y30688D02*
Y31063D01*
X11058Y28300D02*
X11547D01*
X11058Y28200D02*
X11731D01*
X11058Y28500D02*
X11309D01*
X11058Y28400D02*
X11413D01*
X5139Y41900D02*
X13275D01*
X5139Y41800D02*
X13275D01*
X5139Y41700D02*
X13275D01*
X5139Y41600D02*
X13275D01*
X5539Y40700D02*
X13275D01*
X5539Y40600D02*
X13275D01*
X5539Y40500D02*
X13275D01*
X5539Y40400D02*
X13275D01*
X5539Y40300D02*
X13275D01*
X5139Y41500D02*
X13275D01*
X5139Y41400D02*
X13275D01*
X5139Y41300D02*
X13275D01*
X5139Y41200D02*
X13275D01*
X5139Y41100D02*
X13275D01*
X5139Y41000D02*
X13275D01*
X5139Y40900D02*
X13275D01*
X5139Y40800D02*
X13275D01*
X9669Y36300D02*
X13775D01*
X9688Y36200D02*
X14586D01*
X9606Y36500D02*
X13375D01*
X9642Y36400D02*
X13532D01*
X9698Y36100D02*
X14507D01*
X9700Y36000D02*
X14442D01*
X9694Y35900D02*
X14391D01*
X9680Y35800D02*
X14349D01*
X5539Y40200D02*
X13275D01*
X5539Y40100D02*
X13275D01*
X5539Y40000D02*
X13275D01*
X5539Y39900D02*
X13275D01*
X9657Y35700D02*
X14318D01*
X9625Y35600D02*
X14295D01*
X5539Y39800D02*
X13275D01*
X5539Y39700D02*
X13275D01*
X5539Y39600D02*
X13275D01*
X7244Y38700D02*
X13275D01*
X7715Y38600D02*
X13275D01*
X7903Y38500D02*
X13275D01*
X8038Y38400D02*
X13257D01*
X8142Y38300D02*
X13164D01*
X8225Y38200D02*
X13089D01*
X8293Y38100D02*
X13028D01*
X5539Y39500D02*
X13275D01*
X5539Y39400D02*
X13275D01*
X5539Y39300D02*
X13275D01*
X5539Y39200D02*
X13275D01*
X5539Y39100D02*
X13275D01*
X5539Y39000D02*
X13275D01*
X5539Y38900D02*
X13275D01*
X5539Y38800D02*
X13275D01*
X8450Y37700D02*
X12891D01*
X9232Y37000D02*
X12979D01*
X8877Y37200D02*
X12912D01*
X9088Y37100D02*
X12941D01*
X9502Y36700D02*
X13165D01*
X9560Y36600D02*
X13258D01*
X9343Y36900D02*
X13028D01*
X9431Y36800D02*
X13089D01*
X8348Y38000D02*
X12979D01*
X8391Y37900D02*
X12941D01*
X8425Y37800D02*
X12911D01*
X8466Y37600D02*
X12879D01*
X8474Y37500D02*
X12875D01*
X8474Y37400D02*
X12879D01*
X8466Y37300D02*
X12891D01*
X9275Y34500D02*
X14632D01*
X9275Y34400D02*
X14743D01*
X9275Y34700D02*
X14473D01*
X9275Y34600D02*
X14544D01*
X9275Y34300D02*
X14887D01*
X9275Y34200D02*
X14923D01*
X9275Y34100D02*
X14823D01*
X9275Y34000D02*
X14723D01*
X9275Y27700D02*
X15569D01*
X9275Y27600D02*
X15669D01*
X9275Y33900D02*
X14623D01*
X9275Y27800D02*
X15469D01*
X9275Y27300D02*
X15969D01*
X9275Y27200D02*
X16069D01*
X9275Y27500D02*
X15769D01*
X9275Y27400D02*
X15869D01*
X9275Y26900D02*
X16369D01*
X9275Y26800D02*
X16469D01*
X9275Y27100D02*
X16169D01*
X9275Y27000D02*
X16269D01*
X9275Y26500D02*
X16769D01*
X9275Y26400D02*
X16869D01*
X9275Y26700D02*
X16569D01*
X9275Y26600D02*
X16669D01*
X9275Y26100D02*
X17169D01*
X9275Y26000D02*
X17269D01*
X9275Y26300D02*
X16969D01*
X9275Y26200D02*
X17069D01*
X9275Y25700D02*
X17569D01*
X9275Y25600D02*
X17669D01*
X9275Y25900D02*
X17369D01*
X9275Y25800D02*
X17469D01*
X9584Y35500D02*
X14281D01*
X9532Y35400D02*
X14275D01*
X9468Y35300D02*
X14277D01*
X9389Y35200D02*
X14287D01*
X10400Y30688D02*
Y31063D01*
X9291Y35100D02*
X14306D01*
X9275Y34800D02*
X14415D01*
X9275Y35000D02*
X14333D01*
X9275Y34900D02*
X14369D01*
X9275Y33800D02*
X14523D01*
X9275Y33700D02*
X14423D01*
X9275Y33663D02*
X11058D01*
X9275Y31063D02*
X11058D01*
X10300Y30688D02*
Y31063D01*
X10200Y30688D02*
Y31063D01*
X10100Y30688D02*
Y31063D01*
X10000Y30688D02*
Y31063D01*
X9900Y30688D02*
Y31063D01*
X9800Y30688D02*
Y31063D01*
X9275Y31000D02*
X13400D01*
X9275Y30900D02*
X13400D01*
X9275Y30800D02*
X13400D01*
X9275Y30700D02*
X13400D01*
X9275Y28000D02*
X13612D01*
X9275Y27900D02*
X13824D01*
X9275Y30688D02*
X11058D01*
X9275Y28088D02*
X11058D01*
X7100Y47038D02*
Y47750D01*
X7000Y47142D02*
Y47750D01*
X6900Y47225D02*
Y47750D01*
X6800Y47293D02*
Y47750D01*
X6700Y47348D02*
Y47750D01*
X7500Y38669D02*
Y47750D01*
X7400Y46240D02*
Y47750D01*
X7300Y46715D02*
Y47750D01*
X7200Y46903D02*
Y47750D01*
X6600Y47391D02*
Y47750D01*
X6500Y47425D02*
Y47750D01*
X6200Y47474D02*
Y47750D01*
X6100Y47474D02*
Y47750D01*
X6400Y47450D02*
Y47750D01*
X6300Y47466D02*
Y47750D01*
X6000Y47466D02*
Y47750D01*
X5900Y47450D02*
Y47750D01*
X7400Y38688D02*
Y46210D01*
X5800Y47425D02*
Y47750D01*
X5700Y47391D02*
Y47750D01*
X7300Y38698D02*
Y45735D01*
X7200Y38700D02*
Y45547D01*
X7100Y38694D02*
Y45412D01*
X7000Y38680D02*
Y45308D01*
X5600Y47347D02*
Y47750D01*
X5500Y47293D02*
Y47750D01*
X5400Y47225D02*
Y47750D01*
X5139Y44019D02*
X6189Y44976D01*
X5500Y40783D02*
Y44348D01*
X5400Y40783D02*
Y44257D01*
X5139Y40783D02*
X5539D01*
X5300Y47141D02*
Y47750D01*
X5200Y47037D02*
Y47750D01*
X5100Y46903D02*
Y47750D01*
X5000Y46715D02*
Y47750D01*
X4900Y46371D02*
Y47750D01*
X4800Y46280D02*
Y47750D01*
X4700Y46189D02*
Y47750D01*
X4600Y46098D02*
Y47750D01*
X4500Y46007D02*
Y47750D01*
X4400Y45916D02*
Y47750D01*
X4300Y45825D02*
Y47750D01*
X4200Y45734D02*
Y47750D01*
X4100Y45643D02*
Y47750D01*
X4000Y45552D02*
Y47750D01*
X3900Y45461D02*
Y47750D01*
X3800Y45370D02*
Y47750D01*
X3700Y45278D02*
Y47750D01*
X3550Y45142D02*
X4910Y46380D01*
X3600Y45187D02*
Y47750D01*
X3500Y45093D02*
Y47750D01*
X5300Y40783D02*
Y44166D01*
X5200Y40783D02*
Y44075D01*
X3400Y44968D02*
Y47750D01*
X5139Y40783D02*
Y44019D01*
X3300Y44774D02*
Y47750D01*
X3200Y40783D02*
Y47750D01*
X3100Y40783D02*
Y47750D01*
X3239Y40783D02*
Y44439D01*
X3000Y40783D02*
Y47750D01*
X2900Y40783D02*
Y47750D01*
X9200Y37025D02*
Y47750D01*
X9100Y37093D02*
Y47750D01*
X9000Y37148D02*
Y47750D01*
X8900Y37191D02*
Y47750D01*
X8800Y37225D02*
Y47750D01*
X9600Y36515D02*
Y47750D01*
X9500Y36703D02*
Y47750D01*
X9400Y36838D02*
Y47750D01*
X9300Y36942D02*
Y47750D01*
X8300Y38088D02*
Y47750D01*
X8200Y38232D02*
Y47750D01*
X8100Y38343D02*
Y47750D01*
X8000Y38431D02*
Y47750D01*
X8700Y37250D02*
Y47750D01*
X8600Y37266D02*
Y47750D01*
X8500Y37274D02*
Y47750D01*
X8400Y37877D02*
Y47750D01*
X7700Y38606D02*
Y47750D01*
X7600Y38642D02*
Y47750D01*
X6900Y38657D02*
Y45225D01*
X6800Y38625D02*
Y45157D01*
X7900Y38502D02*
Y47750D01*
X7800Y38560D02*
Y47750D01*
X6700Y38584D02*
Y45102D01*
X5539Y38700D02*
X7206D01*
X5539Y38600D02*
X6735D01*
X6600Y38532D02*
Y45059D01*
X5539Y38500D02*
X6547D01*
X6500Y38468D02*
Y45025D01*
X6400Y38389D02*
Y45000D01*
X5539Y38400D02*
X6412D01*
X6300Y38291D02*
Y44984D01*
X6200Y38165D02*
Y44976D01*
X6100Y37995D02*
Y44894D01*
X6000Y37698D02*
Y44803D01*
X5900Y35046D02*
Y44712D01*
X5800Y35034D02*
Y44621D01*
X5700Y35013D02*
Y44530D01*
X5600Y34984D02*
Y44439D01*
X5539Y38300D02*
X6308D01*
X5539Y38200D02*
X6225D01*
X5539Y38083D02*
Y40783D01*
Y38100D02*
X6157D01*
X5139Y38083D02*
X5539D01*
X5500Y34946D02*
Y38083D01*
X5400Y34897D02*
Y38083D01*
X5300Y34836D02*
Y38083D01*
X5139Y38000D02*
X6102D01*
X5139Y37900D02*
X6059D01*
X5139Y37800D02*
X6025D01*
X5139Y37700D02*
X6000D01*
X5139Y37600D02*
X5984D01*
X6000Y35050D02*
Y37202D01*
X5139Y36214D02*
Y38083D01*
X5200Y34760D02*
Y38083D01*
X5139Y37500D02*
X5976D01*
X5139Y37400D02*
X5976D01*
X5139Y37300D02*
X5984D01*
X5139Y37200D02*
X6000D01*
X3239Y36607D02*
Y38083D01*
X3200Y36568D02*
Y38083D01*
X3100Y36468D02*
Y38083D01*
X3000Y36368D02*
Y38083D01*
X800Y47400D02*
X5723D01*
X800Y47300D02*
X5512D01*
X800Y47200D02*
X5368D01*
X800Y47100D02*
X5257D01*
X800Y47000D02*
X5169D01*
X800Y46900D02*
X5098D01*
X800Y46800D02*
X5040D01*
X800Y46700D02*
X4994D01*
X800Y46600D02*
X4958D01*
X800Y46500D02*
X4931D01*
X800Y46400D02*
X4912D01*
X800Y46300D02*
X4821D01*
X800Y46200D02*
X4712D01*
X800Y46100D02*
X4602D01*
X800Y46000D02*
X4492D01*
X800Y45900D02*
X4382D01*
X800Y45800D02*
X4272D01*
X800Y45700D02*
X4163D01*
X800Y45600D02*
X4053D01*
X800Y45500D02*
X3943D01*
X800Y45400D02*
X3833D01*
X800Y45300D02*
X3723D01*
X800Y45200D02*
X3614D01*
X800Y45100D02*
X3507D01*
X800Y45000D02*
X3422D01*
X800Y44900D02*
X3358D01*
X800Y44800D02*
X3310D01*
X800Y44700D02*
X3275D01*
X800Y44600D02*
X3252D01*
X800Y44500D02*
X3241D01*
X800Y44400D02*
X3239D01*
X800Y44300D02*
X3239D01*
X800Y44200D02*
X3239D01*
X800Y44100D02*
X3239D01*
X800Y44000D02*
X3239D01*
X800Y43900D02*
X3239D01*
X800Y43800D02*
X3239D01*
X800Y43700D02*
X3239D01*
X800Y43600D02*
X3239D01*
X800Y43500D02*
X3239D01*
X800Y43400D02*
X3239D01*
X800Y43300D02*
X3239D01*
X800Y43200D02*
X3239D01*
X800Y43100D02*
X3239D01*
X800Y43000D02*
X3239D01*
X800Y42900D02*
X3239D01*
X800Y42800D02*
X3239D01*
X800Y42700D02*
X3239D01*
X800Y42600D02*
X3239D01*
X800Y42500D02*
X3239D01*
X800Y42400D02*
X3239D01*
X800Y42300D02*
X3239D01*
X800Y42200D02*
X3239D01*
X800Y42100D02*
X3239D01*
X800Y42000D02*
X3239D01*
X800Y41900D02*
X3239D01*
X800Y41800D02*
X3239D01*
X800Y41700D02*
X3239D01*
X800Y41600D02*
X3239D01*
X800Y41500D02*
X3239D01*
X800Y41400D02*
X3239D01*
X800Y41300D02*
X3239D01*
X800Y41200D02*
X3239D01*
X800Y41100D02*
X3239D01*
X800Y41000D02*
X3239D01*
X2839Y40783D02*
X3239D01*
X2631Y40400D02*
X2839D01*
X2724Y40300D02*
X2839D01*
X2800Y40200D02*
Y47750D01*
X2700Y40327D02*
Y47750D01*
X2839Y40140D02*
Y40783D01*
Y38083D02*
Y38726D01*
X2800Y36168D02*
Y38667D01*
X2700Y36068D02*
Y38539D01*
X800Y40900D02*
X3239D01*
X800Y40800D02*
X3239D01*
X2156Y40700D02*
X2839D01*
X2368Y40600D02*
X2839D01*
X2516Y40500D02*
X2839D01*
X2600Y40429D02*
Y47750D01*
X2664Y38500D02*
X2839D01*
X2557Y38400D02*
X2839D01*
X2422Y38300D02*
X2839D01*
X2238Y38200D02*
X2839D01*
Y38083D02*
X3239D01*
X800Y38000D02*
X3239D01*
X1900Y38100D02*
X2839D01*
X2900Y36268D02*
Y38083D01*
X800Y37900D02*
X3239D01*
X800Y37800D02*
X3239D01*
X800Y37700D02*
X3239D01*
X800Y37600D02*
X3239D01*
X800Y37500D02*
X3239D01*
X800Y37400D02*
X3239D01*
X800Y37300D02*
X3239D01*
X800Y37200D02*
X3239D01*
X2200Y40683D02*
Y47750D01*
X2000Y40747D02*
Y47750D01*
X1900Y40767D02*
Y47750D01*
X1800Y40779D02*
Y47750D01*
X2500Y40512D02*
Y47750D01*
X2400Y40581D02*
Y47750D01*
X2300Y40637D02*
Y47750D01*
X2100Y40719D02*
Y47750D01*
X1700Y40783D02*
Y47750D01*
X1600Y40780D02*
Y47750D01*
X1500Y40770D02*
Y47750D01*
X1400Y40752D02*
Y47750D01*
X1300Y40726D02*
Y47750D01*
X1200Y40692D02*
Y47750D01*
X1100Y40648D02*
Y47750D01*
X1000Y40594D02*
Y47750D01*
X2600Y35968D02*
Y38437D01*
X2500Y35868D02*
Y38354D01*
X2400Y35768D02*
Y38286D01*
X2300Y35668D02*
Y38230D01*
X2200Y35568D02*
Y38184D01*
X2100Y35458D02*
Y38147D01*
X2000Y35299D02*
Y38120D01*
X800Y40700D02*
X1222D01*
X800Y40600D02*
X1009D01*
X900Y40529D02*
Y47750D01*
X800Y40450D02*
Y47750D01*
Y38100D02*
X1477D01*
X800Y38300D02*
X955D01*
X800Y38200D02*
X1140D01*
X5139Y37000D02*
X6059D01*
X5139Y36800D02*
X6157D01*
X6300Y35013D02*
Y36609D01*
X5139Y37100D02*
X6025D01*
X5139Y36900D02*
X6103D01*
X6325Y35007D02*
Y36583D01*
X9700Y33663D02*
Y36010D01*
X6100Y35046D02*
Y36905D01*
X6200Y35034D02*
Y36735D01*
X5139Y36600D02*
X6309D01*
X5139Y36500D02*
X6325D01*
X5139Y36700D02*
X6225D01*
X5139Y36400D02*
X6325D01*
X5139Y36300D02*
X6325D01*
X5139Y36200D02*
X6325D01*
X5132Y36100D02*
X6325D01*
X5114Y36000D02*
X6325D01*
X5085Y35900D02*
X6325D01*
X9600Y33663D02*
Y35535D01*
X5044Y35800D02*
X6325D01*
X4988Y35700D02*
X6325D01*
X9500Y33663D02*
Y35347D01*
X9400Y33663D02*
Y35212D01*
X9300Y33663D02*
Y35108D01*
X9275Y33663D02*
Y35086D01*
X4914Y35600D02*
X6325D01*
X4818Y35500D02*
X6325D01*
X4718Y35400D02*
X6325D01*
X4618Y35300D02*
X6325D01*
X4518Y35200D02*
X6325D01*
X4418Y35100D02*
X6325D01*
X4318Y35000D02*
X5650D01*
X4218Y34900D02*
X5406D01*
X4118Y34800D02*
X5250D01*
X5100Y34667D02*
Y35945D01*
X5000Y34550D02*
Y35719D01*
X4900Y34394D02*
Y35584D01*
X4800Y34150D02*
Y35481D01*
X4018Y34700D02*
X5132D01*
X3918Y34600D02*
X5039D01*
X3800Y34481D02*
X4860Y35542D01*
X3818Y34500D02*
X4964D01*
X3800Y34400D02*
X4903D01*
X3800Y34300D02*
X4854D01*
X3800Y34200D02*
X4816D01*
X3800Y34100D02*
X4786D01*
X3800Y34000D02*
X4766D01*
X3800Y33900D02*
X4754D01*
X3800Y33800D02*
X4750D01*
X3800Y33700D02*
X4754D01*
X3800Y33400D02*
X4816D01*
X3800Y33300D02*
X4854D01*
X3800Y33600D02*
X4766D01*
X3800Y33500D02*
X4787D01*
X3800Y33000D02*
X5040D01*
X3800Y32900D02*
X5133D01*
X3800Y33200D02*
X4903D01*
X3800Y33100D02*
X4964D01*
X3800Y32800D02*
X5162D01*
X3800Y32700D02*
X5162D01*
X3800Y32600D02*
X5162D01*
X3800Y32500D02*
X5162D01*
X3800Y32400D02*
X5162D01*
X3800Y32300D02*
X5162D01*
X3800Y32200D02*
X5162D01*
X3800Y32100D02*
X5162D01*
X3800Y32000D02*
X5162D01*
X9700Y30688D02*
Y31063D01*
X9600Y30688D02*
Y31063D01*
X9500Y30688D02*
Y31063D01*
X9400Y30688D02*
Y31063D01*
X3800Y31900D02*
X5162D01*
X3800Y31800D02*
X5162D01*
X3800Y31700D02*
X5162D01*
X3800Y31600D02*
X5162D01*
X3800Y31500D02*
X5162D01*
X3800Y31400D02*
X5162D01*
X3800Y31300D02*
X5162D01*
X3800Y31200D02*
X5162D01*
X3800Y31100D02*
X5162D01*
X3800Y31000D02*
X5162D01*
X3800Y30900D02*
X5162D01*
X3800Y30800D02*
X5162D01*
X9300Y30688D02*
Y31063D01*
X9275Y30688D02*
Y31063D01*
X3800Y30700D02*
X5162D01*
X3800Y30600D02*
X5162D01*
X3800Y30500D02*
X5162D01*
X3800Y30400D02*
X5162D01*
X3800Y30300D02*
X5162D01*
X3800Y30200D02*
X5162D01*
X3800Y30100D02*
X5162D01*
X3800Y30000D02*
X5162D01*
X3800Y29900D02*
X5162D01*
X3800Y29800D02*
X5162D01*
X3800Y29700D02*
X5162D01*
X3800Y29600D02*
X5162D01*
X3800Y29500D02*
X5162D01*
X3800Y29400D02*
X5162D01*
X3800Y29300D02*
X5162D01*
X3800Y29200D02*
X5162D01*
X3800Y29100D02*
X5162D01*
X3800Y29000D02*
X5162D01*
X3800Y28900D02*
X5162D01*
X3800Y28800D02*
X5162D01*
X3800Y28700D02*
X5162D01*
X3800Y28600D02*
X5162D01*
X3800Y28500D02*
X5162D01*
X3800Y28400D02*
X5162D01*
X3800Y28300D02*
X5162D01*
X3800Y28200D02*
X5162D01*
X3800Y28100D02*
X5162D01*
X3800Y28000D02*
X5162D01*
X3800Y27900D02*
X5162D01*
X3800Y27800D02*
X5162D01*
X3800Y27700D02*
X5162D01*
X3800Y27600D02*
X5162D01*
X3800Y27500D02*
X5162D01*
X3800Y27400D02*
X5162D01*
X3800Y27300D02*
X5162D01*
X3800Y27200D02*
X5162D01*
X3800Y27100D02*
X5162D01*
X3800Y27000D02*
X5162D01*
X3800Y26900D02*
X5162D01*
X3800Y26800D02*
X5162D01*
X3800Y26700D02*
X5162D01*
X3800Y26600D02*
X5162D01*
X800Y37100D02*
X3239D01*
X800Y37000D02*
X3239D01*
X800Y36900D02*
X3239D01*
X800Y36800D02*
X3239D01*
X800Y36700D02*
X3239D01*
X2178Y35547D02*
X3239Y36607D01*
X800Y36600D02*
X3231D01*
X800Y36500D02*
X3131D01*
X800Y36400D02*
X3031D01*
X800Y36300D02*
X2931D01*
X800Y36200D02*
X2831D01*
X800Y36100D02*
X2731D01*
X800Y36000D02*
X2631D01*
X800Y35900D02*
X2531D01*
X800Y35800D02*
X2431D01*
X800Y35700D02*
X2331D01*
X800Y35600D02*
X2231D01*
X800Y35500D02*
X2134D01*
X800Y35400D02*
X2058D01*
X800Y35300D02*
X2000D01*
X800Y35200D02*
X1957D01*
X800Y35100D02*
X1927D01*
X800Y35000D02*
X1908D01*
X800Y34900D02*
X1900D01*
X800Y34800D02*
X1900D01*
X800Y34700D02*
X1900D01*
X800Y34600D02*
X1900D01*
X800Y34500D02*
X1900D01*
X800Y34400D02*
X1900D01*
X800Y34300D02*
X1900D01*
X800Y34200D02*
X1900D01*
X800Y34100D02*
X1900D01*
X800Y34000D02*
X1900D01*
X800Y33900D02*
X1900D01*
X800Y33800D02*
X1900D01*
X800Y33700D02*
X1900D01*
X800Y33600D02*
X1900D01*
X800Y33500D02*
X1900D01*
X800Y33400D02*
X1900D01*
X800Y33300D02*
X1900D01*
X800Y33200D02*
X1900D01*
X800Y33100D02*
X1900D01*
X800Y33000D02*
X1900D01*
X800Y32900D02*
X1900D01*
X800Y32800D02*
X1900D01*
X800Y32700D02*
X1900D01*
X800Y32600D02*
X1900D01*
X800Y32500D02*
X1900D01*
X800Y32400D02*
X1900D01*
X800Y32300D02*
X1900D01*
X800Y32200D02*
X1900D01*
X800Y32100D02*
X1900D01*
X800Y32000D02*
X1900D01*
X800Y31900D02*
X1900D01*
X800Y31800D02*
X1900D01*
X800Y31700D02*
X1900D01*
X800Y31600D02*
X1900D01*
X800Y31500D02*
X1900D01*
X800Y31400D02*
X1900D01*
X800Y31300D02*
X1900D01*
X800Y31200D02*
X1900D01*
X800Y31100D02*
X1900D01*
X800Y31000D02*
X1900D01*
X800Y30900D02*
X1900D01*
X800Y30800D02*
X1900D01*
X800Y30700D02*
X1900D01*
X800Y30600D02*
X1900D01*
X800Y30500D02*
X1900D01*
X800Y30400D02*
X1900D01*
X800Y30300D02*
X1900D01*
X800Y30200D02*
X1900D01*
X800Y30100D02*
X1900D01*
X800Y30000D02*
X1900D01*
X800Y29900D02*
X1900D01*
X800Y29800D02*
X1900D01*
X800Y29700D02*
X1900D01*
X800Y29600D02*
X1900D01*
X800Y29500D02*
X1900D01*
X800Y29400D02*
X1900D01*
X3800Y26500D02*
X5162D01*
X3800Y26400D02*
X5162D01*
X3800Y26300D02*
X5162D01*
X3800Y26200D02*
X5162D01*
X3800Y26100D02*
X5162D01*
X3800Y26000D02*
X5162D01*
X3800Y25900D02*
X5162D01*
X3800Y25800D02*
X5162D01*
X800Y29300D02*
X1900D01*
X800Y29200D02*
X1900D01*
X800Y29100D02*
X1900D01*
X800Y29000D02*
X1900D01*
X3800Y25700D02*
X5162D01*
X3800Y25600D02*
X5162D01*
X800Y28900D02*
X1900D01*
X800Y28800D02*
X1900D01*
X800Y28700D02*
X1900D01*
X800Y28600D02*
X1900D01*
X800Y28500D02*
X1900D01*
X800Y28400D02*
X1900D01*
X800Y28300D02*
X1900D01*
X800Y28200D02*
X1900D01*
X800Y28100D02*
X1900D01*
X800Y28000D02*
X1900D01*
X800Y27900D02*
X1900D01*
X800Y27800D02*
X1900D01*
X800Y27700D02*
X1900D01*
X800Y27600D02*
X1900D01*
X800Y27500D02*
X1900D01*
X800Y27400D02*
X1900D01*
X800Y27300D02*
X1900D01*
X800Y27200D02*
X1900D01*
X800Y27100D02*
X1900D01*
X800Y27000D02*
X1900D01*
X800Y26900D02*
X1900D01*
X800Y26800D02*
X1900D01*
X800Y26700D02*
X1900D01*
X800Y26600D02*
X1900D01*
X800Y26500D02*
X1900D01*
X800Y26400D02*
X1900D01*
X800Y26300D02*
X1900D01*
X800Y26200D02*
X1900D01*
X800Y26100D02*
X1900D01*
X800Y26000D02*
X1900D01*
X800Y25900D02*
X1900D01*
X800Y25800D02*
X1900D01*
X800Y25700D02*
X1900D01*
X800Y25600D02*
X1900D01*
X19658Y23000D02*
X20269D01*
X19558Y22900D02*
X20369D01*
X19458Y22800D02*
X20469D01*
X19858Y23200D02*
X20069D01*
X19758Y23100D02*
X20169D01*
X19964Y23305D02*
X22108Y21160D01*
X19158Y22500D02*
X20769D01*
X19358Y22700D02*
X20569D01*
X19258Y22600D02*
X20669D01*
X19058Y22400D02*
X20869D01*
X18958Y22300D02*
X20969D01*
X18062Y21404D02*
X19963Y23306D01*
X18858Y22200D02*
X21069D01*
X18900Y18807D02*
Y22242D01*
X18800Y18807D02*
Y22142D01*
X18558Y21900D02*
X21369D01*
X18458Y21800D02*
X21469D01*
X18758Y22100D02*
X21169D01*
X18658Y22000D02*
X21269D01*
X18700Y18807D02*
Y22042D01*
X18963Y18800D02*
X24073D01*
X18600Y18807D02*
Y21942D01*
X18500Y18807D02*
Y21842D01*
X18258Y21600D02*
X21669D01*
X18158Y21500D02*
X21769D01*
X18358Y21700D02*
X21569D01*
X17866Y21600D02*
X18258D01*
X18400Y18807D02*
Y21742D01*
X18300Y18807D02*
Y21642D01*
X18200Y18807D02*
Y21542D01*
X17966Y21500D02*
X18158D01*
X17300Y25026D02*
Y25969D01*
X17400Y25126D02*
Y25869D01*
X17100Y24826D02*
Y26169D01*
X17200Y24926D02*
Y26069D01*
X16900Y24626D02*
Y26369D01*
X17000Y24726D02*
Y26269D01*
X16700Y24426D02*
Y26569D01*
X16800Y24526D02*
Y26469D01*
X16500Y24226D02*
Y26769D01*
X16600Y24326D02*
Y26669D01*
X16300Y24026D02*
Y26969D01*
X16400Y24126D02*
Y26869D01*
X16100Y23826D02*
Y27169D01*
X16200Y23926D02*
Y27069D01*
X15900Y23626D02*
Y27369D01*
X16000Y23726D02*
Y27269D01*
X18000Y18807D02*
Y21466D01*
X18100Y18807D02*
Y21442D01*
X17600Y25326D02*
Y25669D01*
X17700Y25426D02*
Y25569D01*
X17800Y18807D02*
Y21666D01*
X17900Y18807D02*
Y21566D01*
X17600Y18807D02*
Y21866D01*
X17700Y18807D02*
Y21766D01*
X17500Y25226D02*
Y25769D01*
X15870Y23596D02*
X17771Y25498D01*
X16100Y23366D02*
Y23826D01*
X16000Y23466D02*
Y23726D01*
X15870Y23596D02*
X18062Y21404D01*
X17400Y18807D02*
Y22066D01*
X17500Y18807D02*
Y21966D01*
X20200Y8463D02*
Y23069D01*
X20100Y8483D02*
Y23169D01*
X20500Y8355D02*
Y22769D01*
X20000Y8495D02*
Y23269D01*
X19900Y17550D02*
Y23242D01*
X20600Y8301D02*
Y22669D01*
X20700Y8235D02*
Y22569D01*
X20300Y8436D02*
Y22969D01*
X20400Y8400D02*
Y22869D01*
X19400Y18236D02*
Y22742D01*
X19300Y18297D02*
Y22642D01*
X16800Y18807D02*
Y22666D01*
X19200Y18346D02*
Y22542D01*
X19800Y17794D02*
Y23142D01*
X19700Y17950D02*
Y23042D01*
X19600Y18068D02*
Y22942D01*
X19500Y18161D02*
Y22842D01*
X18963Y18600D02*
X24232D01*
X19050Y18400D02*
X24275D01*
X19100Y18384D02*
Y22442D01*
X18963Y18700D02*
X24144D01*
X20800Y8155D02*
Y22469D01*
X19294Y18300D02*
X24275D01*
X19000Y18413D02*
Y22342D01*
X18963Y18422D02*
Y18807D01*
X17200D02*
Y22266D01*
X17300Y18807D02*
Y22166D01*
X17000Y18807D02*
Y22466D01*
X17100Y18807D02*
Y22366D01*
X18963Y18500D02*
X24275D01*
X16900Y18807D02*
Y22566D01*
X16163Y18807D02*
X18963D01*
X15300D02*
Y27969D01*
X15400Y18807D02*
Y27869D01*
X15100Y18807D02*
Y28158D01*
X15200Y18807D02*
Y28069D01*
X15000Y18807D02*
Y28075D01*
X14900Y18807D02*
Y28007D01*
X14800Y18807D02*
Y27952D01*
X14700Y18807D02*
Y27909D01*
X14600Y18807D02*
Y27875D01*
X14500Y18807D02*
Y27850D01*
X14400Y18807D02*
Y27834D01*
X14300Y18807D02*
Y27826D01*
X13900Y18807D02*
Y27875D01*
X13800Y18807D02*
Y27909D01*
X13700Y18807D02*
Y27953D01*
X13600Y18807D02*
Y28007D01*
X16600Y18807D02*
Y22866D01*
X16700Y18807D02*
Y22766D01*
X16400Y18807D02*
Y23066D01*
X16500Y18807D02*
Y22966D01*
X16200Y18807D02*
Y23266D01*
X16300Y18807D02*
Y23166D01*
X15900Y18807D02*
Y23566D01*
X16000Y18807D02*
Y23466D01*
X15700Y18807D02*
Y27569D01*
X15800Y18807D02*
Y27469D01*
X15500Y18807D02*
Y27769D01*
X15600Y18807D02*
Y27669D01*
X14200Y18807D02*
Y27826D01*
X14100Y18807D02*
Y27834D01*
X14000Y18807D02*
Y27850D01*
X9275Y25500D02*
X17769D01*
X9275Y25400D02*
X17674D01*
X9275Y25300D02*
X17574D01*
X9275Y25200D02*
X17474D01*
X9275Y25100D02*
X17374D01*
X9275Y25000D02*
X17274D01*
X9275Y24900D02*
X17174D01*
X12889Y23100D02*
X16366D01*
X12922Y23000D02*
X16466D01*
X9275Y24800D02*
X17074D01*
X9275Y24700D02*
X16974D01*
X9275Y24600D02*
X16874D01*
X9275Y24500D02*
X16774D01*
X9275Y24400D02*
X16674D01*
X9275Y24300D02*
X16574D01*
X9275Y24200D02*
X16474D01*
X9275Y24100D02*
X16374D01*
X12973Y22700D02*
X16766D01*
X12975Y22600D02*
X16866D01*
X12946Y22900D02*
X16566D01*
X12963Y22800D02*
X16666D01*
X12939Y22300D02*
X17166D01*
X12912Y22200D02*
X17266D01*
X12970Y22500D02*
X16966D01*
X12958Y22400D02*
X17066D01*
X12777Y21900D02*
X17566D01*
X12712Y21800D02*
X17666D01*
X12876Y22100D02*
X17366D01*
X12832Y22000D02*
X17466D01*
X12419Y21500D02*
X17966D01*
X12267Y21400D02*
X21869D01*
X12633Y21700D02*
X17766D01*
X12537Y21600D02*
X17866D01*
X12500Y23668D02*
Y28111D01*
X12400Y23749D02*
Y28096D01*
X12000Y23951D02*
Y28114D01*
X11900Y23979D02*
Y28138D01*
X12900Y23070D02*
Y28258D01*
X12800Y23296D02*
Y28207D01*
X12700Y23451D02*
Y28166D01*
X12600Y23571D02*
Y28134D01*
X11700Y24012D02*
Y28214D01*
X11600Y24017D02*
Y28267D01*
X11400Y24006D02*
Y28412D01*
X11500Y24015D02*
Y28332D01*
X11300Y23990D02*
Y28510D01*
X11800Y23999D02*
Y28172D01*
X11100Y23934D02*
Y28798D01*
X11200Y23966D02*
Y28633D01*
X12324Y23800D02*
X16074D01*
X12463Y23700D02*
X15974D01*
X12300Y23815D02*
Y28089D01*
X12572Y23600D02*
X15874D01*
X12797Y23300D02*
X16166D01*
X12848Y23200D02*
X16266D01*
X12662Y23500D02*
X15966D01*
X12736Y23400D02*
X16066D01*
X12200Y23870D02*
Y28090D01*
X11795Y24000D02*
X16274D01*
X12100Y23915D02*
Y28098D01*
X9275Y24000D02*
X11356D01*
X11000Y23894D02*
Y28088D01*
X12136Y23900D02*
X16174D01*
X10900Y23844D02*
Y28088D01*
X9275Y23900D02*
X11014D01*
X9975Y21100D02*
X22176D01*
X9975Y21000D02*
X22337D01*
X9975Y20900D02*
X31620D01*
X12049Y21300D02*
X21969D01*
X9975Y21200D02*
X22069D01*
X13500Y18807D02*
Y28075D01*
X9975Y20800D02*
X31565D01*
X13300Y18807D02*
Y28263D01*
X13400Y18807D02*
Y28159D01*
X9975Y20700D02*
X24876D01*
X9975Y20600D02*
X24580D01*
X9975Y20500D02*
X24409D01*
X9975Y20400D02*
X24284D01*
X9975Y20300D02*
X24186D01*
X9975Y20200D02*
X24107D01*
X9975Y20100D02*
X24042D01*
X9975Y20000D02*
X23991D01*
X9975Y19900D02*
X23949D01*
X11795Y19000D02*
X23969D01*
X12136Y18900D02*
X24015D01*
X13263Y18807D02*
X16063D01*
X12324Y18800D02*
X13263D01*
X12463Y18700D02*
X13263D01*
X12572Y18600D02*
X13263D01*
X12662Y18500D02*
X13263D01*
X9975Y19800D02*
X23918D01*
X9975Y19700D02*
X23895D01*
X9975Y19600D02*
X23881D01*
X9975Y19500D02*
X23875D01*
X9975Y19400D02*
X23877D01*
X9975Y19300D02*
X23887D01*
X9975Y19200D02*
X23906D01*
X9975Y19100D02*
X23933D01*
X12800Y18296D02*
Y21939D01*
X12700Y18451D02*
Y21784D01*
X12600Y18571D02*
Y21663D01*
X12500Y18668D02*
Y21566D01*
X13200Y8138D02*
Y28397D01*
X13100Y8220D02*
Y28398D01*
X13000Y8289D02*
Y28321D01*
X12900Y18070D02*
Y22164D01*
X12200Y18870D02*
Y21364D01*
X9975Y21400D02*
X10884D01*
X9975Y21300D02*
X11101D01*
X12400Y18749D02*
Y21486D01*
X12300Y18815D02*
Y21419D01*
X10900Y18844D02*
Y21391D01*
X12100Y18915D02*
Y21319D01*
X12000Y18951D02*
Y21283D01*
X11700Y19012D02*
Y21223D01*
X11600Y19017D02*
Y21217D01*
X11500Y19015D02*
Y21219D01*
X13263Y15707D02*
Y18807D01*
X12736Y18400D02*
X13263D01*
X11900Y18979D02*
Y21255D01*
X11800Y18999D02*
Y21235D01*
X11400Y19006D02*
Y21228D01*
X11300Y18990D02*
Y21245D01*
X11100Y18934D02*
Y21300D01*
X11200Y18966D02*
Y21268D01*
X9975Y19000D02*
X11356D01*
X11000Y18894D02*
Y21341D01*
X9975Y18900D02*
X11014D01*
X19846Y17700D02*
X24275D01*
X19884Y17600D02*
X24275D01*
X19913Y17500D02*
X24275D01*
X19934Y17400D02*
X24275D01*
X19946Y17300D02*
X24275D01*
X19950Y17200D02*
X24275D01*
X19946Y17100D02*
X24275D01*
X19934Y17000D02*
X24275D01*
X19913Y16900D02*
X24275D01*
X19450Y18200D02*
X24275D01*
X19568Y18100D02*
X24275D01*
X19661Y18000D02*
X24275D01*
X19736Y17900D02*
X24275D01*
X19797Y17800D02*
X24275D01*
X19884Y16800D02*
X24275D01*
X19900Y8500D02*
Y16850D01*
X19846Y16700D02*
X24275D01*
X19797Y16600D02*
X24275D01*
X19736Y16500D02*
X24275D01*
X19660Y16400D02*
X24275D01*
X19895Y8500D02*
X22405D01*
X20400Y8400D02*
X21900D01*
X19800Y8498D02*
Y16606D01*
X19700Y8488D02*
Y16450D01*
X19567Y16300D02*
X24275D01*
X19450Y16200D02*
X24275D01*
X19294Y16100D02*
X24275D01*
X19050Y16000D02*
X24275D01*
X18963Y15900D02*
X24275D01*
X18963Y15800D02*
X24275D01*
X19600Y8472D02*
Y16332D01*
X17355Y8500D02*
X19865D01*
X19500Y8447D02*
Y16239D01*
X18963Y15707D02*
Y15978D01*
X17700Y8453D02*
Y15707D01*
X17600Y8476D02*
Y15707D01*
X19400Y8415D02*
Y16164D01*
X19300Y8374D02*
Y16103D01*
X17900Y8383D02*
Y15707D01*
X17500Y8491D02*
Y15707D01*
X12946Y17900D02*
X13263D01*
X12963Y17800D02*
X13263D01*
X12973Y17700D02*
X13263D01*
X12975Y17600D02*
X13263D01*
X16163Y15707D02*
X18963D01*
X12970Y17500D02*
X13263D01*
X17400Y8499D02*
Y15707D01*
X17300Y8499D02*
Y15707D01*
X17200Y8493D02*
Y15707D01*
X17100Y8479D02*
Y15707D01*
X17000Y8458D02*
Y15707D01*
X15200Y8442D02*
Y15707D01*
X15100Y8467D02*
Y15707D01*
X15000Y8486D02*
Y15707D01*
X13263D02*
X16063D01*
X14815Y8500D02*
X17325D01*
X14900Y8496D02*
Y15707D01*
X14800Y8500D02*
Y15707D01*
X14700Y8496D02*
Y15707D01*
X14600Y8486D02*
Y15707D01*
X14500Y8467D02*
Y15707D01*
X14400Y8442D02*
Y15707D01*
X19200Y8324D02*
Y16054D01*
X19100Y8263D02*
Y16016D01*
X19000Y8189D02*
Y15987D01*
X18900Y8100D02*
Y15707D01*
X18800Y7991D02*
Y15707D01*
X18700Y7853D02*
Y15707D01*
X18600Y7710D02*
Y15707D01*
X18500Y7884D02*
Y15707D01*
X18400Y8015D02*
Y15707D01*
X18100Y8276D02*
Y15707D01*
X17800Y8422D02*
Y15707D01*
X16900Y8429D02*
Y15707D01*
X16800Y8392D02*
Y15707D01*
X18300Y8119D02*
Y15707D01*
X18200Y8205D02*
Y15707D01*
X18000Y8335D02*
Y15707D01*
X16700Y8345D02*
Y15707D01*
X20601Y8300D02*
X21699D01*
X20746Y8200D02*
X21554D01*
X18206D02*
X19014D01*
X18320Y8100D02*
X18900D01*
X18412Y8000D02*
X18808D01*
X18489Y7900D02*
X18731D01*
X18552Y7800D02*
X18668D01*
X17860Y8400D02*
X19360D01*
X18061Y8300D02*
X19159D01*
X16600Y8288D02*
Y15707D01*
X15320Y8400D02*
X16820D01*
X15521Y8300D02*
X16619D01*
X16500Y8220D02*
Y15707D01*
X15666Y8200D02*
X16474D01*
X16400Y8137D02*
Y15707D01*
X16300Y8037D02*
Y15707D01*
X15700Y8172D02*
Y15707D01*
X15600Y8249D02*
Y15707D01*
X16200Y7912D02*
Y15707D01*
X16000Y7821D02*
Y15707D01*
X15900Y7966D02*
Y15707D01*
X15800Y8080D02*
Y15707D01*
X15400Y8365D02*
Y15707D01*
X15300Y8408D02*
Y15707D01*
X14300Y8408D02*
Y15707D01*
X14200Y8365D02*
Y15707D01*
X15500Y8312D02*
Y15707D01*
X14100Y8312D02*
Y15707D01*
X14000Y8249D02*
Y15707D01*
X13900Y8172D02*
Y15707D01*
X15780Y8100D02*
X16360D01*
X15872Y8000D02*
X16268D01*
X13800Y8080D02*
Y15707D01*
X13700Y7966D02*
Y15707D01*
X15949Y7900D02*
X16191D01*
X16012Y7800D02*
X16128D01*
X13600Y7821D02*
Y15707D01*
X13126Y8200D02*
X13934D01*
X13240Y8100D02*
X13820D01*
X13300Y8037D02*
Y15707D01*
X13332Y8000D02*
X13728D01*
X13409Y7900D02*
X13651D01*
X13472Y7800D02*
X13588D01*
X13500Y7750D02*
Y15707D01*
X13400Y7913D02*
Y15707D01*
X10259Y15700D02*
X24275D01*
X4375Y14500D02*
X24288D01*
X4375Y14400D02*
X24313D01*
X10207Y15600D02*
X24275D01*
X10143Y15500D02*
X24275D01*
X4375Y14100D02*
X24450D01*
X4375Y14000D02*
X24452D01*
X4375Y14300D02*
X24350D01*
X4375Y14200D02*
X24404D01*
X4375Y13900D02*
X24462D01*
X4375Y13600D02*
X24544D01*
X4375Y13800D02*
X24481D01*
X4375Y13700D02*
X24508D01*
X4375Y13300D02*
X24719D01*
X4375Y13200D02*
X24807D01*
X4375Y13500D02*
X24590D01*
X4375Y13400D02*
X24648D01*
X4375Y12900D02*
X25274D01*
X4375Y12800D02*
X26650D01*
X4375Y13100D02*
X24918D01*
X4375Y13000D02*
X25062D01*
X4375Y12700D02*
X26650D01*
X4375Y12600D02*
X26650D01*
X4375Y12500D02*
X26650D01*
X4375Y12400D02*
X26650D01*
X4375Y12300D02*
X26650D01*
X4375Y12200D02*
X26650D01*
X4375Y12100D02*
X26650D01*
X4375Y12000D02*
X26650D01*
X4375Y11900D02*
X26650D01*
X4375Y11800D02*
X26650D01*
X4375Y11700D02*
X26650D01*
X4375Y11600D02*
X26650D01*
X12797Y18300D02*
X13263D01*
X12848Y18200D02*
X13263D01*
X12889Y18100D02*
X13263D01*
X12922Y18000D02*
X13263D01*
X12958Y17400D02*
X13263D01*
X12939Y17300D02*
X13263D01*
X12912Y17200D02*
X13263D01*
X12876Y17100D02*
X13263D01*
X12832Y17000D02*
X13263D01*
X12777Y16900D02*
X13263D01*
X12712Y16800D02*
X13263D01*
X12633Y16700D02*
X13263D01*
X12537Y16600D02*
X13263D01*
X12419Y16500D02*
X13263D01*
X12267Y16400D02*
X13263D01*
X10363D02*
X10884D01*
X12049Y16300D02*
X13263D01*
X10375Y16200D02*
X13263D01*
X10373Y16300D02*
X11101D01*
X10369Y16100D02*
X13263D01*
X10355Y16000D02*
X13263D01*
X10064Y15400D02*
X24275D01*
X10332Y15900D02*
X13263D01*
X10300Y15800D02*
X13263D01*
X9966Y15300D02*
X24275D01*
X9840Y15200D02*
X24275D01*
X9670Y15100D02*
X24275D01*
X9373Y15000D02*
X24275D01*
X4375Y14900D02*
X24275D01*
X4375Y14800D02*
X24275D01*
X4375Y14700D02*
X24275D01*
X4375Y14600D02*
X24276D01*
X4719Y10700D02*
X26650D01*
X4819Y10600D02*
X26650D01*
X4919Y10500D02*
X26650D01*
X5019Y10400D02*
X26650D01*
X5119Y10300D02*
X26650D01*
X5219Y10200D02*
X26650D01*
X5319Y10100D02*
X26650D01*
X5404Y10000D02*
X26650D01*
X4375Y11500D02*
X26650D01*
X4375Y11400D02*
X26650D01*
X4375Y11300D02*
X26650D01*
X4375Y11200D02*
X26650D01*
X4375Y11100D02*
X26650D01*
X4419Y11000D02*
X26650D01*
X4519Y10900D02*
X26650D01*
X4619Y10800D02*
X26650D01*
X5517Y9800D02*
X26650D01*
X5552Y9700D02*
X26650D01*
X5576Y9600D02*
X26650D01*
X5588Y9500D02*
X26650D01*
X5590Y9400D02*
X26650D01*
X5590Y9300D02*
X26650D01*
X12275Y8500D02*
X14785D01*
X12780Y8400D02*
X14280D01*
X5468Y9900D02*
X26650D01*
X5590Y9200D02*
X26650D01*
X5590Y9100D02*
X26650D01*
X5590Y9000D02*
X26650D01*
X5590Y8900D02*
X26650D01*
X5590Y8800D02*
X26650D01*
X5590Y8700D02*
X26650D01*
X5590Y8600D02*
X26650D01*
X12600Y8458D02*
Y16663D01*
X12500Y8479D02*
Y16566D01*
X12400Y8493D02*
Y16486D01*
X12300Y8499D02*
Y16419D01*
X12900Y8345D02*
Y17164D01*
X12800Y8392D02*
Y16939D01*
X12700Y8429D02*
Y16784D01*
X12200Y8499D02*
Y16364D01*
X12100Y8491D02*
Y16319D01*
X12000Y8476D02*
Y16283D01*
X11900Y8453D02*
Y16255D01*
X11800Y8422D02*
Y16235D01*
X11100Y7884D02*
Y16300D01*
X11700Y8383D02*
Y16223D01*
X10900Y7854D02*
Y16391D01*
X11000Y7710D02*
Y16341D01*
X11600Y8335D02*
Y16217D01*
X12981Y8300D02*
X14079D01*
X11500Y8276D02*
Y16219D01*
X11400Y8205D02*
Y16228D01*
X11300Y8119D02*
Y16245D01*
X11200Y8014D02*
Y16268D01*
X10932Y7800D02*
X11048D01*
X9735Y8500D02*
X12245D01*
X10240Y8400D02*
X11740D01*
X10441Y8300D02*
X11539D01*
X10586Y8200D02*
X11394D01*
X10700Y8100D02*
X11280D01*
X10792Y8000D02*
X11188D01*
X10869Y7900D02*
X11111D01*
X10800Y23783D02*
Y28088D01*
X10700Y23710D02*
Y28088D01*
X9275Y23800D02*
X10826D01*
X10600Y23622D02*
Y28088D01*
X10500Y23514D02*
Y28088D01*
X10400Y23378D02*
Y28088D01*
X10300Y23195D02*
Y28088D01*
X10200Y22879D02*
Y28088D01*
X9900Y22124D02*
Y28088D01*
X9275Y23700D02*
X10688D01*
X9275Y23600D02*
X10578D01*
X9275Y23500D02*
X10489D01*
X9275Y23400D02*
X10414D01*
X9275Y23300D02*
X10353D01*
X9275Y23200D02*
X10302D01*
X9275Y23100D02*
X10261D01*
X9275Y23000D02*
X10229D01*
X9794Y22300D02*
X10212D01*
X9945Y22000D02*
X10319D01*
X9861Y22200D02*
X10239D01*
X9910Y22100D02*
X10274D01*
X9975Y21700D02*
X10518D01*
X9975Y21600D02*
X10613D01*
X9966Y21900D02*
X10373D01*
X9975Y21800D02*
X10439D01*
X9275Y22900D02*
X10204D01*
X9302Y22800D02*
X10187D01*
X9402Y22700D02*
X10178D01*
X9502Y22600D02*
X10175D01*
X9602Y22500D02*
X10180D01*
X9702Y22400D02*
X10192D01*
X9400Y22702D02*
Y28088D01*
X9300Y22802D02*
Y28088D01*
X5162Y25005D02*
Y32872D01*
X9275Y22827D02*
Y28088D01*
X9800Y22292D02*
Y28088D01*
X9700Y22402D02*
Y28088D01*
X9600Y22502D02*
Y28088D01*
X9500Y22602D02*
Y28088D01*
X3800Y25500D02*
X5162D01*
X3800Y25400D02*
X5162D01*
X3800Y25300D02*
X5162D01*
X3800Y25200D02*
X5162D01*
X5100Y24937D02*
Y32933D01*
X3800Y25100D02*
X5162D01*
X4900Y24615D02*
Y33206D01*
X5000Y24803D02*
Y33050D01*
X3800Y25000D02*
X5157D01*
X3800Y24900D02*
X5069D01*
X3800Y24800D02*
X4998D01*
X6200Y22732D02*
Y22884D01*
X9275Y22827D02*
X9726Y22376D01*
X6100Y22588D02*
Y22876D01*
X6000Y22376D02*
Y22876D01*
X3800Y24700D02*
X4940D01*
X3800Y24600D02*
X4894D01*
X3800Y24500D02*
X4858D01*
X3800Y24400D02*
X4831D01*
X3800Y24300D02*
X4812D01*
X3800Y24200D02*
X4802D01*
X3800Y24100D02*
X4800D01*
X3800Y24000D02*
X4806D01*
X10700Y18710D02*
Y21525D01*
X10600Y18622D02*
Y21613D01*
X10800Y18783D02*
Y21451D01*
X10400Y18378D02*
Y21856D01*
X10500Y18514D02*
Y21721D01*
X10200Y17879D02*
Y22355D01*
X10300Y18195D02*
Y22040D01*
X10100Y17007D02*
Y28088D01*
X10000Y17118D02*
Y28088D01*
X9975Y21500D02*
X10732D01*
X8175Y21200D02*
X8275D01*
X8091Y21100D02*
X8275D01*
X9975Y17142D02*
Y21775D01*
X8275Y17142D02*
Y21356D01*
X8200Y17066D02*
Y21234D01*
X8100Y16940D02*
Y21109D01*
X7987Y21000D02*
X8275D01*
X7853Y20900D02*
X8275D01*
X8000Y16770D02*
Y21011D01*
X7665Y20800D02*
X8275D01*
X7900Y16473D02*
Y20932D01*
X7800Y8355D02*
Y20867D01*
X7700Y8400D02*
Y20816D01*
X7600Y8436D02*
Y20774D01*
X3894Y19000D02*
X8275D01*
X3994Y18900D02*
X8275D01*
X7500Y8463D02*
Y20743D01*
X7400Y8483D02*
Y20720D01*
X7300Y8495D02*
Y20706D01*
X7200Y8500D02*
Y20700D01*
X7000Y8488D02*
Y20712D01*
X7100Y8498D02*
Y20702D01*
X4800Y10619D02*
Y33450D01*
X4900Y10519D02*
Y23635D01*
X4700Y10719D02*
Y35381D01*
X4600Y10819D02*
Y35281D01*
X5200Y10219D02*
Y23209D01*
X5300Y10119D02*
Y23125D01*
X5000Y10419D02*
Y23447D01*
X5100Y10319D02*
Y23313D01*
X4100Y18794D02*
Y34781D01*
X4000Y18894D02*
Y34681D01*
X3900Y18994D02*
Y34581D01*
X3800Y19094D02*
Y34481D01*
X4500Y10919D02*
Y35181D01*
X4400Y11019D02*
Y35081D01*
X4300Y18495D02*
Y34981D01*
X4200Y18675D02*
Y34881D01*
X6900Y8472D02*
Y20731D01*
X6800Y8447D02*
Y20758D01*
X6700Y8415D02*
Y20794D01*
X6600Y8374D02*
Y20840D01*
X6400Y8263D02*
Y20969D01*
X6500Y8324D02*
Y20898D01*
X6200Y8100D02*
Y21168D01*
X6300Y8189D02*
Y21057D01*
X5600Y8119D02*
Y22959D01*
X6100Y7991D02*
Y21312D01*
X5400Y10005D02*
Y23057D01*
X5500Y9839D02*
Y23003D01*
X5900Y7710D02*
Y22884D01*
X6000Y7853D02*
Y21524D01*
X5800Y7884D02*
Y22900D01*
X5700Y8015D02*
Y22925D01*
X3800Y23900D02*
X4820D01*
X3800Y23600D02*
X4916D01*
X3800Y23500D02*
X4968D01*
X3800Y23800D02*
X4843D01*
X3800Y23700D02*
X4875D01*
X3800Y23200D02*
X5209D01*
X3800Y23100D02*
X5335D01*
X3800Y23400D02*
X5032D01*
X3800Y23300D02*
X5111D01*
X800Y25500D02*
X1900D01*
X800Y25400D02*
X1900D01*
X800Y25300D02*
X1900D01*
X800Y25200D02*
X1900D01*
X800Y25100D02*
X1900D01*
X800Y25000D02*
X1900D01*
X800Y24900D02*
X1900D01*
X800Y24800D02*
X1900D01*
X3800Y22800D02*
X6258D01*
X3800Y22700D02*
X6175D01*
X3800Y23000D02*
X5505D01*
X3800Y22900D02*
X5802D01*
X3800Y22600D02*
X6107D01*
X3800Y22500D02*
X6052D01*
X3800Y22400D02*
X6009D01*
X3800Y22300D02*
X5975D01*
X3800Y22200D02*
X5950D01*
X3800Y22100D02*
X5934D01*
X3800Y22000D02*
X5926D01*
X3800Y21900D02*
X5926D01*
X3800Y21600D02*
X5975D01*
X3800Y21500D02*
X6009D01*
X3800Y21800D02*
X5934D01*
X3800Y21700D02*
X5950D01*
X800Y24700D02*
X1900D01*
X800Y24600D02*
X1900D01*
X800Y24500D02*
X1900D01*
X800Y24400D02*
X1900D01*
X800Y24300D02*
X1900D01*
X800Y24200D02*
X1900D01*
X800Y24100D02*
X1900D01*
X800Y24000D02*
X1900D01*
X800Y23900D02*
X1900D01*
X800Y23800D02*
X1900D01*
X800Y23700D02*
X1900D01*
X800Y23600D02*
X1900D01*
X800Y23500D02*
X1900D01*
X800Y23400D02*
X1900D01*
X800Y23300D02*
X1900D01*
X800Y23200D02*
X1900D01*
X800Y23100D02*
X1900D01*
X800Y23000D02*
X1900D01*
X800Y22900D02*
X1900D01*
X800Y22800D02*
X1900D01*
X800Y22700D02*
X1900D01*
X800Y22600D02*
X1900D01*
X800Y22500D02*
X1900D01*
X800Y22400D02*
X1900D01*
X800Y22300D02*
X1900D01*
X800Y22200D02*
X1900D01*
X800Y22100D02*
X1900D01*
X800Y22000D02*
X1900D01*
X800Y21900D02*
X1900D01*
X800Y21800D02*
X1900D01*
X800Y21700D02*
X1900D01*
X800Y21600D02*
X1900D01*
X3800Y21200D02*
X6175D01*
X3800Y21100D02*
X6259D01*
X3800Y21000D02*
X6363D01*
X3800Y21400D02*
X6053D01*
X3800Y21300D02*
X6107D01*
X3800Y20700D02*
X8275D01*
X3800Y20600D02*
X8275D01*
X3800Y20900D02*
X6497D01*
X3800Y20800D02*
X6685D01*
X800Y21500D02*
X1900D01*
X800Y21400D02*
X1900D01*
X800Y21300D02*
X1900D01*
X800Y21200D02*
X1900D01*
X800Y21100D02*
X1900D01*
X800Y21000D02*
X1900D01*
X800Y20900D02*
X1900D01*
X800Y20800D02*
X1900D01*
X3800Y20500D02*
X8275D01*
X3800Y20400D02*
X8275D01*
X3800Y20300D02*
X8275D01*
X3800Y20200D02*
X8275D01*
X3800Y20100D02*
X8275D01*
X3800Y20000D02*
X8275D01*
X3800Y19900D02*
X8275D01*
X3800Y19800D02*
X8275D01*
X3800Y19700D02*
X8275D01*
X3800Y19600D02*
X8275D01*
X3800Y19500D02*
X8275D01*
X3800Y19400D02*
X8275D01*
X3800Y19300D02*
X8275D01*
X3800Y19200D02*
X8275D01*
X3800Y19100D02*
X8275D01*
X3800Y19094D02*
X4097Y18797D01*
X1900Y8500D02*
Y38100D01*
X1900Y18700D02*
Y34875D01*
X1800Y8500D02*
Y38088D01*
X1700Y8500D02*
Y38083D01*
X1600Y8500D02*
Y38086D01*
X1500Y8500D02*
Y38096D01*
X1400Y8500D02*
Y38114D01*
X1300Y8500D02*
Y38140D01*
X800Y20700D02*
X1900D01*
X800Y20600D02*
X1900D01*
X1200Y8500D02*
Y38175D01*
X800Y20500D02*
X1900D01*
X1000Y8500D02*
Y38272D01*
X1100Y8500D02*
Y38218D01*
X800Y8500D02*
Y38417D01*
X900Y8500D02*
Y38338D01*
X800Y20400D02*
X1900D01*
X800Y20300D02*
X1900D01*
X800Y20200D02*
X1900D01*
X800Y20100D02*
X1900D01*
X800Y20000D02*
X1900D01*
X800Y19900D02*
X1900D01*
X800Y19800D02*
X1900D01*
X800Y19700D02*
X1900D01*
X800Y19600D02*
X1900D01*
X800Y19500D02*
X1900D01*
X800Y19400D02*
X1900D01*
X800Y19300D02*
X1900D01*
X800Y19200D02*
X1900D01*
X800Y19100D02*
X1900D01*
X800Y19000D02*
X1900D01*
X800Y18900D02*
X1900D01*
X9975Y18800D02*
X10826D01*
X9975Y18700D02*
X10688D01*
X9975Y18600D02*
X10578D01*
X9975Y18500D02*
X10489D01*
X9975Y18400D02*
X10414D01*
X9975Y18300D02*
X10353D01*
X9975Y18200D02*
X10302D01*
X9975Y18100D02*
X10261D01*
X9975Y18000D02*
X10229D01*
X4094Y18800D02*
X8275D01*
X4181Y18700D02*
X8275D01*
X4248Y18600D02*
X8275D01*
X4298Y18500D02*
X8275D01*
X9975Y17900D02*
X10204D01*
X9975Y17800D02*
X10187D01*
X4334Y18400D02*
X8275D01*
X4359Y18300D02*
X8275D01*
X10106Y17000D02*
X10319D01*
X10235Y16800D02*
X10439D01*
X10200Y16863D02*
Y17355D01*
X10177Y16900D02*
X10373D01*
X10317Y16600D02*
X10613D01*
X10344Y16500D02*
X10732D01*
X10300Y16652D02*
Y17040D01*
X10281Y16700D02*
X10518D01*
X9975Y17700D02*
X10178D01*
X9975Y17600D02*
X10175D01*
X9975Y17500D02*
X10180D01*
X9975Y17400D02*
X10192D01*
X9975Y17300D02*
X10212D01*
X9975Y17200D02*
X10239D01*
X10018Y17100D02*
X10274D01*
X4372Y18200D02*
X8275D01*
X4375Y18100D02*
X8275D01*
X4375Y18000D02*
X8275D01*
X4375Y17900D02*
X8275D01*
X4375Y17800D02*
X8275D01*
X4375Y17700D02*
X8275D01*
X4375Y17600D02*
X8275D01*
X4375Y17500D02*
X8275D01*
X4375Y17400D02*
X8275D01*
X4375Y17300D02*
X8275D01*
X4375Y17200D02*
X8275D01*
X4375Y17100D02*
X8232D01*
X4375Y17000D02*
X8144D01*
X4375Y16900D02*
X8073D01*
X4375Y16800D02*
X8015D01*
X4375Y16700D02*
X7969D01*
X4375Y16600D02*
X7933D01*
X4375Y16500D02*
X7906D01*
X4375Y16400D02*
X7887D01*
X4375Y16100D02*
X7881D01*
X4375Y16300D02*
X7877D01*
X4375Y16200D02*
X7875D01*
X4375Y16000D02*
X7895D01*
X4375Y15700D02*
X7991D01*
X4375Y15900D02*
X7918D01*
X4375Y15800D02*
X7950D01*
X4375Y15400D02*
X8186D01*
X4375Y15300D02*
X8284D01*
X4375Y15600D02*
X8043D01*
X4375Y15500D02*
X8107D01*
X10400Y8324D02*
Y16856D01*
X10300Y8374D02*
Y15798D01*
X10200Y8415D02*
Y15587D01*
X10100Y8447D02*
Y15443D01*
X10000Y8472D02*
Y15332D01*
X10700Y8100D02*
Y16525D01*
X10800Y7991D02*
Y16451D01*
X10500Y8263D02*
Y16721D01*
X10600Y8189D02*
Y16613D01*
X9900Y8488D02*
Y15244D01*
X9800Y8498D02*
Y15173D01*
X4375Y15100D02*
X8580D01*
X9700Y8500D02*
Y15115D01*
X9600Y8495D02*
Y15069D01*
X8700Y8059D02*
Y15050D01*
X8600Y7940D02*
Y15091D01*
X9500Y8483D02*
Y15033D01*
X9400Y8463D02*
Y15006D01*
X9300Y8435D02*
Y14987D01*
X9200Y8400D02*
Y14977D01*
X9100Y8355D02*
Y14975D01*
X9000Y8301D02*
Y14981D01*
X8900Y8235D02*
Y14995D01*
X8800Y8155D02*
Y15018D01*
X7195Y8500D02*
X9705D01*
X7700Y8400D02*
X9200D01*
X4375Y15000D02*
X8877D01*
X7901Y8300D02*
X8999D01*
X8046Y8200D02*
X8854D01*
X8160Y8100D02*
X8740D01*
X8252Y8000D02*
X8648D01*
X8329Y7900D02*
X8571D01*
X8000Y8235D02*
Y15680D01*
X8100Y8155D02*
Y15510D01*
X7900Y8301D02*
Y15977D01*
X5590Y8128D02*
Y9435D01*
X8500Y7787D02*
Y15143D01*
X8400Y7787D02*
Y15207D01*
X8200Y8059D02*
Y15384D01*
X8300Y7940D02*
Y15286D01*
X4375Y15200D02*
X8410D01*
X4375Y11044D02*
Y18125D01*
Y11044D02*
X5312Y10107D01*
X3690Y8128D02*
Y9042D01*
X3500Y8500D02*
Y9232D01*
X3600Y8037D02*
Y9132D01*
X5590Y8500D02*
X7165D01*
X5590Y8400D02*
X6660D01*
X5620Y8100D02*
X6200D01*
X5712Y8000D02*
X6108D01*
X8392Y7800D02*
X8508D01*
X5789Y7900D02*
X6031D01*
X5852Y7800D02*
X5968D01*
X3500Y8500D02*
X3690D01*
X5590Y8300D02*
X6459D01*
X3500Y8400D02*
X3690D01*
X3500Y8300D02*
X3690D01*
X5590Y8200D02*
X6314D01*
X3500Y7913D02*
Y8500D01*
Y8200D02*
X3690D01*
X2178Y18028D02*
X2475Y17732D01*
X800Y17700D02*
X2475D01*
X800Y17600D02*
X2475D01*
X800Y17500D02*
X2475D01*
X800Y17400D02*
X2475D01*
X800Y17300D02*
X2475D01*
X800Y17200D02*
X2475D01*
X800Y17100D02*
X2475D01*
X800Y17000D02*
X2475D01*
X800Y16900D02*
X2475D01*
X800Y16800D02*
X2475D01*
X800Y16700D02*
X2475D01*
X800Y16600D02*
X2475D01*
X800Y16500D02*
X2475D01*
X800Y16400D02*
X2475D01*
X800Y16300D02*
X2475D01*
X800Y16200D02*
X2475D01*
X800Y16100D02*
X2475D01*
X800Y16000D02*
X2475D01*
X800Y15900D02*
X2475D01*
X800Y15800D02*
X2475D01*
X800Y15700D02*
X2475D01*
X800Y15600D02*
X2475D01*
X800Y15500D02*
X2475D01*
X800Y15400D02*
X2475D01*
X800Y15300D02*
X2475D01*
X800Y15200D02*
X2475D01*
X800Y15100D02*
X2475D01*
X800Y15000D02*
X2475D01*
X800Y14900D02*
X2475D01*
X800Y14800D02*
X2475D01*
X800Y14700D02*
X2475D01*
X800Y14600D02*
X2475D01*
X800Y18800D02*
X1900D01*
X800Y18700D02*
X1900D01*
X800Y18600D02*
X1905D01*
X800Y18500D02*
X1921D01*
X800Y18400D02*
X1949D01*
X800Y18300D02*
X1988D01*
X800Y18000D02*
X2207D01*
X800Y17900D02*
X2307D01*
X800Y18200D02*
X2042D01*
X800Y18100D02*
X2114D01*
X800Y14500D02*
X2475D01*
X800Y14400D02*
X2475D01*
X800Y17800D02*
X2407D01*
X800Y14300D02*
X2475D01*
X800Y14200D02*
X2475D01*
X800Y14100D02*
X2475D01*
X800Y14000D02*
X2475D01*
X800Y13900D02*
X2475D01*
X800Y13800D02*
X2475D01*
X800Y13700D02*
X2475D01*
X800Y13600D02*
X2475D01*
X800Y13500D02*
X2475D01*
X800Y13400D02*
X2475D01*
X800Y13300D02*
X2475D01*
X800Y13200D02*
X2475D01*
X800Y13100D02*
X2475D01*
X800Y13000D02*
X2475D01*
X800Y12900D02*
X2475D01*
X800Y12800D02*
X2475D01*
X800Y12700D02*
X2475D01*
X2753Y9978D02*
X3690Y9042D01*
X3100Y8500D02*
Y9632D01*
X3000Y8500D02*
Y9732D01*
X2800Y8500D02*
Y9932D01*
X2900Y8500D02*
Y9832D01*
X2600Y8500D02*
Y10179D01*
X2700Y8500D02*
Y10036D01*
X800Y10000D02*
X2732D01*
X800Y10200D02*
X2588D01*
X800Y10100D02*
X2650D01*
X800Y9700D02*
X3032D01*
X800Y9600D02*
X3132D01*
X800Y9900D02*
X2832D01*
X800Y9800D02*
X2932D01*
X3400Y8500D02*
Y9332D01*
X800Y9300D02*
X3432D01*
X800Y9500D02*
X3232D01*
X800Y9400D02*
X3332D01*
X3500Y8100D02*
X3660D01*
X3200Y8500D02*
Y9532D01*
X3300Y8500D02*
Y9432D01*
X800Y9000D02*
X3690D01*
X800Y8900D02*
X3690D01*
X800Y9200D02*
X3532D01*
X800Y9100D02*
X3632D01*
X800Y8800D02*
X3690D01*
X800Y8700D02*
X3690D01*
X800Y8600D02*
X3690D01*
X800Y8500D02*
X3500D01*
X800Y12600D02*
X2475D01*
X800Y12500D02*
X2475D01*
X2400Y8500D02*
Y17807D01*
X2475Y10650D02*
Y17732D01*
X2200Y8500D02*
Y18007D01*
X2300Y8500D02*
Y17907D01*
X2000Y8500D02*
Y18276D01*
X2100Y8500D02*
Y18117D01*
X800Y12400D02*
X2475D01*
X800Y12300D02*
X2475D01*
X800Y12200D02*
X2475D01*
X800Y12100D02*
X2475D01*
X800Y12000D02*
X2475D01*
X800Y11900D02*
X2475D01*
X800Y11800D02*
X2475D01*
X800Y11700D02*
X2475D01*
X800Y11600D02*
X2475D01*
X800Y11500D02*
X2475D01*
X800Y11400D02*
X2475D01*
X800Y11300D02*
X2475D01*
X800Y11200D02*
X2475D01*
X800Y11100D02*
X2475D01*
X2500Y8500D02*
Y10434D01*
X800Y11000D02*
X2475D01*
X800Y10900D02*
X2475D01*
X800Y10800D02*
X2475D01*
X800Y10700D02*
X2475D01*
X800Y10600D02*
X2476D01*
X800Y10500D02*
X2487D01*
X800Y10400D02*
X2509D01*
X800Y10300D02*
X2542D01*
X33958Y31100D02*
X34150D01*
X33858Y31000D02*
X34150D01*
X33758Y30900D02*
X34150D01*
X33658Y30800D02*
X34150D01*
X32500Y34026D02*
Y34225D01*
X33558Y30700D02*
X34150D01*
X32917Y30060D02*
X34150Y31292D01*
Y29964D02*
Y31292D01*
X34100Y29918D02*
Y31242D01*
X34000Y29807D02*
Y31142D01*
X33900Y29663D02*
Y31042D01*
X33800Y29451D02*
Y30942D01*
X33700Y27625D02*
Y30842D01*
X33600Y27525D02*
Y30742D01*
X32200Y33726D02*
Y34525D01*
X28698Y38027D02*
X32599Y34126D01*
X32400Y33926D02*
Y34325D01*
X32300Y33826D02*
Y34425D01*
X32000Y33526D02*
Y34725D01*
X31900Y33426D02*
Y34825D01*
X32100Y33626D02*
Y34625D01*
X30725Y32252D02*
X32599Y34126D01*
X30725Y32252D02*
X32917Y30060D01*
X32100Y26025D02*
Y30877D01*
X32000Y25925D02*
Y30977D01*
X32200Y26125D02*
Y30777D01*
X33458Y30600D02*
X34150D01*
X33358Y30500D02*
X34150D01*
X33258Y30400D02*
X34150D01*
X33158Y30300D02*
X34150D01*
X33058Y30200D02*
X34150D01*
X34100Y28025D02*
Y28132D01*
X34000Y27925D02*
Y28243D01*
X33500Y27425D02*
Y30642D01*
X33400Y27325D02*
Y30542D01*
X33900Y27825D02*
Y28387D01*
X33800Y27725D02*
Y28599D01*
X33300Y27225D02*
Y30442D01*
X33200Y27125D02*
Y30342D01*
X33100Y27025D02*
Y30242D01*
X32777Y30200D02*
X33058D01*
X32677Y30300D02*
X33158D01*
X33000Y26925D02*
Y30142D01*
X32958Y30100D02*
X34150D01*
X32800Y26725D02*
Y30177D01*
X32700Y26625D02*
Y30277D01*
X32900Y26825D02*
Y30077D01*
X32400Y26325D02*
Y30577D01*
X32300Y26225D02*
Y30677D01*
X32600Y26525D02*
Y30377D01*
X32500Y26425D02*
Y30477D01*
X21527Y26000D02*
X32075D01*
X21427Y26100D02*
X32175D01*
X21627Y25900D02*
X31975D01*
X24143Y39275D02*
X25031D01*
X24100Y39200D02*
X25029D01*
X27034Y38200D02*
X27259D01*
X23565Y38700D02*
X25132D01*
X24032Y39100D02*
X25033D01*
X23950Y39000D02*
X25044D01*
X23850Y38900D02*
X25064D01*
X23726Y38800D02*
X25093D01*
X28348Y37900D02*
X28825D01*
X30900Y32426D02*
Y35825D01*
X30800Y32326D02*
Y35925D01*
X26879Y38100D02*
X27385D01*
X26641Y38000D02*
X27555D01*
X23324Y38600D02*
X25180D01*
X21750Y38500D02*
X25241D01*
X21650Y38400D02*
X25315D01*
X21550Y38300D02*
X25408D01*
X21950Y38700D02*
X22254D01*
X21850Y38600D02*
X22495D01*
X22000Y25527D02*
Y38750D01*
X21900Y25627D02*
Y38650D01*
X21800Y25727D02*
Y38550D01*
X21450Y38200D02*
X25524D01*
X21700Y25827D02*
Y38450D01*
X21600Y25927D02*
Y38350D01*
X21500Y26027D02*
Y38250D01*
X31700Y33226D02*
Y35025D01*
X31600Y33126D02*
Y35125D01*
X31900Y25825D02*
Y31077D01*
X31800Y33326D02*
Y34925D01*
X31300Y32826D02*
Y35425D01*
X31200Y32726D02*
Y35525D01*
X31500Y33026D02*
Y35225D01*
X31400Y32926D02*
Y35325D01*
X31600Y25525D02*
Y31377D01*
X31500Y25425D02*
Y31477D01*
X31800Y25725D02*
Y31177D01*
X31700Y25625D02*
Y31277D01*
X31300Y25225D02*
Y31677D01*
X31200Y25125D02*
Y31777D01*
X31400Y25325D02*
Y31577D01*
X31100Y32626D02*
Y35625D01*
X21727Y25800D02*
X31875D01*
X21927Y25600D02*
X31675D01*
X21827Y25700D02*
X31775D01*
X31000Y32526D02*
Y35725D01*
X30900Y32077D02*
Y32426D01*
X30800Y32177D02*
Y32326D01*
X22027Y25500D02*
X31575D01*
X22058Y25400D02*
X31475D01*
X21958Y25300D02*
X31375D01*
X21858Y25200D02*
X31275D01*
X22000Y25342D02*
Y25527D01*
X21900Y25242D02*
Y25627D01*
X21758Y25100D02*
X31175D01*
X29700Y23625D02*
Y37025D01*
X29600Y23525D02*
Y37125D01*
X29900Y23825D02*
Y36825D01*
X29800Y23725D02*
Y36925D01*
X29300Y23225D02*
Y37425D01*
X29200Y23125D02*
Y37525D01*
X29500Y23425D02*
Y37225D01*
X29400Y23325D02*
Y37325D01*
X28900Y22825D02*
Y37825D01*
X28800Y22725D02*
Y37925D01*
X29100Y23025D02*
Y37625D01*
X29000Y22925D02*
Y37725D01*
X28700Y22625D02*
Y38025D01*
X28600Y22525D02*
Y37979D01*
X28500Y22425D02*
Y37941D01*
X28400Y22325D02*
Y37911D01*
X28300Y22225D02*
Y37891D01*
X28200Y22125D02*
Y37879D01*
X28100Y22025D02*
Y37875D01*
X28000Y21925D02*
Y37879D01*
X27900Y21825D02*
Y37891D01*
X27800Y21725D02*
Y37912D01*
X27500Y21725D02*
Y38028D01*
X27400Y21725D02*
Y38089D01*
X27700Y21725D02*
Y37941D01*
X27600Y21725D02*
Y37979D01*
X27200Y21725D02*
Y38258D01*
X27100Y21725D02*
Y38254D01*
X27300Y21725D02*
Y38165D01*
X30900Y24825D02*
Y32077D01*
X30800Y24725D02*
Y32177D01*
X31100Y25025D02*
Y31877D01*
X31000Y24925D02*
Y31977D01*
X30500Y24425D02*
Y36225D01*
X30400Y24325D02*
Y36325D01*
X30700Y24625D02*
Y36025D01*
X30600Y24525D02*
Y36125D01*
X30200Y24125D02*
Y36525D01*
X30100Y24025D02*
Y36625D01*
X30300Y24225D02*
Y36425D01*
X27800Y21725D02*
X34125Y28050D01*
X30000Y23925D02*
Y36725D01*
X22600Y21800D02*
X27875D01*
X22675Y21725D02*
X27800D01*
X21658Y25000D02*
X31075D01*
X21558Y24900D02*
X30975D01*
X21500Y22900D02*
X28975D01*
X21458Y24800D02*
X30875D01*
X21700Y22700D02*
X28775D01*
X21600Y22800D02*
X28875D01*
X21800Y22600D02*
X28675D01*
X22000Y22400D02*
X28475D01*
X21900Y22500D02*
X28575D01*
X22200Y22200D02*
X28275D01*
X22100Y22300D02*
X28375D01*
X22400Y22000D02*
X28075D01*
X22300Y22100D02*
X28175D01*
X22500Y21900D02*
X27975D01*
X25000Y21725D02*
Y39275D01*
X24900Y21725D02*
Y39275D01*
X25200Y21725D02*
Y38565D01*
X25100Y21725D02*
Y38781D01*
X24800Y21725D02*
Y39275D01*
X24700Y21725D02*
Y39275D01*
X24600Y21725D02*
Y39275D01*
X24500Y21725D02*
Y39275D01*
X24400Y21725D02*
Y39275D01*
X24300Y21725D02*
Y39275D01*
X24200Y21725D02*
Y39275D01*
X24100Y21725D02*
Y39200D01*
X24000Y21725D02*
Y39059D01*
X23900Y21725D02*
Y38947D01*
X23800Y21725D02*
Y38857D01*
X23700Y21725D02*
Y38781D01*
X23600Y21725D02*
Y38719D01*
X23500Y21725D02*
Y38668D01*
X22400Y22000D02*
Y38633D01*
X22200Y22200D02*
Y38730D01*
X22100Y22300D02*
Y38795D01*
X22300Y22100D02*
Y38677D01*
X23400Y21725D02*
Y38626D01*
X23300Y21725D02*
Y38592D01*
X23200Y21725D02*
Y38567D01*
X23100Y21725D02*
Y38550D01*
X23000Y21725D02*
Y38540D01*
X22900Y21725D02*
Y38537D01*
X22800Y21725D02*
Y38541D01*
X27000Y21725D02*
Y38175D01*
X26900Y21725D02*
Y38111D01*
X26800Y21725D02*
Y38060D01*
X26700Y21725D02*
Y38019D01*
X26600Y21725D02*
Y37988D01*
X26500Y21725D02*
Y37966D01*
X26400Y21725D02*
Y37952D01*
X26300Y21725D02*
Y37946D01*
X26200Y21725D02*
Y37949D01*
X26100Y21725D02*
Y37959D01*
X26000Y21725D02*
Y37978D01*
X25800Y21725D02*
Y38042D01*
X25700Y21725D02*
Y38088D01*
X25900Y21725D02*
Y38005D01*
X22000Y22400D02*
Y25342D01*
X21900Y22500D02*
Y25242D01*
X21800Y22600D02*
Y25142D01*
X21700Y22700D02*
Y25042D01*
X21600Y22800D02*
Y24942D01*
X21500Y22900D02*
Y24842D01*
X21400Y23000D02*
Y24742D01*
X25400Y21725D02*
Y38307D01*
X25300Y21725D02*
Y38419D01*
X25600Y21725D02*
Y38147D01*
X25500Y21725D02*
Y38219D01*
X22700Y21725D02*
Y38553D01*
X22600Y21800D02*
Y38572D01*
X22500Y21900D02*
Y38598D01*
X18050Y34800D02*
X31925D01*
X17950Y34700D02*
X32025D01*
X17850Y34600D02*
X32125D01*
X17750Y34500D02*
X32225D01*
X18450Y35200D02*
X31525D01*
X18350Y35100D02*
X31625D01*
X18250Y35000D02*
X31725D01*
X18150Y34900D02*
X31825D01*
X17550Y34300D02*
X32425D01*
X17450Y34200D02*
X32525D01*
X17350Y34100D02*
X32574D01*
X17250Y34000D02*
X32474D01*
X17650Y34400D02*
X32325D01*
X17150Y33900D02*
X32374D01*
X17050Y33800D02*
X32274D01*
X16950Y33700D02*
X32174D01*
X16850Y33600D02*
X32074D01*
X16750Y33500D02*
X31974D01*
X16650Y33400D02*
X31874D01*
X16550Y33300D02*
X31774D01*
X16450Y33200D02*
X31674D01*
X16350Y33100D02*
X31574D01*
X15675Y31100D02*
X31877D01*
X15675Y31000D02*
X31977D01*
X15675Y30900D02*
X32077D01*
X15675Y30800D02*
X32177D01*
X15675Y31400D02*
X31577D01*
X15675Y31300D02*
X31677D01*
X15675Y31200D02*
X31777D01*
X15675Y30300D02*
X32677D01*
X15675Y30200D02*
X32777D01*
X15800Y28600D02*
X33800D01*
X15675Y30100D02*
X32877D01*
X15675Y30700D02*
X32277D01*
X15675Y30600D02*
X32377D01*
X15675Y30500D02*
X32477D01*
X15675Y30400D02*
X32577D01*
X16200Y28200D02*
X34036D01*
X16100Y28300D02*
X33957D01*
X16500Y27900D02*
X33975D01*
X16400Y28000D02*
X34075D01*
X16000Y28400D02*
X33893D01*
X15900Y28500D02*
X33841D01*
X16600Y27800D02*
X33875D01*
X15675Y30000D02*
X34150D01*
X15675Y29900D02*
X34082D01*
X15675Y29800D02*
X33994D01*
X15675Y29700D02*
X33923D01*
X15675Y29600D02*
X33865D01*
X15675Y29500D02*
X33819D01*
X15675Y29400D02*
X33783D01*
X15675Y29300D02*
X33756D01*
X15675Y29200D02*
X33737D01*
X15675Y29100D02*
X33727D01*
X15700Y28700D02*
X33768D01*
X15675Y29000D02*
X33725D01*
X15675Y28900D02*
X33731D01*
X15675Y28800D02*
X33745D01*
X20950Y37700D02*
X29025D01*
X20850Y37600D02*
X29125D01*
X20750Y37500D02*
X29225D01*
X20650Y37400D02*
X29325D01*
X21350Y38100D02*
X25678D01*
X21250Y38000D02*
X25916D01*
X21150Y37900D02*
X27852D01*
X21050Y37800D02*
X28925D01*
X20250Y37000D02*
X29725D01*
X20150Y36900D02*
X29825D01*
X20050Y36800D02*
X29925D01*
X19950Y36700D02*
X30025D01*
X20550Y37300D02*
X29425D01*
X20450Y37200D02*
X29525D01*
X20350Y37100D02*
X29625D01*
X19550Y36300D02*
X30425D01*
X19450Y36200D02*
X30525D01*
X19350Y36100D02*
X30625D01*
X19250Y36000D02*
X30725D01*
X19850Y36600D02*
X30125D01*
X19750Y36500D02*
X30225D01*
X19650Y36400D02*
X30325D01*
X18950Y35700D02*
X31025D01*
X18850Y35600D02*
X31125D01*
X18750Y35500D02*
X31225D01*
X18650Y35400D02*
X31325D01*
X19150Y35900D02*
X30825D01*
X15100Y31850D02*
X22068Y38818D01*
X19050Y35800D02*
X30925D01*
X18550Y35300D02*
X31425D01*
X16250Y33000D02*
X31474D01*
X16150Y32900D02*
X31374D01*
X16050Y32800D02*
X31274D01*
X15950Y32700D02*
X31174D01*
X15900Y28500D02*
Y32650D01*
X15850Y32600D02*
X31074D01*
X15800Y28600D02*
Y32550D01*
X16600Y27800D02*
Y33350D01*
X16500Y27900D02*
Y33250D01*
X16400Y28000D02*
Y33150D01*
X16300Y28100D02*
Y33050D01*
X16200Y28200D02*
Y32950D01*
X16100Y28300D02*
Y32850D01*
X16000Y28400D02*
Y32750D01*
X15750Y32500D02*
X30974D01*
X15650Y32400D02*
X30874D01*
X15675Y32000D02*
X30977D01*
X15675Y31900D02*
X31077D01*
X15675Y32300D02*
X30774D01*
X15675Y32200D02*
X30777D01*
X15675Y32100D02*
X30877D01*
X15675Y31800D02*
X31177D01*
X15675Y31700D02*
X31277D01*
X15675Y31600D02*
X31377D01*
X15675Y31500D02*
X31477D01*
X15700Y28700D02*
Y32450D01*
X15100Y31839D02*
X15650Y32375D01*
X15675Y28725D02*
Y32375D01*
X20827Y26700D02*
X32775D01*
X20727Y26800D02*
X32875D01*
X21027Y26500D02*
X32575D01*
X20927Y26600D02*
X32675D01*
X21000Y26527D02*
Y37750D01*
X20900Y26627D02*
Y37650D01*
X20800Y26727D02*
Y37550D01*
X20700Y26827D02*
Y37450D01*
X21400Y26127D02*
Y38150D01*
X21127Y26400D02*
X32475D01*
X21327Y26200D02*
X32275D01*
X21227Y26300D02*
X32375D01*
X21300Y26227D02*
Y38050D01*
X21200Y26327D02*
Y37950D01*
X21100Y26427D02*
Y37850D01*
X19927Y27600D02*
X33675D01*
X16700Y27700D02*
X33775D01*
X20127Y27400D02*
X33475D01*
X20027Y27500D02*
X33575D01*
X20327Y27200D02*
X33275D01*
X20227Y27300D02*
X33375D01*
X20427Y27100D02*
X33175D01*
X20527Y27000D02*
X33075D01*
X19900Y27626D02*
X22092Y25434D01*
X20627Y26900D02*
X32975D01*
X20600Y26927D02*
Y37350D01*
X20500Y27027D02*
Y37250D01*
X20400Y27127D02*
Y37150D01*
X21358Y24700D02*
X30775D01*
X21258Y24600D02*
X30675D01*
X21158Y24500D02*
X30575D01*
X21058Y24400D02*
X30475D01*
X21000Y23400D02*
Y24342D01*
X20958Y24300D02*
X30375D01*
X21000Y23400D02*
X29475D01*
X20858Y24200D02*
X30275D01*
X21200Y23200D02*
X29275D01*
X21100Y23300D02*
X29375D01*
X21400Y23000D02*
X29075D01*
X21300Y23100D02*
X29175D01*
X21300Y23100D02*
Y24642D01*
X21200Y23200D02*
Y24542D01*
X21100Y23300D02*
Y24442D01*
X20758Y24100D02*
X30175D01*
X20658Y24000D02*
X30075D01*
X20600Y23800D02*
X29875D01*
X20558Y23900D02*
X29975D01*
X20529Y23871D02*
X22092Y25434D01*
X20600Y23800D02*
Y23942D01*
X20700Y23700D02*
X29775D01*
X20529Y23871D02*
X22675Y21725D01*
X20900Y23500D02*
X29575D01*
X20800Y23600D02*
X29675D01*
X20900Y23500D02*
Y24242D01*
X20800Y23600D02*
Y24142D01*
X20700Y23700D02*
Y24042D01*
X20300Y27227D02*
Y37050D01*
X20200Y27327D02*
Y36950D01*
X20100Y27427D02*
Y36850D01*
X20000Y27527D02*
Y36750D01*
X19900Y27626D02*
Y36650D01*
X19800Y27526D02*
Y36550D01*
X19700Y27426D02*
Y36450D01*
X19600Y27326D02*
Y36350D01*
X19500Y27226D02*
Y36250D01*
X19400Y27126D02*
Y36150D01*
X19300Y27026D02*
Y36050D01*
X19200Y26926D02*
Y35950D01*
X19100Y26826D02*
Y35850D01*
X19000Y26726D02*
Y35750D01*
X18900Y26626D02*
Y35650D01*
X18800Y26526D02*
Y35550D01*
X18700Y26426D02*
Y35450D01*
X17900Y26500D02*
Y34650D01*
X17800Y26600D02*
Y34550D01*
X17700Y26700D02*
Y34450D01*
X17600Y26800D02*
Y34350D01*
X17500Y26900D02*
Y34250D01*
X18600Y26326D02*
Y35350D01*
X18500Y26226D02*
Y35250D01*
X18400Y26126D02*
Y35150D01*
X18300Y26100D02*
Y35050D01*
X18200Y26200D02*
Y34950D01*
X18100Y26300D02*
Y34850D01*
X18000Y26400D02*
Y34750D01*
X19774Y27500D02*
X20027D01*
X19674Y27400D02*
X20127D01*
X17500Y26900D02*
X19174D01*
X17400Y27000D02*
X19274D01*
X17600Y26800D02*
X19074D01*
X17400Y27000D02*
Y34150D01*
X17700Y26700D02*
X18974D01*
X18337Y26063D02*
X19900Y27626D01*
X17900Y26500D02*
X18774D01*
X17800Y26600D02*
X18874D01*
X18100Y26300D02*
X18574D01*
X18000Y26400D02*
X18674D01*
X18200Y26200D02*
X18474D01*
X17000Y27400D02*
Y33750D01*
X16800Y27600D02*
X19874D01*
X17000Y27400D02*
X19674D01*
X16900Y27500D02*
X19774D01*
X16900Y27500D02*
Y33650D01*
X16800Y27600D02*
Y33550D01*
X16700Y27700D02*
Y33450D01*
X17100Y27300D02*
X19574D01*
X15675Y28725D02*
X18337Y26063D01*
X17300Y27100D02*
X19374D01*
X17200Y27200D02*
X19474D01*
X17300Y27100D02*
Y34050D01*
X17200Y27200D02*
Y33950D01*
X17100Y27300D02*
Y33850D01*
D13*
X17618Y61988D02*
D03*
Y59188D02*
D03*
X21318Y49863D02*
D03*
Y47063D02*
D03*
D14*
X47587Y14693D02*
D03*
X44787D02*
D03*
X44813Y17682D02*
D03*
X47613Y17682D02*
D03*
X14713Y17257D02*
D03*
X17513D02*
D03*
X48138Y50382D02*
D03*
X45338Y50382D02*
D03*
X45362Y47793D02*
D03*
X48162Y47793D02*
D03*
D24*
Y46393D02*
Y47793D01*
X47727Y44416D02*
X48977D01*
X47727D02*
Y45666D01*
Y43166D02*
Y44416D01*
X47500Y41225D02*
Y42725D01*
Y41225D02*
X49000D01*
X46000D02*
X47500D01*
Y39725D02*
Y41225D01*
X21318Y49863D02*
Y51163D01*
Y49863D02*
X22718D01*
X47820Y7100D02*
X49070D01*
X47820D02*
Y8350D01*
X34827Y34161D02*
X35816Y33171D01*
X33837Y35151D02*
X34827Y34161D01*
X35746Y35080D01*
X19918Y49863D02*
X21318D01*
X9758Y32363D02*
Y33513D01*
Y31213D02*
Y32363D01*
Y29388D02*
Y30538D01*
Y28238D02*
Y29388D01*
X1689Y39433D02*
Y40633D01*
Y38233D02*
Y39433D01*
X17001Y24515D02*
X17991Y23525D01*
X18981Y22535D01*
X17072Y22606D02*
X17991Y23525D01*
X14713Y17257D02*
Y18657D01*
X13413Y17257D02*
X14713D01*
Y15857D02*
Y17257D01*
X2100Y7100D02*
Y8350D01*
X32847Y32181D02*
X33837Y31191D01*
X31857Y33171D02*
X32847Y32181D01*
X31927Y31262D02*
X32847Y32181D01*
X19971Y25505D02*
X20890Y26424D01*
X19971Y25505D02*
X20961Y24515D01*
X18981Y26495D02*
X19971Y25505D01*
X47882Y50382D02*
X48138D01*
Y50306D02*
X48338D01*
X24600Y35350D02*
Y46850D01*
Y35350D02*
X26600Y33350D01*
D25*
X20042Y24586D02*
X19052Y25576D01*
X19900Y26424D01*
X20890Y25434D01*
X20042Y24586D01*
Y25057D02*
X19523Y25576D01*
X19900Y25953D01*
X20419Y25434D01*
X20042Y25057D01*
X19985Y25473D02*
X19956Y25538D01*
X18062Y22606D02*
X17072Y23596D01*
X17920Y24444D01*
X18910Y23455D01*
X18062Y22606D01*
Y23077D02*
X17543Y23596D01*
X17920Y23973D01*
X18439Y23455D01*
X18062Y23077D01*
X18006Y23493D02*
X17976Y23558D01*
X34897Y33242D02*
X33907Y34232D01*
X34756Y35080D01*
X35746Y34090D01*
X34897Y33242D01*
Y33713D02*
X34379Y34232D01*
X34756Y34609D01*
X35274Y34090D01*
X34897Y33713D01*
X34841Y34128D02*
X34812Y34193D01*
X32917Y31262D02*
X31927Y32252D01*
X32776Y33100D01*
X33766Y32110D01*
X32917Y31262D01*
Y31733D02*
X32399Y32252D01*
X32776Y32629D01*
X33294Y32110D01*
X32917Y31733D01*
X32861Y32148D02*
X32832Y32214D01*
X44232Y50306D02*
X45538D01*
X43625Y47375D02*
Y49700D01*
X21306Y47050D02*
X21318Y47063D01*
X44450Y17850D02*
Y23350D01*
X44100Y23700D02*
X44450Y23350D01*
X19100Y47050D02*
X21306D01*
X45353Y47803D02*
X45603D01*
X48138Y50338D02*
Y50382D01*
X45331Y47781D02*
X45353Y47803D01*
X45603D02*
X48138Y50338D01*
X45187Y44416D02*
Y47637D01*
X43900Y41975D02*
Y47100D01*
X43625Y47375D02*
X43900Y47100D01*
X43625Y49700D02*
X44232Y50306D01*
X43900Y41975D02*
X44100Y41775D01*
Y23700D02*
Y41775D01*
X37700Y26300D02*
Y41175D01*
X18137Y39937D02*
X20370D01*
X25125Y14650D02*
X25700Y14075D01*
X25125Y14650D02*
Y19475D01*
X34975Y23775D02*
Y29025D01*
X32630Y20307D02*
X32687Y20250D01*
Y19112D02*
Y20250D01*
X27500Y7100D02*
Y13925D01*
X32687Y19112D01*
X14250Y32325D02*
X18075Y36150D01*
X32630Y21430D02*
X33225Y22025D01*
X33225Y22025D02*
X34975Y23775D01*
X32630Y20307D02*
Y21430D01*
X34250Y18125D02*
Y19850D01*
X29725Y13787D02*
X29912D01*
X34250Y18125D01*
X35275Y21275D02*
X35450Y21100D01*
X32525Y13800D02*
X32775D01*
X35450Y16475D02*
Y21100D01*
X32775Y13800D02*
X35450Y16475D01*
X39725Y28550D02*
X40500Y27775D01*
Y23800D02*
Y27775D01*
X36450Y15350D02*
Y31175D01*
X35150Y14075D02*
X35175D01*
X35175D02*
X36450Y15350D01*
X16375Y39025D02*
Y42825D01*
X17150Y36700D02*
Y38250D01*
X15825Y35375D02*
X17150Y36700D01*
X6000Y33550D02*
X6012Y33900D01*
Y24200D02*
Y33900D01*
X8425Y22475D02*
Y36000D01*
X7175Y21600D02*
Y37400D01*
X15250Y38100D02*
Y44175D01*
X8425Y22475D02*
X9125Y21775D01*
X14125Y45625D02*
X14325Y45825D01*
X14125Y37500D02*
Y45625D01*
X7175Y37400D02*
X7225Y37450D01*
X41268Y33975D02*
X41475Y33768D01*
X41268Y33975D02*
X41275D01*
X42550Y37293D02*
X42750Y37093D01*
X38350Y46200D02*
X39725Y44825D01*
X36075Y46200D02*
X38350D01*
X40250Y23550D02*
X40500Y23800D01*
X35475Y45600D02*
X35500D01*
X35475D02*
X35487Y45612D01*
X36075Y46200D01*
X39725Y28550D02*
Y44825D01*
X17513Y17257D02*
X17569Y17200D01*
X18700D01*
X37660Y7100D02*
Y20135D01*
X41550Y23100D02*
Y33993D01*
X40550Y22100D02*
X41550Y23100D01*
X39625Y22100D02*
X40550D01*
X37660Y20135D02*
X39625Y22100D01*
X38700Y20100D02*
X39950Y21350D01*
X38700Y8600D02*
Y20100D01*
Y8600D02*
X40200Y7100D01*
X39950Y21350D02*
X40950D01*
X42825Y23225D02*
Y37293D01*
X40950Y21350D02*
X42825Y23225D01*
X42175Y10546D02*
Y13775D01*
X43093Y14693D01*
X41450Y8875D02*
Y9474D01*
X42348Y10373D01*
X42175Y10546D02*
X42348Y10373D01*
X43093Y14693D02*
X44787D01*
X45123Y12573D02*
X45125Y12575D01*
X44813Y17487D02*
X46175Y16125D01*
X44450Y17850D02*
X44813Y17487D01*
X43298Y12573D02*
X45123D01*
X47587Y12588D02*
X47600Y12575D01*
X47587Y12588D02*
Y14693D01*
X45125Y12575D02*
X45300D01*
X46175Y13450D01*
Y16125D01*
X47273Y10373D02*
X49050Y12150D01*
Y15825D01*
X47600Y17275D02*
X49050Y15825D01*
X47600Y19075D02*
X48000Y19475D01*
X44248Y10373D02*
X47273D01*
X48000Y19475D02*
X48725D01*
X47600Y17275D02*
Y19075D01*
X42250Y41700D02*
X42622Y42072D01*
X42647Y44416D01*
X14250Y29075D02*
Y32325D01*
X18075Y36150D02*
Y42150D01*
X6000Y33550D02*
Y33800D01*
X15525Y35375D02*
X15825D01*
X37700Y26300D02*
X39025Y24975D01*
X37475Y41400D02*
X37700Y41175D01*
X16375Y42825D02*
X17000Y43450D01*
X16375Y39025D02*
X17150Y38250D01*
X9125Y16225D02*
Y21775D01*
X8425Y36000D02*
X8450Y36025D01*
X15250Y38100D02*
X15900Y37450D01*
X38800Y27300D02*
Y42275D01*
X38525Y42550D02*
X38800Y42275D01*
X15250Y44175D02*
X15650Y44575D01*
X26279Y39196D02*
Y51621D01*
X25625Y52275D02*
X26279Y51621D01*
X27475Y39750D02*
Y53525D01*
Y39750D02*
X28100Y39125D01*
X2800Y57200D02*
X2825Y57175D01*
X6525Y56575D02*
X7900Y55200D01*
X6525Y56575D02*
Y57175D01*
X2825D02*
X6525D01*
X7900Y55200D02*
X13675D01*
D26*
X4189Y39433D02*
D03*
D27*
X1689D02*
D03*
D28*
X2800Y52200D02*
D03*
Y57200D02*
D03*
Y62200D02*
D03*
D29*
X6525Y62175D02*
D03*
Y57175D02*
D03*
X9500Y62225D02*
D03*
Y57225D02*
D03*
X26300Y63250D02*
D03*
X47500Y41225D02*
D03*
D30*
X45280Y7100D02*
D03*
X42740D02*
D03*
X47820D02*
D03*
X40200D02*
D03*
X37660D02*
D03*
X32580D02*
D03*
X30040D02*
D03*
X27500D02*
D03*
X24960D02*
D03*
X22420D02*
D03*
X19880D02*
D03*
X17340D02*
D03*
X14800D02*
D03*
X12260D02*
D03*
X9720D02*
D03*
X7180D02*
D03*
X4640D02*
D03*
X35120D02*
D03*
X47727Y44416D02*
D03*
X45187D02*
D03*
X42647D02*
D03*
X11575Y22617D02*
D03*
Y17617D02*
D03*
X22910Y39937D02*
D03*
D31*
X2100Y7100D02*
D03*
X37567Y44416D02*
D03*
X20370Y39937D02*
D03*
D32*
X9758Y32363D02*
D03*
Y29388D02*
D03*
D33*
X12258Y32363D02*
D03*
Y29388D02*
D03*
D34*
X33300Y50575D02*
D03*
X47450Y22800D02*
D03*
X9900Y23625D02*
D03*
X13800Y33950D02*
D03*
X21300Y51775D02*
D03*
X43300Y53125D02*
D03*
X40925Y45600D02*
D03*
X42100Y39575D02*
D03*
X41268Y33975D02*
D03*
X24750Y46725D02*
D03*
X21500Y14600D02*
D03*
X40500Y50575D02*
D03*
X1675Y46900D02*
D03*
X2000Y42100D02*
D03*
X13450Y27400D02*
D03*
X43625Y47700D02*
D03*
X44450Y23350D02*
D03*
X37475Y41400D02*
D03*
X38525Y42550D02*
D03*
X7525Y40000D02*
D03*
X7500Y44250D02*
D03*
X1975Y37300D02*
D03*
X13700Y24575D02*
D03*
X13250Y19500D02*
D03*
X2100Y15000D02*
D03*
X2200Y10025D02*
D03*
X12200Y9575D02*
D03*
X40850Y12100D02*
D03*
X16050Y15050D02*
D03*
X30575Y21500D02*
D03*
X36125Y35700D02*
D03*
X6150Y46225D02*
D03*
X26600Y33350D02*
D03*
X23700Y27025D02*
D03*
X22500Y27975D02*
D03*
X25125Y19475D02*
D03*
X25700Y14075D02*
D03*
X14250Y29075D02*
D03*
X32687Y20250D02*
D03*
X34975Y29025D02*
D03*
X34250Y19850D02*
D03*
X29725Y13787D02*
D03*
X35275Y21275D02*
D03*
X32525Y13800D02*
D03*
X40250Y23550D02*
D03*
X36400Y22575D02*
D03*
X35150Y14075D02*
D03*
X36450Y31175D02*
D03*
X42250Y41700D02*
D03*
X18075Y42150D02*
D03*
X16400Y39000D02*
D03*
X39025Y24975D02*
D03*
X17000Y43450D02*
D03*
X15525Y35375D02*
D03*
X6000Y33800D02*
D03*
X6050Y24125D02*
D03*
X38800Y27300D02*
D03*
X15650Y44575D02*
D03*
X15900Y37450D02*
D03*
X8450Y36025D02*
D03*
X9125Y16225D02*
D03*
X7145Y29445D02*
D03*
X14325Y45825D02*
D03*
X14125Y37500D02*
D03*
X7225Y37450D02*
D03*
X7175Y21950D02*
D03*
X42550Y37293D02*
D03*
X26279Y39196D02*
D03*
X35500Y45600D02*
D03*
X41450Y8875D02*
D03*
X18700Y17200D02*
D03*
X47600Y12575D02*
D03*
X48725Y19475D02*
D03*
X47275Y58875D02*
D03*
X37285Y58800D02*
D03*
X13790Y60110D02*
D03*
X29110Y61760D02*
D03*
X22125Y61400D02*
D03*
X19425Y58875D02*
D03*
X15050Y61175D02*
D03*
X35000Y38400D02*
D03*
X29900Y40800D02*
D03*
X32625Y36425D02*
D03*
X25625Y52275D02*
D03*
X27475Y53525D02*
D03*
X28100Y39125D02*
D03*
X13675Y55200D02*
D03*
D35*
X46100Y20625D02*
D03*
X19100Y47050D02*
D03*
D36*
X43298Y12573D02*
D03*
X42348Y10373D02*
D03*
X44248D02*
D03*
D37*
X4189Y36214D02*
Y44439D01*
X6150Y46225D01*
X4640Y7100D02*
Y9435D01*
X6475Y62200D02*
X6500Y62225D01*
X9500D01*
X9500Y62225D01*
X2800Y62200D02*
X6475D01*
X3425Y10650D02*
X4640Y9435D01*
X3425Y10650D02*
Y18125D01*
X2850Y18700D02*
X3425Y18125D01*
X2850Y18700D02*
Y34875D01*
X4189Y36214D01*
X22450Y60975D02*
X28350D01*
X29550Y62175D02*
X44000D01*
X47275Y58900D01*
X14975Y62225D02*
X14988Y62237D01*
X13750Y59650D02*
X14600Y58800D01*
X13750Y60150D02*
X13790Y60110D01*
X19425Y58875D02*
Y58925D01*
X14600Y58800D02*
X37285D01*
X13750Y59650D02*
Y60150D01*
X14988Y62237D02*
X15000Y62250D01*
X29900Y39125D02*
X32575Y36450D01*
X32600D01*
X32625Y36425D01*
X29900Y39125D02*
Y40800D01*
X15000Y61225D02*
X15050Y61175D01*
X9500Y62225D02*
X14975D01*
X15000Y62225D02*
X21200D01*
X47275Y58875D02*
Y58900D01*
X29110Y61735D02*
Y61760D01*
X15000Y61225D02*
Y62250D01*
X21200Y62225D02*
X22450Y60975D01*
X28350D02*
X29550Y62175D01*
M02*
