M48
;Layer_Color=9474304
;FILE_FORMAT=4:4
METRIC,LZ
;TYPE=PLATED
T1F00S00C0.7000
T2F00S00C1.0000
T3F00S00C2.0000
%
T01
X00328364Y0012081
X00328044Y00139951
X00379179Y00139771
X0037935Y00120358
X00401198Y0019844
Y00235072
X00419951Y00267988
X00296851Y00293133
X00253294Y00284478
X0026435Y00237116
X0028213Y002199
X0028251Y002039
X002373Y002119
X0023819Y002279
X00171174Y00193426
X00136627Y00214715
X0014478Y0016383
X0011049
X000762
X0006477Y0007874
X0009525
X0012573
X0014097Y0003937
X0011049
X0008001
X0022098Y0009906
Y001143
X00199725Y00138828
X00199474Y00156769
X0027109Y00152614
X00289501Y00153212
X00278588Y00114342
X0027843Y00099023
X00278746Y00083071
X0028067Y000381
X00193531Y00341974
X00155605Y00338512
X00228782Y00507024
X00230699Y00549057
X00289346Y00520984
X0028748Y00499945
X00321286Y00318857
X00400573Y00331581
X00446503Y00394898
T02
X003004Y00021
X003258
X003512
X003766
X00402
X004274
X004528
X004782
X00484723Y00051238
X0047625Y0019812
X0045085
Y0023495
X0047625
X00375877Y00218176
X00339823Y00195965
X00275Y00021
X002496
X002242
X001988
X001734
X00148
X001226
X000972
X000718
X000464
X00021
X0001524Y000508
X0002318Y0012573
X0004318
X0004657Y00245779
X00022647Y0024571
X00075743Y00294864
X00154743Y00276102
X0016256Y0031369
X0018796
X0021336
X0023876
X0026416
X00292242Y00322298
X00231488Y00406766
X00198344Y00406522
X0015431Y0048536
X0009836Y00378015
Y00352615
X00069987Y00367818
X00034105Y00363208
X0011176Y0031369
X00286901Y00541089
X00263Y005825
X0032024Y00581465
X00403455Y00574748
X00421464Y00584008
X00427044Y00546384
X00373936Y00476062
X00370804Y00423958
X00324755Y00405274
X00323978Y00375302
X00312455Y00454837
X00437346Y004268
X00474998Y0036225
X00420994Y00304389
X00355546Y00303925
T03
X00028Y00472
Y00522
Y00572
M30
