G04 Layer_Color=8388736*
%FSLAX44Y44*%
%MOMM*%
G71*
G01*
G75*
%ADD51R,2.3368X1.6256*%
%ADD52R,1.4532X3.0532*%
%ADD53R,2.2032X6.2032*%
%ADD54R,1.3032X1.2032*%
%ADD55R,1.2032X1.3032*%
%ADD56R,1.4224X2.0828*%
%ADD57R,0.7532X1.6532*%
%ADD58R,0.7532X1.6532*%
%ADD59R,0.8032X2.4032*%
%ADD60R,0.8032X2.4032*%
%ADD61R,0.6000X1.7500*%
%ADD62R,1.7500X0.6000*%
%ADD63O,3.2032X1.2032*%
%ADD64R,3.2032X1.2032*%
%ADD65O,2.5908X0.8382*%
%ADD66R,2.5908X0.8382*%
%ADD67O,2.5032X0.8032*%
%ADD68O,1.8000X0.4500*%
%ADD69R,2.0828X1.4224*%
%ADD70R,1.4732X1.0668*%
%ADD71R,1.2192X1.0668*%
G04:AMPARAMS|DCode=72|XSize=1.8032mm|YSize=1.8032mm|CornerRadius=0.5016mm|HoleSize=0mm|Usage=FLASHONLY|Rotation=0.000|XOffset=0mm|YOffset=0mm|HoleType=Round|Shape=RoundedRectangle|*
%AMROUNDEDRECTD72*
21,1,1.8032,0.8000,0,0,0.0*
21,1,0.8000,1.8032,0,0,0.0*
1,1,1.0032,0.4000,-0.4000*
1,1,1.0032,-0.4000,-0.4000*
1,1,1.0032,-0.4000,0.4000*
1,1,1.0032,0.4000,0.4000*
%
%ADD72ROUNDEDRECTD72*%
%ADD73C,1.7032*%
%ADD74R,1.7032X1.7032*%
%ADD75R,1.7032X1.7032*%
%ADD76R,1.8032X1.8032*%
%ADD77C,1.8032*%
%ADD78O,1.7032X1.8032*%
%ADD79C,4.2032*%
%ADD80P,2.3847X8X22.5*%
%ADD81C,1.4000*%
%ADD82C,1.7000*%
D51*
X144780Y146558D02*
D03*
Y113030D02*
D03*
X110490D02*
D03*
Y146558D02*
D03*
X76200D02*
D03*
Y113030D02*
D03*
D52*
X111773Y464454D02*
D03*
Y537954D02*
D03*
X86773D02*
D03*
Y464454D02*
D03*
D53*
X464820Y543560D02*
D03*
Y453560D02*
D03*
D54*
X189230Y99060D02*
D03*
X206230D02*
D03*
X237000D02*
D03*
X254000D02*
D03*
X311150D02*
D03*
X294150D02*
D03*
X445770Y93980D02*
D03*
X428770D02*
D03*
X279400Y53340D02*
D03*
X262400D02*
D03*
X56370Y194380D02*
D03*
X39370D02*
D03*
X77470Y273120D02*
D03*
X94470D02*
D03*
X161780Y246380D02*
D03*
X144780D02*
D03*
X129540Y577850D02*
D03*
X112540D02*
D03*
X183370D02*
D03*
X166370D02*
D03*
X206230Y114300D02*
D03*
X189230D02*
D03*
X254490D02*
D03*
X237490D02*
D03*
X279400Y68580D02*
D03*
X262400D02*
D03*
X311150Y114300D02*
D03*
X294150D02*
D03*
X445770Y78740D02*
D03*
X428770D02*
D03*
X148590Y93980D02*
D03*
X131590D02*
D03*
X115570D02*
D03*
X98570D02*
D03*
X64280D02*
D03*
X81280D02*
D03*
X457690Y586740D02*
D03*
X440690D02*
D03*
X446550Y408940D02*
D03*
X463550D02*
D03*
D55*
X326390Y61450D02*
D03*
Y44450D02*
D03*
X351790D02*
D03*
Y61450D02*
D03*
X427990D02*
D03*
Y44450D02*
D03*
X125730Y45720D02*
D03*
Y62720D02*
D03*
X140970Y54610D02*
D03*
Y71610D02*
D03*
X123410Y338350D02*
D03*
Y355350D02*
D03*
X76200Y211310D02*
D03*
Y194310D02*
D03*
X95250Y62720D02*
D03*
Y45720D02*
D03*
X110490Y54610D02*
D03*
Y71610D02*
D03*
X64770Y45720D02*
D03*
Y62720D02*
D03*
X80010Y55880D02*
D03*
Y72880D02*
D03*
X401320Y61450D02*
D03*
Y44450D02*
D03*
X375920D02*
D03*
Y61450D02*
D03*
X176530Y62720D02*
D03*
Y45720D02*
D03*
X158750Y62720D02*
D03*
Y45720D02*
D03*
X58748Y547564D02*
D03*
Y530564D02*
D03*
X139909Y338512D02*
D03*
Y355512D02*
D03*
X147386Y587728D02*
D03*
Y570728D02*
D03*
X58420Y481330D02*
D03*
Y498330D02*
D03*
D56*
X342947Y581334D02*
D03*
X372919D02*
D03*
X335280Y448310D02*
D03*
X365252D02*
D03*
X92710Y572770D02*
D03*
X62738D02*
D03*
X234442D02*
D03*
X204470D02*
D03*
X154064Y215222D02*
D03*
X184036D02*
D03*
X356362Y218440D02*
D03*
X326390D02*
D03*
X14478Y77470D02*
D03*
X44450D02*
D03*
X404343Y304389D02*
D03*
X374371D02*
D03*
D57*
X43605Y341297D02*
D03*
X34105Y341297D02*
D03*
X24605Y319797D02*
D03*
X43605D02*
D03*
D58*
X24605Y341297D02*
D03*
D59*
X41910Y219780D02*
D03*
X29210Y219780D02*
D03*
X16510Y219780D02*
D03*
X54610Y219780D02*
D03*
X16510Y271780D02*
D03*
X29210D02*
D03*
X41910D02*
D03*
D60*
X54610D02*
D03*
D61*
X288350Y173900D02*
D03*
X280350D02*
D03*
X272350D02*
D03*
X264350D02*
D03*
X256350D02*
D03*
X248350D02*
D03*
X240350D02*
D03*
X232350D02*
D03*
Y257900D02*
D03*
X240350D02*
D03*
X248350D02*
D03*
X256350D02*
D03*
X264350D02*
D03*
X272350D02*
D03*
X280350D02*
D03*
X288350D02*
D03*
D62*
X218350Y187900D02*
D03*
Y195900D02*
D03*
Y203900D02*
D03*
Y211900D02*
D03*
Y219900D02*
D03*
Y227900D02*
D03*
Y235900D02*
D03*
Y243900D02*
D03*
X302350D02*
D03*
Y235900D02*
D03*
Y227900D02*
D03*
Y219900D02*
D03*
Y211900D02*
D03*
Y203900D02*
D03*
Y195900D02*
D03*
Y187900D02*
D03*
D63*
X154310Y440858D02*
D03*
Y466258D02*
D03*
X266310D02*
D03*
Y440858D02*
D03*
Y415458D02*
D03*
X154310D02*
D03*
Y390058D02*
D03*
D64*
X266310D02*
D03*
D65*
X153670Y509270D02*
D03*
Y521970D02*
D03*
Y534670D02*
D03*
Y547370D02*
D03*
X203454D02*
D03*
Y534670D02*
D03*
Y521970D02*
D03*
D66*
Y509270D02*
D03*
D67*
X403455Y470184D02*
D03*
Y482884D02*
D03*
Y495584D02*
D03*
Y508284D02*
D03*
Y520984D02*
D03*
Y533684D02*
D03*
Y546384D02*
D03*
Y559084D02*
D03*
X312455Y470184D02*
D03*
Y482884D02*
D03*
Y495584D02*
D03*
Y508284D02*
D03*
Y520984D02*
D03*
Y533684D02*
D03*
Y546384D02*
D03*
Y559084D02*
D03*
D68*
X435610Y325040D02*
D03*
Y331540D02*
D03*
Y338040D02*
D03*
Y344540D02*
D03*
Y351040D02*
D03*
Y357540D02*
D03*
Y364040D02*
D03*
Y370540D02*
D03*
Y377040D02*
D03*
Y383540D02*
D03*
X378610Y325040D02*
D03*
Y331540D02*
D03*
Y338040D02*
D03*
Y344540D02*
D03*
Y351040D02*
D03*
Y357540D02*
D03*
Y364040D02*
D03*
Y370540D02*
D03*
Y377040D02*
D03*
Y383540D02*
D03*
D69*
X204470Y78740D02*
D03*
Y48768D02*
D03*
X237490Y78232D02*
D03*
Y48260D02*
D03*
X302260Y78232D02*
D03*
Y48260D02*
D03*
X184150Y276352D02*
D03*
Y246380D02*
D03*
X302521Y375302D02*
D03*
Y405274D02*
D03*
X395848Y442263D02*
D03*
Y412291D02*
D03*
X123190Y246380D02*
D03*
Y276352D02*
D03*
X69168Y347901D02*
D03*
Y317929D02*
D03*
X262590Y535874D02*
D03*
Y505902D02*
D03*
D70*
X96520Y243910D02*
D03*
D71*
X76454Y234512D02*
D03*
Y253308D02*
D03*
D72*
X484723Y51238D02*
D03*
X15240Y50800D02*
D03*
D73*
X98360Y378015D02*
D03*
X450850Y234950D02*
D03*
Y198120D02*
D03*
X23180Y125730D02*
D03*
X351200Y21000D02*
D03*
X46400D02*
D03*
X71800D02*
D03*
X97200D02*
D03*
X122600D02*
D03*
X148000D02*
D03*
X173400D02*
D03*
X198800D02*
D03*
X224200D02*
D03*
X249600D02*
D03*
X275000D02*
D03*
X300400D02*
D03*
X325800D02*
D03*
X376600D02*
D03*
X402000D02*
D03*
X478200D02*
D03*
X427400D02*
D03*
X452800D02*
D03*
D74*
X98360Y352615D02*
D03*
D75*
X476250Y234950D02*
D03*
Y198120D02*
D03*
X43180Y125730D02*
D03*
X21000Y21000D02*
D03*
D76*
X111760Y313690D02*
D03*
D77*
X187960D02*
D03*
X213360D02*
D03*
X162560D02*
D03*
D78*
X238760D02*
D03*
X264160D02*
D03*
D79*
X28000Y572000D02*
D03*
Y522000D02*
D03*
Y472000D02*
D03*
D80*
X263000Y582500D02*
D03*
X474998Y362250D02*
D03*
D81*
X171174Y193426D02*
D03*
X199474Y156769D02*
D03*
X199725Y138828D02*
D03*
X264350Y237116D02*
D03*
X289501Y153212D02*
D03*
X238190Y227900D02*
D03*
X282510Y203900D02*
D03*
X282130Y219900D02*
D03*
X144780Y163830D02*
D03*
X110490D02*
D03*
X76200D02*
D03*
X237300Y211900D02*
D03*
X280670Y38100D02*
D03*
X220980Y99060D02*
D03*
Y114300D02*
D03*
X64770Y78740D02*
D03*
X125730D02*
D03*
X95250D02*
D03*
X140970Y39370D02*
D03*
X110490D02*
D03*
X80010D02*
D03*
X253294Y284478D02*
D03*
X289346Y520984D02*
D03*
X230699Y549057D02*
D03*
X228782Y507024D02*
D03*
X287480Y499945D02*
D03*
X193531Y341974D02*
D03*
X401198Y198440D02*
D03*
Y235072D02*
D03*
X400573Y331581D02*
D03*
X419951Y267988D02*
D03*
X136627Y214715D02*
D03*
X155605Y338512D02*
D03*
X328364Y120810D02*
D03*
X328044Y139951D02*
D03*
X379350Y120358D02*
D03*
X379179Y139771D02*
D03*
X446503Y394898D02*
D03*
X278588Y114342D02*
D03*
X278430Y99023D02*
D03*
X278746Y83071D02*
D03*
X271090Y152614D02*
D03*
X296851Y293133D02*
D03*
X321286Y318857D02*
D03*
D82*
X154743Y276102D02*
D03*
X324755Y405274D02*
D03*
X323978Y375302D02*
D03*
X34105Y363208D02*
D03*
X69987Y367818D02*
D03*
X22647Y245710D02*
D03*
X154310Y485360D02*
D03*
X286901Y541089D02*
D03*
X312455Y454837D02*
D03*
X403455Y574748D02*
D03*
X427044Y546384D02*
D03*
X373936Y476062D02*
D03*
X355546Y303925D02*
D03*
X420994Y304389D02*
D03*
X375877Y218176D02*
D03*
X339823Y195965D02*
D03*
X370804Y423958D02*
D03*
X75743Y294864D02*
D03*
X46570Y245779D02*
D03*
X320240Y581465D02*
D03*
X421464Y584008D02*
D03*
X437346Y426800D02*
D03*
X231488Y406766D02*
D03*
X198344Y406522D02*
D03*
X292242Y322298D02*
D03*
M02*
