G04 Layer_Physical_Order=3*
G04 Layer_Color=16440176*
%FSLAX44Y44*%
%MOMM*%
G71*
G01*
G75*
%ADD36C,1.5000*%
%ADD38R,1.5000X1.5000*%
%ADD39R,1.6000X1.6000*%
%ADD40C,1.6000*%
%ADD44C,1.3000*%
G36*
X342900Y444500D02*
X63500D01*
Y593444D01*
X249785D01*
X250271Y592271D01*
X248000Y590000D01*
Y575000D01*
X255500Y567500D01*
X270500D01*
X278000Y575000D01*
Y590000D01*
X275729Y592271D01*
X276215Y593444D01*
X312410D01*
X312841Y592174D01*
X310969Y590737D01*
X308885Y588021D01*
X307575Y584859D01*
X307128Y581465D01*
X307575Y578072D01*
X308885Y574909D01*
X310969Y572193D01*
X313684Y570110D01*
X316847Y568800D01*
X320240Y568353D01*
X323634Y568800D01*
X326796Y570110D01*
X329512Y572193D01*
X331596Y574909D01*
X332906Y578072D01*
X333353Y581465D01*
X332906Y584859D01*
X331596Y588021D01*
X329512Y590737D01*
X327639Y592174D01*
X328070Y593444D01*
X342900D01*
Y444500D01*
D02*
G37*
G36*
X493444Y64398D02*
X492174Y63550D01*
X491072Y64006D01*
X488722Y64315D01*
X480723D01*
X478373Y64006D01*
X476184Y63099D01*
X474304Y61657D01*
X472861Y59777D01*
X471954Y57587D01*
X471645Y55238D01*
Y47238D01*
X471954Y44888D01*
X472861Y42699D01*
X474304Y40819D01*
X476184Y39376D01*
X478373Y38469D01*
X480723Y38160D01*
X488722D01*
X491072Y38469D01*
X492174Y38926D01*
X493444Y38077D01*
Y31750D01*
X484724D01*
X484504Y31919D01*
X481463Y33178D01*
X478200Y33608D01*
X474937Y33178D01*
X471896Y31919D01*
X471676Y31750D01*
X459324D01*
X459104Y31919D01*
X456063Y33178D01*
X452800Y33608D01*
X449537Y33178D01*
X446496Y31919D01*
X446276Y31750D01*
X433924D01*
X433704Y31919D01*
X430663Y33178D01*
X427400Y33608D01*
X424137Y33178D01*
X421096Y31919D01*
X420876Y31750D01*
X408524D01*
X408304Y31919D01*
X405263Y33178D01*
X402000Y33608D01*
X398737Y33178D01*
X395696Y31919D01*
X395476Y31750D01*
X383124D01*
X382904Y31919D01*
X379863Y33178D01*
X376600Y33608D01*
X373337Y33178D01*
X370296Y31919D01*
X370076Y31750D01*
X357724D01*
X357504Y31919D01*
X354463Y33178D01*
X351200Y33608D01*
X347937Y33178D01*
X344896Y31919D01*
X344676Y31750D01*
X332324D01*
X332104Y31919D01*
X329063Y33178D01*
X325800Y33608D01*
X322537Y33178D01*
X319496Y31919D01*
X319276Y31750D01*
X306924D01*
X306704Y31919D01*
X303663Y33178D01*
X300400Y33608D01*
X297137Y33178D01*
X294096Y31919D01*
X293876Y31750D01*
X281524D01*
X281304Y31919D01*
X278263Y33178D01*
X275000Y33608D01*
X271737Y33178D01*
X268696Y31919D01*
X268476Y31750D01*
X256124D01*
X255904Y31919D01*
X252863Y33178D01*
X249600Y33608D01*
X246337Y33178D01*
X243296Y31919D01*
X243076Y31750D01*
X230724D01*
X230504Y31919D01*
X227463Y33178D01*
X224200Y33608D01*
X220937Y33178D01*
X217896Y31919D01*
X217676Y31750D01*
X205324D01*
X205104Y31919D01*
X202063Y33178D01*
X198800Y33608D01*
X195537Y33178D01*
X192496Y31919D01*
X192276Y31750D01*
X179924D01*
X179704Y31919D01*
X176663Y33178D01*
X173400Y33608D01*
X170137Y33178D01*
X167096Y31919D01*
X166876Y31750D01*
X154524D01*
X154304Y31919D01*
X151263Y33178D01*
X148000Y33608D01*
X144737Y33178D01*
X141696Y31919D01*
X141476Y31750D01*
X129124D01*
X128904Y31919D01*
X125863Y33178D01*
X122600Y33608D01*
X119337Y33178D01*
X116296Y31919D01*
X116076Y31750D01*
X103724D01*
X103504Y31919D01*
X100463Y33178D01*
X97200Y33608D01*
X93937Y33178D01*
X90896Y31919D01*
X90676Y31750D01*
X78324D01*
X78104Y31919D01*
X75063Y33178D01*
X71800Y33608D01*
X68537Y33178D01*
X65496Y31919D01*
X65276Y31750D01*
X59690D01*
Y24428D01*
X59622Y24263D01*
X59192Y21000D01*
X59622Y17737D01*
X59690Y17572D01*
Y6556D01*
X33020D01*
Y8500D01*
X33500D01*
Y33500D01*
X33020D01*
Y64770D01*
X6556D01*
Y415290D01*
X187250D01*
X187812Y414151D01*
X186989Y413078D01*
X185679Y409916D01*
X185232Y406522D01*
X185679Y403129D01*
X186989Y399966D01*
X189072Y397251D01*
X191788Y395167D01*
X194951Y393857D01*
X198344Y393410D01*
X201738Y393857D01*
X204900Y395167D01*
X207616Y397251D01*
X209700Y399966D01*
X211010Y403129D01*
X211456Y406522D01*
X211010Y409916D01*
X209700Y413078D01*
X208877Y414151D01*
X209438Y415290D01*
X220207D01*
X220769Y414151D01*
X220133Y413322D01*
X218823Y410160D01*
X218376Y406766D01*
X218823Y403372D01*
X220133Y400210D01*
X222217Y397494D01*
X224932Y395410D01*
X228095Y394101D01*
X231488Y393654D01*
X234882Y394101D01*
X238045Y395410D01*
X240760Y397494D01*
X242844Y400210D01*
X244154Y403372D01*
X244601Y406766D01*
X244154Y410160D01*
X242844Y413322D01*
X242208Y414151D01*
X242770Y415290D01*
X365760D01*
Y464514D01*
X366899Y465076D01*
X367380Y464706D01*
X370542Y463397D01*
X373936Y462950D01*
X377330Y463397D01*
X380492Y464706D01*
X383208Y466790D01*
X385292Y469506D01*
X386601Y472668D01*
X387048Y476062D01*
X386601Y479456D01*
X385292Y482618D01*
X383208Y485334D01*
X380492Y487417D01*
X377330Y488727D01*
X373936Y489174D01*
X370542Y488727D01*
X367380Y487417D01*
X366899Y487048D01*
X365760Y487610D01*
Y593444D01*
X410718D01*
X411344Y592174D01*
X410109Y590564D01*
X409003Y587896D01*
X407626Y587092D01*
X406849Y587413D01*
X403455Y587860D01*
X400062Y587413D01*
X396899Y586104D01*
X394184Y584020D01*
X392100Y581304D01*
X390790Y578142D01*
X390343Y574748D01*
X390790Y571354D01*
X392100Y568192D01*
X394184Y565476D01*
X396899Y563393D01*
X400062Y562083D01*
X403455Y561636D01*
X406849Y562083D01*
X410011Y563393D01*
X412727Y565476D01*
X414811Y568192D01*
X416121Y571354D01*
X416924Y571818D01*
X418071Y571343D01*
X421464Y570896D01*
X424858Y571343D01*
X428020Y572653D01*
X430736Y574736D01*
X432820Y577452D01*
X434130Y580615D01*
X434576Y584008D01*
X434130Y587402D01*
X432820Y590564D01*
X431585Y592174D01*
X432211Y593444D01*
X493444D01*
Y64398D01*
D02*
G37*
%LPC*%
G36*
X289346Y532583D02*
X286344Y532188D01*
X283547Y531029D01*
X281144Y529186D01*
X279301Y526784D01*
X278142Y523986D01*
X277747Y520984D01*
X278142Y517982D01*
X279301Y515184D01*
X281144Y512782D01*
X282532Y511717D01*
X282340Y510264D01*
X281680Y509990D01*
X279278Y508147D01*
X277435Y505745D01*
X276276Y502947D01*
X275881Y499945D01*
X276276Y496943D01*
X277435Y494146D01*
X279278Y491743D01*
X281680Y489900D01*
X284478Y488741D01*
X287480Y488346D01*
X290482Y488741D01*
X293280Y489900D01*
X295682Y491743D01*
X297525Y494146D01*
X298684Y496943D01*
X299079Y499945D01*
X298684Y502947D01*
X297525Y505745D01*
X295682Y508147D01*
X294295Y509212D01*
X294486Y510666D01*
X295146Y510939D01*
X297548Y512782D01*
X299391Y515184D01*
X300550Y517982D01*
X300945Y520984D01*
X300550Y523986D01*
X299391Y526784D01*
X297548Y529186D01*
X295146Y531029D01*
X292348Y532188D01*
X289346Y532583D01*
D02*
G37*
G36*
X228782Y518623D02*
X225780Y518228D01*
X222982Y517070D01*
X220580Y515226D01*
X218737Y512824D01*
X217578Y510026D01*
X217183Y507024D01*
X217578Y504022D01*
X218737Y501225D01*
X220580Y498822D01*
X222982Y496979D01*
X225780Y495820D01*
X228782Y495425D01*
X231784Y495820D01*
X234582Y496979D01*
X236984Y498822D01*
X238827Y501225D01*
X239986Y504022D01*
X240381Y507024D01*
X239986Y510026D01*
X238827Y512824D01*
X236984Y515226D01*
X234582Y517070D01*
X231784Y518228D01*
X228782Y518623D01*
D02*
G37*
G36*
X230699Y560656D02*
X227697Y560261D01*
X224900Y559102D01*
X222497Y557259D01*
X220654Y554856D01*
X219495Y552059D01*
X219100Y549057D01*
X219495Y546055D01*
X220654Y543257D01*
X222497Y540855D01*
X224900Y539011D01*
X227697Y537853D01*
X230699Y537458D01*
X233701Y537853D01*
X236499Y539011D01*
X238901Y540855D01*
X240744Y543257D01*
X241903Y546055D01*
X242299Y549057D01*
X241903Y552059D01*
X240744Y554856D01*
X238901Y557259D01*
X236499Y559102D01*
X233701Y560261D01*
X230699Y560656D01*
D02*
G37*
G36*
X144780Y175429D02*
X141778Y175034D01*
X138980Y173875D01*
X136578Y172032D01*
X134735Y169630D01*
X133576Y166832D01*
X133181Y163830D01*
X133576Y160828D01*
X134735Y158030D01*
X136578Y155628D01*
X138980Y153785D01*
X141778Y152626D01*
X144780Y152231D01*
X147782Y152626D01*
X150580Y153785D01*
X152982Y155628D01*
X154825Y158030D01*
X155984Y160828D01*
X156379Y163830D01*
X155984Y166832D01*
X154825Y169630D01*
X152982Y172032D01*
X150580Y173875D01*
X147782Y175034D01*
X144780Y175429D01*
D02*
G37*
G36*
X289501Y164812D02*
X286499Y164417D01*
X283701Y163258D01*
X281299Y161414D01*
X280701Y160635D01*
X279578D01*
X279258Y160841D01*
X276890Y162659D01*
X274092Y163818D01*
X271090Y164213D01*
X268088Y163818D01*
X265291Y162659D01*
X262888Y160816D01*
X261045Y158413D01*
X259886Y155616D01*
X259491Y152614D01*
X259886Y149612D01*
X261045Y146814D01*
X262888Y144412D01*
X265291Y142568D01*
X268088Y141410D01*
X271090Y141014D01*
X274092Y141410D01*
X276890Y142568D01*
X279292Y144412D01*
X279890Y145191D01*
X281013D01*
X281333Y144985D01*
X283701Y143167D01*
X286499Y142008D01*
X289501Y141613D01*
X292503Y142008D01*
X295300Y143167D01*
X297703Y145011D01*
X299546Y147413D01*
X300705Y150210D01*
X301100Y153212D01*
X300705Y156215D01*
X299546Y159012D01*
X297703Y161414D01*
X295300Y163258D01*
X292503Y164417D01*
X289501Y164812D01*
D02*
G37*
G36*
X171174Y205025D02*
X168172Y204630D01*
X165375Y203471D01*
X162972Y201628D01*
X161129Y199226D01*
X159970Y196428D01*
X159575Y193426D01*
X159970Y190424D01*
X161129Y187626D01*
X162972Y185224D01*
X165375Y183381D01*
X168172Y182222D01*
X171174Y181827D01*
X174176Y182222D01*
X176974Y183381D01*
X179376Y185224D01*
X181219Y187626D01*
X182378Y190424D01*
X182773Y193426D01*
X182378Y196428D01*
X181219Y199226D01*
X179376Y201628D01*
X176974Y203471D01*
X174176Y204630D01*
X171174Y205025D01*
D02*
G37*
G36*
X53220Y135770D02*
X45180D01*
Y127730D01*
X53220D01*
Y135770D01*
D02*
G37*
G36*
X76200Y175429D02*
X73198Y175034D01*
X70400Y173875D01*
X67998Y172032D01*
X66155Y169630D01*
X64996Y166832D01*
X64601Y163830D01*
X64996Y160828D01*
X66155Y158030D01*
X67998Y155628D01*
X70400Y153785D01*
X73198Y152626D01*
X76200Y152231D01*
X79202Y152626D01*
X82000Y153785D01*
X84402Y155628D01*
X86245Y158030D01*
X87404Y160828D01*
X87799Y163830D01*
X87404Y166832D01*
X86245Y169630D01*
X84402Y172032D01*
X82000Y173875D01*
X79202Y175034D01*
X76200Y175429D01*
D02*
G37*
G36*
X110490D02*
X107488Y175034D01*
X104690Y173875D01*
X102288Y172032D01*
X100445Y169630D01*
X99286Y166832D01*
X98891Y163830D01*
X99286Y160828D01*
X100445Y158030D01*
X102288Y155628D01*
X104690Y153785D01*
X107488Y152626D01*
X110490Y152231D01*
X113492Y152626D01*
X116290Y153785D01*
X118692Y155628D01*
X120535Y158030D01*
X121694Y160828D01*
X122089Y163830D01*
X121694Y166832D01*
X120535Y169630D01*
X118692Y172032D01*
X116290Y173875D01*
X113492Y175034D01*
X110490Y175429D01*
D02*
G37*
G36*
X450850Y210728D02*
X447587Y210298D01*
X444546Y209039D01*
X441935Y207035D01*
X439931Y204424D01*
X438672Y201383D01*
X438242Y198120D01*
X438672Y194857D01*
X439931Y191816D01*
X441935Y189205D01*
X444546Y187201D01*
X447587Y185942D01*
X450850Y185512D01*
X454113Y185942D01*
X457154Y187201D01*
X459765Y189205D01*
X461769Y191816D01*
X462480Y193533D01*
X463750Y193281D01*
Y185620D01*
X488750D01*
Y210620D01*
X463750D01*
Y202959D01*
X462480Y202707D01*
X461769Y204424D01*
X459765Y207035D01*
X457154Y209039D01*
X454113Y210298D01*
X450850Y210728D01*
D02*
G37*
G36*
X136627Y226314D02*
X133625Y225919D01*
X130827Y224760D01*
X128425Y222917D01*
X126582Y220515D01*
X125423Y217717D01*
X125028Y214715D01*
X125423Y211713D01*
X126582Y208915D01*
X128425Y206513D01*
X130827Y204670D01*
X133625Y203511D01*
X136627Y203116D01*
X139629Y203511D01*
X142427Y204670D01*
X144829Y206513D01*
X146672Y208915D01*
X147831Y211713D01*
X148226Y214715D01*
X147831Y217717D01*
X146672Y220515D01*
X144829Y222917D01*
X142427Y224760D01*
X139629Y225919D01*
X136627Y226314D01*
D02*
G37*
G36*
X375877Y231288D02*
X372483Y230842D01*
X369320Y229532D01*
X366605Y227448D01*
X364521Y224732D01*
X363211Y221570D01*
X362764Y218176D01*
X363211Y214783D01*
X364521Y211620D01*
X366605Y208905D01*
X369320Y206821D01*
X372483Y205511D01*
X375877Y205064D01*
X379270Y205511D01*
X382433Y206821D01*
X385148Y208905D01*
X387232Y211620D01*
X388542Y214783D01*
X388989Y218176D01*
X388542Y221570D01*
X387232Y224732D01*
X385148Y227448D01*
X382433Y229532D01*
X379270Y230842D01*
X375877Y231288D01*
D02*
G37*
G36*
X450850Y247558D02*
X447587Y247128D01*
X444546Y245869D01*
X441935Y243865D01*
X439931Y241254D01*
X438672Y238213D01*
X438242Y234950D01*
X438672Y231687D01*
X439931Y228646D01*
X441935Y226035D01*
X444546Y224031D01*
X447587Y222772D01*
X450850Y222342D01*
X454113Y222772D01*
X457154Y224031D01*
X459765Y226035D01*
X461769Y228646D01*
X462480Y230363D01*
X463750Y230111D01*
Y222450D01*
X488750D01*
Y247450D01*
X463750D01*
Y239789D01*
X462480Y239537D01*
X461769Y241254D01*
X459765Y243865D01*
X457154Y245869D01*
X454113Y247128D01*
X450850Y247558D01*
D02*
G37*
G36*
X401198Y210039D02*
X398195Y209644D01*
X395398Y208485D01*
X392996Y206642D01*
X391152Y204239D01*
X389994Y201442D01*
X389598Y198440D01*
X389994Y195438D01*
X391152Y192640D01*
X392996Y190238D01*
X395398Y188395D01*
X398195Y187236D01*
X401198Y186840D01*
X404200Y187236D01*
X406997Y188395D01*
X409399Y190238D01*
X411243Y192640D01*
X412402Y195438D01*
X412797Y198440D01*
X412402Y201442D01*
X411243Y204239D01*
X409399Y206642D01*
X406997Y208485D01*
X404200Y209644D01*
X401198Y210039D01*
D02*
G37*
G36*
X282130Y231499D02*
X279128Y231104D01*
X276330Y229945D01*
X273928Y228102D01*
X272085Y225700D01*
X270926Y222902D01*
X270531Y219900D01*
X270926Y216898D01*
X272085Y214100D01*
X273928Y211698D01*
X273972Y211664D01*
X272465Y209700D01*
X271306Y206902D01*
X270911Y203900D01*
X271306Y200898D01*
X272465Y198100D01*
X274308Y195698D01*
X276710Y193855D01*
X279508Y192696D01*
X282510Y192301D01*
X285512Y192696D01*
X288310Y193855D01*
X290712Y195698D01*
X292555Y198100D01*
X293714Y200898D01*
X294109Y203900D01*
X293714Y206902D01*
X292555Y209700D01*
X290712Y212102D01*
X290668Y212136D01*
X292175Y214100D01*
X293334Y216898D01*
X293729Y219900D01*
X293334Y222902D01*
X292175Y225700D01*
X290332Y228102D01*
X287930Y229945D01*
X285132Y231104D01*
X282130Y231499D01*
D02*
G37*
G36*
X238190Y239499D02*
X235188Y239104D01*
X232390Y237945D01*
X229988Y236102D01*
X228145Y233700D01*
X226986Y230902D01*
X226591Y227900D01*
X226986Y224898D01*
X228145Y222100D01*
X229463Y220382D01*
X229098Y220102D01*
X227255Y217700D01*
X226096Y214902D01*
X225701Y211900D01*
X226096Y208898D01*
X227255Y206100D01*
X229098Y203698D01*
X231500Y201855D01*
X234298Y200696D01*
X237300Y200301D01*
X240302Y200696D01*
X243100Y201855D01*
X245502Y203698D01*
X247345Y206100D01*
X248504Y208898D01*
X248899Y211900D01*
X248504Y214902D01*
X247345Y217700D01*
X246027Y219418D01*
X246392Y219698D01*
X248235Y222100D01*
X249394Y224898D01*
X249789Y227900D01*
X249394Y230902D01*
X248235Y233700D01*
X246392Y236102D01*
X243990Y237945D01*
X241192Y239104D01*
X238190Y239499D01*
D02*
G37*
G36*
X199474Y168368D02*
X196472Y167973D01*
X193675Y166814D01*
X191272Y164971D01*
X189429Y162569D01*
X188270Y159771D01*
X187875Y156769D01*
X188270Y153767D01*
X189429Y150969D01*
X191272Y148567D01*
X191572Y148337D01*
Y147067D01*
X191523Y147030D01*
X189680Y144627D01*
X188521Y141830D01*
X188126Y138828D01*
X188521Y135826D01*
X189680Y133028D01*
X191523Y130626D01*
X193925Y128783D01*
X196723Y127624D01*
X199725Y127228D01*
X202727Y127624D01*
X205525Y128783D01*
X207927Y130626D01*
X209770Y133028D01*
X210929Y135826D01*
X211324Y138828D01*
X210929Y141830D01*
X209770Y144627D01*
X207927Y147030D01*
X207627Y147260D01*
Y148530D01*
X207676Y148567D01*
X209519Y150969D01*
X210678Y153767D01*
X211073Y156769D01*
X210678Y159771D01*
X209519Y162569D01*
X207676Y164971D01*
X205274Y166814D01*
X202476Y167973D01*
X199474Y168368D01*
D02*
G37*
G36*
X48400Y30863D02*
Y23000D01*
X56263D01*
X56182Y23621D01*
X55170Y26063D01*
X53561Y28161D01*
X51463Y29770D01*
X49021Y30782D01*
X48400Y30863D01*
D02*
G37*
G36*
X64770Y90339D02*
X61768Y89944D01*
X58970Y88785D01*
X56568Y86942D01*
X54725Y84540D01*
X53566Y81742D01*
X53171Y78740D01*
X53566Y75738D01*
X54725Y72940D01*
X56568Y70538D01*
X58970Y68695D01*
X61768Y67536D01*
X64770Y67141D01*
X67772Y67536D01*
X70570Y68695D01*
X72972Y70538D01*
X74815Y72940D01*
X75974Y75738D01*
X76369Y78740D01*
X75974Y81742D01*
X74815Y84540D01*
X72972Y86942D01*
X70570Y88785D01*
X67772Y89944D01*
X64770Y90339D01*
D02*
G37*
G36*
X95250D02*
X92248Y89944D01*
X89450Y88785D01*
X87048Y86942D01*
X85205Y84540D01*
X84046Y81742D01*
X83651Y78740D01*
X84046Y75738D01*
X85205Y72940D01*
X87048Y70538D01*
X89450Y68695D01*
X92248Y67536D01*
X95250Y67141D01*
X98252Y67536D01*
X101050Y68695D01*
X103452Y70538D01*
X105295Y72940D01*
X106454Y75738D01*
X106849Y78740D01*
X106454Y81742D01*
X105295Y84540D01*
X103452Y86942D01*
X101050Y88785D01*
X98252Y89944D01*
X95250Y90339D01*
D02*
G37*
G36*
X44400Y19000D02*
X36537D01*
X36618Y18379D01*
X37630Y15937D01*
X39239Y13839D01*
X41337Y12230D01*
X43779Y11218D01*
X44400Y11137D01*
Y19000D01*
D02*
G37*
G36*
X56263D02*
X48400D01*
Y11137D01*
X49021Y11218D01*
X51463Y12230D01*
X53561Y13839D01*
X55170Y15937D01*
X56182Y18379D01*
X56263Y19000D01*
D02*
G37*
G36*
X44400Y30863D02*
X43779Y30782D01*
X41337Y29770D01*
X39239Y28161D01*
X37630Y26063D01*
X36618Y23621D01*
X36537Y23000D01*
X44400D01*
Y30863D01*
D02*
G37*
G36*
X125730Y90339D02*
X122728Y89944D01*
X119930Y88785D01*
X117528Y86942D01*
X115685Y84540D01*
X114526Y81742D01*
X114131Y78740D01*
X114526Y75738D01*
X115685Y72940D01*
X117528Y70538D01*
X119930Y68695D01*
X122728Y67536D01*
X125730Y67141D01*
X128732Y67536D01*
X131530Y68695D01*
X133932Y70538D01*
X135775Y72940D01*
X136934Y75738D01*
X137329Y78740D01*
X136934Y81742D01*
X135775Y84540D01*
X133932Y86942D01*
X131530Y88785D01*
X128732Y89944D01*
X125730Y90339D01*
D02*
G37*
G36*
X328044Y151551D02*
X325041Y151155D01*
X322244Y149997D01*
X319842Y148153D01*
X317998Y145751D01*
X316840Y142954D01*
X316444Y139951D01*
X316840Y136949D01*
X317998Y134152D01*
X319842Y131749D01*
X320958Y130893D01*
Y129623D01*
X320162Y129012D01*
X318318Y126610D01*
X317160Y123812D01*
X316764Y120810D01*
X317160Y117808D01*
X318318Y115010D01*
X320162Y112608D01*
X322564Y110765D01*
X325362Y109606D01*
X328364Y109211D01*
X331366Y109606D01*
X334163Y110765D01*
X336566Y112608D01*
X338409Y115010D01*
X339568Y117808D01*
X339963Y120810D01*
X339568Y123812D01*
X338409Y126610D01*
X336566Y129012D01*
X335449Y129868D01*
Y131138D01*
X336245Y131749D01*
X338089Y134152D01*
X339248Y136949D01*
X339643Y139951D01*
X339248Y142954D01*
X338089Y145751D01*
X336245Y148153D01*
X333843Y149997D01*
X331046Y151155D01*
X328044Y151551D01*
D02*
G37*
G36*
X23180Y138338D02*
X19917Y137908D01*
X16876Y136649D01*
X14265Y134645D01*
X12261Y132034D01*
X11002Y128993D01*
X10572Y125730D01*
X11002Y122467D01*
X12261Y119426D01*
X14265Y116815D01*
X16876Y114811D01*
X19917Y113552D01*
X23180Y113122D01*
X26443Y113552D01*
X29484Y114811D01*
X31870Y116642D01*
X33140Y116278D01*
Y115690D01*
X41180D01*
Y125730D01*
Y135770D01*
X33140D01*
Y135182D01*
X31870Y134818D01*
X29484Y136649D01*
X26443Y137908D01*
X23180Y138338D01*
D02*
G37*
G36*
X53220Y123730D02*
X45180D01*
Y115690D01*
X53220D01*
Y123730D01*
D02*
G37*
G36*
X278588Y125942D02*
X275586Y125546D01*
X272789Y124388D01*
X270386Y122544D01*
X268543Y120142D01*
X267384Y117345D01*
X266989Y114342D01*
X267384Y111340D01*
X268543Y108543D01*
X269891Y106785D01*
X268385Y104822D01*
X267226Y102025D01*
X266831Y99023D01*
X267226Y96021D01*
X268385Y93223D01*
X270213Y90841D01*
X268701Y88871D01*
X267542Y86073D01*
X267147Y83071D01*
X267542Y80069D01*
X268701Y77272D01*
X270544Y74869D01*
X272947Y73026D01*
X275744Y71867D01*
X278746Y71472D01*
X281748Y71867D01*
X284546Y73026D01*
X286948Y74869D01*
X288792Y77272D01*
X289950Y80069D01*
X290345Y83071D01*
X289950Y86073D01*
X288792Y88871D01*
X286964Y91253D01*
X288476Y93223D01*
X289634Y96021D01*
X290030Y99023D01*
X289634Y102025D01*
X288476Y104822D01*
X287127Y106580D01*
X288633Y108543D01*
X289792Y111340D01*
X290187Y114342D01*
X289792Y117345D01*
X288633Y120142D01*
X286790Y122544D01*
X284388Y124388D01*
X281590Y125546D01*
X278588Y125942D01*
D02*
G37*
G36*
X220980Y125899D02*
X217978Y125504D01*
X215180Y124345D01*
X212778Y122502D01*
X210935Y120100D01*
X209776Y117302D01*
X209381Y114300D01*
X209776Y111298D01*
X210935Y108500D01*
X212332Y106680D01*
X210935Y104860D01*
X209776Y102062D01*
X209381Y99060D01*
X209776Y96058D01*
X210935Y93260D01*
X212778Y90858D01*
X215180Y89015D01*
X217978Y87856D01*
X220980Y87461D01*
X223982Y87856D01*
X226780Y89015D01*
X229182Y90858D01*
X231025Y93260D01*
X232184Y96058D01*
X232579Y99060D01*
X232184Y102062D01*
X231025Y104860D01*
X229628Y106680D01*
X231025Y108500D01*
X232184Y111298D01*
X232579Y114300D01*
X232184Y117302D01*
X231025Y120100D01*
X229182Y122502D01*
X226780Y124345D01*
X223982Y125504D01*
X220980Y125899D01*
D02*
G37*
G36*
X379179Y151370D02*
X376176Y150975D01*
X373379Y149816D01*
X370977Y147973D01*
X369133Y145570D01*
X367975Y142773D01*
X367579Y139771D01*
X367975Y136769D01*
X369133Y133971D01*
X370977Y131569D01*
X372195Y130634D01*
Y129364D01*
X371148Y128560D01*
X369305Y126158D01*
X368146Y123361D01*
X367751Y120358D01*
X368146Y117356D01*
X369305Y114559D01*
X371148Y112157D01*
X373551Y110313D01*
X376348Y109155D01*
X379350Y108759D01*
X382352Y109155D01*
X385150Y110313D01*
X387552Y112157D01*
X389395Y114559D01*
X390554Y117356D01*
X390950Y120358D01*
X390554Y123361D01*
X389395Y126158D01*
X387552Y128560D01*
X386334Y129495D01*
Y130765D01*
X387380Y131569D01*
X389224Y133971D01*
X390382Y136769D01*
X390778Y139771D01*
X390382Y142773D01*
X389224Y145570D01*
X387380Y147973D01*
X384978Y149816D01*
X382181Y150975D01*
X379179Y151370D01*
D02*
G37*
G36*
X401198Y246672D02*
X398195Y246276D01*
X395398Y245118D01*
X392996Y243274D01*
X391152Y240872D01*
X389994Y238075D01*
X389598Y235072D01*
X389994Y232070D01*
X391152Y229273D01*
X392996Y226871D01*
X395398Y225027D01*
X398195Y223869D01*
X401198Y223473D01*
X404200Y223869D01*
X406997Y225027D01*
X409399Y226871D01*
X411243Y229273D01*
X412402Y232070D01*
X412797Y235072D01*
X412402Y238075D01*
X411243Y240872D01*
X409399Y243274D01*
X406997Y245118D01*
X404200Y246276D01*
X401198Y246672D01*
D02*
G37*
G36*
X98360Y390623D02*
X95097Y390193D01*
X92057Y388933D01*
X89445Y386930D01*
X87442Y384319D01*
X86182Y381278D01*
X85753Y378015D01*
X86182Y374752D01*
X87442Y371711D01*
X89445Y369100D01*
X92057Y367096D01*
X93774Y366385D01*
X93521Y365115D01*
X85861D01*
Y340115D01*
X110860D01*
Y365115D01*
X103200D01*
X102947Y366385D01*
X104664Y367096D01*
X107275Y369100D01*
X109279Y371711D01*
X110539Y374752D01*
X110968Y378015D01*
X110539Y381278D01*
X109279Y384319D01*
X107275Y386930D01*
X104664Y388933D01*
X101624Y390193D01*
X98360Y390623D01*
D02*
G37*
G36*
X482498Y377250D02*
X467498D01*
X459998Y369750D01*
Y354750D01*
X467498Y347250D01*
X482498D01*
X489998Y354750D01*
Y369750D01*
X482498Y377250D01*
D02*
G37*
G36*
X34105Y376320D02*
X30711Y375873D01*
X27548Y374563D01*
X24833Y372479D01*
X22749Y369763D01*
X21439Y366601D01*
X20993Y363208D01*
X21439Y359814D01*
X22749Y356651D01*
X24833Y353936D01*
X27548Y351852D01*
X30711Y350542D01*
X34105Y350095D01*
X37498Y350542D01*
X40661Y351852D01*
X43376Y353936D01*
X45460Y356651D01*
X46770Y359814D01*
X47217Y363208D01*
X46770Y366601D01*
X45460Y369763D01*
X43376Y372479D01*
X40661Y374563D01*
X37498Y375873D01*
X34105Y376320D01*
D02*
G37*
G36*
X122300Y324230D02*
X113760D01*
Y315690D01*
X122300D01*
Y324230D01*
D02*
G37*
G36*
X400573Y343180D02*
X397571Y342785D01*
X394773Y341626D01*
X392371Y339783D01*
X390528Y337380D01*
X389369Y334583D01*
X388974Y331581D01*
X389369Y328579D01*
X390528Y325781D01*
X392371Y323379D01*
X394773Y321536D01*
X397571Y320377D01*
X400573Y319982D01*
X403575Y320377D01*
X406372Y321536D01*
X408775Y323379D01*
X410618Y325781D01*
X411777Y328579D01*
X412172Y331581D01*
X411777Y334583D01*
X410618Y337380D01*
X408775Y339783D01*
X406372Y341626D01*
X403575Y342785D01*
X400573Y343180D01*
D02*
G37*
G36*
X193531Y353573D02*
X190528Y353178D01*
X187731Y352019D01*
X185329Y350176D01*
X183485Y347774D01*
X182327Y344976D01*
X181931Y341974D01*
X182327Y338972D01*
X183485Y336174D01*
X185329Y333772D01*
X187731Y331929D01*
X190528Y330770D01*
X193531Y330375D01*
X196533Y330770D01*
X199330Y331929D01*
X201732Y333772D01*
X203576Y336174D01*
X204734Y338972D01*
X205130Y341974D01*
X204734Y344976D01*
X203576Y347774D01*
X201732Y350176D01*
X199330Y352019D01*
X196533Y353178D01*
X193531Y353573D01*
D02*
G37*
G36*
X69987Y380930D02*
X66594Y380483D01*
X63431Y379173D01*
X60716Y377090D01*
X58632Y374374D01*
X57322Y371212D01*
X56875Y367818D01*
X57322Y364424D01*
X58632Y361262D01*
X60716Y358546D01*
X63431Y356463D01*
X66594Y355153D01*
X69987Y354706D01*
X73381Y355153D01*
X76543Y356463D01*
X79259Y358546D01*
X81343Y361262D01*
X82653Y364424D01*
X83099Y367818D01*
X82653Y371212D01*
X81343Y374374D01*
X79259Y377090D01*
X76543Y379173D01*
X73381Y380483D01*
X69987Y380930D01*
D02*
G37*
G36*
X323978Y388414D02*
X320584Y387968D01*
X317422Y386658D01*
X314706Y384574D01*
X312623Y381858D01*
X311313Y378696D01*
X310866Y375302D01*
X311313Y371909D01*
X312623Y368746D01*
X314706Y366031D01*
X317422Y363947D01*
X320584Y362637D01*
X323978Y362190D01*
X327372Y362637D01*
X330534Y363947D01*
X333250Y366031D01*
X335334Y368746D01*
X336643Y371909D01*
X337090Y375302D01*
X336643Y378696D01*
X335334Y381858D01*
X333250Y384574D01*
X330534Y386658D01*
X327372Y387968D01*
X323978Y388414D01*
D02*
G37*
G36*
X446503Y406497D02*
X443501Y406101D01*
X440703Y404943D01*
X438301Y403099D01*
X436458Y400697D01*
X435299Y397900D01*
X434904Y394898D01*
X435299Y391895D01*
X436458Y389098D01*
X438301Y386696D01*
X440703Y384852D01*
X443501Y383694D01*
X446503Y383298D01*
X449505Y383694D01*
X452303Y384852D01*
X454705Y386696D01*
X456548Y389098D01*
X457707Y391895D01*
X458102Y394898D01*
X457707Y397900D01*
X456548Y400697D01*
X454705Y403099D01*
X452303Y404943D01*
X449505Y406101D01*
X446503Y406497D01*
D02*
G37*
G36*
X437346Y439912D02*
X433952Y439465D01*
X430790Y438156D01*
X428074Y436072D01*
X425990Y433356D01*
X424680Y430194D01*
X424234Y426800D01*
X424680Y423406D01*
X425990Y420244D01*
X428074Y417528D01*
X430790Y415445D01*
X433952Y414135D01*
X437346Y413688D01*
X440740Y414135D01*
X443902Y415445D01*
X446618Y417528D01*
X448701Y420244D01*
X450011Y423406D01*
X450458Y426800D01*
X450011Y430194D01*
X448701Y433356D01*
X446618Y436072D01*
X443902Y438156D01*
X440740Y439465D01*
X437346Y439912D01*
D02*
G37*
G36*
X109760Y324230D02*
X101220D01*
Y315690D01*
X109760D01*
Y324230D01*
D02*
G37*
G36*
X154743Y289214D02*
X151349Y288768D01*
X148187Y287458D01*
X145471Y285374D01*
X143387Y282658D01*
X142077Y279496D01*
X141630Y276102D01*
X142077Y272708D01*
X143387Y269546D01*
X145471Y266831D01*
X148187Y264747D01*
X151349Y263437D01*
X154743Y262990D01*
X158136Y263437D01*
X161299Y264747D01*
X164014Y266831D01*
X166098Y269546D01*
X167408Y272708D01*
X167855Y276102D01*
X167408Y279496D01*
X166098Y282658D01*
X164014Y285374D01*
X161299Y287458D01*
X158136Y288768D01*
X154743Y289214D01*
D02*
G37*
G36*
X253294Y296077D02*
X250292Y295682D01*
X247494Y294523D01*
X245092Y292680D01*
X243249Y290278D01*
X242090Y287480D01*
X241695Y284478D01*
X242090Y281476D01*
X243249Y278678D01*
X245092Y276276D01*
X247494Y274433D01*
X250292Y273274D01*
X253294Y272879D01*
X256296Y273274D01*
X259094Y274433D01*
X261496Y276276D01*
X263339Y278678D01*
X264498Y281476D01*
X264893Y284478D01*
X264498Y287480D01*
X263339Y290278D01*
X261496Y292680D01*
X259094Y294523D01*
X256296Y295682D01*
X253294Y296077D01*
D02*
G37*
G36*
X296851Y304732D02*
X293849Y304337D01*
X291052Y303178D01*
X288649Y301335D01*
X286806Y298932D01*
X285647Y296135D01*
X285252Y293133D01*
X285647Y290131D01*
X286806Y287333D01*
X288649Y284931D01*
X291052Y283088D01*
X293849Y281929D01*
X296851Y281534D01*
X299853Y281929D01*
X302651Y283088D01*
X305053Y284931D01*
X306896Y287333D01*
X308055Y290131D01*
X308451Y293133D01*
X308055Y296135D01*
X306896Y298932D01*
X305053Y301335D01*
X302651Y303178D01*
X299853Y304337D01*
X296851Y304732D01*
D02*
G37*
G36*
X264350Y248715D02*
X261348Y248320D01*
X258550Y247161D01*
X256148Y245318D01*
X254305Y242915D01*
X253146Y240118D01*
X252751Y237116D01*
X253146Y234114D01*
X254305Y231316D01*
X256148Y228914D01*
X258550Y227071D01*
X261348Y225912D01*
X264350Y225517D01*
X267352Y225912D01*
X270150Y227071D01*
X272552Y228914D01*
X274395Y231316D01*
X275554Y234114D01*
X275949Y237116D01*
X275554Y240118D01*
X274395Y242915D01*
X272552Y245318D01*
X270150Y247161D01*
X267352Y248320D01*
X264350Y248715D01*
D02*
G37*
G36*
X46570Y258891D02*
X43176Y258445D01*
X40014Y257135D01*
X37298Y255051D01*
X35302Y252449D01*
X34667Y252360D01*
X33878Y252429D01*
X31919Y254982D01*
X29203Y257066D01*
X26041Y258376D01*
X22647Y258823D01*
X19254Y258376D01*
X16091Y257066D01*
X13376Y254982D01*
X11292Y252267D01*
X9982Y249104D01*
X9535Y245710D01*
X9982Y242317D01*
X11292Y239154D01*
X13376Y236439D01*
X16091Y234355D01*
X19254Y233045D01*
X22647Y232598D01*
X26041Y233045D01*
X29203Y234355D01*
X31919Y236439D01*
X33915Y239040D01*
X34550Y239130D01*
X35339Y239061D01*
X37298Y236507D01*
X40014Y234424D01*
X43176Y233114D01*
X46570Y232667D01*
X49963Y233114D01*
X53126Y234424D01*
X55841Y236507D01*
X57925Y239223D01*
X59235Y242386D01*
X59682Y245779D01*
X59235Y249173D01*
X57925Y252335D01*
X55841Y255051D01*
X53126Y257135D01*
X49963Y258445D01*
X46570Y258891D01*
D02*
G37*
G36*
X419951Y279587D02*
X416949Y279192D01*
X414152Y278033D01*
X411749Y276190D01*
X409906Y273788D01*
X408747Y270990D01*
X408352Y267988D01*
X408747Y264986D01*
X409906Y262189D01*
X411749Y259786D01*
X414152Y257943D01*
X416949Y256784D01*
X419951Y256389D01*
X422953Y256784D01*
X425751Y257943D01*
X428153Y259786D01*
X429996Y262189D01*
X431155Y264986D01*
X431550Y267988D01*
X431155Y270990D01*
X429996Y273788D01*
X428153Y276190D01*
X425751Y278033D01*
X422953Y279192D01*
X419951Y279587D01*
D02*
G37*
G36*
X75743Y307976D02*
X72349Y307530D01*
X69187Y306220D01*
X66471Y304136D01*
X64387Y301420D01*
X63077Y298258D01*
X62631Y294864D01*
X63077Y291470D01*
X64387Y288308D01*
X66471Y285592D01*
X69187Y283509D01*
X72349Y282199D01*
X75743Y281752D01*
X79136Y282199D01*
X82299Y283509D01*
X85014Y285592D01*
X87098Y288308D01*
X88408Y291470D01*
X88855Y294864D01*
X88408Y298258D01*
X87098Y301420D01*
X85014Y304136D01*
X82299Y306220D01*
X79136Y307530D01*
X75743Y307976D01*
D02*
G37*
G36*
X122300Y311690D02*
X113760D01*
Y303150D01*
X122300D01*
Y311690D01*
D02*
G37*
G36*
X321286Y330456D02*
X318284Y330061D01*
X315487Y328902D01*
X313085Y327059D01*
X311241Y324657D01*
X310082Y321859D01*
X309687Y318857D01*
X310082Y315855D01*
X311241Y313057D01*
X313085Y310655D01*
X315487Y308812D01*
X318284Y307653D01*
X321286Y307258D01*
X324288Y307653D01*
X327086Y308812D01*
X329488Y310655D01*
X331332Y313057D01*
X332490Y315855D01*
X332886Y318857D01*
X332490Y321859D01*
X331332Y324657D01*
X329488Y327059D01*
X327086Y328902D01*
X324288Y330061D01*
X321286Y330456D01*
D02*
G37*
G36*
X292242Y335410D02*
X288848Y334963D01*
X285686Y333653D01*
X282970Y331569D01*
X280886Y328853D01*
X279577Y325691D01*
X279130Y322298D01*
X279577Y318904D01*
X280886Y315741D01*
X282970Y313026D01*
X285686Y310942D01*
X288848Y309632D01*
X292242Y309185D01*
X295636Y309632D01*
X298798Y310942D01*
X301514Y313026D01*
X303597Y315741D01*
X304907Y318904D01*
X305354Y322298D01*
X304907Y325691D01*
X303597Y328853D01*
X301514Y331569D01*
X298798Y333653D01*
X295636Y334963D01*
X292242Y335410D01*
D02*
G37*
G36*
X420994Y317502D02*
X417601Y317055D01*
X414438Y315745D01*
X411723Y313661D01*
X409639Y310945D01*
X408329Y307783D01*
X407882Y304389D01*
X408329Y300996D01*
X409639Y297833D01*
X411723Y295118D01*
X414438Y293034D01*
X417601Y291724D01*
X420994Y291277D01*
X424388Y291724D01*
X427551Y293034D01*
X430266Y295118D01*
X432350Y297833D01*
X433660Y300996D01*
X434107Y304389D01*
X433660Y307783D01*
X432350Y310945D01*
X430266Y313661D01*
X427551Y315745D01*
X424388Y317055D01*
X420994Y317502D01*
D02*
G37*
G36*
X155605Y350112D02*
X152603Y349716D01*
X149806Y348558D01*
X147403Y346714D01*
X145560Y344312D01*
X144401Y341514D01*
X144006Y338512D01*
X144401Y335510D01*
X145560Y332713D01*
X147403Y330310D01*
X149806Y328467D01*
X152603Y327308D01*
X155605Y326913D01*
X157934Y327220D01*
X158266Y325982D01*
X156004Y325046D01*
X153288Y322962D01*
X151205Y320246D01*
X149895Y317084D01*
X149448Y313690D01*
X149895Y310296D01*
X151205Y307134D01*
X153288Y304418D01*
X156004Y302334D01*
X159166Y301025D01*
X162560Y300578D01*
X165954Y301025D01*
X169116Y302334D01*
X171832Y304418D01*
X173916Y307134D01*
X174573Y308721D01*
X175947D01*
X176604Y307134D01*
X178688Y304418D01*
X181404Y302334D01*
X184566Y301025D01*
X187960Y300578D01*
X191354Y301025D01*
X194516Y302334D01*
X197232Y304418D01*
X199315Y307134D01*
X199973Y308721D01*
X201347D01*
X202005Y307134D01*
X204088Y304418D01*
X206804Y302334D01*
X209966Y301025D01*
X213360Y300578D01*
X216754Y301025D01*
X219916Y302334D01*
X222632Y304418D01*
X224715Y307134D01*
X225540Y309124D01*
X226914Y309124D01*
X227841Y306886D01*
X229845Y304275D01*
X232456Y302271D01*
X235497Y301012D01*
X238760Y300582D01*
X242023Y301012D01*
X245064Y302271D01*
X247675Y304275D01*
X249679Y306886D01*
X250808Y309613D01*
X250810Y309613D01*
X252110D01*
X252112Y309613D01*
X253241Y306886D01*
X255245Y304275D01*
X257856Y302271D01*
X260897Y301012D01*
X264160Y300582D01*
X267423Y301012D01*
X270464Y302271D01*
X273075Y304275D01*
X275079Y306886D01*
X276338Y309927D01*
X276768Y313190D01*
Y314190D01*
X276338Y317453D01*
X275079Y320494D01*
X273075Y323105D01*
X270464Y325109D01*
X267423Y326368D01*
X264160Y326798D01*
X260897Y326368D01*
X257856Y325109D01*
X255245Y323105D01*
X253241Y320494D01*
X252112Y317767D01*
X252110Y317767D01*
X250810D01*
X250808Y317767D01*
X249679Y320494D01*
X247675Y323105D01*
X245064Y325109D01*
X242023Y326368D01*
X238760Y326798D01*
X235497Y326368D01*
X232456Y325109D01*
X229845Y323105D01*
X227841Y320494D01*
X226914Y318256D01*
X225540Y318256D01*
X224715Y320246D01*
X222632Y322962D01*
X219916Y325046D01*
X216754Y326355D01*
X213360Y326802D01*
X209966Y326355D01*
X206804Y325046D01*
X204088Y322962D01*
X202005Y320246D01*
X201347Y318659D01*
X199973D01*
X199315Y320246D01*
X197232Y322962D01*
X194516Y325046D01*
X191354Y326355D01*
X187960Y326802D01*
X184566Y326355D01*
X181404Y325046D01*
X178688Y322962D01*
X176604Y320246D01*
X175947Y318659D01*
X174573D01*
X173916Y320246D01*
X171832Y322962D01*
X169116Y325046D01*
X165954Y326355D01*
X162560Y326802D01*
X159839Y326444D01*
X159508Y327681D01*
X161405Y328467D01*
X163807Y330310D01*
X165650Y332713D01*
X166809Y335510D01*
X167204Y338512D01*
X166809Y341514D01*
X165650Y344312D01*
X163807Y346714D01*
X161405Y348558D01*
X158607Y349716D01*
X155605Y350112D01*
D02*
G37*
G36*
X109760Y311690D02*
X101220D01*
Y303150D01*
X109760D01*
Y311690D01*
D02*
G37*
%LPD*%
D36*
X46400Y21000D02*
D03*
D38*
X43180Y125730D02*
D03*
D39*
X111760Y313690D02*
D03*
D40*
X324755Y405274D02*
D03*
X154310Y485360D02*
D03*
X286901Y541089D02*
D03*
X312455Y454837D02*
D03*
X427044Y546384D02*
D03*
X355546Y303925D02*
D03*
X339823Y195965D02*
D03*
X370804Y423958D02*
D03*
D44*
X280670Y38100D02*
D03*
X140970Y39370D02*
D03*
X110490D02*
D03*
X80010D02*
D03*
M02*
