%FSLAX43Y43*%
%MOMM*%
G71*
G01*
G75*
%ADD10C,0.300*%
%ADD11C,0.125*%
%ADD12O,2.000X1.000*%
%ADD13R,2.000X1.000*%
%ADD14R,1.800X1.600*%
%ADD15R,1.600X1.800*%
%ADD16R,0.600X2.150*%
%ADD17R,0.600X2.150*%
%ADD18R,1.450X0.550*%
%ADD19R,1.450X0.550*%
%ADD20R,0.600X2.200*%
%ADD21R,0.600X2.200*%
%ADD22R,0.600X1.700*%
%ADD23R,0.600X1.700*%
%ADD24C,0.500*%
%ADD25C,0.400*%
%ADD26R,1.400X1.400*%
%ADD27C,1.400*%
%ADD28C,4.000*%
%ADD29C,2.000*%
%ADD30C,1.500*%
%ADD31R,1.500X1.500*%
%ADD32R,1.300X1.300*%
%ADD33C,1.300*%
%ADD34C,1.200*%
%ADD35C,1.270*%
%ADD36R,0.850X1.300*%
%ADD37C,0.600*%
%ADD38O,2.203X1.203*%
%ADD39R,2.203X1.203*%
%ADD40R,2.003X1.803*%
%ADD41R,1.803X2.003*%
%ADD42R,0.803X2.353*%
%ADD43R,0.803X2.353*%
%ADD44R,1.653X0.753*%
%ADD45R,1.653X0.753*%
%ADD46R,0.803X2.403*%
%ADD47R,0.803X2.403*%
%ADD48R,0.803X1.903*%
%ADD49R,0.803X1.903*%
%ADD50R,1.603X1.603*%
%ADD51C,1.603*%
%ADD52C,4.203*%
%ADD53C,2.203*%
%ADD54C,1.703*%
%ADD55R,1.703X1.703*%
%ADD56R,1.503X1.503*%
%ADD57C,1.503*%
%ADD58C,1.403*%
%ADD59C,1.473*%
%ADD60R,1.053X1.503*%
D25*
X20042Y24442D02*
X18908Y25576D01*
X19900Y26568D01*
X21034Y25434D01*
X20042Y24442D01*
Y24914D02*
X19379Y25576D01*
X19900Y26097D01*
X20562Y25434D01*
X20042Y24914D01*
Y25385D02*
X19851Y25576D01*
X19900Y25625D01*
X20091Y25434D01*
X20042Y25385D01*
X19971Y25487D02*
Y25523D01*
X18062Y22462D02*
X16928Y23596D01*
X17920Y24588D01*
X19054Y23455D01*
X18062Y22462D01*
Y22934D02*
X17399Y23596D01*
X17920Y24117D01*
X18582Y23455D01*
X18062Y22934D01*
Y23405D02*
X17871Y23596D01*
X17920Y23645D01*
X18111Y23455D01*
X18062Y23405D01*
X17991Y23507D02*
Y23543D01*
X34897Y33098D02*
X33764Y34232D01*
X34756Y35224D01*
X35889Y34090D01*
X34897Y33098D01*
Y33569D02*
X34235Y34232D01*
X34756Y34752D01*
X35418Y34090D01*
X34897Y33569D01*
Y34041D02*
X34706Y34232D01*
X34756Y34281D01*
X34947Y34090D01*
X34897Y34041D01*
X34827Y34143D02*
Y34179D01*
X32917Y31118D02*
X31784Y32252D01*
X32776Y33244D01*
X33910Y32110D01*
X32917Y31118D01*
Y31589D02*
X32255Y32252D01*
X32776Y32772D01*
X33438Y32110D01*
X32917Y31589D01*
Y32061D02*
X32727Y32252D01*
X32776Y32301D01*
X32967Y32110D01*
X32917Y32061D01*
X32847Y32163D02*
Y32199D01*
D40*
X17618Y61988D02*
D03*
Y59188D02*
D03*
X21318Y49863D02*
D03*
Y47063D02*
D03*
D41*
X47587Y14693D02*
D03*
X44787D02*
D03*
X44813Y17682D02*
D03*
X47613Y17682D02*
D03*
X14713Y17257D02*
D03*
X17513D02*
D03*
X48138Y50382D02*
D03*
X45338Y50382D02*
D03*
X45362Y47793D02*
D03*
X48162Y47793D02*
D03*
D50*
X4189Y39433D02*
D03*
D51*
X1689D02*
D03*
D52*
X2800Y52200D02*
D03*
Y57200D02*
D03*
Y62200D02*
D03*
D53*
X6525Y62175D02*
D03*
Y57175D02*
D03*
X9500Y62225D02*
D03*
Y57225D02*
D03*
X26300Y63250D02*
D03*
X47500Y41225D02*
D03*
D54*
X45280Y7100D02*
D03*
X42740D02*
D03*
X47820D02*
D03*
X40200D02*
D03*
X37660D02*
D03*
X32580D02*
D03*
X30040D02*
D03*
X27500D02*
D03*
X24960D02*
D03*
X22420D02*
D03*
X19880D02*
D03*
X17340D02*
D03*
X14800D02*
D03*
X12260D02*
D03*
X9720D02*
D03*
X7180D02*
D03*
X4640D02*
D03*
X35120D02*
D03*
X47727Y44416D02*
D03*
X45187D02*
D03*
X42647D02*
D03*
X11575Y22617D02*
D03*
Y17617D02*
D03*
X22910Y39937D02*
D03*
D55*
X2100Y7100D02*
D03*
X37567Y44416D02*
D03*
X20370Y39937D02*
D03*
D56*
X9758Y32363D02*
D03*
Y29388D02*
D03*
D57*
X12258Y32363D02*
D03*
Y29388D02*
D03*
D58*
X38175Y22625D02*
D03*
X35975Y37175D02*
D03*
X33300Y50575D02*
D03*
X47450Y22800D02*
D03*
X9900Y23625D02*
D03*
X13800Y33950D02*
D03*
X21300Y51775D02*
D03*
X43300Y53125D02*
D03*
X40925Y45600D02*
D03*
X42100Y39575D02*
D03*
X41268Y33975D02*
D03*
X24750Y46725D02*
D03*
X21500Y14600D02*
D03*
X40500Y50575D02*
D03*
X1675Y46900D02*
D03*
X2000Y42100D02*
D03*
X13450Y27400D02*
D03*
X43625Y47700D02*
D03*
X44450Y23350D02*
D03*
X37475Y41400D02*
D03*
X38525Y42550D02*
D03*
X7525Y40000D02*
D03*
X7500Y44250D02*
D03*
X1975Y37300D02*
D03*
X13700Y24575D02*
D03*
X13250Y19500D02*
D03*
X2100Y15000D02*
D03*
X2200Y10025D02*
D03*
X12200Y9575D02*
D03*
X40850Y12100D02*
D03*
X16050Y15050D02*
D03*
X30575Y21500D02*
D03*
X6150Y46225D02*
D03*
X26600Y33350D02*
D03*
X23700Y27025D02*
D03*
X22500Y27975D02*
D03*
X25125Y19475D02*
D03*
X25700Y14075D02*
D03*
X14250Y29075D02*
D03*
X32687Y20250D02*
D03*
X34975Y29025D02*
D03*
X34250Y19850D02*
D03*
X29725Y13787D02*
D03*
X35275Y21275D02*
D03*
X32525Y13800D02*
D03*
X40250Y23550D02*
D03*
X36400Y22575D02*
D03*
X35150Y14075D02*
D03*
X36450Y31175D02*
D03*
X42250Y41700D02*
D03*
X18075Y42150D02*
D03*
X16400Y39000D02*
D03*
X39025Y24975D02*
D03*
X17000Y43450D02*
D03*
X15525Y35375D02*
D03*
X6000Y33800D02*
D03*
X6050Y24125D02*
D03*
X38800Y27300D02*
D03*
X15650Y44575D02*
D03*
X15900Y37450D02*
D03*
X8450Y36025D02*
D03*
X9125Y16225D02*
D03*
X7145Y29445D02*
D03*
X14325Y45825D02*
D03*
X14125Y37500D02*
D03*
X7225Y37450D02*
D03*
X7175Y21950D02*
D03*
X42550Y37293D02*
D03*
X26279Y39196D02*
D03*
X35500Y45600D02*
D03*
X41450Y8875D02*
D03*
X18700Y17200D02*
D03*
X47600Y12575D02*
D03*
X48725Y19475D02*
D03*
X47275Y58875D02*
D03*
X37285Y58800D02*
D03*
X13790Y60110D02*
D03*
X29110Y61760D02*
D03*
X22125Y61400D02*
D03*
X19425Y58875D02*
D03*
X15050Y61175D02*
D03*
X35000Y38400D02*
D03*
X29900Y40800D02*
D03*
X32625Y36425D02*
D03*
X25625Y52275D02*
D03*
X27475Y53525D02*
D03*
X28100Y39125D02*
D03*
X13675Y55200D02*
D03*
D59*
X46100Y20625D02*
D03*
X19100Y47050D02*
D03*
D60*
X43298Y12573D02*
D03*
X42348Y10373D02*
D03*
X44248D02*
D03*
M02*
